<svg width="51" height="50" viewBox="0 0 51 50" fill="none" xmlns="http://www.w3.org/2000/svg">
<path d="M38.999 0.0507812H11.5234C5.43969 0.0507812 0.507812 4.98077 0.507812 11.0622V38.5272C0.507812 44.6087 5.43969 49.5387 11.5234 49.5387H38.999C45.0827 49.5387 50.0146 44.6087 50.0146 38.5272V11.0622C50.0146 4.98077 45.0827 0.0507812 38.999 0.0507812Z" fill="#F68835"/>
<path d="M15.0279 26.377C16.1371 26.377 17.0362 24.995 17.0362 23.2901C17.0362 21.5852 16.1371 20.2031 15.0279 20.2031C13.9187 20.2031 13.0195 21.5852 13.0195 23.2901C13.0195 24.995 13.9187 26.377 15.0279 26.377Z" fill="#333333"/>
<path d="M35.1216 26.377C36.2308 26.377 37.13 24.995 37.13 23.2901C37.13 21.5852 36.2308 20.2031 35.1216 20.2031C34.0124 20.2031 33.1133 21.5852 33.1133 23.2901C33.1133 24.995 34.0124 26.377 35.1216 26.377Z" fill="#333333"/>
<path d="M32.2048 36.565C33.9258 36.565 35.1114 34.9384 34.3855 33.5113C32.9095 30.6179 29.398 28.5801 25.2996 28.5801C21.2013 28.5801 17.6897 30.6179 16.2137 33.5113C15.4878 34.9354 16.6704 36.565 18.3944 36.565H32.2048Z" fill="#333333"/>
<path d="M5.82187 18.57C5.95495 18.7907 6.22717 18.9812 6.65364 19.0809C10.2106 19.9245 17.2065 18.8481 17.7782 14.7574C17.8719 14.0862 17.4938 12.4535 16.4383 13.2306C15.3282 14.0469 14.566 15.1837 13.4197 15.9849C12.2945 16.771 10.9788 17.2034 9.55122 17.158C8.62569 17.1278 7.62151 16.9403 6.71413 17.1973C5.89749 17.4271 5.52546 18.0802 5.82187 18.57Z" fill="#333333"/>
<path d="M44.7025 18.57C44.5694 18.7907 44.2972 18.9812 43.8707 19.0809C40.3138 19.9245 33.3179 18.8481 32.7462 14.7574C32.6524 14.0862 33.0305 12.4535 34.0861 13.2306C35.1961 14.0469 35.9583 15.1837 37.1047 15.9849C38.2298 16.771 39.5455 17.2034 40.9731 17.158C41.8987 17.1278 42.9028 16.9403 43.8102 17.1973C44.6269 17.4271 44.9989 18.0802 44.7025 18.57Z" fill="#333333"/>
</svg>
