<svg width="51" height="50" viewBox="0 0 51 50" fill="none" xmlns="http://www.w3.org/2000/svg">
<path d="M39.0266 0H12.404C6.08471 0 0.961914 5.12084 0.961914 11.4377V38.0502C0.961914 44.367 6.08471 49.4879 12.404 49.4879H39.0266C45.3459 49.4879 50.4687 44.367 50.4687 38.0502V11.4377C50.4687 5.12084 45.3459 0 39.0266 0Z" fill="#F68835"/>
<path d="M18.0778 16.215C18.2049 16.1878 18.3622 16.1727 18.4468 16.2725C18.4862 16.3239 18.4983 16.3904 18.5013 16.4539C18.5255 16.9225 18.223 17.3518 17.8449 17.63C17.1644 18.1258 16.2752 18.2105 15.4313 18.2407C14.4846 18.274 13.4774 18.2407 12.6759 17.7328C12.3492 17.5242 12.0528 17.2128 12.0044 16.8288C11.9409 16.3329 12.3613 15.9338 12.8392 16.0699C13.2869 16.1969 13.6498 16.4902 14.1217 16.599C15.4495 16.9044 16.7803 16.4841 18.0748 16.212L18.0778 16.215Z" fill="#333333"/>
<path d="M33.3486 16.215C33.2216 16.1878 33.0643 16.1727 32.9796 16.2725C32.9373 16.3239 32.9282 16.3904 32.9252 16.4539C32.901 16.9225 33.2034 17.3518 33.5815 17.63C34.2621 18.1258 35.1513 18.2105 35.9952 18.2407C36.9419 18.274 37.9491 18.2407 38.7506 17.7328C39.0772 17.5242 39.3736 17.2128 39.422 16.8288C39.4856 16.3329 39.0651 15.9338 38.5873 16.0699C38.1396 16.1969 37.7766 16.4902 37.3048 16.599C35.977 16.9044 34.6462 16.4841 33.3517 16.212L33.3486 16.215Z" fill="#333333"/>
<path d="M26.0655 21.0925C27.1998 21.1076 28.3189 21.4795 29.2414 22.2716C30.6781 23.5082 31.3193 25.6911 31.292 27.5324C31.2648 29.283 30.7113 31.0971 29.3351 32.2581C27.0878 34.1508 23.909 33.6519 21.8976 31.6352C18.2167 27.9466 20.6243 21.0138 26.0655 21.0925Z" fill="#333333"/>
<path d="M37.4107 9.22993C37.8099 8.77339 38.2939 8.32894 38.8292 8.03567C39.0349 7.92077 39.2859 7.84821 39.5219 7.89961C39.7608 7.95101 39.788 8.18382 39.8213 8.38941C39.8999 8.88223 39.9544 9.3811 40.0239 9.87393C40.0572 10.1037 40.0965 10.3274 40.1358 10.5572C40.2024 10.917 40.2508 11.6396 40.8164 11.4491C40.9374 11.4098 41.0372 11.3282 41.1309 11.2435C41.3033 11.0833 41.4606 10.8777 41.6844 10.79C42.1321 10.6177 42.4104 11.0742 42.2077 11.4522C42.117 11.6185 41.9839 11.7636 41.8478 11.8966C41.5877 12.1566 41.3275 12.4166 41.0644 12.6736C40.8376 12.8974 40.6319 13.1634 40.3324 13.2995C40.0723 13.4174 39.8092 13.2935 39.6791 13.0516C39.5823 12.8702 39.5521 12.6585 39.5249 12.459C39.4916 12.202 39.4553 11.945 39.422 11.688C39.3434 11.1135 39.2678 10.5391 39.1891 9.96161C39.1649 9.78625 39.1619 9.54437 39.0409 9.40831C38.92 9.27226 38.7234 9.23295 38.554 9.29342C38.3937 9.35087 38.2666 9.48088 38.1759 9.626C37.9521 9.97672 37.8613 10.4423 37.4833 10.6721C37.2655 10.8051 36.9721 10.7689 36.83 10.5421C36.6334 10.2337 36.8935 9.88904 37.0749 9.64717C37.1808 9.50506 37.2927 9.36901 37.4077 9.23598L37.4107 9.22993Z" fill="#333333"/>
<path d="M40.9824 6.57397C41.3121 6.19906 41.7083 5.83322 42.1469 5.59437C42.3162 5.50064 42.5219 5.44017 42.7155 5.4825C42.9121 5.52483 42.9363 5.71531 42.9605 5.88462C43.024 6.28976 43.0694 6.69793 43.1268 7.10307C43.1541 7.29053 43.1843 7.47798 43.2176 7.66241C43.272 7.95871 43.3113 8.55131 43.7771 8.39409C43.8739 8.36083 43.9586 8.29431 44.0342 8.22478C44.1764 8.09174 44.3034 7.92545 44.4879 7.85289C44.8539 7.71079 45.0838 8.0857 44.9174 8.39409C44.8448 8.53317 44.7329 8.65108 44.621 8.75993C44.4062 8.97157 44.1945 9.18623 43.9767 9.39787C43.7892 9.57928 43.6198 9.79999 43.3779 9.91186C43.1631 10.0086 42.9484 9.90884 42.8425 9.70627C42.7639 9.55812 42.7397 9.38276 42.7155 9.21949C42.6883 9.00785 42.658 8.79621 42.6308 8.58759C42.5673 8.11593 42.5038 7.64427 42.4402 7.17261C42.4221 7.03051 42.4191 6.83096 42.3193 6.7191C42.2195 6.60723 42.0591 6.57699 41.92 6.62537C41.7869 6.67374 41.6841 6.77956 41.6085 6.89748C41.424 7.18471 41.3484 7.56566 41.0399 7.75614C40.8614 7.86498 40.6225 7.83475 40.5045 7.65032C40.3442 7.39635 40.5559 7.11517 40.7071 6.91562C40.7949 6.80073 40.8856 6.68584 40.9794 6.58002L40.9824 6.57397Z" fill="#333333"/>
<path d="M44.3549 4.00628C44.6331 3.69184 44.9658 3.38043 45.3379 3.17786C45.48 3.09925 45.6555 3.04785 45.8188 3.08413C45.9851 3.12041 46.0033 3.28065 46.0275 3.42275C46.0819 3.76441 46.1212 4.10908 46.1696 4.45073C46.1908 4.60795 46.218 4.76517 46.2483 4.92239C46.2936 5.17333 46.3269 5.6722 46.7201 5.53917C46.8018 5.51196 46.8744 5.45754 46.9379 5.39707C47.0558 5.2852 47.1647 5.1431 47.322 5.08263C47.6305 4.96169 47.8241 5.27916 47.685 5.53917C47.6214 5.65406 47.5277 5.75384 47.4369 5.84756C47.2555 6.02595 47.077 6.20736 46.8925 6.38574C46.7352 6.53994 46.5931 6.72437 46.3844 6.81809C46.2029 6.89973 46.0214 6.81507 45.9307 6.64576C45.8641 6.52179 45.843 6.37365 45.8248 6.23457C45.8006 6.05618 45.7764 5.8778 45.7522 5.69942C45.6978 5.30032 45.6434 4.90122 45.5919 4.50213C45.5768 4.38119 45.5738 4.21188 45.4891 4.11815C45.4074 4.02442 45.2683 3.99721 45.1534 4.03954C45.0415 4.07884 44.9537 4.16955 44.8902 4.26932C44.736 4.5112 44.6725 4.83471 44.4093 4.99495C44.2581 5.08868 44.0554 5.06147 43.9556 4.90425C43.8195 4.68958 44.001 4.45375 44.125 4.28444C44.1976 4.18769 44.2762 4.09094 44.3549 4.00023V4.00628Z" fill="#333333"/>
</svg>
