<svg width="50" height="51" viewBox="0 0 50 51" fill="none" xmlns="http://www.w3.org/2000/svg">
<path d="M38.0647 0.724609H11.4421C5.1228 0.724609 0 5.84545 0 12.1623V38.7748C0 45.0917 5.1228 50.2125 11.4421 50.2125H38.0647C44.384 50.2125 49.5068 45.0917 49.5068 38.7748V12.1623C49.5068 5.84545 44.384 0.724609 38.0647 0.724609Z" fill="#FFD7A4"/>
<path d="M33.8906 36.3702C35.0339 36.3702 35.8868 35.2908 35.5904 34.1873C34.4865 30.0723 30.3306 27.0156 25.3703 27.0156C20.4099 27.0156 16.2541 30.0754 15.1501 34.1873C14.8537 35.2908 15.7067 36.3702 16.85 36.3702L23.3226 35.5055C24.6172 35.3331 25.9298 35.3301 27.2274 35.4994L33.8906 36.3702Z" fill="#333333"/>
<path d="M16.6984 17.5013C17.7389 16.7847 18.5555 15.7961 19.4327 14.886C19.5658 14.7469 19.714 14.6048 19.9045 14.5746C20.1616 14.5383 20.4066 14.7379 20.5004 14.9797C20.5941 15.2216 20.5699 15.4907 20.5246 15.7477C20.1435 18.0002 18.4799 19.8687 16.526 21.0538C15.4856 21.6858 14.3271 22.1635 13.1112 22.2602C11.9861 22.3509 10.7218 22.0939 9.83257 21.3592C9.06735 20.7273 8.656 19.6661 9.73881 19.2216C10.6401 18.8528 12.0496 19.0614 13.0235 18.8891C14.3241 18.6563 15.6065 18.2572 16.7045 17.5043L16.6984 17.5013Z" fill="#333333"/>
<path d="M32.8076 17.5013C31.7671 16.7847 30.9505 15.7961 30.0734 14.886C29.9403 14.7469 29.7921 14.6048 29.6015 14.5746C29.3444 14.5383 29.0994 14.7379 29.0057 14.9797C28.9119 15.2216 28.9361 15.4907 28.9815 15.7477C29.3626 18.0002 31.0261 19.8687 32.98 21.0538C34.0205 21.6858 35.1789 22.1635 36.3948 22.2602C37.5199 22.3509 38.7842 22.0939 39.6735 21.3592C40.4387 20.7273 40.85 19.6661 39.7672 19.2216C38.8659 18.8528 37.4564 19.0614 36.4825 18.8891C35.1819 18.6563 33.8995 18.2572 32.8016 17.5043L32.8076 17.5013Z" fill="#333333"/>
</svg>
