<svg width="50" height="51" viewBox="0 0 50 51" fill="none" xmlns="http://www.w3.org/2000/svg">
<path d="M38.9726 0.839844H11.4971C5.41331 0.839844 0.481445 5.76982 0.481445 11.8513V39.3163C0.481445 45.3978 5.41331 50.3277 11.4971 50.3277H38.9726C45.0564 50.3277 49.9882 45.3978 49.9882 39.3163V11.8513C49.9882 5.76982 45.0564 0.839844 38.9726 0.839844Z" fill="#FCBA72"/>
<path d="M45.6689 16.2621C45.6689 18.3816 44.819 18.9833 43.6515 18.9833C42.484 18.9833 41.4375 18.3816 41.4375 16.2621C41.4375 14.1427 42.3056 9.76172 43.4731 9.76172C44.6406 9.76172 45.6659 14.1427 45.6659 16.2621H45.6689Z" fill="#333333"/>
<path d="M19.8723 25.2305H7.95536C7.58938 25.2305 7.29297 24.9342 7.29297 24.5684C7.29297 24.2025 7.58938 23.9062 7.95536 23.9062H19.8723C20.2383 23.9062 20.5347 24.2025 20.5347 24.5684C20.5347 24.9342 20.2383 25.2305 19.8723 25.2305Z" fill="#333333"/>
<path d="M42.5178 25.2305H30.6009C30.2349 25.2305 29.9385 24.9342 29.9385 24.5684C29.9385 24.2025 30.2349 23.9062 30.6009 23.9062H42.5178C42.8838 23.9062 43.1802 24.2025 43.1802 24.5684C43.1802 24.9342 42.8838 25.2305 42.5178 25.2305Z" fill="#333333"/>
<path d="M19.8723 28.0118H7.95536C7.58938 28.0118 7.29297 27.7155 7.29297 27.3496C7.29297 26.9838 7.58938 26.6875 7.95536 26.6875H19.8723C20.2383 26.6875 20.5347 26.9838 20.5347 27.3496C20.5347 27.7155 20.2383 28.0118 19.8723 28.0118Z" fill="#333333"/>
<path d="M42.5178 28.0118H30.6009C30.2349 28.0118 29.9385 27.7155 29.9385 27.3496C29.9385 26.9838 30.2349 26.6875 30.6009 26.6875H42.5178C42.8838 26.6875 43.1802 26.9838 43.1802 27.3496C43.1802 27.7155 42.8838 28.0118 42.5178 28.0118Z" fill="#333333"/>
</svg>
