<svg width="50" height="50" viewBox="0 0 50 50" fill="none" xmlns="http://www.w3.org/2000/svg">
<path d="M38.9852 49.7878H11.4824C5.39993 49.7878 0.466797 44.8595 0.466797 38.7764V11.3083C0.466797 5.22812 5.3969 0.296875 11.4824 0.296875H38.967C45.0465 0.296875 49.9766 5.22207 49.9827 11.2992L50.0008 38.7673C50.0038 44.8505 45.0707 49.7848 38.9852 49.7848V49.7878Z" fill="#F4805A"/>
<path d="M15.4984 21.9145C17.0335 21.9145 18.278 20.6705 18.278 19.136C18.278 17.6014 17.0335 16.3574 15.4984 16.3574C13.9632 16.3574 12.7188 17.6014 12.7188 19.136C12.7188 20.6705 13.9632 21.9145 15.4984 21.9145Z" fill="#333333"/>
<path d="M34.971 21.9145C36.5062 21.9145 37.7506 20.6705 37.7506 19.136C37.7506 17.6014 36.5062 16.3574 34.971 16.3574C33.4359 16.3574 32.1914 17.6014 32.1914 19.136C32.1914 20.6705 33.4359 21.9145 34.971 21.9145Z" fill="#333333"/>
<path d="M24.5056 30.017C24.1154 30.1531 23.9309 30.5945 24.1094 30.9664L24.684 32.1697C24.8897 32.5991 25.1014 33.0405 25.4553 33.358C25.8092 33.6754 26.3385 33.8478 26.771 33.6452C27.134 33.4759 27.3487 33.0768 27.4062 32.6777C27.4213 32.5628 27.4274 32.4509 27.4243 32.336C27.4183 32.0216 27.7419 31.816 28.0202 31.9641C28.3075 32.1183 28.616 32.2181 28.9669 32.1939C29.2361 32.1758 29.4992 32.0579 29.6656 31.8462C30.089 31.3141 29.7321 30.6671 29.3177 30.2347C28.8792 29.7782 28.3529 29.4063 27.7752 29.1463C27.5635 29.0495 27.3245 29.0374 27.1037 29.1161L24.5116 30.017H24.5056Z" fill="#333333"/>
</svg>
