<svg width="51" height="51" viewBox="0 0 51 51" fill="none" xmlns="http://www.w3.org/2000/svg">
<path d="M39.4794 0.839844H12.0039C5.92014 0.839844 0.988281 5.76982 0.988281 11.8513V39.3163C0.988281 45.3978 5.92014 50.3277 12.0039 50.3277H39.4794C45.5632 50.3277 50.4951 45.3978 50.4951 39.3163V11.8513C50.4951 5.76982 45.5632 0.839844 39.4794 0.839844Z" fill="#F4805A"/>
<path d="M19.6419 17.5358C19.8627 17.4905 20.1349 17.4603 20.277 17.6386C20.3466 17.7263 20.3678 17.8442 20.3708 17.9531C20.4131 18.7603 19.8899 19.5071 19.2366 19.9848C18.06 20.8435 16.5235 20.9886 15.0687 21.04C13.4293 21.0975 11.6902 21.04 10.3079 20.1632C9.74233 19.8034 9.23116 19.2653 9.1495 18.6001C9.04061 17.7445 9.76955 17.0551 10.5953 17.2909C11.3696 17.5116 11.9987 18.0166 12.8093 18.204C15.105 18.7331 17.4037 18.0045 19.6449 17.5358H19.6419Z" fill="#333333"/>
<path d="M31.8427 17.5358C31.6219 17.4905 31.3496 17.4603 31.2075 17.6386C31.1379 17.7263 31.1168 17.8442 31.1137 17.9531C31.0714 18.7603 31.5946 19.5071 32.248 19.9848C33.4245 20.8435 34.961 20.9886 36.4159 21.04C38.0552 21.0975 39.7943 21.04 41.1766 20.1632C41.7422 19.8034 42.2534 19.2653 42.335 18.6001C42.4439 17.7445 41.715 17.0551 40.8892 17.2909C40.1149 17.5116 39.4858 18.0166 38.6752 18.204C36.3796 18.7331 34.0809 18.0045 31.8396 17.5358H31.8427Z" fill="#333333"/>
<path d="M19.0375 28.7682C25.0504 29.3669 31.0271 29.4394 37.0612 28.4296C38.6188 28.1696 39.8136 29.3759 38.6884 30.7939C38.1288 31.4984 37.1852 32.0577 36.3867 32.4568C33.9367 33.6813 31.1662 33.902 28.4683 33.9172C25.5858 33.9323 22.6792 33.9927 19.8239 33.5181C17.743 33.1704 12.707 31.9942 12.5467 29.2308C12.4681 27.8854 14.9876 28.2966 15.7226 28.3903C16.8296 28.5324 17.9336 28.6594 19.0345 28.7712L19.0375 28.7682Z" fill="#333333"/>
</svg>
