<svg width="50" height="50" viewBox="0 0 50 50" fill="none" xmlns="http://www.w3.org/2000/svg">
<path d="M38.0647 0H11.4421C5.1228 0 0 5.12084 0 11.4377V38.0502C0 44.367 5.1228 49.4879 11.4421 49.4879H38.0647C44.384 49.4879 49.5068 44.367 49.5068 38.0502V11.4377C49.5068 5.12084 44.384 0 38.0647 0Z" fill="#FEC343"/>
<path d="M14.0156 23.2206C15.2017 23.2206 16.1631 21.6003 16.1631 19.6015C16.1631 17.6027 15.2017 15.9824 14.0156 15.9824C12.8296 15.9824 11.8682 17.6027 11.8682 19.6015C11.8682 21.6003 12.8296 23.2206 14.0156 23.2206Z" fill="#333333"/>
<path d="M35.4902 23.2206C36.6763 23.2206 37.6377 21.6003 37.6377 19.6015C37.6377 17.6027 36.6763 15.9824 35.4902 15.9824C34.3042 15.9824 33.3428 17.6027 33.3428 19.6015C33.3428 21.6003 34.3042 23.2206 35.4902 23.2206Z" fill="#333333"/>
<path d="M32.1239 27.8066C34.0687 27.8066 35.33 29.8505 34.4619 31.592C32.8287 34.8724 29.1417 37.1612 24.8497 37.1612C20.5578 37.1612 16.8708 34.8724 15.2375 31.592C14.3725 29.8505 15.6338 27.8066 17.5756 27.8066H32.1179H32.1239Z" fill="#333333"/>
</svg>
