<svg width="50" height="51" viewBox="0 0 50 51" fill="none" xmlns="http://www.w3.org/2000/svg">
<path d="M38.5576 50.2155H11.9108C5.59244 50.2155 0.46875 45.0938 0.46875 38.7778V12.1623C0.46875 5.84634 5.59244 0.724609 11.9108 0.724609H38.5425C44.8579 0.724609 49.9816 5.84029 49.9846 12.1563L50.0027 38.7717C50.0058 45.0908 44.8821 50.2155 38.5607 50.2155H38.5576Z" fill="#FCBA72"/>
<path d="M16.5001 23.9653C17.9184 23.3781 18.5919 21.7527 18.0045 20.335C17.417 18.9172 15.791 18.244 14.3727 18.8312C12.9544 19.4185 12.2809 21.0438 12.8684 22.4616C13.4559 23.8793 15.0819 24.5526 16.5001 23.9653Z" fill="#333333"/>
<path d="M35.9728 23.9653C37.3911 23.3781 38.0646 21.7527 37.4771 20.335C36.8896 18.9172 35.2637 18.244 33.8454 18.8312C32.4271 19.4185 31.7536 21.0438 32.3411 22.4616C32.9285 23.8793 34.5545 24.5526 35.9728 23.9653Z" fill="#333333"/>
<path d="M15.9339 31.8983C22.0497 29.794 29.1605 29.921 35.2642 32.0284C37.4782 32.7933 39.5954 33.8666 41.4495 35.2967C42.0272 35.7442 43.0888 36.6815 43.7694 35.8077C44.1596 35.3088 43.8329 34.4743 43.5637 33.9966C42.9134 32.8326 41.7671 32.0132 40.7176 31.2392C39.3414 30.2203 37.8109 29.4131 36.2321 28.76C33.5432 27.6534 30.6517 27.0759 27.7571 26.8824C26.6652 26.8099 25.5703 26.7887 24.4784 26.822C24.4482 26.822 24.4149 26.822 24.3847 26.822C22.83 26.8734 21.2784 27.0336 19.7449 27.3027C16.8262 27.8137 13.98 28.8144 11.397 30.2717C11.1157 30.432 10.8344 30.5952 10.5592 30.7615C9.63367 31.3269 8.74142 31.8953 8.20909 32.881C8.01552 33.2377 7.90663 33.664 8.02157 34.0541C8.21514 34.7192 8.93196 34.9611 9.55503 34.8281C10.538 34.6195 11.3335 34.051 12.1925 33.5703C13.0999 33.0624 14.0436 32.6149 15.0084 32.2309C15.3139 32.11 15.6224 31.9951 15.9309 31.8893L15.9339 31.8983Z" fill="#333333"/>
<path d="M20.4155 17.2716C20.6272 17.2172 20.7603 17.0086 20.724 16.7879C20.6212 16.1953 20.4004 15.6208 20.0737 15.1068C19.7259 14.5626 12.5122 17.8944 11.7803 18.2482C10.023 19.0917 8.09328 20.0169 6.3753 21.1326C5.93674 21.4168 6.30572 22.1121 6.79268 21.9186C8.61955 21.196 10.4253 20.3374 12.2551 19.7115C14.938 18.7924 17.6601 17.9791 20.4155 17.2746V17.2716Z" fill="#333333"/>
<path d="M30.3605 16.9568C30.1518 16.8872 30.0308 16.6726 30.0853 16.4549C30.2244 15.8714 30.4845 15.309 30.8445 14.8222C31.2286 14.3022 38.2064 18.1027 38.9141 18.5018C40.6109 19.4602 42.4741 20.5093 44.1164 21.7338C44.5369 22.0452 44.1225 22.7134 43.6476 22.4897C41.8722 21.6492 40.127 20.6726 38.3425 19.9258C35.7262 18.8313 33.0615 17.8396 30.3605 16.9568Z" fill="#333333"/>
</svg>
