<svg width="51" height="50" viewBox="0 0 51 50" fill="none" xmlns="http://www.w3.org/2000/svg">
<path d="M39.0266 0.183594H12.404C6.08471 0.183594 0.961914 5.30443 0.961914 11.6213V38.2337C0.961914 44.5506 6.08471 49.6715 12.404 49.6715H39.0266C45.3459 49.6715 50.4687 44.5506 50.4687 38.2337V11.6213C50.4687 5.30443 45.3459 0.183594 39.0266 0.183594Z" fill="#FFD7A4"/>
<path d="M33.9599 34.5655C35.1032 34.5655 35.9562 33.4861 35.6598 32.3826C34.5558 28.2676 30.4 25.2109 25.4396 25.2109C20.4793 25.2109 16.3235 28.2707 15.2195 32.3826C14.9231 33.4861 15.776 34.5655 16.9193 34.5655L23.392 33.7008C24.6865 33.5285 25.9992 33.5254 27.2967 33.6947L33.9599 34.5655Z" fill="#333333"/>
<path d="M15.9788 20.8481C17.514 20.8481 18.7584 19.6041 18.7584 18.0696C18.7584 16.535 17.514 15.291 15.9788 15.291C14.4437 15.291 13.1992 16.535 13.1992 18.0696C13.1992 19.6041 14.4437 20.8481 15.9788 20.8481Z" fill="#333333"/>
<path d="M35.4486 20.8481C36.9837 20.8481 38.2282 19.6041 38.2282 18.0696C38.2282 16.535 36.9837 15.291 35.4486 15.291C33.9134 15.291 32.6689 16.535 32.6689 18.0696C32.6689 19.6041 33.9134 20.8481 35.4486 20.8481Z" fill="#333333"/>
</svg>
