<svg width="51" height="50" viewBox="0 0 51 50" fill="none" xmlns="http://www.w3.org/2000/svg">
<path d="M38.5725 0.210938H11.9499C5.63062 0.210938 0.507812 5.33178 0.507812 11.6487V38.2611C0.507812 44.578 5.63062 49.6988 11.9499 49.6988H38.5725C44.8918 49.6988 50.0146 44.578 50.0146 38.2611V11.6487C50.0146 5.33178 44.8918 0.210938 38.5725 0.210938Z" fill="#FCBA72"/>
<path d="M14.5244 28.7128C15.7105 28.7128 16.6719 27.0924 16.6719 25.0937C16.6719 23.0949 15.7105 21.4746 14.5244 21.4746C13.3384 21.4746 12.377 23.0949 12.377 25.0937C12.377 27.0924 13.3384 28.7128 14.5244 28.7128Z" fill="#333333"/>
<path d="M36.003 28.7128C37.189 28.7128 38.1504 27.0924 38.1504 25.0937C38.1504 23.0949 37.189 21.4746 36.003 21.4746C34.8169 21.4746 33.8555 23.0949 33.8555 25.0937C33.8555 27.0924 34.8169 28.7128 36.003 28.7128Z" fill="#333333"/>
</svg>
