<svg width="50" height="51" viewBox="0 0 50 51" fill="none" xmlns="http://www.w3.org/2000/svg">
<path d="M38.4912 0.839844H11.0156C4.93186 0.839844 0 5.76982 0 11.8513V39.3163C0 45.3978 4.93186 50.3277 11.0156 50.3277H38.4912C44.5749 50.3277 49.5068 45.3978 49.5068 39.3163V11.8513C49.5068 5.76982 44.5749 0.839844 38.4912 0.839844Z" fill="#F99E4D"/>
<path d="M15.0169 24.8559C16.5521 24.8559 17.7965 23.6119 17.7965 22.0774C17.7965 20.5428 16.5521 19.2988 15.0169 19.2988C13.4818 19.2988 12.2373 20.5428 12.2373 22.0774C12.2373 23.6119 13.4818 24.8559 15.0169 24.8559Z" fill="#333333"/>
<path d="M34.4896 24.8559C36.0247 24.8559 37.2692 23.6119 37.2692 22.0774C37.2692 20.5428 36.0247 19.2988 34.4896 19.2988C32.9544 19.2988 31.71 20.5428 31.71 22.0774C31.71 23.6119 32.9544 24.8559 34.4896 24.8559Z" fill="#333333"/>
<path d="M40.4451 31.8731H9.0618C8.69583 31.8731 8.39941 31.5768 8.39941 31.2109C8.39941 30.8451 8.69583 30.5488 9.0618 30.5488H40.4451C40.8111 30.5488 41.1075 30.8451 41.1075 31.2109C41.1075 31.5768 40.8111 31.8731 40.4451 31.8731Z" fill="#333333"/>
</svg>
