<svg width="51" height="50" viewBox="0 0 51 50" fill="none" xmlns="http://www.w3.org/2000/svg">
<path d="M39.4531 0.300781H11.9775C5.89377 0.300781 0.961914 5.23076 0.961914 11.3122V38.7772C0.961914 44.8587 5.89377 49.7887 11.9775 49.7887H39.4531C45.5368 49.7887 50.4687 44.8587 50.4687 38.7772V11.3122C50.4687 5.23076 45.5368 0.300781 39.4531 0.300781Z" fill="#FFD7A4"/>
<path d="M32.8533 33.616C33.2585 33.7642 33.6669 33.4225 33.6064 32.9962C33.1013 29.4436 29.6925 26.6953 25.564 26.6953C21.4354 26.6953 18.0297 29.4406 17.5245 32.9932C17.464 33.4195 17.8724 33.7611 18.2777 33.613L22.1673 32.1768C24.336 31.3756 26.7163 31.3726 28.888 32.1647L32.8563 33.616H32.8533Z" fill="#333333"/>
<path d="M19.2638 16.525C19.5178 16.5522 19.7689 16.5855 20.0169 16.6248C22.1946 16.9786 22.6483 19.0798 20.2317 19.4457C18.9402 19.6392 17.5942 19.2885 16.345 19.0647C14.5787 18.7473 12.8365 18.5296 11.1306 19.1766C10.686 19.3459 10.317 19.1343 10.2474 18.7563C10.1658 18.2998 10.7979 17.9309 11.2002 17.7435C13.5049 16.6732 16.581 16.2408 19.2638 16.5281V16.525Z" fill="#333333"/>
<path d="M38.5996 16.525C38.8537 16.5522 39.1047 16.5855 39.3528 16.6248C41.5305 16.9786 41.9842 19.0798 39.5675 19.4457C38.276 19.6392 36.93 19.2885 35.6809 19.0647C33.9145 18.7473 32.1723 18.5296 30.4665 19.1766C30.0218 19.3459 29.6528 19.1343 29.5863 18.7563C29.5046 18.2998 30.1368 17.9309 30.539 17.7435C32.8438 16.6732 35.9198 16.2408 38.6026 16.5281L38.5996 16.525Z" fill="#333333"/>
<path d="M18.2812 19.6778C18.2812 18.8947 18.9164 18.2598 19.6998 18.2598C20.4832 18.2598 21.1183 18.8947 21.1183 19.6778C21.1183 20.4608 20.4832 21.0958 19.6998 21.0958C18.9164 21.0958 18.2812 20.4608 18.2812 19.6778Z" fill="#333333"/>
<path d="M37.8799 19.6778C37.8799 18.8947 38.5151 18.2598 39.2984 18.2598C40.0818 18.2598 40.717 18.8947 40.717 19.6778C40.717 20.4608 40.0818 21.0958 39.2984 21.0958C38.5151 21.0958 37.8799 20.4608 37.8799 19.6778Z" fill="#333333"/>
</svg>
