<svg width="51" height="50" viewBox="0 0 51 50" fill="none" xmlns="http://www.w3.org/2000/svg">
<path d="M39.4794 0.300781H12.0039C5.92014 0.300781 0.988281 5.23076 0.988281 11.3122V38.7772C0.988281 44.8587 5.92014 49.7887 12.0039 49.7887H39.4794C45.5632 49.7887 50.4951 44.8587 50.4951 38.7772V11.3122C50.4951 5.23076 45.5632 0.300781 39.4794 0.300781Z" fill="#F99E4D"/>
<path d="M33.8527 36.3484H17.6287C17.1175 36.3484 16.7031 35.9342 16.7031 35.4232C16.7031 34.9123 17.1175 34.498 17.6287 34.498H33.8527C34.3638 34.498 34.7782 34.9123 34.7782 35.4232C34.7782 35.9342 34.3638 36.3484 33.8527 36.3484Z" fill="#333333"/>
<path d="M20.027 24.3465C22.4543 21.9201 22.4544 17.9861 20.027 15.5597C17.5997 13.1333 13.6642 13.1333 11.2369 15.5597C8.80953 17.9861 8.80955 21.9201 11.2369 24.3465C13.6642 26.7729 17.5997 26.7729 20.027 24.3465Z" fill="white"/>
<path d="M17.5976 21.9179C18.6831 20.8328 18.6831 19.0735 17.5976 17.9884C16.5121 16.9033 14.7522 16.9033 13.6667 17.9884C12.5811 19.0735 12.5811 20.8328 13.6667 21.9179C14.7522 23.003 16.5121 23.003 17.5976 21.9179Z" fill="#333333"/>
<path d="M38.232 25.6927C41.4035 24.3795 42.9095 20.745 41.5959 17.5747C40.2822 14.4045 36.6463 12.899 33.4749 14.2122C30.3034 15.5253 28.7974 19.1599 30.111 22.3301C31.4247 25.5004 35.0606 27.0058 38.232 25.6927Z" fill="white"/>
<path d="M36.9162 22.52C38.3344 21.9328 39.0079 20.3074 38.4205 18.8897C37.833 17.4719 36.207 16.7987 34.7887 17.3859C33.3704 17.9732 32.6969 19.5985 33.2844 21.0163C33.8719 22.434 35.4979 23.1073 36.9162 22.52Z" fill="#333333"/>
</svg>
