<svg width="51" height="50" viewBox="0 0 51 50" fill="none" xmlns="http://www.w3.org/2000/svg">
<path d="M38.5725 0.396484H11.9499C5.63062 0.396484 0.507812 5.51733 0.507812 11.8342V38.4466C0.507812 44.7635 5.63062 49.8844 11.9499 49.8844H38.5725C44.8918 49.8844 50.0146 44.7635 50.0146 38.4466V11.8342C50.0146 5.51733 44.8918 0.396484 38.5725 0.396484Z" fill="#F4805A"/>
<path d="M7.67954 31.1145C9.37838 31.1145 10.7556 29.7379 10.7556 28.0397C10.7556 26.3415 9.37838 24.9648 7.67954 24.9648C5.98069 24.9648 4.60352 26.3415 4.60352 28.0397C4.60352 29.7379 5.98069 31.1145 7.67954 31.1145Z" fill="#333333"/>
<path d="M42.8475 31.1145C44.5464 31.1145 45.9235 29.7379 45.9235 28.0397C45.9235 26.3415 44.5464 24.9648 42.8475 24.9648C41.1487 24.9648 39.7715 26.3415 39.7715 28.0397C39.7715 29.7379 41.1487 31.1145 42.8475 31.1145Z" fill="#333333"/>
<path d="M31.4346 28.8691C33.086 28.8691 34.1537 30.6046 33.4218 32.0831C32.0365 34.8677 28.906 36.8117 25.2644 36.8117C21.6228 36.8117 18.4923 34.8677 17.107 32.0831C16.3721 30.6046 17.4428 28.8691 19.0942 28.8691H31.4407H31.4346Z" fill="#333333"/>
<path d="M12.5833 22.2597C12.3201 22.042 12.066 21.8122 11.8271 21.5703C10.7957 20.5242 9.55864 18.8009 10.0607 17.2498C10.4479 16.0495 11.8604 15.6958 12.9885 15.7714C13.6056 15.8137 14.2075 15.9921 14.764 16.2612C14.9636 16.3549 15.2116 16.4698 15.4324 16.6149C15.6442 16.751 15.9194 16.6058 15.9315 16.3579C15.9829 15.3239 16.3489 14.2415 17.2805 13.7396C18.2937 13.1924 19.4098 13.5552 20.1569 14.3655C21.3576 15.6686 21.2336 17.4645 20.7376 19.0427C20.3898 20.1524 19.9451 21.2317 19.4098 22.2627C19.1194 22.8281 18.8684 23.4479 18.4419 23.9317C17.6979 24.7752 16.612 24.5636 15.6956 24.1524C14.6007 23.6596 13.5209 23.0397 12.5833 22.2627V22.2597Z" fill="#333333"/>
<path d="M37.9446 22.2597C38.2078 22.042 38.4618 21.8122 38.7008 21.5703C39.7322 20.5242 40.9693 18.8009 40.4672 17.2498C40.08 16.0495 38.6675 15.6958 37.5393 15.7714C36.9223 15.8137 36.3204 15.9921 35.7639 16.2612C35.5643 16.3549 35.3163 16.4698 35.0955 16.6149C34.8837 16.751 34.6085 16.6058 34.5964 16.3579C34.545 15.3239 34.179 14.2415 33.2474 13.7396C32.2342 13.1924 31.1181 13.5552 30.374 14.3655C29.1733 15.6686 29.2973 17.4645 29.7933 19.0427C30.1412 20.1524 30.5858 21.2317 31.1181 22.2627C31.4085 22.8281 31.6595 23.4479 32.086 23.9317C32.83 24.7752 33.9159 24.5636 34.8323 24.1524C35.9272 23.6596 37.007 23.0397 37.9446 22.2627V22.2597Z" fill="#333333"/>
</svg>
