<svg width="51" height="51" viewBox="0 0 51 51" fill="none" xmlns="http://www.w3.org/2000/svg">
<path d="M39.4794 0.644531H12.0039C5.92014 0.644531 0.988281 5.57451 0.988281 11.6559V39.121C0.988281 45.2024 5.92014 50.1324 12.0039 50.1324H39.4794C45.5632 50.1324 50.4951 45.2024 50.4951 39.121V11.6559C50.4951 5.57451 45.5632 0.644531 39.4794 0.644531Z" fill="#F68835"/>
<path d="M11.5577 16.9341C11.6545 17.1095 11.8511 17.2606 12.1626 17.3423C14.7456 18.0135 19.824 17.1578 20.2383 13.8986C20.3049 13.3664 20.0326 12.0633 19.2644 12.6831C18.4568 13.3332 17.9063 14.2372 17.0716 14.8752C16.2549 15.501 15.2991 15.8457 14.2647 15.8094C13.5933 15.7852 12.8613 15.637 12.205 15.8426C11.6121 16.0271 11.343 16.5441 11.5577 16.9371V16.9341Z" fill="#333333"/>
<path d="M39.7879 16.9341C39.6912 17.1095 39.4946 17.2606 39.183 17.3423C36.6 18.0135 31.5217 17.1578 31.1073 13.8986C31.0408 13.3664 31.313 12.0633 32.0812 12.6831C32.8888 13.3332 33.4393 14.2372 34.2741 14.8752C35.0907 15.501 36.0465 15.8457 37.0809 15.8094C37.7524 15.7852 38.4843 15.637 39.1407 15.8426C39.7335 16.0271 40.0027 16.5441 39.7879 16.9371V16.9341Z" fill="#333333"/>
<path d="M19.0518 20.8426C19.6114 20.9212 20.1165 21.2175 20.6034 21.5047C21.2416 21.8827 21.901 22.2817 22.2912 22.9136C22.4696 23.2039 22.5725 23.603 22.3577 23.8691C22.2125 24.0475 21.9706 24.1049 21.7437 24.1291C20.186 24.2772 18.6556 23.1646 17.1312 23.5183C16.4748 23.6695 13.0419 25.3899 14.04 23.3883C14.7387 21.9885 17.5909 20.637 19.0518 20.8456V20.8426Z" fill="#333333"/>
<path d="M32.2938 20.8426C31.7343 20.9212 31.2292 21.2175 30.7422 21.5047C30.104 21.8827 29.4447 22.2817 29.0545 22.9136C28.876 23.2039 28.7732 23.603 28.9879 23.8691C29.1331 24.0475 29.3751 24.1049 29.6019 24.1291C31.1596 24.2772 32.6901 23.1646 34.2145 23.5183C34.8708 23.6695 38.3037 25.3899 37.3056 23.3883C36.6069 21.9885 33.7547 20.637 32.2938 20.8456V20.8426Z" fill="#333333"/>
<path d="M18.0114 35.8672C17.8662 32.8166 20.5974 30.6034 22.8236 28.9919C23.8307 28.2632 24.8773 27.3048 26.1657 27.1204C27.6206 26.9117 28.8062 27.9669 29.7076 28.9737C30.6361 30.0108 31.4891 31.1174 32.2452 32.2844C33.0377 33.5119 33.7363 35.0781 33.0709 36.3812C32.5567 37.388 31.353 37.8778 30.2217 37.902C29.0905 37.9262 27.9896 37.5755 26.8886 37.3124C26.0508 37.1098 25.1495 36.998 24.2754 37.1068C23.8307 37.1612 23.3952 37.2731 22.9808 37.4454C22.5574 37.6238 22.1823 37.8869 21.7498 38.0471C21.0027 38.3222 20.1226 38.3374 19.3785 38.0199C18.6193 37.6964 18.1384 37.0161 18.0386 36.1998C18.0235 36.0879 18.0144 35.9761 18.0114 35.8672Z" fill="#333333"/>
<path d="M38.8461 28.6339C38.958 29.3324 39.2756 30.1336 39.8593 30.572C40.3856 30.9681 41.1297 30.8743 41.5773 30.4057C42.2578 29.6922 41.9947 28.5493 41.6741 27.736C41.2869 26.7473 40.5731 25.7526 39.575 25.3172C39.0881 25.1056 38.5466 25.0633 38.0385 25.2175C37.5909 25.3535 37.8449 25.7768 38.0083 26.0489C38.3017 26.5296 38.5285 27.0587 38.6646 27.603C38.7493 27.9386 38.7917 28.2863 38.8461 28.6309V28.6339Z" fill="white"/>
<path d="M12.64 28.6339C12.5281 29.3324 12.2105 30.1336 11.6268 30.572C11.1005 30.9681 10.3564 30.8743 9.90878 30.4057C9.22824 29.6922 9.49138 28.5493 9.81199 27.736C10.1991 26.7473 10.9129 25.7526 11.9111 25.3172C12.398 25.1056 12.9394 25.0633 13.4476 25.2175C13.8952 25.3535 13.6412 25.7768 13.4778 26.0489C13.1844 26.5296 12.9576 27.0587 12.8215 27.603C12.7368 27.9386 12.6944 28.2863 12.64 28.6309V28.6339Z" fill="white"/>
</svg>
