<svg width="51" height="51" viewBox="0 0 51 51" fill="none" xmlns="http://www.w3.org/2000/svg">
<path d="M38.5725 0.935547H11.9499C5.63062 0.935547 0.507812 6.05639 0.507812 12.3733V38.9857C0.507812 45.3026 5.63062 50.4234 11.9499 50.4234H38.5725C44.8918 50.4234 50.0146 45.3026 50.0146 38.9857V12.3733C50.0146 6.05639 44.8918 0.935547 38.5725 0.935547Z" fill="#F68835"/>
<path d="M32.5495 35.5691C32.9548 35.7173 33.3632 35.3756 33.3027 34.9493C32.7976 31.3968 29.3888 28.6484 25.2602 28.6484C21.1317 28.6484 17.7259 31.3937 17.2208 34.9463C17.1603 35.3726 17.5687 35.7142 17.974 35.5661L21.8636 34.13C24.0323 33.3287 26.4126 33.3257 28.5843 34.1179L32.5526 35.5691H32.5495Z" fill="#333333"/>
<path d="M17.0344 24.7668C17.9498 24.7668 18.6919 23.5174 18.6919 21.9762C18.6919 20.435 17.9498 19.1855 17.0344 19.1855C16.119 19.1855 15.377 20.435 15.377 21.9762C15.377 23.5174 16.119 24.7668 17.0344 24.7668Z" fill="#333333"/>
<path d="M33.6047 24.7668C34.5201 24.7668 35.2622 23.5174 35.2622 21.9762C35.2622 20.435 34.5201 19.1855 33.6047 19.1855C32.6893 19.1855 31.9473 20.435 31.9473 21.9762C31.9473 23.5174 32.6893 24.7668 33.6047 24.7668Z" fill="#333333"/>
<path d="M18.9148 19.9471C17.9197 19.1852 15.5635 17.7884 11.7283 17.7793C11.5317 17.7793 11.3472 17.6886 11.2384 17.5253C11.0387 17.226 10.8633 16.7241 11.5378 16.3311C11.5378 16.3311 13.413 15.2215 15.6331 16.0741C15.6331 16.0741 18.083 17.2986 19.066 18.8678C19.1084 18.9373 19.1386 19.0129 19.1568 19.0945L19.2989 19.6932C19.3503 19.9169 19.0963 20.0832 18.9148 19.9441V19.9471Z" fill="#333333"/>
<path d="M31.6096 19.9471C32.6047 19.1852 34.9609 17.7884 38.7961 17.7793C38.9927 17.7793 39.1772 17.6886 39.2861 17.5253C39.4857 17.226 39.6611 16.7241 38.9866 16.3311C38.9866 16.3311 37.1114 15.2215 34.8913 16.0741C34.8913 16.0741 32.4414 17.2986 31.4584 18.8678C31.416 18.9373 31.3858 19.0129 31.3677 19.0945L31.2255 19.6932C31.1741 19.9169 31.4281 20.0832 31.6096 19.9441V19.9471Z" fill="#333333"/>
</svg>
