<svg width="50" height="50" viewBox="0 0 50 50" fill="none" xmlns="http://www.w3.org/2000/svg">
<path d="M38.5461 0H11.9235C5.60424 0 0.481445 5.12084 0.481445 11.4377V38.0502C0.481445 44.367 5.60424 49.4879 11.9235 49.4879H38.5461C44.8654 49.4879 49.9882 44.367 49.9882 38.0502V11.4377C49.9882 5.12084 44.8654 0 38.5461 0Z" fill="#F99E4D"/>
<path d="M8.03425 19.6704C8.01611 19.6281 8.00401 19.5857 7.99796 19.5434C7.5231 16.8798 12.6075 16.1995 14.2438 16.7135C15.0846 16.9765 15.9255 17.4361 16.5969 18.0045C16.854 18.2252 18.5175 20.3023 17.3228 20.3295C17.1474 20.3325 16.9841 20.2328 16.8419 20.13C15.75 19.359 15.1693 18.2161 13.7931 17.8896C12.2838 17.5298 10.6294 18.0166 9.57378 19.1594C9.24108 19.5192 8.40023 20.5472 8.0403 19.6704H8.03425Z" fill="#333333"/>
<path d="M41.6074 19.6704C41.6255 19.6281 41.6376 19.5857 41.6437 19.5434C42.1185 16.8798 37.0342 16.1995 35.3978 16.7135C34.557 16.9765 33.7162 17.4361 33.0447 18.0045C32.7876 18.2252 31.1241 20.3023 32.3188 20.3295C32.4942 20.3325 32.6576 20.2328 32.7997 20.13C33.8916 19.359 34.4723 18.2161 35.8485 17.8896C37.3578 17.5298 39.0123 18.0166 40.0678 19.1594C40.4005 19.5192 41.2414 20.5472 41.6013 19.6704H41.6074Z" fill="#333333"/>
<path d="M15.2054 28.9583C21.3212 31.0627 28.432 30.9357 34.5357 28.8283C36.7497 28.0634 38.8669 26.9901 40.721 25.56C41.2987 25.1125 42.3604 24.1752 43.0409 25.049C43.4311 25.5479 43.1044 26.3824 42.8352 26.8601C42.1849 28.0241 41.0386 28.8434 39.9891 29.6175C38.6129 30.6364 37.0824 31.4436 35.5036 32.0967C32.8147 33.2033 29.9232 33.7808 27.0286 33.9743C25.9367 34.0468 24.8418 34.068 23.7499 34.0347C23.7197 34.0347 23.6864 34.0347 23.6562 34.0347C22.1015 33.9833 20.5499 33.8231 19.0164 33.554C16.0977 33.043 13.2515 32.0423 10.6685 30.585C10.3872 30.4247 10.1059 30.2614 9.8307 30.0952C8.90517 29.5298 8.01291 28.9614 7.48058 27.9757C7.28701 27.619 7.17812 27.1926 7.29305 26.8026C7.48663 26.1375 8.20346 25.8956 8.82653 26.0286C9.80953 26.2372 10.605 26.8056 11.464 27.2864C12.3714 27.7943 13.315 28.2418 14.2799 28.6258C14.5854 28.7467 14.8939 28.8616 15.2024 28.9674L15.2054 28.9583Z" fill="#333333"/>
</svg>
