<svg width="50" height="50" viewBox="0 0 50 50" fill="none" xmlns="http://www.w3.org/2000/svg">
<path d="M38.9726 0.300781H11.4971C5.41331 0.300781 0.481445 5.23076 0.481445 11.3122V38.7772C0.481445 44.8587 5.41331 49.7887 11.4971 49.7887H38.9726C45.0564 49.7887 49.9882 44.8587 49.9882 38.7772V11.3122C49.9882 5.23076 45.0564 0.300781 38.9726 0.300781Z" fill="#FEC343"/>
<path d="M33.9216 26.8594C34.9772 26.8594 35.7485 27.8541 35.4944 28.879C34.457 33.0756 30.2588 36.2139 25.235 36.2139C20.2111 36.2139 16.0099 33.0756 14.9755 28.879C14.7214 27.8541 15.4927 26.8594 16.5483 26.8594H33.9216Z" fill="#333333"/>
<path d="M17.2949 17.7853C17.8363 18.7044 18.0964 20.0257 17.2949 20.7241C16.6356 21.2955 15.6435 21.1262 14.7754 21.0264C12.5856 20.7785 10.3232 21.229 8.39955 22.2963C8.27554 22.3658 8.14851 22.4384 8.00635 22.4626C7.72204 22.514 7.4226 22.3446 7.27742 22.0937C7.01125 21.6311 7.25323 21.0113 7.67365 20.6787C8.09407 20.3492 8.63849 20.2373 9.16478 20.1375C11.3727 19.7112 13.6684 19.2849 15.8522 19.8291C15.958 19.8563 16.0669 19.8836 16.1728 19.8564C16.5236 19.7596 16.4299 19.2335 16.2212 18.9342C15.4953 17.8941 14.3157 17.2562 13.1089 16.8631C12.1198 16.5396 9.34625 16.4791 8.73226 15.6084C7.92469 14.4595 10.2718 13.8366 11.0854 13.879C13.372 14.006 16.1607 15.8563 17.2979 17.7853H17.2949Z" fill="#333333"/>
<path d="M33.1713 17.7853C32.6299 18.7044 32.3698 20.0257 33.1713 20.7241C33.8307 21.2955 34.8228 21.1262 35.6908 21.0264C37.8806 20.7785 40.143 21.229 42.0667 22.2963C42.1907 22.3658 42.3177 22.4384 42.4599 22.4626C42.7442 22.514 43.0436 22.3446 43.1888 22.0937C43.455 21.6311 43.213 21.0113 42.7926 20.6787C42.3722 20.3492 41.8277 20.2373 41.3015 20.1375C39.0935 19.7112 36.7978 19.2849 34.6141 19.8291C34.5082 19.8563 34.3993 19.8836 34.2934 19.8564C33.9426 19.7596 34.0364 19.2335 34.2451 18.9342C34.971 17.8941 36.1506 17.2562 37.3574 16.8631C38.3464 16.5396 41.12 16.4791 41.734 15.6084C42.5416 14.4595 40.1945 13.8366 39.3808 13.879C37.0942 14.006 34.3056 15.8563 33.1683 17.7853H33.1713Z" fill="#333333"/>
</svg>
