<svg width="50" height="51" viewBox="0 0 50 51" fill="none" xmlns="http://www.w3.org/2000/svg">
<path d="M38.9726 0.644531H11.4971C5.41331 0.644531 0.481445 5.57451 0.481445 11.6559V39.121C0.481445 45.2024 5.41331 50.1324 11.4971 50.1324H38.9726C45.0564 50.1324 49.9882 45.2024 49.9882 39.121V11.6559C49.9882 5.57451 45.0564 0.644531 38.9726 0.644531Z" fill="#FFD7A4"/>
<path d="M30.8695 37.407C32.276 37.407 33.2408 35.9497 32.648 34.6769C31.4442 32.0858 28.5769 30.2656 25.2347 30.2656C21.8925 30.2656 19.0252 32.0888 17.8214 34.6769C17.2285 35.9497 18.1934 37.407 19.5998 37.407H30.8695Z" fill="#333333"/>
<path d="M9.37054 18.3327C9.47943 18.5322 9.70022 18.6985 10.0511 18.7892C12.9547 19.5451 18.6621 18.5806 19.1279 14.9192C19.2035 14.3205 18.895 12.8572 18.033 13.5526C17.1256 14.2843 16.5056 15.3001 15.568 16.0167C14.6485 16.7181 13.5747 17.1082 12.4133 17.0658C11.6571 17.0386 10.8375 16.8723 10.0964 17.1021C9.43103 17.3077 9.12555 17.8912 9.36752 18.3296L9.37054 18.3327Z" fill="#333333"/>
<path d="M41.0985 18.3327C40.9896 18.5322 40.7688 18.6985 40.4179 18.7892C37.5143 19.5451 31.8069 18.5806 31.3411 14.9192C31.2655 14.3205 31.574 12.8572 32.436 13.5526C33.3434 14.2843 33.9634 15.3001 34.901 16.0167C35.8205 16.7181 36.8943 17.1082 38.0557 17.0658C38.8119 17.0386 39.6315 16.8723 40.3726 17.1021C41.038 17.3077 41.3435 17.8912 41.1015 18.3296L41.0985 18.3327Z" fill="#333333"/>
<path d="M18.8825 23.2736C19.2152 23.3945 19.5328 23.5427 19.8171 23.7543C21.2659 24.8398 19.6931 26.1399 18.6768 26.7808C17.5728 27.4732 15.7853 28.7068 14.4121 28.4407C14.1973 28.3984 13.9705 28.3077 13.8616 28.1172C13.3414 27.2132 14.7932 26.7869 15.3769 26.5329C15.8125 26.3454 16.6654 25.9222 16.614 25.3356C16.5989 25.1633 16.493 25.0091 16.369 24.8881C15.51 24.0476 13.662 24.2955 13.3232 22.8987C13.2779 22.7112 13.3051 22.4996 13.4321 22.3545C13.5561 22.2124 13.7497 22.1549 13.9372 22.1247C15.0866 21.9312 16.2148 22.3273 17.2673 22.7475C17.7815 22.9531 18.3532 23.0801 18.8855 23.2766L18.8825 23.2736Z" fill="#333333"/>
<path d="M31.5864 23.2736C31.2537 23.3945 30.9361 23.5427 30.6518 23.7543C29.203 24.8398 30.7758 26.1399 31.792 26.7808C32.896 27.4732 34.6836 28.7068 36.0567 28.4407C36.2715 28.3984 36.4983 28.3077 36.6072 28.1172C37.1275 27.2132 35.6756 26.7869 35.0919 26.5329C34.6564 26.3454 33.8034 25.9222 33.8548 25.3356C33.87 25.1633 33.9758 25.0091 34.0998 24.8881C34.9588 24.0476 36.8069 24.2955 37.1456 22.8987C37.191 22.7112 37.1638 22.4996 37.0367 22.3545C36.9127 22.2124 36.7191 22.1549 36.5316 22.1247C35.3823 21.9312 34.2541 22.3273 33.2015 22.7475C32.6873 22.9531 32.1157 23.0801 31.5834 23.2766L31.5864 23.2736Z" fill="#333333"/>
</svg>
