<svg width="50" height="51" viewBox="0 0 50 51" fill="none" xmlns="http://www.w3.org/2000/svg">
<path d="M38.9852 50.3268H11.4824C5.39993 50.3268 0.466797 45.3986 0.466797 39.3154V11.8473C0.466797 5.76718 5.3969 0.835938 11.4824 0.835938H38.967C45.0465 0.835938 49.9766 5.76115 49.9827 11.8383L50.0008 39.3064C50.0038 45.3895 45.0707 50.3238 38.9852 50.3238V50.3268Z" fill="#FCBA72"/>
<path d="M15.4984 17.4399C17.0335 17.4399 18.278 16.1959 18.278 14.6614C18.278 13.1268 17.0335 11.8828 15.4984 11.8828C13.9632 11.8828 12.7188 13.1268 12.7188 14.6614C12.7188 16.1959 13.9632 17.4399 15.4984 17.4399Z" fill="#333333"/>
<path d="M34.971 17.4399C36.5062 17.4399 37.7506 16.1959 37.7506 14.6614C37.7506 13.1268 36.5062 11.8828 34.971 11.8828C33.4359 11.8828 32.1914 13.1268 32.1914 14.6614C32.1914 16.1959 33.4359 17.4399 34.971 17.4399Z" fill="#333333"/>
<path d="M34.5011 31.9293C35.7106 26.8068 32.5369 21.6741 27.4124 20.4651C22.288 19.2561 17.1533 22.4286 15.9439 27.5511C14.7344 32.6736 17.9081 37.8063 23.0325 39.0153C28.157 40.2243 33.2916 37.0518 34.5011 31.9293Z" fill="#333333"/>
</svg>
