<svg width="51" height="51" viewBox="0 0 51 51" fill="none" xmlns="http://www.w3.org/2000/svg">
<path d="M39.4531 0.839844H11.9775C5.89377 0.839844 0.961914 5.76982 0.961914 11.8513V39.3163C0.961914 45.3978 5.89377 50.3277 11.9775 50.3277H39.4531C45.5368 50.3277 50.4687 45.3978 50.4687 39.3163V11.8513C50.4687 5.76982 45.5368 0.839844 39.4531 0.839844Z" fill="#FEC343"/>
<path d="M35.7022 24.9121C37.8618 24.9121 39.3226 27.1011 38.509 29.0966C36.5884 33.8131 31.5101 37.1813 25.5516 37.1813C19.5931 37.1813 14.5148 33.8131 12.5942 29.0966C11.7806 27.0981 13.2445 24.9121 15.401 24.9121H35.7022Z" fill="#333333"/>
<path d="M8.92879 17.106C8.91065 17.0636 8.89854 17.0213 8.89249 16.979C8.41763 14.3153 13.502 13.635 15.1383 14.149C15.9792 14.4121 16.82 14.8716 17.4915 15.44C17.7485 15.6607 19.4121 17.7379 18.2174 17.7651C18.0419 17.7681 17.8786 17.6683 17.7364 17.5655C16.6446 16.7945 16.0638 15.6517 14.6876 15.3251C13.1784 14.9653 11.5239 15.4521 10.4683 16.595C10.1356 16.9548 9.29477 17.9828 8.93484 17.106H8.92879Z" fill="#333333"/>
<path d="M42.5019 17.106C42.52 17.0636 42.5321 17.0213 42.5382 16.979C43.0131 14.3153 37.9287 13.635 36.2924 14.149C35.4515 14.4121 34.6107 14.8716 33.9392 15.44C33.6821 15.6607 32.0186 17.7379 33.2133 17.7651C33.3887 17.7681 33.5521 17.6683 33.6942 17.5655C34.7861 16.7945 35.3668 15.6517 36.743 15.3251C38.2523 14.9653 39.9068 15.4521 40.9624 16.595C41.2951 16.9548 42.1359 17.9828 42.4958 17.106H42.5019Z" fill="#333333"/>
</svg>
