<svg width="51" height="50" viewBox="0 0 51 50" fill="none" xmlns="http://www.w3.org/2000/svg">
<path d="M38.999 0.511719H11.5234C5.43969 0.511719 0.507812 5.44171 0.507812 11.5231V38.9882C0.507812 45.0696 5.43969 49.9996 11.5234 49.9996H38.999C45.0827 49.9996 50.0146 45.0696 50.0146 38.9882V11.5231C50.0146 5.44171 45.0827 0.511719 38.999 0.511719Z" fill="#FCBA72"/>
<path d="M18.3117 18.2415C18.5576 16.7268 17.5286 15.2995 16.0133 15.0536C14.498 14.8078 13.0702 15.8364 12.8243 17.3511C12.5783 18.8658 13.6073 20.2931 15.1226 20.5389C16.6379 20.7848 18.0657 19.7562 18.3117 18.2415Z" fill="#333333"/>
<path d="M32.1626 16.3587C31.8299 16.4796 31.5123 16.6277 31.2279 16.8394C29.7792 17.9248 31.352 19.2249 32.3682 19.8659C33.4722 20.5582 35.2597 21.7918 36.6359 21.5257C36.8507 21.4834 37.0775 21.3927 37.1864 21.2022C37.7067 20.2982 36.2548 19.8719 35.6711 19.6179C35.2356 19.4305 34.3826 19.0072 34.434 18.4207C34.4492 18.2483 34.555 18.0941 34.679 17.9732C35.538 17.1327 37.386 17.3806 37.7248 15.9838C37.7702 15.7963 37.7429 15.5847 37.6159 15.4365C37.4919 15.2944 37.2983 15.237 37.1108 15.2067C35.9615 15.0132 34.8333 15.4093 33.7807 15.8296C33.2665 16.0352 32.6949 16.1621 32.1626 16.3587Z" fill="#333333"/>
<path d="M23.4581 35.4281C24.19 35.5883 24.9643 35.5248 25.6297 35.0501C26.1167 34.6994 26.516 34.1491 26.8608 33.5505C27.2177 32.9277 27.3991 32.4016 28.0343 32.5165C28.6544 32.6284 29.2079 33.1061 29.8097 33.3328C30.9077 33.741 32.0147 32.837 32.5561 31.4704C32.8495 30.7326 33.0793 29.8347 33.1126 28.9821C33.1247 28.6737 32.8162 26.5633 32.3565 27.1347C32.3081 27.1952 32.2929 27.2919 32.2839 27.3826C32.1962 28.2262 32.3141 29.0486 32.0661 29.8528C31.8665 30.4938 31.5398 31.0441 31.1376 31.4432C30.3239 32.2534 29.2169 32.3774 28.4336 31.419C28.2188 31.1559 28.0162 30.8626 27.7712 30.6571C27.1632 30.1491 26.6127 30.5845 26.2921 31.3887C25.9987 32.1204 25.9141 32.84 25.4422 33.4084C25.046 33.8861 24.5348 34.131 24.0176 34.137C22.9046 34.1491 22.0002 33.1333 21.1503 32.2202C21.0263 32.0871 20.8993 31.9541 20.751 31.9027C20.6028 31.8513 20.4244 31.8967 20.3336 32.0751C20.1915 32.3472 20.3185 32.7342 20.4607 33.0033C21.1624 34.3275 22.2634 35.1499 23.4036 35.416C23.4218 35.419 23.4399 35.425 23.4581 35.4281Z" fill="#333333"/>
</svg>
