<svg width="50" height="50" viewBox="0 0 50 50" fill="none" xmlns="http://www.w3.org/2000/svg">
<path d="M38.4912 0.300781H11.0156C4.93186 0.300781 0 5.23076 0 11.3122V38.7772C0 44.8587 4.93186 49.7887 11.0156 49.7887H38.4912C44.5749 49.7887 49.5068 44.8587 49.5068 38.7772V11.3122C49.5068 5.23076 44.5749 0.300781 38.4912 0.300781Z" fill="#F68835"/>
<path d="M6.99612 28.9689C5.33259 33.368 3.84448 37.8337 2.47131 42.3265C2.39569 42.5714 2.32613 42.8344 2.40779 43.0763C2.53785 43.4603 2.98247 43.6205 3.37567 43.7264C5.75906 44.3734 8.18177 44.8662 10.6287 45.1957C12.4404 45.4406 13.4416 44.9116 13.7561 43.1035C14.2098 40.5003 14.0465 37.6371 14.2401 34.9946C14.485 31.6416 14.7845 28.2886 15.1414 24.9447C15.4257 22.2659 16.4934 18.8101 15.5921 16.1827C15.3561 15.4994 14.7482 14.8887 14.0223 14.8887C13.2994 14.8887 12.7066 15.4782 12.3708 16.1192C10.2536 20.1797 8.61731 24.6877 6.99915 28.9689H6.99612Z" fill="white"/>
<path d="M16.0215 15.7846C16.5811 15.7059 17.0862 15.4096 17.5732 15.1224C18.2114 14.7445 18.8707 14.3454 19.2609 13.7135C19.4394 13.4232 19.5422 13.0241 19.3274 12.7581C19.1823 12.5797 18.9403 12.5222 18.7134 12.4981C17.1558 12.3499 15.6253 13.4625 14.1009 13.1088C13.4446 12.9576 10.0117 11.2373 11.0098 13.2388C11.7085 14.6387 14.5607 15.9901 16.0215 15.7815V15.7846Z" fill="#333333"/>
<path d="M42.4381 28.6015C44.1259 32.9915 45.6382 37.4481 47.0355 41.9349C47.1112 42.1798 47.1837 42.4429 47.1021 42.6847C46.975 43.0687 46.5304 43.2319 46.1403 43.3408C43.7629 43.9999 41.3402 44.5078 38.8963 44.8525C37.0876 45.1065 36.0834 44.5834 35.7568 42.7754C35.288 40.1722 35.4362 37.312 35.2275 34.6665C34.9643 31.3135 34.6467 27.9635 34.2717 24.6226C33.9723 21.9469 32.8864 18.4971 33.7757 15.8637C34.0086 15.1773 34.6135 14.5666 35.3364 14.5606C36.0592 14.5575 36.6551 15.1441 36.9938 15.782C39.1322 19.8304 40.7927 24.3293 42.4351 28.6015H42.4381Z" fill="white"/>
<path d="M33.0624 15.7846C32.5028 15.7059 31.9977 15.4096 31.5108 15.1224C30.8726 14.7445 30.2132 14.3454 29.823 13.7135C29.6446 13.4232 29.5417 13.0241 29.7565 12.7581C29.9017 12.5797 30.1436 12.5222 30.3705 12.4981C31.9282 12.3499 33.4586 13.4625 34.983 13.1088C35.6393 12.9576 39.0723 11.2373 38.0742 13.2388C37.3724 14.6387 34.5233 15.9901 33.0624 15.7815V15.7846Z" fill="#333333"/>
<path d="M16.8386 35.625C16.6934 32.5744 19.4246 30.3612 21.6507 28.7497C22.6579 28.021 23.7044 27.0626 24.9929 26.8782C26.4477 26.6696 27.6334 27.7247 28.5347 28.7316C29.4633 29.7686 30.3162 30.8752 31.0724 32.0422C31.8648 33.2698 32.5635 34.8359 31.8981 36.139C31.3839 37.1458 30.1801 37.6356 29.0489 37.6598C27.9177 37.684 26.8167 37.3333 25.7158 37.0702C24.878 36.8677 23.9766 36.7558 23.1025 36.8647C22.6579 36.9191 22.2224 37.0309 21.808 37.2033C21.3845 37.3817 21.0095 37.6447 20.577 37.8049C19.8299 38.0801 18.9497 38.0952 18.2057 37.7777C17.4465 37.4542 16.9656 36.774 16.8658 35.9576C16.8507 35.8457 16.8416 35.7339 16.8386 35.625Z" fill="#333333"/>
</svg>
