<svg width="50" height="50" viewBox="0 0 50 50" fill="none" xmlns="http://www.w3.org/2000/svg">
<path d="M38.0647 0.183594H11.4421C5.1228 0.183594 0 5.30443 0 11.6213V38.2337C0 44.5506 5.1228 49.6715 11.4421 49.6715H38.0647C44.384 49.6715 49.5068 44.5506 49.5068 38.2337V11.6213C49.5068 5.30443 44.384 0.183594 38.0647 0.183594Z" fill="#F68835"/>
<path d="M18.4436 17.7018C21.25 17.7018 23.525 15.4276 23.525 12.6224C23.525 9.81709 21.25 7.54297 18.4436 7.54297C15.6373 7.54297 13.3623 9.81709 13.3623 12.6224C13.3623 15.4276 15.6373 17.7018 18.4436 17.7018Z" fill="#333333"/>
<path d="M36.0851 13.1222C36.3655 11.9342 35.6295 10.7438 34.4411 10.4634C33.2526 10.183 32.0618 10.9188 31.7813 12.1068C31.5008 13.2948 32.2369 14.4851 33.4253 14.7655C34.6137 15.0459 35.8046 14.3101 36.0851 13.1222Z" fill="#333333"/>
<path d="M27.4938 42.3132C29.9961 42.3132 32.0246 37.7406 32.0246 32.0999C32.0246 26.4593 29.9961 21.8867 27.4938 21.8867C24.9914 21.8867 22.9629 26.4593 22.9629 32.0999C22.9629 37.7406 24.9914 42.3132 27.4938 42.3132Z" fill="#333333"/>
</svg>
