<svg width="51" height="51" viewBox="0 0 51 51" fill="none" xmlns="http://www.w3.org/2000/svg">
<path d="M38.999 0.857422H11.5234C5.43969 0.857422 0.507812 5.7874 0.507812 11.8688V39.3339C0.507812 45.4153 5.43969 50.3453 11.5234 50.3453H38.999C45.0827 50.3453 50.0146 45.4153 50.0146 39.3339V11.8688C50.0146 5.7874 45.0827 0.857422 38.999 0.857422Z" fill="#FEC343"/>
<path d="M30.2572 30.3262H26.8242V33.2922H30.2572V30.3262Z" fill="white"/>
<path d="M15.5367 33.2922H15.9874V30.3262H11.9707C12.2822 32.0102 13.7613 33.2922 15.5367 33.2922Z" fill="white"/>
<path d="M35.011 30.3262H31.5781V33.2922H35.011V30.3262Z" fill="white"/>
<path d="M15.9867 25.9688H15.536C13.7394 25.9688 12.2453 27.2839 11.9609 29.0013H15.9867V25.9688Z" fill="white"/>
<path d="M25.4993 30.3262H22.0664V33.2922H25.4993V30.3262Z" fill="white"/>
<path d="M20.7454 30.3262H17.3125V33.2922H20.7454V30.3262Z" fill="white"/>
<path d="M25.4993 25.9688H22.0664V29.0013H25.4993V25.9688Z" fill="white"/>
<path d="M20.7454 25.9688H17.3125V29.0013H20.7454V25.9688Z" fill="white"/>
<path d="M39.4977 29.0014C39.2346 27.4171 37.9431 26.1805 36.334 25.9961V29.0014H39.4977Z" fill="white"/>
<path d="M36.3359 33.2641C37.9239 33.0827 39.2002 31.8763 39.4876 30.3223H36.3359V33.2641Z" fill="white"/>
<path d="M35.011 25.9688H31.5781V29.0013H35.011V25.9688Z" fill="white"/>
<path d="M30.2572 25.9688H26.8242V29.0013H30.2572V25.9688Z" fill="white"/>
<path d="M35.9221 24.6445H15.5332C12.802 24.6445 10.5789 26.8668 10.5789 29.5969V29.6635C10.5789 29.2976 10.8753 29.0013 11.2413 29.0013H11.2866C11.577 26.9151 13.3646 25.3097 15.5302 25.3097H16.0504C16.1593 25.089 16.3831 24.9348 16.6432 24.9348C16.9033 24.9348 17.1302 25.089 17.236 25.3097H20.8051C20.914 25.089 21.1378 24.9348 21.3979 24.9348C21.658 24.9348 21.8849 25.089 21.9907 25.3097H25.5598C25.6686 25.089 25.8925 24.9348 26.1526 24.9348C26.4127 24.9348 26.6395 25.089 26.7454 25.3097H30.3144C30.4233 25.089 30.6471 24.9348 30.9073 24.9348C31.1674 24.9348 31.3942 25.089 31.5001 25.3097H35.0691C35.178 25.089 35.4018 24.9348 35.662 24.9348C35.9221 24.9348 36.161 25.095 36.2638 25.3278C38.2782 25.4941 39.8934 27.0452 40.1595 29.0285C40.4408 29.1041 40.6465 29.3581 40.6465 29.6635C40.6465 29.9688 40.4348 30.2288 40.1474 30.3014C39.8571 32.2334 38.2843 33.7451 36.3183 33.9326C36.2911 34.2742 36.0098 34.5433 35.662 34.5433C35.3141 34.5433 35.0449 34.2833 35.0056 33.9537H31.5606C31.5243 34.2863 31.246 34.5433 30.9042 34.5433C30.5625 34.5433 30.2872 34.2833 30.2479 33.9537H26.7998C26.7635 34.2863 26.4853 34.5433 26.1435 34.5433C25.8017 34.5433 25.5265 34.2833 25.4872 33.9537H22.0421C22.0058 34.2863 21.7276 34.5433 21.3858 34.5433C21.044 34.5433 20.7688 34.2833 20.7295 33.9537H17.2814C17.2451 34.2863 16.9669 34.5433 16.6251 34.5433C16.2833 34.5433 16.008 34.2833 15.9687 33.9537H15.509C13.3645 33.9537 11.5921 32.3785 11.2745 30.3256H11.2171C10.8511 30.3256 10.5547 30.0293 10.5547 29.6635C10.5547 32.3936 12.7778 34.6159 15.509 34.6159H35.8979C38.6291 34.6159 40.8522 32.3936 40.8522 29.6635V29.5969C40.8522 26.8668 38.6291 24.6445 35.8979 24.6445H35.9221Z" fill="#333333"/>
<path d="M35.0112 33.291H31.5783V33.8806C31.5783 33.9048 31.5723 33.929 31.5723 33.9532H35.0173C35.0173 33.929 35.0112 33.9048 35.0112 33.8806V33.291Z" fill="#333333"/>
<path d="M30.2534 33.291H26.8205V33.8806C26.8205 33.9048 26.8145 33.929 26.8145 33.9532H30.2625C30.2625 33.929 30.2565 33.9048 30.2565 33.8806V33.291H30.2534Z" fill="#333333"/>
<path d="M15.9859 33.2922H15.5352C13.7598 33.2922 12.2808 32.0102 11.9692 30.3262H11.3008C11.6214 32.3791 13.3908 33.9543 15.5352 33.9543H15.995C15.995 33.9301 15.9889 33.9059 15.9889 33.8818V33.2922H15.9859Z" fill="#333333"/>
<path d="M20.7417 33.291H17.3088V33.8806C17.3088 33.9048 17.3027 33.929 17.3027 33.9532H20.7508C20.7508 33.929 20.7447 33.9048 20.7447 33.8806V33.291H20.7417Z" fill="#333333"/>
<path d="M25.4995 33.291H22.0666V33.8806C22.0666 33.9048 22.0605 33.929 22.0605 33.9532H25.5056C25.5056 33.929 25.4995 33.9048 25.4995 33.8806V33.291Z" fill="#333333"/>
<path d="M31.5783 25.9688H35.0112V25.5939C35.0112 25.4911 35.0384 25.3943 35.0808 25.3066H31.5117C31.5541 25.3943 31.5813 25.4911 31.5813 25.5939V25.9688H31.5783Z" fill="#333333"/>
<path d="M17.3126 25.9688H20.7456V25.5939C20.7456 25.4911 20.7728 25.3943 20.8151 25.3066H17.2461C17.2884 25.3943 17.3157 25.4911 17.3157 25.5939V25.9688H17.3126Z" fill="#333333"/>
<path d="M36.3368 25.9963C37.9459 26.1807 39.2343 27.4204 39.5005 29.0016H39.9996C40.0601 29.0016 40.1175 29.0137 40.175 29.0288C39.9119 27.0455 38.2937 25.4914 36.2793 25.3281C36.3156 25.4098 36.3368 25.5005 36.3368 25.5972V25.9963Z" fill="#333333"/>
<path d="M26.8243 25.9688H30.2573V25.5939C30.2573 25.4911 30.2845 25.3943 30.3268 25.3066H26.7578C26.8002 25.3943 26.8274 25.4911 26.8274 25.5939V25.9688H26.8243Z" fill="#333333"/>
<path d="M22.0666 25.9688H25.4995V25.5939C25.4995 25.4911 25.5267 25.3943 25.5691 25.3066H22C22.0423 25.3943 22.0696 25.4911 22.0696 25.5939V25.9688H22.0666Z" fill="#333333"/>
<path d="M15.5365 25.9688H15.9871V25.5939C15.9871 25.4911 16.0144 25.3943 16.0567 25.3066H15.5365C13.3709 25.3066 11.5833 26.9151 11.293 28.9983H11.9614C12.2487 27.2809 13.7399 25.9658 15.5365 25.9658V25.9688Z" fill="#333333"/>
<path d="M39.4878 30.325C39.2004 31.876 37.9241 33.0854 36.3361 33.2668V33.8806C36.3361 33.8987 36.3331 33.9138 36.3301 33.932C38.2961 33.7475 39.8719 32.2358 40.1592 30.3008C40.1078 30.3129 40.0534 30.325 39.9959 30.325H39.4878Z" fill="#333333"/>
<path d="M15.9875 33.2924H17.3123V30.3264H20.7452V33.2924H22.07V30.3264H25.5029V33.2924H26.8277V30.3264H30.2606V33.2924H31.5854V30.3264H35.0184V33.2924H35.9288C36.0679 33.2924 36.207 33.2834 36.3431 33.2683V30.3264H39.4948C39.5341 30.1118 39.5583 29.8911 39.5583 29.6643V29.5978C39.5583 29.3952 39.5371 29.1957 39.5038 29.0022H36.3401V25.9968C36.204 25.9817 36.0679 25.9727 35.9257 25.9727H35.0153V29.0052H31.5824V25.9727H30.2576V29.0052H26.8247V25.9727H25.4999V29.0052H22.067V25.9727H20.7422V29.0052H17.3093V25.9727H15.9845V29.0052H11.9588C11.9255 29.1987 11.9043 29.3982 11.9043 29.6008V29.6673C11.9043 29.8941 11.9285 30.1148 11.9678 30.3295H15.9845V33.2955L15.9875 33.2924Z" fill="#333333"/>
<path d="M35.0176 33.9509C35.0539 34.2834 35.3321 34.5404 35.6739 34.5404C36.0157 34.5404 36.303 34.2713 36.3302 33.9297C36.1972 33.9418 36.0611 33.9509 35.9219 33.9509H35.0176Z" fill="#333333"/>
<path d="M21.4034 24.9355C21.1402 24.9355 20.9164 25.0897 20.8105 25.3105H21.9962C21.8873 25.0897 21.6635 24.9355 21.4034 24.9355Z" fill="#333333"/>
<path d="M16.6495 24.9355C16.3863 24.9355 16.1625 25.0897 16.0566 25.3105H17.2423C17.1334 25.0897 16.9096 24.9355 16.6495 24.9355Z" fill="#333333"/>
<path d="M26.1612 24.9355C25.898 24.9355 25.6742 25.0897 25.5684 25.3105H26.754C26.6451 25.0897 26.4213 24.9355 26.1612 24.9355Z" fill="#333333"/>
<path d="M11.2444 30.3262H11.3019C11.2686 30.1085 11.2444 29.8908 11.2444 29.6641V29.5976C11.2444 29.395 11.2626 29.1955 11.2898 29.002H11.2444C10.8784 29.002 10.582 29.2983 10.582 29.6641C10.582 30.0299 10.8784 30.3262 11.2444 30.3262Z" fill="#333333"/>
<path d="M30.917 24.9355C30.6539 24.9355 30.4301 25.0897 30.3242 25.3105H31.5099C31.401 25.0897 31.1772 24.9355 30.917 24.9355Z" fill="#333333"/>
<path d="M16.6494 34.5427C16.9912 34.5427 17.2664 34.2827 17.3058 33.9531H15.9961C16.0324 34.2857 16.3106 34.5427 16.6524 34.5427H16.6494Z" fill="#333333"/>
<path d="M21.4033 34.5427C21.7451 34.5427 22.0203 34.2827 22.0597 33.9531H20.75C20.7863 34.2857 21.0646 34.5427 21.4064 34.5427H21.4033Z" fill="#333333"/>
<path d="M40.2135 29.6642C40.2135 29.8819 40.1924 30.0935 40.1621 30.3022C40.4494 30.2296 40.6612 29.9726 40.6612 29.6642C40.6612 29.3558 40.4525 29.1049 40.1742 29.0293C40.1984 29.2168 40.2166 29.4072 40.2166 29.6007V29.6672L40.2135 29.6642Z" fill="#333333"/>
<path d="M36.2768 25.3247C36.1739 25.0949 35.9441 24.9316 35.6749 24.9316C35.4057 24.9316 35.1879 25.0859 35.082 25.3066H35.9229C36.0439 25.3066 36.1588 25.3156 36.2768 25.3247Z" fill="#333333"/>
<path d="M30.917 34.5427C31.2588 34.5427 31.534 34.2827 31.5733 33.9531H30.2637C30.3 34.2857 30.5782 34.5427 30.92 34.5427H30.917Z" fill="#333333"/>
<path d="M26.1611 34.5427C26.5029 34.5427 26.7781 34.2827 26.8175 33.9531H25.5078C25.5441 34.2857 25.8224 34.5427 26.1641 34.5427H26.1611Z" fill="#333333"/>
<path d="M26.8248 33.291H25.5V33.8806C25.5 33.9048 25.5061 33.929 25.5061 33.9532H26.8157C26.8157 33.929 26.8218 33.9048 26.8218 33.8806V33.291H26.8248Z" fill="#333333"/>
<path d="M20.7422 25.9688H22.067V25.5939C22.067 25.4911 22.0397 25.3943 21.9974 25.3066H20.8117C20.7694 25.3943 20.7422 25.4911 20.7422 25.5939V25.9688Z" fill="#333333"/>
<path d="M30.2539 25.9688H31.5787V25.5939C31.5787 25.4911 31.5515 25.3943 31.5091 25.3066H30.3235C30.2811 25.3943 30.2539 25.4911 30.2539 25.5939V25.9688Z" fill="#333333"/>
<path d="M25.5 25.9688H26.8248V25.5939C26.8248 25.4911 26.7976 25.3943 26.7552 25.3066H25.5696C25.5272 25.3943 25.5 25.4911 25.5 25.5939V25.9688Z" fill="#333333"/>
<path d="M15.9863 25.9688H17.3111V25.5939C17.3111 25.4911 17.2839 25.3943 17.2415 25.3066H16.0559C16.0136 25.3943 15.9863 25.4911 15.9863 25.5939V25.9688Z" fill="#333333"/>
<path d="M17.3111 33.291H15.9863V33.8806C15.9863 33.9048 15.9924 33.929 15.9924 33.9532H17.302C17.302 33.929 17.3081 33.9048 17.3081 33.8806V33.291H17.3111Z" fill="#333333"/>
<path d="M11.2441 29.6641C11.2441 29.8908 11.2653 30.1085 11.3016 30.3262H11.9701C11.9307 30.1116 11.9065 29.8908 11.9065 29.6641V29.5976C11.9065 29.395 11.9277 29.1955 11.961 29.002H11.2925C11.2653 29.1985 11.2472 29.395 11.2472 29.5976V29.6641H11.2441Z" fill="#333333"/>
<path d="M31.5787 33.291H30.2539V33.8806C30.2539 33.9048 30.2599 33.929 30.2599 33.9532H31.5696C31.5696 33.929 31.5757 33.9048 31.5757 33.8806V33.291H31.5787Z" fill="#333333"/>
<path d="M22.067 33.291H20.7422V33.8806C20.7422 33.9048 20.7482 33.929 20.7482 33.9532H22.0579C22.0579 33.929 22.0639 33.9048 22.0639 33.8806V33.291H22.067Z" fill="#333333"/>
<path d="M35.0117 25.9688H35.9221C36.0613 25.9688 36.2004 25.9778 36.3365 25.993V25.5939C36.3365 25.4971 36.3153 25.4064 36.279 25.3248C36.1611 25.3157 36.0431 25.3066 35.9252 25.3066H35.0843C35.042 25.3943 35.0147 25.4911 35.0147 25.5939V25.9688H35.0117Z" fill="#333333"/>
<path d="M36.3365 33.2637C36.2004 33.2788 36.0643 33.2879 35.9221 33.2879H35.0117V33.8774C35.0117 33.9016 35.0178 33.9258 35.0178 33.95H35.9221C36.0613 33.95 36.1943 33.9409 36.3304 33.9288C36.3304 33.9107 36.3365 33.8956 36.3365 33.8774V33.2637Z" fill="#333333"/>
<path d="M39.4974 29.0011C39.5306 29.1946 39.5518 29.3941 39.5518 29.5967V29.6632C39.5518 29.89 39.5276 30.1107 39.4883 30.3253H39.9964C40.0539 30.3253 40.1083 30.3163 40.1598 30.3012C40.19 30.0925 40.2112 29.8809 40.2112 29.6632V29.5967C40.2112 29.4032 40.193 29.2127 40.1688 29.0253C40.1144 29.0101 40.0569 28.998 39.9934 28.998H39.4943L39.4974 29.0011Z" fill="#333333"/>
<path d="M8.47761 19.7016C8.45947 19.6593 8.44737 19.617 8.44132 19.5747C7.96646 16.911 13.0508 16.2307 14.6871 16.7447C15.528 17.0078 16.3688 17.4673 17.0403 18.0357C17.2974 18.2564 18.9609 20.3335 17.7662 20.3608C17.5907 20.3638 17.4274 20.264 17.2853 20.1612C16.1934 19.3902 15.6127 18.2474 14.2365 17.9208C12.7272 17.561 11.0727 18.0478 10.0171 19.1907C9.68442 19.5505 8.84358 20.5784 8.48365 19.7016H8.47761Z" fill="#333333"/>
<path d="M42.0478 19.7016C42.0659 19.6593 42.078 19.617 42.0841 19.5747C42.559 16.911 37.4746 16.2307 35.8383 16.7447C34.9974 17.0078 34.1566 17.4673 33.4851 18.0357C33.228 18.2564 31.5645 20.3335 32.7592 20.3608C32.9346 20.3638 33.098 20.264 33.2401 20.1612C34.332 19.3902 34.9127 18.2474 36.2889 17.9208C37.7982 17.561 39.4527 18.0478 40.5083 19.1907C40.841 19.5505 41.6818 20.5784 42.0417 19.7016H42.0478Z" fill="#333333"/>
</svg>
