<svg width="50" height="50" viewBox="0 0 50 50" fill="none" xmlns="http://www.w3.org/2000/svg">
<path d="M38.5576 49.6726H11.9108C5.59244 49.6726 0.46875 44.5508 0.46875 38.2348V11.6194C0.46875 5.30337 5.59244 0.181641 11.9108 0.181641H38.5425C44.8579 0.181641 49.9816 5.29732 49.9846 11.6133L50.0027 38.2288C50.0058 44.5478 44.8821 49.6726 38.5607 49.6726H38.5576Z" fill="#FFD7A4"/>
<path d="M35.2452 35.8817C34.3106 35.8817 33.2429 35.4494 32.0482 34.5847C31.0259 33.8439 30.2002 33.5658 29.8372 33.8409C29.7193 33.9286 29.5892 34.1161 29.4531 34.3126C29.2596 34.5907 29.0357 34.9082 28.7091 35.1864C27.4901 36.2173 25.8115 35.9362 24.65 35.3285C24.2024 35.0956 23.8032 34.8235 23.419 34.5575C22.9805 34.2582 22.5661 33.9739 22.1426 33.7956C21.1203 33.3662 19.847 33.5325 18.9759 34.2158C18.8579 34.3096 18.7339 34.4184 18.6039 34.5333C18.2349 34.8628 17.8144 35.2347 17.2398 35.4645C15.5339 36.1418 14.0972 35.1077 12.9418 34.2763C12.2945 33.8107 11.6866 33.3723 11.0998 33.2151C10.2197 32.9853 9.12777 33.5839 8.85253 34.4486C8.67105 35.0201 8.06008 35.3375 7.4854 35.1561C6.91375 34.9747 6.59616 34.364 6.77764 33.7895C7.40675 31.8061 9.64194 30.5786 11.6533 31.1107C12.6302 31.3677 13.4711 31.9754 14.2152 32.5106C15.3191 33.3058 15.8968 33.6565 16.4352 33.4418C16.656 33.3541 16.898 33.1365 17.1551 32.9097C17.3063 32.7767 17.4606 32.6376 17.633 32.5015C19.1332 31.3284 21.2353 31.0503 22.9895 31.791C23.6156 32.054 24.1419 32.4138 24.65 32.7615C24.9979 33.0004 25.3245 33.2241 25.6572 33.3965C26.2108 33.6837 26.9518 33.8198 27.3026 33.5235C27.4145 33.4267 27.5385 33.2513 27.6686 33.0639C27.8743 32.7676 28.1314 32.3987 28.5215 32.1024C29.3715 31.4554 30.8959 31.0563 33.3246 32.816C34.3742 33.5779 35.1938 33.8621 35.5658 33.599C35.6808 33.5174 35.8108 33.3511 35.953 33.1727C36.0558 33.0457 36.1556 32.9157 36.2645 32.7948C37.2415 31.7064 38.8354 31.2498 40.4294 31.6005C42.0204 31.9513 43.2756 33.0397 43.699 34.4396C43.8744 35.014 43.5508 35.6217 42.9761 35.7971C42.4015 35.9724 41.7935 35.6489 41.6181 35.0745C41.3822 34.3005 40.6048 33.8712 39.9576 33.726C39.3103 33.5809 38.4271 33.6444 37.8857 34.2491C37.8071 34.3368 37.7345 34.4275 37.6619 34.5212C37.4532 34.7842 37.1931 35.1138 36.8211 35.3768C36.3492 35.7094 35.8229 35.8757 35.2452 35.8757V35.8817Z" fill="#333333"/>
<path d="M10.8331 18.392C10.9299 18.5674 11.1265 18.7185 11.438 18.8001C14.021 19.4714 19.0993 18.6157 19.5137 15.3564C19.5803 14.8243 19.308 13.5242 18.5398 14.141C17.7322 14.7911 17.1817 15.6951 16.3469 16.333C15.5303 16.9589 14.5745 17.3035 13.5401 17.2673C12.8687 17.2431 12.1367 17.0949 11.4803 17.3005C10.8875 17.485 10.6183 18.002 10.8331 18.395V18.392Z" fill="#333333"/>
<path d="M39.0653 18.392C38.9685 18.5674 38.7719 18.7185 38.4604 18.8001C35.8773 19.4714 30.799 18.6157 30.3847 15.3564C30.3181 14.8243 30.5903 13.5242 31.3586 14.141C32.1662 14.7911 32.7166 15.6951 33.5514 16.333C34.3681 16.9589 35.3238 17.3035 36.3583 17.2673C37.0297 17.2431 37.7617 17.0949 38.418 17.3005C39.0109 17.485 39.28 18.002 39.0653 18.395V18.392Z" fill="#333333"/>
<path d="M19.2998 22.7888C19.5962 22.8977 19.8806 23.0307 20.1316 23.2181C21.4201 24.1856 20.0197 25.3406 19.1153 25.909C18.1354 26.5258 16.5414 27.6233 15.3194 27.3845C15.1289 27.3482 14.9262 27.2665 14.8295 27.0972C14.3667 26.293 15.6582 25.912 16.1784 25.6883C16.5656 25.522 17.3248 25.1441 17.2794 24.621C17.2673 24.4668 17.1705 24.3308 17.0616 24.2249C16.2964 23.4782 14.651 23.6989 14.3516 22.4562C14.3123 22.2899 14.3365 22.0995 14.4484 21.9695C14.5573 21.8425 14.7327 21.7941 14.896 21.7639C15.9183 21.5915 16.9225 21.9422 17.8601 22.3202C18.3168 22.5046 18.825 22.6165 19.2998 22.7918V22.7888Z" fill="#333333"/>
<path d="M30.602 22.7888C30.3056 22.8977 30.0213 23.0307 29.7703 23.2181C28.4818 24.1856 29.8822 25.3406 30.7865 25.909C31.7665 26.5258 33.3605 27.6233 34.5824 27.3845C34.773 27.3482 34.9756 27.2665 35.0724 27.0972C35.5352 26.293 34.2437 25.912 33.7234 25.6883C33.3363 25.522 32.5771 25.1441 32.6225 24.621C32.6346 24.4668 32.7314 24.3308 32.8402 24.2249C33.6055 23.4782 35.2508 23.6989 35.5503 22.4562C35.5896 22.2899 35.5654 22.0995 35.4535 21.9695C35.3446 21.8425 35.1692 21.7941 35.0059 21.7639C33.9835 21.5915 32.9794 21.9422 32.0417 22.3202C31.585 22.5046 31.0769 22.6165 30.602 22.7918V22.7888Z" fill="#333333"/>
</svg>
