<svg width="50" height="50" viewBox="0 0 50 50" fill="none" xmlns="http://www.w3.org/2000/svg">
<path d="M38.5461 0.183594H11.9235C5.60424 0.183594 0.481445 5.30443 0.481445 11.6213V38.2337C0.481445 44.5506 5.60424 49.6715 11.9235 49.6715H38.5461C44.8654 49.6715 49.9882 44.5506 49.9882 38.2337V11.6213C49.9882 5.30443 44.8654 0.183594 38.5461 0.183594Z" fill="#F99E4D"/>
<path d="M14.2346 22.0764C15.3721 22.0764 16.2943 20.5238 16.2943 18.6085C16.2943 16.6933 15.3721 15.1406 14.2346 15.1406C13.097 15.1406 12.1748 16.6933 12.1748 18.6085C12.1748 20.5238 13.097 22.0764 14.2346 22.0764Z" fill="#333333"/>
<path d="M33.3257 16.8279C33.0292 16.9367 32.7449 17.0698 32.4939 17.2572C31.2054 18.2247 32.6058 19.3797 33.5102 19.9481C34.4901 20.5649 36.0841 21.6624 37.306 21.4235C37.4966 21.3872 37.6992 21.3056 37.796 21.1363C38.2588 20.3321 36.9673 19.9511 36.4471 19.7274C36.0599 19.5611 35.3007 19.1831 35.3461 18.6601C35.3582 18.5059 35.455 18.3698 35.5639 18.264C36.3291 17.5172 37.9745 17.7379 38.2739 16.4953C38.3132 16.329 38.289 16.1385 38.1771 16.0085C38.0682 15.8815 37.8928 15.8332 37.7295 15.8029C36.7072 15.6306 35.703 15.9813 34.7654 16.3592C34.3087 16.5437 33.8005 16.6555 33.3257 16.8309V16.8279Z" fill="#333333"/>
<path d="M20.928 33.1727C24.134 33.3994 27.5428 32.8038 30.3103 31.1107C31.0755 30.642 31.7924 30.0887 32.4305 29.4568C32.7209 29.1696 33.0052 28.8673 33.2563 28.5468C33.4468 28.3019 33.9398 27.3918 34.3149 27.8998C34.6566 28.3654 33.8763 29.4357 33.6313 29.8227C32.113 32.2293 29.4604 33.7985 26.711 34.379C25.232 34.6935 23.7076 34.7781 22.2013 34.6753C21.4875 34.6269 20.7767 34.5332 20.069 34.4274C19.4701 34.3397 18.8138 34.2913 18.3086 33.9225C18.0576 33.738 18.0637 33.4176 18.2814 33.2089C18.5415 32.961 18.9892 32.958 19.3219 32.9882C19.8603 33.0396 20.3896 33.1303 20.928 33.1696V33.1727Z" fill="#333333"/>
</svg>
