<svg width="51" height="51" viewBox="0 0 51 51" fill="none" xmlns="http://www.w3.org/2000/svg">
<path d="M39.4531 0.644531H11.9775C5.89377 0.644531 0.961914 5.57451 0.961914 11.6559V39.121C0.961914 45.2024 5.89377 50.1324 11.9775 50.1324H39.4531C45.5368 50.1324 50.4687 45.2024 50.4687 39.121V11.6559C50.4687 5.57451 45.5368 0.644531 39.4531 0.644531Z" fill="#F4805A"/>
<path d="M10.9864 19.9907C10.9683 19.9484 10.9562 19.9061 10.9501 19.8637C10.4752 17.2001 15.5596 16.5198 17.1959 17.0338C18.0368 17.2968 18.8776 17.7564 19.5491 18.3248C19.8062 18.5455 21.4697 20.6226 20.275 20.6498C20.0995 20.6529 19.9362 20.5531 19.7941 20.4503C18.7022 19.6793 18.1215 18.5364 16.7453 18.2099C15.236 17.8501 13.5815 18.3369 12.5259 19.4798C12.1932 19.8396 11.3524 20.8675 10.9924 19.9907H10.9864Z" fill="#333333"/>
<path d="M40.5458 19.9907C40.564 19.9484 40.5761 19.9061 40.5821 19.8637C41.057 17.2001 35.9726 16.5198 34.3363 17.0338C33.4955 17.2968 32.6546 17.7564 31.9832 18.3248C31.7261 18.5455 30.0625 20.6226 31.2573 20.6498C31.4327 20.6529 31.596 20.5531 31.7382 20.4503C32.8301 19.6793 33.4108 18.5364 34.787 18.2099C36.2963 17.8501 37.9507 18.3369 39.0063 19.4798C39.339 19.8396 40.1799 20.8675 40.5398 19.9907H40.5458Z" fill="#333333"/>
<path d="M8.13071 28.7337C9.82955 28.7337 11.2067 27.357 11.2067 25.6588C11.2067 23.9606 9.82955 22.584 8.13071 22.584C6.43187 22.584 5.05469 23.9606 5.05469 25.6588C5.05469 27.357 6.43187 28.7337 8.13071 28.7337Z" fill="#333333"/>
<path d="M43.2977 28.7337C44.9965 28.7337 46.3737 27.357 46.3737 25.6588C46.3737 23.9606 44.9965 22.584 43.2977 22.584C41.5989 22.584 40.2217 23.9606 40.2217 25.6588C40.2217 27.357 41.5989 28.7337 43.2977 28.7337Z" fill="#333333"/>
<path d="M23.862 30.185C23.4719 30.3211 23.2874 30.7625 23.4658 31.1344L24.0405 32.3377C24.2462 32.767 24.4579 33.2085 24.8118 33.5259C25.1656 33.8434 25.6949 34.0157 26.1275 33.8132C26.4904 33.6438 26.7052 33.2448 26.7626 32.8457C26.7778 32.7308 26.7838 32.6189 26.7808 32.504C26.7747 32.1896 27.0984 31.984 27.3766 32.1321C27.664 32.2863 27.9725 32.3861 28.3233 32.3619C28.5925 32.3438 28.8557 32.2259 29.022 32.0142C29.4455 31.4821 29.0886 30.8351 28.6742 30.4027C28.2356 29.9462 27.7093 29.5743 27.1316 29.3143C26.9199 29.2175 26.681 29.2054 26.4602 29.284L23.8681 30.185H23.862Z" fill="#333333"/>
</svg>
