<svg width="50" height="50" viewBox="0 0 50 50" fill="none" xmlns="http://www.w3.org/2000/svg">
<path d="M38.5576 49.4879H11.9108C5.59244 49.4879 0.46875 44.3662 0.46875 38.0502V11.4377C0.46875 5.12173 5.59244 0 11.9108 0H38.5425C44.8579 0 49.9816 5.11568 49.9846 11.4317L50.0027 38.0471C50.0058 44.3662 44.8821 49.4909 38.5607 49.4909L38.5576 49.4879Z" fill="#F4805A"/>
<path d="M8.54813 32.9354C8.40899 32.9354 8.26684 32.9051 8.13376 32.8386C7.67704 32.6088 7.48952 32.0525 7.71939 31.596L9.83962 27.3601C10.0695 26.9036 10.626 26.7161 11.0827 26.9459C11.5395 27.1757 11.727 27.732 11.4971 28.1886L9.37687 32.4244C9.21354 32.7479 8.88688 32.9384 8.54813 32.9384V32.9354Z" fill="#333333"/>
<path d="M11.9895 32.9354C11.8504 32.9354 11.7083 32.9051 11.5752 32.8386C11.1185 32.6088 10.9309 32.0525 11.1608 31.596L13.281 27.3601C13.5109 26.9036 14.0675 26.7161 14.5242 26.9459C14.9809 27.1757 15.1684 27.732 14.9385 28.1886L12.8183 32.4244C12.655 32.7479 12.3283 32.9384 11.9895 32.9384V32.9354Z" fill="#333333"/>
<path d="M15.4348 32.9354C15.2957 32.9354 15.1536 32.9051 15.0205 32.8386C14.5638 32.6088 14.3762 32.0525 14.6061 31.596L16.7264 27.3601C16.9562 26.9036 17.5128 26.7161 17.9695 26.9459C18.4262 27.1757 18.6137 27.732 18.3838 28.1886L16.2636 32.4244C16.1003 32.7479 15.7736 32.9384 15.4348 32.9384V32.9354Z" fill="#333333"/>
<path d="M32.9153 32.9354C32.7762 32.9354 32.634 32.9051 32.5009 32.8386C32.0442 32.6088 31.8567 32.0525 32.0866 31.596L34.2068 27.3601C34.4367 26.9036 34.9932 26.7161 35.4499 26.9459C35.9067 27.1757 36.0942 27.732 35.8643 28.1886L33.7441 32.4244C33.5807 32.7479 33.2541 32.9384 32.9153 32.9384V32.9354Z" fill="#333333"/>
<path d="M36.3587 32.9354C36.2195 32.9354 36.0774 32.9051 35.9443 32.8386C35.4876 32.6088 35.3001 32.0525 35.5299 31.596L37.6502 27.3601C37.8801 26.9036 38.4366 26.7161 38.8933 26.9459C39.35 27.1757 39.5375 27.732 39.3077 28.1886L37.1874 32.4244C37.0241 32.7479 36.6974 32.9384 36.3587 32.9384V32.9354Z" fill="#333333"/>
<path d="M39.802 32.9354C39.6629 32.9354 39.5207 32.9051 39.3877 32.8386C38.9309 32.6088 38.7434 32.0525 38.9733 31.596L41.0935 27.3601C41.3234 26.9036 41.8799 26.7161 42.3367 26.9459C42.7934 27.1757 42.9809 27.732 42.751 28.1886L40.6308 32.4244C40.4675 32.7479 40.1408 32.9384 39.802 32.9384V32.9354Z" fill="#333333"/>
<path d="M21.9766 20.463C22.518 21.3821 22.7781 22.7034 21.9766 23.4018C21.3172 23.9732 20.3251 23.8039 19.4571 23.7042C17.2673 23.4562 15.0048 23.9067 13.0812 24.974C12.9572 25.0435 12.8302 25.1161 12.688 25.1403C12.4037 25.1917 12.1042 25.0224 11.9591 24.7714C11.6929 24.3088 11.9349 23.689 12.3553 23.3565C12.7757 23.0269 13.3201 22.915 13.8464 22.8153C16.0544 22.389 18.3501 21.9626 20.5338 22.5069C20.6397 22.5341 20.7486 22.5613 20.8544 22.5341C21.2053 22.4373 21.1115 21.9112 20.9028 21.6119C20.1769 20.5719 18.9973 19.9339 17.7905 19.5409C16.8015 19.2174 14.0279 19.1569 13.4139 18.2861C12.6063 17.1372 14.9534 16.5144 15.767 16.5567C18.0537 16.6837 20.8423 18.5341 21.9796 20.463H21.9766Z" fill="#333333"/>
<path d="M29.3207 20.463C28.7793 21.3821 28.5192 22.7034 29.3207 23.4018C29.9801 23.9732 30.9722 23.8039 31.8402 23.7042C34.0301 23.4562 36.2924 23.9067 38.2161 24.974C38.3401 25.0435 38.4671 25.1161 38.6093 25.1403C38.8936 25.1917 39.1931 25.0224 39.3382 24.7714C39.6044 24.3088 39.3624 23.689 38.942 23.3565C38.5216 23.0239 37.9772 22.915 37.4509 22.8153C35.2429 22.389 32.9472 21.9626 30.7635 22.5069C30.6576 22.5341 30.5487 22.5613 30.4429 22.5341C30.092 22.4373 30.1858 21.9112 30.3945 21.6119C31.1204 20.5719 32.3 19.9339 33.5068 19.5409C34.4958 19.2174 37.2694 19.1569 37.8834 18.2861C38.691 17.1372 36.3439 16.5144 35.5302 16.5567C33.2436 16.6837 30.455 18.5341 29.3177 20.463H29.3207Z" fill="#333333"/>
</svg>
