<svg width="50" height="51" viewBox="0 0 50 51" fill="none" xmlns="http://www.w3.org/2000/svg">
<path d="M38.5461 0.724609H11.9235C5.60424 0.724609 0.481445 5.84545 0.481445 12.1623V38.7748C0.481445 45.0917 5.60424 50.2125 11.9235 50.2125H38.5461C44.8654 50.2125 49.9882 45.0917 49.9882 38.7748V12.1623C49.9882 5.84545 44.8654 0.724609 38.5461 0.724609Z" fill="#FEC343"/>
<path d="M14.4981 22.3182C15.6841 22.3182 16.6455 20.6979 16.6455 18.6992C16.6455 16.7004 15.6841 15.0801 14.4981 15.0801C13.312 15.0801 12.3506 16.7004 12.3506 18.6992C12.3506 20.6979 13.312 22.3182 14.4981 22.3182Z" fill="#333333"/>
<path d="M35.9727 22.3182C37.1587 22.3182 38.1201 20.6979 38.1201 18.6992C38.1201 16.7004 37.1587 15.0801 35.9727 15.0801C34.7867 15.0801 33.8252 16.7004 33.8252 18.6992C33.8252 20.6979 34.7867 22.3182 35.9727 22.3182Z" fill="#333333"/>
<path d="M35.4278 26.5547H15.0419C12.6716 26.5547 10.75 28.4755 10.75 30.845V30.9085C10.75 33.2779 12.6716 35.1987 15.0419 35.1987H35.4278C37.7981 35.1987 39.7197 33.2779 39.7197 30.9085V30.845C39.7197 28.4755 37.7981 26.5547 35.4278 26.5547Z" fill="white"/>
<path d="M35.428 35.8609H15.0422C12.311 35.8609 10.0879 33.6387 10.0879 30.9085V30.845C10.0879 28.1148 12.311 25.8926 15.0422 25.8926H35.428C38.1593 25.8926 40.3824 28.1148 40.3824 30.845V30.9085C40.3824 33.6387 38.1593 35.8609 35.428 35.8609ZM15.0422 27.2169C13.0399 27.2169 11.4127 28.8435 11.4127 30.845V30.9085C11.4127 32.91 13.0399 34.5366 15.0422 34.5366H35.428C37.4303 34.5366 39.0576 32.91 39.0576 30.9085V30.845C39.0576 28.8435 37.4303 27.2169 35.428 27.2169H15.0422Z" fill="#333333"/>
<path d="M39.5054 30.2482H35.8426V26.8438C35.8426 26.4779 35.5462 26.1816 35.1802 26.1816C34.8143 26.1816 34.5178 26.4779 34.5178 26.8438V30.2482H31.0849V26.8438C31.0849 26.4779 30.7885 26.1816 30.4225 26.1816C30.0565 26.1816 29.7601 26.4779 29.7601 26.8438V30.2482H26.3272V26.8438C26.3272 26.4779 26.0308 26.1816 25.6648 26.1816C25.2988 26.1816 25.0024 26.4779 25.0024 26.8438V30.2482H21.5695V26.8438C21.5695 26.4779 21.2731 26.1816 20.9071 26.1816C20.5411 26.1816 20.2447 26.4779 20.2447 26.8438V30.2482H16.8118V26.8438C16.8118 26.4779 16.5154 26.1816 16.1494 26.1816C15.7834 26.1816 15.487 26.4779 15.487 26.8438V30.2482H10.7444C10.3784 30.2482 10.082 30.5445 10.082 30.9103C10.082 31.2762 10.3784 31.5725 10.7444 31.5725H15.487V35.128C15.487 35.4939 15.7834 35.7902 16.1494 35.7902C16.5154 35.7902 16.8118 35.4939 16.8118 35.128V31.5725H20.2447V35.128C20.2447 35.4939 20.5411 35.7902 20.9071 35.7902C21.2731 35.7902 21.5695 35.4939 21.5695 35.128V31.5725H25.0024V35.128C25.0024 35.4939 25.2988 35.7902 25.6648 35.7902C26.0308 35.7902 26.3272 35.4939 26.3272 35.128V31.5725H29.7601V35.128C29.7601 35.4939 30.0565 35.7902 30.4225 35.7902C30.7885 35.7902 31.0849 35.4939 31.0849 35.128V31.5725H34.5178V35.128C34.5178 35.4939 34.8143 35.7902 35.1802 35.7902C35.5462 35.7902 35.8426 35.4939 35.8426 35.128V31.5725H39.5054C39.8714 31.5725 40.1678 31.2762 40.1678 30.9103C40.1678 30.5445 39.8714 30.2482 39.5054 30.2482Z" fill="#333333"/>
</svg>
