<svg width="51" height="50" viewBox="0 0 51 50" fill="none" xmlns="http://www.w3.org/2000/svg">
<path d="M39.053 0H12.4304C6.11108 0 0.988281 5.12084 0.988281 11.4377V38.0502C0.988281 44.367 6.11108 49.4879 12.4304 49.4879H39.053C45.3723 49.4879 50.4951 44.367 50.4951 38.0502V11.4377C50.4951 5.12084 45.3723 0 39.053 0Z" fill="#FFD7A4"/>
<path d="M21.0047 23.6253C20.7113 23.6253 20.421 23.5134 20.1971 23.2897L14.1479 17.2428C13.7033 16.7983 13.7033 16.0757 14.1479 15.6283C14.5925 15.1838 15.3154 15.1838 15.7631 15.6283L21.8123 21.6752C22.2569 22.1196 22.2569 22.8422 21.8123 23.2897C21.5885 23.5134 21.2981 23.6253 21.0047 23.6253Z" fill="#333333"/>
<path d="M14.9516 23.6253C14.6582 23.6253 14.3678 23.5134 14.144 23.2897C13.6994 22.8452 13.6994 22.1226 14.144 21.6752L20.1932 15.6283C20.6409 15.1838 21.3638 15.1838 21.8084 15.6283C22.253 16.0727 22.253 16.7953 21.8084 17.2428L15.7592 23.2897C15.5353 23.5134 15.245 23.6253 14.9516 23.6253Z" fill="#333333"/>
<path d="M36.9862 23.6253C36.6929 23.6253 36.4025 23.5134 36.1787 23.2897L30.1264 17.2428C29.6818 16.7983 29.6818 16.0757 30.1264 15.6283C30.571 15.1838 31.2939 15.1838 31.7416 15.6283L37.7908 21.6752C38.2354 22.1196 38.2354 22.8422 37.7908 23.2897C37.567 23.5134 37.2766 23.6253 36.9832 23.6253H36.9862Z" fill="#333333"/>
<path d="M30.9379 23.6253C30.6445 23.6253 30.3542 23.5134 30.1303 23.2897C29.6857 22.8452 29.6857 22.1226 30.1303 21.6752L36.1826 15.6283C36.6302 15.1838 37.3501 15.1838 37.7977 15.6283C38.2423 16.0727 38.2423 16.7953 37.7977 17.2428L31.7485 23.2897C31.5247 23.5134 31.2343 23.6253 30.9409 23.6253H30.9379Z" fill="#333333"/>
<path d="M36.2424 34.195C35.2624 34.195 34.1403 33.7414 32.8881 32.8344C31.8174 32.0574 30.9493 31.7671 30.5682 32.0544C30.4472 32.1481 30.3081 32.3416 30.1659 32.5502C29.9603 32.8435 29.7304 33.1761 29.3825 33.4693C28.1031 34.5517 26.3458 34.2554 25.1239 33.6175C24.6551 33.3726 24.2377 33.0854 23.8324 32.8102C23.3727 32.4958 22.9401 32.1995 22.4955 32.012C21.4248 31.5615 20.0879 31.7369 19.1715 32.4535C19.0475 32.5502 18.9174 32.6651 18.7813 32.786C18.3941 33.1307 17.9556 33.5238 17.3476 33.7626C15.5571 34.4731 14.0508 33.3877 12.841 32.5169C12.1635 32.0302 11.5222 31.5676 10.9082 31.4043C9.98876 31.1624 8.83941 31.7913 8.55208 32.6984C8.36153 33.3 7.71729 33.6296 7.11842 33.4391C6.51652 33.2486 6.18381 32.6077 6.37738 32.006C7.03977 29.9258 9.38081 28.6379 11.492 29.1942C12.5173 29.4633 13.4005 30.1012 14.1778 30.6605C15.3332 31.495 15.9412 31.8639 16.5068 31.6371C16.7367 31.5464 16.9938 31.3166 17.2629 31.0778C17.4202 30.9387 17.5836 30.7936 17.765 30.6515C19.3378 29.4209 21.5428 29.1277 23.3817 29.9047C24.0381 30.1828 24.5886 30.5578 25.1209 30.9236C25.4838 31.1745 25.8286 31.4073 26.1795 31.5918C26.7602 31.8941 27.5375 32.0362 27.9065 31.7248C28.0245 31.625 28.1546 31.4376 28.2907 31.2441C28.5084 30.9327 28.7776 30.5457 29.1859 30.2373C30.0782 29.56 31.6782 29.1398 34.2249 30.9871C35.3289 31.7853 36.1849 32.0846 36.5781 31.8095C36.696 31.7248 36.8352 31.5494 36.9834 31.365C37.0892 31.229 37.1981 31.0959 37.31 30.9689C38.3324 29.8291 40.005 29.3484 41.6776 29.7172C43.3472 30.0861 44.6629 31.2259 45.1075 32.6953C45.292 33.297 44.9502 33.9349 44.3483 34.1194C43.7464 34.3038 43.1082 33.9622 42.9237 33.3605C42.6757 32.5472 41.8621 32.0967 41.1846 31.9485C40.5071 31.7974 39.5785 31.8639 39.0099 32.4958C38.9282 32.5865 38.8526 32.6863 38.7739 32.783C38.5562 33.0581 38.284 33.4028 37.8938 33.678C37.3978 34.0257 36.8473 34.201 36.2393 34.201L36.2424 34.195Z" fill="#333333"/>
</svg>
