<svg width="51" height="51" viewBox="0 0 51 51" fill="none" xmlns="http://www.w3.org/2000/svg">
<path d="M39.053 0.724609H12.4304C6.11108 0.724609 0.988281 5.84545 0.988281 12.1623V38.7748C0.988281 45.0917 6.11108 50.2125 12.4304 50.2125H39.053C45.3723 50.2125 50.4951 45.0917 50.4951 38.7748V12.1623C50.4951 5.84545 45.3723 0.724609 39.053 0.724609Z" fill="#F99E4D"/>
<path d="M37.1711 16.8789H31.8508C29.6307 16.8789 27.8281 18.6476 27.7646 20.8517H23.7781C23.7146 18.6476 21.9119 16.8789 19.6919 16.8789H14.3716C12.1122 16.8789 10.2793 18.7111 10.2793 20.9696V23.9054C10.2793 26.1639 12.1122 27.9962 14.3716 27.9962H19.6919C21.9513 27.9962 23.7842 26.1639 23.7842 23.9054V22.8351H27.7585V23.9054C27.7585 26.1639 29.5914 27.9962 31.8508 27.9962H37.1711C39.4305 27.9962 41.2634 26.1639 41.2634 23.9054V20.9696C41.2634 18.7111 39.4305 16.8789 37.1711 16.8789Z" fill="#333333"/>
<path d="M11.2783 18.0191L10.7943 17.8649C10.4495 17.756 10.0806 17.9254 9.9384 18.2579L9.45445 19.3917C9.30019 19.7545 9.47563 20.1748 9.84464 20.3169L10.3376 20.5104C10.6946 20.6495 11.0968 20.4772 11.242 20.1204L11.7169 18.9473C11.8681 18.5694 11.6685 18.143 11.2783 18.0191Z" fill="#333333"/>
<path d="M40.4326 18.0191L40.9165 17.8649C41.2613 17.756 41.6303 17.9254 41.7725 18.2579L42.2564 19.3917C42.4106 19.7545 42.2352 20.1748 41.8662 20.3169L41.3732 20.5104C41.0163 20.6495 40.614 20.4772 40.4688 20.1204L39.994 18.9473C39.8428 18.5694 40.0424 18.143 40.4326 18.0191Z" fill="#333333"/>
<path d="M9.9381 18.2574L0.988281 12.1621V14.4357L9.45415 19.3942L9.9381 18.2574Z" fill="#333333"/>
<path d="M41.5723 18.2574L50.4949 12.1621V14.4357L42.0562 19.3942L41.5723 18.2574Z" fill="#333333"/>
<path d="M20.608 35.3516C21.3702 35.3607 22.1354 35.4 22.8825 35.409C25.5502 35.4514 28.2118 35.3939 30.8493 34.9767C32.2769 34.753 33.9858 34.5322 35.2471 33.7915C36.0516 33.3198 36.7412 32.7 37.4944 32.1588C37.9148 31.8595 38.8403 31.0885 39.3938 31.4755C39.5753 31.6025 39.5662 31.8686 39.5239 32.0863C39.167 33.9729 37.9027 35.5874 36.5507 36.8905C35.3197 38.0788 33.9132 39.0825 32.2618 39.5844C30.3109 40.1801 28.2119 40.4008 26.1793 40.4189C23.9804 40.437 21.5244 40.4068 19.5282 39.3728C19.0443 39.1218 18.5906 38.8074 18.1913 38.4325C17.8405 38.0999 17.5683 37.6162 17.4594 37.1445C17.3626 36.7273 17.414 36.2586 17.6802 35.923C17.9675 35.5663 18.4454 35.4242 18.8991 35.3879C19.4586 35.3425 20.0424 35.3425 20.605 35.3486L20.608 35.3516Z" fill="#333333"/>
</svg>
