<svg width="50" height="51" viewBox="0 0 50 51" fill="none" xmlns="http://www.w3.org/2000/svg">
<path d="M38.9852 50.1335H11.4824C5.39993 50.1335 0.466797 45.2053 0.466797 39.1221V11.654C0.466797 5.57383 5.3969 0.642578 11.4824 0.642578H38.967C45.0465 0.642578 49.9766 5.56779 49.9827 11.6449L50.0008 39.113C50.0038 45.1962 45.0707 50.1305 38.9852 50.1305V50.1335Z" fill="#FEC343"/>
<path d="M17.4506 13.4382C17.6412 13.3989 17.874 13.3747 17.9981 13.5259C18.0585 13.6015 18.0737 13.7013 18.0797 13.798C18.116 14.4934 17.6653 15.1344 17.1028 15.5426C16.0925 16.2803 14.7708 16.4073 13.5186 16.4496C12.1091 16.498 10.615 16.4496 9.42631 15.6968C8.93935 15.3884 8.50079 14.9258 8.43122 14.3543C8.33746 13.6196 8.96354 13.0271 9.6713 13.2296C10.3367 13.4201 10.8781 13.8524 11.5768 14.0127C13.5489 14.4662 15.5269 13.8404 17.4506 13.4382Z" fill="#333333"/>
<path d="M33.0218 13.4382C32.8312 13.3989 32.5984 13.3747 32.4743 13.5259C32.4139 13.6015 32.3987 13.7013 32.3927 13.798C32.3564 14.4934 32.8071 15.1344 33.3696 15.5426C34.3799 16.2803 35.7016 16.4073 36.9538 16.4496C38.3633 16.498 39.8574 16.4496 41.0461 15.6968C41.5331 15.3884 41.9716 14.9258 42.0412 14.3543C42.1349 13.6196 41.5089 13.0271 40.8011 13.2296C40.1357 13.4201 39.5943 13.8524 38.8956 14.0127C36.9235 14.4662 34.9454 13.8404 33.0218 13.4382Z" fill="#333333"/>
<path d="M32.0383 23.9727H18.4517C15.9327 23.9727 13.8906 26.014 13.8906 28.532V33.034C13.8906 35.552 15.9327 37.5933 18.4517 37.5933H32.0383C34.5573 37.5933 36.5994 35.552 36.5994 33.034V28.532C36.5994 26.014 34.5573 23.9727 32.0383 23.9727Z" fill="#333333"/>
<path d="M0.470703 17.871L15.8932 28.4531L15.7752 26.6783C15.3518 26.5725 2.70286 17.7622 0.470703 16.2051V17.874V17.871Z" fill="#333333"/>
<path d="M0.470703 23.2775L15.8418 33.7961L15.7238 32.0213C15.3004 31.9155 2.70286 23.1293 0.470703 21.5723V23.2775Z" fill="#333333"/>
<path d="M49.9905 17.8772L34.5801 28.4563L34.698 26.6815C35.1215 26.5757 47.7553 17.7563 49.9874 16.1992V17.8772H49.9905Z" fill="#333333"/>
<path d="M49.9935 23.2825L34.5801 33.8343L34.698 32.0596C35.1215 31.9537 47.7583 23.1313 49.9905 21.5742V23.2825H49.9935Z" fill="#333333"/>
</svg>
