<svg width="50" height="51" viewBox="0 0 50 51" fill="none" xmlns="http://www.w3.org/2000/svg">
<path d="M38.4912 0.644531H11.0156C4.93186 0.644531 0 5.57451 0 11.6559V39.121C0 45.2024 4.93186 50.1324 11.0156 50.1324H38.4912C44.5749 50.1324 49.5068 45.2024 49.5068 39.121V11.6559C49.5068 5.57451 44.5749 0.644531 38.4912 0.644531Z" fill="#FEC343"/>
<path d="M14.724 29.9447C20.8397 32.049 27.9506 31.922 34.0542 29.8147C36.2683 29.0497 38.3855 27.9764 40.2396 26.5463C40.8173 26.0988 41.8789 25.1616 42.5594 26.0353C42.9496 26.5342 42.623 27.3687 42.3538 27.8464C41.7035 29.0104 40.5572 29.8298 39.5076 30.6038C38.1314 31.6227 36.601 32.4299 35.0221 33.083C32.3332 34.1896 29.4417 34.7671 26.5472 34.9606C25.4553 35.0331 24.3604 35.0543 23.2685 35.0211C23.2383 35.0211 23.205 35.0211 23.1747 35.0211C21.6201 34.9697 20.0685 34.8094 18.535 34.5403C15.6162 34.0294 12.7701 33.0286 10.1871 31.5713C9.90578 31.411 9.62449 31.2478 9.34925 31.0815C8.42372 30.5161 7.53146 29.9477 6.99913 28.962C6.80556 28.6053 6.69667 28.179 6.81161 27.7859C7.00518 27.1208 7.72201 26.8789 8.34508 27.0119C9.32808 27.2205 10.1236 27.789 10.9825 28.2697C11.8899 28.7776 12.8336 29.2251 13.7984 29.6091C14.1039 29.73 14.4124 29.8449 14.721 29.9507L14.724 29.9447Z" fill="#333333"/>
<path d="M22.1465 19.6534C22.6879 20.5725 22.948 21.8937 22.1465 22.5921C21.4871 23.1636 20.495 22.9943 19.627 22.8945C17.4372 22.6466 15.1748 23.0971 13.2511 24.1643C13.1271 24.2339 13.0001 24.3064 12.8579 24.3306C12.5736 24.382 12.2742 24.2127 12.129 23.9618C11.8628 23.4992 12.1048 22.8794 12.5252 22.5498C12.9456 22.2203 13.4901 22.1084 14.0163 22.0086C16.2243 21.5823 18.52 21.156 20.7037 21.7002C20.8096 21.7274 20.9185 21.7547 21.0244 21.7274C21.3752 21.6307 21.2814 21.1046 21.0727 20.8053C20.3468 19.7652 19.1672 19.1273 17.9604 18.7342C16.9714 18.4107 14.1978 18.3503 13.5838 17.4795C12.7762 16.3306 15.1233 15.7077 15.937 15.7501C18.2236 15.8771 21.0123 17.7274 22.1495 19.6564L22.1465 19.6534Z" fill="#333333"/>
<path d="M26.559 19.6534C26.0176 20.5725 25.7575 21.8937 26.559 22.5921C27.2184 23.1636 28.2105 22.9943 29.0785 22.8945C31.2683 22.6466 33.5307 23.0971 35.4544 24.1643C35.5784 24.2339 35.7054 24.3064 35.8476 24.3306C36.1319 24.382 36.4313 24.2127 36.5765 23.9618C36.8427 23.4992 36.6007 22.8794 36.1803 22.5498C35.7599 22.2203 35.2154 22.1084 34.6892 22.0086C32.4812 21.5823 30.1855 21.156 28.0018 21.7002C27.8959 21.7274 27.787 21.7547 27.6811 21.7274C27.3303 21.6307 27.4241 21.1046 27.6328 20.8053C28.3587 19.7652 29.5383 19.1273 30.7451 18.7342C31.7341 18.4107 34.5077 18.3503 35.1217 17.4795C35.9293 16.3306 33.5822 15.7077 32.7685 15.7501C30.4819 15.8771 27.6932 17.7274 26.556 19.6564L26.559 19.6534Z" fill="#333333"/>
</svg>
