<svg width="51" height="51" viewBox="0 0 51 51" fill="none" xmlns="http://www.w3.org/2000/svg">
<path d="M39.0266 0.724609H12.404C6.08471 0.724609 0.961914 5.84545 0.961914 12.1623V38.7748C0.961914 45.0917 6.08471 50.2125 12.404 50.2125H39.0266C45.3459 50.2125 50.4687 45.0917 50.4687 38.7748V12.1623C50.4687 5.84545 45.3459 0.724609 39.0266 0.724609Z" fill="#F4805A"/>
<path d="M17.5362 34.5605C19.0329 34.5605 20.2463 32.5165 20.2463 29.9951C20.2463 27.4737 19.0329 25.4297 17.5362 25.4297C16.0395 25.4297 14.8262 27.4737 14.8262 29.9951C14.8262 32.5165 16.0395 34.5605 17.5362 34.5605Z" fill="white"/>
<path d="M35.4454 34.5605C36.9421 34.5605 38.1554 32.5165 38.1554 29.9951C38.1554 27.4737 36.9421 25.4297 35.4454 25.4297C33.9487 25.4297 32.7354 27.4737 32.7354 29.9951C32.7354 32.5165 33.9487 34.5605 35.4454 34.5605Z" fill="white"/>
<path d="M17.5361 33.3486C18.6352 33.3486 19.5263 31.8474 19.5263 29.9956C19.5263 28.1438 18.6352 26.6426 17.5361 26.6426C16.4369 26.6426 15.5459 28.1438 15.5459 29.9956C15.5459 31.8474 16.4369 33.3486 17.5361 33.3486Z" fill="#333333"/>
<path d="M35.4658 33.3486C36.5649 33.3486 37.456 31.8474 37.456 29.9956C37.456 28.1438 36.5649 26.6426 35.4658 26.6426C34.3666 26.6426 33.4756 28.1438 33.4756 29.9956C33.4756 31.8474 34.3666 33.3486 35.4658 33.3486Z" fill="#333333"/>
<path d="M44.0526 19.9506C44.0526 22.1638 43.1664 22.7927 41.9475 22.7927C40.7286 22.7927 39.6367 22.1638 39.6367 19.9506C39.6367 17.7375 40.5441 13.166 41.763 13.166C42.9819 13.166 44.0526 17.7375 44.0526 19.9506Z" fill="white"/>
<path d="M30.0677 15.1861C30.0677 16.9064 29.3781 17.3962 28.4314 17.3962C27.4847 17.3962 26.6348 16.9064 26.6348 15.1861C26.6348 13.4657 27.3395 9.91016 28.2892 9.91016C29.239 9.91016 30.0707 13.4657 30.0707 15.1861H30.0677Z" fill="white"/>
<path d="M13.9943 20.0568C13.9943 21.7741 13.3077 22.2609 12.361 22.2609C11.4143 22.2609 10.5674 21.7741 10.5674 20.0568C10.5674 18.3395 11.2721 14.793 12.2188 14.793C13.1655 14.793 13.9943 18.3425 13.9943 20.0568Z" fill="white"/>
<path d="M21.5564 17.6171C21.5564 18.7963 21.0845 19.1319 20.4342 19.1319C19.7839 19.1319 19.2002 18.7963 19.2002 17.6171C19.2002 16.438 19.6841 13.998 20.3344 13.998C20.9847 13.998 21.5564 16.438 21.5564 17.6171Z" fill="white"/>
<path d="M34.6794 19.7675C34.6794 20.9467 34.2076 21.2823 33.5573 21.2823C32.907 21.2823 32.3232 20.9467 32.3232 19.7675C32.3232 18.5884 32.8072 16.1484 33.4575 16.1484C34.1078 16.1484 34.6794 18.5884 34.6794 19.7675Z" fill="white"/>
<path d="M5.53473 41.0305C5.42282 41.0305 5.31091 41.0063 5.20505 40.9519C4.8421 40.7705 4.69388 40.3291 4.87536 39.9662L6.83834 36.0418C7.01981 35.679 7.4614 35.5308 7.82435 35.7122C8.1873 35.8937 8.33552 36.3351 8.15404 36.6979L6.19106 40.6223C6.06101 40.8793 5.80089 41.0305 5.5317 41.0305H5.53473Z" fill="#333333"/>
<path d="M8.72613 41.0305C8.61422 41.0305 8.50231 41.0063 8.39645 40.9519C8.0335 40.7705 7.88529 40.3291 8.06677 39.9662L10.0297 36.0418C10.2112 35.679 10.6558 35.5308 11.0158 35.7122C11.3787 35.8937 11.5269 36.3351 11.3454 36.6979L9.38247 40.6223C9.25241 40.8793 8.99229 41.0305 8.7231 41.0305H8.72613Z" fill="#333333"/>
<path d="M11.9136 41.0305C11.8017 41.0305 11.6898 41.0063 11.5839 40.9519C11.221 40.7705 11.0728 40.3291 11.2543 39.9662L13.2172 36.0418C13.3987 35.679 13.8433 35.5308 14.2033 35.7122C14.5662 35.8937 14.7144 36.3351 14.5329 36.6979L12.57 40.6223C12.4399 40.8793 12.1798 41.0305 11.9106 41.0305H11.9136Z" fill="#333333"/>
<path d="M37.5503 41.0305C37.4384 41.0305 37.3265 41.0063 37.2207 40.9519C36.8577 40.7705 36.7095 40.3291 36.891 39.9662L38.854 36.0418C39.0354 35.679 39.477 35.5308 39.843 35.7122C40.206 35.8937 40.3542 36.3351 40.1727 36.6979L38.2097 40.6223C38.0797 40.8793 37.8195 41.0305 37.5503 41.0305Z" fill="#333333"/>
<path d="M40.7408 41.0305C40.6289 41.0305 40.517 41.0063 40.4111 40.9519C40.0481 40.7705 39.8999 40.3291 40.0814 39.9662L42.0444 36.0418C42.2259 35.679 42.6675 35.5308 43.0304 35.7122C43.3934 35.8937 43.5416 36.3351 43.3601 36.6979L41.3971 40.6223C41.2671 40.8793 41.0069 41.0305 40.7377 41.0305H40.7408Z" fill="#333333"/>
<path d="M43.9293 41.0305C43.8174 41.0305 43.7054 41.0063 43.5996 40.9519C43.2366 40.7705 43.0884 40.3291 43.2699 39.9662L45.2329 36.0418C45.4143 35.679 45.8559 35.5308 46.2219 35.7122C46.5849 35.8937 46.7331 36.3351 46.5516 36.6979L44.5886 40.6223C44.4586 40.8793 44.1985 41.0305 43.9293 41.0305Z" fill="#333333"/>
</svg>
