<svg width="51" height="50" viewBox="0 0 51 50" fill="none" xmlns="http://www.w3.org/2000/svg">
<path d="M39.053 0.183594H12.4304C6.11108 0.183594 0.988281 5.30443 0.988281 11.6213V38.2337C0.988281 44.5506 6.11108 49.6715 12.4304 49.6715H39.053C45.3723 49.6715 50.4951 44.5506 50.4951 38.2337V11.6213C50.4951 5.30443 45.3723 0.183594 39.053 0.183594Z" fill="#FEC343"/>
<path d="M17.2001 21.612C18.5979 21.5793 19.7045 20.4202 19.6718 19.0229C19.6391 17.6257 18.4795 16.5195 17.0817 16.5521C15.6839 16.5848 14.5773 17.744 14.61 19.1413C14.6427 20.5385 15.8023 21.6447 17.2001 21.612Z" fill="#333333"/>
<path d="M32.3389 18.6433C32.2996 17.2464 33.4006 16.0794 34.7979 16.0401C36.1953 16.0008 37.3628 17.1013 37.4021 18.4981C37.4414 19.895 36.3405 21.062 34.9431 21.1013C33.5457 21.1406 32.3782 20.0401 32.3389 18.6433Z" fill="#333333"/>
<path d="M29.2447 26.4623C29.5955 26.2053 29.9555 25.9906 30.3184 25.8394C32.0183 25.132 32.9075 27.0126 33.6515 27.8894C34.202 28.5333 34.7313 29.3466 34.4077 30.299C33.7907 32.101 31.3407 33.646 29.9071 34.9038C28.4522 36.1766 27.0125 37.4677 25.591 38.7738C24.5354 39.7443 23.3528 41.126 21.9161 41.126C21.3021 41.126 20.8907 40.6967 20.5429 40.2855C19.9319 39.5659 19.3391 38.8282 18.7675 38.0723C18.2079 37.3316 18.3501 36.482 19.0881 35.5417C19.572 34.9249 20.2011 34.423 20.8181 33.9211C22.5815 32.491 24.3085 31.0156 25.9963 29.4978C26.9672 28.624 28.0742 27.3149 29.2507 26.4593L29.2447 26.4623Z" fill="#333333"/>
<path d="M23.7042 26.4654C23.3534 26.2084 22.9934 25.9938 22.6305 25.8426C20.9307 25.1321 20.0414 27.0127 19.2944 27.8895C18.7439 28.5335 18.2146 29.3468 18.5382 30.2991C19.1552 32.1011 21.6021 33.6491 23.0388 34.9039C24.4937 36.1767 25.9334 37.4678 27.3549 38.7769C28.4105 39.7474 29.5901 41.1292 31.0298 41.1322C31.6438 41.1322 32.0552 40.7029 32.406 40.2917C33.017 39.5721 33.6098 38.8344 34.1845 38.0785C34.744 37.3378 34.6019 36.4882 33.8639 35.5479C33.3799 34.9311 32.7508 34.4292 32.1338 33.9273C30.3705 32.4972 28.6434 31.0187 26.9557 29.501C25.9848 28.6272 24.8778 27.318 23.7012 26.4624L23.7042 26.4654Z" fill="#333333"/>
<path d="M19.9231 15.2738C20.1045 15.3615 20.3193 15.2919 20.4221 15.1166C20.6973 14.6449 20.8788 14.1098 20.9514 13.5625C21.027 12.979 14.0402 11.0924 13.3234 10.9079C11.6024 10.4726 9.71499 9.9888 7.86393 9.76507C7.3921 9.70762 7.24389 10.406 7.69758 10.5572C9.39439 11.1196 11.1577 11.5761 12.8031 12.205C15.2137 13.1302 17.5911 14.1521 19.9291 15.2708L19.9231 15.2738Z" fill="#333333"/>
<path d="M31.8793 14.9299C31.7038 15.0266 31.4861 14.9722 31.3742 14.7999C31.0717 14.3433 30.86 13.8233 30.7571 13.2791C30.6483 12.7016 37.5141 10.4128 38.2219 10.1891C39.9157 9.65394 41.7728 9.06436 43.6057 8.73178C44.0745 8.64712 44.262 9.33647 43.8174 9.51485C42.1539 10.174 40.4208 10.7303 38.8147 11.4559C36.4616 12.5202 34.1447 13.6781 31.8793 14.9268V14.9299Z" fill="#333333"/>
</svg>
