<svg width="47" height="45" viewBox="0 0 47 45" fill="none" xmlns="http://www.w3.org/2000/svg">
<g id="Group 183553">
<path id="Vector" d="M22.1575 41.6719C22.1575 42.3622 22.7171 42.9219 23.4075 42.9219C24.0978 42.9219 24.6575 42.3622 24.6575 41.6719V23.4219H43.5669C44.2572 23.4219 44.8169 22.8622 44.8169 22.1719C44.8169 21.4815 44.2572 20.9219 43.5669 20.9219H24.6575V2.67188C24.6575 1.98152 24.0978 1.42188 23.4075 1.42188C22.7171 1.42188 22.1575 1.98152 22.1575 2.67188V20.9219H3.24805C2.55769 20.9219 1.99805 21.4815 1.99805 22.1719C1.99805 22.8622 2.55769 23.4219 3.24805 23.4219H22.1575V41.6719Z" stroke="#D26E25" stroke-width="2.5" stroke-miterlimit="10" stroke-linecap="round" stroke-linejoin="round"/>
<path id="Vector_2" d="M23.1578 32.5547C23.1578 32.6928 23.2697 32.8047 23.4078 32.8047C23.5458 32.8047 23.6578 32.6928 23.6578 32.5547V22.4219H34.1417C34.2797 22.4219 34.3917 22.3099 34.3917 22.1719C34.3917 22.0338 34.2797 21.9219 34.1417 21.9219H23.6578V11.7891C23.6578 11.651 23.5458 11.5391 23.4078 11.5391C23.2697 11.5391 23.1578 11.651 23.1578 11.7891V21.9219H12.6738C12.5358 21.9219 12.4238 22.0338 12.4238 22.1719C12.4238 22.3099 12.5358 22.4219 12.6738 22.4219H23.1578V32.5547Z" stroke="white" stroke-width="0.5" stroke-miterlimit="10" stroke-linecap="round" stroke-linejoin="round"/>
</g>
</svg>
