<svg width="23" height="22" viewBox="0 0 23 22" fill="none" xmlns="http://www.w3.org/2000/svg">
<path fill-rule="evenodd" clip-rule="evenodd" d="M6.86931 11.6518H16.1376C16.3378 11.6448 16.5276 11.5597 16.6668 11.4144C16.806 11.269 16.8838 11.0749 16.8838 10.8728C16.8838 10.6707 16.806 10.4765 16.6668 10.3312C16.5276 10.1859 16.3378 10.1007 16.1376 10.0938H6.87116C6.67093 10.1007 6.48121 10.1859 6.34201 10.3312C6.20281 10.4765 6.125 10.6707 6.125 10.8728C6.125 11.0749 6.20281 11.269 6.34201 11.4144C6.48121 11.5597 6.67093 11.6448 6.87116 11.6518H6.86931Z" fill="#F1A921"/>
<path fill-rule="evenodd" clip-rule="evenodd" d="M10.7326 6.19985V15.5473C10.7395 15.7493 10.8239 15.9406 10.968 16.081C11.1121 16.2214 11.3046 16.2999 11.505 16.2999C11.7053 16.2999 11.8978 16.2214 12.0419 16.081C12.186 15.9406 12.2704 15.7493 12.2773 15.5473V6.19985C12.2704 5.9979 12.186 5.80654 12.0419 5.66614C11.8978 5.52574 11.7053 5.44727 11.505 5.44727C11.3046 5.44727 11.1121 5.52574 10.968 5.66614C10.8239 5.80654 10.7395 5.9979 10.7326 6.19985Z" fill="#F1A921"/>
<path fill-rule="evenodd" clip-rule="evenodd" d="M20.4287 16.6011V17.4196C20.4282 18.07 20.172 18.6936 19.7163 19.1538C19.2607 19.6139 18.6427 19.873 17.9979 19.8742H5.01467C4.36939 19.8737 3.75068 19.615 3.2944 19.1548C2.83812 18.6945 2.58157 18.0705 2.58108 17.4196V4.32427C2.58157 3.67341 2.83812 3.04936 3.2944 2.58913C3.75068 2.12891 4.36939 1.87014 5.01467 1.86965L17.9979 1.86965C18.6427 1.87088 19.2607 2.12997 19.7163 2.59012C20.172 3.05026 20.4282 3.6739 20.4287 4.32427V13.3252C20.4358 13.5374 20.5243 13.7385 20.6757 13.886C20.827 14.0336 21.0292 14.1161 21.2397 14.1161C21.4502 14.1161 21.6525 14.0336 21.8038 13.886C21.9551 13.7385 22.0437 13.5374 22.0508 13.3252V4.32427C22.0493 3.24053 21.6218 2.20161 20.8621 1.43529C20.1023 0.668969 19.0723 0.237803 17.9979 0.236328L5.01467 0.236328C3.94022 0.237803 2.91019 0.668969 2.15044 1.43529C1.39068 2.20161 0.963211 3.24053 0.961748 4.32427V17.4196C0.963211 18.5034 1.39068 19.5423 2.15044 20.3086C2.91019 21.0749 3.94022 21.5061 5.01467 21.5076H17.9979C19.0723 21.5061 20.1023 21.0749 20.8621 20.3086C21.6218 19.5423 22.0493 18.5034 22.0508 17.4196V16.6011C22.0437 16.3889 21.9551 16.1878 21.8038 16.0402C21.6525 15.8926 21.4502 15.8102 21.2397 15.8102C21.0292 15.8102 20.827 15.8926 20.6757 16.0402C20.5243 16.1878 20.4358 16.3889 20.4287 16.6011Z" fill="#4496D2"/>
</svg>
