<svg width="25" height="24" viewBox="0 0 25 24" fill="none" xmlns="http://www.w3.org/2000/svg">
<path d="M17.0455 0.166992H7.95455C5.84558 0.169123 3.82366 0.940828 2.33239 2.31279C0.841126 3.68475 0.00231604 5.54493 0 7.48517L0 15.8488C0.00231604 17.7891 0.841126 19.6492 2.33239 21.0212C3.82366 22.3932 5.84558 23.1649 7.95455 23.167H17.0455C19.1544 23.1649 21.1763 22.3932 22.6676 21.0212C24.1589 19.6492 24.9977 17.7891 25 15.8488V7.48517C24.9977 5.54493 24.1589 3.68475 22.6676 2.31279C21.1763 0.940828 19.1544 0.169123 17.0455 0.166992V0.166992ZM19.3182 12.7124H13.6364V17.9397C13.6364 18.217 13.5166 18.4829 13.3035 18.679C13.0904 18.875 12.8014 18.9852 12.5 18.9852C12.1986 18.9852 11.9096 18.875 11.6965 18.679C11.4834 18.4829 11.3636 18.217 11.3636 17.9397V12.7124H5.68182C5.38044 12.7124 5.0914 12.6023 4.87829 12.4062C4.66518 12.2102 4.54545 11.9443 4.54545 11.667C4.54545 11.3897 4.66518 11.1238 4.87829 10.9277C5.0914 10.7317 5.38044 10.6215 5.68182 10.6215H11.3636V5.39426C11.3636 5.11699 11.4834 4.85108 11.6965 4.65502C11.9096 4.45896 12.1986 4.34881 12.5 4.34881C12.8014 4.34881 13.0904 4.45896 13.3035 4.65502C13.5166 4.85108 13.6364 5.11699 13.6364 5.39426V10.6215H19.3182C19.6196 10.6215 19.9086 10.7317 20.1217 10.9277C20.3348 11.1238 20.4545 11.3897 20.4545 11.667C20.4545 11.9443 20.3348 12.2102 20.1217 12.4062C19.9086 12.6023 19.6196 12.7124 19.3182 12.7124Z" fill="#9A6FF4"/>
</svg>
