<svg width="14" height="14" viewBox="0 0 14 14" fill="none" xmlns="http://www.w3.org/2000/svg">
<path d="M13.3599 6.91092C13.3599 10.4233 10.5126 13.2706 7.00027 13.2706C3.48794 13.2706 0.640625 10.4233 0.640625 6.91092C0.640625 3.39858 3.48794 0.55127 7.00027 0.55127C10.5126 0.55127 13.3599 3.39858 13.3599 6.91092Z" fill="#D95591" stroke="white"/>
<path d="M10.2278 6.8661H7.40325V3.7277C7.40325 3.60879 7.36074 3.49476 7.28507 3.41067C7.20939 3.32659 7.10676 3.27936 6.99974 3.27936C6.89273 3.27936 6.79009 3.32659 6.71442 3.41067C6.63875 3.49476 6.59623 3.60879 6.59623 3.7277V6.8661H3.77167C3.66466 6.8661 3.56202 6.91334 3.48635 6.99742C3.41068 7.0815 3.36816 7.19554 3.36816 7.31445C3.36816 7.43335 3.41068 7.54739 3.48635 7.63147C3.56202 7.71555 3.66466 7.76279 3.77167 7.76279H6.59623V10.9012C6.59623 11.0201 6.63875 11.1341 6.71442 11.2182C6.79009 11.3023 6.89273 11.3495 6.99974 11.3495C7.10676 11.3495 7.20939 11.3023 7.28507 11.2182C7.36074 11.1341 7.40325 11.0201 7.40325 10.9012V7.76279H10.2278C10.3348 7.76279 10.4375 7.71555 10.5131 7.63147C10.5888 7.54739 10.6313 7.43335 10.6313 7.31445C10.6313 7.19554 10.5888 7.0815 10.5131 6.99742C10.4375 6.91334 10.3348 6.8661 10.2278 6.8661Z" fill="white"/>
</svg>
