<svg xmlns="http://www.w3.org/2000/svg" width="114.058" height="88.712" viewBox="0 0 114.058 88.712">
  <path id="Icon_awesome-address-card" data-name="Icon awesome-address-card" d="M104.553,2.25H9.5a9.507,9.507,0,0,0-9.5,9.5v69.7a9.507,9.507,0,0,0,9.5,9.5h95.048a9.507,9.507,0,0,0,9.5-9.5v-69.7A9.507,9.507,0,0,0,104.553,2.25Zm-69.7,19.01A12.673,12.673,0,1,1,22.178,33.933,12.685,12.685,0,0,1,34.851,21.26ZM57.029,68.15c0,2.1-1.98,3.8-4.436,3.8H17.109c-2.455,0-4.436-1.7-4.436-3.8v-3.8c0-6.3,5.96-11.406,13.307-11.406h.99a20.4,20.4,0,0,0,15.762,0h.99c7.346,0,13.307,5.109,13.307,11.406Zm44.356-10.455A1.589,1.589,0,0,1,99.8,59.279H71.286A1.589,1.589,0,0,1,69.7,57.695V54.527a1.589,1.589,0,0,1,1.584-1.584H99.8a1.589,1.589,0,0,1,1.584,1.584Zm0-12.673A1.589,1.589,0,0,1,99.8,46.606H71.286A1.589,1.589,0,0,1,69.7,45.022V41.854a1.589,1.589,0,0,1,1.584-1.584H99.8a1.589,1.589,0,0,1,1.584,1.584Zm0-12.673A1.589,1.589,0,0,1,99.8,33.933H71.286A1.589,1.589,0,0,1,69.7,32.349V29.18A1.589,1.589,0,0,1,71.286,27.6H99.8a1.589,1.589,0,0,1,1.584,1.584Z" transform="translate(0 -2.25)" fill="#e9e9e9"/>
</svg>
