<svg width="20" height="20" viewBox="0 0 20 20" fill="none" xmlns="http://www.w3.org/2000/svg">
<path d="M18 8.33984H11.25V1.58984C11.25 1.25832 11.1183 0.940381 10.8839 0.70596C10.6495 0.47154 10.3315 0.339844 10 0.339844C9.66848 0.339844 9.35054 0.47154 9.11612 0.70596C8.8817 0.940381 8.75 1.25832 8.75 1.58984V8.33984H2C1.66848 8.33984 1.35054 8.47154 1.11612 8.70596C0.881696 8.94038 0.75 9.25832 0.75 9.58984C0.75 9.92136 0.881696 10.2393 1.11612 10.4737C1.35054 10.7081 1.66848 10.8398 2 10.8398H8.75V17.5898C8.75 17.9214 8.8817 18.2393 9.11612 18.4737C9.35054 18.7081 9.66848 18.8398 10 18.8398C10.3315 18.8398 10.6495 18.7081 10.8839 18.4737C11.1183 18.2393 11.25 17.9214 11.25 17.5898V10.8398H18C18.3315 10.8398 18.6495 10.7081 18.8839 10.4737C19.1183 10.2393 19.25 9.92136 19.25 9.58984C19.25 9.25832 19.1183 8.94038 18.8839 8.70596C18.6495 8.47154 18.3315 8.33984 18 8.33984Z" fill="black" stroke="black" stroke-width="0.5"/>
</svg>
