<svg width="16" height="16" viewBox="0 0 16 16" fill="none" xmlns="http://www.w3.org/2000/svg">
<path d="M1.77778 0H14.2222C14.6937 0 15.1459 0.187301 15.4793 0.520699C15.8127 0.854097 16 1.30628 16 1.77778V14.2222C16 14.6937 15.8127 15.1459 15.4793 15.4793C15.1459 15.8127 14.6937 16 14.2222 16H1.77778C1.30628 16 0.854097 15.8127 0.520699 15.4793C0.187301 15.1459 0 14.6937 0 14.2222V1.77778C0 1.30628 0.187301 0.854097 0.520699 0.520699C0.854097 0.187301 1.30628 0 1.77778 0ZM8.88889 8.88889V3.55556H7.11111V8.88889H8.88889ZM8.88889 12.4444V10.6667H7.11111V12.4444H8.88889Z" fill="#7E7E7E"/>
</svg>
