<svg width="39" height="26" viewBox="0 0 39 26" fill="none" xmlns="http://www.w3.org/2000/svg">
<g clip-path="url(#clip0_1084_4879)">
<path d="M33.7104 8.73145C33.5398 8.13909 33.5354 7.88557 33.518 7.13083C33.5032 6.48959 33.7035 5.53022 33.7548 4.96603C33.8384 3.91801 33.8793 2.80123 34.1458 1.8228C34.4793 0.665422 34.8719 0.283496 35.4788 0.290124C36.2276 0.298408 36.6055 0.816205 36.7796 1.34808C37.0165 2.07217 37.1558 2.71755 37.3708 4.86827C37.4161 5.32393 37.4858 6.02316 37.5337 6.84252C37.5781 7.58981 37.4518 8.21034 37.2968 8.64777C37.0478 9.34783 37.2281 10.2111 37.5633 10.3967C38.1632 10.7281 38.171 11.4828 38.1562 11.9194C38.2302 16.2697 38.1762 20.606 38.1858 24.9497C38.171 25.4012 37.6007 25.711 36.9999 25.711C35.9325 25.6737 34.8728 25.6853 33.8062 25.6472C32.919 25.6157 32.791 25.175 32.8058 24.6108C32.8058 20.258 32.8798 15.9052 32.8798 11.5524C32.8946 11.2707 32.9468 11.0305 33.0652 10.7695C33.1619 10.6071 33.3839 10.4025 33.7096 10.0081C33.9751 9.68668 33.8567 9.2045 33.7104 8.73145Z" stroke="black" stroke-miterlimit="10"/>
<path d="M33.5396 13.8824C33.7335 13.9624 33.9759 14.0393 34.2619 14.0633C34.7499 14.1042 35.1902 13.8776 35.8123 13.6133C36.2453 13.4492 37.0468 13.1641 37.4798 13L37.5 24.7221C37.5 24.8551 37.3925 24.964 37.2584 24.9648L33.8207 25C33.6438 25.0016 33.4992 24.8591 33.5 24.6829L33.5396 13.8824Z" fill="black"/>
</g>
<g clip-path="url(#clip1_1084_4879)">
<path d="M25.7104 8.73145C25.5398 8.13909 25.5354 7.88557 25.518 7.13083C25.5032 6.48959 25.7035 5.53022 25.7548 4.96603C25.8384 3.91801 25.8793 2.80123 26.1458 1.8228C26.4793 0.665422 26.8719 0.283496 27.4788 0.290124C28.2276 0.298408 28.6055 0.816205 28.7796 1.34808C29.0165 2.07217 29.1558 2.71755 29.3708 4.86827C29.4161 5.32393 29.4858 6.02316 29.5337 6.84252C29.5781 7.58981 29.4518 8.21034 29.2968 8.64777C29.0478 9.34783 29.2281 10.2111 29.5633 10.3967C30.1632 10.7281 30.171 11.4828 30.1562 11.9194C30.2302 16.2697 30.1762 20.606 30.1858 24.9497C30.171 25.4012 29.6007 25.711 28.9999 25.711C27.9325 25.6737 26.8728 25.6853 25.8062 25.6472C24.919 25.6157 24.791 25.175 24.8058 24.6108C24.8058 20.258 24.8798 15.9052 24.8798 11.5524C24.8946 11.2707 24.9468 11.0305 25.0652 10.7695C25.1619 10.6071 25.3839 10.4025 25.7096 10.0081C25.9751 9.68668 25.8567 9.2045 25.7104 8.73145Z" stroke="black" stroke-miterlimit="10"/>
<path d="M25.5396 13.8824C25.7335 13.9624 25.9759 14.0393 26.2619 14.0633C26.7499 14.1042 27.1902 13.8776 27.8123 13.6133C28.2453 13.4492 29.0468 13.1641 29.4798 13L29.5 24.7221C29.5 24.8551 29.3925 24.964 29.2584 24.9648L25.8207 25C25.6438 25.0016 25.4992 24.8591 25.5 24.6829L25.5396 13.8824Z" fill="black"/>
</g>
<g clip-path="url(#clip2_1084_4879)">
<path d="M17.7104 8.73145C17.5398 8.13909 17.5354 7.88557 17.518 7.13083C17.5032 6.48959 17.7035 5.53022 17.7548 4.96603C17.8384 3.91801 17.8793 2.80123 18.1458 1.8228C18.4793 0.665422 18.8719 0.283496 19.4788 0.290124C20.2276 0.298408 20.6055 0.816205 20.7796 1.34808C21.0165 2.07217 21.1558 2.71755 21.3708 4.86827C21.4161 5.32393 21.4858 6.02316 21.5337 6.84252C21.5781 7.58981 21.4518 8.21034 21.2968 8.64777C21.0478 9.34783 21.2281 10.2111 21.5633 10.3967C22.1632 10.7281 22.171 11.4828 22.1562 11.9194C22.2302 16.2697 22.1762 20.606 22.1858 24.9497C22.171 25.4012 21.6007 25.711 20.9999 25.711C19.9325 25.6737 18.8728 25.6853 17.8062 25.6472C16.919 25.6157 16.791 25.175 16.8058 24.6108C16.8058 20.258 16.8798 15.9052 16.8798 11.5524C16.8946 11.2707 16.9468 11.0305 17.0652 10.7695C17.1619 10.6071 17.3839 10.4025 17.7096 10.0081C17.9751 9.68668 17.8567 9.2045 17.7104 8.73145Z" stroke="black" stroke-miterlimit="10"/>
<path d="M17.5396 13.8824C17.7335 13.9624 17.9759 14.0393 18.2619 14.0633C18.7499 14.1042 19.1902 13.8776 19.8123 13.6133C20.2453 13.4492 21.0468 13.1641 21.4798 13L21.5 24.7221C21.5 24.8551 21.3925 24.964 21.2584 24.9648L17.8207 25C17.6438 25.0016 17.4992 24.8591 17.5 24.6829L17.5396 13.8824Z" fill="black"/>
</g>
<g clip-path="url(#clip3_1084_4879)">
<path d="M9.71042 8.73145C9.53977 8.13909 9.53541 7.88557 9.518 7.13083C9.5032 6.48959 9.70346 5.53022 9.75483 4.96603C9.83842 3.91801 9.87934 2.80123 10.1458 1.8228C10.4793 0.665422 10.8719 0.283496 11.4788 0.290124C12.2276 0.298408 12.6055 0.816205 12.7796 1.34808C13.0165 2.07217 13.1558 2.71755 13.3708 4.86827C13.4161 5.32393 13.4858 6.02316 13.5337 6.84252C13.5781 7.58981 13.4518 8.21034 13.2968 8.64777C13.0478 9.34783 13.2281 10.2111 13.5633 10.3967C14.1632 10.7281 14.171 11.4828 14.1562 11.9194C14.2302 16.2697 14.1762 20.606 14.1858 24.9497C14.171 25.4012 13.6007 25.711 12.9999 25.711C11.9325 25.6737 10.8728 25.6853 9.8062 25.6472C8.91896 25.6157 8.79096 25.175 8.80576 24.6108C8.80576 20.258 8.87977 15.9052 8.87977 11.5524C8.89458 11.2707 8.94682 11.0305 9.06523 10.7695C9.16188 10.6071 9.38391 10.4025 9.70955 10.0081C9.97512 9.68668 9.8567 9.2045 9.71042 8.73145Z" stroke="black" stroke-miterlimit="10"/>
<path d="M9.53959 13.8824C9.73349 13.9624 9.97587 14.0393 10.2619 14.0633C10.7499 14.1042 11.1902 13.8776 11.8123 13.6133C12.2453 13.4492 13.0468 13.1641 13.4798 13L13.5 24.7221C13.5 24.8551 13.3925 24.964 13.2584 24.9648L9.82075 25C9.64381 25.0016 9.4992 24.8591 9.5 24.6829L9.53959 13.8824Z" fill="black"/>
</g>
<g clip-path="url(#clip4_1084_4879)">
<path d="M1.71042 8.73145C1.53977 8.13909 1.53541 7.88557 1.518 7.13083C1.5032 6.48959 1.70346 5.53022 1.75483 4.96603C1.83842 3.91801 1.87934 2.80123 2.14577 1.8228C2.47925 0.665422 2.87194 0.283496 3.47882 0.290124C4.22762 0.298408 4.6055 0.816205 4.77964 1.34808C5.01647 2.07217 5.15579 2.71755 5.37085 4.86827C5.41613 5.32393 5.48578 6.02316 5.53367 6.84252C5.57808 7.58981 5.45182 8.21034 5.29684 8.64777C5.04782 9.34783 5.22805 10.2111 5.56327 10.3967C6.16319 10.7281 6.17102 11.4828 6.15622 11.9194C6.23023 16.2697 6.17625 20.606 6.18583 24.9497C6.17102 25.4012 5.60071 25.711 4.99993 25.711C3.93245 25.6737 2.87281 25.6853 1.8062 25.6472C0.918955 25.6157 0.790962 25.175 0.805764 24.6108C0.805764 20.258 0.879774 15.9052 0.879774 11.5524C0.894576 11.2707 0.946818 11.0305 1.06523 10.7695C1.16188 10.6071 1.38391 10.4025 1.70955 10.0081C1.97512 9.68668 1.8567 9.2045 1.71042 8.73145Z" stroke="black" stroke-miterlimit="10"/>
<path d="M1.53959 13.8824C1.73349 13.9624 1.97587 14.0393 2.26187 14.0633C2.74985 14.1042 3.19017 13.8776 3.81226 13.6133C4.24531 13.4492 5.04676 13.1641 5.4798 13L5.5 24.7221C5.5 24.8551 5.39255 24.964 5.25843 24.9648L1.82075 25C1.64381 25.0016 1.4992 24.8591 1.5 24.6829L1.53959 13.8824Z" fill="black"/>
</g>
<defs>
<clipPath id="clip0_1084_4879">
<rect width="6" height="26" fill="white" transform="translate(32.5)"/>
</clipPath>
<clipPath id="clip1_1084_4879">
<rect width="6" height="26" fill="white" transform="translate(24.5)"/>
</clipPath>
<clipPath id="clip2_1084_4879">
<rect width="6" height="26" fill="white" transform="translate(16.5)"/>
</clipPath>
<clipPath id="clip3_1084_4879">
<rect width="6" height="26" fill="white" transform="translate(8.5)"/>
</clipPath>
<clipPath id="clip4_1084_4879">
<rect width="6" height="26" fill="white" transform="translate(0.5)"/>
</clipPath>
</defs>
</svg>
