<?xml version="1.0" encoding="utf-8"?>
<!-- Generator: Adobe Illustrator 24.3.0, SVG Export Plug-In . SVG Version: 6.00 Build 0)  -->
<svg version="1.1" baseProfile="basic" id="Layer_1"
	 xmlns="http://www.w3.org/2000/svg" xmlns:xlink="http://www.w3.org/1999/xlink" x="0px" y="0px" viewBox="0 0 500 500"
	 xml:space="preserve">
<g>
	<g>
		<path fill="#12bde2" d="M152.4,344.8c0-12.5-0.3-25.1-0.1-37.6v-0.1c0-5.2-0.1-10.5-0.1-15.7c0-1.3-0.1-2.5-0.1-3.7
			c0-0.1,0-0.2,0-0.3c-1.5-13.4-6.6-25.3-15.4-35.8c-0.7-0.8-1.4-1.6-2.1-2.4c-0.4-0.4-0.7-0.8-1.1-1.2c-0.4-0.4-0.7-0.8-1.1-1.2
			c-0.1-0.1-0.2-0.2-0.3-0.3c-0.2-0.2-0.4-0.4-0.6-0.6c-3.8-3.8-6.2-6.9-7.1-10c-0.2-0.5-0.3-1.1-0.4-1.6c-0.2-1.2-0.2-2.4,0.1-3.7
			c0,0,0-0.1,0-0.1c0.7-3.1,2.6-6.4,5.8-10.6c0.3-0.4,0.5-0.7,0.8-1.1c0.4-0.6,0.9-1.2,1.2-1.7c0,0,0,0,0,0c0.4-0.5,0.7-1.1,1.1-1.6
			c0.5-0.8,1-1.5,1.4-2.3c0.2-0.4,0.4-0.8,0.7-1.2c0.3-0.5,0.5-1,0.8-1.5c0.3-0.6,0.6-1.3,0.9-1.9c0.4-0.8,0.7-1.6,1-2.4
			c3-7.5,4-15.4,2.9-23.6c-0.1-0.6-0.2-1.2-0.3-1.8c-0.5-2.8-1.2-5.6-2.2-8.5c-10.8-31.8-21.7-63.6-32.7-95.3
			C101,63.1,91.1,55.6,78.4,55.5C65.6,55.6,55.8,63.1,51,76.8c-11,31.7-21.9,63.5-32.7,95.3c-1.1,3.2-1.8,6.3-2.3,9.3
			c-0.1,0.4-0.1,0.9-0.2,1.3c-0.1,0.6-0.1,1.2-0.2,1.8c-0.1,0.7-0.1,1.4-0.1,2.1c-0.3,7.5,1.1,14.8,4.3,21.8
			c0.3,0.6,0.6,1.3,0.9,1.9c0.3,0.6,0.6,1.1,0.9,1.7c0.1,0.2,0.2,0.3,0.3,0.5c0.3,0.5,0.5,1,0.9,1.5c0.3,0.5,0.5,0.9,0.8,1.3
			c0.3,0.5,0.7,1.1,1.1,1.6c0,0,0,0,0,0c0.4,0.6,0.8,1.2,1.2,1.7c0.2,0.3,0.4,0.6,0.6,0.9c0.1,0.1,0.1,0.2,0.2,0.3
			c3,3.9,4.9,7.1,5.6,10c0,0,0,0.1,0,0.2c0.1,0.2,0.1,0.5,0.2,0.7c0.3,1.5,0.3,2.9-0.1,4.4c-0.1,0.3-0.1,0.5-0.2,0.8
			c0,0.1,0,0.2-0.1,0.2c-1,2.9-3.2,6-6.9,9.6c0,0.1-0.1,0.1-0.2,0.2c-0.2,0.2-0.4,0.4-0.6,0.6c-0.1,0.1-0.2,0.2-0.3,0.3
			c-0.4,0.4-0.7,0.8-1.1,1.2c-0.4,0.4-0.7,0.8-1.1,1.2c-0.7,0.7-1.3,1.4-1.9,2.2c-8.9,10.6-14,22.6-15.6,36c0,0,0,0.1,0,0.1
			c-0.1,1.3-0.2,2.6-0.2,3.9c0,5.5-0.1,11-0.1,16.4v0.3c0.2,12.2-0.1,24.5-0.1,36.7c0,11,0,22.1,0,33.1v0.7
			c0.1,7.1,0.2,14.2,0.3,21.4c0,2.3,0.2,4.5,0.6,6.7c3.9,21.5,20.7,36.4,43.4,37.6c0.8,0,1.7,0.1,2.5,0.1c18.1,0.1,36.3,0.1,54.4,0
			c0.9,0,1.7,0,2.5-0.1c23-1.2,40-16.4,43.6-38.4c0.3-1.9,0.4-3.8,0.5-5.8c0.2-7,0.2-14,0.3-21C152.4,367.5,152.4,356.2,152.4,344.8
			z M121.9,336.4c0,16.4,0.2,32.8,0.1,49.2c0,0.2,0,0.4,0,0.6v8.4c0,1.4,0,2.7-0.2,3.9c-0.3,10.3-6.3,15.3-17.1,15.4h-0.7
			c-1.7,0-3.4,0-5.1,0c-3.5,0-6.9,0-10.4,0c-3.4,0-6.8,0-10.3,0c-3.4,0-6.8,0-10.3,0c-3.5,0-7,0-10.4,0c-1.2,0-2.5,0-3.8,0
			c-0.4,0-0.9,0-1.3,0H52c-10.7-0.1-16.6-5.1-17.1-15.2c-0.1-1.3-0.2-2.6-0.2-4.1c0-4.4,0-8.9,0-13.3v-1.5c0-15.6,0.2-31.3,0.1-46.9
			h58v-30.4H34.5c0-0.4,0-0.8,0-1.2c-0.3-12.7,3.1-23.1,10.9-32.5c1-1.2,2.1-2.4,3.3-3.6c3.6-3.7,6.5-7.5,8.8-11.5
			c0.3-0.6,0.6-1.2,0.9-1.7c0.3-0.7,0.6-1.3,0.9-2c0.1-0.2,0.2-0.4,0.3-0.6c0.2-0.6,0.5-1.1,0.7-1.7c0.2-0.4,0.3-0.9,0.5-1.3
			c0.2-0.6,0.4-1.2,0.5-1.8c0.1-0.3,0.2-0.5,0.2-0.8c0.1-0.4,0.2-0.8,0.3-1.2c0.1-0.3,0.2-0.7,0.2-1c0.1-0.3,0.1-0.6,0.2-0.9
			c0.1-0.3,0.1-0.6,0.2-0.9c0.1-0.6,0.2-1.1,0.2-1.7c0.1-0.8,0.2-1.7,0.2-2.6c0.3-4.3,0-8.4-0.8-12.4c-1.6-6.7-4.8-13.2-9.6-19.5
			c-2.2-2.6-3.7-5.2-4.7-7.9c-0.3-0.8-0.6-1.6-0.7-2.4c-0.1-0.4-0.2-0.8-0.3-1.2c-0.7-3.6-0.4-7.3,0.8-11.3c0-0.2,0.1-0.4,0.2-0.6
			c0.2-0.8,0.5-1.5,0.7-2.3c1.1-2.9,2.1-5.8,3.1-8.8c4.5-13.2,8.8-26.4,13.3-39.7c4.2-12.5,8.4-25,13.1-38.9
			c0.2,0.4,0.3,0.8,0.5,1.2c0.2-0.4,0.3-0.8,0.5-1.2c4.7,13.9,8.9,26.4,13.1,38.9c4.6,13.7,9,27.5,13.8,41.1
			c0.9,2.4,1.7,4.9,2.6,7.3c0.3,0.8,0.5,1.5,0.7,2.3c0.1,0.2,0.1,0.4,0.2,0.6c1.2,4,1.5,7.7,0.8,11.3c-0.1,0.4-0.2,0.8-0.3,1.2
			c-0.1,0.3-0.2,0.7-0.3,1c0,0.2-0.1,0.3-0.2,0.5c-0.1,0.3-0.2,0.6-0.3,0.9c-1,2.7-2.5,5.3-4.7,7.8c-4.8,6.3-8,12.9-9.6,19.5
			c-0.8,4-1.1,8.1-0.8,12.4c0.1,1,0.1,1.9,0.3,2.8c0,0.5,0.1,1,0.2,1.5c0,0.2,0.1,0.4,0.1,0.6c0.1,0.4,0.1,0.9,0.2,1.3
			c0,0.3,0.1,0.6,0.2,0.9c0.1,0.4,0.2,0.9,0.3,1.3c0.1,0.5,0.3,1,0.4,1.5c0.1,0.5,0.3,1,0.4,1.4c0.4,1.1,0.8,2.2,1.2,3.2
			c0.3,0.8,0.7,1.5,1,2.3c0,0,0,0,0,0.1c2.3,4.5,5.5,8.9,9.6,13c1.2,1.2,2.4,2.5,3.4,3.8c0,0,0,0,0,0c6.7,6.9,10.1,14.9,10.4,24.3
			c0.3,2.6,0.4,5.2,0.3,8c-0.2,11.6-0.3,23.1-0.3,34.7C121.9,336,121.9,336.2,121.9,336.4z"/>
	</g>
	<g>
		<path fill="#12bde2" d="M324.4,344.8c0-12.5-0.3-25.1-0.1-37.6v-0.1c0-5.2-0.1-10.5-0.1-15.7c0-1.3-0.1-2.5-0.1-3.7
			c0-0.1,0-0.2,0-0.3c-1.5-13.4-6.6-25.3-15.4-35.8c-0.7-0.8-1.4-1.6-2.1-2.4c-0.4-0.4-0.7-0.8-1.1-1.2c-0.4-0.4-0.7-0.8-1.1-1.2
			c-0.1-0.1-0.2-0.2-0.3-0.3c-0.2-0.2-0.4-0.4-0.6-0.6c-3.8-3.8-6.2-6.9-7.1-10c-0.2-0.5-0.3-1.1-0.4-1.6c-0.2-1.2-0.2-2.4,0.1-3.7
			c0,0,0-0.1,0-0.1c0.7-3.1,2.6-6.4,5.8-10.6c0.3-0.4,0.5-0.7,0.8-1.1c0.4-0.6,0.9-1.2,1.2-1.7c0,0,0,0,0,0c0.4-0.5,0.7-1.1,1.1-1.6
			c0.5-0.8,1-1.5,1.4-2.3c0.2-0.4,0.4-0.8,0.7-1.2c0.3-0.5,0.5-1,0.8-1.5c0.3-0.6,0.6-1.3,0.9-1.9c0.4-0.8,0.7-1.6,1-2.4
			c3-7.5,4-15.4,2.9-23.6c-0.1-0.6-0.2-1.2-0.3-1.8c-0.5-2.8-1.2-5.6-2.2-8.5c-10.8-31.8-21.7-63.6-32.7-95.3
			c-4.7-13.7-14.6-21.2-27.4-21.3c-12.7,0.1-22.6,7.6-27.3,21.3c-11,31.7-21.9,63.5-32.7,95.3c-1.1,3.2-1.8,6.3-2.3,9.3
			c-0.1,0.4-0.1,0.9-0.2,1.3c-0.1,0.6-0.1,1.2-0.2,1.8c-0.1,0.7-0.1,1.4-0.1,2.1c-0.3,7.5,1.1,14.8,4.3,21.8
			c0.3,0.6,0.6,1.3,0.9,1.9c0.3,0.6,0.6,1.1,0.9,1.7c0.1,0.2,0.2,0.3,0.3,0.5c0.3,0.5,0.5,1,0.9,1.5c0.3,0.5,0.5,0.9,0.8,1.3
			c0.3,0.5,0.7,1.1,1.1,1.6c0,0,0,0,0,0c0.4,0.6,0.8,1.2,1.2,1.7c0.2,0.3,0.4,0.6,0.6,0.9c0.1,0.1,0.1,0.2,0.2,0.3
			c3,3.9,4.9,7.1,5.6,10c0,0,0,0.1,0,0.2c0.1,0.2,0.1,0.5,0.2,0.7c0.3,1.5,0.3,2.9-0.1,4.4c-0.1,0.3-0.1,0.5-0.2,0.8
			c0,0.1,0,0.2-0.1,0.2c-1,2.9-3.2,6-6.9,9.6c0,0.1-0.1,0.1-0.2,0.2c-0.2,0.2-0.4,0.4-0.6,0.6c-0.1,0.1-0.2,0.2-0.3,0.3
			c-0.4,0.4-0.7,0.8-1.1,1.2c-0.4,0.4-0.7,0.8-1.1,1.2c-0.7,0.7-1.3,1.4-1.9,2.2c-8.9,10.6-14,22.6-15.6,36c0,0,0,0.1,0,0.1
			c-0.1,1.3-0.2,2.6-0.2,3.9c0,5.5-0.1,11-0.1,16.4v0.3c0.2,12.2-0.1,24.5-0.1,36.7c0,11,0,22.1,0,33.1v0.7
			c0.1,7.1,0.2,14.2,0.3,21.4c0,2.3,0.2,4.5,0.6,6.7c3.9,21.5,20.7,36.4,43.4,37.6c0.8,0,1.7,0.1,2.5,0.1c18.1,0.1,36.3,0.1,54.4,0
			c0.9,0,1.7,0,2.5-0.1c23-1.2,40-16.4,43.6-38.4c0.3-1.9,0.4-3.8,0.5-5.8c0.2-7,0.2-14,0.3-21C324.4,367.5,324.4,356.2,324.4,344.8
			z M293.9,336.4c0,16.4,0.2,32.8,0.1,49.2c0,0.2,0,0.4,0,0.6v8.4c0,1.4,0,2.7-0.2,3.9c-0.3,10.3-6.3,15.3-17.1,15.4H276
			c-1.7,0-3.4,0-5.1,0c-3.5,0-6.9,0-10.4,0c-3.4,0-6.8,0-10.3,0s-6.8,0-10.3,0c-3.5,0-7,0-10.4,0c-1.2,0-2.5,0-3.8,0
			c-0.4,0-0.9,0-1.3,0h-0.7c-10.7-0.1-16.6-5.1-17.1-15.2c-0.1-1.3-0.2-2.6-0.2-4.1c0-4.4,0-8.9,0-13.3v-1.5
			c0-15.6,0.2-31.3,0.1-46.9h58v-30.4h-58.3c0-0.4,0-0.8,0-1.2c-0.3-12.7,3.1-23.1,10.9-32.5c1-1.2,2.1-2.4,3.3-3.6
			c3.6-3.7,6.5-7.5,8.8-11.5c0.3-0.6,0.6-1.2,0.9-1.7c0.3-0.7,0.6-1.3,0.9-2c0.1-0.2,0.2-0.4,0.3-0.6c0.2-0.6,0.5-1.1,0.7-1.7
			c0.2-0.4,0.3-0.9,0.5-1.3c0.2-0.6,0.4-1.2,0.5-1.8c0.1-0.3,0.2-0.5,0.2-0.8c0.1-0.4,0.2-0.8,0.3-1.2c0.1-0.3,0.2-0.7,0.2-1
			c0.1-0.3,0.1-0.6,0.2-0.9c0.1-0.3,0.1-0.6,0.2-0.9c0.1-0.6,0.2-1.1,0.2-1.7c0.1-0.8,0.2-1.7,0.2-2.6c0.3-4.3,0-8.4-0.8-12.4
			c-1.6-6.7-4.8-13.2-9.6-19.5c-2.2-2.6-3.7-5.2-4.7-7.9c-0.3-0.8-0.6-1.6-0.7-2.4c-0.1-0.4-0.2-0.8-0.3-1.2
			c-0.7-3.6-0.4-7.3,0.8-11.3c0-0.2,0.1-0.4,0.2-0.6c0.2-0.8,0.5-1.5,0.7-2.3c1.1-2.9,2.1-5.8,3.1-8.8c4.5-13.2,8.8-26.4,13.3-39.7
			c4.2-12.5,8.4-25,13.1-38.9c0.2,0.4,0.3,0.8,0.5,1.2c0.2-0.4,0.3-0.8,0.5-1.2c4.7,13.9,8.9,26.4,13.1,38.9
			c4.6,13.7,9,27.5,13.8,41.1c0.9,2.4,1.7,4.9,2.6,7.3c0.3,0.8,0.5,1.5,0.7,2.3c0.1,0.2,0.1,0.4,0.2,0.6c1.2,4,1.5,7.7,0.8,11.3
			c-0.1,0.4-0.2,0.8-0.3,1.2c-0.1,0.3-0.2,0.7-0.3,1c0,0.2-0.1,0.3-0.2,0.5c-0.1,0.3-0.2,0.6-0.3,0.9c-1,2.7-2.5,5.3-4.7,7.8
			c-4.8,6.3-8,12.9-9.6,19.5c-0.8,4-1.1,8.1-0.8,12.4c0.1,1,0.1,1.9,0.3,2.8c0,0.5,0.1,1,0.2,1.5c0,0.2,0.1,0.4,0.1,0.6
			c0.1,0.4,0.1,0.9,0.2,1.3c0,0.3,0.1,0.6,0.2,0.9c0.1,0.4,0.2,0.9,0.3,1.3c0.1,0.5,0.3,1,0.4,1.5c0.1,0.5,0.3,1,0.4,1.4
			c0.4,1.1,0.8,2.2,1.2,3.2c0.3,0.8,0.7,1.5,1,2.3c0,0,0,0,0,0.1c2.3,4.5,5.5,8.9,9.6,13c1.2,1.2,2.4,2.5,3.4,3.8c0,0,0,0,0,0
			c6.7,6.9,10.1,14.9,10.4,24.3c0.3,2.6,0.4,5.2,0.3,8c-0.2,11.6-0.3,23.1-0.3,34.7C293.8,336,293.9,336.2,293.9,336.4z"/>
	</g>
	<g>
		<path fill="#12bde2" d="M496.3,344.8c0-12.5-0.3-25.1-0.1-37.6v-0.1c0-5.2-0.1-10.5-0.1-15.7c0-1.3-0.1-2.5-0.1-3.7
			c0-0.1,0-0.2,0-0.3c-1.5-13.4-6.6-25.3-15.4-35.8c-0.7-0.8-1.4-1.6-2.1-2.4c-0.4-0.4-0.7-0.8-1.1-1.2c-0.4-0.4-0.7-0.8-1.1-1.2
			c-0.1-0.1-0.2-0.2-0.3-0.3c-0.2-0.2-0.4-0.4-0.6-0.6c-3.8-3.8-6.2-6.9-7.1-10c-0.2-0.5-0.3-1.1-0.4-1.6c-0.2-1.2-0.2-2.4,0.1-3.7
			c0,0,0-0.1,0-0.1c0.7-3.1,2.6-6.4,5.8-10.6c0.3-0.4,0.5-0.7,0.8-1.1c0.4-0.6,0.9-1.2,1.2-1.7c0,0,0,0,0,0c0.4-0.5,0.7-1.1,1.1-1.6
			c0.5-0.8,1-1.5,1.4-2.3c0.2-0.4,0.4-0.8,0.7-1.2c0.3-0.5,0.5-1,0.8-1.5c0.3-0.6,0.6-1.3,0.9-1.9c0.4-0.8,0.7-1.6,1-2.4
			c3-7.5,4-15.4,2.9-23.6c-0.1-0.6-0.2-1.2-0.3-1.8c-0.5-2.8-1.2-5.6-2.2-8.5c-10.8-31.8-21.7-63.6-32.7-95.3
			c-4.7-13.7-14.6-21.2-27.4-21.3c-12.7,0.1-22.6,7.6-27.3,21.3c-11,31.7-21.9,63.5-32.7,95.3c-1.1,3.2-1.8,6.3-2.3,9.3
			c-0.1,0.4-0.1,0.9-0.2,1.3c-0.1,0.6-0.1,1.2-0.2,1.8c-0.1,0.7-0.1,1.4-0.1,2.1c-0.3,7.5,1.1,14.8,4.3,21.8
			c0.3,0.6,0.6,1.3,0.9,1.9c0.3,0.6,0.6,1.1,0.9,1.7c0.1,0.2,0.2,0.3,0.3,0.5c0.3,0.5,0.5,1,0.9,1.5c0.3,0.5,0.5,0.9,0.8,1.3
			c0.3,0.5,0.7,1.1,1.1,1.6c0,0,0,0,0,0c0.4,0.6,0.8,1.2,1.2,1.7c0.2,0.3,0.4,0.6,0.6,0.9c0.1,0.1,0.1,0.2,0.2,0.3
			c3,3.9,4.9,7.1,5.6,10c0,0,0,0.1,0,0.2c0.1,0.2,0.1,0.5,0.2,0.7c0.3,1.5,0.3,2.9-0.1,4.4c-0.1,0.3-0.1,0.5-0.2,0.8
			c0,0.1,0,0.2-0.1,0.2c-1,2.9-3.2,6-6.9,9.6c0,0.1-0.1,0.1-0.2,0.2c-0.2,0.2-0.4,0.4-0.6,0.6c-0.1,0.1-0.2,0.2-0.3,0.3
			c-0.4,0.4-0.7,0.8-1.1,1.2c-0.4,0.4-0.7,0.8-1.1,1.2c-0.7,0.7-1.3,1.4-1.9,2.2c-8.9,10.6-14,22.6-15.6,36c0,0,0,0.1,0,0.1
			c-0.1,1.3-0.2,2.6-0.2,3.9c0,5.5-0.1,11-0.1,16.4v0.3c0.2,12.2-0.1,24.5-0.1,36.7c0,11,0,22.1,0,33.1v0.7
			c0.1,7.1,0.2,14.2,0.3,21.4c0,2.3,0.2,4.5,0.6,6.7c3.9,21.5,20.7,36.4,43.4,37.6c0.8,0,1.7,0.1,2.5,0.1c18.1,0.1,36.3,0.1,54.4,0
			c0.9,0,1.7,0,2.5-0.1c23-1.2,40-16.4,43.6-38.4c0.3-1.9,0.4-3.8,0.5-5.8c0.2-7,0.2-14,0.3-21C496.3,367.5,496.3,356.2,496.3,344.8
			z M465.8,336.4c0,16.4,0.2,32.8,0.1,49.2c0,0.2,0,0.4,0,0.6v8.4c0,1.4,0,2.7-0.2,3.9c-0.3,10.3-6.3,15.3-17.1,15.4H448
			c-1.7,0-3.4,0-5.1,0c-3.5,0-6.9,0-10.4,0c-3.4,0-6.8,0-10.3,0s-6.8,0-10.3,0c-3.5,0-7,0-10.4,0c-1.2,0-2.5,0-3.8,0
			c-0.4,0-0.9,0-1.3,0h-0.7c-10.7-0.1-16.6-5.1-17.1-15.2c-0.1-1.3-0.2-2.6-0.2-4.1c0-4.4,0-8.9,0-13.3v-1.5
			c0-15.6,0.2-31.3,0.1-46.9h58v-30.4h-58.3c0-0.4,0-0.8,0-1.2c-0.3-12.7,3.1-23.1,10.9-32.5c1-1.2,2.1-2.4,3.3-3.6
			c3.6-3.7,6.5-7.5,8.8-11.5c0.3-0.6,0.6-1.2,0.9-1.7c0.3-0.7,0.6-1.3,0.9-2c0.1-0.2,0.2-0.4,0.3-0.6c0.2-0.6,0.5-1.1,0.7-1.7
			c0.2-0.4,0.3-0.9,0.5-1.3c0.2-0.6,0.4-1.2,0.5-1.8c0.1-0.3,0.2-0.5,0.2-0.8c0.1-0.4,0.2-0.8,0.3-1.2c0.1-0.3,0.2-0.7,0.2-1
			c0.1-0.3,0.1-0.6,0.2-0.9c0.1-0.3,0.1-0.6,0.2-0.9c0.1-0.6,0.2-1.1,0.2-1.7c0.1-0.8,0.2-1.7,0.2-2.6c0.3-4.3,0-8.4-0.8-12.4
			c-1.6-6.7-4.8-13.2-9.6-19.5c-2.2-2.6-3.7-5.2-4.7-7.9c-0.3-0.8-0.6-1.6-0.7-2.4c-0.1-0.4-0.2-0.8-0.3-1.2
			c-0.7-3.6-0.4-7.3,0.8-11.3c0-0.2,0.1-0.4,0.2-0.6c0.2-0.8,0.5-1.5,0.7-2.3c1.1-2.9,2.1-5.8,3.1-8.8c4.5-13.2,8.8-26.4,13.3-39.7
			c4.2-12.5,8.4-25,13.1-38.9c0.2,0.4,0.3,0.8,0.5,1.2c0.2-0.4,0.3-0.8,0.5-1.2c4.7,13.9,8.9,26.4,13.1,38.9
			c4.6,13.7,9,27.5,13.8,41.1c0.9,2.4,1.7,4.9,2.6,7.3c0.3,0.8,0.5,1.5,0.7,2.3c0.1,0.2,0.1,0.4,0.2,0.6c1.2,4,1.5,7.7,0.8,11.3
			c-0.1,0.4-0.2,0.8-0.3,1.2c-0.1,0.3-0.2,0.7-0.3,1c0,0.2-0.1,0.3-0.2,0.5c-0.1,0.3-0.2,0.6-0.3,0.9c-1,2.7-2.5,5.3-4.7,7.8
			c-4.8,6.3-8,12.9-9.6,19.5c-0.8,4-1.1,8.1-0.8,12.4c0.1,1,0.1,1.9,0.3,2.8c0,0.5,0.1,1,0.2,1.5c0,0.2,0.1,0.4,0.1,0.6
			c0.1,0.4,0.1,0.9,0.2,1.3c0,0.3,0.1,0.6,0.2,0.9c0.1,0.4,0.2,0.9,0.3,1.3c0.1,0.5,0.3,1,0.4,1.5c0.1,0.5,0.3,1,0.4,1.4
			c0.4,1.1,0.8,2.2,1.2,3.2c0.3,0.8,0.7,1.5,1,2.3c0,0,0,0,0,0.1c2.3,4.5,5.5,8.9,9.6,13c1.2,1.2,2.4,2.5,3.4,3.8c0,0,0,0,0,0
			c6.7,6.9,10.1,14.9,10.4,24.3c0.3,2.6,0.4,5.2,0.3,8c-0.2,11.6-0.3,23.1-0.3,34.7C465.8,336,465.8,336.2,465.8,336.4z"/>
	</g>
</g>
</svg>
