<svg width="47" height="38" viewBox="0 0 47 38" fill="none" xmlns="http://www.w3.org/2000/svg">
<path d="M13.957 28.0889C13.957 26.9129 13.929 25.7279 13.948 24.5529V24.5439C13.948 24.0549 13.939 23.5559 13.939 23.0669C13.939 22.9449 13.93 22.8319 13.93 22.7189V22.6909C13.7977 21.4482 13.293 20.2746 12.482 19.3239L12.282 19.0979C12.244 19.0599 12.216 19.0229 12.182 18.9849C12.148 18.9469 12.116 18.9099 12.082 18.8719L12.054 18.8439L11.998 18.7879C11.7022 18.5335 11.473 18.2108 11.33 17.8479C11.2751 17.6869 11.2654 17.514 11.302 17.3479V17.3389C11.4113 16.9709 11.597 16.6302 11.847 16.3389C11.875 16.3009 11.894 16.2729 11.922 16.2389C11.96 16.1829 12.007 16.1259 12.035 16.0789C12.073 16.0319 12.101 15.9789 12.135 15.9289C12.182 15.8539 12.229 15.7879 12.267 15.7129C12.2854 15.6732 12.3075 15.6354 12.333 15.5999C12.361 15.5529 12.38 15.5059 12.408 15.4589C12.436 15.4119 12.464 15.3369 12.493 15.2799C12.5283 15.2063 12.5597 15.1308 12.587 15.0539C12.8704 14.3504 12.9646 13.585 12.86 12.8339L12.832 12.6649C12.784 12.3932 12.7148 12.1257 12.625 11.8649C11.6083 8.87553 10.582 5.88819 9.546 2.90286C9.4089 2.32964 9.08357 1.81893 8.62203 1.45238C8.16049 1.08583 7.58938 0.884599 7 0.880859C6.41047 0.885068 5.8387 1.08319 5.37296 1.44465C4.90722 1.80611 4.57339 2.31081 4.423 2.88086C3.38833 5.86219 2.36333 8.84986 1.348 11.8439C1.2517 12.129 1.17945 12.4217 1.132 12.7189C1.123 12.7569 1.123 12.8039 1.113 12.8409C1.104 12.8969 1.104 12.9539 1.094 13.0099C1.08619 13.0762 1.08319 13.1431 1.085 13.2099C1.05365 13.9153 1.19077 14.618 1.485 15.2599C1.513 15.3159 1.541 15.3819 1.57 15.4389C1.599 15.4959 1.626 15.5389 1.655 15.5989C1.664 15.6179 1.674 15.6269 1.683 15.6459C1.70784 15.6949 1.73625 15.742 1.768 15.7869C1.79089 15.8288 1.81592 15.8695 1.843 15.9089C1.87316 15.9609 1.90656 16.011 1.943 16.0589C1.981 16.1149 2.018 16.1719 2.056 16.2189L2.112 16.3039C2.121 16.3129 2.121 16.3229 2.131 16.3319C2.36818 16.6065 2.54744 16.9262 2.658 17.2719V17.2909C2.667 17.3099 2.667 17.3379 2.677 17.3569C2.70697 17.4936 2.70389 17.6355 2.668 17.7709C2.659 17.7989 2.659 17.8179 2.649 17.8459C2.649 17.8549 2.649 17.8649 2.64 17.8649C2.49556 18.2107 2.2735 18.5186 1.991 18.7649C1.991 18.7739 1.982 18.7739 1.972 18.7839L1.916 18.8399L1.888 18.8679C1.85 18.9059 1.822 18.9429 1.788 18.9809C1.754 19.0189 1.722 19.0559 1.688 19.0939C1.62338 19.1584 1.56356 19.2276 1.509 19.3009C0.691614 20.2589 0.179343 21.4395 0.0380001 22.6909V22.6999C0.0290001 22.8219 0.0190001 22.9449 0.0190001 23.0669C0.0190001 23.5839 0.0100002 24.1019 0.0100002 24.6089V24.6369C0.0280002 25.7809 0 26.9419 0 28.0889V31.2679C0.009 31.9359 0.0189999 32.6029 0.0279999 33.2809C0.02756 33.4921 0.0463038 33.703 0.0840001 33.9109C0.244647 34.8841 0.740735 35.7704 1.48628 36.4162C2.23183 37.062 3.17984 37.4266 4.166 37.4469C4.241 37.4469 4.326 37.4559 4.401 37.4559C6.101 37.4649 7.815 37.4649 9.517 37.4559C9.59544 37.4577 9.67393 37.4547 9.752 37.4469C10.7524 37.4283 11.7137 37.055 12.4646 36.3937C13.2155 35.7324 13.7072 34.8259 13.852 33.8359C13.8774 33.6552 13.8931 33.4732 13.899 33.2909C13.918 32.6329 13.918 31.9739 13.927 31.3159C13.957 30.2239 13.957 29.1609 13.957 28.0889ZM11.089 27.2989C11.089 28.8409 11.108 30.3839 11.098 31.9259V32.7719C11.1016 32.8945 11.0952 33.0172 11.079 33.1389C11.051 34.1079 10.486 34.5779 9.471 34.5869H4.514C3.508 34.5779 2.953 34.1069 2.906 33.1569C2.897 33.0349 2.887 32.9119 2.887 32.7709V31.3809C2.887 29.9139 2.906 28.4369 2.896 26.9699H8.351V24.1109H2.868V23.9979C2.80792 22.8855 3.17452 21.7922 3.893 20.9409C3.987 20.8282 4.09033 20.7152 4.203 20.6019C4.52334 20.2774 4.80153 19.9139 5.031 19.5199C5.059 19.4639 5.087 19.4069 5.116 19.3599C5.144 19.2939 5.172 19.2379 5.201 19.1719L5.229 19.1159C5.248 19.0599 5.276 19.0159 5.295 18.9559C5.314 18.9179 5.323 18.8709 5.342 18.8339C5.362 18.7788 5.37771 18.7223 5.389 18.6649C5.39969 18.6412 5.40613 18.6158 5.408 18.5899L5.436 18.4769C5.44701 18.446 5.45341 18.4136 5.455 18.3809C5.464 18.3529 5.464 18.3249 5.474 18.2959C5.484 18.2669 5.483 18.2399 5.493 18.2109C5.50397 18.1582 5.51032 18.1046 5.512 18.0509C5.52338 17.9697 5.52973 17.8878 5.531 17.8059C5.55853 17.4156 5.5333 17.0234 5.456 16.6399C5.28799 15.9722 4.98134 15.3473 4.556 14.8059C4.366 14.5862 4.21636 14.3347 4.114 14.0629C4.08338 13.9903 4.06124 13.9145 4.048 13.8369L4.02 13.7239C3.95689 13.3688 3.98265 13.0036 4.095 12.6609C4.09708 12.641 4.10358 12.6219 4.114 12.6049C4.133 12.5299 4.161 12.4639 4.18 12.3889C4.28 12.1159 4.38 11.8439 4.472 11.5609C4.895 10.3199 5.3 9.07786 5.723 7.82686C6.123 6.65086 6.513 5.47586 6.955 4.16886C6.974 4.20686 6.983 4.24386 7.002 4.28186C7.021 4.24386 7.03 4.20686 7.049 4.16886C7.491 5.47586 7.886 6.65186 8.281 7.82686C8.714 9.11486 9.127 10.4129 9.581 11.6919C9.666 11.9179 9.741 12.1529 9.826 12.3789C9.85226 12.4495 9.8743 12.5216 9.892 12.5949C9.901 12.6139 9.901 12.6329 9.911 12.6509C10.0233 12.9936 10.0491 13.3588 9.986 13.7139L9.958 13.8269C9.949 13.8549 9.939 13.8929 9.93 13.9209C9.921 13.9489 9.921 13.9489 9.911 13.9679L9.883 14.0529C9.7826 14.3229 9.6327 14.5718 9.441 14.7869C9.01738 15.3294 8.71093 15.9539 8.541 16.6209C8.4637 17.0044 8.43847 17.3966 8.466 17.7869C8.47019 17.875 8.47954 17.9628 8.494 18.0499C8.4957 18.0974 8.50206 18.1446 8.513 18.1909C8.513 18.2099 8.522 18.2289 8.522 18.2469C8.531 18.2849 8.531 18.3319 8.541 18.3689C8.54278 18.398 8.54919 18.4267 8.56 18.4539C8.569 18.4919 8.579 18.5389 8.588 18.5759C8.597 18.6129 8.616 18.6699 8.626 18.7169C8.636 18.7639 8.654 18.8109 8.664 18.8489C8.702 18.9489 8.739 19.0559 8.777 19.1489C8.805 19.2239 8.843 19.2899 8.871 19.3649V19.3809C9.10536 19.833 9.40904 20.2456 9.771 20.6039C9.88511 20.716 9.99199 20.8352 10.091 20.9609C10.7015 21.5666 11.0522 22.3861 11.069 23.2459C11.0974 23.4954 11.1068 23.7468 11.097 23.9979C11.078 25.0889 11.069 26.1709 11.069 27.2609C11.088 27.2619 11.088 27.2809 11.088 27.2989H11.089Z" fill="#FF9D9D"/>
<path d="M30.1331 28.0888C30.1331 26.9128 30.1051 25.7278 30.1241 24.5528V24.5438C30.1241 24.0548 30.1151 23.5558 30.1151 23.0668C30.1151 22.9448 30.1061 22.8318 30.1061 22.7188V22.6908C29.9737 21.4482 29.469 20.2746 28.6581 19.3238L28.4581 19.0978C28.4201 19.0598 28.3921 19.0228 28.3581 18.9848C28.3241 18.9468 28.2921 18.9098 28.2581 18.8718L28.2301 18.8438L28.1741 18.7878C27.8783 18.5334 27.649 18.2108 27.5061 17.8478C27.4511 17.6869 27.4414 17.5139 27.4781 17.3478V17.3398C27.5874 16.9719 27.7731 16.6311 28.0231 16.3398C28.0511 16.3018 28.0701 16.2738 28.0981 16.2398C28.1361 16.1838 28.1831 16.1268 28.2111 16.0798C28.2491 16.0328 28.2771 15.9798 28.3111 15.9298C28.3581 15.8548 28.4051 15.7888 28.4431 15.7138C28.4615 15.6742 28.4836 15.6364 28.5091 15.6008C28.5371 15.5538 28.5561 15.5068 28.5841 15.4598C28.6121 15.4128 28.6401 15.3378 28.6691 15.2808C28.7044 15.2072 28.7358 15.1318 28.7631 15.0548C29.0465 14.3514 29.1406 13.586 29.0361 12.8348L29.0081 12.6658C28.9601 12.3942 28.8909 12.1267 28.8011 11.8658C27.7851 8.87517 26.7601 5.8875 25.7261 2.90283C25.5813 2.33045 25.2497 1.82272 24.7839 1.46003C24.318 1.09733 23.7445 0.900391 23.1541 0.900391C22.5637 0.900391 21.9901 1.09733 21.5243 1.46003C21.0584 1.82272 20.7268 2.33045 20.5821 2.90283C19.5474 5.88417 18.5224 8.87183 17.5071 11.8658C17.4108 12.151 17.3385 12.4436 17.2911 12.7408C17.2821 12.7788 17.2821 12.8258 17.2721 12.8628C17.2631 12.9188 17.2631 12.9758 17.2531 13.0318C17.2453 13.0982 17.2423 13.165 17.2441 13.2318C17.2127 13.9372 17.3498 14.64 17.6441 15.2818C17.6721 15.3378 17.7001 15.4038 17.7291 15.4608C17.7581 15.5178 17.7851 15.5608 17.8141 15.6208C17.8231 15.6398 17.8331 15.6488 17.8421 15.6678C17.8669 15.7169 17.8953 15.764 17.9271 15.8088C17.95 15.8508 17.975 15.8915 18.0021 15.9308C18.0322 15.9829 18.0656 16.033 18.1021 16.0808C18.1401 16.1368 18.1771 16.1938 18.2151 16.2408L18.2711 16.3258C18.2801 16.3348 18.2801 16.3448 18.2901 16.3538C18.5273 16.6285 18.7065 16.9482 18.8171 17.2938V17.3128C18.8261 17.3318 18.8261 17.3598 18.8361 17.3788C18.866 17.5156 18.8629 17.6575 18.8271 17.7928C18.8181 17.8208 18.8181 17.8398 18.8081 17.8678C18.8081 17.8768 18.8081 17.8868 18.7991 17.8868C18.6546 18.2326 18.4325 18.5406 18.1501 18.7868C18.1501 18.7958 18.1411 18.7958 18.1311 18.8058L18.0751 18.8618L18.0471 18.8898C18.0091 18.9278 17.9811 18.9648 17.9471 19.0028C17.9131 19.0408 17.8811 19.0778 17.8471 19.1158C17.7824 19.1804 17.7226 19.2496 17.6681 19.3228C16.8528 20.2803 16.342 21.4593 16.2011 22.7088V22.7178C16.1921 22.8398 16.1821 22.9628 16.1821 23.0848C16.1821 23.6018 16.1731 24.1198 16.1731 24.6268V24.6548C16.1921 25.8018 16.1641 26.9548 16.1641 28.1068V31.2858C16.1731 31.9538 16.1831 32.6208 16.1921 33.2988C16.1916 33.5101 16.2104 33.721 16.2481 33.9288C16.4087 34.902 16.9048 35.7884 17.6503 36.4342C18.3959 37.08 19.3439 37.4446 20.3301 37.4648C20.4051 37.4648 20.4901 37.4738 20.5651 37.4738C22.2651 37.4828 23.9791 37.4828 25.6811 37.4738C25.7595 37.4757 25.838 37.4727 25.9161 37.4648C26.9165 37.4462 27.8778 37.073 28.6287 36.4117C29.3796 35.7504 29.8712 34.8439 30.0161 33.8538C30.0414 33.6731 30.0571 33.4912 30.0631 33.3088C30.0821 32.6508 30.0821 31.9918 30.0911 31.3338C30.1331 30.2238 30.1331 29.1608 30.1331 28.0888ZM27.2651 27.2988C27.2651 28.8408 27.2841 30.3838 27.2741 31.9258V32.7718C27.2776 32.8945 27.2713 33.0172 27.2551 33.1388C27.2271 34.1078 26.6631 34.5778 25.6471 34.5868H20.6581C19.6521 34.5778 19.0971 34.1068 19.0501 33.1568C19.0411 33.0348 19.0311 32.9118 19.0311 32.7708V31.3808C19.0311 29.9138 19.0501 28.4368 19.0401 26.9698H24.4951V24.1108H19.0121V23.9998C18.952 22.8875 19.3186 21.7941 20.0371 20.9428C20.1311 20.8302 20.2344 20.7172 20.3471 20.6038C20.6674 20.2794 20.9456 19.9158 21.1751 19.5218C21.2031 19.4658 21.2311 19.4088 21.2601 19.3618C21.2881 19.2958 21.3161 19.2398 21.3451 19.1738L21.3731 19.1178C21.3921 19.0618 21.4201 19.0178 21.4391 18.9578C21.4581 18.9198 21.4671 18.8728 21.4861 18.8358C21.5061 18.7808 21.5218 18.7243 21.5331 18.6668C21.5438 18.6431 21.5502 18.6178 21.5521 18.5918L21.5801 18.4788C21.5909 18.4486 21.5973 18.4169 21.5991 18.3848C21.6081 18.3568 21.6081 18.3288 21.6181 18.2998C21.6281 18.2708 21.6271 18.2438 21.6371 18.2148C21.648 18.1622 21.6544 18.1086 21.6561 18.0548C21.6674 17.9736 21.6738 17.8918 21.6751 17.8098C21.7026 17.4196 21.6774 17.0274 21.6001 16.6438C21.4321 15.9761 21.1254 15.3513 20.7001 14.8098C20.5101 14.5902 20.3604 14.3386 20.2581 14.0668C20.2274 13.9943 20.2053 13.9185 20.1921 13.8408L20.1641 13.7278C20.1009 13.3727 20.1267 13.0075 20.2391 12.6648C20.2411 12.645 20.2476 12.6258 20.2581 12.6088C20.2771 12.5338 20.3051 12.4678 20.3241 12.3928C20.4241 12.1198 20.5241 11.8478 20.6161 11.5648C21.0391 10.3238 21.4441 9.08183 21.8671 7.83083C22.2671 6.65483 22.6571 5.47983 23.0991 4.17283C23.1181 4.21083 23.1271 4.24783 23.1461 4.28583C23.1651 4.24783 23.1741 4.21083 23.1931 4.17283C23.6351 5.47983 24.0301 6.65583 24.4251 7.83083C24.8581 9.11883 25.2711 10.4168 25.7251 11.6958C25.8101 11.9218 25.8851 12.1568 25.9701 12.3828C25.9963 12.4535 26.0184 12.5256 26.0361 12.5988C26.0451 12.6178 26.0451 12.6368 26.0551 12.6548C26.1674 12.9975 26.1932 13.3627 26.1301 13.7178L26.1021 13.8308C26.0931 13.8588 26.0831 13.8968 26.0741 13.9248C26.0651 13.9528 26.0651 13.9528 26.0551 13.9718L26.0271 14.0568C25.9267 14.3269 25.7768 14.5758 25.5851 14.7908C25.1615 15.3333 24.855 15.9578 24.6851 16.6248C24.6078 17.0084 24.5825 17.4006 24.6101 17.7908C24.6143 17.879 24.6236 17.9668 24.6381 18.0538C24.6398 18.1013 24.6461 18.1486 24.6571 18.1948C24.6571 18.2138 24.6661 18.2328 24.6661 18.2508C24.6751 18.2888 24.6751 18.3358 24.6851 18.3728C24.6868 18.402 24.6932 18.4307 24.7041 18.4578C24.7131 18.4958 24.7231 18.5428 24.7321 18.5798C24.7411 18.6168 24.7601 18.6738 24.7701 18.7208C24.7801 18.7678 24.7981 18.8148 24.8081 18.8528C24.8461 18.9528 24.8831 19.0598 24.9211 19.1528C24.9491 19.2278 24.9871 19.2938 25.0151 19.3688V19.3778C25.2494 19.83 25.5531 20.2426 25.9151 20.6008C26.0292 20.7129 26.136 20.8322 26.2351 20.9578C26.8455 21.5635 27.1963 22.383 27.2131 23.2428C27.2415 23.4924 27.2509 23.7438 27.2411 23.9948C27.2221 25.0858 27.2131 26.1678 27.2131 27.2578C27.2581 27.2618 27.2651 27.2808 27.2651 27.2998V27.2988Z" fill="#FF9D9D"/>
<path d="M46.3003 28.0888C46.3003 26.9128 46.2723 25.7278 46.2913 24.5528V24.5438C46.2913 24.0548 46.2823 23.5558 46.2823 23.0668C46.2823 22.9448 46.2733 22.8318 46.2733 22.7188V22.6908C46.141 21.4482 45.6363 20.2746 44.8253 19.3238L44.6253 19.0998C44.5873 19.0618 44.5593 19.0248 44.5253 18.9868C44.4913 18.9488 44.4593 18.9118 44.4253 18.8738L44.3973 18.8458L44.3413 18.7898C44.0456 18.5354 43.8163 18.2128 43.6733 17.8498C43.6529 17.8014 43.6368 17.7512 43.6253 17.6998C43.6049 17.5844 43.6079 17.466 43.6343 17.3518V17.3398C43.7437 16.9719 43.9293 16.6311 44.1793 16.3398C44.2073 16.3018 44.2263 16.2738 44.2543 16.2398C44.2923 16.1838 44.3393 16.1268 44.3673 16.0798C44.4053 16.0328 44.4333 15.9798 44.4673 15.9298C44.5143 15.8548 44.5613 15.7888 44.5993 15.7138C44.6177 15.6742 44.6398 15.6364 44.6653 15.6008C44.6933 15.5538 44.7123 15.5068 44.7403 15.4598C44.7683 15.4128 44.7963 15.3378 44.8253 15.2808C44.8607 15.2072 44.892 15.1318 44.9193 15.0548C45.2028 14.3514 45.2969 13.586 45.1923 12.8348L45.1643 12.6658C45.1163 12.3942 45.0471 12.1267 44.9573 11.8658C43.9413 8.87517 42.9163 5.8875 41.8823 2.90283C41.7375 2.33045 41.406 1.82272 40.9401 1.46003C40.4742 1.09733 39.9007 0.900391 39.3103 0.900391C38.7199 0.900391 38.1464 1.09733 37.6805 1.46003C37.2147 1.82272 36.8831 2.33045 36.7383 2.90283C35.7036 5.88417 34.6786 8.87183 33.6633 11.8658C33.567 12.151 33.4947 12.4436 33.4473 12.7408C33.4383 12.7788 33.4383 12.8258 33.4283 12.8628C33.4193 12.9188 33.4193 12.9758 33.4093 13.0318C33.4015 13.0982 33.3985 13.165 33.4003 13.2318C33.369 13.9372 33.5061 14.64 33.8003 15.2818C33.8283 15.3378 33.8563 15.4038 33.8853 15.4608C33.9143 15.5178 33.9413 15.5608 33.9703 15.6208C33.9793 15.6398 33.9893 15.6488 33.9983 15.6678C34.0231 15.7169 34.0516 15.764 34.0833 15.8088C34.1062 15.8508 34.1312 15.8915 34.1583 15.9308C34.1884 15.9829 34.2218 16.033 34.2583 16.0808C34.2963 16.1368 34.3333 16.1938 34.3713 16.2408L34.4273 16.3258C34.4363 16.3348 34.4363 16.3448 34.4463 16.3538C34.6835 16.6285 34.8628 16.9482 34.9733 17.2938V17.3128C34.9823 17.3318 34.9823 17.3598 34.9923 17.3788C35.0222 17.5156 35.0192 17.6575 34.9833 17.7928C34.9743 17.8208 34.9743 17.8398 34.9643 17.8678C34.9643 17.8768 34.9643 17.8868 34.9553 17.8868C34.8108 18.2326 34.5888 18.5406 34.3063 18.7868C34.3063 18.7958 34.2973 18.7958 34.2873 18.8058L34.2313 18.8618L34.2033 18.8898C34.1653 18.9278 34.1373 18.9648 34.1033 19.0028C34.0693 19.0408 34.0373 19.0778 34.0033 19.1158C33.9387 19.1804 33.8789 19.2496 33.8243 19.3228C33.0091 20.2803 32.4983 21.4593 32.3573 22.7088V22.7178C32.3483 22.8398 32.3383 22.9628 32.3383 23.0848C32.3383 23.6018 32.3293 24.1198 32.3293 24.6268V24.6548C32.3483 25.8018 32.3203 26.9548 32.3203 28.1068V31.2858C32.3293 31.9538 32.3393 32.6208 32.3483 33.2988C32.3479 33.5101 32.3666 33.721 32.4043 33.9288C32.5649 34.902 33.061 35.7884 33.8066 36.4342C34.5521 37.08 35.5001 37.4446 36.4863 37.4648C36.5613 37.4648 36.6463 37.4738 36.7213 37.4738C38.4213 37.4828 40.1353 37.4828 41.8373 37.4738C41.9158 37.4757 41.9942 37.4727 42.0723 37.4648C43.0727 37.4462 44.034 37.073 44.7849 36.4117C45.5358 35.7504 46.0275 34.8439 46.1723 33.8538C46.1977 33.6731 46.2134 33.4912 46.2193 33.3088C46.2383 32.6508 46.2383 31.9918 46.2473 31.3338C46.3003 30.2238 46.3003 29.1608 46.3003 28.0888ZM43.4323 27.2988C43.4323 28.8408 43.4513 30.3838 43.4413 31.9258V32.7718C43.4449 32.8945 43.4385 33.0172 43.4223 33.1388C43.3943 34.1078 42.8303 34.5778 41.8143 34.5868H36.8393C35.8333 34.5778 35.2783 34.1068 35.2313 33.1568C35.2223 33.0348 35.2123 32.9118 35.2123 32.7708V31.3808C35.2123 29.9138 35.2313 28.4368 35.2213 26.9698H40.6763V24.1108H35.1933V23.9998C35.1331 22.8875 35.4997 21.7941 36.2183 20.9428C36.3123 20.8302 36.4157 20.7172 36.5283 20.6038C36.8487 20.2794 37.1268 19.9158 37.3563 19.5218C37.3843 19.4658 37.4123 19.4088 37.4413 19.3618C37.4693 19.2958 37.4973 19.2398 37.5263 19.1738L37.5543 19.1178C37.5733 19.0618 37.6013 19.0178 37.6203 18.9578C37.6393 18.9198 37.6483 18.8728 37.6673 18.8358C37.6873 18.7808 37.703 18.7243 37.7143 18.6668C37.725 18.6431 37.7314 18.6178 37.7333 18.5918L37.7613 18.4788C37.7721 18.4486 37.7785 18.4169 37.7803 18.3848C37.7893 18.3568 37.7893 18.3288 37.7993 18.2998C37.8093 18.2708 37.8083 18.2438 37.8183 18.2148C37.8293 18.1622 37.8356 18.1086 37.8373 18.0548C37.8487 17.9736 37.855 17.8918 37.8563 17.8098C37.8838 17.4196 37.8586 17.0274 37.7813 16.6438C37.6133 15.9761 37.3067 15.3513 36.8813 14.8098C36.6913 14.5902 36.5417 14.3386 36.4393 14.0668C36.4087 13.9943 36.3865 13.9185 36.3733 13.8408L36.3453 13.7278C36.2822 13.3727 36.308 13.0075 36.4203 12.6648C36.4224 12.645 36.4289 12.6258 36.4393 12.6088C36.4583 12.5338 36.4863 12.4678 36.5053 12.3928C36.6053 12.1198 36.7053 11.8478 36.7973 11.5648C37.2203 10.3238 37.6253 9.08183 38.0483 7.83083C38.4433 6.65483 38.8383 5.47983 39.2803 4.17283C39.2993 4.21083 39.3083 4.24783 39.3273 4.28583C39.3463 4.24783 39.3553 4.21083 39.3743 4.17283C39.8163 5.47983 40.2113 6.65583 40.6063 7.83083C41.0393 9.11883 41.4523 10.4168 41.9063 11.6958C41.9913 11.9218 42.0663 12.1568 42.1513 12.3828C42.1776 12.4535 42.1996 12.5256 42.2173 12.5988C42.2263 12.6178 42.2263 12.6368 42.2363 12.6548C42.3486 12.9975 42.3744 13.3627 42.3113 13.7178L42.2833 13.8308C42.2743 13.8588 42.2643 13.8968 42.2553 13.9248C42.2463 13.9528 42.2463 13.9528 42.2363 13.9718L42.2083 14.0568C42.1079 14.3269 41.958 14.5758 41.7663 14.7908C41.3427 15.3333 41.0362 15.9578 40.8663 16.6248C40.789 17.0084 40.7638 17.4006 40.7913 17.7908C40.7955 17.879 40.8049 17.9668 40.8193 18.0538C40.8164 18.1026 40.8184 18.1515 40.8253 18.1998C40.8253 18.2188 40.8343 18.2378 40.8343 18.2558C40.8433 18.2938 40.8433 18.3408 40.8533 18.3778C40.8551 18.407 40.8615 18.4357 40.8723 18.4628C40.8813 18.5008 40.8913 18.5478 40.9003 18.5848C40.9093 18.6218 40.9283 18.6788 40.9383 18.7258C40.9483 18.7728 40.9663 18.8198 40.9763 18.8578C41.0143 18.9578 41.0513 19.0648 41.0893 19.1578C41.1173 19.2328 41.1553 19.2988 41.1833 19.3738V19.3828C41.4177 19.835 41.7213 20.2476 42.0833 20.6058C42.1974 20.7179 42.3043 20.8372 42.4033 20.9628C43.0138 21.5685 43.3645 22.388 43.3813 23.2478C43.4098 23.4974 43.4191 23.7488 43.4093 23.9998C43.3903 25.0908 43.3813 26.1728 43.3813 27.2628C43.4323 27.2618 43.4323 27.2808 43.4323 27.2998V27.2988Z" fill="#FF9D9D"/>
</svg>
