<svg width="31" height="24" viewBox="0 0 31 24" fill="none" xmlns="http://www.w3.org/2000/svg">
<mask id="path-1-inside-1_1525_6230" fill="white">
<path d="M9.23311 17.7382C9.23311 16.9807 9.21507 16.2173 9.22731 15.4604V15.4546C9.22731 15.1396 9.22151 14.8181 9.22151 14.5031C9.22151 14.4245 9.21572 14.3517 9.21572 14.2789V14.2609C9.13048 13.4604 8.80534 12.7044 8.28293 12.0919L8.1541 11.9463C8.12962 11.9219 8.11158 11.898 8.08968 11.8735C8.06777 11.8491 8.04716 11.8252 8.02526 11.8008L8.00722 11.7827L7.97115 11.7466C7.78063 11.5828 7.63292 11.3749 7.54083 11.1411C7.50545 11.0374 7.49921 10.926 7.52279 10.819V10.8132C7.59321 10.5762 7.71285 10.3567 7.87387 10.169C7.89191 10.1445 7.90415 10.1265 7.92219 10.1046C7.94667 10.0685 7.97694 10.0318 7.99498 10.0015C8.01946 9.97126 8.0375 9.93712 8.0594 9.90491C8.08968 9.8566 8.11995 9.81408 8.14443 9.76577C8.1563 9.74023 8.17054 9.71586 8.18695 9.69298C8.20499 9.6627 8.21723 9.63242 8.23526 9.60215C8.2533 9.57187 8.27134 9.52355 8.29002 9.48684C8.31277 9.43942 8.33299 9.39081 8.35057 9.34125C8.53316 8.88811 8.5938 8.39503 8.52644 7.91115L8.5084 7.80228C8.4775 7.62727 8.43292 7.45496 8.37505 7.28694C7.72013 5.36124 7.05898 3.43684 6.3916 1.51373C6.30328 1.14447 6.09371 0.815474 5.79639 0.579346C5.49907 0.343219 5.13117 0.21359 4.7515 0.211182C4.37173 0.213893 4.00341 0.341522 3.70338 0.57437C3.40336 0.807218 3.18831 1.13234 3.09143 1.49956C2.42491 3.42009 1.76462 5.34471 1.11055 7.27341C1.04852 7.45708 1.00197 7.64563 0.971407 7.83707C0.96561 7.86155 0.96561 7.89183 0.959168 7.91566C0.95337 7.95174 0.95337 7.98845 0.946928 8.02453C0.941899 8.06728 0.939962 8.11034 0.941131 8.15337C0.920939 8.60778 1.00927 9.06046 1.19881 9.47395C1.21684 9.51002 1.23488 9.55254 1.25356 9.58926C1.27224 9.62598 1.28964 9.65368 1.30832 9.69233C1.31412 9.70457 1.32056 9.71037 1.32635 9.72261C1.34235 9.75419 1.36066 9.78454 1.38111 9.81344C1.39586 9.84044 1.41198 9.86668 1.42942 9.89203C1.44885 9.92555 1.47037 9.95783 1.49384 9.98866V9.98866C1.51832 10.0247 1.54216 10.0614 1.56664 10.0917L1.60271 10.1465C1.60851 10.1523 1.60851 10.1587 1.61495 10.1645C1.76774 10.3414 1.88321 10.5474 1.95444 10.7701V10.7823C1.96023 10.7945 1.96023 10.8126 1.96668 10.8248C1.98599 10.9129 1.984 11.0043 1.96088 11.0915C1.95508 11.1095 1.95508 11.1218 1.94864 11.1398C1.94864 11.1456 1.94864 11.1521 1.94284 11.1521C1.8498 11.3748 1.70675 11.5732 1.52476 11.7318C1.52476 11.7376 1.51897 11.7376 1.51252 11.7441L1.47645 11.7801L1.45841 11.7982C1.43393 11.8227 1.4159 11.8465 1.39399 11.871C1.37209 11.8954 1.35148 11.9193 1.32958 11.9438C1.28795 11.9854 1.24941 12.0299 1.21427 12.0771C0.687716 12.6943 0.357718 13.4548 0.266667 14.2609V14.2667C0.260869 14.3453 0.254427 14.4245 0.254427 14.5031C0.254427 14.8362 0.24863 15.1699 0.24863 15.4965V15.5145C0.260225 16.2514 0.242188 16.9993 0.242188 17.7382V19.7861C0.247985 20.2164 0.254427 20.6461 0.260225 21.0829C0.259941 21.2189 0.272016 21.3548 0.296299 21.4887C0.399786 22.1156 0.71936 22.6866 1.19963 23.1026C1.6799 23.5186 2.2906 23.7535 2.92587 23.7665C2.97419 23.7665 3.02894 23.7723 3.07726 23.7723C4.17237 23.7781 5.27651 23.7781 6.37292 23.7723C6.42345 23.7735 6.47401 23.7716 6.5243 23.7665C7.16876 23.7545 7.78802 23.5141 8.27173 23.0881C8.75544 22.6621 9.07217 22.0782 9.16547 21.4404C9.18182 21.324 9.19192 21.2068 9.19575 21.0893C9.20799 20.6654 9.20799 20.2409 9.21378 19.817C9.23311 19.1136 9.23311 18.4288 9.23311 17.7382ZM7.38558 17.2293C7.38558 18.2227 7.39782 19.2166 7.39138 20.21V20.755C7.39367 20.834 7.38958 20.913 7.37914 20.9914C7.3611 21.6156 6.99714 21.9184 6.34328 21.9242H3.15005C2.502 21.9184 2.14447 21.6149 2.1142 21.003C2.1084 20.9244 2.10196 20.8451 2.10196 20.7543V19.8589C2.10196 18.9139 2.1142 17.9624 2.10775 17.0174H5.6218V15.1757H2.08972V15.1029C2.05102 14.3863 2.28717 13.682 2.75001 13.1336C2.81056 13.061 2.87713 12.9882 2.94971 12.9152C3.15607 12.7062 3.33527 12.472 3.48309 12.2182C3.50113 12.1821 3.51917 12.1454 3.53785 12.1151C3.55589 12.0726 3.57392 12.0365 3.59261 11.994L3.61064 11.9579C3.62288 11.9219 3.64092 11.8935 3.65316 11.8549C3.6654 11.8304 3.6712 11.8001 3.68344 11.7763C3.69632 11.7408 3.70644 11.7044 3.71371 11.6674C3.7206 11.6521 3.72475 11.6358 3.72595 11.6191L3.74399 11.5463C3.75108 11.5264 3.75521 11.5056 3.75623 11.4845C3.76203 11.4664 3.76203 11.4484 3.76847 11.4297C3.77491 11.411 3.77427 11.3936 3.78071 11.3749C3.78777 11.341 3.79187 11.3065 3.79295 11.2719C3.80028 11.2196 3.80437 11.1669 3.80519 11.1141C3.82292 10.8626 3.80667 10.61 3.75687 10.3629C3.64864 9.9328 3.45111 9.53027 3.1771 9.18149C3.05471 9.03999 2.95831 8.87795 2.89237 8.70286C2.87265 8.65613 2.85839 8.60727 2.84986 8.55727L2.83182 8.48448C2.79116 8.25573 2.80776 8.02048 2.88013 7.79971C2.88148 7.78692 2.88566 7.7746 2.89237 7.76363C2.90461 7.71532 2.92265 7.6728 2.93489 7.62449C2.99931 7.44863 3.06373 7.27341 3.12299 7.0911C3.39548 6.29167 3.65638 5.49158 3.92887 4.68571C4.18655 3.92814 4.43778 3.17122 4.72251 2.32927C4.73475 2.35375 4.74055 2.37758 4.75279 2.40206C4.76503 2.37758 4.77082 2.35375 4.78306 2.32927C5.06779 3.17122 5.32225 3.92879 5.5767 4.68571C5.85564 5.51542 6.12168 6.35157 6.41415 7.17549C6.4689 7.32107 6.51722 7.47246 6.57197 7.61805C6.58889 7.66354 6.60309 7.71001 6.61449 7.75719C6.62029 7.76943 6.62029 7.78167 6.62673 7.79326C6.6991 8.01404 6.7157 8.24929 6.67504 8.47804L6.657 8.55083C6.65121 8.56887 6.64476 8.59335 6.63897 8.61138C6.63317 8.62942 6.63317 8.62942 6.62673 8.64166L6.60869 8.69641C6.54401 8.87036 6.44745 9.03072 6.32396 9.16925C6.05107 9.51873 5.85366 9.92102 5.74419 10.3507C5.6944 10.5978 5.67815 10.8504 5.69588 11.1018C5.69858 11.1586 5.7046 11.2152 5.71391 11.2712C5.71501 11.3018 5.71911 11.3323 5.72615 11.3621C5.72615 11.3743 5.73195 11.3865 5.73195 11.3981C5.73775 11.4226 5.73775 11.4529 5.74419 11.4767C5.74534 11.4955 5.74947 11.514 5.75643 11.5315C5.76223 11.556 5.76867 11.5862 5.77447 11.6101C5.78027 11.6339 5.79251 11.6706 5.79895 11.7009C5.80539 11.7312 5.81698 11.7615 5.82343 11.7859C5.8479 11.8504 5.87174 11.9193 5.89622 11.9792C5.91426 12.0275 5.93874 12.07 5.95677 12.1183V12.1286C6.10775 12.4199 6.30337 12.6857 6.53654 12.9165C6.61005 12.9887 6.6789 13.0655 6.74268 13.1465V13.1465C7.13593 13.5366 7.36188 14.0646 7.3727 14.6184C7.39102 14.7792 7.39705 14.9412 7.39073 15.1029C7.37849 15.8057 7.3727 16.5027 7.3727 17.2048C7.38494 17.2055 7.38494 17.2177 7.38494 17.2293H7.38558Z"/>
</mask>
<path d="M9.23311 17.7382C9.23311 16.9807 9.21507 16.2173 9.22731 15.4604V15.4546C9.22731 15.1396 9.22151 14.8181 9.22151 14.5031C9.22151 14.4245 9.21572 14.3517 9.21572 14.2789V14.2609C9.13048 13.4604 8.80534 12.7044 8.28293 12.0919L8.1541 11.9463C8.12962 11.9219 8.11158 11.898 8.08968 11.8735C8.06777 11.8491 8.04716 11.8252 8.02526 11.8008L8.00722 11.7827L7.97115 11.7466C7.78063 11.5828 7.63292 11.3749 7.54083 11.1411C7.50545 11.0374 7.49921 10.926 7.52279 10.819V10.8132C7.59321 10.5762 7.71285 10.3567 7.87387 10.169C7.89191 10.1445 7.90415 10.1265 7.92219 10.1046C7.94667 10.0685 7.97694 10.0318 7.99498 10.0015C8.01946 9.97126 8.0375 9.93712 8.0594 9.90491C8.08968 9.8566 8.11995 9.81408 8.14443 9.76577C8.1563 9.74023 8.17054 9.71586 8.18695 9.69298C8.20499 9.6627 8.21723 9.63242 8.23526 9.60215C8.2533 9.57187 8.27134 9.52355 8.29002 9.48684C8.31277 9.43942 8.33299 9.39081 8.35057 9.34125C8.53316 8.88811 8.5938 8.39503 8.52644 7.91115L8.5084 7.80228C8.4775 7.62727 8.43292 7.45496 8.37505 7.28694C7.72013 5.36124 7.05898 3.43684 6.3916 1.51373C6.30328 1.14447 6.09371 0.815474 5.79639 0.579346C5.49907 0.343219 5.13117 0.21359 4.7515 0.211182C4.37173 0.213893 4.00341 0.341522 3.70338 0.57437C3.40336 0.807218 3.18831 1.13234 3.09143 1.49956C2.42491 3.42009 1.76462 5.34471 1.11055 7.27341C1.04852 7.45708 1.00197 7.64563 0.971407 7.83707C0.96561 7.86155 0.96561 7.89183 0.959168 7.91566C0.95337 7.95174 0.95337 7.98845 0.946928 8.02453C0.941899 8.06728 0.939962 8.11034 0.941131 8.15337C0.920939 8.60778 1.00927 9.06046 1.19881 9.47395C1.21684 9.51002 1.23488 9.55254 1.25356 9.58926C1.27224 9.62598 1.28964 9.65368 1.30832 9.69233C1.31412 9.70457 1.32056 9.71037 1.32635 9.72261C1.34235 9.75419 1.36066 9.78454 1.38111 9.81344C1.39586 9.84044 1.41198 9.86668 1.42942 9.89203C1.44885 9.92555 1.47037 9.95783 1.49384 9.98866V9.98866C1.51832 10.0247 1.54216 10.0614 1.56664 10.0917L1.60271 10.1465C1.60851 10.1523 1.60851 10.1587 1.61495 10.1645C1.76774 10.3414 1.88321 10.5474 1.95444 10.7701V10.7823C1.96023 10.7945 1.96023 10.8126 1.96668 10.8248C1.98599 10.9129 1.984 11.0043 1.96088 11.0915C1.95508 11.1095 1.95508 11.1218 1.94864 11.1398C1.94864 11.1456 1.94864 11.1521 1.94284 11.1521C1.8498 11.3748 1.70675 11.5732 1.52476 11.7318C1.52476 11.7376 1.51897 11.7376 1.51252 11.7441L1.47645 11.7801L1.45841 11.7982C1.43393 11.8227 1.4159 11.8465 1.39399 11.871C1.37209 11.8954 1.35148 11.9193 1.32958 11.9438C1.28795 11.9854 1.24941 12.0299 1.21427 12.0771C0.687716 12.6943 0.357718 13.4548 0.266667 14.2609V14.2667C0.260869 14.3453 0.254427 14.4245 0.254427 14.5031C0.254427 14.8362 0.24863 15.1699 0.24863 15.4965V15.5145C0.260225 16.2514 0.242188 16.9993 0.242188 17.7382V19.7861C0.247985 20.2164 0.254427 20.6461 0.260225 21.0829C0.259941 21.2189 0.272016 21.3548 0.296299 21.4887C0.399786 22.1156 0.71936 22.6866 1.19963 23.1026C1.6799 23.5186 2.2906 23.7535 2.92587 23.7665C2.97419 23.7665 3.02894 23.7723 3.07726 23.7723C4.17237 23.7781 5.27651 23.7781 6.37292 23.7723C6.42345 23.7735 6.47401 23.7716 6.5243 23.7665C7.16876 23.7545 7.78802 23.5141 8.27173 23.0881C8.75544 22.6621 9.07217 22.0782 9.16547 21.4404C9.18182 21.324 9.19192 21.2068 9.19575 21.0893C9.20799 20.6654 9.20799 20.2409 9.21378 19.817C9.23311 19.1136 9.23311 18.4288 9.23311 17.7382ZM7.38558 17.2293C7.38558 18.2227 7.39782 19.2166 7.39138 20.21V20.755C7.39367 20.834 7.38958 20.913 7.37914 20.9914C7.3611 21.6156 6.99714 21.9184 6.34328 21.9242H3.15005C2.502 21.9184 2.14447 21.6149 2.1142 21.003C2.1084 20.9244 2.10196 20.8451 2.10196 20.7543V19.8589C2.10196 18.9139 2.1142 17.9624 2.10775 17.0174H5.6218V15.1757H2.08972V15.1029C2.05102 14.3863 2.28717 13.682 2.75001 13.1336C2.81056 13.061 2.87713 12.9882 2.94971 12.9152C3.15607 12.7062 3.33527 12.472 3.48309 12.2182C3.50113 12.1821 3.51917 12.1454 3.53785 12.1151C3.55589 12.0726 3.57392 12.0365 3.59261 11.994L3.61064 11.9579C3.62288 11.9219 3.64092 11.8935 3.65316 11.8549C3.6654 11.8304 3.6712 11.8001 3.68344 11.7763C3.69632 11.7408 3.70644 11.7044 3.71371 11.6674C3.7206 11.6521 3.72475 11.6358 3.72595 11.6191L3.74399 11.5463C3.75108 11.5264 3.75521 11.5056 3.75623 11.4845C3.76203 11.4664 3.76203 11.4484 3.76847 11.4297C3.77491 11.411 3.77427 11.3936 3.78071 11.3749C3.78777 11.341 3.79187 11.3065 3.79295 11.2719C3.80028 11.2196 3.80437 11.1669 3.80519 11.1141C3.82292 10.8626 3.80667 10.61 3.75687 10.3629C3.64864 9.9328 3.45111 9.53027 3.1771 9.18149C3.05471 9.03999 2.95831 8.87795 2.89237 8.70286C2.87265 8.65613 2.85839 8.60727 2.84986 8.55727L2.83182 8.48448C2.79116 8.25573 2.80776 8.02048 2.88013 7.79971C2.88148 7.78692 2.88566 7.7746 2.89237 7.76363C2.90461 7.71532 2.92265 7.6728 2.93489 7.62449C2.99931 7.44863 3.06373 7.27341 3.12299 7.0911C3.39548 6.29167 3.65638 5.49158 3.92887 4.68571C4.18655 3.92814 4.43778 3.17122 4.72251 2.32927C4.73475 2.35375 4.74055 2.37758 4.75279 2.40206C4.76503 2.37758 4.77082 2.35375 4.78306 2.32927C5.06779 3.17122 5.32225 3.92879 5.5767 4.68571C5.85564 5.51542 6.12168 6.35157 6.41415 7.17549C6.4689 7.32107 6.51722 7.47246 6.57197 7.61805C6.58889 7.66354 6.60309 7.71001 6.61449 7.75719C6.62029 7.76943 6.62029 7.78167 6.62673 7.79326C6.6991 8.01404 6.7157 8.24929 6.67504 8.47804L6.657 8.55083C6.65121 8.56887 6.64476 8.59335 6.63897 8.61138C6.63317 8.62942 6.63317 8.62942 6.62673 8.64166L6.60869 8.69641C6.54401 8.87036 6.44745 9.03072 6.32396 9.16925C6.05107 9.51873 5.85366 9.92102 5.74419 10.3507C5.6944 10.5978 5.67815 10.8504 5.69588 11.1018C5.69858 11.1586 5.7046 11.2152 5.71391 11.2712C5.71501 11.3018 5.71911 11.3323 5.72615 11.3621C5.72615 11.3743 5.73195 11.3865 5.73195 11.3981C5.73775 11.4226 5.73775 11.4529 5.74419 11.4767C5.74534 11.4955 5.74947 11.514 5.75643 11.5315C5.76223 11.556 5.76867 11.5862 5.77447 11.6101C5.78027 11.6339 5.79251 11.6706 5.79895 11.7009C5.80539 11.7312 5.81698 11.7615 5.82343 11.7859C5.8479 11.8504 5.87174 11.9193 5.89622 11.9792C5.91426 12.0275 5.93874 12.07 5.95677 12.1183V12.1286C6.10775 12.4199 6.30337 12.6857 6.53654 12.9165C6.61005 12.9887 6.6789 13.0655 6.74268 13.1465V13.1465C7.13593 13.5366 7.36188 14.0646 7.3727 14.6184C7.39102 14.7792 7.39705 14.9412 7.39073 15.1029C7.37849 15.8057 7.3727 16.5027 7.3727 17.2048C7.38494 17.2055 7.38494 17.2177 7.38494 17.2293H7.38558Z" fill="#4E4E4E" stroke="#38474F" stroke-width="2" mask="url(#path-1-inside-1_1525_6230)"/>
<mask id="path-2-inside-2_1525_6230" fill="white">
<path d="M19.651 17.7388C19.651 16.9813 19.633 16.2179 19.6452 15.461V15.4552C19.6452 15.1402 19.6394 14.8187 19.6394 14.5037C19.6394 14.4251 19.6336 14.3523 19.6336 14.2795V14.2615C19.5484 13.461 19.2232 12.705 18.7008 12.0925L18.572 11.9469C18.5475 11.9224 18.5295 11.8986 18.5076 11.8741C18.4857 11.8497 18.465 11.8258 18.4431 11.8013L18.4251 11.7833L18.389 11.7472C18.1985 11.5834 18.0508 11.3755 17.9587 11.1417C17.9233 11.038 17.9171 10.9266 17.9407 10.8196V10.8144C18.0111 10.5774 18.1307 10.3579 18.2918 10.1703C18.3098 10.1458 18.322 10.1277 18.3401 10.1058C18.3646 10.0698 18.3948 10.033 18.4129 10.0028C18.4373 9.97249 18.4554 9.93835 18.4773 9.90614C18.5076 9.85783 18.5378 9.81531 18.5623 9.767C18.5742 9.74146 18.5884 9.71709 18.6048 9.6942C18.6229 9.66393 18.6351 9.63365 18.6531 9.60337C18.6712 9.5731 18.6892 9.52478 18.7079 9.48806C18.7307 9.44065 18.7509 9.39205 18.7685 9.34248C18.9511 8.88934 19.0117 8.39626 18.9443 7.91238L18.9263 7.80352C18.8954 7.62851 18.8508 7.45619 18.7929 7.28816C18.1384 5.36161 17.4782 3.437 16.8121 1.51431C16.7188 1.14559 16.5052 0.81852 16.2051 0.584875C15.905 0.35123 15.5355 0.224365 15.1552 0.224365C14.7749 0.224365 14.4054 0.35123 14.1053 0.584875C13.8052 0.81852 13.5916 1.14559 13.4984 1.51431C12.8318 3.43485 12.1716 5.35947 11.5175 7.28816C11.4554 7.47184 11.4089 7.66038 11.3783 7.85183C11.3725 7.87631 11.3725 7.90659 11.3661 7.93042C11.3603 7.96649 11.3603 8.00321 11.3539 8.03929C11.3488 8.08204 11.3469 8.12509 11.3481 8.16812C11.3279 8.62253 11.4162 9.07522 11.6057 9.48871C11.6238 9.52478 11.6418 9.5673 11.6605 9.60402C11.6792 9.64074 11.6966 9.66843 11.7152 9.70709C11.721 9.71933 11.7275 9.72513 11.7333 9.73737C11.7493 9.76895 11.7676 9.7993 11.788 9.8282C11.8028 9.8552 11.8189 9.88144 11.8364 9.90679C11.8558 9.94031 11.8773 9.97258 11.9008 10.0034C11.9253 10.0395 11.9491 10.0762 11.9736 10.1065L12.0096 10.1612C12.0154 10.167 12.0154 10.1735 12.0219 10.1793C12.1747 10.3562 12.2901 10.5622 12.3614 10.7848V10.7971C12.3672 10.8093 12.3672 10.8273 12.3736 10.8396C12.3929 10.9277 12.3909 11.0191 12.3678 11.1063C12.362 11.1243 12.362 11.1365 12.3556 11.1546C12.3556 11.1604 12.3556 11.1668 12.3498 11.1668C12.2567 11.3896 12.1137 11.5879 11.9317 11.7466C11.9317 11.7524 11.9259 11.7524 11.9195 11.7588L11.8834 11.7949L11.8653 11.8129C11.8409 11.8374 11.8228 11.8613 11.8009 11.8857C11.779 11.9102 11.7584 11.934 11.7365 11.9585C11.6949 12.0001 11.6563 12.0447 11.6212 12.0919C11.096 12.7086 10.767 13.4681 10.6762 14.2731V14.2789C10.6704 14.3575 10.6639 14.4367 10.6639 14.5153C10.6639 14.8483 10.6581 15.182 10.6581 15.5086V15.5267C10.6704 16.2656 10.6523 17.0083 10.6523 17.7504V19.7983C10.6581 20.2286 10.6646 20.6583 10.6704 21.095C10.6701 21.2311 10.6822 21.367 10.7065 21.5009C10.8099 22.1278 11.1295 22.6987 11.6098 23.1148C12.0901 23.5308 12.7008 23.7657 13.336 23.7787C13.3843 23.7787 13.4391 23.7845 13.4874 23.7845C14.5825 23.7903 15.6867 23.7903 16.7831 23.7845C16.8336 23.7857 16.8842 23.7838 16.9345 23.7787C17.5789 23.7667 18.1982 23.5263 18.6819 23.1003C19.1656 22.6743 19.4823 22.0903 19.5756 21.4526C19.592 21.3362 19.6021 21.219 19.6059 21.1015C19.6181 20.6776 19.6181 20.2531 19.6239 19.8292C19.651 19.1142 19.651 18.4294 19.651 17.7388ZM17.8035 17.2299C17.8035 18.2232 17.8157 19.2172 17.8093 20.2106V20.7555C17.8116 20.8346 17.8075 20.9136 17.797 20.992C17.779 21.6162 17.4157 21.9189 16.7612 21.9247H13.5473C12.8993 21.9189 12.5417 21.6155 12.5115 21.0036C12.5057 20.925 12.4992 20.8457 12.4992 20.7549V19.8595C12.4992 18.9145 12.5115 17.963 12.505 17.018H16.0191V15.1762H12.487V15.1047C12.4483 14.3882 12.6844 13.6838 13.1473 13.1355C13.2078 13.0629 13.2744 12.9901 13.347 12.9171C13.5533 12.7081 13.7325 12.4739 13.8804 12.2201C13.8984 12.184 13.9164 12.1473 13.9351 12.117C13.9532 12.0745 13.9712 12.0384 13.9899 11.9959L14.0079 11.9598C14.0202 11.9237 14.0382 11.8954 14.0504 11.8567C14.0627 11.8323 14.0685 11.802 14.0807 11.7782C14.0936 11.7427 14.1037 11.7063 14.111 11.6693C14.1179 11.654 14.122 11.6377 14.1232 11.621L14.1413 11.5482C14.1482 11.5287 14.1524 11.5083 14.1535 11.4876C14.1593 11.4696 14.1593 11.4515 14.1657 11.4329C14.1722 11.4142 14.1715 11.3968 14.178 11.3781C14.1851 11.3442 14.1891 11.3097 14.1902 11.275C14.1976 11.2227 14.2016 11.17 14.2025 11.1172C14.2202 10.8658 14.2039 10.6132 14.1541 10.3661C14.0459 9.93596 13.8484 9.53343 13.5744 9.18465C13.452 9.04315 13.3556 8.88111 13.2896 8.70602C13.2699 8.65929 13.2557 8.61044 13.2471 8.56043L13.2291 8.48764C13.1884 8.25889 13.205 8.02364 13.2774 7.80287C13.2787 7.79008 13.2829 7.77776 13.2896 7.76679C13.3019 7.71848 13.3199 7.67597 13.3322 7.62765C13.3966 7.45179 13.461 7.27657 13.5203 7.09426C13.7928 6.29483 14.0537 5.49475 14.3261 4.68887C14.5838 3.9313 14.8351 3.17438 15.1198 2.33243C15.132 2.35691 15.1378 2.38074 15.1501 2.40522C15.1623 2.38074 15.1681 2.35691 15.1803 2.33243C15.4651 3.17438 15.7195 3.93195 15.974 4.68887C16.2529 5.51858 16.519 6.35474 16.8114 7.17865C16.8662 7.32424 16.9145 7.47562 16.9692 7.62121C16.9862 7.66671 17.0004 7.71317 17.0118 7.76035C17.0176 7.77259 17.0176 7.78483 17.024 7.79643C17.0964 8.0172 17.113 8.25245 17.0723 8.4812L17.0543 8.55399C17.0485 8.57203 17.042 8.59651 17.0362 8.61454C17.0304 8.63258 17.0304 8.63259 17.024 8.64482L17.006 8.69958C16.9413 8.87353 16.8447 9.03388 16.7212 9.17241C16.4483 9.52189 16.2509 9.92418 16.1415 10.3539C16.0917 10.6009 16.0754 10.8536 16.0931 11.105C16.0959 11.1618 16.1019 11.2183 16.1112 11.2744C16.1123 11.305 16.1164 11.3354 16.1234 11.3652C16.1234 11.3775 16.1292 11.3897 16.1292 11.4013C16.135 11.4258 16.135 11.4561 16.1415 11.4799C16.1426 11.4987 16.1467 11.5172 16.1537 11.5346C16.1595 11.5591 16.1659 11.5894 16.1717 11.6132C16.1775 11.6371 16.1898 11.6738 16.1962 11.7041C16.2027 11.7343 16.2143 11.7646 16.2207 11.7891C16.2452 11.8535 16.269 11.9224 16.2935 11.9824C16.3115 12.0307 16.336 12.0732 16.354 12.1215V12.1273C16.505 12.4186 16.7006 12.6844 16.9338 12.9151C17.0073 12.9874 17.0762 13.0642 17.14 13.1451C17.5332 13.5353 17.7591 14.0632 17.77 14.6171C17.7883 14.7779 17.7943 14.9398 17.788 15.1015C17.7758 15.8043 17.77 16.5013 17.77 17.2035C17.799 17.2061 17.8035 17.2183 17.8035 17.2306V17.2299Z"/>
</mask>
<path d="M19.651 17.7388C19.651 16.9813 19.633 16.2179 19.6452 15.461V15.4552C19.6452 15.1402 19.6394 14.8187 19.6394 14.5037C19.6394 14.4251 19.6336 14.3523 19.6336 14.2795V14.2615C19.5484 13.461 19.2232 12.705 18.7008 12.0925L18.572 11.9469C18.5475 11.9224 18.5295 11.8986 18.5076 11.8741C18.4857 11.8497 18.465 11.8258 18.4431 11.8013L18.4251 11.7833L18.389 11.7472C18.1985 11.5834 18.0508 11.3755 17.9587 11.1417C17.9233 11.038 17.9171 10.9266 17.9407 10.8196V10.8144C18.0111 10.5774 18.1307 10.3579 18.2918 10.1703C18.3098 10.1458 18.322 10.1277 18.3401 10.1058C18.3646 10.0698 18.3948 10.033 18.4129 10.0028C18.4373 9.97249 18.4554 9.93835 18.4773 9.90614C18.5076 9.85783 18.5378 9.81531 18.5623 9.767C18.5742 9.74146 18.5884 9.71709 18.6048 9.6942C18.6229 9.66393 18.6351 9.63365 18.6531 9.60337C18.6712 9.5731 18.6892 9.52478 18.7079 9.48806C18.7307 9.44065 18.7509 9.39205 18.7685 9.34248C18.9511 8.88934 19.0117 8.39626 18.9443 7.91238L18.9263 7.80352C18.8954 7.62851 18.8508 7.45619 18.7929 7.28816C18.1384 5.36161 17.4782 3.437 16.8121 1.51431C16.7188 1.14559 16.5052 0.81852 16.2051 0.584875C15.905 0.35123 15.5355 0.224365 15.1552 0.224365C14.7749 0.224365 14.4054 0.35123 14.1053 0.584875C13.8052 0.81852 13.5916 1.14559 13.4984 1.51431C12.8318 3.43485 12.1716 5.35947 11.5175 7.28816C11.4554 7.47184 11.4089 7.66038 11.3783 7.85183C11.3725 7.87631 11.3725 7.90659 11.3661 7.93042C11.3603 7.96649 11.3603 8.00321 11.3539 8.03929C11.3488 8.08204 11.3469 8.12509 11.3481 8.16812C11.3279 8.62253 11.4162 9.07522 11.6057 9.48871C11.6238 9.52478 11.6418 9.5673 11.6605 9.60402C11.6792 9.64074 11.6966 9.66843 11.7152 9.70709C11.721 9.71933 11.7275 9.72513 11.7333 9.73737C11.7493 9.76895 11.7676 9.7993 11.788 9.8282C11.8028 9.8552 11.8189 9.88144 11.8364 9.90679C11.8558 9.94031 11.8773 9.97258 11.9008 10.0034C11.9253 10.0395 11.9491 10.0762 11.9736 10.1065L12.0096 10.1612C12.0154 10.167 12.0154 10.1735 12.0219 10.1793C12.1747 10.3562 12.2901 10.5622 12.3614 10.7848V10.7971C12.3672 10.8093 12.3672 10.8273 12.3736 10.8396C12.3929 10.9277 12.3909 11.0191 12.3678 11.1063C12.362 11.1243 12.362 11.1365 12.3556 11.1546C12.3556 11.1604 12.3556 11.1668 12.3498 11.1668C12.2567 11.3896 12.1137 11.5879 11.9317 11.7466C11.9317 11.7524 11.9259 11.7524 11.9195 11.7588L11.8834 11.7949L11.8653 11.8129C11.8409 11.8374 11.8228 11.8613 11.8009 11.8857C11.779 11.9102 11.7584 11.934 11.7365 11.9585C11.6949 12.0001 11.6563 12.0447 11.6212 12.0919C11.096 12.7086 10.767 13.4681 10.6762 14.2731V14.2789C10.6704 14.3575 10.6639 14.4367 10.6639 14.5153C10.6639 14.8483 10.6581 15.182 10.6581 15.5086V15.5267C10.6704 16.2656 10.6523 17.0083 10.6523 17.7504V19.7983C10.6581 20.2286 10.6646 20.6583 10.6704 21.095C10.6701 21.2311 10.6822 21.367 10.7065 21.5009C10.8099 22.1278 11.1295 22.6987 11.6098 23.1148C12.0901 23.5308 12.7008 23.7657 13.336 23.7787C13.3843 23.7787 13.4391 23.7845 13.4874 23.7845C14.5825 23.7903 15.6867 23.7903 16.7831 23.7845C16.8336 23.7857 16.8842 23.7838 16.9345 23.7787C17.5789 23.7667 18.1982 23.5263 18.6819 23.1003C19.1656 22.6743 19.4823 22.0903 19.5756 21.4526C19.592 21.3362 19.6021 21.219 19.6059 21.1015C19.6181 20.6776 19.6181 20.2531 19.6239 19.8292C19.651 19.1142 19.651 18.4294 19.651 17.7388ZM17.8035 17.2299C17.8035 18.2232 17.8157 19.2172 17.8093 20.2106V20.7555C17.8116 20.8346 17.8075 20.9136 17.797 20.992C17.779 21.6162 17.4157 21.9189 16.7612 21.9247H13.5473C12.8993 21.9189 12.5417 21.6155 12.5115 21.0036C12.5057 20.925 12.4992 20.8457 12.4992 20.7549V19.8595C12.4992 18.9145 12.5115 17.963 12.505 17.018H16.0191V15.1762H12.487V15.1047C12.4483 14.3882 12.6844 13.6838 13.1473 13.1355C13.2078 13.0629 13.2744 12.9901 13.347 12.9171C13.5533 12.7081 13.7325 12.4739 13.8804 12.2201C13.8984 12.184 13.9164 12.1473 13.9351 12.117C13.9532 12.0745 13.9712 12.0384 13.9899 11.9959L14.0079 11.9598C14.0202 11.9237 14.0382 11.8954 14.0504 11.8567C14.0627 11.8323 14.0685 11.802 14.0807 11.7782C14.0936 11.7427 14.1037 11.7063 14.111 11.6693C14.1179 11.654 14.122 11.6377 14.1232 11.621L14.1413 11.5482C14.1482 11.5287 14.1524 11.5083 14.1535 11.4876C14.1593 11.4696 14.1593 11.4515 14.1657 11.4329C14.1722 11.4142 14.1715 11.3968 14.178 11.3781C14.1851 11.3442 14.1891 11.3097 14.1902 11.275C14.1976 11.2227 14.2016 11.17 14.2025 11.1172C14.2202 10.8658 14.2039 10.6132 14.1541 10.3661C14.0459 9.93596 13.8484 9.53343 13.5744 9.18465C13.452 9.04315 13.3556 8.88111 13.2896 8.70602C13.2699 8.65929 13.2557 8.61044 13.2471 8.56043L13.2291 8.48764C13.1884 8.25889 13.205 8.02364 13.2774 7.80287C13.2787 7.79008 13.2829 7.77776 13.2896 7.76679C13.3019 7.71848 13.3199 7.67597 13.3322 7.62765C13.3966 7.45179 13.461 7.27657 13.5203 7.09426C13.7928 6.29483 14.0537 5.49475 14.3261 4.68887C14.5838 3.9313 14.8351 3.17438 15.1198 2.33243C15.132 2.35691 15.1378 2.38074 15.1501 2.40522C15.1623 2.38074 15.1681 2.35691 15.1803 2.33243C15.4651 3.17438 15.7195 3.93195 15.974 4.68887C16.2529 5.51858 16.519 6.35474 16.8114 7.17865C16.8662 7.32424 16.9145 7.47562 16.9692 7.62121C16.9862 7.66671 17.0004 7.71317 17.0118 7.76035C17.0176 7.77259 17.0176 7.78483 17.024 7.79643C17.0964 8.0172 17.113 8.25245 17.0723 8.4812L17.0543 8.55399C17.0485 8.57203 17.042 8.59651 17.0362 8.61454C17.0304 8.63258 17.0304 8.63259 17.024 8.64482L17.006 8.69958C16.9413 8.87353 16.8447 9.03388 16.7212 9.17241C16.4483 9.52189 16.2509 9.92418 16.1415 10.3539C16.0917 10.6009 16.0754 10.8536 16.0931 11.105C16.0959 11.1618 16.1019 11.2183 16.1112 11.2744C16.1123 11.305 16.1164 11.3354 16.1234 11.3652C16.1234 11.3775 16.1292 11.3897 16.1292 11.4013C16.135 11.4258 16.135 11.4561 16.1415 11.4799C16.1426 11.4987 16.1467 11.5172 16.1537 11.5346C16.1595 11.5591 16.1659 11.5894 16.1717 11.6132C16.1775 11.6371 16.1898 11.6738 16.1962 11.7041C16.2027 11.7343 16.2143 11.7646 16.2207 11.7891C16.2452 11.8535 16.269 11.9224 16.2935 11.9824C16.3115 12.0307 16.336 12.0732 16.354 12.1215V12.1273C16.505 12.4186 16.7006 12.6844 16.9338 12.9151C17.0073 12.9874 17.0762 13.0642 17.14 13.1451C17.5332 13.5353 17.7591 14.0632 17.77 14.6171C17.7883 14.7779 17.7943 14.9398 17.788 15.1015C17.7758 15.8043 17.77 16.5013 17.77 17.2035C17.799 17.2061 17.8035 17.2183 17.8035 17.2306V17.2299Z" fill="#4E4E4E" stroke="#38474F" stroke-width="2" mask="url(#path-2-inside-2_1525_6230)"/>
<mask id="path-3-inside-3_1525_6230" fill="white">
<path d="M30.0682 17.7388C30.0682 16.9813 30.0502 16.2179 30.0624 15.461V15.4552C30.0624 15.1402 30.0566 14.8187 30.0566 14.5037C30.0566 14.4251 30.0508 14.3523 30.0508 14.2795V14.2615C29.9656 13.461 29.6405 12.705 29.1181 12.0925L28.9892 11.9482C28.9647 11.9237 28.9467 11.8999 28.9248 11.8754C28.9029 11.8509 28.8823 11.8271 28.8604 11.8026L28.8423 11.7846L28.8063 11.7485C28.6158 11.5846 28.4681 11.3768 28.376 11.143C28.3628 11.1118 28.3524 11.0794 28.345 11.0464C28.3319 10.972 28.3339 10.8958 28.3508 10.8222V10.8144C28.4213 10.5774 28.5409 10.3579 28.7019 10.1703C28.7199 10.1458 28.7322 10.1277 28.7502 10.1058C28.7747 10.0698 28.805 10.033 28.823 10.0028C28.8475 9.97249 28.8655 9.93835 28.8874 9.90614C28.9177 9.85783 28.948 9.81531 28.9725 9.767C28.9843 9.74146 28.9986 9.71709 29.015 9.6942C29.033 9.66393 29.0453 9.63365 29.0633 9.60337C29.0813 9.5731 29.0994 9.52478 29.1181 9.48806C29.1408 9.44065 29.161 9.39205 29.1786 9.34248C29.3612 8.88934 29.4218 8.39626 29.3545 7.91238L29.3364 7.80352C29.3055 7.62851 29.261 7.45619 29.2031 7.28816C28.5486 5.36161 27.8883 3.437 27.2222 1.51431C27.1289 1.14559 26.9154 0.81852 26.6153 0.584875C26.3152 0.35123 25.9457 0.224365 25.5654 0.224365C25.185 0.224365 24.8156 0.35123 24.5155 0.584875C24.2154 0.81852 24.0018 1.14559 23.9085 1.51431C23.242 3.43485 22.5817 5.35947 21.9276 7.28816C21.8656 7.47184 21.8191 7.66039 21.7885 7.85183C21.7827 7.87631 21.7827 7.90659 21.7763 7.93042C21.7705 7.96649 21.7705 8.00321 21.764 8.03929C21.759 8.08204 21.757 8.12509 21.7582 8.16812C21.738 8.62253 21.8263 9.07522 22.0159 9.48871C22.0339 9.52478 22.052 9.5673 22.0707 9.60402C22.0893 9.64074 22.1067 9.66843 22.1254 9.70709C22.1312 9.71933 22.1376 9.72513 22.1434 9.73737C22.1594 9.76895 22.1777 9.7993 22.1982 9.8282C22.2129 9.8552 22.2291 9.88144 22.2465 9.90679C22.2659 9.94032 22.2874 9.97259 22.3109 10.0034V10.0034C22.3354 10.0395 22.3592 10.0762 22.3837 10.1065L22.4198 10.1612C22.4256 10.167 22.4256 10.1735 22.432 10.1793C22.5849 10.3562 22.7003 10.5622 22.7715 10.7848V10.7971C22.7773 10.8093 22.7773 10.8273 22.7838 10.8396C22.8031 10.9277 22.8011 11.0191 22.778 11.1063C22.7722 11.1243 22.7722 11.1365 22.7657 11.1546C22.7657 11.1604 22.7657 11.1668 22.7599 11.1668C22.6669 11.3896 22.5238 11.5879 22.3419 11.7466C22.3419 11.7524 22.336 11.7524 22.3296 11.7588L22.2935 11.7949L22.2755 11.8129C22.251 11.8374 22.233 11.8613 22.2111 11.8857C22.1892 11.9102 22.1686 11.934 22.1467 11.9585C22.105 12.0001 22.0665 12.0447 22.0314 12.0919C21.5062 12.7086 21.1771 13.4681 21.0863 14.2731V14.2789C21.0805 14.3575 21.0741 14.4367 21.0741 14.5153C21.0741 14.8483 21.0683 15.182 21.0683 15.5086V15.5267C21.0805 16.2656 21.0625 17.0083 21.0625 17.7504V19.7983C21.0683 20.2286 21.0747 20.6583 21.0805 21.095C21.0803 21.2311 21.0923 21.367 21.1166 21.5009C21.2201 22.1278 21.5397 22.6987 22.0199 23.1148C22.5002 23.5308 23.1109 23.7657 23.7462 23.7787C23.7945 23.7787 23.8493 23.7845 23.8976 23.7845C24.9927 23.7903 26.0968 23.7903 27.1932 23.7845C27.2438 23.7857 27.2943 23.7838 27.3446 23.7787C27.9891 23.7667 28.6083 23.5263 29.092 23.1003C29.5757 22.6743 29.8925 22.0903 29.9858 21.4526C30.0021 21.3362 30.0122 21.219 30.0161 21.1015C30.0283 20.6776 30.0283 20.2531 30.0341 19.8292C30.0682 19.1142 30.0682 18.4294 30.0682 17.7388ZM28.2207 17.2299C28.2207 18.2232 28.2329 19.2172 28.2265 20.2106V20.7555C28.2288 20.8346 28.2247 20.9136 28.2143 20.992C28.1962 21.6162 27.8329 21.9189 27.1784 21.9247H23.9736C23.3255 21.9189 22.968 21.6155 22.9377 21.0036C22.9319 20.925 22.9255 20.8457 22.9255 20.7549V19.8595C22.9255 18.9145 22.9377 17.963 22.9313 17.018H26.4453V15.1762H22.9132V15.1047C22.8745 14.3882 23.1106 13.6838 23.5735 13.1355C23.6341 13.0629 23.7007 12.9901 23.7732 12.9171C23.9796 12.7081 24.1588 12.4739 24.3066 12.2201C24.3247 12.184 24.3427 12.1473 24.3614 12.117C24.3794 12.0745 24.3975 12.0384 24.4161 11.9959L24.4342 11.9598C24.4464 11.9237 24.4644 11.8954 24.4767 11.8567C24.4889 11.8323 24.4947 11.802 24.507 11.7782C24.5198 11.7427 24.53 11.7063 24.5372 11.6693C24.5441 11.654 24.5483 11.6377 24.5495 11.621L24.5675 11.5482C24.5745 11.5287 24.5786 11.5083 24.5798 11.4876C24.5856 11.4696 24.5856 11.4515 24.592 11.4329C24.5984 11.4142 24.5978 11.3968 24.6042 11.3781C24.6113 11.3442 24.6154 11.3097 24.6165 11.275C24.6238 11.2227 24.6279 11.17 24.6287 11.1172C24.6464 10.8658 24.6302 10.6132 24.5804 10.3661C24.4722 9.93596 24.2746 9.53343 24.0006 9.18465C23.8782 9.04315 23.7818 8.88111 23.7159 8.70602C23.6962 8.65929 23.6819 8.61044 23.6734 8.56043L23.6553 8.48764C23.6147 8.25889 23.6313 8.02364 23.7037 7.80287C23.705 7.79008 23.7092 7.77776 23.7159 7.76679C23.7281 7.71848 23.7462 7.67597 23.7584 7.62765C23.8228 7.45179 23.8873 7.27657 23.9465 7.09426C24.219 6.29483 24.4799 5.49475 24.7524 4.68887C25.0069 3.9313 25.2613 3.17438 25.546 2.33243C25.5583 2.35691 25.5641 2.38074 25.5763 2.40522C25.5886 2.38074 25.5943 2.35691 25.6066 2.33243C25.8913 3.17438 26.1458 3.93195 26.4002 4.68887C26.6792 5.51858 26.9452 6.35474 27.2377 7.17865C27.2924 7.32424 27.3407 7.47562 27.3955 7.62121C27.4124 7.6667 27.4266 7.71317 27.438 7.76035C27.4438 7.77259 27.4438 7.78483 27.4503 7.79643C27.5226 8.0172 27.5392 8.25245 27.4986 8.4812L27.4805 8.55399C27.4747 8.57203 27.4683 8.59651 27.4625 8.61454C27.4567 8.63258 27.4567 8.63259 27.4503 8.64482L27.4322 8.69958C27.3675 8.87353 27.271 9.03388 27.1475 9.17241C26.8746 9.52189 26.6772 9.92418 26.5677 10.3539C26.5179 10.6009 26.5017 10.8536 26.5194 11.105C26.5221 11.1618 26.5281 11.2183 26.5374 11.2744C26.5356 11.3058 26.5369 11.3373 26.5413 11.3684C26.5413 11.3807 26.5471 11.3929 26.5471 11.4045C26.5529 11.429 26.5529 11.4593 26.5593 11.4831C26.5605 11.5019 26.5646 11.5204 26.5716 11.5379C26.5774 11.5623 26.5838 11.5926 26.5896 11.6165C26.5954 11.6403 26.6077 11.677 26.6141 11.7073C26.6205 11.7376 26.6321 11.7678 26.6386 11.7923C26.6631 11.8567 26.6869 11.9257 26.7114 11.9856C26.7294 12.0339 26.7539 12.0764 26.7719 12.1247V12.1305C26.9229 12.4218 27.1185 12.6876 27.3517 12.9184C27.4252 12.9906 27.4941 13.0674 27.5578 13.1483V13.1483C27.9511 13.5385 28.177 14.0664 28.1879 14.6203C28.2062 14.7811 28.2122 14.943 28.2059 15.1047C28.1936 15.8075 28.1879 16.5046 28.1879 17.2067C28.2207 17.2061 28.2207 17.2183 28.2207 17.2306V17.2299Z"/>
</mask>
<path d="M30.0682 17.7388C30.0682 16.9813 30.0502 16.2179 30.0624 15.461V15.4552C30.0624 15.1402 30.0566 14.8187 30.0566 14.5037C30.0566 14.4251 30.0508 14.3523 30.0508 14.2795V14.2615C29.9656 13.461 29.6405 12.705 29.1181 12.0925L28.9892 11.9482C28.9647 11.9237 28.9467 11.8999 28.9248 11.8754C28.9029 11.8509 28.8823 11.8271 28.8604 11.8026L28.8423 11.7846L28.8063 11.7485C28.6158 11.5846 28.4681 11.3768 28.376 11.143C28.3628 11.1118 28.3524 11.0794 28.345 11.0464C28.3319 10.972 28.3339 10.8958 28.3508 10.8222V10.8144C28.4213 10.5774 28.5409 10.3579 28.7019 10.1703C28.7199 10.1458 28.7322 10.1277 28.7502 10.1058C28.7747 10.0698 28.805 10.033 28.823 10.0028C28.8475 9.97249 28.8655 9.93835 28.8874 9.90614C28.9177 9.85783 28.948 9.81531 28.9725 9.767C28.9843 9.74146 28.9986 9.71709 29.015 9.6942C29.033 9.66393 29.0453 9.63365 29.0633 9.60337C29.0813 9.5731 29.0994 9.52478 29.1181 9.48806C29.1408 9.44065 29.161 9.39205 29.1786 9.34248C29.3612 8.88934 29.4218 8.39626 29.3545 7.91238L29.3364 7.80352C29.3055 7.62851 29.261 7.45619 29.2031 7.28816C28.5486 5.36161 27.8883 3.437 27.2222 1.51431C27.1289 1.14559 26.9154 0.81852 26.6153 0.584875C26.3152 0.35123 25.9457 0.224365 25.5654 0.224365C25.185 0.224365 24.8156 0.35123 24.5155 0.584875C24.2154 0.81852 24.0018 1.14559 23.9085 1.51431C23.242 3.43485 22.5817 5.35947 21.9276 7.28816C21.8656 7.47184 21.8191 7.66039 21.7885 7.85183C21.7827 7.87631 21.7827 7.90659 21.7763 7.93042C21.7705 7.96649 21.7705 8.00321 21.764 8.03929C21.759 8.08204 21.757 8.12509 21.7582 8.16812C21.738 8.62253 21.8263 9.07522 22.0159 9.48871C22.0339 9.52478 22.052 9.5673 22.0707 9.60402C22.0893 9.64074 22.1067 9.66843 22.1254 9.70709C22.1312 9.71933 22.1376 9.72513 22.1434 9.73737C22.1594 9.76895 22.1777 9.7993 22.1982 9.8282C22.2129 9.8552 22.2291 9.88144 22.2465 9.90679C22.2659 9.94032 22.2874 9.97259 22.3109 10.0034V10.0034C22.3354 10.0395 22.3592 10.0762 22.3837 10.1065L22.4198 10.1612C22.4256 10.167 22.4256 10.1735 22.432 10.1793C22.5849 10.3562 22.7003 10.5622 22.7715 10.7848V10.7971C22.7773 10.8093 22.7773 10.8273 22.7838 10.8396C22.8031 10.9277 22.8011 11.0191 22.778 11.1063C22.7722 11.1243 22.7722 11.1365 22.7657 11.1546C22.7657 11.1604 22.7657 11.1668 22.7599 11.1668C22.6669 11.3896 22.5238 11.5879 22.3419 11.7466C22.3419 11.7524 22.336 11.7524 22.3296 11.7588L22.2935 11.7949L22.2755 11.8129C22.251 11.8374 22.233 11.8613 22.2111 11.8857C22.1892 11.9102 22.1686 11.934 22.1467 11.9585C22.105 12.0001 22.0665 12.0447 22.0314 12.0919C21.5062 12.7086 21.1771 13.4681 21.0863 14.2731V14.2789C21.0805 14.3575 21.0741 14.4367 21.0741 14.5153C21.0741 14.8483 21.0683 15.182 21.0683 15.5086V15.5267C21.0805 16.2656 21.0625 17.0083 21.0625 17.7504V19.7983C21.0683 20.2286 21.0747 20.6583 21.0805 21.095C21.0803 21.2311 21.0923 21.367 21.1166 21.5009C21.2201 22.1278 21.5397 22.6987 22.0199 23.1148C22.5002 23.5308 23.1109 23.7657 23.7462 23.7787C23.7945 23.7787 23.8493 23.7845 23.8976 23.7845C24.9927 23.7903 26.0968 23.7903 27.1932 23.7845C27.2438 23.7857 27.2943 23.7838 27.3446 23.7787C27.9891 23.7667 28.6083 23.5263 29.092 23.1003C29.5757 22.6743 29.8925 22.0903 29.9858 21.4526C30.0021 21.3362 30.0122 21.219 30.0161 21.1015C30.0283 20.6776 30.0283 20.2531 30.0341 19.8292C30.0682 19.1142 30.0682 18.4294 30.0682 17.7388ZM28.2207 17.2299C28.2207 18.2232 28.2329 19.2172 28.2265 20.2106V20.7555C28.2288 20.8346 28.2247 20.9136 28.2143 20.992C28.1962 21.6162 27.8329 21.9189 27.1784 21.9247H23.9736C23.3255 21.9189 22.968 21.6155 22.9377 21.0036C22.9319 20.925 22.9255 20.8457 22.9255 20.7549V19.8595C22.9255 18.9145 22.9377 17.963 22.9313 17.018H26.4453V15.1762H22.9132V15.1047C22.8745 14.3882 23.1106 13.6838 23.5735 13.1355C23.6341 13.0629 23.7007 12.9901 23.7732 12.9171C23.9796 12.7081 24.1588 12.4739 24.3066 12.2201C24.3247 12.184 24.3427 12.1473 24.3614 12.117C24.3794 12.0745 24.3975 12.0384 24.4161 11.9959L24.4342 11.9598C24.4464 11.9237 24.4644 11.8954 24.4767 11.8567C24.4889 11.8323 24.4947 11.802 24.507 11.7782C24.5198 11.7427 24.53 11.7063 24.5372 11.6693C24.5441 11.654 24.5483 11.6377 24.5495 11.621L24.5675 11.5482C24.5745 11.5287 24.5786 11.5083 24.5798 11.4876C24.5856 11.4696 24.5856 11.4515 24.592 11.4329C24.5984 11.4142 24.5978 11.3968 24.6042 11.3781C24.6113 11.3442 24.6154 11.3097 24.6165 11.275C24.6238 11.2227 24.6279 11.17 24.6287 11.1172C24.6464 10.8658 24.6302 10.6132 24.5804 10.3661C24.4722 9.93596 24.2746 9.53343 24.0006 9.18465C23.8782 9.04315 23.7818 8.88111 23.7159 8.70602C23.6962 8.65929 23.6819 8.61044 23.6734 8.56043L23.6553 8.48764C23.6147 8.25889 23.6313 8.02364 23.7037 7.80287C23.705 7.79008 23.7092 7.77776 23.7159 7.76679C23.7281 7.71848 23.7462 7.67597 23.7584 7.62765C23.8228 7.45179 23.8873 7.27657 23.9465 7.09426C24.219 6.29483 24.4799 5.49475 24.7524 4.68887C25.0069 3.9313 25.2613 3.17438 25.546 2.33243C25.5583 2.35691 25.5641 2.38074 25.5763 2.40522C25.5886 2.38074 25.5943 2.35691 25.6066 2.33243C25.8913 3.17438 26.1458 3.93195 26.4002 4.68887C26.6792 5.51858 26.9452 6.35474 27.2377 7.17865C27.2924 7.32424 27.3407 7.47562 27.3955 7.62121C27.4124 7.6667 27.4266 7.71317 27.438 7.76035C27.4438 7.77259 27.4438 7.78483 27.4503 7.79643C27.5226 8.0172 27.5392 8.25245 27.4986 8.4812L27.4805 8.55399C27.4747 8.57203 27.4683 8.59651 27.4625 8.61454C27.4567 8.63258 27.4567 8.63259 27.4503 8.64482L27.4322 8.69958C27.3675 8.87353 27.271 9.03388 27.1475 9.17241C26.8746 9.52189 26.6772 9.92418 26.5677 10.3539C26.5179 10.6009 26.5017 10.8536 26.5194 11.105C26.5221 11.1618 26.5281 11.2183 26.5374 11.2744C26.5356 11.3058 26.5369 11.3373 26.5413 11.3684C26.5413 11.3807 26.5471 11.3929 26.5471 11.4045C26.5529 11.429 26.5529 11.4593 26.5593 11.4831C26.5605 11.5019 26.5646 11.5204 26.5716 11.5379C26.5774 11.5623 26.5838 11.5926 26.5896 11.6165C26.5954 11.6403 26.6077 11.677 26.6141 11.7073C26.6205 11.7376 26.6321 11.7678 26.6386 11.7923C26.6631 11.8567 26.6869 11.9257 26.7114 11.9856C26.7294 12.0339 26.7539 12.0764 26.7719 12.1247V12.1305C26.9229 12.4218 27.1185 12.6876 27.3517 12.9184C27.4252 12.9906 27.4941 13.0674 27.5578 13.1483V13.1483C27.9511 13.5385 28.177 14.0664 28.1879 14.6203C28.2062 14.7811 28.2122 14.943 28.2059 15.1047C28.1936 15.8075 28.1879 16.5046 28.1879 17.2067C28.2207 17.2061 28.2207 17.2183 28.2207 17.2306V17.2299Z" fill="#4E4E4E" stroke="#38474F" stroke-width="2" mask="url(#path-3-inside-3_1525_6230)"/>
</svg>
