<svg width="52" height="22" viewBox="0 0 52 22" fill="none" xmlns="http://www.w3.org/2000/svg">
<path d="M7.57448 4.29393C8.52426 4.37413 9.47403 3.81271 10.0692 3.09721V3.0951C10.6539 2.36483 11.0401 1.37707 10.9451 0.380859C10.0988 0.420961 9.06246 0.942281 8.46938 1.67466C7.92062 2.2994 7.45418 3.32938 7.57448 4.29393ZM5.22327 17.3628C6.27435 17.3227 6.68803 16.6726 7.95439 16.6726C9.2292 16.6726 9.60067 17.3628 10.7087 17.348C11.8569 17.3248 12.5766 16.3054 13.2795 15.2585C14.0773 14.0703 14.4107 12.92 14.4276 12.8567C14.4044 12.8334 12.2115 11.9808 12.1862 9.41004C12.1629 7.25722 13.9211 6.23569 13.9971 6.17237C13.0072 4.67806 11.4643 4.51765 10.9261 4.47755L10.9304 4.47966C9.55212 4.39735 8.3744 5.27325 7.72434 5.27325C7.0595 5.27325 6.06329 4.51765 4.96999 4.54087C3.55589 4.56619 2.24098 5.37878 1.52126 6.67047C0.0332823 9.26441 1.13291 13.0973 2.57234 15.21C3.27729 16.2526 4.1152 17.4029 5.22327 17.3628ZM30.8883 9.21797H33.0495C33.231 8.25343 34.109 7.61813 35.3142 7.61813C36.779 7.61813 37.6021 8.3083 37.6021 9.58522V10.4527L34.6114 10.6384C31.8338 10.8073 30.3289 11.9639 30.3289 13.9711C30.3374 15.9951 31.8866 17.3438 34.1112 17.3459C35.616 17.3459 37.009 16.5756 37.6401 15.3472H37.6865V17.2277H39.9027V9.43537C39.9027 7.17913 38.1213 5.71648 35.3839 5.71648C32.8427 5.71648 30.9621 7.19179 30.8883 9.21797ZM37.6105 12.9875C37.6105 14.4502 36.3822 15.4928 34.7612 15.4928C33.4864 15.4928 32.6717 14.866 32.6717 13.9183C32.6717 12.9284 33.4548 12.3607 34.9512 12.272L37.6105 12.1032V12.9875ZM18.8747 1.56913V17.2256H21.2723V11.8752H24.5881C27.6189 11.8752 29.7401 9.76251 29.7401 6.71057C29.7401 3.65863 27.6527 1.56913 24.6662 1.56913H18.8747ZM27.3044 6.71901C27.3044 8.69454 26.1183 9.83638 24.0267 9.83638H21.2723V3.61853H24.0351C26.1162 3.61853 27.3044 4.74138 27.3044 6.71901Z" fill="black"/>
<path d="M46.1664 15.1156L43.3487 5.87109H40.8477L44.9 17.2705L44.6784 17.9607C44.3133 19.132 43.7202 19.5922 42.6607 19.5922C42.4707 19.5922 42.1077 19.5689 41.9557 19.5521V21.4326C42.0992 21.4664 42.6944 21.4896 42.876 21.4896L42.8738 21.4854C45.2082 21.4854 46.3078 20.5778 47.2681 17.8382L51.4703 5.87109H49.0326L46.2149 15.1156H46.1664Z" fill="black"/>
</svg>
