<svg width="29" height="29" viewBox="0 0 29 29" fill="none" xmlns="http://www.w3.org/2000/svg">
<path d="M21.4757 1.95825C21.854 2.38812 21.9916 2.87532 21.9286 3.44275C21.8082 4.58336 22.1234 5.57494 22.9144 6.37164C23.6825 7.15115 24.6339 7.48359 25.7459 7.40335C26.8578 7.3231 27.3622 7.62688 27.7921 8.62993C28.3595 9.96541 28.692 11.3639 28.8123 12.8198C28.8811 13.6623 28.52 14.2928 27.752 14.6769C25.6026 15.7544 24.909 18.2362 26.2159 20.1563C26.7031 20.8728 26.6859 21.5663 26.1815 22.2885C25.2529 23.6355 24.1009 24.7532 22.7539 25.6817C22.1063 26.1288 21.3153 26.1173 20.6848 25.6645C18.7475 24.2545 16.1396 24.9767 15.0964 27.2063C14.7239 28.0088 14.0761 28.387 13.2107 28.3183C11.8121 28.2036 10.4709 27.8827 9.1813 27.3611C8.40179 27.0458 8.01775 26.3695 8.12092 25.5212C8.43616 22.9649 6.51605 21.0963 3.97118 21.4746C3.0885 21.6065 2.41215 21.2396 2.06252 20.4372C1.47789 19.0788 1.11108 17.6631 0.979255 16.1786C0.899012 15.2443 1.2773 14.6023 2.15424 14.2298C3.8279 13.5133 4.77934 11.8282 4.4641 10.1087C4.36666 9.56992 4.16033 9.077 3.82789 8.64712C3.19167 7.80457 3.18595 7.12249 3.83936 6.23408C4.77363 4.96738 5.90277 3.90129 7.20386 3.02434C7.8974 2.56007 8.64251 2.59446 9.31312 3.09885C11.2332 4.54897 13.8583 3.87263 14.9359 1.63727C15.3314 0.817641 15.9963 0.445081 16.8847 0.54252C18.2775 0.691544 19.613 1.05264 20.8797 1.61435C21.0917 1.70605 21.2751 1.84361 21.4757 1.95825ZM18.1342 17.6688C19.9626 15.8461 20.0199 12.8771 18.2603 11.106C16.4605 9.30053 13.503 9.32919 11.6574 11.1748C9.7946 13.0319 9.74299 15.9779 11.5313 17.7777C13.3196 19.5717 16.2714 19.5201 18.1342 17.6688Z" />
</svg>
