<svg xmlns="http://www.w3.org/2000/svg" width="158.581" height="13.872" viewBox="0 0 158.581 13.872"><defs><style>.a{fill:#313131;}</style></defs><path class="a" d="M199.532,50.2a1.417,1.417,0,0,1,1.427-1.428h.316a1.468,1.468,0,0,1,1.3.742l3.449,5.619,3.468-5.637a1.4,1.4,0,0,1,1.28-.723h.316a1.417,1.417,0,0,1,1.427,1.428V60.513a1.419,1.419,0,1,1-2.837,0V54.04l-2.5,3.858a1.335,1.335,0,0,1-2.373,0l-2.466-3.8V60.55a1.393,1.393,0,0,1-1.409,1.391,1.377,1.377,0,0,1-1.391-1.391Z" transform="translate(-199.532 -48.18)"/><path class="a" d="M226.811,63.347a4.972,4.972,0,0,1-5.193-5.137v-.037A4.949,4.949,0,0,1,226.533,53a4.7,4.7,0,0,1,4.784,4.784A1.286,1.286,0,0,1,230,59.137h-5.582a2.3,2.3,0,0,0,2.429,1.947,3.254,3.254,0,0,0,2-.667,1.051,1.051,0,0,1,.686-.223,1.078,1.078,0,0,1,1.094,1.113,1.106,1.106,0,0,1-.371.834A5.148,5.148,0,0,1,226.811,63.347Zm1.817-5.971a2.132,2.132,0,0,0-2.1-2.115,2.216,2.216,0,0,0-2.151,2.115Z" transform="translate(-206.299 -49.475)"/><path class="a" d="M248.5,60.269a1.409,1.409,0,1,1-2.819,0v-.13a3.652,3.652,0,0,1-3.1,1.613c-2.318,0-4.525-1.817-4.525-5.137v-.037c0-3.32,2.17-5.137,4.525-5.137a3.816,3.816,0,0,1,3.1,1.484v-3.6a1.409,1.409,0,1,1,2.819,0Zm-7.622-3.691v.037a2.439,2.439,0,1,0,4.841,0v-.037a2.439,2.439,0,1,0-4.841,0Z" transform="translate(-211.338 -47.918)"/><path class="a" d="M256.7,49.262a1.6,1.6,0,0,1,3.152,0V49.3a1.6,1.6,0,0,1-3.152,0Zm.166,3.672a1.41,1.41,0,1,1,2.819,0v7.344a1.41,1.41,0,0,1-2.819,0Z" transform="translate(-217.049 -47.926)"/><path class="a" d="M264.133,58.21v-.037A5.1,5.1,0,0,1,269.344,53a4.974,4.974,0,0,1,3.394,1.113,1.248,1.248,0,0,1,.445.964,1.266,1.266,0,0,1-1.28,1.261,1.333,1.333,0,0,1-.816-.277,2.684,2.684,0,0,0-1.762-.631,2.54,2.54,0,0,0-2.41,2.708v.037a2.547,2.547,0,0,0,2.522,2.745,2.857,2.857,0,0,0,1.855-.687,1.312,1.312,0,0,1,.76-.259,1.2,1.2,0,0,1,.779,2.1,4.893,4.893,0,0,1-3.523,1.279A5.075,5.075,0,0,1,264.133,58.21Z" transform="translate(-219.327 -49.475)"/><path class="a" d="M279,58.21v-.037a5.383,5.383,0,0,1,10.756-.037v.037A5.383,5.383,0,0,1,279,58.21Zm7.974,0v-.037a2.641,2.641,0,0,0-2.615-2.745,2.547,2.547,0,0,0-2.578,2.708v.037a2.641,2.641,0,0,0,2.616,2.745A2.547,2.547,0,0,0,286.974,58.21Z" transform="translate(-223.882 -49.475)"/><path class="a" d="M296.838,62.195a1.122,1.122,0,0,1-.538-.965,1.093,1.093,0,0,1,1.113-1.113,1.079,1.079,0,0,1,.556.148,5.234,5.234,0,0,0,2.689.891c.816,0,1.187-.3,1.187-.742v-.037c0-.612-.965-.816-2.059-1.149-1.391-.409-2.967-1.058-2.967-2.986V56.2c0-2.021,1.632-3.152,3.634-3.152a6.991,6.991,0,0,1,3.079.76,1.148,1.148,0,0,1,.667,1.057,1.108,1.108,0,0,1-1.131,1.113,1.025,1.025,0,0,1-.519-.13,5.3,5.3,0,0,0-2.152-.63c-.686,0-1.038.3-1.038.686v.037c0,.556.946.816,2.021,1.187,1.391.464,3,1.131,3,2.949v.037c0,2.207-1.651,3.209-3.8,3.209A6.925,6.925,0,0,1,296.838,62.195Z" transform="translate(-229.183 -49.491)"/><g transform="translate(80.752)"><path class="a" d="M315.958,54.892v-.038a6.757,6.757,0,0,1,6.783-6.936,6.933,6.933,0,0,1,4.789,1.744.83.83,0,0,1,.307.613.78.78,0,0,1-.767.748.909.909,0,0,1-.5-.173,5.488,5.488,0,0,0-3.85-1.533,5.259,5.259,0,0,0-5.194,5.5v.038a5.293,5.293,0,0,0,5.194,5.538,5.5,5.5,0,0,0,3.985-1.629.692.692,0,0,1,.479-.211.754.754,0,0,1,.729.728.717.717,0,0,1-.25.537,6.869,6.869,0,0,1-4.981,1.973A6.69,6.69,0,0,1,315.958,54.892Z" transform="translate(-315.958 -47.918)"/><path class="a" d="M335.693,58.213v-.038a5.164,5.164,0,0,1,10.328-.038v.038a5.144,5.144,0,0,1-5.194,5.173A5.075,5.075,0,0,1,335.693,58.213Zm8.813,0v-.038a3.748,3.748,0,0,0-3.679-3.871,3.657,3.657,0,0,0-3.621,3.833v.038a3.716,3.716,0,0,0,3.66,3.851A3.655,3.655,0,0,0,344.506,58.213Z" transform="translate(-322.005 -49.475)"/><path class="a" d="M354.433,53.863a.738.738,0,1,1,1.476,0v1.073A3.748,3.748,0,0,1,359.3,53a3.618,3.618,0,0,1,3.795,3.966v5.5a.738.738,0,1,1-1.476,0V57.331c0-1.839-1-2.989-2.74-2.989a2.914,2.914,0,0,0-2.969,3.1v5.02a.722.722,0,0,1-.729.747.736.736,0,0,1-.747-.747Z" transform="translate(-327.747 -49.475)"/><path class="a" d="M371.458,53.863a.745.745,0,0,1,.728-.748.737.737,0,0,1,.748.748v1.073A3.752,3.752,0,0,1,376.326,53a3.618,3.618,0,0,1,3.794,3.966v5.5a.738.738,0,1,1-1.476,0V57.331c0-1.839-1-2.989-2.739-2.989a2.915,2.915,0,0,0-2.971,3.1v5.02a.72.72,0,0,1-.729.747.736.736,0,0,1-.747-.747Z" transform="translate(-332.964 -49.475)"/><path class="a" d="M392.544,63.347a4.924,4.924,0,0,1-4.943-5.154v-.038A4.886,4.886,0,0,1,392.353,53c2.931,0,4.6,2.395,4.6,5.019a.687.687,0,0,1-.689.69H389.1a3.459,3.459,0,0,0,3.487,3.353,4.047,4.047,0,0,0,2.855-1.15.637.637,0,0,1,1.073.461.635.635,0,0,1-.23.479A5.038,5.038,0,0,1,392.544,63.347Zm2.933-5.728c-.155-1.8-1.189-3.372-3.162-3.372a3.415,3.415,0,0,0-3.219,3.372Z" transform="translate(-337.91 -49.475)"/><path class="a" d="M403.963,58.213v-.038a5.149,5.149,0,0,1,8.718-3.737.693.693,0,0,1,.231.517.708.708,0,0,1-.71.709.768.768,0,0,1-.479-.172,3.818,3.818,0,0,0-2.7-1.188,3.655,3.655,0,0,0-3.545,3.833v.038a3.7,3.7,0,0,0,3.64,3.851,3.958,3.958,0,0,0,2.76-1.208.584.584,0,0,1,.421-.191.693.693,0,0,1,.671.671.673.673,0,0,1-.192.459,4.987,4.987,0,0,1-3.736,1.59A5.086,5.086,0,0,1,403.963,58.213Z" transform="translate(-342.924 -49.475)"/><path class="a" d="M420.732,59.223V53.245h-.8a.67.67,0,0,1-.651-.651.658.658,0,0,1,.651-.652h.8V49.6a.731.731,0,0,1,.727-.747.761.761,0,0,1,.748.747v2.337h2.568a.677.677,0,0,1,.671.652.663.663,0,0,1-.671.651h-2.568v5.786a1.466,1.466,0,0,0,1.667,1.649,4.15,4.15,0,0,0,.9-.135.637.637,0,0,1,.632.632.615.615,0,0,1-.421.575,3.72,3.72,0,0,1-1.456.268A2.522,2.522,0,0,1,420.732,59.223Z" transform="translate(-347.616 -48.206)"/></g></svg>