<svg width="29" height="39" viewBox="0 0 29 39" fill="none" xmlns="http://www.w3.org/2000/svg">
<path d="M14.5 24.375C18.6259 24.375 21.9697 21.1018 21.9697 17.0625V7.3125C21.9697 3.27321 18.6259 0 14.5 0C10.3741 0 7.0303 3.27321 7.0303 7.3125V17.0625C7.0303 21.1018 10.3741 24.375 14.5 24.375ZM29 16.9754C29 16.7839 28.8418 16.6272 28.6485 16.6272H26.0121C25.8188 16.6272 25.6606 16.7839 25.6606 16.9754C25.6606 23.0823 20.6647 28.0313 14.5 28.0313C8.3353 28.0313 3.33939 23.0823 3.33939 16.9754C3.33939 16.7839 3.18121 16.6272 2.98788 16.6272H0.351515C0.158182 16.6272 0 16.7839 0 16.9754C0 24.3184 5.56273 30.3773 12.7424 31.2348V35.692H6.35803C5.75606 35.692 5.27273 36.3144 5.27273 37.0848V38.6518C5.27273 38.8433 5.39576 39 5.54515 39H23.4548C23.6042 39 23.7273 38.8433 23.7273 38.6518V37.0848C23.7273 36.3144 23.2439 35.692 22.642 35.692H16.0818V31.2566C23.345 30.4731 29 24.3794 29 16.9754Z" fill="#D26E25"/>
</svg>
