<svg width="14" height="14" viewBox="0 0 14 14" fill="none" xmlns="http://www.w3.org/2000/svg">
<circle cx="7.14795" cy="7.21045" r="6.64404" fill="#ECECEC"/>
<path d="M6.50321 10.2494C6.50321 10.4157 6.56927 10.5751 6.68685 10.6927C6.80443 10.8103 6.96391 10.8763 7.13019 10.8763C7.29648 10.8763 7.45595 10.8103 7.57354 10.6927C7.69112 10.5751 7.75717 10.4157 7.75717 10.2494C7.75717 10.167 7.74096 10.0855 7.70945 10.0094C7.67794 9.93336 7.63176 9.86424 7.57354 9.80602C7.51532 9.7478 7.4462 9.70162 7.37013 9.67011C7.29406 9.6386 7.21253 9.62239 7.13019 9.62239C7.04786 9.62239 6.96633 9.6386 6.89026 9.67011C6.81419 9.70162 6.74507 9.7478 6.68685 9.80602C6.62863 9.86424 6.58245 9.93336 6.55094 10.0094C6.51943 10.0855 6.50321 10.167 6.50321 10.2494ZM8.23502 7.88266C9.11706 7.3969 9.56507 6.69261 9.56507 5.78988C9.56507 4.23947 8.34215 3.54492 7.13019 3.54492C5.94988 3.54492 4.69531 4.40261 4.69531 5.99259C4.69531 6.15403 4.75945 6.30886 4.8736 6.42302C4.98776 6.53717 5.14259 6.60131 5.30403 6.60131C5.46548 6.60131 5.62031 6.53717 5.73446 6.42302C5.84862 6.30886 5.91275 6.15403 5.91275 5.99259C5.91275 5.14707 6.544 4.76236 7.13019 4.76236C7.58491 4.76236 8.34763 4.89567 8.34763 5.78988C8.34763 6.10703 8.26424 6.47713 7.64821 6.81679C7.22941 7.04628 6.52147 7.64222 6.52147 8.41468C6.52147 8.57613 6.58561 8.73096 6.69976 8.84511C6.81392 8.95927 6.96875 9.0234 7.13019 9.0234C7.29164 9.0234 7.44647 8.95927 7.56062 8.84511C7.67478 8.73096 7.73891 8.57613 7.73891 8.41468C7.73891 8.30146 7.97936 8.02328 8.23502 7.88266Z" fill="#4E4E4E"/>
</svg>
