<svg width="100" height="100" viewBox="0 0 100 100" fill="none" xmlns="http://www.w3.org/2000/svg">
<circle cx="50" cy="50" r="50" fill="#EEC790"/>
<path d="M40.4135 72.5208C40.9986 74.476 42.1988 76.1904 43.8357 77.4092C45.4727 78.628 47.4591 79.2863 49.5 79.2863C51.5409 79.2863 53.5273 78.628 55.1643 77.4092C56.8012 76.1904 58.0014 74.476 58.5865 72.5208H40.4135ZM25.125 69.8125H73.875V61.6875L68.4583 53.5625V40.0208C68.4583 37.5312 67.968 35.0659 67.0152 32.7658C66.0625 30.4657 64.666 28.3757 62.9056 26.6153C61.1451 24.8548 59.0552 23.4584 56.755 22.5056C54.4549 21.5529 51.9896 21.0625 49.5 21.0625C47.0104 21.0625 44.5451 21.5529 42.245 22.5056C39.9448 23.4584 37.8549 24.8548 36.0944 26.6153C34.334 28.3757 32.9375 30.4657 31.9848 32.7658C31.032 35.0659 30.5417 37.5312 30.5417 40.0208V53.5625L25.125 61.6875V69.8125Z" fill="white"/>
</svg>
