<svg width="18" height="23" viewBox="0 0 18 23" fill="none" xmlns="http://www.w3.org/2000/svg">
<path d="M16.3035 8.55728L15.942 19.4977C15.9113 20.4347 15.5165 21.3228 14.8417 21.9736C14.1668 22.6243 13.2649 22.9864 12.3275 22.9831H5.45973C4.52285 22.9865 3.62149 22.6248 2.94673 21.9749C2.27197 21.3249 1.87685 20.4377 1.84514 19.5014L1.48368 8.55728C1.47578 8.31762 1.5634 8.08463 1.72727 7.90957C1.89115 7.73452 2.11785 7.63173 2.35751 7.62382C2.59717 7.61591 2.83016 7.70353 3.00522 7.8674C3.18028 8.03128 3.28307 8.25798 3.29098 8.49764L3.65244 19.4408C3.67044 19.908 3.86877 20.35 4.20577 20.674C4.54277 20.9981 4.99223 21.1789 5.45973 21.1785H12.3275C12.7956 21.1788 13.2455 20.9975 13.5826 20.6727C13.9197 20.3479 14.1177 19.905 14.1348 19.4372L14.4962 8.49764C14.5041 8.25798 14.6069 8.03128 14.782 7.8674C14.957 7.70353 15.19 7.61591 15.4297 7.62382C15.6693 7.63173 15.896 7.73452 16.0599 7.90957C16.2238 8.08463 16.3114 8.31762 16.3035 8.55728ZM17.499 4.91649C17.499 5.15615 17.4038 5.386 17.2344 5.55546C17.0649 5.72493 16.835 5.82014 16.5954 5.82014H1.19271C0.953048 5.82014 0.723201 5.72493 0.553735 5.55546C0.384268 5.386 0.289062 5.15615 0.289062 4.91649C0.289062 4.67682 0.384268 4.44698 0.553735 4.27751C0.723201 4.10805 0.953048 4.01284 1.19271 4.01284H3.99402C4.28034 4.01361 4.5567 3.90783 4.76933 3.71608C4.98196 3.52433 5.11564 3.26033 5.14436 2.97545C5.21105 2.30719 5.52413 1.68769 6.02261 1.23765C6.5211 0.787616 7.16927 0.539278 7.84085 0.541025H9.94635C10.6179 0.539278 11.2661 0.787616 11.7646 1.23765C12.2631 1.68769 12.5761 2.30719 12.6428 2.97545C12.6716 3.26033 12.8052 3.52433 13.0179 3.71608C13.2305 3.90783 13.5069 4.01361 13.7932 4.01284H16.5945C16.8341 4.01284 17.064 4.10805 17.2335 4.27751C17.4029 4.44698 17.4981 4.67682 17.4981 4.91649H17.499ZM6.71309 4.01284H11.0759C10.9572 3.74151 10.8795 3.45401 10.8455 3.1598C10.8231 2.93705 10.7188 2.73055 10.5529 2.5803C10.3869 2.43004 10.1711 2.34673 9.94725 2.34651H7.84175C7.61789 2.34673 7.40207 2.43004 7.23613 2.5803C7.07018 2.73055 6.96591 2.93705 6.94352 3.1598C6.90921 3.45406 6.83125 3.74156 6.71219 4.01284H6.71309ZM7.62307 17.704V10.0094C7.62307 9.76978 7.52786 9.53994 7.3584 9.37047C7.18893 9.201 6.95908 9.1058 6.71942 9.1058C6.47976 9.1058 6.24991 9.201 6.08044 9.37047C5.91098 9.53994 5.81577 9.76978 5.81577 10.0094V17.7076C5.81577 17.9473 5.91098 18.1771 6.08044 18.3466C6.24991 18.5161 6.47976 18.6113 6.71942 18.6113C6.95908 18.6113 7.18893 18.5161 7.3584 18.3466C7.52786 18.1771 7.62307 17.9473 7.62307 17.7076V17.704ZM11.9732 17.704V10.0094C11.9732 9.76978 11.878 9.53994 11.7086 9.37047C11.5391 9.201 11.3092 9.1058 11.0696 9.1058C10.8299 9.1058 10.6001 9.201 10.4306 9.37047C10.2611 9.53994 10.1659 9.76978 10.1659 10.0094V17.7076C10.1659 17.9473 10.2611 18.1771 10.4306 18.3466C10.6001 18.5161 10.8299 18.6113 11.0696 18.6113C11.3092 18.6113 11.5391 18.5161 11.7086 18.3466C11.878 18.1771 11.9732 17.9473 11.9732 17.7076V17.704Z" fill="#8B8B8B"/>
</svg>
