<svg xmlns="http://www.w3.org/2000/svg" width="27" height="27" viewBox="0 0 27 27" fill="none">
  <path d="M10.6225 4.97109V5.29609H16.0962V4.97109C16.0962 4.28153 15.8079 3.62021 15.2946 3.13262C14.7814 2.64502 14.0852 2.37109 13.3594 2.37109C12.6335 2.37109 11.9374 2.64502 11.4241 3.13262C10.9109 3.62021 10.6225 4.28153 10.6225 4.97109ZM8.91201 5.29609V4.97109C8.91201 3.85055 9.38057 2.77591 10.2146 1.98357C11.0487 1.19123 12.1799 0.746094 13.3594 0.746094C14.5389 0.746094 15.6701 1.19123 16.5041 1.98357C17.3382 2.77591 17.8067 3.85055 17.8067 4.97109V5.29609H25.5041C25.7309 5.29609 25.9485 5.3817 26.1089 5.53407C26.2693 5.68644 26.3594 5.89311 26.3594 6.10859C26.3594 6.32408 26.2693 6.53074 26.1089 6.68312C25.9485 6.83549 25.7309 6.92109 25.5041 6.92109H23.5083L22.1398 22.4275C22.0359 23.605 21.47 24.7025 20.5544 25.5024C19.6388 26.3023 18.4403 26.7462 17.1964 26.7461H9.52232C8.27856 26.746 7.08022 26.302 6.16477 25.5022C5.24931 24.7023 4.68355 23.6049 4.57959 22.4275L3.21116 6.92109H1.21464C0.987808 6.92109 0.770269 6.83549 0.609876 6.68312C0.449483 6.53074 0.359375 6.32408 0.359375 6.10859C0.359375 5.89311 0.449483 5.68644 0.609876 5.53407C0.770269 5.3817 0.987808 5.29609 1.21464 5.29609H8.91201ZM11.6488 11.3086C11.6488 11.2019 11.6267 11.0962 11.5837 10.9977C11.5408 10.8991 11.4778 10.8095 11.3983 10.7341C11.3189 10.6586 11.2246 10.5988 11.1209 10.5579C11.0171 10.5171 10.9059 10.4961 10.7936 10.4961C10.6813 10.4961 10.5701 10.5171 10.4663 10.5579C10.3625 10.5988 10.2682 10.6586 10.1888 10.7341C10.1094 10.8095 10.0464 10.8991 10.0034 10.9977C9.96044 11.0962 9.93832 11.2019 9.93832 11.3086V20.7336C9.93832 20.8403 9.96044 20.9459 10.0034 21.0445C10.0464 21.1431 10.1094 21.2327 10.1888 21.3081C10.2682 21.3836 10.3625 21.4434 10.4663 21.4842C10.5701 21.5251 10.6813 21.5461 10.7936 21.5461C10.9059 21.5461 11.0171 21.5251 11.1209 21.4842C11.2246 21.4434 11.3189 21.3836 11.3983 21.3081C11.4778 21.2327 11.5408 21.1431 11.5837 21.0445C11.6267 20.9459 11.6488 20.8403 11.6488 20.7336V11.3086ZM15.9252 10.4961C15.4531 10.4961 15.0699 10.8601 15.0699 11.3086V20.7336C15.0699 20.9491 15.16 21.1557 15.3204 21.3081C15.4808 21.4605 15.6983 21.5461 15.9252 21.5461C16.152 21.5461 16.3695 21.4605 16.5299 21.3081C16.6903 21.1557 16.7804 20.9491 16.7804 20.7336V11.3086C16.7804 10.8601 16.3973 10.4961 15.9252 10.4961Z" fill="#4055D2"/>
</svg>