<svg width="35" height="35" viewBox="0 0 35 35" fill="none" xmlns="http://www.w3.org/2000/svg">
<path d="M14 7H21C21 6.07174 20.6313 5.1815 19.9749 4.52513C19.3185 3.86875 18.4283 3.5 17.5 3.5C16.5717 3.5 15.6815 3.86875 15.0251 4.52513C14.3687 5.1815 14 6.07174 14 7ZM10.5 7C10.5 5.14348 11.2375 3.36301 12.5503 2.05025C13.863 0.737498 15.6435 0 17.5 0C19.3565 0 21.137 0.737498 22.4497 2.05025C23.7625 3.36301 24.5 5.14348 24.5 7H33.25C33.7141 7 34.1592 7.18437 34.4874 7.51256C34.8156 7.84075 35 8.28587 35 8.75C35 9.21413 34.8156 9.65925 34.4874 9.98744C34.1592 10.3156 33.7141 10.5 33.25 10.5H31.7065L30.156 28.595C30.0069 30.3423 29.2075 31.97 27.9157 33.1561C26.624 34.3422 24.9342 35.0002 23.1805 35H11.8195C10.0658 35.0002 8.37598 34.3422 7.08426 33.1561C5.79254 31.97 4.99306 30.3423 4.844 28.595L3.2935 10.5H1.75C1.28587 10.5 0.840752 10.3156 0.512563 9.98744C0.184374 9.65925 0 9.21413 0 8.75C0 8.28587 0.184374 7.84075 0.512563 7.51256C0.840752 7.18437 1.28587 7 1.75 7H10.5ZM22.75 17.5C22.75 17.0359 22.5656 16.5908 22.2374 16.2626C21.9092 15.9344 21.4641 15.75 21 15.75C20.5359 15.75 20.0908 15.9344 19.7626 16.2626C19.4344 16.5908 19.25 17.0359 19.25 17.5V24.5C19.25 24.9641 19.4344 25.4093 19.7626 25.7374C20.0908 26.0656 20.5359 26.25 21 26.25C21.4641 26.25 21.9092 26.0656 22.2374 25.7374C22.5656 25.4093 22.75 24.9641 22.75 24.5V17.5ZM14 15.75C13.5359 15.75 13.0908 15.9344 12.7626 16.2626C12.4344 16.5908 12.25 17.0359 12.25 17.5V24.5C12.25 24.9641 12.4344 25.4093 12.7626 25.7374C13.0908 26.0656 13.5359 26.25 14 26.25C14.4641 26.25 14.9092 26.0656 15.2374 25.7374C15.5656 25.4093 15.75 24.9641 15.75 24.5V17.5C15.75 17.0359 15.5656 16.5908 15.2374 16.2626C14.9092 15.9344 14.4641 15.75 14 15.75Z" fill="white"/>
</svg>
