<svg width="22" height="22" viewBox="0 0 22 22" fill="none" xmlns="http://www.w3.org/2000/svg">
<path d="M11.1283 0.828125C5.34128 0.828125 0.644531 5.5139 0.644531 11.2874C0.644531 17.061 5.34128 21.7467 11.1283 21.7467C16.9154 21.7467 21.6121 17.061 21.6121 11.2874C21.6121 5.5139 16.9154 0.828125 11.1283 0.828125ZM2.74129 11.2874C2.74129 6.66442 6.49449 2.91999 11.1283 2.91999C13.0678 2.91999 14.8501 3.57892 16.2654 4.68761L4.51306 16.4125C3.40177 15.0005 2.74129 13.2224 2.74129 11.2874ZM11.1283 19.6549C9.18883 19.6549 7.40659 18.9959 5.99127 17.8873L17.7436 6.16237C18.8549 7.57438 19.5154 9.35246 19.5154 11.2874C19.5154 15.9104 15.7622 19.6549 11.1283 19.6549Z" />
</svg>
