<svg width="65" height="72" viewBox="0 0 65 72" fill="none" xmlns="http://www.w3.org/2000/svg">
<rect x="5" y="1" width="56" height="70" rx="3" fill="white" stroke="#D26E25" stroke-width="2"/>
<path d="M31.6113 49H25.9336L25.9688 44.2539H31.6113C32.7832 44.2539 33.7734 43.9727 34.582 43.4102C35.4023 42.8477 36.0234 42.0098 36.4453 40.8965C36.8789 39.7715 37.0957 38.3887 37.0957 36.748V35.6406C37.0957 34.4102 36.9727 33.332 36.7266 32.4062C36.4922 31.4688 36.1406 30.6895 35.6719 30.0684C35.2031 29.4355 34.6172 28.9609 33.9141 28.6445C33.2227 28.3281 32.4258 28.1699 31.5234 28.1699H25.8281V23.4062H31.5234C33.2578 23.4062 34.8457 23.7051 36.2871 24.3027C37.7402 24.8887 38.9941 25.7324 40.0488 26.834C41.1152 27.9238 41.9355 29.2188 42.5098 30.7188C43.0957 32.207 43.3887 33.8594 43.3887 35.6758V36.748C43.3887 38.5527 43.0957 40.2051 42.5098 41.7051C41.9355 43.2051 41.1211 44.5 40.0664 45.5898C39.0117 46.6797 37.7637 47.5234 36.3223 48.1211C34.8926 48.707 33.3223 49 31.6113 49ZM29.4668 23.4062V49H23.2969V23.4062H29.4668Z" fill="#D26E25"/>
<path d="M60 15C60 13.8954 60.8954 13 62 13H63C64.1046 13 65 13.8954 65 15V21C65 22.1046 64.1046 23 63 23H62C60.8954 23 60 22.1046 60 21V15Z" fill="#D26E25"/>
<path d="M60 27C60 25.8954 60.8954 25 62 25H63C64.1046 25 65 25.8954 65 27V33C65 34.1046 64.1046 35 63 35H62C60.8954 35 60 34.1046 60 33V27Z" fill="#D26E25"/>
<g style="mix-blend-mode:soft-light">
<path d="M60 27C60 25.8954 60.8954 25 62 25H63C64.1046 25 65 25.8954 65 27V33C65 34.1046 64.1046 35 63 35H62C60.8954 35 60 34.1046 60 33V27Z" fill="white"/>
</g>
<path d="M60 39C60 37.8954 60.8954 37 62 37H63C64.1046 37 65 37.8954 65 39V45C65 46.1046 64.1046 47 63 47H62C60.8954 47 60 46.1046 60 45V39Z" fill="#D26E25"/>
<path d="M60 52C60 50.8954 60.8954 50 62 50H63C64.1046 50 65 50.8954 65 52V58C65 59.1046 64.1046 60 63 60H62C60.8954 60 60 59.1046 60 58V52Z" fill="#D26E25"/>
<g style="mix-blend-mode:soft-light">
<path d="M60 52C60 50.8954 60.8954 50 62 50H63C64.1046 50 65 50.8954 65 52V58C65 59.1046 64.1046 60 63 60H62C60.8954 60 60 59.1046 60 58V52Z" fill="white"/>
</g>
<path d="M11.0548 12.77H2.17471C0.996743 12.77 0 13.7668 0 14.9447C0 16.1227 0.996743 17.1194 2.17471 17.1194H11.0548C12.2327 17.1194 13.2295 16.1227 13.2295 14.9447C13.2295 13.7668 12.2327 12.77 11.0548 12.77ZM11.0548 55.1768H2.17471C0.996743 55.1768 0 56.1736 0 57.3516C0 58.5295 0.996743 59.5263 2.17471 59.5263H11.0548C12.2327 59.5263 13.2295 58.5295 13.2295 57.3516C13.2295 56.1736 12.2327 55.1768 11.0548 55.1768Z" fill="#D26E25"/>
<path d="M2.17471 33.9736H11.0548C12.2327 33.9736 13.2295 34.9704 13.2295 36.1483C13.2295 37.3263 12.2327 38.3231 11.0548 38.3231H2.17471C0.996743 38.3231 0 37.3263 0 36.1483C0 34.9704 0.996743 33.9736 2.17471 33.9736Z" fill="#D26E25"/>
</svg>
