<svg width="79" height="73" viewBox="0 0 79 73" fill="none" xmlns="http://www.w3.org/2000/svg">
<g clip-path="url(#clip0_1084_12326)">
<path d="M15.603 8.4918C15.0493 8.18852 14.3484 8.39396 14.0588 8.9459C12.3329 12.238 7.33565 23.8607 13.0897 39.3159C19.9256 57.677 35.8473 70.8531 35.8473 70.8531C35.8473 70.8531 36.9956 55.5579 35.2174 44.8275C33.5009 34.4701 24.9414 13.6047 15.6028 8.49208L15.603 8.4918Z" fill="#D26E25"/>
<path d="M62.9314 8.4918C63.4852 8.18852 64.1861 8.39396 64.4756 8.9459C66.2016 12.238 71.1988 23.8607 65.4447 39.3159C58.6089 57.677 42.6871 70.8531 42.6871 70.8531C42.6871 70.8531 41.5386 55.5579 43.317 44.8275C45.0336 34.4701 53.5931 13.6047 62.9317 8.49208L62.9314 8.4918Z" fill="#D26E25"/>
<path d="M39.4246 71.764C10.4428 72.1369 27.9381 17.0609 37.9044 0.808907C38.5289 -0.209663 39.656 -0.280466 40.3686 0.677056C50.8615 14.7787 70.6607 71.362 39.4246 71.764Z" fill="#D26E25"/>
<g style="mix-blend-mode:soft-light">
<path d="M39.489 71.7644C14.5613 72.0852 29.6095 24.7133 38.1813 10.7349C38.7184 9.85878 39.6881 9.79774 40.3009 10.6215C49.326 22.7504 66.3555 71.4184 39.489 71.7644Z" fill="white"/>
</g>
<path d="M38.1837 10.1984C33.0403 20.9555 31.1418 23.6175 27.3504 39.7204C23.559 55.8234 26.648 60.8105 36.5587 71.3895C38.4964 71.7183 39.4292 71.7155 40.8921 71.3895C51.5818 63.6814 56.4772 58.741 52.8087 42.941C49.7898 30.023 47.934 22.544 40.3504 10.1984C39.4315 9.05602 38.9543 9.13138 38.1837 10.1984Z" fill="white"/>
<path d="M0.302157 42.8438C0.0924766 41.9655 0.867866 41.1666 1.77677 41.3229C4.38223 41.7712 9.88869 43.5507 19.2139 50.2425C33.0754 60.1896 37.0496 72.2204 37.0496 72.2204C37.0496 72.2204 9.30045 80.5351 0.302157 42.8438Z" fill="#D26E25"/>
<g style="mix-blend-mode:soft-light">
<path d="M7.89657 49.0759C7.73025 48.379 8.34531 47.7451 9.0665 47.8691C11.1333 48.2246 15.5021 49.6367 22.9003 54.9456C33.8972 62.8372 37.0501 72.3817 37.0501 72.3817C37.0501 72.3817 15.0354 78.9782 7.89657 49.0759Z" fill="white"/>
</g>
<path d="M78.2328 42.8438C78.4425 41.9655 77.6671 41.1666 76.7582 41.3229C74.1527 41.7712 68.6462 43.5507 59.321 50.2425C45.4596 60.1896 41.4854 72.2204 41.4854 72.2204C41.4854 72.2204 69.2345 80.5351 78.2328 42.8438Z" fill="#D26E25"/>
<g style="mix-blend-mode:soft-light">
<path d="M60.8442 14.8081C61.3417 14.5358 61.9719 14.72 62.2318 15.2162C63.7828 18.1746 68.274 28.6204 63.1027 42.5099C56.9592 59.0111 42.6502 70.8526 42.6502 70.8526C42.6502 70.8526 41.618 57.1063 43.2162 47.4631C44.7587 38.1546 52.4512 19.4028 60.8442 14.8081Z" fill="white"/>
</g>
<g style="mix-blend-mode:soft-light">
<path d="M17.441 12.7261C16.9395 12.4515 16.3047 12.6375 16.0426 13.1373C14.4795 16.1188 9.95357 26.6454 15.1648 40.6428C21.3559 57.2722 35.7759 69.2054 35.7759 69.2054C35.7759 69.2054 36.8161 55.3527 35.2054 45.6345C33.6509 36.2538 25.8987 17.3565 17.4407 12.7261H17.441Z" fill="white"/>
</g>
<g style="mix-blend-mode:soft-light">
<path d="M71.3001 48.4597C71.4664 47.7628 70.8513 47.1289 70.1301 47.2529C68.0633 47.6083 63.6945 49.0205 56.2964 54.3294C45.2994 62.2209 42.1465 71.7655 42.1465 71.7655C42.1465 71.7655 64.1612 78.362 71.3001 48.4597Z" fill="white"/>
</g>
</g>
<defs>
<clipPath id="clip0_1084_12326">
<rect width="78" height="73" fill="white" transform="translate(0.267578)"/>
</clipPath>
</defs>
</svg>
