<svg width="31" height="35" viewBox="0 0 31 35" fill="none" xmlns="http://www.w3.org/2000/svg">
<g id="Group">
<path id="Vector" d="M3.12695 14.9941H27.1823" stroke="#485DDA" stroke-width="3" stroke-linecap="round" stroke-linejoin="round"/>
<path id="Vector_2" d="M21.1396 20.2637H21.1518" stroke="#485DDA" stroke-width="3" stroke-linecap="round" stroke-linejoin="round"/>
<path id="Vector_3" d="M15.1533 20.2637H15.1655" stroke="#485DDA" stroke-width="3" stroke-linecap="round" stroke-linejoin="round"/>
<path id="Vector_4" d="M9.15332 20.2637H9.16547" stroke="#485DDA" stroke-width="3" stroke-linecap="round" stroke-linejoin="round"/>
<path id="Vector_5" d="M21.1396 25.5078H21.1518" stroke="#485DDA" stroke-width="3" stroke-linecap="round" stroke-linejoin="round"/>
<path id="Vector_6" d="M15.1533 25.5078H15.1655" stroke="#485DDA" stroke-width="3" stroke-linecap="round" stroke-linejoin="round"/>
<path id="Vector_7" d="M9.15332 25.5078H9.16547" stroke="#485DDA" stroke-width="3" stroke-linecap="round" stroke-linejoin="round"/>
<path id="Vector_8" d="M21 2V9" stroke="#485DDA" stroke-width="3" stroke-linecap="round" stroke-linejoin="round"/>
<path id="Vector_9" d="M10 2V9" stroke="#485DDA" stroke-width="3" stroke-linecap="round" stroke-linejoin="round"/>
<path id="Vector_10" d="M20.8665 5.63086H9.43892C7.18703 5.63086 5.16603 6.26105 3.69973 7.65492C2.22183 9.05982 1.5 11.0574 1.5 13.3971V25.6106C1.5 27.9751 2.21723 29.9974 3.68924 31.4241C5.1538 32.8435 7.17803 33.4917 9.43892 33.4917H20.8539C23.1133 33.4917 25.1354 32.8576 26.6002 31.459C28.0757 30.0503 28.7929 28.0501 28.7929 25.7127V13.3991C28.7996 11.0617 28.0859 9.06302 26.6103 7.65637C25.1459 6.26037 23.1232 5.63086 20.8665 5.63086Z" stroke="#485DDA" stroke-width="3" stroke-linecap="round" stroke-linejoin="round"/>
</g>
</svg>
