<svg width="21" height="21" viewBox="0 0 21 21" fill="none" xmlns="http://www.w3.org/2000/svg">
<path id="Vector" d="M10.5 12.6C10.7077 12.6 10.9107 12.5384 11.0833 12.423C11.256 12.3077 11.3906 12.1437 11.4701 11.9518C11.5495 11.76 11.5703 11.5488 11.5298 11.3452C11.4893 11.1415 11.3893 10.9544 11.2425 10.8075C11.0956 10.6607 10.9085 10.5607 10.7048 10.5202C10.5012 10.4797 10.29 10.5005 10.0982 10.5799C9.90632 10.6594 9.74233 10.794 9.62696 10.9667C9.51158 11.1393 9.45 11.3423 9.45 11.55C9.45 11.8285 9.56062 12.0955 9.75754 12.2925C9.95445 12.4894 10.2215 12.6 10.5 12.6ZM15.75 12.6C15.9577 12.6 16.1607 12.5384 16.3333 12.423C16.506 12.3077 16.6406 12.1437 16.7201 11.9518C16.7995 11.76 16.8203 11.5488 16.7798 11.3452C16.7393 11.1415 16.6393 10.9544 16.4925 10.8075C16.3456 10.6607 16.1585 10.5607 15.9548 10.5202C15.7512 10.4797 15.54 10.5005 15.3482 10.5799C15.1563 10.6594 14.9923 10.794 14.877 10.9667C14.7616 11.1393 14.7 11.3423 14.7 11.55C14.7 11.8285 14.8106 12.0955 15.0075 12.2925C15.2044 12.4894 15.4715 12.6 15.75 12.6ZM10.5 16.8C10.7077 16.8 10.9107 16.7384 11.0833 16.623C11.256 16.5077 11.3906 16.3437 11.4701 16.1518C11.5495 15.96 11.5703 15.7488 11.5298 15.5452C11.4893 15.3415 11.3893 15.1544 11.2425 15.0075C11.0956 14.8607 10.9085 14.7607 10.7048 14.7202C10.5012 14.6797 10.29 14.7005 10.0982 14.7799C9.90632 14.8594 9.74233 14.994 9.62696 15.1666C9.51158 15.3393 9.45 15.5423 9.45 15.75C9.45 16.0285 9.56062 16.2955 9.75754 16.4925C9.95445 16.6894 10.2215 16.8 10.5 16.8ZM15.75 16.8C15.9577 16.8 16.1607 16.7384 16.3333 16.623C16.506 16.5077 16.6406 16.3437 16.7201 16.1518C16.7995 15.96 16.8203 15.7488 16.7798 15.5452C16.7393 15.3415 16.6393 15.1544 16.4925 15.0075C16.3456 14.8607 16.1585 14.7607 15.9548 14.7202C15.7512 14.6797 15.54 14.7005 15.3482 14.7799C15.1563 14.8594 14.9923 14.994 14.877 15.1666C14.7616 15.3393 14.7 15.5423 14.7 15.75C14.7 16.0285 14.8106 16.2955 15.0075 16.4925C15.2044 16.6894 15.4715 16.8 15.75 16.8ZM5.25 12.6C5.45767 12.6 5.66068 12.5384 5.83335 12.423C6.00602 12.3077 6.1406 12.1437 6.22007 11.9518C6.29955 11.76 6.32034 11.5488 6.27982 11.3452C6.23931 11.1415 6.13931 10.9544 5.99246 10.8075C5.84562 10.6607 5.65852 10.5607 5.45484 10.5202C5.25116 10.4797 5.04004 10.5005 4.84818 10.5799C4.65632 10.6594 4.49233 10.794 4.37696 10.9667C4.26158 11.1393 4.2 11.3423 4.2 11.55C4.2 11.8285 4.31062 12.0955 4.50754 12.2925C4.70445 12.4894 4.97152 12.6 5.25 12.6ZM17.85 2.1H16.8V1.05C16.8 0.771523 16.6894 0.504451 16.4925 0.307538C16.2955 0.110625 16.0285 0 15.75 0C15.4715 0 15.2044 0.110625 15.0075 0.307538C14.8106 0.504451 14.7 0.771523 14.7 1.05V2.1H6.3V1.05C6.3 0.771523 6.18937 0.504451 5.99246 0.307538C5.79555 0.110625 5.52848 0 5.25 0C4.97152 0 4.70445 0.110625 4.50754 0.307538C4.31062 0.504451 4.2 0.771523 4.2 1.05V2.1H3.15C2.31457 2.1 1.51335 2.43187 0.922614 3.02261C0.331874 3.61335 0 4.41457 0 5.25V17.85C0 18.6854 0.331874 19.4866 0.922614 20.0774C1.51335 20.6681 2.31457 21 3.15 21H17.85C18.6854 21 19.4866 20.6681 20.0774 20.0774C20.6681 19.4866 21 18.6854 21 17.85V5.25C21 4.41457 20.6681 3.61335 20.0774 3.02261C19.4866 2.43187 18.6854 2.1 17.85 2.1ZM18.9 17.85C18.9 18.1285 18.7894 18.3955 18.5925 18.5925C18.3955 18.7894 18.1285 18.9 17.85 18.9H3.15C2.87152 18.9 2.60445 18.7894 2.40754 18.5925C2.21062 18.3955 2.1 18.1285 2.1 17.85V8.4H18.9V17.85ZM18.9 6.3H2.1V5.25C2.1 4.97152 2.21062 4.70445 2.40754 4.50754C2.60445 4.31062 2.87152 4.2 3.15 4.2H17.85C18.1285 4.2 18.3955 4.31062 18.5925 4.50754C18.7894 4.70445 18.9 4.97152 18.9 5.25V6.3ZM5.25 16.8C5.45767 16.8 5.66068 16.7384 5.83335 16.623C6.00602 16.5077 6.1406 16.3437 6.22007 16.1518C6.29955 15.96 6.32034 15.7488 6.27982 15.5452C6.23931 15.3415 6.13931 15.1544 5.99246 15.0075C5.84562 14.8607 5.65852 14.7607 5.45484 14.7202C5.25116 14.6797 5.04004 14.7005 4.84818 14.7799C4.65632 14.8594 4.49233 14.994 4.37696 15.1666C4.26158 15.3393 4.2 15.5423 4.2 15.75C4.2 16.0285 4.31062 16.2955 4.50754 16.4925C4.70445 16.6894 4.97152 16.8 5.25 16.8Z" fill="black"/>
</svg>
