<svg width="48" height="36" viewBox="0 0 48 36" fill="none" xmlns="http://www.w3.org/2000/svg">
<path d="M45 6H39C39 6 37.266 6 36 3C35.355 1.473 34.656 0 33 0H21C19.344 0 18.624 1.464 18 3C16.782 6 15 6 15 6H12C12 5.20435 11.6839 4.44129 11.1213 3.87868C10.5587 3.31607 9.79565 3 9 3H6C5.20435 3 4.44129 3.31607 3.87868 3.87868C3.31607 4.44129 3 5.20435 3 6C2.20435 6 1.44129 6.31607 0.87868 6.87868C0.316071 7.44129 0 8.20435 0 9L0 15H16.665C18.744 11.427 22.569 9 27 9C31.431 9 35.256 11.427 37.335 15H48V9C48 8.20435 47.6839 7.44129 47.1213 6.87868C46.5587 6.31607 45.7957 6 45 6ZM10.5 12H4.5C4.10218 12 3.72064 11.842 3.43934 11.5607C3.15804 11.2794 3 10.8978 3 10.5C3 10.1022 3.15804 9.72064 3.43934 9.43934C3.72064 9.15804 4.10218 9 4.5 9H10.5C10.8978 9 11.2794 9.15804 11.5607 9.43934C11.842 9.72064 12 10.1022 12 10.5C12 10.8978 11.842 11.2794 11.5607 11.5607C11.2794 11.842 10.8978 12 10.5 12ZM18 21C18 22.1819 18.2328 23.3522 18.6851 24.4442C19.1374 25.5361 19.8003 26.5282 20.636 27.364C21.4718 28.1997 22.4639 28.8626 23.5558 29.3149C24.6478 29.7672 25.8181 30 27 30C28.1819 30 29.3522 29.7672 30.4442 29.3149C31.5361 28.8626 32.5282 28.1997 33.364 27.364C34.1997 26.5282 34.8626 25.5361 35.3149 24.4442C35.7672 23.3522 36 22.1819 36 21C36 19.8181 35.7672 18.6478 35.3149 17.5558C34.8626 16.4639 34.1997 15.4718 33.364 14.636C32.5282 13.8003 31.5361 13.1374 30.4442 12.6851C29.3522 12.2328 28.1819 12 27 12C25.8181 12 24.6478 12.2328 23.5558 12.6851C22.4639 13.1374 21.4718 13.8003 20.636 14.636C19.8003 15.4718 19.1374 16.4639 18.6851 17.5558C18.2328 18.6478 18 19.8181 18 21ZM39 21C39 24.1826 37.7357 27.2348 35.4853 29.4853C33.2348 31.7357 30.1826 33 27 33C23.8174 33 20.7652 31.7357 18.5147 29.4853C16.2643 27.2348 15 24.1826 15 21C15 19.959 15.174 18.963 15.423 18H0V33C0 33.7957 0.316071 34.5587 0.87868 35.1213C1.44129 35.6839 2.20435 36 3 36H45C45.7957 36 46.5587 35.6839 47.1213 35.1213C47.6839 34.5587 48 33.7957 48 33V18H38.577C38.826 18.963 39 19.959 39 21Z" fill="#D26E25"/>
</svg>
