<svg width="37" height="29" viewBox="0 0 37 29" fill="none" xmlns="http://www.w3.org/2000/svg">
<path d="M32.7628 5.40557H27.4519C27.1867 5.40508 26.9281 5.32206 26.7111 5.16777C26.494 5.01347 26.3291 4.79536 26.2386 4.54298L25.6021 2.7642C25.3297 2.00733 24.8344 1.35338 24.1831 0.890793C23.5318 0.428207 22.7558 0.179301 21.9603 0.177734H15.1672C14.3717 0.17929 13.5958 0.428115 12.9445 0.890572C12.2932 1.35303 11.7978 2.00682 11.5254 2.76355L10.8887 4.54298C10.7982 4.79533 10.6332 5.01341 10.4162 5.1677C10.1992 5.32198 9.94054 5.40502 9.67536 5.40557H4.36466C3.33796 5.40671 2.35364 5.82017 1.62765 6.55523C0.901668 7.29029 0.493315 8.28691 0.492188 9.32644V25.0099C0.493315 26.0495 0.901668 27.0461 1.62765 27.7812C2.35364 28.5162 3.33796 28.9297 4.36466 28.9308H32.7628C33.7895 28.9297 34.7738 28.5162 35.4998 27.7812C36.2257 27.0461 36.6341 26.0495 36.6352 25.0099V9.32644C36.6341 8.28691 36.2257 7.29029 35.4998 6.55523C34.7738 5.82017 33.7895 5.40671 32.7628 5.40557ZM13.5384 10.2936L13.5438 10.496C14.3769 9.74857 15.3482 9.17577 16.4013 8.81078C17.4544 8.44578 18.5686 8.29584 19.6794 8.36962C21.2819 8.45015 22.8095 9.08137 24.0101 10.1591C25.2107 11.2369 26.0126 12.6968 26.2835 14.2981C26.3185 14.4671 26.3201 14.6414 26.2882 14.811C26.2563 14.9806 26.1916 15.1421 26.0977 15.2863C26.0038 15.4304 25.8826 15.5542 25.7411 15.6507C25.5997 15.7471 25.4408 15.8142 25.2736 15.8481C25.1064 15.882 24.9342 15.882 24.767 15.8481C24.5998 15.8143 24.4409 15.7472 24.2994 15.6508C24.1579 15.5544 24.0367 15.4305 23.9428 15.2864C23.8489 15.1423 23.7841 14.9808 23.7522 14.8112C23.5872 13.7721 23.0726 12.8227 22.2954 12.1238C21.5182 11.4249 20.5263 11.0196 19.4877 10.9765C18.4982 10.9107 17.5088 11.1047 16.6152 11.5398C15.7215 11.9748 14.954 12.6361 14.3869 13.4597L16.1793 13.6501C16.5198 13.6863 16.8322 13.858 17.0477 14.1274C17.2631 14.3969 17.3641 14.7419 17.3283 15.0867C17.2926 15.4314 17.123 15.7477 16.8569 15.9659C16.5908 16.1841 16.25 16.2863 15.9095 16.2501L12.2268 15.858C11.9157 15.8247 11.6271 15.6781 11.4146 15.4456C11.2021 15.2131 11.0802 14.9104 11.0715 14.5937L10.9581 10.3652C10.9541 10.0222 11.0835 9.69133 11.3184 9.44407C11.5533 9.19681 11.8747 9.05295 12.2134 9.04355C12.5521 9.03415 12.8809 9.15996 13.1288 9.39382C13.3766 9.62769 13.5238 9.95086 13.5384 10.2936ZM25.0525 24.0978H25.0167C24.6806 24.0976 24.3578 23.9647 24.117 23.7273C23.8762 23.4899 23.7363 23.1668 23.7271 22.8267L23.7215 22.6159C22.3266 23.9488 20.4838 24.6956 18.5658 24.7054H18.5538C16.8774 24.658 15.2564 24.0878 13.9121 23.0727C12.5678 22.0577 11.5657 20.6472 11.0426 19.034C10.9818 18.8738 10.9529 18.703 10.9573 18.5314C10.9617 18.3598 10.9995 18.1908 11.0684 18.034C11.2077 17.7173 11.4655 17.4696 11.7851 17.3454C12.1047 17.2212 12.46 17.2306 12.7727 17.3716C13.0855 17.5126 13.3301 17.7736 13.4528 18.0972C13.7962 19.2128 14.4702 20.1944 15.3834 20.909C16.2965 21.6235 17.4047 22.0364 18.5575 22.0915H18.5658C19.4248 22.0725 20.2662 21.8411 21.0166 21.4174C21.7671 20.9937 22.4037 20.3905 22.8712 19.6606L21.0862 19.4708C20.7457 19.4346 20.4334 19.2629 20.2179 18.9935C20.0025 18.7241 19.9015 18.3791 19.9373 18.0343C19.973 17.6896 20.1426 17.3733 20.4087 17.1551C20.6748 16.937 21.0155 16.8348 21.356 16.871L25.0381 17.2631C25.3493 17.2962 25.638 17.4427 25.8505 17.6753C26.063 17.9078 26.1849 18.2106 26.1934 18.5273L26.3086 22.7553C26.3133 22.9269 26.2845 23.0978 26.2239 23.2581C26.1633 23.4184 26.072 23.5651 25.9554 23.6897C25.8389 23.8144 25.6991 23.9145 25.5443 23.9845C25.3895 24.0544 25.2226 24.0928 25.0531 24.0974L25.0525 24.0978Z" fill="#4E4E4E"/>
</svg>
