<svg width="34" height="30" viewBox="0 0 34 30" fill="none" xmlns="http://www.w3.org/2000/svg">
<path d="M16.9803 11.9275C15.5932 11.9275 14.4071 12.42 13.4221 13.4049C12.4372 14.3899 11.9447 15.576 11.9447 16.9631C11.9447 18.3502 12.4372 19.5362 13.4221 20.5212C14.4071 21.5062 15.5932 21.9987 16.9803 21.9987C18.3674 21.9987 19.5535 21.5062 20.5384 20.5212C21.5234 19.5362 22.0159 18.3502 22.0159 16.9631C22.0159 15.576 21.5234 14.3899 20.5384 13.4049C19.5535 12.42 18.3674 11.9275 16.9803 11.9275ZM4.67104 4.65382C3.43545 4.65382 2.38054 5.09094 1.5063 5.96518C0.632065 6.83942 0.194946 7.89433 0.194946 9.12992V24.7962C0.194946 26.0318 0.632065 27.0867 1.5063 27.961C2.38054 28.8352 3.43545 29.2723 4.67104 29.2723H29.2895C30.5251 29.2723 31.58 28.8352 32.4543 27.961C33.3285 27.0867 33.7656 26.0318 33.7656 24.7962V9.12992C33.7656 7.89433 33.3285 6.83942 32.4543 5.96518C31.58 5.09094 30.5251 4.65382 29.2895 4.65382H25.373L24.4812 2.2759C24.2598 1.70473 23.8547 1.21225 23.266 0.798442C22.6774 0.384637 22.0742 0.177734 21.4564 0.177734H12.5042C11.8864 0.177734 11.2832 0.384637 10.6945 0.798442C10.1059 1.21225 9.70081 1.70473 9.47934 2.2759L8.58762 4.65382H4.67104ZM16.9803 24.7962C14.8238 24.7962 12.9792 24.0298 11.4464 22.497C9.91354 20.9642 9.14713 19.1195 9.14713 16.9631C9.14713 14.8066 9.91354 12.962 11.4464 11.4292C12.9792 9.89633 14.8238 9.12992 16.9803 9.12992C19.1367 9.12992 20.9814 9.89633 22.5142 11.4292C24.047 12.962 24.8134 14.8066 24.8134 16.9631C24.8134 19.1195 24.047 20.9642 22.5142 22.497C20.9814 24.0298 19.1367 24.7962 16.9803 24.7962Z" fill="#4E4E4E"/>
</svg>
