<svg width="35" height="35" viewBox="0 0 35 35" fill="none" xmlns="http://www.w3.org/2000/svg">
<path d="M17.4727 0.0273438C14.0169 0.0273437 10.6387 1.0521 7.76538 2.97202C4.89201 4.89194 2.6525 7.62079 1.33003 10.8135C0.00757062 14.0062 -0.338446 17.5194 0.33574 20.9087C1.00993 24.2981 2.67404 27.4114 5.11763 29.855C7.56122 32.2986 10.6746 33.9627 14.0639 34.6369C17.4533 35.3111 20.9664 34.9651 24.1592 33.6426C27.3519 32.3202 30.0807 30.0806 32.0006 27.2073C33.9206 24.3339 34.9453 20.9558 34.9453 17.5C34.9453 15.2055 34.4934 12.9334 33.6153 10.8135C32.7372 8.69362 31.4502 6.76745 29.8277 5.14497C28.2052 3.52248 26.279 2.23545 24.1592 1.35737C22.0393 0.479287 19.7672 0.0273438 17.4727 0.0273438ZM23.0814 20.6276C23.2452 20.79 23.3751 20.9833 23.4638 21.1962C23.5526 21.4091 23.5982 21.6375 23.5982 21.8682C23.5982 22.0988 23.5526 22.3272 23.4638 22.5401C23.3751 22.753 23.2452 22.9463 23.0814 23.1087C22.919 23.2725 22.7257 23.4025 22.5128 23.4912C22.2999 23.5799 22.0715 23.6256 21.8408 23.6256C21.6102 23.6256 21.3818 23.5799 21.1689 23.4912C20.9559 23.4025 20.7627 23.2725 20.6003 23.1087L17.4727 19.9636L14.3451 23.1087C14.1826 23.2725 13.9894 23.4025 13.7765 23.4912C13.5635 23.5799 13.3352 23.6256 13.1045 23.6256C12.8738 23.6256 12.6455 23.5799 12.4325 23.4912C12.2196 23.4025 12.0264 23.2725 11.8639 23.1087C11.7002 22.9463 11.5702 22.753 11.4815 22.5401C11.3928 22.3272 11.3471 22.0988 11.3471 21.8682C11.3471 21.6375 11.3928 21.4091 11.4815 21.1962C11.5702 20.9833 11.7002 20.79 11.8639 20.6276L15.009 17.5L11.8639 14.3724C11.5349 14.0434 11.3501 13.5971 11.3501 13.1318C11.3501 12.6665 11.5349 12.2203 11.8639 11.8913C12.193 11.5623 12.6392 11.3774 13.1045 11.3774C13.5698 11.3774 14.016 11.5623 14.3451 11.8913L17.4727 15.0364L20.6003 11.8913C20.9293 11.5623 21.3755 11.3774 21.8408 11.3774C22.3061 11.3774 22.7524 11.5623 23.0814 11.8913C23.4104 12.2203 23.5952 12.6665 23.5952 13.1318C23.5952 13.5971 23.4104 14.0434 23.0814 14.3724L19.9363 17.5L23.0814 20.6276Z" fill="white"/>
</svg>
