<svg width="56" height="38" viewBox="0 0 56 38" fill="none" xmlns="http://www.w3.org/2000/svg">
<path d="M54.0547 32.5134V4.9876C54.0547 3.08734 52.5142 1.54688 50.614 1.54688L4.7376 1.54688C2.83734 1.54688 1.29688 3.08734 1.29688 4.9876V32.5134C1.29688 34.4137 2.83734 35.9541 4.7376 35.9541H50.614C52.5142 35.9541 54.0547 34.4137 54.0547 32.5134Z" stroke="#303C42" stroke-width="2.5" stroke-linecap="round" stroke-linejoin="round"/>
<path d="M31.1187 26.78H47.1754M31.1187 19.8986H47.1754M31.1187 13.0171H47.1754" stroke="#303C42" stroke-width="2.5" stroke-linecap="round" stroke-linejoin="round"/>
<path d="M16.2079 17.6018C18.1081 17.6018 19.6486 16.0614 19.6486 14.1611C19.6486 12.2608 18.1081 10.7204 16.2079 10.7204C14.3076 10.7204 12.7672 12.2608 12.7672 14.1611C12.7672 16.0614 14.3076 17.6018 16.2079 17.6018Z" stroke="#303C42" stroke-width="2.5" stroke-linecap="round" stroke-linejoin="round"/>
<path d="M16.2065 21.0445C13.9981 21.1 11.829 21.6404 9.85262 22.6273C9.3624 22.8514 8.94529 23.2091 8.64911 23.6595C8.35294 24.1098 8.1897 24.6345 8.17813 25.1734V25.6322C8.19008 25.9262 8.3169 26.2039 8.53136 26.4055C8.74581 26.6071 9.03078 26.7165 9.32504 26.7103H23.0879C23.3822 26.7165 23.6672 26.6071 23.8816 26.4055C24.0961 26.2039 24.2229 25.9262 24.2349 25.6322V25.1734C24.2276 24.6306 24.0664 24.101 23.7699 23.6462C23.4735 23.1914 23.0541 22.8301 22.5604 22.6043C20.5822 21.6254 18.4131 21.0929 16.2065 21.0445V21.0445Z" stroke="#303C42" stroke-width="2.5" stroke-linecap="round" stroke-linejoin="round"/>
</svg>
