<svg id="Group_378" data-name="Group 378" xmlns="http://www.w3.org/2000/svg" width="181.843" height="181.843" viewBox="0 0 181.843 181.843">
  <path id="Path_444" data-name="Path 444" d="M150.347.863H8.463A8.42,8.42,0,0,0,0,9.239V171.191a8.42,8.42,0,0,0,8.463,8.376H150.347a8.42,8.42,0,0,0,8.463-8.376V9.239A8.42,8.42,0,0,0,150.347.863Z" transform="translate(0 2.276)" fill="#959fae"/>
  <path id="Path_445" data-name="Path 445" d="M101.269,5.83H7.813A3.2,3.2,0,0,0,4.547,8.947V150.253a3.192,3.192,0,0,0,3.266,3.113H127.018a3.192,3.192,0,0,0,3.266-3.113V8.947a3.192,3.192,0,0,0-3.266-3.113H101.269Z" transform="translate(11.99 15.373)" fill="#fff"/>
  <path id="Path_446" data-name="Path 446" d="M63.184,46.417,54.092,67.645,45,46.417C54.638,36.823,63.184,46.417,63.184,46.417Z" transform="translate(118.658 111.15)" fill="#959fae"/>
  <path id="Path_447" data-name="Path 447" d="M63.184,9.4V145S54.638,135.408,45,145V9.4a4.626,4.626,0,0,1,4.637-4.637h8.91A4.626,4.626,0,0,1,63.184,9.4Z" transform="translate(118.658 12.565)" fill="#1dd1a1"/>
  <circle id="Ellipse_105" data-name="Ellipse 105" cx="37.304" cy="37.304" r="37.304" transform="translate(42.1 35.834)" fill="#1dd1a1"/>
  <path id="Path_448" data-name="Path 448" d="M55.586,28.878H45.523V18.811a4.857,4.857,0,0,0-4.859-4.855H35.456A4.857,4.857,0,0,0,30.6,18.811V28.878H20.534a4.857,4.857,0,0,0-4.855,4.855v5.208A4.857,4.857,0,0,0,20.534,43.8H30.6V53.863a4.857,4.857,0,0,0,4.855,4.859h5.208a4.858,4.858,0,0,0,4.859-4.859V43.8H55.586a4.858,4.858,0,0,0,4.859-4.859V33.733A4.857,4.857,0,0,0,55.586,28.878Z" transform="translate(41.343 36.8)" fill="#fff"/>
  <path id="Path_449" data-name="Path 449" d="M10.167,0H95.026V27.276H10.167Z" transform="translate(26.809)" fill="#38474f"/>
  <g id="Group_283" data-name="Group 283" transform="translate(25.207 122.744)">
    <path id="Path_450" data-name="Path 450" d="M61.372,43.976H21.956a3.039,3.039,0,1,1,0-6.059H61.372a3.039,3.039,0,1,1,0,6.059Z" transform="translate(24.028 -22.762)" fill="#959fae"/>
    <path id="Path_451" data-name="Path 451" d="M39.779,43.976H10.219a3.04,3.04,0,1,1,0-6.059h29.56a3.039,3.039,0,1,1,0,6.059Z" transform="translate(-6.931 -22.762)" fill="#959fae"/>
    <path id="Path_452" data-name="Path 452" d="M42.975,43.976H36.407a3.039,3.039,0,1,1,0-6.059h6.568a3.039,3.039,0,1,1,0,6.059Z" transform="translate(62.133 -22.762)" fill="#959fae"/>
    <path id="Path_453" data-name="Path 453" d="M55.05,39.813H15.634a3.041,3.041,0,1,1,0-6.063H55.05a3.041,3.041,0,1,1,0,6.063Z" transform="translate(7.358 -33.75)" fill="#959fae"/>
    <path id="Path_454" data-name="Path 454" d="M59.645,39.813H30.085a3.041,3.041,0,1,1,0-6.063h29.56a3.041,3.041,0,1,1,0,6.063Z" transform="translate(45.463 -33.75)" fill="#959fae"/>
    <path id="Path_455" data-name="Path 455" d="M16.787,39.813H10.219a3.041,3.041,0,1,1,0-6.063h6.568a3.041,3.041,0,1,1,0,6.063Z" transform="translate(-6.931 -33.75)" fill="#959fae"/>
    <path id="Path_456" data-name="Path 456" d="M55.05,48.146H15.634a3.041,3.041,0,1,1,0-6.063H55.05a3.041,3.041,0,1,1,0,6.063Z" transform="translate(7.358 -11.777)" fill="#959fae"/>
    <path id="Path_457" data-name="Path 457" d="M59.645,48.146H30.085a3.041,3.041,0,1,1,0-6.063h29.56a3.041,3.041,0,1,1,0,6.063Z" transform="translate(45.463 -11.777)" fill="#959fae"/>
    <path id="Path_458" data-name="Path 458" d="M16.787,48.146H10.219a3.041,3.041,0,1,1,0-6.063h6.568a3.041,3.041,0,1,1,0,6.063Z" transform="translate(-6.931 -11.777)" fill="#959fae"/>
  </g>
</svg>
