<svg xmlns="http://www.w3.org/2000/svg" width="24.007" height="21.883" viewBox="0 0 34.007 21.883"><g transform="translate(-3.996 -0.117)" fill="#fff"><path d="M 16.04855346679688 21.39998245239258 L 7.002035617828369 21.39959526062012 C 6.04610538482666 21.39959526062012 5.207925796508789 20.85860633850098 4.814575672149658 19.98774528503418 C 4.421155452728271 19.11677551269531 4.569335460662842 18.13017654418945 5.201285839080811 17.41295623779297 L 19.19982528686523 1.529826164245605 C 19.65526580810547 1.012966156005859 20.31144523620605 0.716556191444397 21.00015640258789 0.716556191444397 C 21.68886566162109 0.716556191444397 22.34503555297852 1.012966156005859 22.80043601989746 1.529776215553284 L 36.79816436767578 17.41299629211426 C 37.43031692504883 18.13009643554688 37.57867431640625 19.11653709411621 37.18541717529297 19.98745536804199 C 36.7921257019043 20.85849571228027 35.95407485961914 21.39959526062012 34.99830627441406 21.39959526062012 L 24.92854881286621 21.39959526062012 L 21.0158748626709 16.08201599121094 L 20.53794479370117 15.43246650695801 L 20.05313491821289 16.07689666748047 L 16.04855346679688 21.39998245239258 Z" stroke="none"/><path d="M 15.74911975860596 20.79997062683105 L 20.54328536987305 14.42732620239258 L 25.23200035095215 20.79959678649902 L 34.99830627441406 20.79959678649902 C 35.72596740722656 20.79959678649902 36.33915710449219 20.40369606018066 36.63858413696289 19.74053573608398 C 36.93796539306641 19.07750701904297 36.82939529418945 18.35575675964355 36.34802627563477 17.80970573425293 L 22.35026550292969 1.926456212997437 C 22.00873565673828 1.538856148719788 21.51663589477539 1.316556215286255 21.00015640258789 1.316556215286255 C 20.48366546630859 1.316556215286255 19.9915657043457 1.538856148719788 19.64994621276855 1.926546216011047 L 5.65146541595459 17.80960655212402 C 5.170295715332031 18.35571670532227 5.061845779418945 19.07763671875 5.36137580871582 19.74076652526855 C 5.660855770111084 20.40377616882324 6.274165630340576 20.79959678649902 7.002055644989014 20.79959678649902 L 15.74911975860596 20.79997062683105 M 16.34799575805664 21.99999618530273 L 7.002005577087402 21.99959564208984 C 5.807175636291504 21.99959564208984 4.759475708007812 21.3233470916748 4.267765522003174 20.2347354888916 C 3.77599573135376 19.14601707458496 3.961205720901489 17.91278648376465 4.751105785369873 17.01629638671875 L 18.74969482421875 1.133106231689453 C 19.31895637512207 0.4870761632919312 20.13921546936035 0.1165561750531197 21.00015640258789 0.1165561750531197 C 21.8610954284668 0.1165561750531197 22.68134498596191 0.4870761632919312 23.25060653686523 1.133106231689453 L 37.24830627441406 17.01629638671875 C 38.03841400146484 17.91257667541504 38.22385406494141 19.14567565917969 37.73225402832031 20.23437690734863 C 37.24062728881836 21.32320594787598 36.19303512573242 21.99959564208984 34.99830627441406 21.99959564208984 L 24.6251163482666 21.99959564208984 L 20.53260612487793 16.43760681152344 L 16.34799575805664 21.99999618530273 Z" stroke="none" fill="#959fae"/></g></svg>