<svg xmlns="http://www.w3.org/2000/svg" width="18.103" height="16.681" viewBox="0 0 18.103 16.681"><path d="M353.966,388.035a3.982,3.982,0,0,0,3.763-3.715c.09-1.866.038-3.735.024-5.6a4.056,4.056,0,0,0-3.652-4.009c-.72-.058-1.447-.028-2.171-.029-2.708,0-5.416-.009-8.123,0a4,4,0,0,0-4.1,3.94c-.054,1.845-.011,3.693-.01,5.54a3.375,3.375,0,0,0,.248,1.257,4.054,4.054,0,0,0,3.176,2.6c.226.044.26.11.166.32-.447.991-.879,1.988-1.326,3.007a.409.409,0,0,0,.294-.089q3.007-1.53,6.01-3.067a1.2,1.2,0,0,1,.57-.135C350.545,388.058,352.257,388.088,353.966,388.035Z" transform="translate(-339.678 -374.673)" fill="#38474f"/></svg>