<svg width="22" height="21" viewBox="0 0 22 21" fill="none" xmlns="http://www.w3.org/2000/svg">
<path d="M1.25 11.5608C1.25 13.1608 2.373 14.5548 3.957 14.7878C5.025 14.9448 6.105 15.0668 7.195 15.1518C7.661 15.1888 8.088 15.4328 8.348 15.8228L11 19.8008L13.652 15.8228C13.912 15.4328 14.339 15.1888 14.805 15.1528C15.895 15.0668 16.975 14.9448 18.043 14.7878C19.627 14.5548 20.75 13.1618 20.75 11.5598V5.54178C20.75 3.93978 19.627 2.54678 18.043 2.31378C15.711 1.9715 13.357 1.80004 11 1.80078C8.608 1.80078 6.256 1.97578 3.957 2.31378C2.373 2.54678 1.25 3.94078 1.25 5.54178V11.5598V11.5608Z" fill="#91BFE1" stroke="#91BFE1" stroke-width="2" stroke-linecap="round" stroke-linejoin="round"/>
<path d="M2.61133 14.3718V3.30078H19.6113V14.3008H14.6113H14.4042L14.2578 14.4472L11.1113 17.5937L8.96488 15.4472L8.84914 15.3315L8.68736 15.3066L2.61133 14.3718Z" fill="#91BFE1" stroke="#91BFE1"/>
</svg>
