<svg width="23" height="19" viewBox="0 0 23 19" fill="none" xmlns="http://www.w3.org/2000/svg">
<path id="Vector" d="M21 0.5C22.1046 0.5 23 1.39543 23 2.5V13.6724C23 14.777 22.1046 15.6724 21 15.6724H8.71058C8.19445 15.6724 7.6983 15.8719 7.32588 16.2293L5.31715 18.1567C4.39983 19.0369 2.875 18.3829 2.875 17.1116C2.875 16.3177 2.23141 15.6724 1.4375 15.6724C0.643591 15.6724 0 15.0288 0 14.2349V2.5C0 1.39543 0.895431 0.5 2 0.5H21ZM17.7167 5.65569C18.0055 5.3785 18.475 5.43125 18.6952 5.76563C18.8702 6.03139 18.8236 6.38532 18.5858 6.59672L11.1944 13.1668C10.4959 13.7877 9.46061 13.8421 8.70091 13.2978L7.90625 12.7285L6.53731 11.755C6.51261 11.7375 6.49098 11.716 6.4733 11.6913C6.27817 11.4196 6.64572 11.1008 6.88711 11.3325L8.96967 13.3307C9.17872 13.5313 9.50878 13.5313 9.71783 13.3307L17.7167 5.65569Z" fill="#EEC790"/>
</svg>
