<svg width="38" height="32" viewBox="0 0 38 32" fill="none" xmlns="http://www.w3.org/2000/svg">
<path d="M8.625 3.15273H16.4375V15.5527L12.5312 13.2277L8.625 15.5527M27.375 0.0527344H8.625C7.7962 0.0527344 7.00134 0.37934 6.41529 0.960703C5.82924 1.54207 5.5 2.33056 5.5 3.15273V27.9527C5.5 28.7749 5.82924 29.5634 6.41529 30.1448C7.00134 30.7261 7.7962 31.0527 8.625 31.0527H27.375C28.2038 31.0527 28.9987 30.7261 29.5847 30.1448C30.1708 29.5634 30.5 28.7749 30.5 27.9527V3.15273C30.5 2.33056 30.1708 1.54207 29.5847 0.960703C28.9987 0.37934 28.2038 0.0527344 27.375 0.0527344Z" fill="black"/>
<circle cx="29.5" cy="21.5527" r="8" fill="white" stroke="black"/>
<path d="M28.6193 25.228L28.7975 25.4092L28.9758 25.228L34.1782 19.9391L34.3507 19.7638L34.1782 19.5884L33.4788 18.8774L33.3006 18.6962L33.1224 18.8774L28.7975 23.2742L26.8776 21.3223L26.6994 21.1411L26.5212 21.3223L25.8218 22.0333L25.6493 22.2087L25.8218 22.384L28.6193 25.228Z" fill="black" stroke="black" stroke-width="0.5"/>
</svg>
