<svg xmlns="http://www.w3.org/2000/svg" width="58" height="58" viewBox="0 0 58 58">
  <g id="Group_536" data-name="Group 536" transform="translate(-350 -628)">
    <rect id="Rectangle_334" data-name="Rectangle 334" width="58" height="58" rx="10" transform="translate(350 628)" fill="#fff"/>
    <path id="Icon_metro-cross" data-name="Icon metro-cross" d="M22.237,17.942h0l-6.371-6.371L22.236,5.2h0a.658.658,0,0,0,0-.928L19.227,1.263a.658.658,0,0,0-.928,0h0L11.928,7.634,5.557,1.263h0a.658.658,0,0,0-.928,0L1.62,4.272a.658.658,0,0,0,0,.928h0l6.371,6.371L1.62,17.942h0a.658.658,0,0,0,0,.928l3.009,3.009a.658.658,0,0,0,.928,0h0l6.371-6.371L18.3,21.879h0a.658.658,0,0,0,.928,0l3.009-3.009a.658.658,0,0,0,0-.928Z" transform="translate(367.572 645.929)" fill="#F2B6B6"/>
  </g>
</svg>
