<svg width="49" height="49" viewBox="0 0 49 49" fill="none" xmlns="http://www.w3.org/2000/svg">
<rect x="0.109375" y="0.898438" width="48" height="48" rx="13" fill="#D26E25"/>
<path d="M38.7014 17.6095H34.675C34.675 17.6095 33.5114 17.6095 32.6619 15.6622C32.229 14.671 31.76 13.7148 30.6487 13.7148H22.596C21.4848 13.7148 21.0016 14.6651 20.5829 15.6622C19.7655 17.6095 18.5697 17.6095 18.5697 17.6095H16.5566C16.5566 17.093 16.3445 16.5977 15.9669 16.2325C15.5894 15.8673 15.0773 15.6622 14.5434 15.6622H12.5302C11.9963 15.6622 11.4843 15.8673 11.1067 16.2325C10.7292 16.5977 10.5171 17.093 10.5171 17.6095C9.98315 17.6095 9.47109 17.8146 9.09355 18.1798C8.71601 18.545 8.50391 19.0403 8.50391 19.5568V23.4514H19.687C21.0822 21.1322 23.6489 19.5568 26.6224 19.5568C29.5958 19.5568 32.1626 21.1322 33.5577 23.4514H40.7145V19.5568C40.7145 19.0403 40.5024 18.545 40.1249 18.1798C39.7473 17.8146 39.2353 17.6095 38.7014 17.6095ZM15.55 21.5041H11.5237C11.2567 21.5041 11.0007 21.4015 10.8119 21.2189C10.6231 21.0363 10.5171 20.7887 10.5171 20.5304C10.5171 20.2722 10.6231 20.0246 10.8119 19.842C11.0007 19.6594 11.2567 19.5568 11.5237 19.5568H15.55C15.8169 19.5568 16.073 19.6594 16.2617 19.842C16.4505 20.0246 16.5566 20.2722 16.5566 20.5304C16.5566 20.7887 16.4505 21.0363 16.2617 21.2189C16.073 21.4015 15.8169 21.5041 15.55 21.5041ZM20.5829 27.346C20.5829 28.1132 20.7391 28.8729 21.0426 29.5816C21.3461 30.2904 21.791 30.9344 22.3518 31.4769C22.9126 32.0194 23.5784 32.4497 24.3112 32.7433C25.0439 33.0369 25.8293 33.188 26.6224 33.188C27.4155 33.188 28.2008 33.0369 28.9336 32.7433C29.6663 32.4497 30.3321 32.0194 30.8929 31.4769C31.4538 30.9344 31.8986 30.2904 32.2021 29.5816C32.5057 28.8729 32.6619 28.1132 32.6619 27.346C32.6619 26.5789 32.5057 25.8192 32.2021 25.1104C31.8986 24.4016 31.4538 23.7576 30.8929 23.2152C30.3321 22.6727 29.6663 22.2424 28.9336 21.9488C28.2008 21.6552 27.4155 21.5041 26.6224 21.5041C25.8293 21.5041 25.0439 21.6552 24.3112 21.9488C23.5784 22.2424 22.9126 22.6727 22.3518 23.2152C21.791 23.7576 21.3461 24.4016 21.0426 25.1104C20.7391 25.8192 20.5829 26.5789 20.5829 27.346ZM34.675 27.346C34.675 29.4119 33.8266 31.3931 32.3165 32.8539C30.8063 34.3146 28.7581 35.1353 26.6224 35.1353C24.4867 35.1353 22.4385 34.3146 20.9283 32.8539C19.4181 31.3931 18.5697 29.4119 18.5697 27.346C18.5697 26.6703 18.6865 26.0238 18.8536 25.3987H8.50391V35.1353C8.50391 35.6517 8.71601 36.147 9.09355 36.5122C9.47109 36.8774 9.98315 37.0826 10.5171 37.0826H38.7014C39.2353 37.0826 39.7473 36.8774 40.1249 36.5122C40.5024 36.147 40.7145 35.6517 40.7145 35.1353V25.3987H34.3912C34.5583 26.0238 34.675 26.6703 34.675 27.346Z" fill="white"/>
</svg>
