<svg width="49" height="49" viewBox="0 0 49 49" fill="none" xmlns="http://www.w3.org/2000/svg">
<rect x="0.109375" y="0.898438" width="48" height="48" rx="13" fill="#D26E25"/>
<path d="M33.697 13.5664H14.52C13.9844 13.5664 13.5184 13.7443 13.1854 14.0743C12.8522 14.4044 12.6719 14.8673 12.6719 15.3998C12.6719 15.9324 12.8522 16.3953 13.1854 16.7254C13.5184 17.0554 13.9844 17.2333 14.52 17.2333H22.2604V34.4009C22.2604 34.9335 22.4407 35.3964 22.7739 35.7265C23.1069 36.0565 23.5729 36.2344 24.1085 36.2344C24.644 36.2344 25.1101 36.0565 25.4431 35.7265C25.7763 35.3964 25.9566 34.9335 25.9566 34.4009V17.2333H33.697C34.2326 17.2333 34.6986 17.0554 35.0316 16.7254C35.3648 16.3953 35.5451 15.9324 35.5451 15.3998C35.5451 14.8673 35.3648 14.4044 35.0316 14.0743C34.6986 13.7443 34.2326 13.5664 33.697 13.5664Z" fill="white" stroke="white" stroke-width="0.5"/>
</svg>
