<svg width="49" height="49" viewBox="0 0 49 49" fill="none" xmlns="http://www.w3.org/2000/svg">
<rect x="0.109375" y="0.898438" width="48" height="48" rx="13" fill="#D26E25"/>
<path d="M24.1092 28.0602C26.8779 28.0602 29.1218 25.9355 29.1218 23.3136V16.9849C29.1218 14.3629 26.8779 12.2383 24.1092 12.2383C21.3405 12.2383 19.0966 14.3629 19.0966 16.9849V23.3136C19.0966 25.9355 21.3405 28.0602 24.1092 28.0602ZM33.8395 23.2571C33.8395 23.1328 33.7333 23.0311 33.6036 23.0311H31.8345C31.7047 23.0311 31.5986 23.1328 31.5986 23.2571C31.5986 27.2211 28.246 30.4335 24.1092 30.4335C19.9723 30.4335 16.6198 27.2211 16.6198 23.2571C16.6198 23.1328 16.5137 23.0311 16.3839 23.0311H14.6148C14.4851 23.0311 14.3789 23.1328 14.3789 23.2571C14.3789 28.0235 18.1118 31.9563 22.9298 32.5129V35.4061H18.6455C18.2415 35.4061 17.9172 35.8101 17.9172 36.3102V37.3273C17.9172 37.4516 17.9998 37.5533 18.1 37.5533H30.1184C30.2186 37.5533 30.3012 37.4516 30.3012 37.3273V36.3102C30.3012 35.8101 29.9769 35.4061 29.5729 35.4061H25.1707V32.5271C30.0447 32.0185 33.8395 28.063 33.8395 23.2571Z" fill="white"/>
</svg>
