<svg width="35" height="36" viewBox="0 0 35 36" fill="none" xmlns="http://www.w3.org/2000/svg">
<path d="M17.4727 0.995361C14.0169 0.995361 10.6387 2.02011 7.76537 3.94003C4.89201 5.85995 2.6525 8.58881 1.33003 11.7815C0.00757062 14.9742 -0.338446 18.4874 0.33574 21.8768C1.00993 25.2661 2.67403 28.3794 5.11763 30.823C7.56122 33.2666 10.6746 34.9307 14.0639 35.6049C17.4533 36.2791 20.9664 35.9331 24.1592 34.6106C27.3519 33.2882 30.0807 31.0487 32.0006 28.1753C33.9206 25.3019 34.9453 21.9238 34.9453 18.468C34.9453 16.1735 34.4934 13.9014 33.6153 11.7815C32.7372 9.66164 31.4502 7.73547 29.8277 6.11298C28.2052 4.4905 26.279 3.20347 24.1592 2.32539C22.0393 1.4473 19.7672 0.995361 17.4727 0.995361ZM23.0814 21.5956C23.2451 21.758 23.3751 21.9513 23.4638 22.1642C23.5525 22.3771 23.5982 22.6055 23.5982 22.8362C23.5982 23.0668 23.5525 23.2952 23.4638 23.5081C23.3751 23.7211 23.2451 23.9143 23.0814 24.0767C22.9189 24.2405 22.7257 24.3705 22.5128 24.4592C22.2999 24.5479 22.0715 24.5936 21.8408 24.5936C21.6102 24.5936 21.3818 24.5479 21.1689 24.4592C20.9559 24.3705 20.7627 24.2405 20.6003 24.0767L17.4727 20.9317L14.3451 24.0767C14.1826 24.2405 13.9894 24.3705 13.7765 24.4592C13.5635 24.5479 13.3352 24.5936 13.1045 24.5936C12.8738 24.5936 12.6455 24.5479 12.4325 24.4592C12.2196 24.3705 12.0264 24.2405 11.8639 24.0767C11.7002 23.9143 11.5702 23.7211 11.4815 23.5081C11.3928 23.2952 11.3471 23.0668 11.3471 22.8362C11.3471 22.6055 11.3928 22.3771 11.4815 22.1642C11.5702 21.9513 11.7002 21.758 11.8639 21.5956L15.009 18.468L11.8639 15.3404C11.5349 15.0114 11.3501 14.5651 11.3501 14.0998C11.3501 13.6346 11.5349 13.1883 11.8639 12.8593C12.193 12.5303 12.6392 12.3454 13.1045 12.3454C13.5698 12.3454 14.016 12.5303 14.3451 12.8593L17.4727 16.0044L20.6003 12.8593C20.9293 12.5303 21.3755 12.3454 21.8408 12.3454C22.3061 12.3454 22.7524 12.5303 23.0814 12.8593C23.4104 13.1883 23.5952 13.6346 23.5952 14.0998C23.5952 14.5651 23.4104 15.0114 23.0814 15.3404L19.9363 18.468L23.0814 21.5956Z" fill="#FFA700"/>
</svg>
