<svg width="24" height="20" viewBox="0 0 24 20" fill="none" xmlns="http://www.w3.org/2000/svg">
<mask id="path-1-inside-1_1926_2731" fill="white">
<path fill-rule="evenodd" clip-rule="evenodd" d="M13.2102 0.943962C12.4277 -0.314651 10.5959 -0.314655 9.81332 0.943958L0.30472 16.2369C-0.523626 17.5692 0.434408 19.293 2.00319 19.293H6.77891C7.53277 19.293 8.22259 18.8691 8.56317 18.1965L10.9357 13.5115C11.1963 12.9969 11.9326 13.0007 12.1879 13.5179L14.4882 18.1782C14.8251 18.8608 15.5204 19.293 16.2816 19.293H21.0204C22.5891 19.293 23.5472 17.5692 22.7188 16.2369L13.2102 0.943962Z"/>
</mask>
<path fill-rule="evenodd" clip-rule="evenodd" d="M13.2102 0.943962C12.4277 -0.314651 10.5959 -0.314655 9.81332 0.943958L0.30472 16.2369C-0.523626 17.5692 0.434408 19.293 2.00319 19.293H6.77891C7.53277 19.293 8.22259 18.8691 8.56317 18.1965L10.9357 13.5115C11.1963 12.9969 11.9326 13.0007 12.1879 13.5179L14.4882 18.1782C14.8251 18.8608 15.5204 19.293 16.2816 19.293H21.0204C22.5891 19.293 23.5472 17.5692 22.7188 16.2369L13.2102 0.943962Z" fill="#91BFE1"/>
<path d="M9.81332 0.943958L12.361 2.52802V2.52802L9.81332 0.943958ZM13.2102 0.943962L10.6625 2.52802L10.6625 2.52802L13.2102 0.943962ZM0.30472 16.2369L-2.24298 14.6529L0.30472 16.2369ZM10.9357 13.5115L13.6121 14.8669L13.6121 14.8669L10.9357 13.5115ZM12.1879 13.5179L14.878 12.1901L12.1879 13.5179ZM22.7188 16.2369L25.2665 14.6529L25.2665 14.6529L22.7188 16.2369ZM14.4882 18.1782L11.798 19.506L14.4882 18.1782ZM12.361 2.52802C11.9697 3.15733 11.0538 3.15732 10.6625 2.52802L15.7579 -0.640098C13.8015 -3.78662 9.22202 -3.78664 7.26562 -0.640101L12.361 2.52802ZM2.85242 17.821L12.361 2.52802L7.26562 -0.640102L-2.24298 14.6529L2.85242 17.821ZM2.00319 16.293C2.78757 16.293 3.26659 17.1549 2.85242 17.821L-2.24298 14.6529C-4.31384 17.9835 -1.91875 22.293 2.00319 22.293V16.293ZM6.77891 16.293H2.00319V22.293H6.77891V16.293ZM11.2396 19.5519L13.6121 14.8669L8.25932 12.1562L5.88678 16.8412L11.2396 19.5519ZM13.6121 14.8669C12.7558 16.5577 10.3367 16.5453 9.49775 14.8458L14.878 12.1901C13.5285 9.456 9.6368 9.43607 8.25932 12.1562L13.6121 14.8669ZM9.49775 14.8458L11.798 19.506L17.1783 16.8504L14.878 12.1901L9.49775 14.8458ZM21.0204 16.293H16.2816V22.293H21.0204V16.293ZM20.1711 17.821C19.757 17.1549 20.236 16.293 21.0204 16.293V22.293C24.9423 22.293 27.3374 17.9835 25.2665 14.6529L20.1711 17.821ZM10.6625 2.52802L20.1711 17.821L25.2665 14.6529L15.7579 -0.640098L10.6625 2.52802ZM11.798 19.506C12.6404 21.2126 14.3785 22.293 16.2816 22.293V16.293C16.6622 16.293 17.0098 16.5091 17.1783 16.8504L11.798 19.506ZM6.77891 22.293C8.66356 22.293 10.3881 21.2332 11.2396 19.5519L5.88678 16.8412C6.05707 16.5049 6.40198 16.293 6.77891 16.293V22.293Z" fill="#91BFE1" mask="url(#path-1-inside-1_1926_2731)"/>
</svg>
