<svg width="51" height="67" viewBox="0 0 51 67" fill="none" xmlns="http://www.w3.org/2000/svg">
<path d="M36.6149 49.8625C35.6165 49.3228 34.7645 48.5483 34.1322 47.6059C33.4998 46.6634 33.1063 45.5813 32.9854 44.4529V38.9328L33.3442 38.5464C35.3949 35.9936 36.8811 33.0351 37.7051 29.866C37.8668 29.2691 38.1918 28.7291 38.6435 28.3066C39.0689 27.9811 39.4058 27.554 39.6233 27.0646V20.5923C39.5278 20.2679 39.3734 19.9639 39.1679 19.6953C38.647 19.0749 38.3504 18.297 38.3261 17.4873V9.77294C38.3416 8.67165 38.1371 7.57834 37.7248 6.55703C37.3125 5.53572 36.7006 4.60694 35.9249 3.82505C33.565 1.53422 30.046 0.375 25.4919 0.375C20.9378 0.375 17.4188 1.53422 15.059 3.82505C14.2808 4.60579 13.6663 5.53406 13.2516 6.55543C12.8369 7.57679 12.6303 8.67068 12.6439 9.77294V17.5425C12.6277 18.3406 12.3406 19.1095 11.8297 19.7229C11.6211 20.0038 11.4581 20.3158 11.3467 20.6475V27.1198C11.5681 27.5837 11.8941 27.9899 12.2989 28.3066C12.7711 28.7338 13.1071 29.2906 13.2649 29.9074C14.1041 33.0567 15.5944 35.995 17.6396 38.5326L17.9846 38.919V44.439C17.8626 45.5672 17.4686 46.6488 16.8364 47.5911C16.2042 48.5333 15.3527 49.3081 14.3551 49.8487C12.9751 50.6767 7.28944 53.768 3.20458 55.9346L0.527344 57.3146C7.61034 62.9959 16.4189 66.0921 25.4988 66.0921C34.5788 66.0921 43.3873 62.9959 50.4703 57.3146L47.793 55.9346C43.7082 53.7128 37.9121 50.6905 36.6149 49.8625Z" fill="#E1E1E1"/>
</svg>
