<svg width="19" height="20" viewBox="0 0 19 20" fill="none" xmlns="http://www.w3.org/2000/svg">
<path d="M7.79372 3.81047V4.03946H11.6504V3.81047C11.6504 3.32462 11.4472 2.85866 11.0856 2.51512C10.7239 2.17157 10.2335 1.97856 9.72205 1.97856C9.21062 1.97856 8.72015 2.17157 8.35851 2.51512C7.99688 2.85866 7.79372 3.32462 7.79372 3.81047ZM6.58852 4.03946V3.81047C6.58852 3.02096 6.91866 2.26379 7.50631 1.70552C8.09396 1.14725 8.89098 0.833618 9.72205 0.833618C10.5531 0.833618 11.3501 1.14725 11.9378 1.70552C12.5254 2.26379 12.8556 3.02096 12.8556 3.81047V4.03946H18.279C18.4388 4.03946 18.5921 4.09977 18.7051 4.20713C18.8181 4.31449 18.8816 4.4601 18.8816 4.61193C18.8816 4.76376 18.8181 4.90937 18.7051 5.01673C18.5921 5.12409 18.4388 5.1844 18.279 5.1844H16.8728L15.9086 16.1099C15.8353 16.9396 15.4366 17.7128 14.7915 18.2764C14.1464 18.84 13.302 19.1528 12.4256 19.1527H7.01853C6.1422 19.1526 5.29788 18.8398 4.65286 18.2763C4.00785 17.7127 3.60923 16.9395 3.53598 16.1099L2.57182 5.1844H1.1651C1.00528 5.1844 0.852008 5.12409 0.738998 5.01673C0.625988 4.90937 0.5625 4.76376 0.5625 4.61193C0.5625 4.4601 0.625988 4.31449 0.738998 4.20713C0.852008 4.09977 1.00528 4.03946 1.1651 4.03946H6.58852ZM8.51684 8.27575C8.51684 8.20057 8.50126 8.12613 8.47097 8.05667C8.44069 7.98722 8.3963 7.92411 8.34034 7.87095C8.28439 7.81779 8.21796 7.77562 8.14485 7.74685C8.07173 7.71808 7.99338 7.70328 7.91424 7.70328C7.83511 7.70328 7.75675 7.71808 7.68364 7.74685C7.61052 7.77562 7.54409 7.81779 7.48814 7.87095C7.43218 7.92411 7.38779 7.98722 7.35751 8.05667C7.32723 8.12613 7.31164 8.20057 7.31164 8.27575V14.9164C7.31164 14.9916 7.32723 15.066 7.35751 15.1355C7.38779 15.205 7.43218 15.2681 7.48814 15.3212C7.54409 15.3744 7.61052 15.4165 7.68364 15.4453C7.75675 15.4741 7.83511 15.4889 7.91424 15.4889C7.99338 15.4889 8.07173 15.4741 8.14485 15.4453C8.21796 15.4165 8.28439 15.3744 8.34034 15.3212C8.3963 15.2681 8.44069 15.205 8.47097 15.1355C8.50126 15.066 8.51684 14.9916 8.51684 14.9164V8.27575ZM11.5299 7.70328C11.1972 7.70328 10.9272 7.95974 10.9272 8.27575V14.9164C10.9272 15.0682 10.9907 15.2139 11.1037 15.3212C11.2168 15.4286 11.37 15.4889 11.5299 15.4889C11.6897 15.4889 11.8429 15.4286 11.956 15.3212C12.069 15.2139 12.1325 15.0682 12.1325 14.9164V8.27575C12.1325 7.95974 11.8625 7.70328 11.5299 7.70328Z" fill="black"/>
</svg>
