<svg width="17" height="17" viewBox="0 0 17 17" fill="none" xmlns="http://www.w3.org/2000/svg">
<path d="M3.44166 3.94946C3.44166 5.86534 5.00354 8.20561 6.82633 8.20561C8.64911 8.20561 10.211 5.86533 10.211 3.94946C10.211 2.08836 8.69254 0.574219 6.82632 0.574219C4.96011 0.574219 3.44166 2.08836 3.44166 3.94946ZM9.55698 3.94946C9.55698 5.53721 8.27133 7.5516 6.82632 7.5516C5.38132 7.5516 4.09566 5.53721 4.09566 3.94946C4.09566 2.44889 5.32064 1.22822 6.82632 1.22822C8.332 1.22822 9.55698 2.44889 9.55698 3.94946ZM1.327 16.2695H12.1475C12.3282 16.2695 12.4745 16.1231 12.4745 15.9425V15.2587C12.6622 15.2886 12.8532 15.3085 13.0493 15.3085C15.0601 15.3085 16.6961 13.6757 16.6961 11.6688C16.6961 9.66178 15.0601 8.02901 13.0493 8.02901C11.8013 8.02901 10.6985 8.65874 10.0408 9.61588C9.31325 9.2019 8.49407 8.98383 7.6515 8.98383H5.82967C3.21589 8.98383 1.09452 11.0241 1 13.6404V15.9425C1 16.1231 1.14626 16.2695 1.327 16.2695ZM13.0493 8.68301C14.6996 8.68301 16.0421 10.0225 16.0421 11.6688C16.0421 13.3152 14.6996 14.6545 13.0493 14.6545C11.3992 14.6545 10.0567 13.3152 10.0567 11.6688C10.0567 10.0225 11.3992 8.68301 13.0493 8.68301ZM5.82967 9.63784H7.6515C8.38182 9.63784 9.09179 9.82736 9.72192 10.1868C9.51851 10.6401 9.40275 11.1408 9.40275 11.6688C9.40275 13.2448 10.4135 14.5862 11.8205 15.0913V15.6155H1.654L1.65368 13.6522C1.73511 11.4012 3.56939 9.63784 5.82967 9.63784Z" fill="black" stroke="black" stroke-width="0.6"/>
<path d="M11.6981 11.9978H14.3959C14.5766 11.9978 14.7229 11.8513 14.7229 11.6708C14.7229 11.4902 14.5766 11.3438 14.3959 11.3438H11.6981C11.5174 11.3438 11.3711 11.4902 11.3711 11.6708C11.3711 11.8513 11.5174 11.9978 11.6981 11.9978Z" fill="black" stroke="black" stroke-width="0.6"/>
</svg>
