<svg width="17" height="19" viewBox="0 0 17 19" fill="none" xmlns="http://www.w3.org/2000/svg">
<path d="M11.875 0C12.1899 0 12.492 0.11121 12.7147 0.309165C12.9374 0.50712 13.0625 0.775605 13.0625 1.05556H15.4375C15.7524 1.05556 16.0545 1.16677 16.2772 1.36472C16.4999 1.56268 16.625 1.83116 16.625 2.11111C16.625 2.39106 16.4999 2.65955 16.2772 2.8575C16.0545 3.05546 15.7524 3.16667 15.4375 3.16667H1.1875C0.872555 3.16667 0.57051 3.05546 0.347811 2.8575C0.125111 2.65955 0 2.39106 0 2.11111C0 1.83116 0.125111 1.56268 0.347811 1.36472C0.57051 1.16677 0.872555 1.05556 1.1875 1.05556H3.5625C3.5625 0.775605 3.68761 0.50712 3.91031 0.309165C4.13301 0.11121 4.43506 0 4.75 0H11.875Z" fill="#FFFFFF"/>
<path fill-rule="evenodd" clip-rule="evenodd" d="M1.1875 4.22217H15.4375V16.8888C15.4375 17.4487 15.1873 17.9857 14.7419 18.3816C14.2965 18.7775 13.6924 18.9999 13.0625 18.9999H3.5625C2.93261 18.9999 2.32852 18.7775 1.88312 18.3816C1.43772 17.9857 1.1875 17.4487 1.1875 16.8888V4.22217ZM5.34375 6.33328C5.18628 6.33328 5.03525 6.38888 4.9239 6.48786C4.81256 6.58684 4.75 6.72108 4.75 6.86106V16.3611C4.75 16.501 4.81256 16.6353 4.9239 16.7343C5.03525 16.8332 5.18628 16.8888 5.34375 16.8888C5.50122 16.8888 5.65225 16.8332 5.7636 16.7343C5.87495 16.6353 5.9375 16.501 5.9375 16.3611V6.86106C5.9375 6.72108 5.87495 6.58684 5.7636 6.48786C5.65225 6.38888 5.50122 6.33328 5.34375 6.33328ZM11.2813 6.33328C11.1238 6.33328 10.9728 6.38888 10.8614 6.48786C10.7501 6.58684 10.6875 6.72108 10.6875 6.86106V16.3611C10.6875 16.501 10.7501 16.6353 10.8614 16.7343C10.9728 16.8332 11.1238 16.8888 11.2813 16.8888C11.4387 16.8888 11.5897 16.8332 11.7011 16.7343C11.8124 16.6353 11.875 16.501 11.875 16.3611V6.86106C11.875 6.72108 11.8124 6.58684 11.7011 6.48786C11.5897 6.38888 11.4387 6.33328 11.2813 6.33328Z" fill="#FFFFFF"/>
</svg>
