<svg width="20" height="20" viewBox="0 0 20 20" fill="none" xmlns="http://www.w3.org/2000/svg">
<path d="M9.89693 11.1258L7.19258 13.8302C6.86898 14.1538 6.32216 14.1386 5.98007 13.7965C5.63798 13.4544 5.62279 12.9076 5.94639 12.584L8.65075 9.87962L5.79186 7.02073C5.44977 6.67864 5.43458 6.13183 5.75818 5.80823C6.08177 5.48463 6.62859 5.49982 6.97068 5.84191L9.82957 8.7008L12.5339 5.99645C12.8575 5.67285 13.4043 5.68804 13.7464 6.03013C14.0885 6.37222 14.1037 6.91903 13.7801 7.24263L11.0758 9.94698L13.9346 12.8059C14.2767 13.148 14.2919 13.6948 13.9683 14.0184C13.6447 14.342 13.0979 14.3268 12.7558 13.9847L9.89693 11.1258Z" fill="white"/>
<path d="M17.0946 9.91389C17.0946 10.2938 17.0693 10.6737 17.0186 11.0517C17.0322 10.9484 17.0459 10.8452 17.0595 10.7399C16.9602 11.4705 16.7634 12.1855 16.479 12.8655C16.5179 12.772 16.5569 12.6784 16.5958 12.5869C16.3153 13.2512 15.949 13.8747 15.5107 14.4474C15.5711 14.3695 15.6334 14.2896 15.6938 14.2117C15.2496 14.7845 14.7353 15.2988 14.1625 15.743C14.2404 15.6826 14.3203 15.6203 14.3982 15.5599C13.8274 15.9982 13.202 16.3645 12.5377 16.645C12.6312 16.6061 12.7247 16.5671 12.8163 16.5281C12.1363 16.8145 11.4213 17.0094 10.6907 17.1087C10.794 17.0951 10.8973 17.0814 11.0025 17.0678C10.2485 17.1691 9.48284 17.1691 8.72888 17.0678C8.83213 17.0814 8.93539 17.0951 9.04059 17.1087C8.31001 17.0094 7.59501 16.8126 6.91507 16.5281C7.00859 16.5671 7.1021 16.6061 7.19367 16.645C6.52932 16.3645 5.90589 15.9982 5.33311 15.5599C5.41104 15.6203 5.49091 15.6826 5.56884 15.743C4.99606 15.2988 4.48173 14.7845 4.03753 14.2117C4.09793 14.2896 4.16027 14.3695 4.22067 14.4474C3.78231 13.8766 3.41604 13.2512 3.1355 12.5869C3.17446 12.6804 3.21343 12.7739 3.25239 12.8655C2.966 12.1855 2.77118 11.4705 2.67182 10.7399C2.68546 10.8432 2.69909 10.9465 2.71273 11.0517C2.61142 10.2977 2.61142 9.53204 2.71273 8.77807C2.69909 8.88133 2.68546 8.98459 2.67182 9.08979C2.77118 8.3592 2.96795 7.6442 3.25239 6.96427C3.21343 7.05778 3.17446 7.1513 3.1355 7.24287C3.41604 6.57852 3.78231 5.95508 4.22067 5.3823C4.16027 5.46023 4.09793 5.54011 4.03753 5.61804C4.48173 5.04526 4.99606 4.53092 5.56884 4.08673C5.49091 4.14712 5.41104 4.20947 5.33311 4.26986C5.90394 3.83151 6.52932 3.46524 7.19367 3.1847C7.10015 3.22366 7.00664 3.26262 6.91507 3.30159C7.59501 3.0152 8.31001 2.82038 9.04059 2.72102C8.93734 2.73465 8.83408 2.74829 8.72888 2.76193C9.48284 2.66062 10.2485 2.66062 11.0025 2.76193C10.8992 2.74829 10.796 2.73465 10.6907 2.72102C11.4213 2.82038 12.1363 3.01715 12.8163 3.30159C12.7228 3.26262 12.6292 3.22366 12.5377 3.1847C13.202 3.46524 13.8255 3.83151 14.3982 4.26986C14.3203 4.20947 14.2404 4.14712 14.1625 4.08673C14.7353 4.53092 15.2496 5.04526 15.6938 5.61804C15.6334 5.54011 15.5711 5.46023 15.5107 5.3823C15.949 5.95314 16.3153 6.57852 16.5958 7.24287C16.5569 7.14935 16.5179 7.05584 16.479 6.96427C16.7653 7.6442 16.9602 8.3592 17.0595 9.08979C17.0459 8.98654 17.0322 8.88328 17.0186 8.77807C17.0693 9.15408 17.0946 9.53399 17.0946 9.91389C17.0946 10.2139 17.2251 10.5276 17.4375 10.7399C17.6401 10.9426 17.9732 11.0945 18.2635 11.0828C18.5655 11.0692 18.8792 10.9698 19.0896 10.7399C19.3 10.512 19.4325 10.2295 19.4325 9.91389C19.4305 8.93198 19.2825 7.93254 18.9785 6.99934C18.6844 6.0973 18.2655 5.22255 17.7122 4.4491C17.4122 4.02828 17.0868 3.62305 16.7283 3.25093C16.3679 2.87687 15.9705 2.55152 15.5574 2.23591C14.7976 1.65728 13.9482 1.22282 13.052 0.895521C12.1402 0.564321 11.1622 0.392876 10.1939 0.353912C9.74001 0.336377 9.28412 0.35586 8.83408 0.41041C8.29832 0.47665 7.77035 0.562373 7.25017 0.710438C6.33645 0.969553 5.44416 1.37089 4.65122 1.89496C3.86609 2.41319 3.14134 3.03858 2.54324 3.76527C2.21983 4.15881 1.91591 4.56794 1.65289 5.00629C1.38209 5.45634 1.16778 5.92976 0.967115 6.41487C0.595003 7.3208 0.398231 8.28712 0.32225 9.26124C0.246269 10.249 0.343681 11.264 0.577469 12.2264C0.680725 12.6492 0.817101 13.0642 0.984649 13.4655C1.18532 13.9487 1.40352 14.4202 1.67627 14.8683C2.15943 15.6631 2.76339 16.4035 3.45891 17.0211C4.16611 17.6484 4.95515 18.1919 5.81822 18.5816C6.29748 18.7978 6.78844 18.9927 7.29693 19.1329C7.8171 19.2771 8.34702 19.3628 8.88279 19.4252C9.87444 19.5401 10.8836 19.47 11.8597 19.2693C12.789 19.0803 13.6969 18.7277 14.5249 18.2679C15.3451 17.812 16.1107 17.2198 16.7575 16.5418C17.4063 15.8619 17.9732 15.0806 18.3921 14.237C18.8227 13.372 19.1422 12.4505 19.2883 11.4959C19.3682 10.9718 19.4247 10.4458 19.4247 9.91584C19.4247 9.61581 19.2941 9.3002 19.0818 9.08979C18.887 8.88523 18.5538 8.73132 18.2635 8.74495C17.9616 8.75859 17.6479 8.85795 17.4375 9.08784C17.2271 9.31579 17.0946 9.59633 17.0946 9.91389Z" fill="white"/>
</svg>
