<svg width="18" height="19" viewBox="0 0 18 19" fill="none" xmlns="http://www.w3.org/2000/svg">
<g id="fa6-solid:thumbs-down">
<path id="Vector" d="M6.98203 17.3434C6.06797 17.1605 5.47383 16.2711 5.65664 15.357L5.7375 14.9563C5.92383 14.0176 6.26836 13.1246 6.75 12.3125H1.6875C0.755859 12.3125 0 11.5566 0 10.625C0 9.97461 0.369141 9.40859 0.910547 9.12734C0.527344 8.81797 0.28125 8.34336 0.28125 7.8125C0.28125 6.98984 0.871874 6.3043 1.64883 6.15664C1.49414 5.9 1.40625 5.60117 1.40625 5.28125C1.40625 4.53242 1.89492 3.89609 2.56992 3.67813C2.54531 3.56211 2.53125 3.43906 2.53125 3.3125C2.53125 2.38086 3.28711 1.625 4.21875 1.625H7.64648C8.31445 1.625 8.96484 1.82187 9.52031 2.19102L10.8738 3.09453C11.8125 3.72031 12.375 4.775 12.375 5.90352V9.81289C12.375 10.8395 11.9074 11.8062 11.1094 12.4496L10.8492 12.657C9.91758 13.4023 9.28125 14.45 9.04922 15.6172L8.96836 16.018C8.78555 16.932 7.89609 17.5262 6.98203 17.3434ZM16.875 14H14.625C14.0027 14 13.5 13.4973 13.5 12.875V5C13.5 4.37773 14.0027 3.875 14.625 3.875H16.875C17.4973 3.875 18 4.37773 18 5V12.875C18 13.4973 17.4973 14 16.875 14Z" fill="#AFAFAF"/>
</g>
</svg>
