<svg xmlns="http://www.w3.org/2000/svg" width="82.59" height="96.987" viewBox="0 0 82.59 96.987"><g transform="translate(0)"><path d="M1345.74,834.586c-.14-5.932-3.815-10.05-9.774-10.49-10.369-.766-19.54-4.145-27.091-11.492a5.173,5.173,0,0,0-4.092-1.631c-.159-.015-.319-.023-.474-.023a6.482,6.482,0,0,0-4.426,2.059,45.254,45.254,0,0,1-6.091,4.79c-6.364,4.142-13.483,5.738-20.928,6.345a10.105,10.105,0,0,0-9.372,9.9c-.156,8.01-.429,16.024.357,24.022.793,8.09,2.5,15.929,6.212,23.23,6.349,12.466,16.718,20.245,29.48,25.209,1.688.656,3.322,1.57,5.241,1.384a3.474,3.474,0,0,0,1.851-.243c8.89-3.034,16.987-7.426,23.67-14.124,8.848-8.867,13.066-19.877,14.685-32.078C1346.172,852.513,1345.952,843.551,1345.74,834.586Zm-38.135,48.837c-.941.121-1.881.212-2.822.315-.9-.224-1.874.076-2.742-.375-9.846-.535-19.183-8.951-21.121-19.039a24.186,24.186,0,0,1,18.872-28.574,21,21,0,0,1,2.249-.25h0c.869-.448,1.839-.152,2.738-.375a27.189,27.189,0,0,1,11.53,3.076,23.463,23.463,0,0,1,8.621,8.181A24.135,24.135,0,0,1,1307.605,883.423Z" transform="translate(-1263.318 -810.95)" fill="#0abde3"/><path d="M1403.832,824.106c-10.37-.765-19.54-4.146-27.091-11.49a5.167,5.167,0,0,0-4.092-1.63h0q0,12.075,0,24.15h0c8.539.492,15.492,3.962,20.149,11.258a24.13,24.13,0,0,1-17.328,37.04c-.938.124-1.88.212-2.821.317h0V907.9a3.478,3.478,0,0,0,1.854-.242c8.888-3.036,16.985-7.426,23.67-14.126,8.845-8.867,13.064-19.877,14.681-32.078,1.184-8.93.966-17.893.754-26.858C1413.467,828.666,1409.792,824.546,1403.832,824.106Z" transform="translate(-1331.183 -810.962)" opacity="0.1"/><path d="M1363.225,915.6a3.382,3.382,0,0,0-4.838-.044c-6.712,6.742-8.144,8.2-8.4,8.458-3.043,3.072-3.048,3.068-6.212.107a7.635,7.635,0,0,0-.646-.589,3.455,3.455,0,0,0-4.582.153c-1.412,1.5-1.388,2.975.2,4.625,1.819,1.894,3.672,3.757,5.573,5.569,1.722,1.642,3.244,1.614,5,.041q1.3-1.159,2.589-2.326l11.264-11.264a3.381,3.381,0,0,0,.05-4.73Z" transform="translate(-1309.378 -875.264)" fill="#b2d0d6"/></g></svg>