<svg width="25" height="24" viewBox="0 0 25 24" fill="white" xmlns="http://www.w3.org/2000/svg">
<path fill-rule="evenodd" clip-rule="evenodd" d="M12.1074 24C15.29 24 18.3423 22.7357 20.5927 20.4853C22.8431 18.2348 24.1074 15.1826 24.1074 12C24.1074 8.8174 22.8431 5.76516 20.5927 3.51472C18.3423 1.26428 15.29 0 12.1074 0C8.92482 0 5.87258 1.26428 3.62214 3.51472C1.3717 5.76516 0.107422 8.8174 0.107422 12C0.107422 15.1826 1.3717 18.2348 3.62214 20.4853C5.87258 22.7357 8.92482 24 12.1074 24ZM13.6074 4.5C13.6074 4.10218 13.4494 3.72064 13.1681 3.43934C12.8868 3.15804 12.5052 3 12.1074 3C11.7096 3 11.3281 3.15804 11.0468 3.43934C10.7655 3.72064 10.6074 4.10218 10.6074 4.5V4.638C9.71143 4.7975 8.85656 5.13516 8.09342 5.631C7.01042 6.351 6.10742 7.5135 6.10742 9C6.10742 10.485 7.01042 11.6475 8.09342 12.369C8.81342 12.849 9.67442 13.1865 10.6074 13.362V16.2735C10.0209 16.083 9.58742 15.798 9.34292 15.5175C9.21603 15.3618 9.05915 15.2331 8.88159 15.1392C8.70403 15.0453 8.50942 14.9879 8.30929 14.9706C8.10916 14.9534 7.9076 14.9764 7.71656 15.0385C7.52552 15.1006 7.34889 15.2004 7.19716 15.332C7.04543 15.4637 6.92168 15.6244 6.83326 15.8048C6.74484 15.9852 6.69355 16.1815 6.68243 16.382C6.6713 16.5826 6.70058 16.7834 6.76852 16.9724C6.83646 17.1614 6.94167 17.3349 7.07792 17.4825C7.92092 18.456 9.19742 19.0965 10.6074 19.362V19.5C10.6074 19.8978 10.7655 20.2794 11.0468 20.5607C11.3281 20.842 11.7096 21 12.1074 21C12.5052 21 12.8868 20.842 13.1681 20.5607C13.4494 20.2794 13.6074 19.8978 13.6074 19.5V19.362C14.5034 19.2025 15.3583 18.8648 16.1214 18.369C17.2044 17.649 18.1074 16.4865 18.1074 15C18.1074 13.515 17.2044 12.3525 16.1214 11.631C15.3583 11.1352 14.5034 10.7975 13.6074 10.638V7.7265C14.1939 7.917 14.6274 8.202 14.8719 8.4825C15 8.63447 15.157 8.75947 15.3338 8.85024C15.5106 8.94101 15.7037 8.99573 15.9018 9.01124C16.1 9.02675 16.2992 9.00273 16.488 8.94057C16.6768 8.87842 16.8513 8.77937 17.0015 8.64918C17.1516 8.51899 17.2744 8.36025 17.3627 8.1822C17.451 8.00414 17.5031 7.81032 17.5158 7.61198C17.5285 7.41364 17.5017 7.21475 17.437 7.02687C17.3722 6.83898 17.2707 6.66583 17.1384 6.5175C16.2939 5.544 15.0189 4.9035 13.6074 4.638V4.5Z" fill="#454545"/>
</svg>
