<svg width="19" height="19" viewBox="0 0 19 19" fill="none" xmlns="http://www.w3.org/2000/svg">
<path d="M16.5577 18.2312C16.3973 18.2472 16.2358 18.2472 16.0754 18.2314L13.1894 17.652C12.7144 17.5597 12.2784 17.3262 11.9384 16.9821L2.12482 7.17542C1.38201 6.43244 0.953804 5.43196 0.929079 4.38163C0.904356 3.3313 1.28501 2.31178 1.99204 1.53467C2.35366 1.14025 2.79138 0.823114 3.27883 0.602363C3.76628 0.381612 4.29336 0.261814 4.82834 0.250184C5.41683 0.238503 6.00167 0.345285 6.54806 0.564182C7.09445 0.783078 7.59125 1.10962 8.0089 1.52438L17.7161 11.1839C18.0581 11.5256 18.2914 11.9606 18.3869 12.4345L18.952 15.3283C19.0179 15.681 19.0056 16.0439 18.916 16.3914C18.8264 16.7388 18.6616 17.0624 18.4332 17.3393C18.2049 17.6161 17.9186 17.8395 17.5946 17.9936C17.2705 18.1477 16.9166 18.2288 16.5577 18.2312ZM17.3743 15.6149L16.7929 12.7212C16.7648 12.5625 16.6875 12.4167 16.572 12.3043L6.8566 2.64477C6.60584 2.38888 6.30703 2.185 5.97731 2.04483C5.64759 1.90466 5.29344 1.83095 4.93517 1.82794L4.86977 1.82796C4.55135 1.83159 4.23703 1.90022 3.94609 2.02966C3.65514 2.15909 3.39369 2.34659 3.17779 2.58066C2.771 3.0285 2.5441 3.6109 2.54071 4.2159C2.53787 4.54199 2.60008 4.86536 2.72371 5.16712C2.84734 5.46887 3.02991 5.74294 3.26073 5.97329L13.0743 15.7799C13.1886 15.8929 13.3336 15.9696 13.4913 16.0005L16.4018 16.5963C16.5338 16.6215 16.67 16.6138 16.7983 16.5738C16.9267 16.5338 17.0431 16.4629 17.1375 16.3671C17.222 16.2698 17.2823 16.154 17.3136 16.0289C17.3448 15.9039 17.346 15.7732 17.3171 15.6477L17.3743 15.6149Z" fill="black"/>
</svg>
