<svg width="26" height="26" viewBox="0 0 26 26" fill="none" xmlns="http://www.w3.org/2000/svg">
<path d="M6.80501 13.5311V18.5955C6.80501 18.5957 6.80501 18.5959 6.80501 18.5961C6.80523 18.9256 7.07243 19.1926 7.40192 19.1924H12.4663C12.6246 19.1924 12.7764 19.1295 12.8883 19.0175L21.1569 10.7471C21.1585 10.7457 21.1607 10.7452 21.1621 10.7437C21.1637 10.7422 21.164 10.7402 21.1655 10.7386L24.5374 7.36608C24.5374 7.36608 24.5374 7.36601 24.5375 7.36593C24.7705 7.13284 24.7704 6.75503 24.5374 6.52209L19.4753 1.46003C19.4752 1.45996 19.4752 1.45989 19.4751 1.45981C19.242 1.22686 18.8642 1.22694 18.6312 1.46003L6.97989 13.1091C6.86789 13.221 6.80501 13.3728 6.80501 13.5311ZM19.0533 2.72606L23.2713 6.94412L20.7394 9.4766L16.5208 5.25803L19.0533 2.72606ZM7.99883 13.7782L15.6767 6.10202L19.8954 10.3207L12.2191 17.9986H7.99883V13.7782ZM24.1153 13.2233C23.7857 13.2233 23.5184 13.4906 23.5184 13.8202V21.58C23.5167 22.898 22.4488 23.966 21.1308 23.9676H4.41738C3.09941 23.966 2.03143 22.898 2.02975 21.58V4.8666C2.03143 3.54862 3.09941 2.48065 4.41738 2.47897H12.1772C12.5068 2.47897 12.7741 2.2117 12.7741 1.88206C12.7741 1.55242 12.5068 1.28516 12.1772 1.28516H4.41738C2.44027 1.28734 0.838123 2.88949 0.835938 4.8666V21.58C0.838123 23.5571 2.44027 25.1593 4.41738 25.1615H21.1308C23.1079 25.1593 24.7101 23.5571 24.7122 21.58V13.8202C24.7122 13.4906 24.445 13.2233 24.1153 13.2233Z" fill="black" stroke="black" stroke-width="1.2"/>
</svg>
