<svg width="24" height="24" viewBox="0 0 24 24" fill="none" xmlns="http://www.w3.org/2000/svg">
<path d="M20.2081 0L24 3.79186L21.1093 6.68379L17.3175 2.89193L20.2081 0ZM6.31982 17.6802H10.1117L19.3221 8.46976L15.5303 4.67789L6.31982 13.8883V17.6802Z" fill="black"/>
<path d="M20.2233 21.472H6.51947C6.48661 21.472 6.45248 21.4847 6.41962 21.4847C6.37791 21.4847 6.3362 21.4733 6.29323 21.472H2.52791V3.77669H11.1822L13.7101 1.24878H2.52791C1.13377 1.24878 0 2.38128 0 3.77669V21.472C0 22.8674 1.13377 23.9999 2.52791 23.9999H20.2233C20.8937 23.9999 21.5367 23.7336 22.0108 23.2595C22.4848 22.7855 22.7512 22.1425 22.7512 21.472V10.5161L20.2233 13.044V21.472Z" fill="black"/>
</svg>
