<svg width="30" height="35" viewBox="0 0 30 35" fill="none" xmlns="http://www.w3.org/2000/svg">
<path d="M8.47018 35C1.11797 30.9585 -0.81771 27.1331 0.288974 21.9085C1.10598 18.0506 3.78121 14.9118 4.03773 11.0613C5.18051 13.0897 5.65801 14.5523 5.7857 16.6719C9.42031 12.3286 11.8221 6.31593 11.9644 0C11.9644 0 21.4312 5.42529 22.0524 13.6203C22.8674 11.9311 23.2776 9.2484 22.4626 7.50972C24.9075 9.24849 39.2176 24.6842 20.5243 35C24.0388 28.3256 21.431 19.3197 15.3288 15.1603C15.7364 16.9488 15.0219 23.6193 12.3222 26.5503C13.0703 21.6528 11.6105 19.5819 11.6105 19.5819C11.6105 19.5819 11.1095 22.3251 9.16565 25.0963C7.39056 27.6268 6.16061 30.3127 8.47018 35Z" fill="black"/>
</svg>
