<svg width="29" height="38" viewBox="0 0 29 38" fill="none" xmlns="http://www.w3.org/2000/svg">
<path d="M11.0363 3.22222H18.0446C18.9307 3.22222 19.6557 2.49722 19.6557 1.61111C19.6557 0.725 18.9307 0 18.0446 0H11.0363C10.1502 0 9.42517 0.725 9.42517 1.61111C9.42517 2.49722 10.1502 3.22222 11.0363 3.22222Z" fill="black"/>
<path d="M16.6748 4.75293H12.3248V7.49182H16.6748V4.75293Z" fill="black"/>
<path d="M14.5 8.94141C6.525 8.94141 0 15.4664 0 23.4414C0 31.4164 6.525 37.9414 14.5 37.9414C22.475 37.9414 29 31.4164 29 23.4414C29 15.4664 22.475 8.94141 14.5 8.94141ZM16.9167 23.4414C16.9167 24.8109 15.7889 25.8581 14.5 25.8581C13.1306 25.8581 12.0833 24.7303 12.0833 23.4414C12.0833 22.072 13.2111 21.0247 14.5 21.0247C14.9028 21.0247 15.225 21.1053 15.5472 21.2664L21.9917 14.822L23.1194 15.9497L16.675 22.3942C16.8361 22.7164 16.9167 23.0386 16.9167 23.4414Z" fill="black"/>
</svg>
