<svg width="37" height="27" viewBox="0 0 37 27" fill="none" xmlns="http://www.w3.org/2000/svg">
<path d="M18.5 18C19.4283 18 20.3185 17.5786 20.9749 16.8284C21.6313 16.0783 22 15.0609 22 14C22 12.9391 21.6313 11.9217 20.9749 11.1716C20.3185 10.4214 19.4283 10 18.5 10C17.5717 10 16.6815 10.4214 16.0251 11.1716C15.3687 11.9217 15 12.9391 15 14C15 15.0609 15.3687 16.0783 16.0251 16.8284C16.6815 17.5786 17.5717 18 18.5 18Z" fill="white"/>
<path fill-rule="evenodd" clip-rule="evenodd" d="M0 13.5C2.47003 5.67579 9.81807 0 18.5 0C27.1819 0 34.53 5.67579 37 13.5C34.53 21.3242 27.1819 27 18.5 27C9.81807 27 2.47003 21.3242 0 13.5ZM26.2552 13.5C26.2552 15.546 25.4381 17.5081 23.9837 18.9548C22.5294 20.4015 20.5568 21.2143 18.5 21.2143C16.4432 21.2143 14.4706 20.4015 13.0163 18.9548C11.5619 17.5081 10.7448 15.546 10.7448 13.5C10.7448 11.454 11.5619 9.49189 13.0163 8.04518C14.4706 6.59847 16.4432 5.78571 18.5 5.78571C20.5568 5.78571 22.5294 6.59847 23.9837 8.04518C25.4381 9.49189 26.2552 11.454 26.2552 13.5Z" fill="white"/>
</svg>
