<svg width="18" height="18" viewBox="0 0 18 18" fill="none" xmlns="http://www.w3.org/2000/svg">
<path d="M9 0.625C7.36831 0.625 5.77326 1.12993 4.41655 2.07594C3.05984 3.02195 2.00242 4.36655 1.378 5.93971C0.753575 7.51287 0.590197 9.24392 0.908525 10.914C1.22685 12.584 2.01259 14.1181 3.16637 15.3221C4.32016 16.5262 5.79017 17.3461 7.39051 17.6783C8.99085 18.0105 10.6497 17.84 12.1571 17.1884C13.6646 16.5368 14.9531 15.4333 15.8596 14.0175C16.7661 12.6017 17.25 10.9371 17.25 9.23437C17.25 6.95103 16.3808 4.7612 14.8336 3.14663C13.2865 1.53206 11.188 0.625 9 0.625ZM9 16.4089C7.64026 16.4089 6.31105 15.9881 5.18046 15.1997C4.04987 14.4114 3.16868 13.2909 2.64833 11.9799C2.12798 10.669 1.99183 9.22642 2.2571 7.8347C2.52238 6.44299 3.17716 5.16462 4.13864 4.16125C5.10013 3.15788 6.32514 2.47458 7.65876 2.19775C8.99238 1.92092 10.3747 2.063 11.631 2.60602C12.8872 3.14904 13.9609 4.06861 14.7164 5.24845C15.4718 6.42828 15.875 7.8154 15.875 9.23437C15.875 11.1372 15.1507 12.962 13.8614 14.3075C12.5721 15.653 10.8234 16.4089 9 16.4089Z" fill="#231F20"/>
<path d="M9.5908 4.34847C8.93066 4.19537 8.24057 4.30585 7.65221 4.65884C7.06384 5.01183 6.61837 5.58262 6.4008 6.2623C6.37095 6.35334 6.3587 6.44984 6.36481 6.54603C6.37091 6.64221 6.39524 6.7361 6.43633 6.82205C6.47742 6.90801 6.53443 6.98425 6.60393 7.04623C6.67344 7.1082 6.754 7.15461 6.8408 7.18269C6.92746 7.21205 7.01874 7.22285 7.10935 7.21446C7.19996 7.20607 7.28811 7.17866 7.36868 7.13382C7.44925 7.08898 7.52064 7.0276 7.57873 6.95323C7.63681 6.87886 7.68043 6.79299 7.70705 6.70058C7.81923 6.3708 8.0393 6.09489 8.32708 5.92323C8.61487 5.75157 8.95116 5.69561 9.27455 5.76558C9.58938 5.86684 9.8596 6.08466 10.0362 6.37951C10.2128 6.67436 10.2841 7.02671 10.2371 7.37261C10.1645 7.69947 9.98812 7.98977 9.73768 8.19466C9.48724 8.39955 9.17802 8.50651 8.86205 8.49753C8.76509 8.48508 8.66675 8.49472 8.57356 8.52581C8.48038 8.5569 8.3945 8.60872 8.32165 8.67784C8.2488 8.74695 8.19064 8.83177 8.15105 8.92663C8.11146 9.0215 8.09135 9.12423 8.09205 9.228V11.5071C8.09205 11.7008 8.16449 11.8866 8.29342 12.0236C8.42235 12.1606 8.59722 12.2375 8.77955 12.2375C8.86918 12.2395 8.95827 12.2224 9.04161 12.1873C9.12495 12.1522 9.20085 12.0998 9.26488 12.0331C9.32891 11.9664 9.37977 11.8869 9.41449 11.799C9.4492 11.7112 9.46707 11.6169 9.46705 11.5217V9.91464C9.99486 9.79653 10.4783 9.51611 10.8573 9.10829C11.2362 8.70046 11.4939 8.18323 11.5983 7.62097C11.7027 6.90843 11.5555 6.18003 11.1849 5.5759C10.8143 4.97177 10.2465 4.53459 9.5908 4.34847ZM8.7383 12.8803C8.55918 12.8908 8.39 12.9712 8.26314 13.106C8.13629 13.2407 8.06069 13.4205 8.0508 13.6108V13.7715C8.05256 13.863 8.07149 13.9531 8.10649 14.0367C8.14148 14.1203 8.19184 14.1955 8.2546 14.2581C8.31737 14.3208 8.39127 14.3694 8.47197 14.4012C8.55267 14.4331 8.63855 14.4475 8.72455 14.4436C8.90824 14.4325 9.0812 14.3481 9.20872 14.2072C9.33624 14.0663 9.40888 13.8793 9.41205 13.6839V13.567C9.41213 13.4743 9.39455 13.3826 9.36037 13.2973C9.32619 13.212 9.27611 13.135 9.21316 13.0708C9.1502 13.0067 9.07568 12.9567 8.99407 12.924C8.91246 12.8912 8.82546 12.8764 8.7383 12.8803Z" fill="#231F20"/>
</svg>
