<svg width="64" height="23" viewBox="0 0 64 23" fill="none" xmlns="http://www.w3.org/2000/svg">
<rect width="64" height="23" rx="5" fill="#BAD7E9"/>
<circle cx="12" cy="12" r="8" fill="white"/>
<path d="M11.2275 15.3158C11.2275 15.4973 11.3089 15.6713 11.4538 15.7996C11.5986 15.9279 11.7951 16 12 16C12.2049 16 12.4014 15.9279 12.5462 15.7996C12.6911 15.6713 12.7725 15.4973 12.7725 15.3158C12.7725 15.226 12.7525 15.137 12.7137 15.054C12.6749 14.971 12.618 14.8956 12.5462 14.8321C12.4745 14.7685 12.3893 14.7181 12.2956 14.6838C12.2019 14.6494 12.1014 14.6317 12 14.6317C11.8986 14.6317 11.7981 14.6494 11.7044 14.6838C11.6107 14.7181 11.5255 14.7685 11.4538 14.8321C11.382 14.8956 11.3251 14.971 11.2863 15.054C11.2475 15.137 11.2275 15.226 11.2275 15.3158ZM13.3613 12.7333C14.448 12.2033 15 11.4347 15 10.4497C15 8.75789 13.4932 8 12 8C10.5457 8 9 8.9359 9 10.6709C9 10.847 9.07902 11.016 9.21967 11.1406C9.36032 11.2651 9.55109 11.3351 9.75 11.3351C9.94891 11.3351 10.1397 11.2651 10.2803 11.1406C10.421 11.016 10.5 10.847 10.5 10.6709C10.5 9.74826 11.2777 9.32846 12 9.32846C12.5602 9.32846 13.5 9.47393 13.5 10.4497C13.5 10.7957 13.3972 11.1996 12.6382 11.5702C12.1222 11.8207 11.25 12.4709 11.25 13.3138C11.25 13.49 11.329 13.659 11.4697 13.7835C11.6103 13.9081 11.8011 13.9781 12 13.9781C12.1989 13.9781 12.3897 13.9081 12.5303 13.7835C12.671 13.659 12.75 13.49 12.75 13.3138C12.75 13.1903 13.0463 12.8867 13.3613 12.7333Z" fill="#4E4E4E"/>
<path d="M33.234 6.1V7.341H26.026V11.591H32.469V12.815H26.026V18H24.683V6.1H33.234ZM40.1389 6.015L45.5619 18H44.1169L42.7229 14.855H36.2459L34.8349 18H33.4579L38.8809 6.015H40.1389ZM42.1959 13.648L39.4929 7.579L36.7729 13.648H42.1959ZM57.3943 16.045L58.9753 17.354L58.0573 18.357L56.4933 16.929C55.9833 17.3257 55.4167 17.6373 54.7933 17.864C54.17 18.0907 53.4843 18.204 52.7363 18.204C51.8297 18.204 51.0023 18.0397 50.2543 17.711C49.5177 17.3823 48.883 16.9403 48.3503 16.385C47.8177 15.8183 47.404 15.1667 47.1093 14.43C46.826 13.682 46.6843 12.8943 46.6843 12.067C46.6843 11.2397 46.8317 10.4577 47.1263 9.721C47.421 8.973 47.8347 8.31567 48.3673 7.749C48.9 7.18233 49.5403 6.73467 50.2883 6.406C51.0363 6.066 51.8637 5.896 52.7703 5.896C53.677 5.896 54.4987 6.06033 55.2353 6.389C55.9833 6.71767 56.6237 7.16533 57.1563 7.732C57.689 8.28733 58.097 8.939 58.3803 9.687C58.675 10.4237 58.8223 11.2057 58.8223 12.033C58.8223 12.781 58.6977 13.5007 58.4483 14.192C58.2103 14.8833 57.859 15.501 57.3943 16.045ZM55.5073 16.062L53.2973 14.175L54.1983 13.172L56.3913 15.161C56.72 14.7417 56.975 14.2713 57.1563 13.75C57.3377 13.2173 57.4283 12.6563 57.4283 12.067C57.4283 11.387 57.3093 10.7467 57.0713 10.146C56.8447 9.54533 56.5217 9.024 56.1023 8.582C55.683 8.14 55.1843 7.78867 54.6063 7.528C54.0397 7.26733 53.4163 7.137 52.7363 7.137C52.0563 7.137 51.4273 7.26733 50.8493 7.528C50.2827 7.77733 49.7953 8.123 49.3873 8.565C48.9793 9.007 48.6563 9.52833 48.4183 10.129C48.1917 10.7183 48.0783 11.353 48.0783 12.033C48.0783 12.713 48.1917 13.3533 48.4183 13.954C48.6563 14.5547 48.985 15.076 49.4043 15.518C49.8237 15.96 50.3167 16.3113 50.8833 16.572C51.4613 16.8327 52.0903 16.963 52.7703 16.963C53.303 16.963 53.8017 16.8837 54.2663 16.725C54.731 16.5663 55.1447 16.3453 55.5073 16.062Z" fill="black"/>
</svg>
