<svg width="24" height="23" viewBox="0 0 24 23" fill="none" xmlns="http://www.w3.org/2000/svg">
<path d="M18.3771 22.9999C18.057 22.9996 17.7443 22.9033 17.479 22.7233L12.076 19.0838C12.0494 19.0654 12.0179 19.0555 11.9855 19.0555C11.9532 19.0555 11.9216 19.0654 11.895 19.0838L6.49204 22.7233C6.22073 22.9054 5.90073 23.0002 5.57453 22.9952C5.24834 22.9901 4.93138 22.8855 4.66576 22.6952C4.40013 22.5048 4.1984 22.2378 4.08736 21.9295C3.97632 21.6212 3.96122 21.2862 4.04406 20.9691L5.81848 14.68C5.82687 14.6484 5.82585 14.615 5.81556 14.584C5.80526 14.5529 5.78613 14.5256 5.76054 14.5053L0.647301 10.4655C0.378123 10.264 0.178453 9.9828 0.0762871 9.66146C-0.0258785 9.34012 -0.0254163 8.99469 0.0776091 8.67363C0.180634 8.35256 0.381057 8.07195 0.650773 7.87114C0.920489 7.67034 1.24597 7.5594 1.58159 7.55389L8.09989 7.3064C8.13194 7.30418 8.16266 7.29269 8.18836 7.27332C8.21406 7.25395 8.23364 7.22752 8.24474 7.19722L10.4899 1.06102C10.6031 0.749949 10.8086 0.481338 11.0787 0.291559C11.3488 0.10178 11.6704 0 12 0C12.3296 0 12.6512 0.10178 12.9213 0.291559C13.1914 0.481338 13.3969 0.749949 13.5101 1.06102L15.7553 7.19722C15.7664 7.22752 15.7859 7.25395 15.8116 7.27332C15.8373 7.29269 15.8681 7.30418 15.9001 7.3064L22.4184 7.55389C22.754 7.5594 23.0795 7.67034 23.3492 7.87114C23.6189 8.07195 23.8194 8.35256 23.9224 8.67363C24.0254 8.99469 24.0259 9.34012 23.9237 9.66146C23.8215 9.9828 23.6219 10.264 23.3527 10.4655L18.2395 14.5053C18.2131 14.5249 18.1934 14.5522 18.183 14.5835C18.1726 14.6147 18.1721 14.6485 18.1815 14.68L19.9559 20.9691C20.0182 21.2103 20.0244 21.4627 19.974 21.7067C19.9236 21.9507 19.818 22.1798 19.6653 22.3762C19.5126 22.5726 19.317 22.731 19.0936 22.8391C18.8702 22.9473 18.625 23.0023 18.3771 22.9999ZM11.9891 17.5989C12.3099 17.6088 12.6202 17.7153 12.88 17.9046L18.2829 21.5441C18.3103 21.565 18.3437 21.5765 18.3781 21.5768C18.4125 21.577 18.446 21.5661 18.4737 21.5456C18.5014 21.5252 18.5218 21.4962 18.5318 21.4632C18.5418 21.4301 18.5409 21.3947 18.5292 21.3622L16.7547 15.0731C16.6674 14.7646 16.6739 14.4369 16.7732 14.1321C16.8726 13.8273 17.0604 13.5593 17.3124 13.3625L22.4257 9.32269C22.4535 9.303 22.4744 9.27484 22.4852 9.24234C22.496 9.20984 22.4961 9.17473 22.4856 9.14215C22.4751 9.10957 22.4544 9.08124 22.4267 9.06133C22.3989 9.04142 22.3656 9.03097 22.3315 9.03153L15.8132 8.78404C15.494 8.77154 15.1858 8.66378 14.9278 8.4745C14.6698 8.28523 14.4738 8.02302 14.3647 7.72131L12.1195 1.58511C12.1094 1.55253 12.0892 1.52405 12.0618 1.50383C12.0344 1.48361 12.0014 1.47271 11.9674 1.47271C11.9334 1.47271 11.9004 1.48361 11.873 1.50383C11.8457 1.52405 11.8254 1.55253 11.8153 1.58511L9.59185 7.71403C9.48275 8.01574 9.2867 8.27795 9.02872 8.46722C8.77074 8.6565 8.46251 8.76426 8.14334 8.77676L1.62505 9.02425C1.59096 9.02369 1.5576 9.03414 1.52987 9.05405C1.50213 9.07396 1.48148 9.10229 1.47094 9.13487C1.4604 9.16745 1.46054 9.20257 1.47133 9.23506C1.48212 9.26756 1.503 9.29572 1.53089 9.31541L6.65138 13.3625C6.90265 13.5599 7.08984 13.828 7.18914 14.1325C7.28845 14.4371 7.29538 14.7645 7.20905 15.0731L5.44187 21.3622C5.43132 21.3936 5.43127 21.4277 5.44173 21.4593C5.45218 21.4908 5.47257 21.518 5.49981 21.5368C5.52605 21.5594 5.55944 21.5718 5.59396 21.5718C5.62849 21.5718 5.66188 21.5594 5.68812 21.5368L11.0911 17.8973C11.3551 17.7213 11.665 17.6276 11.9819 17.628L11.9891 17.5989Z" fill="black"/>
</svg>
