<svg width="19" height="19" viewBox="0 0 19 19" fill="none" xmlns="http://www.w3.org/2000/svg">
<path d="M17.8146 13.1699H8.1146L7.9726 13.1819H7.9166C7.68176 12.4764 7.23148 11.8625 6.62922 11.4265C6.02696 10.9906 5.30308 10.7546 4.5596 10.7519C3.89108 10.7393 3.23207 10.9117 2.65536 11.25C2.07865 11.5884 1.60666 12.0796 1.29152 12.6693C0.976373 13.259 0.830331 13.9243 0.869518 14.5918C0.908705 15.2593 1.1316 15.903 1.51358 16.4518C1.89556 17.0006 2.42178 17.4332 3.03412 17.7017C3.64647 17.9703 4.32112 18.0644 4.98358 17.9737C5.64604 17.8829 6.27054 17.6109 6.78813 17.1876C7.30571 16.7643 7.69624 16.2062 7.9166 15.5749C7.9827 15.5856 8.04967 15.5899 8.1166 15.5879H17.8166L17.9586 15.5749C18.2546 15.5277 18.5225 15.3722 18.7102 15.1385C18.898 14.9049 18.9921 14.6098 18.9744 14.3106C18.9567 14.0113 18.8284 13.7294 18.6145 13.5195C18.4005 13.3096 18.1161 13.1868 17.8166 13.1749L17.8146 13.1699ZM4.5596 15.5929C4.3197 15.5978 4.08374 15.5313 3.88177 15.4017C3.67981 15.2721 3.52097 15.0854 3.42547 14.8653C3.32998 14.6451 3.30215 14.4015 3.34554 14.1655C3.38892 13.9295 3.50155 13.7118 3.66909 13.54C3.83663 13.3682 4.0515 13.2502 4.28635 13.2009C4.52119 13.1516 4.76539 13.1733 4.98785 13.2633C5.21031 13.3532 5.40096 13.5074 5.53555 13.706C5.67013 13.9047 5.74256 14.1389 5.7436 14.3789C5.74734 14.6968 5.62475 15.0032 5.40276 15.2308C5.18077 15.4584 4.87752 15.5886 4.5596 15.5929Z" fill="white"/>
<path d="M17.8163 2.42275H16.4243L16.2823 2.43575H16.2233C15.9905 1.72906 15.5406 1.11384 14.9378 0.677728C14.3349 0.241613 13.6098 0.00683594 12.8658 0.00683594C12.1217 0.00683594 11.3967 0.241613 10.7938 0.677728C10.191 1.11384 9.7411 1.72906 9.50829 2.43575C9.44219 2.4251 9.37522 2.42074 9.30829 2.42275H2.18829L2.04529 2.43575C1.74929 2.48291 1.48139 2.63843 1.29365 2.87208C1.10592 3.10574 1.01175 3.40085 1.02945 3.70006C1.04716 3.99927 1.17547 4.28121 1.38945 4.4911C1.60343 4.70099 1.8878 4.82383 2.18729 4.83575H9.30629L9.44829 4.82375H9.50829C9.7411 5.53045 10.191 6.14566 10.7938 6.58178C11.3967 7.01789 12.1217 7.25267 12.8658 7.25267C13.6098 7.25267 14.3349 7.01789 14.9378 6.58178C15.5406 6.14566 15.9905 5.53045 16.2233 4.82375C16.2895 4.83366 16.3564 4.83767 16.4233 4.83575H17.8143L17.9563 4.82375C18.2572 4.78155 18.5312 4.6276 18.7237 4.39254C18.9162 4.15748 19.0131 3.85855 18.9952 3.55524C18.9773 3.25194 18.8459 2.96649 18.6271 2.75571C18.4082 2.54493 18.1181 2.42427 17.8143 2.41775L17.8163 2.42275ZM12.8653 4.84075C12.6252 4.84532 12.3893 4.77832 12.1875 4.64828C11.9856 4.51824 11.8271 4.33105 11.7321 4.11058C11.637 3.8901 11.6098 3.64632 11.6538 3.4103C11.6978 3.17429 11.8111 2.95672 11.9792 2.78533C12.1474 2.61394 12.3627 2.49649 12.5978 2.44794C12.833 2.3994 13.0772 2.42196 13.2995 2.51275C13.5217 2.60354 13.7119 2.75845 13.8458 2.95774C13.9797 3.15703 14.0512 3.39167 14.0513 3.63175C14.0537 3.94916 13.9302 4.25459 13.708 4.48118C13.4857 4.70777 13.1827 4.83706 12.8653 4.84075Z" fill="white"/>
</svg>
