<svg xmlns="http://www.w3.org/2000/svg" width="20" height="20" viewBox="0 0 20 20">
  <g id="Group_102" data-name="Group 102" transform="translate(-2 -2)">
    <g id="Group_101" data-name="Group 101">
      <path id="Path_119" data-name="Path 119" d="M18.5,7.74a.5.5,0,0,1-.317-.113A.752.752,0,0,0,17.7,7.46H6.3a.752.752,0,0,0-.483.167A.5.5,0,0,1,5,7.24V6.57A1.642,1.642,0,0,1,6.64,4.93H17.36A1.642,1.642,0,0,1,19,6.57v.67a.5.5,0,0,1-.286.452A.491.491,0,0,1,18.5,7.74ZM6.3,6.46H17.7a1.794,1.794,0,0,1,.294.024.641.641,0,0,0-.634-.554H6.64a.641.641,0,0,0-.634.554A1.794,1.794,0,0,1,6.3,6.46Z" fill="#959fae"/>
      <path id="Path_120" data-name="Path 120" d="M19,9.7a.5.5,0,0,1-.31-.108.716.716,0,0,0-.293-.123,1.106,1.106,0,0,0-.117-.009H5.72a.962.962,0,0,0-.147.015.657.657,0,0,0-.263.118.505.505,0,0,1-.528.057A.5.5,0,0,1,4.5,9.2V8.26a1.81,1.81,0,0,1,1.8-1.8H17.7a1.761,1.761,0,0,1,1.117.394A1.733,1.733,0,0,1,19.5,8.26V9.2a.5.5,0,0,1-.5.5ZM6.3,7.46a.752.752,0,0,0-.483.167A.767.767,0,0,0,5.5,8.26v.216a1.664,1.664,0,0,1,.22-.016H18.28a1.678,1.678,0,0,1,.22.015V8.26a.754.754,0,0,0-.3-.618.771.771,0,0,0-.5-.182Z" fill="#959fae"/>
      <path id="Path_121" data-name="Path 121" d="M18.28,19.46H5.72A1.722,1.722,0,0,1,4,17.74V10.19A1.73,1.73,0,0,1,4.7,8.8,1.661,1.661,0,0,1,5.4,8.491,2.029,2.029,0,0,1,5.72,8.46H18.28a2.024,2.024,0,0,1,.292.025A1.736,1.736,0,0,1,20,10.19v7.55A1.722,1.722,0,0,1,18.28,19.46ZM5.72,9.46a.962.962,0,0,0-.147.015.657.657,0,0,0-.263.118.735.735,0,0,0-.31.6v7.55a.721.721,0,0,0,.72.72H18.28a.721.721,0,0,0,.72-.72V10.19a.724.724,0,0,0-.3-.586.713.713,0,0,0-.307-.135,1.106,1.106,0,0,0-.117-.009Z" fill="#959fae"/>
      <path id="Icon_material-done" data-name="Icon material-done" d="M7.154,12.289,5.614,10.748l-.514.514,2.054,2.054,4.4-4.4L11.043,8.4Z" transform="translate(3.872 3.192)" fill="#959fae"/>
    </g>
    <rect id="Rectangle_237" data-name="Rectangle 237" width="20" height="20" transform="translate(2 2)" fill="none"/>
  </g>
</svg>
