<svg width="31" height="31" viewBox="0 0 31 31" fill="none" xmlns="http://www.w3.org/2000/svg">
<path d="M15.3995 18.2506C15.9006 18.2942 15.9973 18.4958 16.2598 18.8164C17.461 20.2674 18.0934 22.1121 18.0376 24.0015C17.9731 25.5039 16.3169 26.51 14.8873 26.9653C11.8477 27.9315 8.25989 27.9232 5.64299 26.1236C5.21098 25.8516 4.85828 25.4688 4.62087 25.0144C4.38347 24.56 4.26988 24.0502 4.29171 23.537C4.36373 21.7512 5.0273 20.0413 6.17632 18.6807C6.61845 18.1679 7.74222 18.1409 7.85644 19.083C7.92092 19.5996 7.43733 20.0065 7.15178 20.432C6.48149 21.4513 6.12218 22.6465 6.11829 23.8696C6.11368 24.6603 7.5147 25.1424 8.82914 25.4175C10.8411 25.8845 12.945 25.741 14.8763 25.0049C15.4907 24.7494 16.2018 24.283 16.2101 23.9142C16.2221 22.4213 15.6942 20.9752 14.7252 19.8467L14.6331 19.7454C14.5464 19.6576 14.4838 19.5486 14.4515 19.4291C14.4192 19.3095 14.4183 19.1835 14.4489 19.0635C14.4761 18.8666 14.5641 18.6833 14.7003 18.5395C14.8365 18.3958 15.0141 18.2989 15.2079 18.2626C15.2724 18.2496 15.3385 18.2455 15.4041 18.2506H15.3995ZM24.1114 12.7012C24.2781 12.7285 24.4375 12.7898 24.58 12.8811C24.7225 12.9725 24.8451 13.092 24.9404 13.2326C26.1413 14.687 26.7825 16.5291 26.7468 18.4215C26.7468 18.4834 26.7425 18.5454 26.7339 18.6073C26.5782 19.9786 25.1422 20.9031 23.7236 21.3778C22.504 21.7679 21.2311 21.9623 19.9517 21.9539C19.8223 21.958 19.6934 21.9358 19.5726 21.8888C19.4519 21.8417 19.3417 21.7706 19.2487 21.6798C19.1557 21.589 19.0817 21.4803 19.031 21.3601C18.9804 21.24 18.9543 21.1108 18.9541 20.9802C18.9836 20.4302 19.5307 20.1134 20.1561 20.1013C21.6627 20.1711 23.1553 19.7827 24.4403 18.9864C24.5721 18.9108 24.6838 18.8043 24.7661 18.6759C24.8484 18.5475 24.8987 18.4009 24.9128 18.2487C24.8958 16.7734 24.3527 15.3535 23.3828 14.249C23.2315 14.0604 23.1483 13.8255 23.147 13.5829C23.1656 13.3403 23.2754 13.1141 23.4541 12.9507C23.6327 12.7872 23.8666 12.699 24.1078 12.704L24.1114 12.7012Z" fill="#4496D2"/>
<path d="M11.1916 8.9996C12.2505 9.03065 13.2681 9.42027 14.0807 10.1057C14.8933 10.7911 15.4535 11.7325 15.671 12.7782C15.8373 13.8135 15.6605 14.8752 15.1682 15.7989C14.6758 16.7227 13.8952 17.457 12.9473 17.8881C11.863 18.3096 10.663 18.3155 9.57472 17.9046C8.48641 17.4936 7.58528 16.6944 7.04199 15.6583C6.54516 14.5364 6.49457 13.2648 6.90067 12.1064C7.30677 10.9479 8.13854 9.99105 9.22412 9.43348C9.84042 9.14489 10.5122 8.99675 11.1916 8.9996ZM11.1447 10.8494C10.6944 10.8764 10.2569 11.0106 9.868 11.2411C9.47909 11.4715 9.14983 11.7916 8.90719 12.1751C8.66455 12.5586 8.51544 12.9946 8.47206 13.4475C8.42868 13.9003 8.49228 14.357 8.65763 14.7803C8.97072 15.4115 9.50266 15.9047 10.1525 16.1664C10.8023 16.4281 11.5248 16.4401 12.1828 16.1999C12.5274 16.0458 12.8382 15.8241 13.0973 15.5479C13.3563 15.2716 13.5584 14.9463 13.6919 14.5907C13.8254 14.2351 13.8876 13.8563 13.8749 13.4762C13.8622 13.0962 13.7748 12.7225 13.6179 12.3768C13.3813 11.9196 13.0259 11.536 12.5898 11.267C12.1536 10.9979 11.6531 10.8536 11.1419 10.8494H11.1447ZM19.9027 3.44929C20.9566 3.48044 21.9699 3.86674 22.7808 4.54655C23.5917 5.22636 24.1535 6.16052 24.3765 7.19998C24.5483 8.23843 24.3748 9.30503 23.8832 10.2337C23.3916 11.1625 22.6094 11.9012 21.6583 12.335C20.574 12.7566 19.3741 12.7624 18.2858 12.3515C17.1974 11.9405 16.2963 11.1413 15.753 10.1052C15.2558 8.98323 15.2051 7.71143 15.6114 6.55283C16.0177 5.39422 16.85 4.43745 17.9361 3.88038C18.5522 3.59271 19.2237 3.44552 19.9027 3.44929ZM19.8557 5.29908C19.4054 5.32611 18.9679 5.46034 18.579 5.69076C18.1901 5.92119 17.8609 6.24127 17.6182 6.62478C17.3756 7.00829 17.2265 7.44431 17.1831 7.89715C17.1397 8.34998 17.2033 8.80674 17.3687 9.23001C17.6816 9.86134 18.2135 10.3548 18.8633 10.6167C19.5131 10.8785 20.2357 10.8906 20.8938 10.6506C21.2373 10.497 21.5473 10.2764 21.806 10.0015C22.0647 9.72659 22.2668 9.40278 22.4009 9.04873C22.535 8.69467 22.5983 8.31736 22.5872 7.93852C22.5761 7.55969 22.4908 7.18681 22.3363 6.84135C22.1006 6.37985 21.7443 5.99213 21.306 5.72013C20.8676 5.44813 20.3639 5.30221 19.8492 5.29815L19.8557 5.29908Z" fill="#F1A921"/>
<path d="M15.3995 18.2506C15.9006 18.2942 15.9973 18.4958 16.2598 18.8164C17.461 20.2674 18.0934 22.1121 18.0376 24.0015C17.9731 25.5039 16.3169 26.51 14.8873 26.9653C11.8477 27.9315 8.25989 27.9232 5.64299 26.1236C5.21098 25.8516 4.85828 25.4688 4.62087 25.0144C4.38347 24.56 4.26988 24.0502 4.29171 23.537C4.36373 21.7512 5.0273 20.0413 6.17632 18.6807C6.61845 18.1679 7.74222 18.1409 7.85644 19.083C7.92092 19.5996 7.43733 20.0065 7.15178 20.432C6.48149 21.4513 6.12218 22.6465 6.11829 23.8696C6.11368 24.6603 7.5147 25.1424 8.82914 25.4175C10.8411 25.8845 12.945 25.741 14.8763 25.0049C15.4907 24.7494 16.2018 24.283 16.2101 23.9142C16.2221 22.4213 15.6942 20.9752 14.7252 19.8467L14.6331 19.7454C14.5464 19.6576 14.4838 19.5486 14.4515 19.4291C14.4192 19.3095 14.4183 19.1835 14.4489 19.0635C14.4761 18.8666 14.5641 18.6833 14.7003 18.5395C14.8365 18.3958 15.0141 18.2989 15.2079 18.2626C15.2724 18.2496 15.3385 18.2455 15.4041 18.2506H15.3995ZM24.1114 12.7012C24.2781 12.7285 24.4375 12.7898 24.58 12.8811C24.7225 12.9725 24.8451 13.092 24.9404 13.2326C26.1413 14.687 26.7825 16.5291 26.7468 18.4215C26.7468 18.4834 26.7425 18.5454 26.7339 18.6073C26.5782 19.9786 25.1422 20.9031 23.7236 21.3778C22.504 21.7679 21.2311 21.9623 19.9517 21.9539C19.8223 21.958 19.6934 21.9358 19.5726 21.8888C19.4519 21.8417 19.3417 21.7706 19.2487 21.6798C19.1557 21.589 19.0817 21.4803 19.031 21.3601C18.9804 21.24 18.9543 21.1108 18.9541 20.9802C18.9836 20.4302 19.5307 20.1134 20.1561 20.1013C21.6627 20.1711 23.1553 19.7827 24.4403 18.9864C24.5721 18.9108 24.6838 18.8043 24.7661 18.6759C24.8484 18.5475 24.8987 18.4009 24.9128 18.2487C24.8958 16.7734 24.3527 15.3535 23.3828 14.249C23.2315 14.0604 23.1483 13.8255 23.147 13.5829C23.1656 13.3403 23.2754 13.1141 23.4541 12.9507C23.6327 12.7872 23.8666 12.699 24.1078 12.704L24.1114 12.7012Z" fill="#4496D2"/>
<path d="M11.1916 8.9996C12.2505 9.03065 13.2681 9.42027 14.0807 10.1057C14.8933 10.7911 15.4535 11.7325 15.671 12.7782C15.8373 13.8135 15.6605 14.8752 15.1682 15.7989C14.6758 16.7227 13.8952 17.457 12.9473 17.8881C11.863 18.3096 10.663 18.3155 9.57472 17.9046C8.48641 17.4936 7.58528 16.6944 7.04199 15.6583C6.54516 14.5364 6.49457 13.2648 6.90067 12.1064C7.30677 10.9479 8.13854 9.99105 9.22412 9.43348C9.84042 9.14489 10.5122 8.99675 11.1916 8.9996ZM11.1447 10.8494C10.6944 10.8764 10.2569 11.0106 9.868 11.2411C9.47909 11.4715 9.14983 11.7916 8.90719 12.1751C8.66455 12.5586 8.51544 12.9946 8.47206 13.4475C8.42868 13.9003 8.49228 14.357 8.65763 14.7803C8.97072 15.4115 9.50266 15.9047 10.1525 16.1664C10.8023 16.4281 11.5248 16.4401 12.1828 16.1999C12.5274 16.0458 12.8382 15.8241 13.0973 15.5479C13.3563 15.2716 13.5584 14.9463 13.6919 14.5907C13.8254 14.2351 13.8876 13.8563 13.8749 13.4762C13.8622 13.0962 13.7748 12.7225 13.6179 12.3768C13.3813 11.9196 13.0259 11.536 12.5898 11.267C12.1536 10.9979 11.6531 10.8536 11.1419 10.8494H11.1447ZM19.9027 3.44929C20.9566 3.48044 21.9699 3.86674 22.7808 4.54655C23.5917 5.22636 24.1535 6.16052 24.3765 7.19998C24.5483 8.23843 24.3748 9.30503 23.8832 10.2337C23.3916 11.1625 22.6094 11.9012 21.6583 12.335C20.574 12.7566 19.3741 12.7624 18.2858 12.3515C17.1974 11.9405 16.2963 11.1413 15.753 10.1052C15.2558 8.98323 15.2051 7.71143 15.6114 6.55283C16.0177 5.39422 16.85 4.43745 17.9361 3.88038C18.5522 3.59271 19.2237 3.44552 19.9027 3.44929ZM19.8557 5.29908C19.4054 5.32611 18.9679 5.46034 18.579 5.69076C18.1901 5.92119 17.8609 6.24127 17.6182 6.62478C17.3756 7.00829 17.2265 7.44431 17.1831 7.89715C17.1397 8.34998 17.2033 8.80674 17.3687 9.23001C17.6816 9.86134 18.2135 10.3548 18.8633 10.6167C19.5131 10.8785 20.2357 10.8906 20.8938 10.6506C21.2373 10.497 21.5473 10.2764 21.806 10.0015C22.0647 9.72659 22.2668 9.40278 22.4009 9.04873C22.535 8.69467 22.5983 8.31736 22.5872 7.93852C22.5761 7.55969 22.4908 7.18681 22.3363 6.84135C22.1006 6.37985 21.7443 5.99213 21.306 5.72013C20.8676 5.44813 20.3639 5.30221 19.8492 5.29815L19.8557 5.29908Z" fill="#F1A921"/>
</svg>
