<svg width="32" height="29" viewBox="0 0 32 29" fill="none" xmlns="http://www.w3.org/2000/svg">
<path d="M25.6797 0.554688H5.67969C4.22181 0.557331 2.8244 1.13764 1.79352 2.16852C0.762642 3.1994 0.182331 4.59681 0.179688 6.05469V23.0547C0.179688 26.0847 2.64969 28.5547 5.67969 28.5547H25.6797C28.7097 28.5547 31.1797 26.0847 31.1797 23.0547V6.05469C31.1797 3.02469 28.7097 0.554688 25.6797 0.554688ZM28.1797 12.8747L23.8997 8.59469C23.3297 8.02469 22.4097 8.00469 21.8197 8.55469L14.4397 15.4147L10.6997 11.6747C10.1297 11.1047 9.20969 11.0847 8.61969 11.6347L3.17969 16.6847V6.05469C3.17969 5.39165 3.44308 4.75576 3.91192 4.28692C4.38076 3.81808 5.01665 3.55469 5.67969 3.55469H25.6797C26.3427 3.55469 26.9786 3.81808 27.4475 4.28692C27.9163 4.75576 28.1797 5.39165 28.1797 6.05469V12.8747Z" fill="#4E4E4E"/>
</svg>
