<svg width="18" height="20" viewBox="0 0 18 20" fill="none" xmlns="http://www.w3.org/2000/svg">
<path d="M8.25 11.1788V19.7285H4.25C3.8232 19.7285 3.40059 19.6487 3.00628 19.4935C2.61197 19.3383 2.25369 19.1109 1.9519 18.8242C1.65011 18.5375 1.41072 18.1972 1.24739 17.8226C1.08406 17.448 1 17.0466 1 16.6411V11.1788H8.25ZM17 11.1788V16.6411C17 17.0466 16.9159 17.448 16.7526 17.8226C16.5893 18.1972 16.3499 18.5375 16.0481 18.8242C15.7463 19.1109 15.388 19.3383 14.9937 19.4935C14.5994 19.6487 14.1768 19.7285 13.75 19.7285H9.75V11.1788H17ZM11.5 0.729133C12.0832 0.72902 12.6556 0.877966 13.1573 1.16035C13.659 1.44274 14.0715 1.84816 14.3515 2.33411C14.6315 2.82005 14.7687 3.36861 14.7488 3.92227C14.7288 4.47593 14.5524 5.01428 14.238 5.48088L16.75 5.47898C17.44 5.47898 18 5.92166 18 6.46885V9.23896C18 9.78614 17.44 10.2288 16.75 10.2288L9.75 10.2279V5.47898H8.25V10.2279L1.25 10.2288C0.56 10.2288 0 9.78614 0 9.23896V6.46885C0 5.92166 0.56 5.47898 1.25 5.47898L3.762 5.48088C3.31583 4.819 3.15218 4.02038 3.30441 3.24784C3.45665 2.47529 3.91331 1.78699 4.58129 1.32324C5.24928 0.859488 6.0783 0.655211 6.89935 0.752049C7.72041 0.848887 8.47167 1.23955 9 1.8444C9.30446 1.49499 9.68645 1.21383 10.1186 1.02103C10.5508 0.828228 11.0225 0.728552 11.5 0.729133ZM6.5 2.15409C6.04848 2.15428 5.61452 2.32025 5.28881 2.61731C4.96311 2.91436 4.77086 3.31951 4.75227 3.74808C4.73368 4.17664 4.89017 4.59544 5.18904 4.91695C5.48792 5.23846 5.90603 5.43779 6.356 5.47328L6.5 5.47898H8.25V3.81653L8.244 3.67974C8.20786 3.26394 8.00846 2.87624 7.68539 2.59362C7.36232 2.31099 6.93919 2.1541 6.5 2.15409ZM11.5 2.15409C11.0359 2.15409 10.5908 2.32924 10.2626 2.64101C9.93437 2.95278 9.75 3.37562 9.75 3.81653V5.47898H11.5C11.9641 5.47898 12.4092 5.30383 12.7374 4.99206C13.0656 4.68029 13.25 4.25744 13.25 3.81653C13.25 3.37562 13.0656 2.95278 12.7374 2.64101C12.4092 2.32924 11.9641 2.15409 11.5 2.15409Z" fill="#EEC790"/>
</svg>
