<svg width="20" height="21" viewBox="0 0 20 21" fill="none" xmlns="http://www.w3.org/2000/svg">
<path d="M8.8 11.5203V20.9455H4.53333C4.07808 20.9455 3.62729 20.8574 3.2067 20.6864C2.7861 20.5153 2.40394 20.2646 2.08203 19.9486C1.76012 19.6325 1.50477 19.2573 1.33055 18.8444C1.15633 18.4315 1.06667 17.9889 1.06667 17.5419V11.5203H8.8ZM18.1333 11.5203V17.5419C18.1333 17.9889 18.0437 18.4315 17.8695 18.8444C17.6952 19.2573 17.4399 19.6325 17.118 19.9486C16.7961 20.2646 16.4139 20.5153 15.9933 20.6864C15.5727 20.8574 15.1219 20.9455 14.6667 20.9455H10.4V11.5203H18.1333ZM12.2667 0.000680904C12.8887 0.000555699 13.4993 0.164753 14.0345 0.476053C14.5696 0.787353 15.0096 1.23429 15.3083 1.76999C15.607 2.30569 15.7533 2.91042 15.732 3.52077C15.7107 4.13112 15.5225 4.7246 15.1872 5.23897L17.8667 5.23687C18.6027 5.23687 19.2 5.72489 19.2 6.3281V9.38185C19.2 9.98505 18.6027 10.4731 17.8667 10.4731L10.4 10.472V5.23687H8.8V10.472L1.33333 10.4731C0.597333 10.4731 0 9.98505 0 9.38185V6.3281C0 5.72489 0.597333 5.23687 1.33333 5.23687L4.0128 5.23897C3.53688 4.50931 3.36232 3.62893 3.52471 2.77728C3.68709 1.92563 4.1742 1.16685 4.88671 0.655617C5.59923 0.144383 6.48352 -0.0808107 7.35931 0.0259429C8.2351 0.132696 9.03645 0.56336 9.6 1.23014C9.92476 0.844958 10.3322 0.535008 10.7932 0.322465C11.2542 0.109922 11.7574 4.00616e-05 12.2667 0.000680904ZM6.93333 1.57154C6.45172 1.57175 5.98882 1.75472 5.6414 2.08219C5.29398 2.40966 5.08892 2.8563 5.06909 3.32874C5.04926 3.80118 5.21618 4.26287 5.53498 4.6173C5.85378 4.97173 6.29977 5.19147 6.77973 5.23059L6.93333 5.23687H8.8V3.40421L8.7936 3.2534C8.75505 2.79503 8.54236 2.36764 8.19775 2.05608C7.85314 1.74451 7.4018 1.57156 6.93333 1.57154ZM12.2667 1.57154C11.7716 1.57154 11.2968 1.76462 10.9467 2.10831C10.5967 2.45201 10.4 2.91815 10.4 3.40421V5.23687H12.2667C12.7617 5.23687 13.2365 5.04379 13.5866 4.7001C13.9367 4.35641 14.1333 3.89026 14.1333 3.40421C14.1333 2.91815 13.9367 2.45201 13.5866 2.10831C13.2365 1.76462 12.7617 1.57154 12.2667 1.57154Z" fill="#91BFE1"/>
</svg>
