<svg width="60" height="59" viewBox="0 0 60 59" fill="none" xmlns="http://www.w3.org/2000/svg">
<g clip-path="url(#clip0_1084_12377)">
<path d="M50.8588 50.3595C62.3792 38.8391 62.3792 20.1609 50.8588 8.6405C39.3384 -2.87988 20.6602 -2.87988 9.13977 8.6405C-2.38061 20.1609 -2.38061 38.8391 9.13977 50.3595C20.6602 61.8799 39.3384 61.8799 50.8588 50.3595Z" fill="#D26E25"/>
<path d="M49.0216 48.5222C59.5272 38.0165 59.5272 20.9835 49.0216 10.4778C38.5159 -0.0278192 21.4829 -0.0278199 10.9772 10.4778C0.471593 20.9835 0.471593 38.0165 10.9772 48.5222C21.4829 59.0278 38.5159 59.0278 49.0216 48.5222Z" fill="#FFDACA"/>
<path d="M45.9959 45.496C54.8302 36.6617 54.8302 22.3383 45.9959 13.504C37.1615 4.66962 22.8382 4.66962 14.0038 13.504C5.16947 22.3383 5.16947 36.6617 14.0038 45.496C22.8382 54.3304 37.1615 54.3304 45.9959 45.496Z" fill="#D26E25"/>
<g style="mix-blend-mode:soft-light">
<path d="M45.9959 45.496C54.8302 36.6617 54.8302 22.3383 45.9959 13.504C37.1615 4.66962 22.8382 4.66962 14.0038 13.504C5.16947 22.3383 5.16947 36.6617 14.0038 45.496C22.8382 54.3304 37.1615 54.3304 45.9959 45.496Z" fill="white"/>
</g>
<path d="M42.0234 41.5241C48.6641 34.8834 48.6641 24.1166 42.0234 17.4759C35.3827 10.8352 24.616 10.8352 17.9752 17.4759C11.3345 24.1166 11.3345 34.8834 17.9752 41.5241C24.616 48.1648 35.3827 48.1648 42.0234 41.5241Z" fill="#FFDACA"/>
<path d="M38.5382 38.0384C43.2538 33.3228 43.2538 25.6772 38.5382 20.9616C33.8225 16.2459 26.177 16.2459 21.4613 20.9616C16.7456 25.6772 16.7456 33.3228 21.4613 38.0384C26.177 42.7541 33.8225 42.7541 38.5382 38.0384Z" fill="#D26E25"/>
<path d="M33.0791 29.5C33.0791 31.2006 31.7006 32.5791 30 32.5791C28.2994 32.5791 26.9209 31.2006 26.9209 29.5C26.9209 27.7994 28.2994 26.4209 30 26.4209C31.7006 26.4209 33.0791 27.7994 33.0791 29.5Z" fill="#D26E25"/>
<g style="mix-blend-mode:soft-light">
<path d="M33.0801 29.5C33.0801 31.2006 31.7016 32.5791 30.001 32.5791C28.3003 32.5791 26.9219 31.2006 26.9219 29.5C26.9219 27.7994 28.3003 26.4209 30.001 26.4209C31.7016 26.4209 33.0801 27.7994 33.0801 29.5Z" fill="white"/>
</g>
<path d="M48.9058 14.216L48.7966 12.2152L55.5687 6.91846L55.2149 9.81497L48.5781 15.0063L48.9058 14.216Z" fill="#D26E25"/>
<path d="M49.4069 14.8893L51.3221 15.4775L58.0943 10.1804L55.1978 9.82617L48.5605 15.0175L49.4069 14.8893Z" fill="#A85518"/>
<path d="M29.769 29.7554C29.9229 29.9523 30.2075 29.9869 30.4044 29.833L49.4846 14.9093L48.9267 14.1963L29.8466 29.1199C29.6496 29.2738 29.6151 29.5585 29.769 29.7554Z" fill="#D26E25"/>
<g style="mix-blend-mode:soft-light">
<path d="M29.769 29.7549C29.9229 29.9518 30.2075 29.9864 30.4044 29.8325L49.4846 14.9089L48.9267 14.1958L29.8466 29.1194C29.6496 29.2733 29.6151 29.558 29.769 29.7549Z" fill="white"/>
</g>
</g>
<defs>
<clipPath id="clip0_1084_12377">
<rect width="59" height="59" fill="white" transform="translate(0.5)"/>
</clipPath>
</defs>
</svg>
