<svg width="52" height="20" viewBox="0 0 52 20" fill="none" xmlns="http://www.w3.org/2000/svg">
<path d="M23.8755 9.09486V15.1866H21.9414V0.139773H27.0682C27.6803 0.126418 28.2891 0.234683 28.8591 0.458294C29.4291 0.681906 29.9491 1.01642 30.3889 1.44245C31.2888 2.25216 31.7943 3.41009 31.7754 4.61837C31.7887 5.21942 31.6716 5.8162 31.4322 6.3677C31.1928 6.91919 30.8369 7.41231 30.3889 7.81317C29.491 8.66903 28.3835 9.09696 27.0682 9.09486H23.8755ZM23.8755 1.99204V7.24679H27.1164C27.836 7.26776 28.5282 6.98667 29.0295 6.46854C30.0448 5.48262 30.07 3.8569 29.0799 2.84161L29.0295 2.79127C28.7854 2.53027 28.4886 2.32407 28.1588 2.1863C27.829 2.04852 27.4737 1.98231 27.1164 1.99204H23.8755ZM36.231 4.55544C37.6616 4.55544 38.7881 4.93722 39.6145 5.70078C40.441 6.46435 40.8543 7.5132 40.8543 8.84104V15.1887H39.0062V13.7581H38.9223C38.121 14.9349 37.0554 15.5243 35.7275 15.5243C34.5926 15.5243 33.6445 15.1887 32.8809 14.5153C32.5148 14.2064 32.2221 13.8199 32.0239 13.3838C31.8258 12.9476 31.7273 12.4728 31.7356 11.9939C31.7356 10.9283 32.1383 10.0808 32.9439 9.45148C33.7494 8.82216 34.8234 8.50541 36.1701 8.50541C37.3176 8.50541 38.2636 8.71518 39.0062 9.13472V8.69211C39.0086 8.36563 38.9381 8.04274 38.7998 7.74698C38.6615 7.45121 38.459 7.19003 38.207 6.98248C37.6956 6.52082 37.0289 6.26911 36.34 6.27765C35.2618 6.27765 34.406 6.73285 33.7766 7.64325L32.0754 6.57133C33.0089 5.2267 34.3955 4.55544 36.231 4.55544ZM33.7284 12.0358C33.7274 12.2817 33.785 12.5242 33.8962 12.7434C34.0075 12.9626 34.1692 13.1522 34.3682 13.2966C34.7961 13.6322 35.3268 13.8126 35.8702 13.8C36.6862 13.7979 37.4683 13.4729 38.0455 12.8959C38.6853 12.2918 39.0062 11.5869 39.0062 10.773C38.4021 10.2927 37.563 10.0514 36.4848 10.0514C35.7002 10.0514 35.0437 10.2402 34.5192 10.6199C33.9927 11.008 33.7284 11.4758 33.7284 12.0358ZM51.4687 4.89107L45.014 19.7281H43.0191L45.4147 14.5363L41.1668 4.89107H43.2687L46.3377 12.2876H46.3796L49.3647 4.89107H51.4687Z" fill="#5F6368"/>
<path d="M17.9199 9.52545C17.9199 8.936 17.8716 8.34864 17.771 7.76758H9.61719V11.0966H14.2867C14.1914 11.6284 13.9892 12.1352 13.6925 12.5866C13.3958 13.0381 13.0106 13.4246 12.5603 13.723V15.8857H15.3481C16.9801 14.3837 17.9199 12.1581 17.9199 9.52545Z" fill="#4285F4"/>
<path d="M9.61437 17.9721C11.947 17.9721 13.9126 17.2064 15.3453 15.8849L12.5574 13.7222C11.7813 14.2487 10.7828 14.5487 9.61437 14.5487C7.35933 14.5487 5.44623 13.0278 4.76028 10.9805H1.89062V13.2082C2.60981 14.6403 3.713 15.8442 5.07694 16.6855C6.44088 17.5267 8.01185 17.9722 9.61437 17.9721Z" fill="#34A853"/>
<path d="M4.76475 10.9851C4.40188 9.9115 4.40188 8.74844 4.76475 7.67488V5.44922H1.89299C1.28782 6.65409 0.972656 7.98375 0.972656 9.33207C0.972656 10.6804 1.28782 12.01 1.89299 13.2149L4.76475 10.9851Z" fill="#FBBC04"/>
<path d="M9.61437 4.10363C10.8471 4.08392 12.0382 4.54952 12.9308 5.40001L15.3998 2.93311C13.8341 1.46409 11.7612 0.656902 9.61437 0.680177C8.01185 0.680097 6.44088 1.12557 5.07694 1.96682C3.713 2.80808 2.60981 4.01199 1.89062 5.44406L4.76238 7.67182C5.44623 5.62236 7.35933 4.10363 9.61437 4.10363Z" fill="#EA4335"/>
</svg>
