<svg width="20" height="20" viewBox="0 0 28 28" fill="none" xmlns="http://www.w3.org/2000/svg">
<path d="M27.9913 13.6613C27.9913 21.1978 21.8793 27.3098 14.3427 27.3098C10.8068 27.3098 7.58664 25.9663 5.16402 23.7655C2.41724 21.2661 0.694107 17.6663 0.694107 13.6613C0.694107 6.1247 6.80611 0.0126953 14.3427 0.0126953C18.3434 0.0126953 21.939 1.73156 24.4341 4.47407C24.4384 4.47834 24.4426 4.4826 24.4469 4.4826C26.732 6.99286 27.9962 10.2667 27.9913 13.6613Z" fill="#FFCC4D"/>
<path d="M9.06246 14.3354C8.69566 14.3354 8.40136 14.0411 8.40136 13.6743C8.40136 12.7786 7.67201 12.0493 6.77633 12.0493C5.88064 12.0493 5.15129 12.7786 5.15129 13.6743C5.15129 14.0411 4.85699 14.3354 4.49019 14.3354C4.12338 14.3354 3.82909 14.0411 3.82909 13.6743C3.82909 12.0493 5.15129 10.7271 6.77633 10.7271C8.40136 10.7271 9.72356 12.0493 9.72356 13.6743C9.72356 14.0411 9.42927 14.3354 9.06246 14.3354V14.3354ZM24.1996 14.3354C23.8328 14.3354 23.5385 14.0411 23.5385 13.6743C23.5385 12.7786 22.8091 12.0493 21.9134 12.0493C21.0178 12.0493 20.2884 12.7786 20.2884 13.6743C20.2884 14.0411 19.9941 14.3354 19.6273 14.3354C19.2605 14.3354 18.9662 14.0411 18.9662 13.6743C18.9662 12.0493 20.2884 10.7271 21.9134 10.7271C23.5385 10.7271 24.8607 12.0493 24.8607 13.6743C24.8564 14.0411 24.5621 14.3354 24.1996 14.3354ZM20.4206 17.5215C20.2074 18.9674 19.461 20.2427 18.3819 21.1639C17.3028 22.0852 15.891 22.6397 14.3428 22.6397C12.7945 22.6397 11.3827 22.0852 10.3036 21.1639C9.22454 20.2469 8.4824 18.9674 8.26487 17.5215C8.19663 17.0651 8.56344 16.6557 9.02834 16.6557H19.6529C20.1221 16.6557 20.4889 17.0651 20.4206 17.5215Z" fill="#2E435A"/>
<path d="M18.3818 21.1639C17.3027 22.0852 15.8909 22.6397 14.3427 22.6397C12.7944 22.6397 11.3826 22.0852 10.3035 21.1639C11.2504 20.2384 12.7091 19.6455 14.3427 19.6455C15.9805 19.6455 17.4392 20.2384 18.3818 21.1639Z" fill="#D3333F"/>
<path d="M9.26286 16.6555C9.23727 16.7536 9.22447 16.8517 9.22447 16.9541C9.22447 17.6578 9.81733 18.2294 10.5552 18.2294C11.1481 18.2294 11.6471 17.8583 11.8177 17.3465C11.9926 17.8583 12.4916 18.2294 13.0802 18.2294C13.6731 18.2294 14.1721 17.8583 14.3427 17.3465C14.5176 17.8583 15.0166 18.2294 15.6052 18.2294C16.1938 18.2294 16.6971 17.8583 16.8677 17.3465C17.0425 17.8583 17.5416 18.2294 18.1302 18.2294C18.8638 18.2294 19.4609 17.6578 19.4609 16.9541C19.4609 16.8517 19.4481 16.7494 19.4225 16.6555H9.26286Z" fill="#EFF3F5"/>
</svg>
