<svg width="40" height="41" viewBox="0 0 40 41" fill="none" xmlns="http://www.w3.org/2000/svg">
<rect width="40" height="41" rx="3" fill="#FF8F3E"/>
<path d="M20.4775 23.2197H17.7383C17.7454 22.5752 17.7956 22.0202 17.8887 21.5547C17.9889 21.082 18.1572 20.6559 18.3936 20.2764C18.637 19.8968 18.9593 19.5208 19.3604 19.1484C19.6969 18.8477 19.9906 18.5612 20.2412 18.2891C20.4919 18.0169 20.6888 17.7376 20.832 17.4512C20.9753 17.1576 21.0469 16.8317 21.0469 16.4736C21.0469 16.0583 20.9824 15.7145 20.8535 15.4424C20.7318 15.1631 20.5456 14.9518 20.2949 14.8086C20.0514 14.6654 19.7435 14.5938 19.3711 14.5938C19.0632 14.5938 18.7767 14.6618 18.5117 14.7979C18.2467 14.9268 18.0283 15.1273 17.8564 15.3994C17.6917 15.6715 17.6058 16.0296 17.5986 16.4736H14.4834C14.5049 15.4925 14.7305 14.6833 15.1602 14.0459C15.597 13.4014 16.1807 12.9251 16.9111 12.6172C17.6416 12.3021 18.4616 12.1445 19.3711 12.1445C20.3737 12.1445 21.2331 12.3092 21.9492 12.6387C22.6654 12.9609 23.2132 13.4372 23.5928 14.0674C23.9723 14.6904 24.1621 15.4495 24.1621 16.3447C24.1621 16.9678 24.0404 17.5228 23.7969 18.0098C23.5534 18.4896 23.2347 18.9372 22.8408 19.3525C22.4469 19.7679 22.0137 20.1976 21.541 20.6416C21.1328 21.0068 20.8535 21.39 20.7031 21.791C20.5599 22.1921 20.4847 22.6683 20.4775 23.2197ZM17.416 26.5391C17.416 26.0807 17.5736 25.7012 17.8887 25.4004C18.2038 25.0924 18.6263 24.9385 19.1562 24.9385C19.679 24.9385 20.098 25.0924 20.4131 25.4004C20.7354 25.7012 20.8965 26.0807 20.8965 26.5391C20.8965 26.9831 20.7354 27.359 20.4131 27.667C20.098 27.9749 19.679 28.1289 19.1562 28.1289C18.6263 28.1289 18.2038 27.9749 17.8887 27.667C17.5736 27.359 17.416 26.9831 17.416 26.5391Z" fill="white"/>
</svg>
