<svg width="16" height="16" viewBox="0 0 16 16" fill="none" xmlns="http://www.w3.org/2000/svg">
<g id="Group 184114">
<circle id="Ellipse 160" cx="8" cy="8" r="8" fill="white"/>
<path id="Vector" d="M7.2275 11.3158C7.2275 11.4973 7.30889 11.6713 7.45376 11.7996C7.59863 11.9279 7.79512 12 8 12C8.20488 12 8.40137 11.9279 8.54624 11.7996C8.69111 11.6713 8.7725 11.4973 8.7725 11.3158C8.7725 11.226 8.75252 11.137 8.7137 11.054C8.67488 10.971 8.61797 10.8956 8.54624 10.8321C8.47451 10.7685 8.38935 10.7181 8.29562 10.6838C8.2019 10.6494 8.10145 10.6317 8 10.6317C7.89855 10.6317 7.7981 10.6494 7.70438 10.6838C7.61065 10.7181 7.52549 10.7685 7.45376 10.8321C7.38203 10.8956 7.32512 10.971 7.2863 11.054C7.24748 11.137 7.2275 11.226 7.2275 11.3158ZM9.36125 8.73331C10.448 8.20326 11 7.43474 11 6.44968C11 4.75789 9.49325 4 8 4C6.54575 4 5 4.9359 5 6.67087C5 6.84704 5.07902 7.01599 5.21967 7.14056C5.36032 7.26512 5.55109 7.3351 5.75 7.3351C5.94891 7.3351 6.13968 7.26512 6.28033 7.14056C6.42098 7.01599 6.5 6.84704 6.5 6.67087C6.5 5.74826 7.27775 5.32846 8 5.32846C8.56025 5.32846 9.5 5.47393 9.5 6.44968C9.5 6.79575 9.39725 7.1996 8.63825 7.57024C8.12225 7.82066 7.25 8.47094 7.25 9.31385C7.25 9.49001 7.32902 9.65896 7.46967 9.78353C7.61032 9.9081 7.80109 9.97808 8 9.97808C8.19891 9.97808 8.38968 9.9081 8.53033 9.78353C8.67098 9.65896 8.75 9.49001 8.75 9.31385C8.75 9.1903 9.04625 8.88675 9.36125 8.73331Z" fill="#4E4E4E"/>
</g>
</svg>
