<svg width="71" height="71" viewBox="0 0 71 71" fill="none" xmlns="http://www.w3.org/2000/svg">
<path d="M60.9896 9.79278C47.9325 -3.26426 26.6598 -3.26426 13.4561 9.79278L16.5369 12.8737C27.9802 1.43041 46.4654 1.43041 57.762 12.8737C69.0585 24.3169 69.2052 42.8022 57.762 54.0987L60.8429 57.1796C74.0466 44.1225 74.0466 22.8498 60.9896 9.79278Z" fill="#D26E25"/>
<path d="M48.9607 47.2044L44.5594 51.6057C43.0923 53.0728 40.3049 53.0728 37.0773 51.7524C33.8497 50.432 30.0353 47.7913 26.5143 44.417C19.4723 37.375 16.2447 29.306 19.1789 26.3719L23.5801 21.9706L5.24158 3.48535L3.04096 5.53927C-4.29446 12.8747 3.7745 32.6803 20.9394 49.8452C29.5952 58.501 38.8378 64.6627 46.7601 67.8903C54.829 71.1179 61.5776 71.2646 65.2453 67.5969L67.2992 65.543L48.9607 47.2044Z" fill="white"/>
<path d="M51.0063 45.5127L48.3656 48.1535L66.7041 66.492L69.3449 63.8513C71.2521 61.9441 71.2521 59.0099 69.3449 57.1027L57.6082 45.366C55.8477 43.6055 52.9135 43.6055 51.0063 45.5127ZM7.28723 1.64693L4.64648 4.28768L22.985 22.6262L25.6258 19.9855C27.533 18.0783 27.533 15.1441 25.6258 13.2369L13.8891 1.50022C12.1286 -0.113571 9.04774 -0.113571 7.28723 1.64693Z" fill="#F7AD45"/>
<path d="M32.8244 28.5688C33.2645 27.982 33.5579 27.3951 33.5579 26.8083C33.5579 26.2215 33.4112 25.7814 32.9711 25.3412C32.531 24.9011 32.0908 24.7544 31.504 24.7544C30.3303 24.7544 29.3034 25.4879 28.2764 27.1017L25.0488 25.1945C25.9291 23.8742 26.8093 22.9939 27.8363 22.2604C28.8632 21.5268 30.0369 21.2334 31.6507 21.2334C33.2645 21.2334 34.5849 21.6735 35.6118 22.7005C36.7855 23.7274 37.3723 25.0478 37.3723 26.6616C37.3723 27.5419 37.0789 28.4221 36.6388 29.3024C36.1987 30.1826 35.3184 31.2096 34.1447 32.5299L30.9172 35.9042H37.9592V39.4252H25.3422V36.4911L30.477 31.2096C31.504 30.0359 32.2375 29.3024 32.8244 28.5688ZM47.2018 31.7964V28.7155H51.0162V31.7964H53.0701V35.1707H51.0162V39.4252H47.2018V35.1707H40.0131V32.2365L46.3215 21.8202H50.5761L44.561 31.7964H47.2018ZM57.9115 35.3174V39.2785H55.8576V29.0089H57.9115V32.6767C58.4983 32.0898 59.2319 31.6497 59.9654 31.6497C60.699 31.6497 61.4325 31.9431 61.8726 32.5299C62.4595 33.1168 62.6062 33.8503 62.6062 34.7306V39.2785H60.5523V35.1707C60.5523 33.997 60.1121 33.4102 59.2319 33.4102C58.7918 33.4102 58.4983 33.5569 58.2049 33.8503C58.0582 34.2904 57.9115 34.7306 57.9115 35.3174Z" fill="#934710"/>
</svg>
