<svg width="33" height="24" viewBox="0 0 33 24" fill="none" xmlns="http://www.w3.org/2000/svg">
<path d="M16.1816 3.1947L16.1815 3.0447C16.1815 3.0447 16.1816 3.0447 16.1816 3.0447C18.3734 3.04276 20.5489 3.41914 22.6123 4.15702L26.3404 0.421845L26.3405 0.421744C26.504 0.258253 26.7258 0.166406 26.957 0.166406C27.1882 0.166406 27.4099 0.258255 27.5734 0.421745C27.7369 0.585235 27.8287 0.806975 27.8287 1.03818C27.8287 1.26939 27.7369 1.49113 27.5734 1.65462L27.5733 1.65474L24.3475 4.87367L8.16095 18.8348C8.11233 18.8126 8.06392 18.7903 8.0157 18.7678L8.12881 18.6549C3.18711 16.3691 0.367188 12.6109 0.367188 11.8207C0.367188 10.6634 6.3551 3.1947 16.1816 3.1947ZM16.1816 3.1947C18.3879 3.19274 20.5775 3.57713 22.6511 4.33046L16.1816 3.1947ZM2.04396 11.8211C3.70431 9.67215 5.82691 7.92354 8.25505 6.70521C10.7169 5.46993 13.4281 4.81232 16.1824 4.78237C17.893 4.78279 19.5934 5.03898 21.2274 5.54205L19.1616 7.6079C18.1836 6.94911 17.009 6.64281 15.8315 6.742C14.6118 6.84474 13.4678 7.37593 12.6023 8.24144C11.7368 9.10695 11.2056 10.2509 11.1029 11.4706C11.0037 12.6482 11.31 13.8229 11.9689 14.8008L9.33183 17.4446C6.45379 16.2375 3.94142 14.2988 2.04396 11.8211ZM19.6258 11.8208C19.625 12.4421 19.4562 13.0517 19.1372 13.5849C18.8181 14.1181 18.3608 14.5551 17.8136 14.8496C17.2663 15.144 16.6496 15.2849 16.0288 15.2573C15.4698 15.2325 14.9262 15.0719 14.4446 14.7906L19.1518 10.0834C19.4605 10.6093 19.6247 11.2088 19.6258 11.8208ZM12.7374 11.8206C12.7382 11.1993 12.907 10.5898 13.226 10.0566C13.5451 9.52336 14.0024 9.08636 14.5496 8.79191C15.0969 8.49747 15.7136 8.35657 16.3344 8.38413C16.8934 8.40894 17.437 8.56955 17.9186 8.85084L13.2114 13.5581C12.9027 13.0322 12.7385 12.4327 12.7374 11.8206ZM16.1807 18.8591C14.4701 18.8587 12.7697 18.6025 11.1358 18.0994L13.2016 16.0336C14.1796 16.6924 15.3542 16.9987 16.5317 16.8995C17.7514 16.7967 18.8954 16.2655 19.7609 15.4C20.6264 14.5345 21.1576 13.3906 21.2603 12.1709C21.3595 10.9933 21.0532 9.81859 20.3943 8.84065L23.0314 6.19684C25.9094 7.40398 28.4218 9.34264 30.3192 11.8203C28.6589 13.9693 26.5363 15.7179 24.1082 16.9363C21.6462 18.1716 18.935 18.8292 16.1807 18.8591Z" fill="white" stroke="white" stroke-width="0.3"/>
</svg>
