<svg width="30" height="31" viewBox="0 0 30 31" fill="none" xmlns="http://www.w3.org/2000/svg">
<path d="M15 0.132834C14.276 0.1307 13.5696 0.358183 12.9808 0.783115L1.44231 9.09566C0.995284 9.41948 0.631253 9.84614 0.380416 10.3403C0.12958 10.8344 -0.000830549 11.3817 3.98016e-06 11.9368V26.9006C3.98016e-06 27.8265 0.364701 28.7146 1.01386 29.3694C1.66303 30.0241 2.54349 30.392 3.46154 30.392H26.5385C27.4565 30.392 28.337 30.0241 28.9861 29.3694C29.6353 28.7146 30 27.8265 30 26.9006V11.9368C30.0001 11.3816 29.8694 10.8343 29.6186 10.3401C29.3679 9.84587 29.0042 9.41883 28.5577 9.0942L17.0192 0.78166C16.4302 0.357245 15.7239 0.130276 15 0.132834Z" fill="#F2DEA1"/>
<path d="M18.0018 26.8607H12.1066C11.7157 26.8607 11.3409 26.7041 11.0645 26.4254C10.7881 26.1466 10.6328 25.7685 10.6328 25.3742V17.9416C10.6328 17.5474 10.7881 17.1692 11.0645 16.8905C11.3409 16.6117 11.7157 16.4551 12.1066 16.4551H18.0018C18.3926 16.4551 18.7675 16.6117 19.0439 16.8905C19.3203 17.1692 19.4756 17.5474 19.4756 17.9416V25.3742C19.4756 25.7685 19.3203 26.1466 19.0439 26.4254C18.7675 26.7041 18.3926 26.8607 18.0018 26.8607Z" fill="#F1A921"/>
<path d="M22.4224 27.6046H7.68448C6.70729 27.6046 5.77013 27.2131 5.07916 26.5161C4.38819 25.8192 4 24.8739 4 23.8883V14.3318C4.00051 13.7403 4.14073 13.1575 4.40904 12.6316C4.67735 12.1057 5.06603 11.6519 5.54288 11.3076L12.9118 5.9989C13.5367 5.54867 14.2855 5.30664 15.0534 5.30664C15.8214 5.30664 16.5701 5.54867 17.195 5.9989L24.564 11.3076C25.0406 11.6521 25.4291 12.106 25.6974 12.6318C25.9657 13.1577 26.1061 13.7404 26.1069 14.3318V23.8883C26.1069 24.8739 25.7187 25.8192 25.0277 26.5161C24.3367 27.2131 23.3996 27.6046 22.4224 27.6046ZM15.0534 6.79326C14.591 6.79189 14.1399 6.93717 13.7639 7.20855L6.39491 12.5173C6.10942 12.7241 5.87693 12.9966 5.71674 13.3122C5.55654 13.6277 5.47326 13.9773 5.47379 14.3318V23.8883C5.47379 24.4797 5.7067 25.0468 6.12129 25.465C6.53587 25.8831 7.09817 26.1181 7.68448 26.1181H22.4224C23.0087 26.1181 23.571 25.8831 23.9856 25.465C24.4002 25.0468 24.6331 24.4797 24.6331 23.8883V14.3318C24.6332 13.9772 24.5497 13.6277 24.3895 13.3121C24.2294 12.9964 23.9971 12.7237 23.712 12.5164L16.343 7.20763C15.9668 6.93658 15.5157 6.79162 15.0534 6.79326Z" fill="#4496D2"/>
</svg>
