<svg width="17" height="16" viewBox="0 0 17 16" fill="none" xmlns="http://www.w3.org/2000/svg">
<path d="M9.52374 9.02424C10.4679 8.26366 11.0449 7.13591 11.0449 5.85079C11.0449 3.6215 9.23525 1.81185 7.00596 1.81185C4.77667 1.81185 2.96702 3.6215 2.96702 5.85079C2.96702 7.10968 3.54401 8.26366 4.48818 9.02424C2.39003 9.99464 1 12.0928 1 14.4794C1 14.7679 1.23604 15.004 1.52454 15.004H12.4874C12.7759 15.004 13.0119 14.7679 13.0119 14.4794C13.0119 12.0928 11.6219 9.99464 9.52374 9.02424ZM1.52454 14.4794C1.52454 11.883 3.33419 9.70614 5.74707 9.15538C4.43572 8.65707 3.49155 7.37195 3.49155 5.87701C3.49155 3.93622 5.06517 2.36261 7.00596 2.36261C8.94675 2.36261 10.5204 3.93622 10.5204 5.87701C10.5204 7.37195 9.57593 8.65707 8.26459 9.15538C10.6777 9.70614 12.4874 11.883 12.4874 14.4794H1.52454ZM16.1854 3.20187C16.1854 3.35923 16.0805 3.46414 15.9231 3.46414H14.0872V5.30002C14.0872 5.65199 13.5627 5.65173 13.5627 5.30002V3.46414H11.7268C11.5694 3.46414 11.4645 3.35923 11.4645 3.20187C11.4645 3.04451 11.5694 2.9396 11.7268 2.9396H13.5627V1.10372C13.5627 0.751754 14.0872 0.752016 14.0872 1.10372V2.9396H15.9231C16.0805 2.9396 16.1854 3.04451 16.1854 3.20187Z" fill="black" stroke="black" stroke-width="0.7"/>
</svg>
