<svg width="40" height="38" viewBox="0 0 40 38" fill="none" xmlns="http://www.w3.org/2000/svg">
<rect x="0.493164" y="0.500305" width="39.3379" height="37.3695" rx="6" fill="#FF8C83"/>
<path d="M26.1524 18.3123L22.8576 20.671L24.2697 24.4367C24.299 24.5151 24.3088 24.5994 24.2983 24.6824C24.2879 24.7654 24.2574 24.8446 24.2096 24.9133C24.1618 24.982 24.0981 25.038 24.0238 25.0766C23.9496 25.1152 23.8671 25.1353 23.7835 25.135C23.6756 25.1343 23.5707 25.0999 23.4834 25.0367L20.1626 22.6676L16.8416 25.0367C16.7516 25.101 16.6433 25.1349 16.5326 25.1331C16.422 25.1314 16.3148 25.0943 16.2268 25.0271C16.1388 24.96 16.0747 24.8664 16.0439 24.7601C16.013 24.6538 16.0171 24.5404 16.0555 24.4366L17.4676 20.6709L14.1726 18.3122C14.0842 18.2483 14.0184 18.158 13.9844 18.0544C13.9504 17.9508 13.95 17.8391 13.9833 17.7353C14.0166 17.6315 14.0818 17.5408 14.1697 17.4763C14.2576 17.4117 14.3636 17.3766 14.4727 17.3759H18.2539L19.6764 13.574C19.7126 13.4742 19.7787 13.3879 19.8657 13.3269C19.9527 13.266 20.0563 13.2333 20.1626 13.2333C20.2688 13.2333 20.3724 13.266 20.4594 13.3269C20.5464 13.3879 20.6125 13.4742 20.6488 13.574L22.0713 17.3759H25.8525C25.9615 17.3767 26.0675 17.4118 26.1553 17.4764C26.2432 17.5409 26.3084 17.6316 26.3417 17.7354C26.3749 17.8392 26.3745 17.9509 26.3405 18.0545C26.3065 18.1581 26.2407 18.2483 26.1524 18.3123Z" fill="#FFE1DF"/>
</svg>
