<svg width="54" height="79" viewBox="0 0 54 79" fill="none" xmlns="http://www.w3.org/2000/svg">
<path d="M12.1538 72H49.8462C51.0362 72 52 71.105 52 70V26C52 24.895 51.0362 24 49.8462 24H12.1538C10.9638 24 10 24.895 10 26V70C10 71.105 10.9638 72 12.1538 72Z" fill="white"/>
<path d="M26.8145 46.5352H26.9316C27.3223 46.5352 27.6738 46.4922 27.9863 46.4062C28.2988 46.3203 28.5664 46.1875 28.7891 46.0078C29.0117 45.8242 29.1816 45.5879 29.2988 45.2988C29.4199 45.0059 29.4805 44.6523 29.4805 44.2383V42.4746C29.4805 42.2012 29.457 41.9648 29.4102 41.7656C29.3633 41.5625 29.2949 41.3945 29.2051 41.2617C29.1152 41.1289 29.0078 41.0312 28.8828 40.9688C28.7578 40.9023 28.6172 40.8691 28.4609 40.8691C28.3047 40.8691 28.166 40.9141 28.0449 41.0039C27.9277 41.0898 27.8262 41.207 27.7402 41.3555C27.6582 41.5 27.5957 41.6641 27.5527 41.8477C27.5098 42.0273 27.4883 42.209 27.4883 42.3926C27.4883 42.5996 27.5098 42.793 27.5527 42.9727C27.5996 43.1484 27.666 43.3027 27.752 43.4355C27.8418 43.5645 27.9531 43.666 28.0859 43.7402C28.2227 43.8145 28.3809 43.8516 28.5605 43.8516C28.7402 43.8516 28.8945 43.8203 29.0234 43.7578C29.1562 43.6914 29.2656 43.6055 29.3516 43.5C29.4375 43.3906 29.5 43.2734 29.5391 43.1484C29.582 43.0234 29.6016 42.9004 29.5977 42.7793L30.1719 43.2305C30.1719 43.4805 30.1152 43.7266 30.002 43.9688C29.8887 44.2109 29.7324 44.4316 29.5332 44.6309C29.334 44.8262 29.1035 44.9824 28.8418 45.0996C28.584 45.2168 28.3105 45.2754 28.0215 45.2754C27.6348 45.2754 27.2852 45.207 26.9727 45.0703C26.6641 44.9336 26.4004 44.7383 26.1816 44.4844C25.9629 44.2305 25.7949 43.9277 25.6777 43.5762C25.5645 43.2207 25.5078 42.8262 25.5078 42.3926C25.5078 41.9746 25.5801 41.582 25.7246 41.2148C25.8691 40.8477 26.0742 40.5254 26.3398 40.248C26.6055 39.9668 26.9199 39.7461 27.2832 39.5859C27.6465 39.4258 28.0449 39.3457 28.4785 39.3457C28.8887 39.3457 29.2734 39.4238 29.6328 39.5801C29.9922 39.7324 30.3086 39.957 30.582 40.2539C30.8555 40.5508 31.0703 40.916 31.2266 41.3496C31.3828 41.7832 31.4609 42.2793 31.4609 42.8379V43.5176C31.4609 44.123 31.3867 44.6699 31.2383 45.1582C31.0898 45.6465 30.8789 46.0762 30.6055 46.4473C30.332 46.8145 30.0078 47.123 29.6328 47.373C29.2617 47.6191 28.8496 47.8047 28.3965 47.9297C27.9473 48.0547 27.4707 48.1172 26.9668 48.1172H26.8145V46.5352ZM38.4512 42.9551V44.5137C38.4512 45.127 38.3789 45.6602 38.2344 46.1133C38.0938 46.5664 37.8906 46.9414 37.625 47.2383C37.3633 47.5352 37.0508 47.7559 36.6875 47.9004C36.3242 48.0449 35.9238 48.1172 35.4863 48.1172C35.1348 48.1172 34.8066 48.0723 34.502 47.9824C34.1973 47.8887 33.9219 47.748 33.6758 47.5605C33.4336 47.3691 33.2246 47.1309 33.0488 46.8457C32.873 46.5605 32.7383 46.2246 32.6445 45.8379C32.5508 45.4473 32.5039 45.0059 32.5039 44.5137V42.9551C32.5039 42.3379 32.5742 41.8047 32.7148 41.3555C32.8594 40.9023 33.0645 40.5273 33.3301 40.2305C33.5957 39.9336 33.9102 39.7129 34.2734 39.5684C34.6367 39.4238 35.0371 39.3516 35.4746 39.3516C35.8262 39.3516 36.1523 39.3984 36.4531 39.4922C36.7578 39.582 37.0332 39.7227 37.2793 39.9141C37.5254 40.1016 37.7344 40.3379 37.9062 40.623C38.082 40.9082 38.2168 41.2461 38.3105 41.6367C38.4043 42.0234 38.4512 42.4629 38.4512 42.9551ZM36.4766 44.7539V42.7031C36.4766 42.4297 36.4609 42.1914 36.4297 41.9883C36.4023 41.7852 36.3594 41.6133 36.3008 41.4727C36.2461 41.332 36.1777 41.2188 36.0957 41.1328C36.0137 41.043 35.9199 40.9785 35.8145 40.9395C35.7129 40.8965 35.5996 40.875 35.4746 40.875C35.3184 40.875 35.1777 40.9082 35.0527 40.9746C34.9316 41.0371 34.8281 41.1387 34.7422 41.2793C34.6562 41.4199 34.5898 41.6074 34.543 41.8418C34.5 42.0762 34.4785 42.3633 34.4785 42.7031V44.7539C34.4785 45.0312 34.4922 45.2734 34.5195 45.4805C34.5508 45.6836 34.5938 45.8574 34.6484 46.002C34.707 46.1426 34.7773 46.2578 34.8594 46.3477C34.9414 46.4336 35.0352 46.4961 35.1406 46.5352C35.2461 46.5742 35.3613 46.5938 35.4863 46.5938C35.6387 46.5938 35.7754 46.5625 35.8965 46.5C36.0176 46.4375 36.1211 46.3359 36.207 46.1953C36.2969 46.0508 36.3633 45.8613 36.4062 45.627C36.4531 45.3887 36.4766 45.0977 36.4766 44.7539ZM26.2373 55H25.291L25.2969 54.209H26.2373C26.4326 54.209 26.5977 54.1621 26.7324 54.0684C26.8691 53.9746 26.9727 53.835 27.043 53.6494C27.1152 53.4619 27.1514 53.2314 27.1514 52.958V52.7734C27.1514 52.5684 27.1309 52.3887 27.0898 52.2344C27.0508 52.0781 26.9922 51.9482 26.9141 51.8447C26.8359 51.7393 26.7383 51.6602 26.6211 51.6074C26.5059 51.5547 26.373 51.5283 26.2227 51.5283H25.2734V50.7344H26.2227C26.5117 50.7344 26.7764 50.7842 27.0166 50.8838C27.2588 50.9814 27.4678 51.1221 27.6436 51.3057C27.8213 51.4873 27.958 51.7031 28.0537 51.9531C28.1514 52.2012 28.2002 52.4766 28.2002 52.7793V52.958C28.2002 53.2588 28.1514 53.5342 28.0537 53.7842C27.958 54.0342 27.8223 54.25 27.6465 54.4316C27.4707 54.6133 27.2627 54.7539 27.0225 54.8535C26.7842 54.9512 26.5225 55 26.2373 55ZM25.8799 50.7344V55H24.8516V50.7344H25.8799ZM30.4795 51.6309L29.4395 55H28.335L29.9023 50.7344H30.6025L30.4795 51.6309ZM31.3408 55L30.2979 51.6309L30.1631 50.7344H30.8721L32.4482 55H31.3408ZM31.2998 53.4092V54.2031H29.1113V53.4092H31.2998ZM33.0957 50.7344L33.8809 52.5859L34.6689 50.7344H35.7764L34.4053 53.4678V55H33.3594V53.4678L31.9854 50.7344H33.0957ZM38.2402 53.8662C38.2402 53.7998 38.2305 53.7402 38.2109 53.6875C38.1914 53.6328 38.1553 53.582 38.1025 53.5352C38.0498 53.4883 37.9736 53.4414 37.874 53.3945C37.7764 53.3457 37.6475 53.2949 37.4873 53.2422C37.2998 53.1797 37.1191 53.1094 36.9453 53.0312C36.7715 52.9512 36.6162 52.8584 36.4795 52.7529C36.3428 52.6455 36.2344 52.5205 36.1543 52.3779C36.0742 52.2334 36.0342 52.0654 36.0342 51.874C36.0342 51.6904 36.0752 51.5254 36.1572 51.3789C36.2393 51.2305 36.3535 51.1045 36.5 51.001C36.6484 50.8955 36.8223 50.8154 37.0215 50.7607C37.2207 50.7041 37.4385 50.6758 37.6748 50.6758C37.9873 50.6758 38.2627 50.7305 38.501 50.8398C38.7412 50.9473 38.9287 51.1006 39.0635 51.2998C39.2002 51.4971 39.2686 51.7305 39.2686 52H38.2461C38.2461 51.8926 38.2236 51.7979 38.1787 51.7158C38.1357 51.6338 38.0703 51.5693 37.9824 51.5225C37.8945 51.4756 37.7842 51.4521 37.6514 51.4521C37.5225 51.4521 37.4141 51.4717 37.3262 51.5107C37.2383 51.5498 37.1719 51.6025 37.127 51.6689C37.082 51.7334 37.0596 51.8047 37.0596 51.8828C37.0596 51.9473 37.0771 52.0059 37.1123 52.0586C37.1494 52.1094 37.2012 52.1572 37.2676 52.2021C37.3359 52.2471 37.418 52.29 37.5137 52.3311C37.6113 52.3721 37.7207 52.4121 37.8418 52.4512C38.0684 52.5234 38.2695 52.6045 38.4453 52.6943C38.623 52.7822 38.7725 52.8828 38.8936 52.9961C39.0166 53.1074 39.1094 53.2344 39.1719 53.377C39.2363 53.5195 39.2686 53.6807 39.2686 53.8604C39.2686 54.0518 39.2314 54.2217 39.1572 54.3701C39.083 54.5186 38.9766 54.6445 38.8379 54.748C38.6992 54.8496 38.5332 54.9268 38.3398 54.9795C38.1465 55.0322 37.9307 55.0586 37.6924 55.0586C37.4736 55.0586 37.2578 55.0312 37.0449 54.9766C36.834 54.9199 36.6426 54.834 36.4707 54.7188C36.2988 54.6016 36.1611 54.4521 36.0576 54.2705C35.9561 54.0869 35.9053 53.8691 35.9053 53.6172H36.9365C36.9365 53.7422 36.9531 53.8477 36.9863 53.9336C37.0195 54.0195 37.0684 54.0889 37.1328 54.1416C37.1973 54.1924 37.2764 54.2295 37.3701 54.2529C37.4639 54.2744 37.5713 54.2852 37.6924 54.2852C37.8232 54.2852 37.9287 54.2666 38.0088 54.2295C38.0889 54.1904 38.1475 54.1396 38.1846 54.0771C38.2217 54.0127 38.2402 53.9424 38.2402 53.8662Z" fill="#D26E25"/>
<path d="M13 72H1V27C1 25.343 2.6116 24 4.6 24H13V72Z" fill="#D26E25"/>
<g style="mix-blend-mode:soft-light">
<path d="M13 72H1V27C1 25.343 2.6116 24 4.6 24H13V72Z" fill="white"/>
</g>
<path d="M47.6667 78H3.33333C2.04417 78 1 77.105 1 76V74C1 72.895 2.04417 72 3.33333 72H47.6667C48.9558 72 50 72.895 50 74V76C50 77.105 48.9558 78 47.6667 78Z" fill="#D26E25"/>
<g style="mix-blend-mode:soft-light">
<path d="M47.6667 78H3.33333C2.04417 78 1 77.105 1 76V74C1 72.895 2.04417 72 3.33333 72H47.6667C48.9558 72 50 72.895 50 74V76C50 77.105 48.9558 78 47.6667 78Z" fill="white"/>
</g>
<path d="M13 27C12.447 27 12 27.448 12 28V32C12 32.552 12.447 33 13 33C13.553 33 14 32.552 14 32V28C14 27.448 13.553 27 13 27Z" fill="#D26E25"/>
<path d="M50.4783 23H4.69565C2.106 23 0 24.794 0 27V74V75C0 77.206 2.106 79 4.69565 79H48.1304C50.0721 79 51.6522 77.654 51.6522 76V72.816C53.0151 72.402 54 71.302 54 70V26C54 24.346 52.4199 23 50.4783 23ZM48.1304 77H4.69565C3.40083 77 2.34783 76.103 2.34783 75C2.34783 73.755 3.97839 73 4.69565 73H49.3043V76C49.3043 76.551 48.7784 77 48.1304 77ZM51.6522 70C51.6522 70.551 51.1263 71 50.4783 71H14.087V36C14.087 35.448 13.5622 35 12.913 35C12.2639 35 11.7391 35.448 11.7391 36V71H4.69565C3.97135 71 3.12261 71.223 2.34783 71.633V27C2.34783 25.897 3.40083 25 4.69565 25H50.4783C51.1263 25 51.6522 25.449 51.6522 26V70Z" fill="#D26E25"/>
<path d="M8 27H6C5.447 27 5 27.448 5 28C5 28.552 5.447 29 6 29H8C8.553 29 9 28.552 9 28C9 27.448 8.553 27 8 27ZM8 37H6C5.447 37 5 37.448 5 38C5 38.552 5.447 39 6 39H8C8.553 39 9 38.552 9 38C9 37.448 8.553 37 8 37ZM8 47H6C5.447 47 5 47.448 5 48C5 48.552 5.447 49 6 49H8C8.553 49 9 48.552 9 48C9 47.448 8.553 47 8 47ZM8 57H6C5.447 57 5 57.448 5 58C5 58.552 5.447 59 6 59H8C8.553 59 9 58.552 9 58C9 57.448 8.553 57 8 57ZM8 67H6C5.447 67 5 67.448 5 68C5 68.552 5.447 69 6 69H8C8.553 69 9 68.552 9 68C9 67.448 8.553 67 8 67Z" fill="#D26E25"/>
<path d="M27.5364 19.4159C27.4999 19.4207 27.4623 19.4231 27.4244 19.423C26.9631 19.4219 26.5893 19.0469 26.5902 18.5847L26.6177 5.93475C26.6186 5.47261 27.0001 5.10305 27.4559 5.10061C27.9172 5.10167 28.291 5.47673 28.29 5.93887L28.2626 18.5888C28.2618 19.013 27.9459 19.3622 27.5364 19.4159Z" fill="#D26E25"/>
<path d="M23.1418 20C22.8058 20 22.487 19.8177 22.3507 19.5161L18.0651 10.0887C17.8834 9.68805 18.0891 9.22846 18.5262 9.06113C18.9659 8.89301 19.4656 9.08391 19.6474 9.48379L23.9329 18.9111C24.1146 19.3118 23.9089 19.7714 23.4718 19.9387C23.3638 19.9811 23.2515 20 23.1418 20Z" fill="#D26E25"/>
<path d="M17.1417 21C16.9223 21 16.7029 20.916 16.5358 20.7489L12.2504 16.4633C11.9152 16.1282 11.9152 15.5865 12.2504 15.2513C12.5855 14.9162 13.1272 14.9162 13.4623 15.2513L17.7477 19.5369C18.0828 19.872 18.0828 20.4137 17.7477 20.7489C17.5806 20.916 17.3611 21 17.1417 21Z" fill="#D26E25"/>
<path d="M31.8562 20C32.1922 20 32.5111 19.8012 32.6474 19.4721L36.9329 9.18768C37.1146 8.7506 36.9089 8.24923 36.4718 8.06668C36.0321 7.88328 35.5324 8.09154 35.3507 8.52777L31.0651 18.8122C30.8834 19.2492 31.0891 19.7506 31.5262 19.9332C31.6342 19.9794 31.7465 20 31.8562 20Z" fill="#D26E25"/>
<path d="M38.7134 21C38.8963 21 39.0791 20.916 39.2184 20.7489L42.7896 16.4633C43.0688 16.1282 43.0688 15.5865 42.7896 15.2513C42.5103 14.9162 42.0589 14.9162 41.7796 15.2513L38.2085 19.5369C37.9292 19.872 37.9292 20.4137 38.2085 20.7489C38.3477 20.916 38.5306 21 38.7134 21Z" fill="#D26E25"/>
<path d="M7.07434 9.98198L9.08899 10.6193L11.1306 10.0744L10.4933 12.0891L11.0381 14.1307L9.02348 13.4934L6.98189 14.0382L7.61917 12.0236L7.07434 9.98198Z" fill="#D26E25"/>
<g style="mix-blend-mode:soft-light">
<path d="M7.07434 9.98198L9.08899 10.6193L11.1306 10.0744L10.4933 12.0891L11.0381 14.1307L9.02348 13.4934L6.98189 14.0382L7.61917 12.0236L7.07434 9.98198Z" fill="white"/>
</g>
<path d="M15.3387 3.20133L17.1199 4.33812L19.2329 4.34002L18.0962 6.12121L18.0943 8.23424L16.3131 7.09745L14.2 7.09556L15.3368 5.31437L15.3387 3.20133Z" fill="#D26E25"/>
<g style="mix-blend-mode:soft-light">
<path d="M15.3387 3.20133L17.1199 4.33812L19.2329 4.34002L18.0962 6.12121L18.0943 8.23424L16.3131 7.09745L14.2 7.09556L15.3368 5.31437L15.3387 3.20133Z" fill="white"/>
</g>
<path d="M48.0389 9.98198L46.0243 10.6193L43.9827 10.0744L44.62 12.0891L44.0752 14.1307L46.0898 13.4934L48.1314 14.0382L47.4941 12.0236L48.0389 9.98198Z" fill="#D26E25"/>
<g style="mix-blend-mode:soft-light">
<path d="M48.0389 9.98198L46.0243 10.6193L43.9827 10.0744L44.62 12.0891L44.0752 14.1307L46.0898 13.4934L48.1314 14.0382L47.4941 12.0236L48.0389 9.98198Z" fill="white"/>
</g>
<path d="M40.2726 2.37809L38.4914 3.51488L36.3784 3.51677L37.5152 5.29796L37.5171 7.411L39.2983 6.27421L41.4113 6.27231L40.2745 4.49112L40.2726 2.37809Z" fill="#D26E25"/>
<g style="mix-blend-mode:soft-light">
<path d="M40.2726 2.37809L38.4914 3.51488L36.3784 3.51677L37.5152 5.29796L37.5171 7.411L39.2983 6.27421L41.4113 6.27231L40.2745 4.49112L40.2726 2.37809Z" fill="white"/>
</g>
<path d="M27.5 0L28.0314 0.968571L29 1.5L28.0314 2.03143L27.5 3L26.9686 2.03143L26 1.5L26.9686 0.968571L27.5 0Z" fill="#D26E25"/>
<g style="mix-blend-mode:soft-light">
<path d="M27.5 0L28.0314 0.968571L29 1.5L28.0314 2.03143L27.5 3L26.9686 2.03143L26 1.5L26.9686 0.968571L27.5 0Z" fill="white"/>
</g>
</svg>
