<svg width="16" height="17" viewBox="0 0 16 17" fill="none" xmlns="http://www.w3.org/2000/svg">
<circle cx="8" cy="8.15656" r="8" fill="#D9D9D9"/>
<path d="M7.2275 11.4724C7.2275 11.6538 7.30889 11.8279 7.45376 11.9562C7.59863 12.0845 7.79512 12.1566 8 12.1566C8.20488 12.1566 8.40137 12.0845 8.54624 11.9562C8.69111 11.8279 8.7725 11.6538 8.7725 11.4724C8.7725 11.3826 8.75252 11.2936 8.7137 11.2106C8.67488 11.1276 8.61797 11.0522 8.54624 10.9886C8.47451 10.9251 8.38935 10.8747 8.29562 10.8403C8.2019 10.8059 8.10145 10.7882 8 10.7882C7.89855 10.7882 7.7981 10.8059 7.70438 10.8403C7.61065 10.8747 7.52549 10.9251 7.45376 10.9886C7.38203 11.0522 7.32512 11.1276 7.2863 11.2106C7.24748 11.2936 7.2275 11.3826 7.2275 11.4724ZM9.36125 8.88987C10.448 8.35981 11 7.59129 11 6.60624C11 4.91444 9.49325 4.15656 8 4.15656C6.54575 4.15656 5 5.09246 5 6.82743C5 7.00359 5.07902 7.17254 5.21967 7.29711C5.36032 7.42168 5.55109 7.49166 5.75 7.49166C5.94891 7.49166 6.13968 7.42168 6.28033 7.29711C6.42098 7.17254 6.5 7.00359 6.5 6.82743C6.5 5.90481 7.27775 5.48502 8 5.48502C8.56025 5.48502 9.5 5.63048 9.5 6.60624C9.5 6.9523 9.39725 7.35616 8.63825 7.7268C8.12225 7.97721 7.25 8.6275 7.25 9.4704C7.25 9.64657 7.32902 9.81552 7.46967 9.94009C7.61032 10.0647 7.80109 10.1346 8 10.1346C8.19891 10.1346 8.38968 10.0647 8.53033 9.94009C8.67098 9.81552 8.75 9.64657 8.75 9.4704C8.75 9.34686 9.04625 9.0433 9.36125 8.88987Z" fill="#4E4E4E"/>
</svg>
