<svg xmlns="http://www.w3.org/2000/svg" width="24.44" height="21.871" viewBox="0 0 24.44 21.871"><g transform="translate(391.947 11929.589)"><g transform="translate(28)"><path d="M405.2,2166.115a.84.84,0,0,0-.36-.92.789.789,0,0,0-.933-.017.817.817,0,0,0-.425.625q-.426,2.025-.849,4.051c-.041.2-.11.375-.337.417a.4.4,0,0,1-.459-.263,2.485,2.485,0,0,1,.025-.339q.43-2.049.867-4.1c.107-.5.215-1.006.316-1.511a.857.857,0,0,0-.323-.933.8.8,0,0,0-.93-.056.867.867,0,0,0-.471.707q-.581,2.781-1.165,5.561c-.041.2-.112.375-.343.411a.391.391,0,0,1-.453-.271,1.914,1.914,0,0,1,.044-.416q.588-2.768,1.166-5.537a.842.842,0,0,0-.339-.927.78.78,0,0,0-.908-.05.83.83,0,0,0-.473.673q-.583,2.789-1.167,5.578a.489.489,0,0,1-.277.415c-.206.08-.384-.01-.524-.262a1.691,1.691,0,0,1,.051-.44q.5-2.376,1-4.753a.857.857,0,0,0-.314-.935.789.789,0,0,0-.928-.066.817.817,0,0,0-.467.645l-.014.067-.056.268-.124.594c-.353,1.7-1.063,5.145-1.108,5.36-.016.078-.009.017.006-.119q-.163.766-.327,1.533c-.092.426-.421.488-.759.162a1.092,1.092,0,0,1,.029-.514c.029-.229.163-.447.09-.688-.181-.6-.355-1.2-.548-1.8a.863.863,0,0,0-1.26-.524.756.756,0,0,0-.517.819c.061.661.154,1.318.234,1.977.034.277.089.554.1.832a7.33,7.33,0,0,0,.947,2.75A4.4,4.4,0,0,1,393.5,2176a8.28,8.28,0,0,1-.263,1.6c-.21,1.026-.433,2.048-.647,3.073-.073.348.025.5.362.568l6.286,1.315a1.006,1.006,0,0,0,.131.01c.178.042.355.088.533.127a.375.375,0,0,0,.517-.326c.267-1.264.56-2.524.786-3.8a3.356,3.356,0,0,1,1.095-2.085c.2-.17.365-.378.553-.562a1.676,1.676,0,0,0,.467-.89c.178-.873.365-1.744.548-2.615Q404.533,2169.268,405.2,2166.115Z" transform="translate(-810.778 -14091.23)" fill="#38474f"/><path d="M568.114,2167.8a.629.629,0,0,0-.091.042l-.027.017a.578.578,0,0,0-.053.036l-.028.024c-.014.012-.028.025-.041.039l-.025.028c-.012.014-.024.029-.035.043l-.022.031c-.01.016-.021.032-.03.049l-.018.031c-.01.018-.019.037-.028.056l-.014.029c-.011.025-.022.051-.032.077l0,.011h0v0c-.012.031-.023.062-.033.093s-.013.042-.019.063-.015.047-.022.071c-.014.048-.026.1-.039.144,0,.009-.005.018-.007.027-.009.038-.019.075-.028.113s-.016.066-.025.1-.02.072-.03.108-.017.064-.027.1-.021.07-.032.105-.019.065-.029.1-.022.067-.033.1-.021.066-.033.1-.024.067-.036.1-.023.065-.035.1-.026.067-.039.1-.024.063-.036.094-.028.066-.042.1-.026.063-.039.094-.029.064-.044.1-.028.063-.043.094-.031.063-.047.1l-.045.092c-.016.032-.034.064-.051.1s-.031.059-.047.088-.037.065-.056.1-.031.056-.047.083-.04.064-.059.1-.033.055-.051.082-.044.067-.067.1-.033.05-.05.075-.052.073-.079.11l-.044.062c-.031.042-.064.083-.1.125l-.034.044q-.067.083-.137.166a2.77,2.77,0,0,0-.332.533,4.279,4.279,0,0,0-.432,2.794c.062.347-.045.556-.3.594s-.418-.111-.48-.459a5.189,5.189,0,0,1,.217-2.635,6.692,6.692,0,0,1,.791-1.47c.19-.26.374-.524.573-.777a.445.445,0,0,0,.079-.411c-.278-1.3-.547-2.594-.819-3.891-.177-.845-.352-1.69-.533-2.534a.857.857,0,0,0-1.263-.652h0a.845.845,0,0,0-.451.987c.251,1.2.508,2.392.76,3.588.1.479.2.957.291,1.438a.368.368,0,0,1-.284.46.385.385,0,0,1-.476-.3c-.018-.058-.031-.118-.043-.178q-.584-2.781-1.168-5.563a.875.875,0,1,0-1.708.36q.43,2.038.863,4.075c.115.547.235,1.093.335,1.643a.388.388,0,0,1-.5.476c-.2-.053-.255-.223-.292-.4-.1-.461-.193-.923-.3-1.42a.517.517,0,0,0-.062.1q-.668,3.179-1.332,6.358a3.617,3.617,0,0,1-.934,2.2h0c.07.065.154.151.24.242a2.068,2.068,0,0,0,.847.511l.011,0,.027.012.015.009.023.014.015.011.02.017.014.014.018.021.013.017.017.025.012.019.017.03.01.02.017.038.008.019c.008.02.016.041.024.063a3.2,3.2,0,0,1,.111.4q.451,2.136.9,4.274c.068.324.214.416.544.347,1.47-.306,2.942-.6,4.409-.922.688-.149,1.385-.254,2.061-.456l.09-.01a.276.276,0,0,0,.211-.047.5.5,0,0,0,.262-.056.269.269,0,0,0,.259-.262c.065-.116-.052-.207-.043-.314a5.558,5.558,0,0,0-.2-1l-.062-.257a4.065,4.065,0,0,0-.168-.84l-.042-.159a3.288,3.288,0,0,0-.16-.788.259.259,0,0,1-.05-.21,6.158,6.158,0,0,1-.162-1.838,7.865,7.865,0,0,1,.6-1.5,7.065,7.065,0,0,0,.9-2.652c.013-.287.071-.571.1-.857.079-.667.183-1.332.225-2A.882.882,0,0,0,568.114,2167.8Z" transform="translate(-965.742 -14091.289)" fill="#fff"/><path d="M563.349,2171.277a1.757,1.757,0,0,1,1.109,0,2.815,2.815,0,0,0-.28-.987.769.769,0,0,0-.844-.393c-.09.017-.13.046-.086.134A1.906,1.906,0,0,1,563.349,2171.277Z" transform="translate(-970.33 -14098.164)" fill="#38474f"/><g transform="translate(-419.947 -11929.589)"><g transform="translate(0 0)"><path d="M1018.53,2363.991Z" transform="translate(-1006.034 -2349.053)" fill="#00a79d"/><path d="M855.863,2167.866q-.506,2.437-1.028,4.87c-.092.426-.421.488-.759.162h0c-.169.011-.242-.108-.321-.227a6.765,6.765,0,0,1-.737-1.778,4.61,4.61,0,0,0-.521-1.413.848.848,0,0,0-.111-.107.756.756,0,0,0-.517.819c.061.661.154,1.318.234,1.977.034.277.089.554.1.832a7.332,7.332,0,0,0,.948,2.75,4.4,4.4,0,0,1,.583,1.881,8.273,8.273,0,0,1-.263,1.6c-.21,1.026-.433,2.048-.647,3.073-.073.348.026.5.362.568l6.286,1.314a1.006,1.006,0,0,0,.131.01h0c.228-.165.207-.433.258-.663q.409-1.86.791-3.724a2.169,2.169,0,0,1,.591-1.058c.335-.357.707-.677,1.022-1.056a2.569,2.569,0,0,0,.438-1.188c.354-1.649.7-3.3,1.045-4.95q.4-1.9.8-3.8a1,1,0,0,0-.4-.948.817.817,0,0,0-.425.624q-.426,2.026-.849,4.051c-.041.2-.11.375-.337.417a.394.394,0,0,1-.459-.263h0a.351.351,0,0,0-.348-.275c-.34-.043-.463-.263-.393-.6.352-1.682.711-3.363,1.048-5.048a1.038,1.038,0,0,0-.353-1.013.866.866,0,0,0-.471.707q-.581,2.78-1.165,5.561c-.041.2-.112.375-.343.411a.391.391,0,0,1-.454-.271h0a.334.334,0,0,0-.321-.27c-.388-.048-.493-.229-.412-.616.349-1.675.7-3.348,1.043-5.025a1.083,1.083,0,0,0-.346-1.019.83.83,0,0,0-.473.673q-.583,2.789-1.167,5.578a.489.489,0,0,1-.277.415c-.206.08-.385-.011-.524-.262h0c-.036-.177-.154-.237-.325-.262-.4-.058-.5-.241-.417-.641.307-1.432.616-2.863.9-4.3a1.068,1.068,0,0,0-.351-.991.816.816,0,0,0-.467.645c-.063.279-.115.561-.173.841-.068.325-.18.414-.52.415h0a8.581,8.581,0,0,1-.151.857c-.016.117-.1.118-.163.17h0C855.81,2167.365,855.936,2167.516,855.863,2167.866Z" transform="translate(-851.069 -2163.268)" fill="#5a6870"/><path d="M1150.476,2355.592c0,.052,0,.1-.006.155A.476.476,0,0,0,1150.476,2355.592Z" transform="translate(-1128.711 -2341.244)" fill="#00a79d"/><path d="M926.641,2255.406Z" transform="translate(-920.595 -2248.091)" fill="#00a79d"/><path d="M1019.877,2177.724a3.186,3.186,0,0,1,.111.4q.451,2.136.9,4.274c.068.324.214.416.544.347,1.47-.306,2.942-.6,4.409-.922.688-.149,1.385-.254,2.061-.456h0a4.2,4.2,0,0,1-.22-.951c-.246-1.181-.456-2.37-.714-3.548a2.929,2.929,0,0,1,.235-1.927c.33-.712.712-1.4.97-2.145a7.458,7.458,0,0,0,.293-1.636c.071-.629.153-1.256.236-1.884a1.726,1.726,0,0,0-.095-1.19.687.687,0,0,0-.259-.286.786.786,0,0,0-.448.515,3.3,3.3,0,0,0-.121.4,7.02,7.02,0,0,1-1.459,3,2.773,2.773,0,0,0-.332.533,4.279,4.279,0,0,0-.432,2.794c.062.347-.045.556-.3.594s-.418-.111-.48-.459a5.189,5.189,0,0,1,.217-2.635,6.7,6.7,0,0,1,.791-1.47c-.216-.7-.325-1.419-.477-2.13-.292-1.365-.572-2.733-.858-4.1-.1-.484-.193-.969-.308-1.449-.052-.219-.06-.476-.321-.587h0a.845.845,0,0,0-.451.987c.251,1.2.508,2.392.76,3.588.1.479.2.957.291,1.438a.368.368,0,0,1-.284.46.385.385,0,0,1-.476-.3c-.018-.058-.031-.118-.043-.178q-.584-2.781-1.168-5.563a.875.875,0,1,0-1.708.36q.43,2.038.863,4.075c.115.547.235,1.093.335,1.643a.388.388,0,0,1-.5.476c-.2-.053-.255-.223-.292-.4-.1-.461-.193-.923-.3-1.42a.51.51,0,0,0-.062.1q-.668,3.179-1.332,6.358a3.617,3.617,0,0,1-.934,2.2h0a4.113,4.113,0,0,1,.723.777h0C1019.6,2177.312,1019.759,2177.388,1019.877,2177.724Z" transform="translate(-1006.034 -2161.7)" fill="#5a6870"/><path d="M967.016,2200.634q-.394,1.9-.795,3.8c-.347,1.65-.691,3.3-1.045,4.95a2.569,2.569,0,0,1-.438,1.188c-.315.379-.687.7-1.022,1.056a2.167,2.167,0,0,0-.59,1.058q-.383,1.865-.791,3.724c-.05.23-.03.5-.258.663h0c.178.042.355.088.533.127a.375.375,0,0,0,.517-.326c.267-1.264.56-2.524.786-3.8a3.355,3.355,0,0,1,1.095-2.085c.2-.17.365-.378.553-.562a1.673,1.673,0,0,0,.467-.89c.178-.873.365-1.744.548-2.615q.665-3.153,1.329-6.306a.839.839,0,0,0-.36-.919.788.788,0,0,0-.933-.017A1,1,0,0,1,967.016,2200.634Z" transform="translate(-953.543 -2196.148)" fill="#fff"/><path d="M952.189,2163.57c-.339,1.677-.694,3.35-1.043,5.025-.081.387.024.569.412.617a.334.334,0,0,1,.321.27h0a1.92,1.92,0,0,1,.044-.416q.588-2.768,1.166-5.537a.842.842,0,0,0-.339-.927.78.78,0,0,0-.908-.05A1.084,1.084,0,0,1,952.189,2163.57Z" transform="translate(-943.357 -2161.642)" fill="#fff"/><path d="M987.458,2170.987c-.337,1.685-.7,3.366-1.048,5.048-.07.334.053.554.393.6a.351.351,0,0,1,.348.274h0a2.451,2.451,0,0,1,.025-.338q.43-2.049.867-4.1c.107-.5.215-1.006.316-1.511a.857.857,0,0,0-.323-.933.8.8,0,0,0-.93-.056A1.039,1.039,0,0,1,987.458,2170.987Z" transform="translate(-976.151 -2168.541)" fill="#fff"/><path d="M916.6,2166.565c-.287,1.436-.6,2.868-.9,4.3-.086.4.018.583.417.641.171.025.289.085.325.262h0a1.693,1.693,0,0,1,.051-.439q.5-2.376,1-4.753a.858.858,0,0,0-.314-.935.789.789,0,0,0-.928-.066A1.068,1.068,0,0,1,916.6,2166.565Z" transform="translate(-910.395 -2164.453)" fill="#fff"/><path d="M859.4,2236.911a4.605,4.605,0,0,1,.521,1.413,6.767,6.767,0,0,0,.737,1.778c.078.119.152.238.321.227h0a1.093,1.093,0,0,1,.029-.514c.029-.229.163-.447.09-.687-.181-.6-.355-1.2-.548-1.8a.863.863,0,0,0-1.26-.525A.845.845,0,0,1,859.4,2236.911Z" transform="translate(-857.972 -2230.699)" fill="#fff"/><path d="M1094.243,2166.288c.115.48.207.966.308,1.449.285,1.366.565,2.734.858,4.1.152.712.261,1.433.477,2.131.19-.26.374-.525.573-.778a.445.445,0,0,0,.079-.411c-.278-1.3-.547-2.594-.819-3.891-.177-.845-.352-1.69-.534-2.534a.857.857,0,0,0-1.263-.651h0C1094.182,2165.813,1094.19,2166.07,1094.243,2166.288Z" transform="translate(-1076.133 -2164.587)" fill="#fff"/><path d="M1023.569,2169.9c-.09.017-.13.046-.086.134a1.906,1.906,0,0,1,.1,1.242,1.757,1.757,0,0,1,1.109,0,2.816,2.816,0,0,0-.28-.987A.769.769,0,0,0,1023.569,2169.9Z" transform="translate(-1010.622 -2168.575)" fill="#fff"/></g></g></g><path d="M861.646,2157.585a1.19,1.19,0,0,1-.189.479c-.376-1.778-.74-3.54-1.124-5.3a1.645,1.645,0,0,0-2.725-.906c-.1.085-.138.1-.235-.016a1.643,1.643,0,0,0-2.659.1c-.08.109-.117.119-.234.048a1.622,1.622,0,0,0-1.581-.094.339.339,0,0,1-.313-.007,1.614,1.614,0,0,0-1.557.094c-.131.08-.169.059-.25-.058a1.676,1.676,0,0,0-2.618-.133c-.139.17-.19.132-.328.017a1.652,1.652,0,0,0-2.64.82c-.1.353-.157.716-.233,1.075a.415.415,0,0,0,.264.53h0c.34,0,.452-.09.52-.416.058-.28.11-.562.173-.841a.816.816,0,0,1,.467-.645.789.789,0,0,1,.928.066.857.857,0,0,1,.314.935q-.5,2.377-1,4.753a1.7,1.7,0,0,0-.051.44c.139.251.318.342.524.262a.49.49,0,0,0,.277-.415q.584-2.789,1.167-5.578a.83.83,0,0,1,.473-.673.781.781,0,0,1,.908.05.842.842,0,0,1,.339.927q-.577,2.77-1.166,5.537a1.917,1.917,0,0,0-.044.416.391.391,0,0,0,.454.271c.23-.037.3-.214.343-.411q.583-2.78,1.165-5.561a.866.866,0,0,1,.471-.707.8.8,0,0,1,.93.056.857.857,0,0,1,.323.933c-.1.5-.209,1.008-.316,1.511q-.434,2.047-.867,4.1a2.461,2.461,0,0,0-.025.339.4.4,0,0,0,.459.264c.228-.042.3-.219.337-.417q.423-2.026.849-4.051a.818.818,0,0,1,.425-.625.789.789,0,0,1,.933.017.84.84,0,0,1,.36.92q-.66,3.153-1.329,6.306c-.184.871-.37,1.742-.548,2.615a1.674,1.674,0,0,1-.467.89c-.187.184-.354.392-.553.562a3.357,3.357,0,0,0-1.095,2.085c-.226,1.272-.519,2.531-.786,3.8a.375.375,0,0,1-.517.326c-.179-.039-.356-.084-.533-.127a1.008,1.008,0,0,1-.131-.01l-6.286-1.315c-.336-.07-.434-.219-.362-.567.214-1.025.437-2.048.647-3.073a8.262,8.262,0,0,0,.263-1.6,4.4,4.4,0,0,0-.583-1.881,7.336,7.336,0,0,1-.947-2.75c-.012-.278-.067-.555-.1-.832-.08-.659-.174-1.316-.234-1.977a.756.756,0,0,1,.517-.819.863.863,0,0,1,1.26.525c.193.6.368,1.2.548,1.8.073.241-.061.458-.09.688a1.093,1.093,0,0,0-.029.514c.338.326.667.264.759-.162q.525-2.432,1.028-4.87c.073-.35-.053-.5-.412-.549h0c-.236.041-.326.206-.37.419-.162.788-.329,1.576-.494,2.363a2.03,2.03,0,0,1-.2-.458,1.622,1.622,0,0,0-.983-1.055,1.721,1.721,0,0,0-2.315,1.913c.116.8.215,1.594.3,2.393a6.506,6.506,0,0,0,.635,2.334c.252.488.468.994.7,1.491a2.211,2.211,0,0,1,.167,1.406c-.115.583-.241,1.163-.364,1.744-.165.777-.333,1.553-.5,2.331a1.156,1.156,0,0,0,.854,1.412q3.517.741,7.036,1.471a1.162,1.162,0,0,0,1.515-1c.266-1.282.531-2.565.8-3.846a2.126,2.126,0,0,1,.436-1.132c.292-.3.589-.6.884-.9h0a3.617,3.617,0,0,0,.934-2.2q.661-3.181,1.332-6.359a.5.5,0,0,1,.062-.1c.1.5.2.958.3,1.42.037.175.089.344.292.4a.388.388,0,0,0,.5-.476c-.1-.55-.22-1.1-.335-1.643q-.43-2.038-.863-4.075a.875.875,0,1,1,1.708-.36q.587,2.781,1.168,5.563c.013.06.025.12.043.178a.385.385,0,0,0,.476.3.368.368,0,0,0,.284-.46c-.087-.481-.19-.959-.291-1.438-.252-1.2-.509-2.391-.76-3.587a.844.844,0,0,1,.451-.987h0a.857.857,0,0,1,1.263.651c.182.844.356,1.689.533,2.535.272,1.3.541,2.6.819,3.891a.445.445,0,0,1-.079.411c-.2.253-.383.518-.573.778a6.7,6.7,0,0,0-.791,1.47,5.19,5.19,0,0,0-.217,2.635c.062.349.214.5.48.459s.362-.248.3-.594a4.279,4.279,0,0,1,.432-2.794,2.777,2.777,0,0,1,.332-.533,7.019,7.019,0,0,0,1.459-3,3.325,3.325,0,0,1,.12-.4.786.786,0,0,1,.448-.515h0a.882.882,0,0,1,1.319.772c-.042.669-.146,1.335-.225,2-.034.286-.092.57-.1.857a7.068,7.068,0,0,1-.9,2.652,7.863,7.863,0,0,0-.6,1.5,6.155,6.155,0,0,0,.162,1.838.258.258,0,0,0,.05.21,3.282,3.282,0,0,1,.16.788l.042.158a4.06,4.06,0,0,1,.168.84l.062.257a5.559,5.559,0,0,1,.2,1c-.009.108.108.2.043.314a.269.269,0,0,1-.259.262.5.5,0,0,1-.262.055.275.275,0,0,1-.211.048l-.09.01h0c-.676.2-1.373.307-2.061.456-1.468.317-2.939.615-4.409.922-.33.069-.476-.023-.544-.347q-.449-2.137-.9-4.274a3.2,3.2,0,0,0-.111-.4c-.119-.336-.278-.412-.624-.309a.455.455,0,0,0-.122.567,3.183,3.183,0,0,1,.122.482c.3,1.409.588,2.821.9,4.228a1.119,1.119,0,0,0,1.312.857q3.557-.742,7.112-1.494a1.144,1.144,0,0,0,.931-1.425q-.421-2.012-.848-4.024a2.234,2.234,0,0,1,.145-1.434c.178-.388.367-.772.544-1.16a6.525,6.525,0,0,0,.673-1.781q.238-1.727.443-3.459a1.608,1.608,0,0,0-.4-1.288A1.706,1.706,0,0,0,861.646,2157.585Zm-8.155-3.667a1.906,1.906,0,0,0-.1-1.242c-.044-.089,0-.117.086-.134a.769.769,0,0,1,.844.393,2.815,2.815,0,0,1,.28.987A1.759,1.759,0,0,0,853.491,2153.918Z" transform="translate(-1232.476 -14080.805)" fill="#38474f"/></g></svg>