<svg width="23" height="22" viewBox="0 0 23 22" fill="none" xmlns="http://www.w3.org/2000/svg">
<rect y="21.5" width="21.5" height="23" rx="4" transform="rotate(-90 0 21.5)" fill="#D1D1D1"/>
<path d="M11.2633 16.94L11.2587 16.938L11.244 16.93C11.1582 16.8828 11.0731 16.8344 10.9887 16.7847C9.97387 16.1817 9.02552 15.4733 8.15933 14.6714C6.62533 13.24 5 11.116 5 8.50005C5 6.54805 6.64267 5.00005 8.62533 5.00005C9.1765 4.99735 9.72119 5.11894 10.2189 5.35578C10.7166 5.59263 11.1545 5.93863 11.5 6.36805C11.8456 5.93854 12.2836 5.59249 12.7814 5.35564C13.2792 5.11879 13.8241 4.99725 14.3753 5.00005C16.3573 5.00005 18 6.54805 18 8.50005C18 11.1167 16.3747 13.2407 14.8407 14.6707C13.9745 15.4727 13.0261 16.1811 12.0113 16.784C11.9269 16.8339 11.8418 16.8826 11.756 16.93L11.7413 16.938L11.7367 16.9407L11.7347 16.9414C11.6624 16.9797 11.5818 16.9997 11.5 16.9997C11.4182 16.9997 11.3376 16.9797 11.2653 16.9414L11.2633 16.94Z" fill="#F0F0F0"/>
</svg>
