<svg width="18" height="19" viewBox="0 0 18 19" fill="none" xmlns="http://www.w3.org/2000/svg">
<g id="fa6-solid:thumbs-up">
<path id="Vector" d="M11.018 1.65658C11.932 1.83939 12.5262 2.72885 12.3434 3.64291L12.2625 4.04369C12.0762 4.98236 11.7316 5.87533 11.25 6.68744H16.3125C17.2441 6.68744 18 7.4433 18 8.37494C18 9.02533 17.6309 9.59135 17.0895 9.8726C17.4727 10.182 17.7188 10.6566 17.7188 11.1874C17.7188 12.0101 17.1281 12.6956 16.3512 12.8433C16.5059 13.0999 16.5938 13.3988 16.5938 13.7187C16.5938 14.4675 16.1051 15.1038 15.4301 15.3218C15.4547 15.4378 15.4688 15.5609 15.4688 15.6874C15.4688 16.6191 14.7129 17.3749 13.7812 17.3749H10.3535C9.68555 17.3749 9.03516 17.1781 8.47969 16.8089L7.12617 15.9054C6.1875 15.2796 5.625 14.2249 5.625 13.0964V9.18705C5.625 8.16049 6.09258 7.19369 6.89062 6.55033L7.15078 6.34291C8.08242 5.5976 8.71875 4.54994 8.95078 3.38275L9.03164 2.98197C9.21445 2.06791 10.1039 1.47377 11.018 1.65658ZM1.125 7.24994H3.375C3.99727 7.24994 4.5 7.75268 4.5 8.37494V16.2499C4.5 16.8722 3.99727 17.3749 3.375 17.3749H1.125C0.502734 17.3749 0 16.8722 0 16.2499V8.37494C0 7.75268 0.502734 7.24994 1.125 7.24994Z" fill="#EEC790"/>
</g>
</svg>
