<svg width="19" height="19" viewBox="0 0 19 19" fill="none" xmlns="http://www.w3.org/2000/svg">
<g id="Group">
<g id="Group 183507">
<path id="Vector" d="M11.033 8.14452C10.3136 7.42544 9.33811 7.02148 8.32097 7.02148C7.30382 7.02148 6.32831 7.42544 5.60893 8.14452L2.89601 10.8566C2.17661 11.576 1.77246 12.5517 1.77246 13.569C1.77246 14.5864 2.17661 15.5621 2.89601 16.2815C3.6154 17.0009 4.59111 17.4051 5.60849 17.4051C6.62586 17.4051 7.60157 17.0009 8.32097 16.2815L9.67699 14.9255" stroke="white" stroke-width="2" stroke-linecap="round" stroke-linejoin="round"/>
<path id="Vector_2" d="M8.31836 10.8562C9.03774 11.5753 10.0133 11.9793 11.0304 11.9793C12.0475 11.9793 13.0231 11.5753 13.7424 10.8562L16.4554 8.14421C17.1748 7.42481 17.5789 6.44911 17.5789 5.43173C17.5789 4.41435 17.1748 3.43864 16.4554 2.71925C15.736 1.99985 14.7603 1.5957 13.7429 1.5957C12.7255 1.5957 11.7498 1.99985 11.0304 2.71925L9.67438 4.07527" stroke="white" stroke-width="2" stroke-linecap="round" stroke-linejoin="round"/>
</g>
</g>
</svg>
