<svg width="19" height="18" viewBox="0 0 19 18" fill="none" xmlns="http://www.w3.org/2000/svg">
<g id="Group 183507">
<g id="Group 184675">
<path id="Vector" d="M10.6316 7.54882C9.91226 6.82973 8.93675 6.42578 7.9196 6.42578C6.90245 6.42578 5.92694 6.82973 5.20756 7.54882L2.49464 10.2609C1.77525 10.9803 1.37109 11.956 1.37109 12.9733C1.37109 13.9907 1.77525 14.9664 2.49464 15.6858C3.21403 16.4052 4.18974 16.8094 5.20712 16.8094C6.2245 16.8094 7.2002 16.4052 7.9196 15.6858L9.27562 14.3298" stroke="#181818" stroke-width="2" stroke-linecap="round" stroke-linejoin="round"/>
<path id="Vector_2" d="M7.91602 10.2605C8.6354 10.9796 9.61091 11.3836 10.6281 11.3836C11.6452 11.3836 12.6207 10.9796 13.3401 10.2605L16.053 7.54851C16.7724 6.82911 17.1766 5.8534 17.1766 4.83603C17.1766 3.81865 16.7724 2.84294 16.053 2.12355C15.3336 1.40415 14.3579 1 13.3405 1C12.3232 1 11.3475 1.40415 10.6281 2.12355L9.27204 3.47957" stroke="#181818" stroke-width="2" stroke-linecap="round" stroke-linejoin="round"/>
</g>
</g>
</svg>
