<svg width="19" height="19" viewBox="0 0 19 19" fill="none" xmlns="http://www.w3.org/2000/svg">
<path d="M10.8543 8.14452C10.1349 7.42544 9.1594 7.02148 8.14226 7.02148C7.12511 7.02148 6.1496 7.42544 5.43021 8.14452L2.7173 10.8566C1.9979 11.576 1.59375 12.5517 1.59375 13.569C1.59375 14.5864 1.9979 15.5621 2.7173 16.2815C3.43669 17.0009 4.4124 17.4051 5.42978 17.4051C6.44715 17.4051 7.42286 17.0009 8.14226 16.2815L9.49828 14.9255" stroke="white" stroke-width="2" stroke-linecap="round" stroke-linejoin="round"/>
<path d="M8.14062 10.8562C8.86001 11.5753 9.83552 11.9793 10.8527 11.9793C11.8698 11.9793 12.8453 11.5753 13.5647 10.8562L16.2776 8.14421C16.997 7.42481 17.4012 6.44911 17.4012 5.43173C17.4012 4.41435 16.997 3.43864 16.2776 2.71925C15.5582 1.99985 14.5825 1.5957 13.5651 1.5957C12.5478 1.5957 11.5721 1.99985 10.8527 2.71925L9.49665 4.07527" stroke="white" stroke-width="2" stroke-linecap="round" stroke-linejoin="round"/>
</svg>
