<svg width="30" height="44" viewBox="0 0 30 44" fill="none" xmlns="http://www.w3.org/2000/svg">
<g id="Group 184243">
<ellipse id="Ellipse 193" cx="15.4102" cy="42.1098" rx="6.18759" ry="0.585842" fill="#737272"/>
<g id="Group 184241">
<path id="Vector" d="M15.3137 1.85966C11.9546 1.83031 8.72156 3.13489 6.32565 5.48645C3.92974 7.83801 2.56724 11.0439 2.53794 14.3989C2.45287 24.1378 14.9621 42.1092 14.9621 42.1092C14.9621 42.1092 27.8202 24.2516 27.8324 14.6198C27.8616 11.2711 26.5602 8.04738 24.2135 5.65543C21.8668 3.26347 18.6664 1.89846 15.3137 1.85966Z" fill="#5E3B63"/>
<path id="Vector_2" d="M15.1204 22.7881C19.7109 22.7881 23.4323 19.0713 23.4323 14.4863C23.4323 9.90139 19.7109 6.18457 15.1204 6.18457C10.5299 6.18457 6.80859 9.90139 6.80859 14.4863C6.80859 19.0713 10.5299 22.7881 15.1204 22.7881Z" fill="white"/>
</g>
</g>
</svg>
