<svg width="20" height="19" viewBox="0 0 20 19" fill="none" xmlns="http://www.w3.org/2000/svg">
<path d="M18.707 8.4555C18.707 8.17936 18.4832 7.9555 18.207 7.9555H6.70974L11.6923 2.97298C11.7863 2.87896 11.839 2.75136 11.8387 2.61839C11.8384 2.48542 11.7852 2.35804 11.6908 2.26441L10.2076 0.793421C10.0121 0.59954 9.69661 0.600194 9.50192 0.794884L1.15035 9.14645C0.955091 9.34171 0.955091 9.65829 1.15035 9.85355L9.50192 18.2051C9.69718 18.4004 10.0138 18.4004 10.209 18.2051L11.6811 16.733C11.8763 16.5379 11.8764 16.2216 11.6815 16.0262L6.70811 11.0434H18.207C18.4832 11.0434 18.707 10.8195 18.707 10.5434V8.4555Z" stroke='none' stroke-linejoin="round"/>
</svg>
