<svg width="26" height="35" viewBox="0 0 26 35" fill="none" xmlns="http://www.w3.org/2000/svg">
<path d="M13 21.875C16.6991 21.875 19.697 18.9375 19.697 15.3125V6.5625C19.697 2.9375 16.6991 0 13 0C9.30091 0 6.30303 2.9375 6.30303 6.5625V15.3125C6.30303 18.9375 9.30091 21.875 13 21.875ZM26 15.2344C26 15.0625 25.8582 14.9219 25.6848 14.9219H23.3212C23.1479 14.9219 23.0061 15.0625 23.0061 15.2344C23.0061 20.7148 18.527 25.1562 13 25.1562C7.47303 25.1562 2.99394 20.7148 2.99394 15.2344C2.99394 15.0625 2.85212 14.9219 2.67879 14.9219H0.315152C0.141818 14.9219 0 15.0625 0 15.2344C0 21.8242 4.98727 27.2617 11.4242 28.0312V32.0312H5.7003C5.16061 32.0312 4.72727 32.5898 4.72727 33.2812V34.6875C4.72727 34.8594 4.83758 35 4.97152 35H21.0285C21.1624 35 21.2727 34.8594 21.2727 34.6875V33.2812C21.2727 32.5898 20.8394 32.0312 20.2997 32.0312H14.4182V28.0508C20.93 27.3477 26 21.8789 26 15.2344Z" fill="black"/>
</svg>
