<svg width="38" height="32" viewBox="0 0 38 32" fill="none" xmlns="http://www.w3.org/2000/svg">
<path d="M8.625 3.15273H16.4375V15.5527L12.5312 13.2277L8.625 15.5527M27.375 0.0527344H8.625C7.7962 0.0527344 7.00134 0.37934 6.41529 0.960703C5.82924 1.54207 5.5 2.33056 5.5 3.15273V27.9527C5.5 28.7749 5.82924 29.5634 6.41529 30.1448C7.00134 30.7261 7.7962 31.0527 8.625 31.0527H27.375C28.2038 31.0527 28.9987 30.7261 29.5847 30.1448C30.1708 29.5634 30.5 28.7749 30.5 27.9527V3.15273C30.5 2.33056 30.1708 1.54207 29.5847 0.960703C28.9987 0.37934 28.2038 0.0527344 27.375 0.0527344Z" fill="black"/>
<circle cx="29.5" cy="21.5527" r="8" fill="white" stroke="black"/>
<g clip-path="url(#clip0_1084_26962)">
<path d="M33.9274 24.4797L31.5004 22.0527L33.9274 19.6257C33.9739 19.5786 34 19.5151 34 19.4489C34 19.3827 33.9739 19.3192 33.9274 19.2722L32.7809 18.1257C32.7577 18.1024 32.7302 18.0839 32.6998 18.0713C32.6695 18.0587 32.637 18.0522 32.6042 18.0522C32.5713 18.0522 32.5388 18.0587 32.5085 18.0713C32.4781 18.0839 32.4506 18.1024 32.4274 18.1257L30.0004 20.5527L27.5734 18.1257C27.5265 18.0788 27.4629 18.0525 27.3967 18.0525C27.3304 18.0525 27.2668 18.0788 27.2199 18.1257L26.0734 19.2722C26.0501 19.2953 26.0317 19.3229 26.0191 19.3532C26.0065 19.3835 26 19.4161 26 19.4489C26 19.4817 26.0065 19.5143 26.0191 19.5446C26.0317 19.5749 26.0501 19.6025 26.0734 19.6257L28.5004 22.0527L26.0734 24.4797C26.0265 24.5265 26.0002 24.5901 26.0002 24.6564C26.0002 24.7227 26.0265 24.7863 26.0734 24.8332L27.2199 25.9797C27.2431 26.0029 27.2706 26.0214 27.301 26.034C27.3313 26.0466 27.3638 26.0531 27.3967 26.0531C27.4295 26.0531 27.462 26.0466 27.4923 26.034C27.5227 26.0214 27.5502 26.0029 27.5734 25.9797L30.0004 23.5527L32.4274 25.9797C32.4743 26.0265 32.5379 26.0528 32.6042 26.0528C32.6704 26.0528 32.734 26.0265 32.7809 25.9797L33.9274 24.8332C33.9507 24.81 33.9691 24.7824 33.9817 24.7521C33.9943 24.7218 34.0008 24.6892 34.0008 24.6564C34.0008 24.6236 33.9943 24.591 33.9817 24.5607C33.9691 24.5304 33.9507 24.5028 33.9274 24.4797Z" fill="black"/>
</g>
<defs>
<clipPath id="clip0_1084_26962">
<rect width="8" height="8" fill="white" transform="translate(26 18.0527)"/>
</clipPath>
</defs>
</svg>
