<svg width="36" height="36" viewBox="0 0 36 36" fill="none" xmlns="http://www.w3.org/2000/svg">
<path d="M18.25 0.916992C14.7942 0.916992 11.4161 1.94175 8.54272 3.86167C5.66936 5.78159 3.42984 8.51044 2.10738 11.7032C0.784914 14.8959 0.438898 18.409 1.11308 21.7984C1.78727 25.1878 3.45138 28.3011 5.89497 30.7447C8.33857 33.1883 11.4519 34.8524 14.8413 35.5266C18.2306 36.2008 21.7438 35.8547 24.9365 34.5323C28.1292 33.2098 30.8581 30.9703 32.778 28.0969C34.6979 25.2236 35.7227 21.8454 35.7227 18.3896C35.7227 16.0951 35.2707 13.823 34.3926 11.7032C33.5146 9.58327 32.2275 7.6571 30.605 6.03461C28.9826 4.41213 27.0564 3.1251 24.9365 2.24702C22.8166 1.36894 20.5445 0.916992 18.25 0.916992ZM23.8587 21.5173C24.0225 21.6797 24.1525 21.8729 24.2412 22.0859C24.3299 22.2988 24.3756 22.5272 24.3756 22.7578C24.3756 22.9885 24.3299 23.2168 24.2412 23.4298C24.1525 23.6427 24.0225 23.8359 23.8587 23.9984C23.6963 24.1621 23.503 24.2921 23.2901 24.3808C23.0772 24.4695 22.8488 24.5152 22.6182 24.5152C22.3875 24.5152 22.1591 24.4695 21.9462 24.3808C21.7333 24.2921 21.54 24.1621 21.3776 23.9984L18.25 20.8533L15.1224 23.9984C14.96 24.1621 14.7667 24.2921 14.5538 24.3808C14.3409 24.4695 14.1125 24.5152 13.8818 24.5152C13.6512 24.5152 13.4228 24.4695 13.2099 24.3808C12.997 24.2921 12.8037 24.1621 12.6413 23.9984C12.4775 23.8359 12.3475 23.6427 12.2588 23.4298C12.1701 23.2168 12.1244 22.9885 12.1244 22.7578C12.1244 22.5272 12.1701 22.2988 12.2588 22.0859C12.3475 21.8729 12.4775 21.6797 12.6413 21.5173L15.7864 18.3896L12.6413 15.262C12.3123 14.933 12.1274 14.4868 12.1274 14.0215C12.1274 13.5562 12.3123 13.1099 12.6413 12.7809C12.9703 12.4519 13.4165 12.2671 13.8818 12.2671C14.3471 12.2671 14.7934 12.4519 15.1224 12.7809L18.25 15.926L21.3776 12.7809C21.7066 12.4519 22.1529 12.2671 22.6182 12.2671C23.0835 12.2671 23.5297 12.4519 23.8587 12.7809C24.1877 13.1099 24.3726 13.5562 24.3726 14.0215C24.3726 14.4868 24.1877 14.933 23.8587 15.262L20.7136 18.3896L23.8587 21.5173Z" fill="#91BFE1"/>
</svg>
