<svg width="108" height="61" viewBox="0 0 108 61" fill="none" xmlns="http://www.w3.org/2000/svg">
<path d="M54 33.5718L54.0015 33.5718C57.0677 33.5627 60.1068 34.2357 62.9434 35.5536C65.7803 36.8717 68.36 38.8096 70.5315 41.2584L70.5323 41.2594C74.1288 45.2939 76.418 50.4124 77.1523 55.9658C77.4693 58.3633 79.4097 60.3889 81.9091 60.3889H102.501C104.978 60.3889 107.03 58.3697 106.88 55.8581C105.038 24.989 82.1134 0.5 54.0024 0.5C39.8711 0.5 27.0395 6.6957 17.5471 16.7778C8.16394 26.7418 2.03788 40.5058 1.12002 55.8602C0.969844 58.3725 3.02305 60.3889 5.5 60.3889H26.0909C28.5903 60.3889 30.5308 58.3633 30.8475 55.9657C31.5816 50.4098 33.8709 45.2899 37.4675 41.2596C41.8959 36.297 47.7675 33.5718 54 33.5718Z" fill="white" stroke="#D26E25"/>
<path d="M20.3559 21.0838C18.8306 19.2587 16.0484 19.1537 14.5479 20.9992C6.92525 30.3741 2.36991 42.5108 1.61255 55.8897C1.4877 58.0953 3.29086 59.8887 5.5 59.8887H26.4167C28.6258 59.8887 30.3895 58.0919 30.6385 55.8969C31.1384 51.4912 32.4966 47.3085 34.8517 43.7546C35.9579 42.0854 36.0418 39.8533 34.7576 38.3167L20.3559 21.0838Z" fill="#F7AD45"/>
<path d="M20.3559 21.0843C18.8306 19.2592 16.0484 19.1542 14.5479 20.9997C6.92525 30.3746 2.36991 42.5113 1.61255 55.8902C1.4877 58.0958 3.29086 59.8892 5.5 59.8892H26.4167C28.6258 59.8892 30.3895 58.0924 30.6385 55.8974C31.1384 51.4917 32.4966 47.309 34.8517 43.7551C35.9579 42.0859 36.0418 39.8537 34.7576 38.3172L20.3559 21.0843Z" fill="#F7AD45"/>
<path d="M45.5 60.5003C44.0838 60.5003 43.0354 59.3629 43.2908 58.1203C44.4699 52.3833 49.0715 48.167 54.5006 48.167C59.9297 48.167 64.5304 52.3833 65.7093 58.1203C65.9646 59.3629 64.9161 60.5003 63.5 60.5003H45.5Z" fill="#D26E25" stroke="#D26E25"/>
<path d="M51.4022 47.0707L54.1866 19.6987C54.1866 19.6987 54.1866 19.6987 54.1866 19.6987C54.206 19.5081 54.2718 19.4045 54.3252 19.3521C54.3798 19.2987 54.4417 19.2773 54.4987 19.2773C54.5556 19.2773 54.6181 19.2987 54.6733 19.3526C54.7273 19.4054 54.7934 19.5092 54.8135 19.6996C54.8135 19.6998 54.8136 19.7 54.8136 19.7002L57.5978 47.0707C57.7844 48.9055 56.3443 50.4996 54.5 50.4996C52.6557 50.4996 51.2156 48.9055 51.4022 47.0707Z" fill="#F7AD45" stroke="#D26E25"/>
<path d="M73.2412 38.3181C71.9575 39.8541 72.0407 42.0851 73.1464 43.7538C75.5024 47.3097 76.8612 51.4921 77.3613 55.8969C77.6105 58.0919 79.3742 59.8887 81.5833 59.8887H102.5C104.709 59.8887 106.513 58.0952 106.383 55.8899C105.602 42.5372 100.928 30.4006 93.4503 21.0549C91.9552 19.1864 89.1525 19.2789 87.6179 21.1152L73.2412 38.3181Z" fill="#D26E25"/>
</svg>
