<svg width="18" height="18" viewBox="0 0 18 18" fill="none" xmlns="http://www.w3.org/2000/svg">
<g id="Group 184114">
<circle id="Ellipse 160" cx="9" cy="9" r="9" fill="#DADADA"/>
<path id="Vector" d="M8.13094 12.7303C8.13094 12.9345 8.2225 13.1302 8.38548 13.2746C8.54846 13.4189 8.76951 13.5 9 13.5C9.23049 13.5 9.45154 13.4189 9.61452 13.2746C9.7775 13.1302 9.86906 12.9345 9.86906 12.7303C9.86906 12.6292 9.84658 12.5292 9.80291 12.4358C9.75923 12.3424 9.69522 12.2575 9.61452 12.1861C9.53382 12.1146 9.43802 12.0579 9.33258 12.0192C9.22714 11.9806 9.11413 11.9606 9 11.9606C8.88587 11.9606 8.77286 11.9806 8.66742 12.0192C8.56198 12.0579 8.46618 12.1146 8.38548 12.1861C8.30478 12.2575 8.24077 12.3424 8.19709 12.4358C8.15342 12.5292 8.13094 12.6292 8.13094 12.7303ZM10.5314 9.82498C11.754 9.22866 12.375 8.36408 12.375 7.2559C12.375 5.35262 10.6799 4.5 9 4.5C7.36397 4.5 5.625 5.55289 5.625 7.50473C5.625 7.70292 5.71389 7.89299 5.87213 8.03313C6.03036 8.17326 6.24497 8.25199 6.46875 8.25199C6.69253 8.25199 6.90714 8.17326 7.06537 8.03313C7.22361 7.89299 7.3125 7.70292 7.3125 7.50473C7.3125 6.46679 8.18747 5.99452 9 5.99452C9.63028 5.99452 10.6875 6.15817 10.6875 7.2559C10.6875 7.64522 10.5719 8.09955 9.71803 8.51652C9.13753 8.79824 8.15625 9.52981 8.15625 10.4781C8.15625 10.6763 8.24514 10.8663 8.40338 11.0065C8.56161 11.1466 8.77622 11.2253 9 11.2253C9.22378 11.2253 9.43839 11.1466 9.59662 11.0065C9.75486 10.8663 9.84375 10.6763 9.84375 10.4781C9.84375 10.3391 10.177 9.99759 10.5314 9.82498Z" fill="#4E4E4E"/>
</g>
</svg>
