<svg width="40" height="41" viewBox="0 0 40 41" fill="none" xmlns="http://www.w3.org/2000/svg">
<rect width="40" height="41" rx="3" fill="#FF8F3E"/>
<path d="M25.644 19.9501C25.6548 20.1822 25.6198 20.4142 25.5408 20.6327C25.4615 20.852 25.3395 21.0535 25.1819 21.2253L25.1819 21.2253L17.3196 29.7995L17.3196 29.7995L17.3136 29.8058C16.9944 30.1421 16.5558 30.3394 16.0925 30.3555C15.6291 30.3715 15.178 30.2049 14.8362 29.8916C14.4945 29.5782 14.2895 29.1432 14.2655 28.6801C14.2414 28.2171 14.4001 27.7631 14.7075 27.416L14.7074 27.416L14.7133 27.4096L21.3843 20.1346L14.1094 13.4636L14.1093 13.4636L14.103 13.4576C13.7668 13.1384 13.5694 12.6999 13.5534 12.2365C13.5373 11.7731 13.7039 11.322 14.0173 10.9803C14.3306 10.6385 14.7657 10.4335 15.2287 10.4095C15.6917 10.3854 16.1457 10.5441 16.4928 10.8515L16.4929 10.8514L16.4993 10.8573L25.0734 18.7197L25.0734 18.7197C25.2453 18.8773 25.3842 19.0674 25.4822 19.279C25.5798 19.4899 25.6347 19.718 25.644 19.9501ZM25.644 19.9501C25.6439 19.9493 25.6439 19.9485 25.6438 19.9476L25.1444 19.9718L25.644 19.9527C25.644 19.9518 25.644 19.951 25.644 19.9501Z" fill="white" stroke="white"/>
</svg>
