<svg xmlns="http://www.w3.org/2000/svg" width="20" height="23.993" viewBox="0 0 20 23.993"><g transform="translate(-339 -36.007)"><g transform="translate(334 35)"><path d="M11.5,22c-1.6,0-3.175,0-4.751,0a1.523,1.523,0,0,1-1.079-2.764A6.889,6.889,0,0,0,8,14.008c.009-1.217-.062-2.444.061-3.651A6.743,6.743,0,0,1,12.54,4.47c.377-.153.507-.327.471-.706a5.857,5.857,0,0,1,0-.843A1.989,1.989,0,0,1,16.987,2.9c.024.45-.12.995.086,1.324.192.306.765.356,1.144.567A6.922,6.922,0,0,1,22,10.991c.031.983.008,1.968.006,2.952a6.885,6.885,0,0,0,2.349,5.312,1.54,1.54,0,0,1,.537,1.795,1.557,1.557,0,0,1-1.618.95c-1.592,0-3.183,0-4.763,0-.725,2.088-1.858,3.026-3.593,3C13.278,24.973,12.133,23.979,11.5,22Zm3.518-1.008q4.1,0,8.2,0c.3,0,.675.028.722-.338a.972.972,0,0,0-.315-.7,7.989,7.989,0,0,1-2.624-6c-.006-1.062.019-2.125-.01-3.186A5.983,5.983,0,0,0,9.1,10.062a20.82,20.82,0,0,0-.089,3.319,8.161,8.161,0,0,1-2.769,6.684.826.826,0,0,0-.127.137.475.475,0,0,0,.325.776,2.854,2.854,0,0,0,.467.014Zm-2.423,1.023a2.42,2.42,0,0,0,2.514,1.97,2.375,2.375,0,0,0,2.287-1.97ZM15.975,4.028a9.349,9.349,0,0,0-.01-1.209.982.982,0,0,0-1.933.009,9.991,9.991,0,0,0-.01,1.2Z" transform="translate(0)" fill="#959fae"/></g><circle cx="4" cy="4" r="4" transform="translate(351 40)" fill="#ff6b6b"/></g></svg>