<svg width="33" height="33" viewBox="0 0 33 33" fill="none" xmlns="http://www.w3.org/2000/svg">
<path d="M16.7937 21.0151C15.8423 21.0151 15.0742 20.247 15.0742 19.2956V9.73513C15.0742 8.78367 15.8423 8.01562 16.7937 8.01562C17.7452 8.01562 18.5132 8.78367 18.5132 9.73513V19.2956C18.5132 20.247 17.7452 21.0151 16.7937 21.0151Z" />
<path d="M16.7881 25.0538C13.5211 25.0538 10.254 25.0137 6.98694 25.071C4.95792 25.1054 4.47646 23.3859 4.90634 22.1364C5.11841 21.5231 5.49097 21.0416 6.00109 20.6576C6.2934 20.4398 6.58572 20.222 6.87803 20.0042C7.80083 19.3221 8.2823 18.3936 8.30522 17.2587C8.34535 15.224 8.34535 13.1892 8.33961 11.1602C8.33388 9.4579 8.84974 7.95047 9.97315 6.66084C11.0106 5.47438 12.3231 4.69487 13.8019 4.18475C14.6731 3.88097 18.9031 3.84658 19.9921 4.25926C21.7174 4.90695 23.1904 5.88706 24.2107 7.46328C24.887 8.50644 25.2309 9.65278 25.2366 10.8908C25.2481 12.7594 25.2366 14.6279 25.2424 16.4964C25.2424 16.9206 25.271 17.3447 25.3341 17.7631C25.4716 18.7031 25.9531 19.4482 26.7154 20.0157C27.0249 20.2449 27.3402 20.4742 27.6497 20.7092C28.3203 21.2308 28.7158 21.9186 28.8132 22.7669C28.9679 24.0737 28.1139 25.0538 26.8014 25.0596C24.3081 25.0653 21.8148 25.0596 19.3273 25.0596C18.479 25.0538 17.6307 25.0538 16.7881 25.0538Z" />
<path d="M20.9435 26.9688C20.932 28.3787 20.2786 29.4047 19.1438 30.1384C17.6822 31.0841 16.1633 31.1414 14.6501 30.2759C13.4006 29.5537 12.6612 28.4876 12.6211 26.9688C15.401 26.9687 18.1579 26.9688 20.9435 26.9688Z" />
</svg>
