<svg width="69" height="79" viewBox="0 0 69 79" fill="none" xmlns="http://www.w3.org/2000/svg">
<path d="M2 11.49L34.5163 2L67 11.49V30.9503C66.9987 40.9234 63.8599 50.6433 58.028 58.7335C52.1961 66.8237 43.9667 72.8741 34.5054 76.0278C25.0406 72.8754 16.8079 66.8245 10.9738 58.7323C5.1397 50.6401 2.00014 40.9172 2 30.9412V11.49Z" stroke="#24BD86" stroke-width="4" stroke-linejoin="round"/>
<path fill-rule="evenodd" clip-rule="evenodd" d="M17 38.5C17 33.8587 18.8437 29.4075 22.1256 26.1256C25.4075 22.8437 29.8587 21 34.5 21C39.1413 21 43.5925 22.8437 46.8744 26.1256C50.1563 29.4075 52 33.8587 52 38.5C52 43.1413 50.1563 47.5925 46.8744 50.8744C43.5925 54.1563 39.1413 56 34.5 56C29.8587 56 25.4075 54.1563 22.1256 50.8744C18.8437 47.5925 17 43.1413 17 38.5ZM33.5013 45.99L43.5767 33.3947L41.7567 31.9387L33.1653 42.6743L27.08 37.604L25.5867 39.396L33.5013 45.99Z" fill="#24BD86"/>
</svg>
