<svg width="19" height="18" viewBox="0 0 19 18" fill="none" xmlns="http://www.w3.org/2000/svg">
<path d="M17.2013 13.1608H7.50132L7.35932 13.1728H7.30332C7.06848 12.4674 6.6182 11.8535 6.01594 11.4175C5.41368 10.9816 4.6898 10.7456 3.94632 10.7428C3.27779 10.7302 2.61879 10.9026 2.04208 11.241C1.46537 11.5794 0.993379 12.0705 0.678235 12.6603C0.363091 13.25 0.21705 13.9153 0.256237 14.5828C0.295424 15.2503 0.518315 15.894 0.900298 16.4428C1.28228 16.9916 1.8085 17.4241 2.42084 17.6927C3.03318 17.9613 3.70783 18.0554 4.3703 17.9646C5.03276 17.8739 5.65726 17.6019 6.17484 17.1785C6.69243 16.7552 7.08296 16.1971 7.30332 15.5658C7.36942 15.5766 7.43639 15.5809 7.50332 15.5788H17.2033L17.3453 15.5658C17.6413 15.5187 17.9092 15.3632 18.097 15.1295C18.2847 14.8958 18.3789 14.6007 18.3612 14.3015C18.3435 14.0023 18.2151 13.7204 18.0012 13.5105C17.7872 13.3006 17.5028 13.1778 17.2033 13.1658L17.2013 13.1608ZM3.94632 15.5838C3.70642 15.5888 3.47046 15.5222 3.26849 15.3927C3.06653 15.2631 2.90768 15.0764 2.81219 14.8562C2.7167 14.6361 2.68887 14.3925 2.73226 14.1565C2.77564 13.9205 2.88827 13.7027 3.05581 13.531C3.22335 13.3592 3.43822 13.2411 3.67307 13.1919C3.90791 13.1426 4.15211 13.1643 4.37457 13.2543C4.59702 13.3442 4.78768 13.4983 4.92227 13.697C5.05685 13.8957 5.12928 14.1299 5.13032 14.3698C5.13406 14.6878 5.01147 14.9942 4.78948 15.2218C4.56749 15.4494 4.26424 15.5796 3.94632 15.5838Z" />
<path d="M17.203 2.41592H15.811L15.669 2.42892H15.61C15.3772 1.72222 14.9273 1.10701 14.3245 0.670892C13.7217 0.234777 12.9966 0 12.2525 0C11.5085 0 10.7834 0.234777 10.1805 0.670892C9.57769 1.10701 9.12782 1.72222 8.89501 2.42892C8.82891 2.41826 8.76194 2.41391 8.69501 2.41592H1.57501L1.43201 2.42892C1.13601 2.47607 0.868111 2.63159 0.680373 2.86525C0.492636 3.0989 0.398469 3.39401 0.416173 3.69322C0.433876 3.99243 0.562185 4.27438 0.776165 4.48427C0.990146 4.69415 1.27451 4.81699 1.57401 4.82892H8.69301L8.83501 4.81692H8.89501C9.12782 5.52361 9.57769 6.13883 10.1805 6.57494C10.7834 7.01106 11.5085 7.24583 12.2525 7.24583C12.9966 7.24583 13.7217 7.01106 14.3245 6.57494C14.9273 6.13883 15.3772 5.52361 15.61 4.81692C15.6762 4.82682 15.7431 4.83084 15.81 4.82892H17.201L17.343 4.81692C17.6439 4.77471 17.9179 4.62076 18.1104 4.3857C18.3029 4.15065 18.3999 3.85172 18.382 3.54841C18.3641 3.2451 18.2326 2.95965 18.0138 2.74887C17.795 2.53809 17.5048 2.41744 17.201 2.41092L17.203 2.41592ZM12.252 4.83392C12.012 4.83848 11.776 4.77148 11.5742 4.64144C11.3724 4.5114 11.2138 4.32421 11.1188 4.10374C11.0237 3.88327 10.9965 3.63949 11.0405 3.40347C11.0845 3.16745 11.1978 2.94988 11.3659 2.77849C11.5341 2.6071 11.7494 2.48965 11.9846 2.44111C12.2197 2.39256 12.4639 2.41512 12.6862 2.50592C12.9085 2.59671 13.0987 2.75162 13.2326 2.9509C13.3664 3.15019 13.438 3.38483 13.438 3.62492C13.4404 3.94232 13.317 4.24775 13.0947 4.47434C12.8724 4.70093 12.5694 4.83022 12.252 4.83392Z" />
</svg>
