<svg width="70" height="20" viewBox="0 0 70 20" fill="none" xmlns="http://www.w3.org/2000/svg">
<path d="M51.4209 2.43943C51.1642 1.94575 50.7837 1.52718 50.3166 1.22472C49.763 0.896155 49.1523 0.675107 48.5166 0.57319C47.7175 0.440164 46.9083 0.377348 46.0983 0.385462H41.8136C41.5915 0.402832 41.3797 0.487015 41.2063 0.62695C41.0329 0.766885 40.9058 0.956022 40.8419 1.1695L37.9486 13.7473C37.9222 13.842 37.9186 13.9416 37.9383 14.0379C37.958 14.1342 38.0004 14.2244 38.062 14.301C38.1235 14.3777 38.2024 14.4385 38.2922 14.4786C38.3819 14.5187 38.4799 14.5367 38.5781 14.5313H40.632C40.8548 14.5169 41.068 14.4353 41.2434 14.2974C41.4189 14.1594 41.5484 13.9714 41.6149 13.7583L42.3106 10.6995C42.3777 10.4847 42.5089 10.2956 42.6865 10.1575C42.8641 10.0193 43.0797 9.93872 43.3044 9.92648H43.8897C45.9621 10.0445 48.0186 9.50328 49.7645 8.38048C50.4177 7.92315 50.9486 7.31241 51.3106 6.60193C51.6726 5.89144 51.8545 5.10293 51.8405 4.30567C51.8516 3.65902 51.7077 3.01912 51.4209 2.43943ZM47.0038 6.60258C46.2294 7.09056 45.3226 7.32594 44.4087 7.2762H43.9118C43.8143 7.2792 43.7175 7.25952 43.629 7.21872C43.5405 7.17793 43.4626 7.11712 43.4016 7.0411C43.3406 6.96509 43.298 6.87593 43.2773 6.78067C43.2566 6.68541 43.2583 6.58664 43.2823 6.49215L43.9118 3.83083C43.9764 3.61569 44.1051 3.42538 44.2807 3.28529C44.4563 3.1452 44.6705 3.062 44.8946 3.04679H45.5572C46.179 3.00845 46.799 3.14624 47.3461 3.44433C47.5443 3.57903 47.7044 3.76266 47.8108 3.97741C47.9172 4.19216 47.9664 4.43076 47.9535 4.67009C47.9642 5.04513 47.8833 5.41714 47.7178 5.75387C47.5523 6.09061 47.3072 6.38192 47.0038 6.60258ZM68.4269 0.540061H66.6048C66.4342 0.55964 66.2705 0.618743 66.1267 0.712675C65.983 0.806607 65.8631 0.932778 65.7766 1.08116L65.6772 1.2468L65.5889 1.65539L62.9607 13.3718L62.8723 13.7363C62.8493 13.8187 62.8447 13.9051 62.8587 13.9895C62.8728 14.074 62.9052 14.1543 62.9536 14.2248C63.002 14.2953 63.0653 14.3544 63.1391 14.3978C63.2128 14.4412 63.2951 14.468 63.3803 14.4761H65.3349C65.5262 14.4641 65.7104 14.3988 65.8665 14.2876C66.0226 14.1763 66.1445 14.0236 66.2183 13.8467L66.3288 13.6921L69.0895 1.26889C69.1198 1.17365 69.1257 1.07232 69.1067 0.974194C69.0877 0.87607 69.0443 0.784309 68.9805 0.707342C68.9167 0.630375 68.8346 0.570672 68.7417 0.533723C68.6489 0.496775 68.5482 0.483764 68.449 0.495889L68.4269 0.540061ZM61.3595 4.19524C60.2072 3.68764 58.9499 3.4642 57.6932 3.54371C56.8611 3.54403 56.0302 3.6105 55.2086 3.74249C54.5902 3.83083 54.535 3.85291 54.1043 3.93021C53.8776 3.9853 53.672 4.10568 53.513 4.27645C53.354 4.44721 53.2486 4.66087 53.2098 4.89094L52.9559 5.91793C52.8123 6.56945 53.1878 6.54737 53.3644 6.49215C53.7618 6.34991 54.1675 6.2319 54.5792 6.13878C55.212 5.98137 55.8599 5.89251 56.5117 5.87376C57.1448 5.84644 57.7774 5.93629 58.3779 6.13878C58.5656 6.20847 58.7265 6.3357 58.8375 6.50229C58.9486 6.66889 59.0042 6.86632 58.9963 7.06638V7.36454L58.6981 7.54123C57.6854 7.60985 56.676 7.72037 55.6724 7.87251C54.7713 7.99098 53.8907 8.23249 53.0553 8.59029C52.3486 8.88122 51.7369 9.36298 51.2884 9.9817C50.8918 10.6244 50.6922 11.3691 50.7142 12.124C50.705 12.4926 50.7752 12.8589 50.92 13.1981C51.0648 13.5372 51.2808 13.8413 51.5534 14.0896C52.1717 14.6017 52.9603 14.862 53.762 14.8185C54.1955 14.8313 54.629 14.7943 55.054 14.708L56.0479 14.3657L56.8982 13.9019L57.6601 13.3829L57.5939 13.7142C57.5668 13.8012 57.56 13.8932 57.574 13.9832C57.588 14.0732 57.6224 14.1589 57.6747 14.2335C57.7269 14.3081 57.7956 14.3698 57.8754 14.4138C57.9552 14.4578 58.044 14.4829 58.135 14.4872H60.0785C60.2815 14.4525 60.4708 14.3618 60.625 14.2252C60.7791 14.0886 60.892 13.9116 60.9509 13.7142L62.4638 7.25411L62.5411 6.72406V6.22713C62.5554 5.81156 62.452 5.4004 62.243 5.04095C62.034 4.68149 61.7277 4.38835 61.3595 4.19524ZM58.0466 11.4946L57.7153 11.9252L56.9202 12.3338C56.5706 12.4818 56.1956 12.5605 55.816 12.5657C55.4356 12.58 55.0573 12.5044 54.7117 12.3449L54.3031 11.5829C54.2835 11.2201 54.3887 10.8616 54.6012 10.567C54.8388 10.2972 55.1436 10.0952 55.4847 9.9817C55.9228 9.83553 56.3739 9.73198 56.8319 9.6725C57.2957 9.61728 58.2343 9.50685 58.3448 9.50685L58.4883 9.76084C58.4442 9.91544 58.1791 11.0197 58.0466 11.4946Z" fill="#139BD7"/>
<path d="M38.0115 3.69692H35.5489C35.2886 3.72331 35.0371 3.80614 34.8121 3.93964C34.587 4.07314 34.3938 4.2541 34.2458 4.46992C34.2458 4.46992 31.3084 9.52754 31.0213 9.99134H30.679L29.7624 4.46992C29.6957 4.23106 29.5504 4.02164 29.3501 3.8754C29.1497 3.72917 28.906 3.65463 28.6582 3.66379H26.803C26.7051 3.65691 26.6071 3.67426 26.5176 3.71432C26.428 3.75438 26.3498 3.81591 26.2897 3.89345C26.2296 3.97099 26.1896 4.06215 26.1732 4.15886C26.1568 4.25556 26.1645 4.35481 26.1956 4.44783C26.1956 4.44783 27.587 12.3987 27.8631 14.276C27.9956 15.314 27.8631 15.4907 27.8631 15.4907L26.0189 18.7483C25.7539 19.179 25.8975 19.5324 26.3392 19.5324H28.4704C28.7285 19.5089 28.978 19.4271 29.1999 19.2932C29.4217 19.1593 29.6103 18.9768 29.7514 18.7594L37.9452 4.85642C37.9452 4.85642 38.7403 3.67483 38.0115 3.69692ZM24.0423 4.19385C22.8915 3.68117 21.6329 3.45751 20.376 3.54232C19.5405 3.53932 18.706 3.60209 17.8803 3.73005C17.527 3.77556 17.1767 3.84193 16.8313 3.92882C16.604 3.98124 16.3971 4.09914 16.2362 4.26793C16.0752 4.43673 15.9673 4.64901 15.9258 4.8785L15.6828 5.90549C15.5393 6.56806 15.9258 6.54597 16.0693 6.47972C16.475 6.33993 16.8878 6.22197 17.3061 6.12635C17.9346 5.96757 18.5794 5.88233 19.2276 5.87236C19.8646 5.83857 20.5021 5.92857 21.1049 6.13739C21.2935 6.20444 21.455 6.33143 21.5647 6.49894C21.6744 6.66644 21.7262 6.86526 21.7122 7.06499V7.3521L21.4141 7.53983C20.4005 7.59867 19.3906 7.70924 18.3883 7.87111C17.4907 7.98283 16.6133 8.22076 15.7822 8.57786C15.0711 8.86657 14.4579 9.35333 14.0153 9.9803C13.5918 10.6134 13.3722 11.361 13.3859 12.1226C13.3761 12.4908 13.4471 12.8566 13.594 13.1943C13.7409 13.532 13.9601 13.8334 14.2362 14.0772C14.8495 14.5992 15.6407 14.8643 16.4448 14.8171C16.8751 14.828 17.3052 14.7872 17.7257 14.6956L18.7306 14.3533L19.5699 13.8895L20.3429 13.3705L20.2766 13.6907C20.2536 13.7778 20.2501 13.8689 20.2666 13.9574C20.2831 14.046 20.3191 14.1297 20.3719 14.2027C20.4248 14.2756 20.4932 14.3359 20.5722 14.3791C20.6512 14.4224 20.7389 14.4475 20.8288 14.4527H22.7061C22.9098 14.4208 23.1005 14.3325 23.2566 14.1979C23.4127 14.0632 23.5281 13.8875 23.5895 13.6907L25.0913 7.1975L25.1686 6.67849V6.18156C25.1799 5.77904 25.081 5.38108 24.8824 5.03074C24.6839 4.6804 24.3934 4.391 24.0423 4.19385ZM20.7294 11.4821L20.3981 11.9018L19.592 12.3214C19.2427 12.4704 18.8674 12.5492 18.4877 12.5533C18.0851 12.5794 17.6825 12.5034 17.3172 12.3324L16.9196 11.5594C16.9015 11.2037 17.0069 10.8526 17.2178 10.5656L18.0902 9.96925C18.5335 9.82843 18.9878 9.725 19.4484 9.66006C19.9122 9.60484 20.8398 9.49441 20.9723 9.49441L21.1049 9.73736C21.1269 9.91404 20.8619 11.0183 20.7404 11.4821H20.7294ZM14.1037 2.39386C13.8543 1.898 13.472 1.48125 12.9994 1.19019C12.451 0.856873 11.8437 0.631945 11.2105 0.527623C10.4069 0.400581 9.59455 0.337806 8.78104 0.339894H4.5185C4.29244 0.35292 4.07585 0.435125 3.89807 0.575369C3.7203 0.715614 3.58993 0.90712 3.52464 1.12394L0.620375 13.6907C0.591629 13.7846 0.586062 13.884 0.60415 13.9805C0.622237 14.0769 0.663441 14.1676 0.724231 14.2447C0.785021 14.3217 0.863587 14.3829 0.9532 14.423C1.04281 14.4631 1.1408 14.4808 1.23877 14.4747H3.31483C3.54186 14.4695 3.76092 14.39 3.93844 14.2484C4.11596 14.1068 4.24214 13.9109 4.29764 13.6907L5.03751 10.6429C5.09291 10.4256 5.21787 10.2324 5.39334 10.0929C5.56881 9.95329 5.78513 9.87497 6.00928 9.86987H6.58351C8.64864 9.98466 10.6972 9.44354 12.4362 8.32387C13.0956 7.87111 13.6324 7.26189 13.9986 6.55076C14.3647 5.83963 14.5488 5.04879 14.5344 4.24906C14.5619 3.60691 14.425 2.96836 14.1368 2.39386H14.1037ZM9.68655 6.5018C8.91622 6.9999 8.00727 7.23971 7.09148 7.18646H6.6056C6.50762 7.19255 6.40964 7.1748 6.32002 7.13473C6.23041 7.09466 6.15184 7.03347 6.09105 6.9564C6.03026 6.87933 5.98906 6.78867 5.97097 6.69218C5.95289 6.5957 5.95845 6.49627 5.9872 6.40242L6.6056 3.73005C6.67023 3.51491 6.79893 3.3246 6.97453 3.18451C7.15014 3.04442 7.36429 2.96122 7.58841 2.94601H8.25098C8.87281 2.90767 9.49285 3.04546 10.0399 3.34355C10.2377 3.478 10.3968 3.6619 10.5014 3.87695C10.6061 4.09201 10.6525 4.33071 10.6362 4.5693C10.6584 4.94368 10.5849 5.31754 10.4226 5.65563C10.2603 5.99373 10.0146 6.28494 9.70864 6.5018H9.68655Z" fill="#145495"/>
</svg>
