<svg width="18" height="19" viewBox="0 0 18 19" fill="none" xmlns="http://www.w3.org/2000/svg">
<path id="Vector" d="M11.9029 0.759508L11.9969 0.842508L17.4969 6.34251C17.6655 6.51198 17.7678 6.73624 17.7853 6.97464C17.8027 7.21304 17.7342 7.44981 17.5922 7.64205C17.4501 7.83429 17.2439 7.96929 17.0108 8.02257C16.7778 8.07585 16.5334 8.0439 16.3219 7.93251L13.1499 11.1035L11.7259 14.9005C11.6884 15.0007 11.6351 15.0942 11.5679 15.1775L11.4979 15.2575L9.99792 16.7575C9.8256 16.9295 9.59644 17.0328 9.35342 17.0479C9.11039 17.063 8.87021 16.9889 8.67792 16.8395L8.58292 16.7565L5.78992 13.9645L1.99692 17.7565C1.81697 17.9359 1.57549 18.04 1.32154 18.0477C1.06759 18.0555 0.82021 17.9663 0.629645 17.7983C0.43908 17.6302 0.319618 17.396 0.295525 17.143C0.271431 16.8901 0.344512 16.6375 0.499924 16.4365L0.582924 16.3425L4.37492 12.5495L1.58292 9.75651C1.41075 9.58432 1.30732 9.35522 1.29203 9.11219C1.27675 8.86916 1.35067 8.62891 1.49992 8.43651L1.58292 8.34251L3.08292 6.84251C3.15838 6.76679 3.24548 6.70365 3.34092 6.65551L3.43892 6.61351L7.23492 5.18851L10.4059 2.01851C10.2978 1.81634 10.2624 1.58315 10.3057 1.35801C10.349 1.13287 10.4684 0.929442 10.6438 0.781805C10.8192 0.634168 11.04 0.551287 11.2692 0.547046C11.4984 0.542805 11.7222 0.618461 11.9029 0.759508Z" fill="black"/>
</svg>
