<svg width="18" height="18" viewBox="0 0 24 24" fill="none" xmlns="http://www.w3.org/2000/svg">
<path d="M18.8092 1.64223C18.1853 1.02079 17.3406 0.671875 16.46 0.671875C15.5795 0.671875 14.7348 1.02079 14.1109 1.64223L13.2711 2.48199C13.0934 2.6597 12.9935 2.90074 12.9934 3.15209V4.44016L7.9236 9.50809C6.62499 9.2564 5.28448 9.32707 4.01953 9.7139C2.75459 10.1007 1.60384 10.7919 0.66813 11.7269C0.490444 11.9046 0.390625 12.1457 0.390625 12.397C0.390625 12.6483 0.490444 12.8894 0.66813 13.0671L5.03468 17.4375L0.674765 21.7974C0.497657 21.975 0.398206 22.2157 0.398206 22.4665C0.398206 22.7174 0.497657 22.958 0.674765 23.1357C0.85406 23.3104 1.09451 23.4082 1.34487 23.4082C1.59522 23.4082 1.83567 23.3104 2.01497 23.1357L6.37488 18.7758L10.7395 23.1404C10.8283 23.2291 10.9337 23.2993 11.0498 23.347C11.1658 23.3946 11.2902 23.4187 11.4157 23.4179C11.5411 23.4172 11.6652 23.3915 11.7807 23.3424C11.8961 23.2932 12.0007 23.2217 12.0883 23.1319C13.0215 22.1968 13.7114 21.0474 14.0977 19.7841C14.484 18.5207 14.5549 17.182 14.3042 15.8849L19.3703 10.8142H20.6583C20.9097 10.8141 21.1507 10.7142 21.3284 10.5365L22.1682 9.6967C22.7896 9.07283 23.1386 8.22813 23.1386 7.34756C23.1386 6.46699 22.7896 5.62229 22.1682 4.99842L18.8092 1.64223ZM20.8271 8.35935L20.266 8.91855H18.9779C18.8523 8.91895 18.7281 8.94429 18.6124 8.9931C18.4967 9.04191 18.3919 9.11323 18.304 9.2029L12.5868 14.921C12.468 15.0397 12.3828 15.1878 12.34 15.3501C12.2972 15.5125 12.2983 15.6833 12.3432 15.8451C12.4858 16.3628 12.5563 16.8977 12.5527 17.4346C12.5614 18.7489 12.1429 20.0305 11.3604 21.0865L7.05067 16.7692L2.72961 12.4482C3.47452 11.9028 4.33223 11.5314 5.23963 11.3613C6.14704 11.1912 7.08103 11.2268 7.97289 11.4653C8.13382 11.5076 8.30298 11.5072 8.4637 11.4641C8.62443 11.4211 8.77115 11.3369 8.88942 11.2198L14.6075 5.50645C14.7853 5.32874 14.8852 5.0877 14.8852 4.83635V3.54448L15.4473 2.98338C15.7153 2.71662 16.0781 2.56686 16.4562 2.56686C16.8344 2.56686 17.1972 2.71662 17.4652 2.98338L20.8233 6.34146C21.0905 6.60899 21.241 6.97147 21.2417 7.34962C21.2424 7.72778 21.0933 8.09082 20.8271 8.35935Z" fill="#121212"/>
</svg>
