<svg width="56" height="55" viewBox="0 0 56 55" fill="none" xmlns="http://www.w3.org/2000/svg">
<circle cx="27.6074" cy="27.5" r="27.5" fill="#2F9C92"/>
<path d="M37.3549 25.7732L22.0458 18.1263C21.8393 18.0307 21.6121 17.9883 21.385 18.0028C21.1578 18.0173 20.9379 18.0883 20.7453 18.2094C20.5526 18.3306 20.3933 18.4979 20.2819 18.6962C20.1705 18.8945 20.1106 19.1175 20.1075 19.3448V34.632C20.1055 34.8654 20.1639 35.0953 20.2769 35.2996C20.39 35.5039 20.5538 35.6756 20.7527 35.7981C20.9516 35.9206 21.1787 35.9898 21.4122 35.9989C21.6456 36.0081 21.8775 35.957 22.0854 35.8505L37.3549 28.2036C37.5811 28.0902 37.7713 27.9162 37.9042 27.701C38.037 27.4858 38.1074 27.2379 38.1074 26.9851C38.1074 26.7323 38.037 26.4844 37.9042 26.2692C37.7713 26.0541 37.5811 25.88 37.3549 25.7666V25.7732Z" fill="white"/>
</svg>
