<svg width="25" height="25" viewBox="0 0 25 25" fill="none" xmlns="http://www.w3.org/2000/svg">
<path id="Vector" d="M9.92857 3.57143C9.92857 2.88944 10.1995 2.23539 10.6817 1.75315C11.164 1.27092 11.818 1 12.5 1C13.182 1 13.836 1.27092 14.3183 1.75315L15.0181 1.05334L14.3183 1.75315C14.8005 2.23539 15.0714 2.88944 15.0714 3.57143V21.4286C15.0714 22.1106 14.8005 22.7646 14.3183 23.2468C13.836 23.7291 13.182 24 12.5 24C11.818 24 11.164 23.7291 10.6817 23.2468C10.1995 22.7646 9.92857 22.1106 9.92857 21.4286V3.57143ZM1 14.2857C1 13.6037 1.27092 12.9497 1.75315 12.4674L1.05334 11.7676L1.75315 12.4674C2.23539 11.9852 2.88944 11.7143 3.57143 11.7143C4.25341 11.7143 4.90747 11.9852 5.3897 12.4674C5.87194 12.9497 6.14286 13.6037 6.14286 14.2857V21.4286C6.14286 22.1106 5.87194 22.7646 5.3897 23.2468C4.90747 23.7291 4.25341 24 3.57143 24C2.88944 24 2.23539 23.7291 1.75315 23.2468C1.27092 22.7646 1 22.1106 1 21.4286V14.2857ZM18.8571 10.7143C18.8571 10.0323 19.1281 9.37825 19.6103 8.89601C20.0925 8.41377 20.7466 8.14286 21.4286 8.14286C22.1106 8.14286 22.7646 8.41377 23.2468 8.89601C23.7291 9.37825 24 10.0323 24 10.7143V21.4286C24 22.1106 23.7291 22.7646 23.2468 23.2468C22.7646 23.7291 22.1106 24 21.4286 24C20.7466 24 20.0925 23.7291 19.6103 23.2468C19.1281 22.7646 18.8571 22.1106 18.8571 21.4286V10.7143Z" stroke="black" stroke-width="2"/>
</svg>
