<svg width="26" height="26" viewBox="0 0 26 26" fill="none" xmlns="http://www.w3.org/2000/svg">
<path d="M6.80501 13.5305V18.5949C6.80501 18.5951 6.80501 18.5953 6.80501 18.5955C6.80523 18.925 7.07243 19.192 7.40192 19.1918H12.4663C12.6246 19.1918 12.7764 19.1289 12.8883 19.0169L21.1569 10.7465C21.1585 10.7451 21.1607 10.7446 21.1621 10.7431C21.1637 10.7416 21.164 10.7395 21.1655 10.738L24.5374 7.36547C24.5374 7.36547 24.5374 7.3654 24.5375 7.36532C24.7705 7.13223 24.7704 6.75442 24.5374 6.52148L19.4753 1.45942C19.4752 1.45935 19.4752 1.45928 19.4751 1.4592C19.242 1.22625 18.8642 1.22633 18.6312 1.45942L6.97989 13.1084C6.86789 13.2204 6.80501 13.3721 6.80501 13.5305ZM19.0533 2.72545L23.2713 6.94351L20.7394 9.47599L16.5208 5.25742L19.0533 2.72545ZM7.99883 13.7776L15.6767 6.10141L19.8954 10.3201L12.2191 17.998H7.99883V13.7776ZM24.1153 13.2227C23.7857 13.2227 23.5184 13.49 23.5184 13.8196V21.5794C23.5167 22.8974 22.4488 23.9654 21.1308 23.967H4.41738C3.09941 23.9654 2.03143 22.8974 2.02975 21.5794V4.86599C2.03143 3.54801 3.09941 2.48004 4.41738 2.47836H12.1772C12.5068 2.47836 12.7741 2.21109 12.7741 1.88145C12.7741 1.55181 12.5068 1.28455 12.1772 1.28455H4.41738C2.44027 1.28673 0.838123 2.88888 0.835938 4.86599V21.5794C0.838123 23.5565 2.44027 25.1587 4.41738 25.1608H21.1308C23.1079 25.1587 24.7101 23.5565 24.7122 21.5794V13.8196C24.7122 13.49 24.445 13.2227 24.1153 13.2227Z" fill="black" stroke="black" stroke-width="1.2"/>
</svg>
