<svg width="100" height="134" viewBox="0 0 100 134" fill="none" xmlns="http://www.w3.org/2000/svg">
<path d="M50.1879 0C39.1527 11.8186 21.5437 21.505 2.70141 25.6319C2.69638 26.8901 2.6645 33.8621 2.5202 65.993C2.32893 108.857 43.1275 129.802 49.4614 133.018C55.599 130.193 96.9126 109.28 97.1039 66.4157C97.2482 34.2832 97.2784 27.3128 97.2851 26.0546C78.4798 21.76 61.1157 11.9176 50.1862 0H50.1879Z" fill="white"/>
<path d="M50.0891 4.64844C38.7132 15.083 22.9532 23.2831 5.62102 27.7539L5.44988 65.9861C5.37102 83.48 12.3224 99.3047 26.1092 113.026C35.1679 122.039 44.6931 127.631 49.527 130.145C49.735 130.04 49.9632 129.921 50.188 129.805V4.73902C50.1545 4.70883 50.1209 4.68031 50.0891 4.65012V4.64844Z" fill="#75B5E9"/>
<path d="M50.1875 4.73828V129.804C55.2127 127.19 64.3485 121.787 73.0969 113.236C87.0062 99.6411 94.0985 83.8768 94.1757 66.3846L94.3468 28.1524C77.1069 23.5424 61.4626 15.2333 50.1875 4.73995V4.73828Z" fill="#46A0E9"/>
<path d="M84.909 43.0586C71.7144 45.0935 53.7479 57.1252 42.4141 71.5927C40.8235 64.7716 33.6876 58.5444 29.9527 57.1822L18.6406 68.5512C25.7044 71.7336 33.4225 80.7523 34.446 89.9841L45.7463 91.7355C50.5114 82.3259 62.8167 59.816 87.2965 47.7122C86.8251 45.8702 85.0969 43.322 84.9073 43.0586H84.909Z" fill="white"/>
</svg>
