<svg width="22" height="22" viewBox="0 0 22 22" fill="none" xmlns="http://www.w3.org/2000/svg">
<path d="M21.4688 11.4297C21.4688 16.9525 16.9916 21.4297 11.4688 21.4297C5.9459 21.4297 1.46875 16.9525 1.46875 11.4297C1.46875 5.90684 5.9459 1.42969 11.4688 1.42969C16.9916 1.42969 21.4688 5.90684 21.4688 11.4297Z"  />
<path d="M15.4134 16.8014C15.3175 16.8109 15.2208 16.8109 15.1249 16.8015L13.3987 16.4549C13.1147 16.3997 12.8539 16.26 12.6504 16.0542L6.78073 10.1886C6.33643 9.7442 6.08031 9.14579 6.06553 8.51756C6.05074 7.88933 6.27842 7.27953 6.70131 6.81472C6.91761 6.57881 7.17942 6.38912 7.47097 6.25708C7.76253 6.12505 8.07779 6.05339 8.39777 6.04644C8.74977 6.03945 9.09957 6.10332 9.42638 6.23425C9.75319 6.36517 10.0503 6.56049 10.3001 6.80857L16.1063 12.5862C16.3108 12.7905 16.4504 13.0507 16.5075 13.3342L16.8455 15.065C16.8849 15.276 16.8776 15.4931 16.8239 15.7009C16.7703 15.9087 16.6718 16.1023 16.5352 16.2678C16.3986 16.4334 16.2274 16.567 16.0336 16.6592C15.8397 16.7514 15.628 16.7999 15.4134 16.8014ZM15.9018 15.2365L15.554 13.5056C15.5372 13.4107 15.491 13.3235 15.4219 13.2563L9.61093 7.4787C9.46094 7.32564 9.28221 7.2037 9.085 7.11986C8.88778 7.03602 8.67596 6.99193 8.46167 6.99013L8.42255 6.99014C8.2321 6.99232 8.0441 7.03337 7.87007 7.11078C7.69605 7.1882 7.53968 7.30035 7.41054 7.44035C7.16723 7.70822 7.03151 8.05656 7.02948 8.41843C7.02778 8.61347 7.06499 8.80689 7.13894 8.98738C7.21289 9.16787 7.32209 9.33179 7.46015 9.46957L13.3299 15.3352C13.3982 15.4027 13.485 15.4486 13.5793 15.4671L15.3202 15.8234C15.3991 15.8385 15.4806 15.8339 15.5573 15.81C15.6341 15.7861 15.7038 15.7436 15.7602 15.6864C15.8107 15.6282 15.8468 15.5589 15.8655 15.4841C15.8842 15.4093 15.8849 15.3312 15.8676 15.2561L15.9018 15.2365Z" fill="white"/>
</svg>
