<svg width="33" height="33" viewBox="0 0 33 33" fill="none" xmlns="http://www.w3.org/2000/svg">
<path d="M13.3047 25.8205C13.3047 24.9321 13.3047 24.0437 13.3047 23.1553C13.3047 22.6509 13.6314 22.3242 14.1358 22.3242C15.9069 22.3242 17.6837 22.3242 19.4548 22.3242C19.9649 22.3242 20.2916 22.6509 20.2916 23.161C20.2916 24.9321 20.2916 26.7032 20.2916 28.4686C20.2916 28.9844 19.9649 29.3054 19.4491 29.3054C17.6722 29.3054 15.8897 29.3054 14.1129 29.3054C13.6944 29.3054 13.3792 29.0418 13.3161 28.6348C13.3104 28.5832 13.3104 28.5259 13.3104 28.4743C13.3047 27.5916 13.3047 26.709 13.3047 25.8205Z"/>
<path d="M4.74393 29.3105C12.8084 29.3105 20.8213 29.3105 28.8629 29.3105C28.8629 28.6972 28.8514 28.1183 28.8686 27.5394C28.8973 26.5765 28.5648 25.7397 27.9114 25.0634C27.4586 24.5934 26.9542 24.1406 26.404 23.7967C23.7789 22.1517 20.8614 21.4008 17.8064 21.1543C15.0839 20.9365 12.4702 21.5326 9.92536 22.4497C8.4122 23 6.97929 23.7107 5.83295 24.8799C5.24832 25.4818 4.81844 26.1753 4.75539 27.0236C4.69807 27.7744 4.74393 28.531 4.74393 29.3105Z" />
<path d="M16.8229 3.84378C12.7476 3.83232 9.41179 7.12804 9.3946 11.1861C9.3774 15.2957 12.6731 18.6315 16.7655 18.643C20.8465 18.6545 24.1709 15.3645 24.1938 11.3007C24.2225 7.19108 20.921 3.85524 16.8229 3.84378Z" />
</svg>
