<svg width="21" height="21" viewBox="0 0 21 21" fill="none" xmlns="http://www.w3.org/2000/svg">
<path d="M20.5 10.475C20.5 15.9829 16.024 20.45 10.5 20.45C4.97603 20.45 0.5 15.9829 0.5 10.475C0.5 4.96708 4.97603 0.5 10.5 0.5C16.024 0.5 20.5 4.96708 20.5 10.475Z" fill="#0B90CF" stroke="white"/>
<path d="M15.3333 10.305H10.6667V5.64945C10.6667 5.47306 10.5964 5.3039 10.4714 5.17917C10.3464 5.05445 10.1768 4.98438 10 4.98438C9.82319 4.98438 9.65362 5.05445 9.5286 5.17917C9.40357 5.3039 9.33333 5.47306 9.33333 5.64945V10.305H4.66667C4.48986 10.305 4.32029 10.3751 4.19526 10.4998C4.07024 10.6245 4 10.7937 4 10.9701C4 11.1465 4.07024 11.3156 4.19526 11.4404C4.32029 11.5651 4.48986 11.6352 4.66667 11.6352H9.33333V16.2907C9.33333 16.4671 9.40357 16.6363 9.5286 16.761C9.65362 16.8857 9.82319 16.9558 10 16.9558C10.1768 16.9558 10.3464 16.8857 10.4714 16.761C10.5964 16.6363 10.6667 16.4671 10.6667 16.2907V11.6352H15.3333C15.5101 11.6352 15.6797 11.5651 15.8047 11.4404C15.9298 11.3156 16 11.1465 16 10.9701C16 10.7937 15.9298 10.6245 15.8047 10.4998C15.6797 10.3751 15.5101 10.305 15.3333 10.305Z" fill="white"/>
</svg>
