<svg width="70" height="75" viewBox="0 0 70 75" fill="none" xmlns="http://www.w3.org/2000/svg">
<path d="M62.9346 31.8867H43.7207V72.6339H62.9346V31.8867Z" fill="white"/>
<path d="M62.9353 31.8867H57.3115V72.6339H62.9353V31.8867Z" fill="#F7AD45"/>
<path d="M24.5089 58.1968H5.2959V72.6331H24.5089V58.1968Z" fill="white"/>
<path d="M10.9204 58.1978H5.29688V72.6327H10.9204V58.1978Z" fill="#F7AD45"/>
<path d="M43.7228 45.1294H24.5098V72.6334H43.7228V45.1294Z" fill="white"/>
<path d="M44.5332 2.16943V11.9382C44.5332 15.9229 47.0989 19.2969 50.6424 20.4507C50.342 25.444 49.0892 28.4226 49.0892 28.4226H53.3276H57.5659C57.5659 28.4226 56.3131 25.444 56.0127 20.4507C59.5562 19.2969 62.1219 15.9226 62.1219 11.9382V2.16943H44.5332Z" fill="#F7AD45"/>
<path d="M53.3162 20.4515C53.015 25.4445 51.7619 28.4228 51.7619 28.4228H49.0882C49.0882 28.4228 50.3413 25.4445 50.6426 20.4515C47.0991 19.2974 44.5322 15.9222 44.5322 11.9384V2.16992H47.2059V11.9384C47.2062 15.9222 49.7728 19.2974 53.3162 20.4515Z" fill="#FFA96A"/>
<path d="M62.1219 2.16992V11.9384C62.1219 15.9222 59.555 19.2974 56.0115 20.4515C56.3128 25.4445 57.5659 28.4228 57.5659 28.4228H54.8922C54.8922 28.4228 53.6392 25.4445 53.3379 20.4515C56.8814 19.2974 59.4483 15.9222 59.4483 11.9384V2.16992H62.1219Z" fill="#FFA96B"/>
<path d="M61.0233 31.8873H45.6323C45.0114 31.8873 44.5078 31.3755 44.5078 30.7444V27.971C44.5078 27.3399 45.0114 26.8281 45.6323 26.8281H61.0233C61.6442 26.8281 62.1478 27.3399 62.1478 27.971V30.7444C62.1478 31.3755 61.6445 31.8873 61.0233 31.8873Z" fill="white"/>
<path d="M47.4079 26.8281V31.8873H45.6323C45.0113 31.8873 44.5078 31.3755 44.5078 30.7444V27.971C44.5078 27.3399 45.0113 26.8281 45.6323 26.8281H47.4079Z" fill="#FFA96A"/>
<path d="M62.1466 27.971V30.7444C62.1466 31.3755 61.6431 31.8873 61.0221 31.8873H59.3291V26.8281H61.0221C61.6434 26.8281 62.1466 27.3399 62.1466 27.971Z" fill="#FFA96B"/>
<path d="M66.9274 71.2136C65.4957 71.2136 64.3351 70.053 64.3351 68.6214V31.8868C64.3351 31.4004 64.118 30.9343 63.9295 30.5295L63.918 30.5049C63.7154 30.0695 63.5477 29.6989 63.5477 29.3339L63.5476 27.97C63.5476 26.5607 62.4209 25.4096 61.0245 25.4096H60.2697C58.976 25.4096 57.9579 24.7647 57.7629 23.5675C57.5758 22.4187 58.2478 21.0906 59.223 20.3854C60.144 19.7194 60.9521 18.9023 61.6117 17.9699C62.247 17.0719 63.1082 16.338 64.0918 15.8408C68.5777 13.5732 69.5081 8.68012 69.3151 6.10771C69.2598 5.37095 68.6543 4.7955 67.9183 4.7955H66.1474C64.6973 4.7955 63.5217 3.61994 63.5217 2.16981C63.5217 1.38927 62.8985 0.75 62.1207 0.75H44.5343C43.7565 0.75 43.1334 1.38927 43.1334 2.16981C43.1334 3.61994 41.9578 4.7955 40.5077 4.7955H38.737C38.0011 4.7955 37.3955 5.37095 37.3402 6.1077C37.1473 8.68009 38.0776 13.5728 42.5632 15.8404C43.5469 16.3377 44.4081 17.0716 45.0434 17.9697C45.703 18.9022 46.5113 19.7194 47.4325 20.3855C48.4076 21.0906 49.0796 22.4187 48.8925 23.5674C48.6975 24.7647 47.6793 25.4096 46.3855 25.4096H45.6338C44.2378 25.4096 43.1078 26.5603 43.1078 27.97L43.1078 29.4573C43.1078 29.8207 42.943 30.1581 42.7409 30.5596L42.7297 30.5818C42.5406 30.9572 42.3205 31.3941 42.3205 31.8868V39.9593C42.3205 42.0304 40.6416 43.7093 38.5705 43.7093H24.5082C23.7307 43.7093 23.1072 44.3489 23.1072 45.1291V53.027C23.1072 55.098 21.4283 56.777 19.3572 56.777H5.29519C4.51769 56.777 3.89425 57.4165 3.89425 58.1968V69.3821C3.89425 70.3935 3.07439 71.2133 2.06305 71.2133C1.28556 71.2133 0.662109 71.8529 0.662109 72.6331C0.662109 73.4134 1.28556 74.053 2.06305 74.053H66.9274C67.7049 74.053 68.3283 73.4134 68.3283 72.6331C68.3283 71.8528 67.7048 71.2136 66.9274 71.2136ZM45.1221 37.0524C45.1221 34.9817 46.8007 33.3066 48.8721 33.3066H57.7829C59.854 33.3066 61.5329 34.9856 61.5329 37.0566V67.4636C61.5329 69.5347 59.854 71.2136 57.7829 71.2136H48.8721C46.8011 71.2136 45.1221 69.5347 45.1221 67.4636V67.4202V67.3765V67.3327V67.2887V67.2445V67.2001V67.1555V67.1108V67.0658V67.0207V66.9754V66.9299V66.8843V66.8384V66.7924V66.7462V66.6999V66.6533V66.6066V66.5597V66.5126V66.4654V66.418V66.3704V66.3226V66.2747V66.2266V66.1784V66.1299V66.0814V66.0326V65.9837V65.9346V65.8853V65.8359V65.7863V65.7366V65.6867V65.6366V65.5864V65.536V65.4855V65.4348V65.3839V65.3329V65.2817V65.2304V65.179V65.1273V65.0756V65.0236V64.9715V64.9193V64.8669V64.8144V64.7617V64.7089V64.6559V64.6028V64.5496V64.4962V64.4426V64.3889V64.3351V64.2811V64.227V64.1728V64.1184V64.0639V64.0092V63.9544V63.8995V63.8444V63.7892V63.7338V63.6784V63.6228V63.567V63.5112V63.4552V63.399V63.3428V63.2864V63.2299V63.1732V63.1165V63.0596V63.0026V62.9454V62.8882V62.8308V62.7733V62.7157V62.6579V62.6001V62.5421V62.484V62.4258V62.3674V62.309V62.2504V62.1918V62.133V62.0741V62.0151V61.9559V61.8967V61.8374V61.7779V61.7184V61.6587V61.5989V61.5391V61.4791V61.419V61.3588V61.2985V61.2381V61.1776V61.117V61.0563V60.9955V60.9346V60.8736V60.8125V60.7513V60.6901V60.6287V60.5672V60.5057V60.444V60.3822V60.3204V60.2585V60.1965V60.1344V60.0722V60.0099V59.9475V59.885V59.8225V59.7599V59.6972V59.6344V59.5715V59.5085V59.4455V59.3824V59.3192V59.2559V59.1926V59.1291V59.0656V59.0021V58.9384V58.8747V58.8109V58.747V58.683V58.619V58.5549V58.4908V58.4265V58.3622V58.2979V58.2334V58.1689V58.1044V58.0398V57.9751V57.9103V57.8455V57.7806V57.7157V57.6507V57.5856V57.5205V57.4553V57.3901V57.3248V57.2594V57.194V57.1286V57.0631V56.9975V56.9319V56.8662V56.8005V56.7348V56.669V56.6031V56.5372V56.4712V56.4052V56.3392V56.2731V56.2069V56.1408V56.0745V56.0083V55.942V55.8756V55.8092V55.7428V55.6763V55.6098V55.5433V55.4767V55.4101V55.3435V55.2768V55.2101V55.1434V55.0766V55.0098V54.9429V54.8761V54.8092V54.7423V54.6753V54.6083V54.5413V54.4743V54.4073V54.3402V54.2731V54.206V54.1389V54.0717V54.0045V53.9373V53.8701V53.8029V53.7356V53.6684V53.6011V53.5338V53.4665V53.3992V53.3318V53.2645V53.1971V53.1298V53.0624V52.995V52.9276V52.8602V52.7928V52.7254V52.658V52.5906V52.5231V52.4557V52.3883V52.3208V52.2534V52.186V52.1186V52.0511V51.9837V51.9163V51.8489V51.7814V51.714V51.6466V51.5792V51.5118V51.4445V51.3771V51.3097V51.2424V51.175V51.1077V51.0404V50.9731V50.9058V50.8385V50.7713V50.704V50.6368V50.5696V50.5024V50.4352V50.3681V50.301V50.2338V50.1668V50.0997V50.0327V49.9656V49.8987V49.8317V49.7648V49.6978V49.631V49.5641V49.4973V49.4305V49.3637V49.297V49.2303V49.1637V49.097V49.0304V48.9639V48.8973V48.8309V48.7644V48.698V48.6316V48.5653V48.499V48.4328V48.3665V48.3004V48.2343V48.1682V48.1022V48.0362V47.9702V47.9043V47.8385V47.7727V47.7069V47.6413V47.5756V47.51V47.4445V47.379V47.3135V47.2482V47.1828V47.1176V47.0524V46.9872V46.9221V46.8571V46.7921V46.7272V46.6623V46.5975V46.5328V46.4681V46.4035V46.339V46.2745V46.2101V46.1458V46.0815V46.0173V45.9532V45.8891V45.8251V45.7612V45.6973V45.6336V45.5699V45.5062V45.4427V45.3792V45.3158V45.2525V45.1892V45.1261V45.063V45V44.9371V44.8742V44.8115V44.7488V44.6862V44.6237V44.5612V44.4989V44.4367V44.3745V44.3124V44.2504V44.1885V44.1267V44.065V44.0034V43.9419V43.8804V43.8191V43.7579V43.6967V43.6357V43.5747V43.5138V43.4531V43.3924V43.3319V43.2714V43.211V43.1508V43.0906V43.0306V42.9706V42.9108V42.8511V42.7915V42.7319V42.6725V42.6132V42.554V42.495V42.436V42.3771V42.3184V42.2598V42.2012V42.1428V42.0846V42.0264V41.9683V41.9104V41.8526V41.7949V41.7373V41.6799V41.6225V41.5653V41.5082V41.4513V41.3944V41.3377V41.2811V41.2246V41.1683V41.1121V41.056V41.0001V40.9443V40.8886V40.833V40.7776V40.7223V40.6671V40.6121V40.5572V40.5025V40.4479V40.3934V40.3391V40.2849V40.2308V40.1769V40.1231V40.0695V40.016V39.9626V39.9094V39.8564V39.8035V39.7507V39.6981V39.6456V39.5933V39.5411V39.4891V39.4372V39.3855V39.3339V39.2825V39.2313V39.1802V39.1292V39.0784V39.0278V38.9773V38.927V38.8768V38.8268V38.777V38.7273V38.6778V38.6284V38.5792V38.5302V38.4813V38.4326V38.3841V38.3358V38.2876V38.2395V38.1917V38.144V38.0965V38.0491V38.0019V37.9549V37.9081V37.8615V37.815V37.7687V37.7226V37.6766V37.6308V37.5853V37.5398V37.4946V37.4496V37.4047V37.36V37.3155V37.2712V37.2271V37.1831V37.1394V37.0958V37.0524ZM64.9446 7.63542C65.7931 7.63542 66.4089 8.35253 66.1989 9.09678C65.8893 10.1936 65.3041 11.4102 64.2098 12.3783C64.0735 12.4989 63.9185 12.4984 63.7814 12.4162C63.6364 12.3292 63.5217 12.1523 63.5217 11.9377V9.05833C63.5217 8.27248 64.1588 7.63542 64.9446 7.63542ZM40.4697 9.09607C40.2578 8.35327 40.8712 7.63542 41.718 7.63542C42.4997 7.63542 43.1334 8.26912 43.1334 9.05082V11.9377C43.1334 12.1502 43.0195 12.3254 42.8758 12.4112C42.7399 12.4924 42.5868 12.4924 42.4525 12.3728C41.3673 11.406 40.7821 10.1915 40.4697 9.09607ZM45.9353 11.9377V7.33963C45.9353 5.26856 47.6142 3.58962 49.6853 3.58962H56.9698C59.0409 3.58962 60.7198 5.26856 60.7198 7.33962V11.9377C60.7198 16.0696 57.4176 19.4582 53.3275 19.4582C49.2499 19.4582 45.9353 16.0813 45.9353 11.9377ZM51.7268 23.5858C51.8372 22.8427 52.5395 22.2979 53.3267 22.298C54.1142 22.298 54.8179 22.8428 54.9282 23.5855L54.9447 23.695C55.0805 24.5888 54.4081 25.4096 53.5264 25.4096H53.1286C52.2469 25.4096 51.5745 24.5889 51.7104 23.6951L51.7268 23.5858ZM45.9094 29.3577C45.9094 28.7458 46.4066 28.2493 47.019 28.2493H47.0523H47.0855H47.1186H47.1515H47.1845H47.2173H47.25H47.2826H47.3152H47.3477H47.38H47.4123H47.4445H47.4766H47.5087H47.5406H47.5725H47.6043H47.636H47.6676H47.6991H47.7305H47.7619H47.7932H47.8244H47.8555H47.8865H47.9175H47.9484H47.9791H48.0099H48.0405H48.071H48.1015H48.1319H48.1622H48.1924H48.2226H48.2527H48.2827H48.3126H48.3425H48.3722H48.4019H48.4315H48.4611H48.4906H48.52H48.5493H48.5785H48.6077H48.6368H48.6658H48.6948H48.7237H48.7525H48.7812H48.8099H48.8385H48.867H48.8955H48.9238H48.9522H48.9804H49.0086H49.0367H49.0647H49.0927H49.1206H49.1484H49.1762H49.2039H49.2316H49.2591H49.2866H49.3141H49.3414H49.3687H49.396H49.4232H49.4503H49.4773H49.5043H49.5313H49.5581H49.5849H49.6117H49.6384H49.665H49.6915H49.718H49.7445H49.7708H49.7972H49.8234H49.8496H49.8758H49.9018H49.9279H49.9538H49.9797H50.0056H50.0314H50.0571H50.0828H50.1085H50.134H50.1595H50.185H50.2104H50.2358H50.2611H50.2863H50.3115H50.3367H50.3618H50.3868H50.4118H50.4367H50.4616H50.4865H50.5112H50.536H50.5607H50.5853H50.6099H50.6344H50.6589H50.6834H50.7078H50.7321H50.7564H50.7807H50.8049H50.829H50.8532H50.8772H50.9013H50.9252H50.9492H50.9731H50.9969H51.0207H51.0445H51.0682H51.0919H51.1155H51.1391H51.1627H51.1862H51.2097H51.2331H51.2565H51.2799H51.3032H51.3264H51.3497H51.3729H51.396H51.4192H51.4422H51.4653H51.4883H51.5113H51.5342H51.5571H51.58H51.6028H51.6256H51.6484H51.6711H51.6938H51.7165H51.7391H51.7617H51.7842H51.8068H51.8293H51.8517H51.8742H51.8966H51.919H51.9413H51.9636H51.9859H52.0082H52.0304H52.0526H52.0748H52.0969H52.119H52.1411H52.1632H52.1852H52.2072H52.2292H52.2512H52.2731H52.295H52.3169H52.3388H52.3606H52.3824H52.4042H52.426H52.4477H52.4694H52.4911H52.5128H52.5345H52.5561H52.5777H52.5993H52.6209H52.6424H52.664H52.6855H52.707H52.7285H52.7499H52.7714H52.7928H52.8142H52.8356H52.857H52.8784H52.8997H52.921H52.9424H52.9637H52.9849H53.0062H53.0275H53.0487H53.07H53.0912H53.1124H53.1336H53.1548H53.1759H53.1971H53.2183H53.2394H53.2605H53.2817H53.3028H53.3239H53.345H53.3661H53.3871H53.4082H53.4293H53.4503H53.4714H53.4924H53.5135H53.5345H53.5555H53.5765H53.5976H53.6186H53.6396H53.6606H53.6816H53.7026H53.7236H53.7446H53.7656H53.7866H53.8076H53.8285H53.8495H53.8705H53.8915H53.9125H53.9335H53.9545H53.9755H53.9964H54.0174H54.0384H54.0594H54.0804H54.1014H54.1224H54.1434H54.1645H54.1855H54.2065H54.2275H54.2486H54.2696H54.2907H54.3117H54.3328H54.3538H54.3749H54.396H54.4171H54.4382H54.4593H54.4804H54.5015H54.5227H54.5438H54.565H54.5862H54.6073H54.6285H54.6497H54.6709H54.6922H54.7134H54.7347H54.7559H54.7772H54.7985H54.8198H54.8411H54.8625H54.8838H54.9052H54.9266H54.948H54.9694H54.9908H55.0123H55.0338H55.0553H55.0768H55.0983H55.1198H55.1414H55.163H55.1846H55.2062H55.2279H55.2495H55.2712H55.2929H55.3147H55.3364H55.3582H55.38H55.4018H55.4237H55.4455H55.4674H55.4894H55.5113H55.5333H55.5553H55.5773H55.5993H55.6214H55.6435H55.6656H55.6878H55.71H55.7322H55.7544H55.7767H55.799H55.8213H55.8437H55.8661H55.8885H55.911H55.9334H55.956H55.9785H56.0011H56.0237H56.0463H56.069H56.0917H56.1145H56.1373H56.1601H56.1829H56.2058H56.2287H56.2517H56.2747H56.2977H56.3208H56.3439H56.367H56.3902H56.4134H56.4366H56.4599H56.4833H56.5066H56.53H56.5535H56.577H56.6005H56.6241H56.6477H56.6714H56.6951H56.7188H56.7426H56.7664H56.7903H56.8142H56.8382H56.8622H56.8862H56.9103H56.9345H56.9586H56.9829H57.0071H57.0315H57.0558H57.0803H57.1047H57.1292H57.1538H57.1784H57.2031H57.2278H57.2525H57.2774H57.3022H57.3271H57.3521H57.3771H57.4022H57.4273H57.4525H57.4777H57.503H57.5283H57.5537H57.5791H57.6046H57.6301H57.6557H57.6814H57.7071H57.7329H57.7587H57.7846H57.8105H57.8365H57.8626H57.8887H57.9148H57.9411H57.9674H57.9937H58.0201H58.0466H58.0731H58.0997H58.1263H58.153H58.1798H58.2066H58.2335H58.2605H58.2875H58.3146H58.3417H58.369H58.3962H58.4236H58.451H58.4784H58.506H58.5336H58.5613H58.589H58.6168H58.6447H58.6726H58.7006H58.7287H58.7568H58.785H58.8133H58.8416H58.8701H58.8985H58.9271H58.9557H58.9844H59.0132H59.0421H59.071H59.1H59.129H59.1582H59.1874H59.2166H59.246H59.2754H59.3049H59.3345H59.3642H59.3939H59.4237H59.4536H59.4836H59.5136H59.5437H59.5739H59.6042H59.6345C60.2474 28.2493 60.7457 28.7462 60.7457 29.3577C60.7457 29.9699 60.2494 30.4661 59.6373 30.4661H47.0178C46.4056 30.4661 45.9094 29.9699 45.9094 29.3577ZM25.9091 50.2943C25.9091 48.2237 27.5877 46.5492 29.6591 46.5492H38.5702C40.6413 46.5492 42.3202 48.2281 42.3202 50.2992V67.4636C42.3202 69.5347 40.6413 71.2136 38.5702 71.2136H29.6591C27.5879 71.2136 25.9091 69.5368 25.9091 67.4659V67.4377V67.4094V67.3811V67.3527V67.3242V67.2957V67.2671V67.2384V67.2097V67.1809V67.1521V67.1232V67.0942V67.0652V67.0361V67.007V66.9778V66.9485V66.9192V66.8898V66.8604V66.8309V66.8013V66.7717V66.742V66.7123V66.6825V66.6526V66.6227V66.5928V66.5627V66.5327V66.5025V66.4723V66.4421V66.4118V66.3814V66.351V66.3206V66.2901V66.2595V66.2289V66.1982V66.1675V66.1367V66.1058V66.075V66.044V66.013V65.982V65.9509V65.9197V65.8885V65.8573V65.826V65.7946V65.7632V65.7318V65.7003V65.6687V65.6371V65.6055V65.5738V65.5421V65.5103V65.4784V65.4465V65.4146V65.3826V65.3506V65.3185V65.2864V65.2543V65.222V65.1898V65.1575V65.1252V65.0928V65.0603V65.0278V64.9953V64.9628V64.9302V64.8975V64.8648V64.8321V64.7993V64.7665V64.7336V64.7007V64.6678V64.6348V64.6017V64.5687V64.5356V64.5024V64.4692V64.436V64.4027V64.3694V64.3361V64.3027V64.2693V64.2358V64.2023V64.1688V64.1352V64.1016V64.0679V64.0343V64.0005V63.9668V63.933V63.8992V63.8653V63.8314V63.7975V63.7635V63.7295V63.6955V63.6614V63.6273V63.5932V63.559V63.5248V63.4906V63.4563V63.422V63.3877V63.3533V63.3189V63.2845V63.25V63.2155V63.181V63.1465V63.1119V63.0773V63.0427V63.008V62.9733V62.9386V62.9039V62.8691V62.8343V62.7994V62.7646V62.7297V62.6948V62.6599V62.6249V62.5899V62.5549V62.5199V62.4848V62.4497V62.4146V62.3794V62.3443V62.3091V62.2739V62.2386V62.2034V62.1681V62.1328V62.0975V62.0621V62.0268V61.9914V61.956V61.9205V61.8851V61.8496V61.8141V61.7786V61.7431V61.7075V61.6719V61.6363V61.6007V61.5651V61.5294V61.4938V61.4581V61.4224V61.3867V61.3509V61.3152V61.2794V61.2436V61.2078V61.172V61.1362V61.1003V61.0645V61.0286V60.9927V60.9568V60.9209V60.8849V60.849V60.813V60.777V60.7411V60.7051V60.669V60.633V60.597V60.5609V60.5249V60.4888V60.4527V60.4166V60.3805V60.3444V60.3083V60.2722V60.236V60.1999V60.1637V60.1276V60.0914V60.0552V60.019V59.9828V59.9466V59.9104V59.8742V59.838V59.8017V59.7655V59.7293V59.693V59.6568V59.6205V59.5842V59.548V59.5117V59.4754V59.4392V59.4029V59.3666V59.3303V59.294V59.2577V59.2214V59.1851V59.1488V59.1125V59.0762V59.0399V59.0036V58.9673V58.931V58.8947V58.8584V58.8221V58.7858V58.7495V58.7132V58.6769V58.6406V58.6044V58.5681V58.5318V58.4955V58.4592V58.4229V58.3867V58.3504V58.3141V58.2779V58.2416V58.2054V58.1691V58.1329V58.0966V58.0604V58.0242V57.988V57.9518V57.9156V57.8794V57.8432V57.807V57.7708V57.7347V57.6985V57.6624V57.6262V57.5901V57.554V57.5179V57.4818V57.4457V57.4096V57.3735V57.3375V57.3014V57.2654V57.2294V57.1934V57.1574V57.1214V57.0854V57.0495V57.0135V56.9776V56.9417V56.9058V56.8699V56.834V56.7981V56.7623V56.7265V56.6907V56.6549V56.6191V56.5833V56.5476V56.5118V56.4761V56.4404V56.4047V56.3691V56.3334V56.2978V56.2622V56.2266V56.191V56.1555V56.12V56.0845V56.049V56.0135V55.978V55.9426V55.9072V55.8718V55.8365V55.8011V55.7658V55.7305V55.6952V55.66V55.6247V55.5895V55.5544V55.5192V55.4841V55.449V55.4139V55.3788V55.3438V55.3088V55.2738V55.2388V55.2039V55.169V55.1341V55.0993V55.0644V55.0296V54.9949V54.9601V54.9254V54.8907V54.8561V54.8215V54.7869V54.7523V54.7178V54.6833V54.6488V54.6143V54.5799V54.5455V54.5112V54.4769V54.4426V54.4083V54.3741V54.3399V54.3057V54.2716V54.2375V54.2034V54.1694V54.1354V54.1015V54.0675V54.0336V53.9998V53.966V53.9322V53.8984V53.8647V53.8311V53.7974V53.7638V53.7303V53.6967V53.6632V53.6298V53.5964V53.563V53.5297V53.4964V53.4631V53.4299V53.3967V53.3636V53.3305V53.2974V53.2644V53.2314V53.1985V53.1656V53.1327V53.0999V53.0671V53.0344V53.0017V52.9691V52.9365V52.9039V52.8714V52.839V52.8065V52.7742V52.7418V52.7095V52.6773V52.6451V52.6129V52.5808V52.5488V52.5167V52.4848V52.4529V52.421V52.3892V52.3574V52.3256V52.294V52.2623V52.2307V52.1992V52.1677V52.1363V52.1049V52.0736V52.0423V52.011V51.9799V51.9487V51.9176V51.8866V51.8556V51.8247V51.7938V51.763V51.7322V51.7015V51.6708V51.6402V51.6097V51.5792V51.5487V51.5183V51.488V51.4577V51.4275V51.3973V51.3672V51.3371V51.3071V51.2772V51.2473V51.2174V51.1876V51.1579V51.1283V51.0987V51.0691V51.0396V51.0102V50.9808V50.9515V50.9223V50.8931V50.8639V50.8349V50.8059V50.7769V50.748V50.7192V50.6904V50.6617V50.6331V50.6045V50.576V50.5475V50.5192V50.4908V50.4626V50.4344V50.4062V50.3782V50.3502V50.3222V50.2943ZM6.69614 63.3666C6.69614 61.2955 8.37507 59.6166 10.4461 59.6166H19.357C21.428 59.6166 23.107 61.2955 23.107 63.3666V67.4633C23.107 69.5344 21.428 71.2133 19.357 71.2133H10.4461C8.37507 71.2133 6.69614 69.5344 6.69614 67.4633V63.3666Z" fill="#D26E25" stroke="#D26E25" stroke-width="0.5"/>
<path d="M57.3091 51.5532C56.6733 51.5532 56.1582 52.0767 56.1582 52.723V55.2995C56.1582 55.9459 56.6733 56.4694 57.3091 56.4694C57.945 56.4694 58.4601 55.9459 58.4601 55.2995V52.723C58.4601 52.0767 57.945 51.5532 57.3091 51.5532Z" fill="#D26E25"/>
<path d="M57.3091 37.2231C56.6733 37.2231 56.1582 37.7466 56.1582 38.393V48.3364C56.1582 48.9827 56.6733 49.5062 57.3091 49.5062C57.945 49.5062 58.4601 48.9827 58.4601 48.3364V38.393C58.4601 37.7466 57.945 37.2231 57.3091 37.2231Z" fill="#D26E25"/>
</svg>
