<svg width="19" height="18" viewBox="0 0 19 18" fill="none" xmlns="http://www.w3.org/2000/svg">
<path d="M7.69141 4.05V6.75H4.99141V4.05H7.69141ZM9.04141 2.7H3.64141V8.1H9.04141V2.7ZM7.69141 11.25V13.95H4.99141V11.25H7.69141ZM9.04141 9.9H3.64141V15.3H9.04141V9.9ZM14.8914 4.05V6.75H12.1914V4.05H14.8914ZM16.2414 2.7H10.8414V8.1H16.2414V2.7ZM10.8414 9.9H12.1914V11.25H10.8414V9.9ZM12.1914 11.25H13.5414V12.6H12.1914V11.25ZM13.5414 9.9H14.8914V11.25H13.5414V9.9ZM10.8414 12.6H12.1914V13.95H10.8414V12.6ZM12.1914 13.95H13.5414V15.3H12.1914V13.95ZM13.5414 12.6H14.8914V13.95H13.5414V12.6ZM14.8914 11.25H16.2414V12.6H14.8914V11.25ZM14.8914 13.95H16.2414V15.3H14.8914V13.95ZM18.9414 4.5H17.1414V1.8H14.4414V0H18.9414V4.5ZM18.9414 18V13.5H17.1414V16.2H14.4414V18H18.9414ZM0.941406 18H5.44141V16.2H2.74141V13.5H0.941406V18ZM0.941406 0V4.5H2.74141V1.8H5.44141V0H0.941406Z" fill="black"/>
</svg>
