<svg width="15" height="15" viewBox="0 0 15 15" fill="none" xmlns="http://www.w3.org/2000/svg">
<path d="M10.2273 0.5H4.77273C3.50735 0.501297 2.29419 0.97103 1.39943 1.80614C0.504675 2.64125 0.00138963 3.77352 0 4.95455L0 10.0455C0.00138963 11.2265 0.504675 12.3588 1.39943 13.1939C2.29419 14.029 3.50735 14.4987 4.77273 14.5H10.2273C11.4927 14.4987 12.7058 14.029 13.6006 13.1939C14.4953 12.3588 14.9986 11.2265 15 10.0455V4.95455C14.9986 3.77352 14.4953 2.64125 13.6006 1.80614C12.7058 0.97103 11.4927 0.501297 10.2273 0.5V0.5ZM11.5909 8.13636H8.18182V11.3182C8.18182 11.487 8.10998 11.6488 7.98212 11.7682C7.85425 11.8875 7.68083 11.9545 7.5 11.9545C7.31917 11.9545 7.14575 11.8875 7.01788 11.7682C6.89002 11.6488 6.81818 11.487 6.81818 11.3182V8.13636H3.40909C3.22826 8.13636 3.05484 8.06932 2.92697 7.94998C2.79911 7.83064 2.72727 7.66877 2.72727 7.5C2.72727 7.33123 2.79911 7.16936 2.92697 7.05002C3.05484 6.93068 3.22826 6.86364 3.40909 6.86364H6.81818V3.68182C6.81818 3.51304 6.89002 3.35118 7.01788 3.23184C7.14575 3.1125 7.31917 3.04545 7.5 3.04545C7.68083 3.04545 7.85425 3.1125 7.98212 3.23184C8.10998 3.35118 8.18182 3.51304 8.18182 3.68182V6.86364H11.5909C11.7717 6.86364 11.9452 6.93068 12.073 7.05002C12.2009 7.16936 12.2727 7.33123 12.2727 7.5C12.2727 7.66877 12.2009 7.83064 12.073 7.94998C11.9452 8.06932 11.7717 8.13636 11.5909 8.13636Z" fill="black"/>
</svg>
