<svg width="44" height="44" viewBox="0 0 44 44" fill="none" xmlns="http://www.w3.org/2000/svg">
<g id="ph:question-bold">
<path id="Vector" d="M36.6875 22.0003V22C36.6875 19.0951 35.8261 16.2554 34.2122 13.8401C32.5983 11.4247 30.3045 9.54218 27.6207 8.43052C24.9369 7.31886 21.9837 7.028 19.1346 7.59472C16.2855 8.16144 13.6685 9.56028 11.6144 11.6144C9.56029 13.6685 8.16145 16.2855 7.59472 19.1346C7.028 21.9837 7.31887 24.9369 8.43053 27.6207C9.54219 30.3045 11.4247 32.5983 13.8401 34.2122C16.2554 35.8261 19.0951 36.6875 22 36.6875H22.0003C25.8943 36.6833 29.6276 35.1346 32.3811 32.3811C35.1346 29.6276 36.6833 25.8943 36.6875 22.0003ZM20.1875 24.0631V24.0625V22.6875C20.1875 22.2068 20.3785 21.7458 20.7184 21.4059C21.0583 21.066 21.5193 20.875 22 20.875C23.9735 20.875 25.6875 19.5784 25.6875 17.875C25.6875 16.1716 23.9735 14.875 22 14.875C20.0265 14.875 18.3125 16.1716 18.3125 17.875V18.5625C18.3125 19.0432 18.1215 19.5042 17.7816 19.8441C17.4417 20.184 16.9807 20.375 16.5 20.375C16.0193 20.375 15.5583 20.184 15.2184 19.8441C14.8785 19.5042 14.6875 19.0432 14.6875 18.5625V17.875C14.6875 14.2434 17.9454 11.25 22 11.25C26.0546 11.25 29.3125 14.2434 29.3125 17.875C29.3125 20.9003 27.0553 23.4792 23.955 24.2601L23.8045 24.298L23.7717 24.4498C23.6773 24.8875 23.4241 25.2748 23.0611 25.5369C22.698 25.7991 22.2508 25.9175 21.8056 25.8695C21.3604 25.8215 20.9487 25.6103 20.6499 25.2768C20.3512 24.9432 20.1864 24.5109 20.1875 24.0631ZM24.5 30.9375C24.5 31.432 24.3534 31.9153 24.0787 32.3264C23.804 32.7376 23.4135 33.058 22.9567 33.2472C22.4999 33.4364 21.9972 33.4859 21.5123 33.3895C21.0273 33.293 20.5819 33.0549 20.2322 32.7053C19.8826 32.3556 19.6445 31.9102 19.548 31.4252C19.4516 30.9403 19.5011 30.4376 19.6903 29.9808C19.8795 29.524 20.2 29.1335 20.6111 28.8588C21.0222 28.5841 21.5056 28.4375 22 28.4375C22.663 28.4375 23.2989 28.7009 23.7678 29.1697C24.2366 29.6386 24.5 30.2745 24.5 30.9375ZM40.3125 22.0003C40.3125 25.6221 39.2384 29.1625 37.2263 32.1739C35.2141 35.1854 32.3541 37.5325 29.0079 38.9185C25.6617 40.3046 21.9797 40.6672 18.4274 39.9606C14.8751 39.254 11.6122 37.5099 9.05112 34.9489C6.49007 32.3878 4.74597 29.1249 4.03938 25.5726C3.33279 22.0203 3.69543 18.3383 5.08146 14.9921C6.46749 11.6459 8.81465 8.78592 11.8261 6.77371C14.8376 4.76154 18.378 3.68753 21.9999 3.6875C26.855 3.69292 31.5098 5.62402 34.9429 9.05714C38.376 12.4903 40.3071 17.1451 40.3125 22.0003Z" fill="#0B90CF" stroke="white" stroke-width="0.5"/>
</g>
</svg>
