<svg width="17" height="25" viewBox="0 0 17 25" fill="none" xmlns="http://www.w3.org/2000/svg">
<path d="M6.34047 22.7319C6.34047 23.2953 6.56429 23.8356 6.96268 24.234C7.36108 24.6324 7.90142 24.8563 8.46484 24.8563C9.02826 24.8563 9.56861 24.6324 9.967 24.234C10.3654 23.8356 10.5892 23.2953 10.5892 22.7319C10.5892 22.4529 10.5343 22.1767 10.4275 21.9189C10.3208 21.6612 10.1643 21.427 9.967 21.2297C9.76974 21.0325 9.53555 20.876 9.27781 20.7692C9.02007 20.6625 8.74382 20.6075 8.46484 20.6075C8.18587 20.6075 7.90962 20.6625 7.65188 20.7692C7.39414 20.876 7.15995 21.0325 6.96268 21.2297C6.76542 21.427 6.60894 21.6612 6.50218 21.9189C6.39542 22.1767 6.34047 22.4529 6.34047 22.7319ZM12.2083 14.7129C15.1968 13.067 16.7148 10.6807 16.7148 7.622C16.7148 2.36882 12.5713 0.0155029 8.46484 0.0155029C4.46566 0.0155029 0.214844 2.92157 0.214844 8.30882C0.214844 8.85582 0.432142 9.38043 0.818936 9.76722C1.20573 10.154 1.73033 10.3713 2.27734 10.3713C2.82435 10.3713 3.34896 10.154 3.73575 9.76722C4.12255 9.38043 4.33984 8.85582 4.33984 8.30882C4.33984 5.444 6.47866 4.1405 8.46484 4.1405C10.0055 4.1405 12.5898 4.59219 12.5898 7.622C12.5898 8.69657 12.3073 9.95057 10.22 11.1014C8.80103 11.879 6.40234 13.8982 6.40234 16.5155C6.40234 17.0625 6.61964 17.5871 7.00644 17.9739C7.39323 18.3607 7.91783 18.578 8.46484 18.578C9.01185 18.578 9.53646 18.3607 9.92325 17.9739C10.31 17.5871 10.5273 17.0625 10.5273 16.5155C10.5273 16.1319 11.342 15.1893 12.2083 14.7129Z" fill="#4E4E4E"/>
</svg>
