<svg width="29" height="30" viewBox="0 0 29 30" fill="none" xmlns="http://www.w3.org/2000/svg">
<path d="M23.8575 29.2734H4.92447C3.72224 29.2719 2.5697 28.7764 1.71973 27.8958C0.869757 27.0152 0.391765 25.8214 0.390625 24.5762L0.390625 4.97069C0.391765 3.72552 0.869757 2.53167 1.71973 1.65106C2.5697 0.770454 3.72224 0.275012 4.92447 0.273438L23.8575 0.273438C25.0597 0.275013 26.2121 0.770478 27.062 1.65111C27.9118 2.53174 28.3897 3.72559 28.3906 4.97069V24.5769C28.3895 25.8219 27.9116 27.0156 27.0617 27.896C26.2119 28.7765 25.0595 29.2719 23.8575 29.2734ZM22.4963 11.1142C22.2345 10.9921 21.9439 10.9523 21.6605 10.9999C21.3771 11.0475 21.1135 11.1804 20.9024 11.3819L19.0515 13.1651V11.872C19.0515 11.5205 18.9847 11.1726 18.8548 10.8479C18.725 10.5233 18.5346 10.2283 18.2947 9.97987C18.0548 9.73142 17.7699 9.53437 17.4564 9.39996C17.1429 9.26555 16.8069 9.19642 16.4677 9.19651H8.71739C8.03229 9.19651 7.37525 9.47839 6.89081 9.98013C6.40637 10.4819 6.13421 11.1624 6.13421 11.872V19.0067C6.13412 19.3581 6.20087 19.7061 6.33064 20.0308C6.46042 20.3555 6.65068 20.6505 6.89056 20.899C7.13044 21.1475 7.41524 21.3446 7.72869 21.4791C8.04214 21.6136 8.37811 21.6829 8.71739 21.6829H16.4677C16.8069 21.6829 17.1429 21.6136 17.4564 21.4791C17.7698 21.3446 18.0546 21.1475 18.2945 20.899C18.5344 20.6505 18.7246 20.3555 18.8544 20.0308C18.9842 19.7061 19.0509 19.3581 19.0508 19.0067V17.7136L20.9103 19.4982C21.1846 19.754 21.5407 19.8975 21.9097 19.899C22.115 19.899 22.3175 19.8529 22.5042 19.7652C22.7581 19.6587 22.9756 19.4763 23.1289 19.2412C23.2823 19.0061 23.3644 18.729 23.365 18.4453V12.4341C23.3637 12.1494 23.2803 11.8715 23.1254 11.6363C22.9704 11.4011 22.7511 11.2193 22.4955 11.1142H22.4963Z" fill="#4E4E4E"/>
</svg>
