<svg xmlns="http://www.w3.org/2000/svg" width="38" height="39" viewBox="0 0 38 39">
  <g id="Group_217" data-name="Group 217" transform="translate(-345 -751)">
    <path id="Path_325" data-name="Path 325" d="M10,0H28A10,10,0,0,1,38,10V29A10,10,0,0,1,28,39H10A10,10,0,0,1,0,29V10A10,10,0,0,1,10,0Z" transform="translate(345 751)" fill="#e9e9e9"/>
    <path id="Icon_open-reload" data-name="Icon open-reload" d="M7.509,0a7.5,7.5,0,1,0,5.332,12.825l-1.352-1.35a5.633,5.633,0,1,1-4-9.6,5.465,5.465,0,0,1,3.924,1.706L9.368,5.625H15V0L12.766,2.231A7.472,7.472,0,0,0,7.491,0Z" transform="translate(357 763)" fill="#e2c675"/>
  </g>
</svg>
