<svg width="23" height="19" viewBox="0 0 23 19" fill="none" xmlns="http://www.w3.org/2000/svg">
<path d="M13.9998 3.18819L14.3902 3.50054L13.9998 3.18819C13.9428 3.25935 13.8566 3.30078 13.7655 3.30078H6.55C5.83203 3.30078 5.25 3.88281 5.25 4.60078V12.0008C5.25 12.7188 5.83203 13.3008 6.55 13.3008H7.6855C7.93705 13.3008 8.0769 13.5918 7.91976 13.7882L4.78426 17.7076C4.66416 17.8577 4.43584 17.8577 4.31574 17.7076L1.18024 13.7882C1.0231 13.5918 1.16295 13.3008 1.4145 13.3008H2.55C3.26797 13.3008 3.85 12.7188 3.85 12.0008V3.80078C3.85 3.10608 4.0717 2.45641 4.44338 1.99181C4.81274 1.53011 5.28668 1.30078 5.75 1.30078H14.8855C15.1371 1.30078 15.2769 1.59176 15.1198 1.78819L13.9998 3.18819ZM18.25 7.60078C18.25 6.88281 17.668 6.30078 16.95 6.30078H15.8145C15.5629 6.30078 15.4231 6.0098 15.5802 5.81337L18.7157 1.894C18.8358 1.74387 19.0642 1.74388 19.1843 1.894L22.3198 5.81337C22.4769 6.0098 22.3371 6.30078 22.0855 6.30078H20.95C20.232 6.30078 19.65 6.88281 19.65 7.60078V15.8008C19.65 16.4955 19.4283 17.1452 19.0566 17.6098C18.6873 18.0715 18.2133 18.3008 17.75 18.3008H8.6145C8.36295 18.3008 8.2231 18.0098 8.38024 17.8134L9.50024 16.4134C9.55717 16.3422 9.64336 16.3008 9.7345 16.3008H16.95C17.668 16.3008 18.25 15.7188 18.25 15.0008V7.60078Z" fill="#91BFE1" stroke="#91BFE1"/>
</svg>
