<svg width="38" height="39" viewBox="0 0 38 39" fill="none" xmlns="http://www.w3.org/2000/svg">
<path d="M28 0H10C4.47715 0 0 4.47715 0 10V29C0 34.5228 4.47715 39 10 39H28C33.5228 39 38 34.5228 38 29V10C38 4.47715 33.5228 0 28 0Z" fill="white"/>
<path d="M27.8561 22.7311L27.9 22.6871V22.625V15.375V15.3129L27.8561 15.2689L22.7311 10.1439L22.6871 10.1H22.625H15.375H15.3129L15.2689 10.1439L10.1439 15.2689L10.1 15.3129V15.375V22.625V22.6871L10.1439 22.7311L15.2689 27.8561L15.3129 27.9H15.375H22.625H22.6871L22.7311 27.8561L27.8561 22.7311ZM7.9 14.3996L14.3996 7.9H23.6004L30.1 14.3996V23.6004L23.6004 30.1H14.3996L7.9 23.6004V14.3996Z" fill="#1E1E1E" stroke="white" stroke-width="0.3"/>
<path d="M20 24C20 24.5523 19.5523 25 19 25C18.4477 25 18 24.5523 18 24C18 23.4477 18.4477 23 19 23C19.5523 23 20 23.4477 20 24Z" fill="#1E1E1E" stroke="white" stroke-width="0.5"/>
<path d="M18 13H20V21.25H18V13Z" fill="#1E1E1E" stroke="white" stroke-width="0.5"/>
</svg>
