<svg width="25" height="21" viewBox="0 0 25 21" fill="none" xmlns="http://www.w3.org/2000/svg">
<mask id="path-1-outside-1_1525_6364" maskUnits="userSpaceOnUse" x="10.543" y="13.832" width="3" height="3" fill="black">
<rect fill="black" x="10.543" y="13.832" width="3" height="3"/>
<path d="M12.3371 16.3332C12.7757 16.3332 13.1313 15.9972 13.1313 15.5826C13.1313 15.1681 12.7757 14.832 12.3371 14.832C11.8985 14.832 11.543 15.1681 11.543 15.5826C11.543 15.9972 11.8985 16.3332 12.3371 16.3332Z"/>
</mask>
<path d="M12.3371 16.3332C12.7757 16.3332 13.1313 15.9972 13.1313 15.5826C13.1313 15.1681 12.7757 14.832 12.3371 14.832C11.8985 14.832 11.543 15.1681 11.543 15.5826C11.543 15.9972 11.8985 16.3332 12.3371 16.3332Z" fill="black"/>
<path d="M12.3371 16.3332C12.7757 16.3332 13.1313 15.9972 13.1313 15.5826C13.1313 15.1681 12.7757 14.832 12.3371 14.832C11.8985 14.832 11.543 15.1681 11.543 15.5826C11.543 15.9972 11.8985 16.3332 12.3371 16.3332Z" stroke="black" stroke-width="0.6" mask="url(#path-1-outside-1_1525_6364)"/>
<mask id="path-2-outside-2_1525_6364" maskUnits="userSpaceOnUse" x="10.543" y="5.57422" width="3" height="9" fill="black">
<rect fill="black" x="10.543" y="5.57422" width="3" height="9"/>
<path d="M12.3371 13.3296C12.5477 13.3296 12.7497 13.2506 12.8987 13.1098C13.0476 12.969 13.1313 12.7781 13.1313 12.579V7.32482C13.1313 7.12575 13.0476 6.93483 12.8987 6.79407C12.7497 6.6533 12.5477 6.57422 12.3371 6.57422C12.1265 6.57422 11.9245 6.6533 11.7756 6.79407C11.6266 6.93483 11.543 7.12575 11.543 7.32482V12.579C11.543 12.7781 11.6266 12.969 11.7756 13.1098C11.9245 13.2506 12.1265 13.3296 12.3371 13.3296Z"/>
</mask>
<path d="M12.3371 13.3296C12.5477 13.3296 12.7497 13.2506 12.8987 13.1098C13.0476 12.969 13.1313 12.7781 13.1313 12.579V7.32482C13.1313 7.12575 13.0476 6.93483 12.8987 6.79407C12.7497 6.6533 12.5477 6.57422 12.3371 6.57422C12.1265 6.57422 11.9245 6.6533 11.7756 6.79407C11.6266 6.93483 11.543 7.12575 11.543 7.32482V12.579C11.543 12.7781 11.6266 12.969 11.7756 13.1098C11.9245 13.2506 12.1265 13.3296 12.3371 13.3296Z" fill="black"/>
<path d="M12.3371 13.3296C12.5477 13.3296 12.7497 13.2506 12.8987 13.1098C13.0476 12.969 13.1313 12.7781 13.1313 12.579V7.32482C13.1313 7.12575 13.0476 6.93483 12.8987 6.79407C12.7497 6.6533 12.5477 6.57422 12.3371 6.57422C12.1265 6.57422 11.9245 6.6533 11.7756 6.79407C11.6266 6.93483 11.543 7.12575 11.543 7.32482V12.579C11.543 12.7781 11.6266 12.969 11.7756 13.1098C11.9245 13.2506 12.1265 13.3296 12.3371 13.3296Z" stroke="black" stroke-width="0.6" mask="url(#path-2-outside-2_1525_6364)"/>
<mask id="path-3-outside-3_1525_6364" maskUnits="userSpaceOnUse" x="-0.53125" y="-0.429688" width="26" height="21" fill="black">
<rect fill="black" x="-0.53125" y="-0.429688" width="26" height="21"/>
<path d="M2.86483 20.0859H21.8039C22.2274 20.0862 22.6435 19.9803 23.0096 19.779C23.3757 19.5777 23.6787 19.2882 23.8878 18.9401C24.0969 18.592 24.2046 18.1977 24.1998 17.7974C24.1951 17.3972 24.0781 17.0052 23.8608 16.6616L14.3904 1.67363C14.1781 1.33727 13.8769 1.05877 13.5165 0.865377C13.1561 0.671982 12.7488 0.570312 12.3344 0.570312C11.9199 0.570312 11.5126 0.671982 11.1522 0.865377C10.7918 1.05877 10.4907 1.33727 10.2783 1.67363L0.807967 16.6616C0.590653 17.0052 0.473652 17.3972 0.468901 17.7974C0.464149 18.1977 0.571817 18.592 0.78092 18.9401C0.990024 19.2882 1.29308 19.5777 1.65918 19.779C2.02527 19.9803 2.4413 20.0862 2.86483 20.0859V20.0859ZM2.16915 17.431L11.6411 2.44675C11.7143 2.33535 11.8165 2.24346 11.9378 2.17973C12.0591 2.11601 12.1956 2.08257 12.3344 2.08257C12.4732 2.08257 12.6096 2.11601 12.731 2.17973C12.8523 2.24346 12.9544 2.33535 13.0277 2.44675L22.4996 17.431C22.5705 17.5473 22.6081 17.6792 22.6084 17.8134C22.6088 17.9477 22.572 18.0797 22.5016 18.1963C22.4313 18.313 22.3299 18.4102 22.2075 18.4783C22.0851 18.5465 21.9459 18.5831 21.8039 18.5847H2.86483C2.72279 18.5831 2.58365 18.5465 2.46125 18.4783C2.33884 18.4102 2.23743 18.313 2.16709 18.1963C2.09675 18.0797 2.05993 17.9477 2.0603 17.8134C2.06066 17.6792 2.09819 17.5473 2.16915 17.431V17.431Z"/>
</mask>
<path d="M2.86483 20.0859H21.8039C22.2274 20.0862 22.6435 19.9803 23.0096 19.779C23.3757 19.5777 23.6787 19.2882 23.8878 18.9401C24.0969 18.592 24.2046 18.1977 24.1998 17.7974C24.1951 17.3972 24.0781 17.0052 23.8608 16.6616L14.3904 1.67363C14.1781 1.33727 13.8769 1.05877 13.5165 0.865377C13.1561 0.671982 12.7488 0.570312 12.3344 0.570312C11.9199 0.570312 11.5126 0.671982 11.1522 0.865377C10.7918 1.05877 10.4907 1.33727 10.2783 1.67363L0.807967 16.6616C0.590653 17.0052 0.473652 17.3972 0.468901 17.7974C0.464149 18.1977 0.571817 18.592 0.78092 18.9401C0.990024 19.2882 1.29308 19.5777 1.65918 19.779C2.02527 19.9803 2.4413 20.0862 2.86483 20.0859V20.0859ZM2.16915 17.431L11.6411 2.44675C11.7143 2.33535 11.8165 2.24346 11.9378 2.17973C12.0591 2.11601 12.1956 2.08257 12.3344 2.08257C12.4732 2.08257 12.6096 2.11601 12.731 2.17973C12.8523 2.24346 12.9544 2.33535 13.0277 2.44675L22.4996 17.431C22.5705 17.5473 22.6081 17.6792 22.6084 17.8134C22.6088 17.9477 22.572 18.0797 22.5016 18.1963C22.4313 18.313 22.3299 18.4102 22.2075 18.4783C22.0851 18.5465 21.9459 18.5831 21.8039 18.5847H2.86483C2.72279 18.5831 2.58365 18.5465 2.46125 18.4783C2.33884 18.4102 2.23743 18.313 2.16709 18.1963C2.09675 18.0797 2.05993 17.9477 2.0603 17.8134C2.06066 17.6792 2.09819 17.5473 2.16915 17.431V17.431Z" fill="black"/>
<path d="M2.86483 20.0859H21.8039C22.2274 20.0862 22.6435 19.9803 23.0096 19.779C23.3757 19.5777 23.6787 19.2882 23.8878 18.9401C24.0969 18.592 24.2046 18.1977 24.1998 17.7974C24.1951 17.3972 24.0781 17.0052 23.8608 16.6616L14.3904 1.67363C14.1781 1.33727 13.8769 1.05877 13.5165 0.865377C13.1561 0.671982 12.7488 0.570312 12.3344 0.570312C11.9199 0.570312 11.5126 0.671982 11.1522 0.865377C10.7918 1.05877 10.4907 1.33727 10.2783 1.67363L0.807967 16.6616C0.590653 17.0052 0.473652 17.3972 0.468901 17.7974C0.464149 18.1977 0.571817 18.592 0.78092 18.9401C0.990024 19.2882 1.29308 19.5777 1.65918 19.779C2.02527 19.9803 2.4413 20.0862 2.86483 20.0859V20.0859ZM2.16915 17.431L11.6411 2.44675C11.7143 2.33535 11.8165 2.24346 11.9378 2.17973C12.0591 2.11601 12.1956 2.08257 12.3344 2.08257C12.4732 2.08257 12.6096 2.11601 12.731 2.17973C12.8523 2.24346 12.9544 2.33535 13.0277 2.44675L22.4996 17.431C22.5705 17.5473 22.6081 17.6792 22.6084 17.8134C22.6088 17.9477 22.572 18.0797 22.5016 18.1963C22.4313 18.313 22.3299 18.4102 22.2075 18.4783C22.0851 18.5465 21.9459 18.5831 21.8039 18.5847H2.86483C2.72279 18.5831 2.58365 18.5465 2.46125 18.4783C2.33884 18.4102 2.23743 18.313 2.16709 18.1963C2.09675 18.0797 2.05993 17.9477 2.0603 17.8134C2.06066 17.6792 2.09819 17.5473 2.16915 17.431V17.431Z" stroke="black" stroke-width="0.6" mask="url(#path-3-outside-3_1525_6364)" fill="black"/>
</svg>
