<svg width="65" height="40" viewBox="0 0 65 40" fill="none" xmlns="http://www.w3.org/2000/svg">
<g id="Group 184721">
<path id="Vector" d="M28.7755 18.3515L22.9405 23.272L24.6884 30.5979C24.7809 30.9809 24.7545 31.3817 24.6125 31.7503C24.4706 32.1188 24.2193 32.4388 23.8902 32.6701C23.561 32.9014 23.1686 33.0339 22.762 33.0509C22.3554 33.0679 21.9527 32.9687 21.6041 32.7657L14.9916 28.8902L8.39334 32.7657C8.04476 32.9687 7.64199 33.0679 7.23538 33.0509C6.82877 33.0339 6.43637 32.9014 6.10724 32.6701C5.7781 32.4388 5.52684 32.1188 5.38486 31.7503C5.24289 31.3817 5.21649 30.9809 5.30899 30.5979L7.05429 23.2795L1.21807 18.3515C0.90939 18.0942 0.68618 17.7546 0.576434 17.3753C0.466688 16.9959 0.475291 16.5937 0.601166 16.2191C0.72704 15.8444 0.964581 15.5141 1.284 15.2694C1.60342 15.0246 1.9905 14.8765 2.3967 14.8435L10.0895 14.1997L13.0923 7.27888C13.2491 6.91573 13.5136 6.60554 13.8525 6.38735C14.1914 6.16916 14.5895 6.05273 14.9968 6.05273C15.404 6.05273 15.8021 6.16916 16.141 6.38735C16.4799 6.60554 16.7444 6.91573 16.9012 7.27888L19.9131 14.1997L27.6033 14.8435C28.0095 14.8765 28.3966 15.0246 28.716 15.2694C29.0354 15.5141 29.273 15.8444 29.3988 16.2191C29.5247 16.5937 29.5333 16.9959 29.4236 17.3753C29.3138 17.7546 29.0906 18.0942 28.7819 18.3515H28.7755Z" fill="black"/>
<path id="Vector_2" d="M63.7755 18.3515L57.9405 23.272L59.6884 30.5979C59.7809 30.9809 59.7545 31.3817 59.6125 31.7503C59.4706 32.1188 59.2193 32.4388 58.8902 32.6701C58.561 32.9014 58.1686 33.0339 57.762 33.0509C57.3554 33.0679 56.9527 32.9687 56.6041 32.7657L49.9916 28.8902L43.3933 32.7657C43.0448 32.9687 42.642 33.0679 42.2354 33.0509C41.8288 33.0339 41.4364 32.9014 41.1072 32.6701C40.7781 32.4388 40.5268 32.1188 40.3849 31.7503C40.2429 31.3817 40.2165 30.9809 40.309 30.5979L42.0543 23.2795L36.2181 18.3515C35.9094 18.0942 35.6862 17.7546 35.5764 17.3753C35.4667 16.9959 35.4753 16.5937 35.6012 16.2191C35.727 15.8444 35.9646 15.5141 36.284 15.2694C36.6034 15.0246 36.9905 14.8765 37.3967 14.8435L45.0895 14.1997L48.0923 7.27888C48.2491 6.91573 48.5136 6.60554 48.8525 6.38735C49.1914 6.16916 49.5895 6.05273 49.9968 6.05273C50.404 6.05273 50.8021 6.16916 51.141 6.38735C51.4799 6.60554 51.7444 6.91573 51.9012 7.27888L54.9131 14.1997L62.6033 14.8435C63.0095 14.8765 63.3966 15.0246 63.716 15.2694C64.0354 15.5141 64.273 15.8444 64.3988 16.2191C64.5247 16.5937 64.5333 16.9959 64.4236 17.3753C64.3138 17.7546 64.0906 18.0942 63.7819 18.3515H63.7755Z" fill="black"/>
<path id="Vector_3" d="M51.4316 16.1474C51.3478 16.4587 51.1909 16.7383 50.9799 16.9626L50.8543 17.0764L43.0073 24.1839L42.5763 24.5743L42.7024 25.1419L45.0531 35.7237L45.0536 35.7263C45.1365 36.0948 45.1126 36.4806 44.9859 36.8338C44.8593 37.1868 44.6373 37.4875 44.3533 37.7019C44.0697 37.916 43.7358 38.0357 43.3937 38.051C43.0519 38.0664 42.7107 37.9772 42.4121 37.7906C42.4119 37.7905 42.4118 37.7904 42.4116 37.7903L33.5214 32.1939L32.9881 31.8582L32.4551 32.1944L23.5849 37.7903C23.5846 37.7905 23.5843 37.7907 23.5839 37.7909C23.2855 37.9773 22.9444 38.0664 22.6028 38.051C22.2607 38.0357 21.9269 37.916 21.6433 37.7019C21.3592 37.4875 21.1372 37.1868 21.0106 36.8338C20.8839 36.4806 20.86 36.0948 20.9429 35.7263L20.9435 35.7236L23.2906 25.1527L23.4165 24.5855L22.9862 24.1952L15.1375 17.0768L15.1375 17.0768L15.1326 17.0725C14.8648 16.8327 14.6665 16.5118 14.5684 16.1474C14.4702 15.7828 14.4779 15.3956 14.5904 15.036C14.7029 14.6766 14.9133 14.3653 15.1897 14.1378L14.5543 13.3656L15.1897 14.1378C15.4657 13.9107 15.7957 13.7766 16.1376 13.7468L16.1403 13.7465L26.4857 12.8166L27.0945 12.7618L27.3234 12.1951L31.3617 2.19839L31.3623 2.19685C31.5017 1.85015 31.7344 1.55992 32.0256 1.35856C32.3163 1.15753 32.6538 1.05273 32.9956 1.05273C33.3375 1.05273 33.675 1.15753 33.9657 1.35855L34.5344 0.536064L33.9657 1.35856C34.2568 1.55992 34.4896 1.85015 34.629 2.19686L34.63 2.19936L38.6805 12.1961L38.9097 12.7619L39.5177 12.8166L49.8597 13.7465L49.8624 13.7468C50.2043 13.7766 50.5343 13.9107 50.8103 14.1378C51.0867 14.3653 51.2971 14.6766 51.4096 15.036C51.522 15.3956 51.5298 15.7828 51.4316 16.1474Z" fill="black" stroke="white" stroke-width="2"/>
</g>
</svg>
