<svg width="22" height="20" viewBox="0 0 22 20" fill="none" xmlns="http://www.w3.org/2000/svg">
<path d="M12.302 19.5L11 18.75L14 13.5H18.5C18.6971 13.5003 18.8923 13.4617 19.0744 13.3864C19.2565 13.3111 19.422 13.2007 19.5613 13.0613C19.7007 12.922 19.8111 12.7565 19.8864 12.5744C19.9617 12.3923 20.0003 12.1971 20 12V3C20.0003 2.80293 19.9617 2.60775 19.8864 2.42562C19.8111 2.2435 19.7007 2.07803 19.5613 1.93868C19.422 1.79933 19.2565 1.68885 19.0744 1.61358C18.8923 1.5383 18.6971 1.4997 18.5 1.5H3.5C3.30293 1.4997 3.10775 1.5383 2.92562 1.61358C2.7435 1.68885 2.57803 1.79933 2.43868 1.93868C2.29933 2.07803 2.18885 2.2435 2.11358 2.42562C2.0383 2.60775 1.9997 2.80293 2 3V12C1.9997 12.1971 2.0383 12.3923 2.11358 12.5744C2.18885 12.7565 2.29933 12.922 2.43868 13.0613C2.57803 13.2007 2.7435 13.3111 2.92562 13.3864C3.10775 13.4617 3.30293 13.5003 3.5 13.5H10.25V15H3.5C2.70435 15 1.94129 14.6839 1.37868 14.1213C0.816071 13.5587 0.5 12.7956 0.5 12V3C0.5 2.20435 0.816071 1.44129 1.37868 0.87868C1.94129 0.31607 2.70435 0 3.5 0H18.5C19.2956 0 20.0587 0.31607 20.6213 0.87868C21.1839 1.44129 21.5 2.20435 21.5 3V12C21.5 12.7956 21.1839 13.5587 20.6213 14.1213C20.0587 14.6839 19.2956 15 18.5 15H14.8738L12.302 19.5Z" fill="black"/>
</svg>
