<svg width="19" height="21" viewBox="0 0 19 21" fill="none" xmlns="http://www.w3.org/2000/svg">
<path id="Vector" d="M16.4707 11.676V17.0628C16.4707 17.6554 16.0117 18.1402 15.4508 18.1402H3.21203C2.65109 18.1402 2.19213 17.6554 2.19213 17.0628V11.676C2.19213 11.0834 1.73318 10.5986 1.17224 10.5986C0.611296 10.5986 0.152344 11.0834 0.152344 11.676V18.1402C0.152344 19.3253 1.07025 20.2949 2.19213 20.2949H16.4707C17.5925 20.2949 18.5104 19.3253 18.5104 18.1402V11.676C18.5104 11.0834 18.0515 10.5986 17.4906 10.5986C16.9296 10.5986 16.4707 11.0834 16.4707 11.676ZM10.3513 11.3205L12.2687 9.29502C12.6665 8.87485 13.309 8.87485 13.7067 9.29502C14.1045 9.71519 14.1045 10.3939 13.7067 10.8141L10.0453 14.6818C9.64756 15.102 9.00503 15.102 8.60727 14.6818L4.94585 10.8141C4.54809 10.3939 4.54809 9.71519 4.94585 9.29502C5.34361 8.87485 5.98614 8.87485 6.3839 9.29502L8.3115 11.3205V1.97971C8.3115 1.38716 8.77045 0.902344 9.3314 0.902344C9.89234 0.902344 10.3513 1.38716 10.3513 1.97971V11.3205Z" fill="black"/>
</svg>
