<?xml version="1.0" standalone="no"?>
<!DOCTYPE svg PUBLIC "-//W3C//DTD SVG 20010904//EN"
 "http://www.w3.org/TR/2001/REC-SVG-20010904/DTD/svg10.dtd">
<svg version="1.0" xmlns="http://www.w3.org/2000/svg"
 width="1040.000000pt" height="280.000000pt" viewBox="0 0 1040.000000 280.000000"
 preserveAspectRatio="xMidYMid meet">

<g transform="translate(0.000000,280.000000) scale(0.100000,-0.100000)"
fill="#000000" stroke="none">
<path d="M390 1665 c0 -200 4 -315 10 -315 6 0 11 112 12 303 l3 302 228 3
227 2 0 -155 c0 -205 19 -208 22 -2 l3 152 225 0 225 0 3 -302 c2 -260 4 -303
17 -303 13 0 15 42 15 305 l0 305 228 -2 227 -3 2 -145 c1 -80 2 -149 3 -155
0 -5 5 -3 10 5 6 9 10 75 9 155 l-2 140 224 0 224 0 3 -302 c2 -260 4 -303 17
-303 13 0 15 42 15 305 l0 305 228 -2 227 -3 3 -152 c3 -206 22 -203 22 2 l0
155 225 0 225 0 0 -305 c0 -264 2 -305 15 -305 13 0 15 41 15 305 l0 305 230
0 230 0 0 -155 c0 -97 4 -155 10 -155 6 0 10 58 10 155 l0 155 223 -2 222 -3
3 -302 c2 -260 4 -303 17 -303 13 0 15 42 15 305 l0 305 229 0 c199 0 230 -2
235 -16 3 -9 7 -79 8 -157 l2 -142 6 155 5 155 223 3 222 2 0 -305 c0 -263 2
-305 15 -305 13 0 15 43 17 303 l3 302 230 0 230 0 3 -152 c3 -206 22 -203 22
2 l0 155 220 0 220 0 0 -305 c0 -263 2 -305 15 -305 13 0 15 43 17 303 l3 302
233 3 232 2 0 -155 c0 -97 4 -155 10 -155 6 0 10 58 10 155 l0 155 220 0 220
0 0 -305 c0 -264 2 -305 15 -305 13 0 15 41 15 305 l0 305 236 -2 235 -3 0
-144 c0 -80 3 -150 7 -155 4 -6 9 59 12 144 l5 155 218 0 218 0 -1 -302 c0
-264 1 -303 15 -303 13 0 15 40 17 303 l3 302 235 0 235 0 3 -152 c3 -206 22
-203 22 2 l0 155 215 0 215 0 0 -305 c0 -263 2 -305 15 -305 13 0 15 43 17
303 l3 302 238 3 237 2 0 -155 c0 -205 19 -208 22 -2 l3 152 215 0 215 0 3
-302 c1 -191 6 -303 12 -303 6 0 10 115 10 315 l0 315 -4815 0 -4815 0 0 -315z"/>
<path d="M1353 1260 c-39 -24 -42 -35 -8 -26 l25 6 0 -100 c0 -82 3 -100 15
-100 13 0 15 20 15 120 0 66 -3 120 -7 120 -5 0 -23 -9 -40 -20z"/>
<path d="M2290 1270 c-14 -3 -26 -14 -28 -24 -3 -15 -1 -16 18 -6 31 16 68 4
76 -24 7 -31 -14 -71 -65 -121 -60 -57 -55 -66 31 -63 46 2 73 7 76 16 2 8
-11 12 -49 12 l-53 0 36 38 c44 46 58 72 58 110 0 46 -47 75 -100 62z"/>
<path d="M3251 1271 c-44 -12 -36 -30 11 -28 40 2 43 0 46 -26 3 -24 -2 -30
-27 -40 -39 -14 -39 -21 2 -32 22 -7 33 -17 35 -33 5 -36 -16 -54 -62 -50 -48
3 -61 -17 -17 -27 36 -8 85 1 100 18 22 28 23 65 2 86 -20 20 -20 23 -6 44 20
28 19 50 -2 69 -24 21 -53 27 -82 19z"/>
<path d="M4211 1208 c-28 -40 -51 -79 -51 -85 0 -9 18 -13 55 -13 l55 0 0 -36
c0 -45 24 -42 28 4 2 20 9 32 18 32 8 0 14 5 14 10 0 6 -7 10 -15 10 -12 0
-15 15 -15 75 0 67 -2 75 -19 75 -13 0 -37 -25 -70 -72z m55 -64 c-5 -14 -66
-20 -66 -7 0 3 15 29 33 57 l32 51 3 -44 c2 -24 1 -50 -2 -57z"/>
<path d="M5159 1254 c-5 -14 -9 -41 -9 -60 0 -32 2 -34 35 -34 67 0 84 -80 20
-96 -13 -3 -33 -3 -43 1 -23 7 -39 -10 -21 -21 6 -4 30 -7 52 -7 100 0 119
131 21 149 -31 6 -35 10 -32 33 3 23 8 26 46 29 62 5 55 28 -9 29 -45 2 -51
-1 -60 -23z"/>
<path d="M6191 1273 c-65 -12 -101 -64 -101 -143 0 -41 5 -56 25 -75 40 -41
104 -27 126 27 26 62 -30 124 -91 101 -18 -7 -30 -7 -30 -2 0 17 47 58 74 65
14 3 26 12 26 20 0 8 -1 13 -2 13 -2 -1 -14 -4 -27 -6z m11 -127 c12 -17 9
-61 -4 -74 -7 -7 -21 -12 -33 -12 -29 0 -45 19 -45 51 0 47 58 71 82 35z"/>
<path d="M7057 1273 c-17 -16 -3 -23 48 -23 31 0 55 -5 55 -10 0 -6 -20 -51
-45 -100 -25 -49 -45 -92 -45 -95 0 -3 7 -5 15 -5 18 0 119 206 111 226 -5 12
-127 19 -139 7z"/>
<path d="M9033 1272 c-30 -4 -63 -48 -63 -81 0 -15 7 -37 16 -50 14 -20 23
-23 60 -18 24 2 44 0 44 -5 0 -19 -50 -58 -75 -58 -16 0 -25 -6 -25 -15 0 -36
84 -5 116 42 25 39 26 133 1 161 -21 22 -41 29 -74 24z m45 -34 c20 -20 15
-76 -7 -88 -27 -14 -37 -13 -55 6 -21 20 -20 53 1 76 19 21 44 23 61 6z"/>
<path d="M10063 1265 c-82 -35 -62 -235 23 -235 13 0 36 11 51 24 26 23 28 30
28 99 0 58 -4 79 -18 95 -25 27 -48 32 -84 17z m56 -29 c19 -22 24 -117 9
-146 -30 -56 -88 -18 -88 58 0 76 46 128 79 88z"/>
<path d="M351 1249 c-43 -46 -36 -171 12 -204 30 -21 51 -19 83 9 24 20 28 32
31 87 5 85 -19 129 -71 129 -23 0 -42 -7 -55 -21z m86 -29 c28 -56 8 -152 -33
-158 -33 -5 -49 24 -48 89 1 89 50 130 81 69z"/>
<path d="M8036 1254 c-20 -20 -21 -68 -1 -84 14 -11 13 -14 -5 -27 -24 -17
-27 -74 -5 -93 8 -6 32 -14 54 -17 33 -5 44 -1 65 20 31 31 33 60 6 87 -19 19
-19 22 -5 43 20 28 19 50 -3 70 -23 21 -86 22 -106 1z m84 -19 c14 -17 5 -51
-16 -59 -22 -8 -54 11 -54 32 0 38 46 56 70 27z m10 -125 c8 -15 6 -24 -10
-40 -24 -24 -29 -24 -58 -4 -28 19 -28 49 0 68 24 17 51 8 68 -24z"/>
<path d="M9873 1258 c-13 -6 -23 -17 -23 -25 0 -15 16 -17 25 -3 16 26 25 -10
25 -101 0 -76 3 -100 13 -96 9 3 12 35 12 118 0 123 -4 131 -52 107z"/>
</g>
</svg>
