<svg width="19" height="19" viewBox="0 0 19 19" fill="none" xmlns="http://www.w3.org/2000/svg">
<path d="M14.171 11.7765C15.0749 10.2897 15.4028 8.52328 15.0929 6.81112C14.783 5.09896 13.8567 3.55962 12.489 2.48398C11.1213 1.40834 9.40699 0.870921 7.67002 0.97327C5.93305 1.07562 4.29372 1.81065 3.06183 3.03946C1.82994 4.26828 1.0908 5.90576 0.984107 7.64247C0.87741 9.37918 1.41054 11.0948 2.48275 12.4652C3.55496 13.8356 5.09198 14.7657 6.80336 15.0799C8.51474 15.3941 10.2819 15.0706 11.771 14.1705L16.6 19.0005L19 16.6005L14.171 11.7765ZM8.1 12.5005C7.23197 12.4987 6.38394 12.2397 5.66305 11.7562C4.94216 11.2726 4.38076 10.5863 4.04976 9.78384C3.71877 8.98139 3.63304 8.09884 3.8034 7.24769C3.97376 6.39654 4.39257 5.61498 5.00692 5.00175C5.62127 4.38852 6.40359 3.97113 7.25505 3.80232C8.10651 3.6335 8.9889 3.72084 9.79074 4.0533C10.5926 4.38575 11.2779 4.9484 11.7601 5.67017C12.2423 6.39194 12.4998 7.24044 12.5 8.10847C12.4979 9.27404 12.0334 10.3911 11.2084 11.2146C10.3835 12.038 9.26557 12.5005 8.1 12.5005Z" fill="white"/>
</svg>
