<svg width="19" height="19" viewBox="0 0 19 19" fill="none" xmlns="http://www.w3.org/2000/svg">
<path d="M13.8917 11.296C14.7956 9.8092 15.1235 8.04282 14.8136 6.33065C14.5037 4.61849 13.5774 3.07915 12.2097 2.00351C10.842 0.927875 9.12769 0.390452 7.39072 0.492801C5.65375 0.59515 4.01443 1.33018 2.78253 2.559C1.55064 3.78781 0.811506 5.42529 0.70481 7.162C0.598113 8.89871 1.13124 10.6143 2.20345 11.9847C3.27566 13.3551 4.81268 14.2853 6.52406 14.5995C8.23544 14.9137 10.0026 14.5901 11.4917 13.69L16.3207 18.52L18.7207 16.12L13.8917 11.296ZM7.8207 12.02C6.95267 12.0182 6.10464 11.7592 5.38375 11.2757C4.66287 10.7922 4.10146 10.1058 3.77047 9.30337C3.43947 8.50092 3.35374 7.61837 3.5241 6.76722C3.69446 5.91607 4.11327 5.13451 4.72762 4.52128C5.34197 3.90805 6.1243 3.49066 6.97575 3.32185C7.82721 3.15304 8.7096 3.24037 9.51145 3.57283C10.3133 3.90528 10.9986 4.46793 11.4808 5.1897C11.963 5.91147 12.2205 6.75997 12.2207 7.628C12.2186 8.79357 11.7541 9.91067 10.9291 10.7341C10.1042 11.5575 8.98627 12.02 7.8207 12.02Z" fill="black"/>
</svg>
