<svg width="19" height="19" viewBox="0 0 19 19" fill="none" xmlns="http://www.w3.org/2000/svg">
<path d="M14.1144 11.7765C15.0182 10.2897 15.3462 8.52328 15.0363 6.81112C14.7263 5.09896 13.8 3.55962 12.4323 2.48398C11.0647 1.40834 9.35035 0.870921 7.61338 0.97327C5.87641 1.07562 4.23708 1.81065 3.00519 3.03946C1.77329 4.26828 1.03416 5.90576 0.927466 7.64247C0.820769 9.37918 1.3539 11.0948 2.42611 12.4652C3.49832 13.8356 5.03534 14.7657 6.74672 15.0799C8.4581 15.3941 10.2253 15.0706 11.7144 14.1705L16.5434 19.0005L18.9434 16.6005L14.1144 11.7765ZM8.04336 12.5005C7.17533 12.4987 6.3273 12.2397 5.60641 11.7562C4.88552 11.2726 4.32412 10.5863 3.99312 9.78384C3.66213 8.98139 3.5764 8.09884 3.74676 7.24769C3.91712 6.39654 4.33593 5.61498 4.95028 5.00175C5.56463 4.38852 6.34695 3.97113 7.19841 3.80232C8.04987 3.6335 8.93226 3.72084 9.7341 4.0533C10.5359 4.38575 11.2213 4.9484 11.7035 5.67017C12.1857 6.39194 12.4432 7.24044 12.4434 8.10847C12.4412 9.27404 11.9767 10.3911 11.1518 11.2146C10.3269 12.038 9.20893 12.5005 8.04336 12.5005Z" />
</svg>
