<svg width="24" height="25" viewBox="0 0 24 25" fill="none" xmlns="http://www.w3.org/2000/svg">
<path d="M22.2976 19.6521L16.6705 14.4328C16.4747 14.257 16.2191 14.1642 15.9571 14.1737C15.6951 14.1832 15.4468 14.2943 15.264 14.4839L14.9628 14.7877L14.1089 13.9265C15.3189 12.5416 15.9806 10.7557 15.9677 8.90983C15.9677 7.40645 15.5257 5.93683 14.6976 4.68681C13.8694 3.43679 12.6924 2.46253 11.3153 1.88721C9.93812 1.31189 8.42276 1.16136 6.96081 1.45465C5.49885 1.74795 4.15596 2.47189 3.10195 3.53495C2.04794 4.598 1.33015 5.95241 1.03935 7.4269C0.748547 8.9014 0.897797 10.4297 1.46822 11.8187C2.03865 13.2076 3.00463 14.3948 4.24402 15.23C5.48341 16.0653 6.94053 16.5111 8.43113 16.5111C9.75269 16.5053 11.0505 16.1562 12.1994 15.4975C12.3136 15.4274 12.3965 15.3154 12.4307 15.1851C12.4649 15.0547 12.4478 14.916 12.3829 14.7981C12.318 14.6802 12.2104 14.5922 12.0827 14.5525C11.9549 14.5128 11.8168 14.5245 11.6974 14.5852C10.699 15.147 9.57532 15.4434 8.43205 15.4464C7.5754 15.4578 6.7251 15.2968 5.93082 14.973C5.13654 14.6492 4.41421 14.169 3.80602 13.5604C3.19783 12.9519 2.71599 12.2272 2.38864 11.4287C2.06129 10.6302 1.89499 9.77388 1.89947 8.90983C1.89947 7.16267 2.58763 5.48707 3.81255 4.25164C5.03747 3.01621 6.69882 2.32216 8.43113 2.32216C10.1634 2.32216 11.8248 3.01621 13.0497 4.25164C14.2746 5.48707 14.9628 7.16267 14.9628 8.90983C14.9727 10.6346 14.3043 12.293 13.104 13.5215C13.055 13.5662 13.0162 13.6211 12.9901 13.6823C12.9641 13.7436 12.9514 13.8097 12.9529 13.8764V13.9776C12.9514 14.0442 12.9641 14.1104 12.9901 14.1717C13.0162 14.2329 13.055 14.2877 13.104 14.3325L14.26 15.4984L13.9588 15.8022C13.7708 15.9866 13.6606 16.237 13.6511 16.5013C13.6417 16.7655 13.7337 17.0233 13.9081 17.2208L19.0829 22.8962C19.2939 23.1259 19.5508 23.3079 19.8365 23.4303C20.1223 23.5526 20.4306 23.6125 20.741 23.606C21.0383 23.6072 21.3329 23.549 21.6078 23.4348C21.8828 23.3205 22.1325 23.1525 22.3427 22.9403C22.5529 22.7282 22.7193 22.4761 22.8323 22.1988C22.9454 21.9214 23.0028 21.6242 23.0014 21.3243C22.9947 20.6951 22.7418 20.094 22.2976 19.6521ZM20.74 22.5915C20.5691 22.5943 20.3997 22.5595 20.2435 22.4896C20.0873 22.4196 19.948 22.3162 19.8355 22.1864L14.6606 16.5111L15.9668 15.1937L21.5939 20.4129C21.7185 20.5297 21.8184 20.6708 21.8874 20.8276C21.9564 20.9844 21.9932 21.1537 21.9955 21.3252C21.9971 21.492 21.9657 21.6574 21.9032 21.8117C21.8407 21.9661 21.7483 22.1063 21.6314 22.2242C21.5145 22.3421 21.3754 22.4353 21.2224 22.4984C21.0693 22.5614 20.9053 22.5931 20.74 22.5915Z" fill="#4496D2" stroke="#4496D2"/>
<path d="M8.39319 4.49416C7.53435 4.49416 6.69479 4.75104 5.98068 5.23231C5.26657 5.71358 4.71 6.39763 4.38133 7.19796C4.05266 7.99829 3.96667 8.87894 4.13422 9.72857C4.30177 10.5782 4.71535 11.3586 5.32265 11.9712C5.92994 12.5837 6.70369 13.0009 7.54603 13.1699C8.38838 13.3389 9.26149 13.2521 10.055 12.9206C10.8484 12.5891 11.5266 12.0277 12.0038 11.3074C12.4809 10.5872 12.7356 9.74035 12.7356 8.87408C12.7372 8.29845 12.626 7.72816 12.4084 7.19602C12.1907 6.66389 11.8709 6.1804 11.4674 5.77336C11.0638 5.36632 10.5845 5.04376 10.0569 4.82422C9.5293 4.60469 8.9639 4.49252 8.39319 4.49416ZM8.39319 12.4576C7.69051 12.4576 7.00361 12.2474 6.41936 11.8537C5.8351 11.4599 5.37972 10.9002 5.11082 10.2454C4.84192 9.59063 4.77156 8.87011 4.90864 8.17498C5.04573 7.47984 5.3841 6.84132 5.88097 6.34016C6.37784 5.839 7.0109 5.4977 7.70007 5.35943C8.38925 5.22116 9.10361 5.29213 9.7528 5.56335C10.402 5.83458 10.9569 6.29389 11.3473 6.88319C11.7376 7.4725 11.946 8.16533 11.946 8.87408C11.9479 9.34522 11.8573 9.81207 11.6795 10.2477C11.5016 10.6834 11.24 11.0792 10.9097 11.4123C10.5794 11.7455 10.187 12.0093 9.75506 12.1887C9.32315 12.3682 8.86029 12.4595 8.39319 12.4576Z" fill="#F1A921" stroke="#F1A921"/>
</svg>
