<svg width="15" height="19" viewBox="0 0 15 19" fill="none" xmlns="http://www.w3.org/2000/svg">
<g clip-path="url(#clip0_2457_9235)">
<path d="M7.5018 18.0469C13.5499 15.1969 14.4489 13.3219 14.4489 7.54688V3.04688L7.5018 0.796875L0.554688 3.04688V7.54688C0.554688 13.3219 1.45373 15.2719 7.5018 18.0469Z" stroke="black" stroke-width="1.25" stroke-linecap="round" stroke-linejoin="round"/>
<path d="M5.04778 7.54687V6.79687C5.04778 5.52187 6.11028 4.54688 7.4997 4.54688C8.88912 4.54688 9.95162 5.52187 9.95162 6.79687V7.54687M4.63912 7.54687H10.3603C10.6055 7.54687 10.7689 7.69687 10.7689 7.92187V11.6719C10.7689 11.8969 10.6055 12.0469 10.3603 12.0469H4.63912C4.39393 12.0469 4.23047 11.8969 4.23047 11.6719V7.92187C4.23047 7.69687 4.39393 7.54687 4.63912 7.54687Z" stroke="black" stroke-width="1.25" stroke-linecap="round" stroke-linejoin="round"/>
<path d="M7.4985 9.79688C7.72419 9.79688 7.90715 9.62898 7.90715 9.42188C7.90715 9.21477 7.72419 9.04688 7.4985 9.04688C7.2728 9.04688 7.08984 9.21477 7.08984 9.42188C7.08984 9.62898 7.2728 9.79688 7.4985 9.79688Z" stroke="black" stroke-linecap="round" stroke-linejoin="round"/>
<path d="M7.5 9.79688V10.5469" stroke="black" stroke-linecap="round" stroke-linejoin="round"/>
</g>
<defs>
<clipPath id="clip0_2457_9235">
<rect width="15" height="18" fill="white" transform="translate(0 0.421875)"/>
</clipPath>
</defs>
</svg>
