<svg xmlns="http://www.w3.org/2000/svg" width="20.355" height="20.835" viewBox="0 0 714.355 416.835">
  <path id="Icon_material-done-all" data-name="Icon material-done-all" d="M532.162,50.993s14.23-27.781-2.844-42.608-39.765,0-39.765,0L297.967,199.972s-19.524,22.8,0,42.608,42.608,0,42.608,0ZM660.29,8.385,350.836,317.839s-4.566,6.559-9.492,8.037-17.586-14.554-17.586-14.554l-109.5-109.235s-17.459-16.1-38.168,2.688-4.44,39.92-4.44,39.92L329.6,404.183a30.853,30.853,0,0,0,16.341,8.737c6.9-1.314,12.456-8.737,12.456-8.737L703.2,50.993s14.869-18.917-7.107-38.7S660.29,8.385,660.29,8.385ZM.615,244.7,169.538,413.618s19.54,14.344,37.941-5.5,4.667-37.108,4.667-37.108L43.526,202.087S25.267,186.4,4.159,207.5.615,244.7.615,244.7Z" transform="translate(6.238 -1.795)" fill="#0abde3"/>
</svg>
