<svg width="173" height="122" viewBox="0 0 173 122" fill="none" xmlns="http://www.w3.org/2000/svg">
<path d="M112.911 28.7656C112.864 28.7805 112.817 28.7946 112.77 28.8095" stroke="#351A1D" stroke-width="7" stroke-miterlimit="10"/>
<path d="M112.138 28.6523C75.546 39.4489 74.312 81.705 36.5977 85.0905" stroke="#351A1D" stroke-miterlimit="10"/>
<path d="M1.14781 117.809C1.09879 117.813 1.04902 117.818 1 117.822" stroke="#351A1D" stroke-width="7" stroke-miterlimit="10"/>
<path d="M121.18 15.082L112.914 28.7637L125.905 22.1845L172.029 15.0508L121.18 15.082Z" fill="#00ABFF"/>
<path opacity="0.1" d="M121.18 15.082L112.914 28.7637L125.905 22.1845L172.029 15.0508L121.18 15.082Z" fill="black"/>
<path d="M126.674 25.9028L112.914 28.7628L125.905 22.1836L126.674 25.9028Z" fill="#351A1D"/>
<path d="M125.906 22.1845L172.03 15.0508L129.932 42.5666L125.906 22.1845Z" fill="#00ABFF"/>
<path d="M121.18 15.0843L105.566 0L172.029 15.053L121.18 15.0843Z" fill="#00ABFF"/>
<path d="M96.2894 42.8076L61.0976 7.36719L25.8086 43.3353L61.0791 62.031L96.2894 42.8076Z" fill="#D3C6C6"/>
<path d="M87.5222 15.582H34.0742L34.0987 51.1584L61.0916 62.0322L87.5459 51.1584L87.5222 15.582Z" fill="#F9F9F9"/>
<path d="M25.8222 43.3359L25.8125 90.4275L61.0919 62.0316L25.8222 43.3359Z" fill="#62A8FC"/>
<path d="M61.0763 62.0312L25.7969 90.4167L96.2791 90.4115L61.0763 62.0312Z" fill="#0B90CF"/>
<path d="M96.2983 42.8086L61.082 62.032L96.2938 90.4227L96.2983 42.8086Z" fill="#62A8FC"/>
<path d="M85.025 43.3789H37.1094V44.9174H85.025V43.3789Z" fill="#D3C6C6"/>
<path d="M85.025 47.5312H37.1094V49.1463H85.025V47.5312Z" fill="#D3C6C6"/>
<path d="M85.025 35.2266H37.1094V36.6112H85.025V35.2266Z" fill="#D3C6C6"/>
<path d="M84.7555 31.0156H36.8398V32.4003H84.7555V31.0156Z" fill="#D3C6C6"/>
<path d="M85.025 39.3047H37.1094V40.8432H85.025V39.3047Z" fill="#D3C6C6"/>
<path d="M84.8922 22.3672H36.9766V23.7519H84.8922V22.3672Z" fill="#D3C6C6"/>
<path d="M84.6188 18.1523H36.7031V19.537H84.6188V18.1523Z" fill="#D3C6C6"/>
<path d="M84.8922 26.4414H36.9766V27.9799H84.8922V26.4414Z" fill="#D3C6C6"/>
<path d="M76.7065 53.5331H44.9784L41.9805 51.918H79.6175L76.7065 53.5331Z" fill="#D3C6C6"/>
<path d="M69.1379 57.6112H52.7713L49.7734 55.9961H72.0489L69.1379 57.6112Z" fill="#D3C6C6"/>
</svg>
