<svg xmlns="http://www.w3.org/2000/svg" width="704.361" height="173.096" viewBox="0 0 704.361 173.096"><g transform="translate(-958.933 -47.09)"><path d="M1103.969,62.652v4.777h20.3a2.986,2.986,0,0,1,2.986,2.986v9.519a2.986,2.986,0,0,1-2.986,2.986h-21.665a8.945,8.945,0,0,1-7.691-5.972,8.779,8.779,0,0,1-.5-2.95V56.048a8.842,8.842,0,0,1,.514-2.986,8.955,8.955,0,0,1,8.444-5.972h20.9a2.986,2.986,0,0,1,2.986,2.986v9.59a2.986,2.986,0,0,1-2.986,2.986Z" fill="#009cdc"/><path d="M1640.005,62.652v4.777h20.3a2.986,2.986,0,0,1,2.986,2.986v9.519a2.986,2.986,0,0,1-2.986,2.986h-21.665a8.945,8.945,0,0,1-7.691-5.972,8.779,8.779,0,0,1-.5-2.95V56.048a8.842,8.842,0,0,1,.514-2.986,8.955,8.955,0,0,1,8.444-5.972h20.9a2.986,2.986,0,0,1,2.986,2.986v9.59a2.986,2.986,0,0,1-2.986,2.986Z" fill="#e40046"/><path d="M1304.982,131.022V135.8h20.3a2.986,2.986,0,0,1,2.986,2.986V148.3a2.985,2.985,0,0,1-2.986,2.985h-21.665a8.947,8.947,0,0,1-7.692-5.971,8.807,8.807,0,0,1-.5-2.95V124.417a8.959,8.959,0,0,1,8.957-8.957h20.9a2.985,2.985,0,0,1,2.986,2.985v9.591a2.986,2.986,0,0,1-2.986,2.986Z" fill="#009cdc"/><path d="M1506,199.749v4.778h20.3a2.986,2.986,0,0,1,2.986,2.986v9.518a2.986,2.986,0,0,1-2.986,2.986h-21.665a8.944,8.944,0,0,1-7.691-5.972,8.775,8.775,0,0,1-.5-2.95v-17.95a8.851,8.851,0,0,1,.514-2.986,8.955,8.955,0,0,1,8.444-5.972h20.9a2.986,2.986,0,0,1,2.986,2.986v9.591a2.985,2.985,0,0,1-2.986,2.985Z" fill="#faa821"/><path d="M994.721,67.449v7.987a8.941,8.941,0,0,1-8.833,7.521H967.88a8.847,8.847,0,0,1-2.982-.513,8.946,8.946,0,0,1-5.965-8.434V50.116a2.983,2.983,0,0,1,5.04-2.16l.925.925L974.62,58.6c0,.006.006.012.018.018.042.048.09.1.137.143a.072.072,0,0,0,.03.03,2.988,2.988,0,0,0,4.044,0,.072.072,0,0,0,.03-.03c.048-.047.1-.1.137-.143.012-.006.018-.012.018-.018l9.723-9.716.8-.805c.006-.006.006-.012.018-.018a.63.63,0,0,1,.089-.09s.006-.012.012-.012a2.938,2.938,0,0,1,1.957-.823.853.853,0,0,1,.2,0,2.978,2.978,0,0,1,2.881,2.977V67.449Z" fill="#009cdc"/><path d="M1463.753,135.781v7.987a8.943,8.943,0,0,1-8.834,7.521h-18.007a8.951,8.951,0,0,1-8.947-8.947V118.448a2.983,2.983,0,0,1,5.04-2.159l.924.924,9.723,9.717c0,.006.006.012.018.018.041.047.089.1.137.143a.072.072,0,0,0,.03.03,2.991,2.991,0,0,0,4.044,0,.073.073,0,0,0,.03-.03c.047-.048.095-.1.137-.143.012-.006.018-.012.018-.018l9.722-9.717.805-.805c.006-.006.006-.012.018-.018a.626.626,0,0,1,.09-.089s.006-.012.012-.012a2.928,2.928,0,0,1,1.956-.823.861.861,0,0,1,.2,0,2.977,2.977,0,0,1,2.881,2.976v17.339Z" fill="#e40046"/><path d="M1049.8,63.11h-3.981V59.129h-3.981V63.11h-3.981v3.981h3.981v3.981h3.981V67.091h3.981Z" fill="#009cdc"/><path d="M1585.839,200.112h-3.981v-3.981h-3.981v3.981H1573.9v3.981h3.981v3.981h3.981v-3.981h3.981Z" fill="#e40046"/><path d="M1585.839,63.11h-3.981V59.129h-3.981V63.11H1573.9v3.981h3.981v3.981h3.981V67.091h3.981Z" fill="#009cdc"/><path d="M1518.835,131.384h-3.981V127.4h-3.981v3.981h-3.981v3.981h3.981v3.981h3.981v-3.981h3.981Z" fill="#009cdc"/><path d="M1317.821,63.11h-3.981V59.129h-3.981V63.11h-3.981v3.981h3.981v3.981h3.981V67.091h3.981Z" fill="#faa821"/><path d="M1317.821,200.112h-3.981v-3.981h-3.981v3.981h-3.981v3.981h3.981v3.981h3.981v-3.981h3.981Z" fill="#009cdc"/><path d="M1250.817,131.384h-3.981V127.4h-3.981v3.981h-3.981v3.981h3.981v3.981h3.981v-3.981h3.981Z" fill="#e40046"/><path d="M1049.8,200.112h-3.981v-3.981h-3.981v3.981h-3.981v3.981h3.981v3.981h3.981v-3.981h3.981Z" fill="#faa821"/><path d="M982.8,136.384h-3.981V132.4h-3.981v3.981h-3.981v3.981h3.981v3.981h3.981v-3.981H982.8Z" fill="#faa821"/><path d="M1384.484,136.19l-2.815-2.815,2.815-2.815-2.815-2.815-2.815,2.815-2.815-2.815-2.815,2.815,2.815,2.815-2.815,2.815,2.815,2.815,2.815-2.815,2.815,2.815Z" fill="#faa821"/><path d="M1183.471,204.917l-2.815-2.815,2.815-2.815-2.815-2.815-2.815,2.815-2.815-2.815-2.815,2.815,2.815,2.815-2.815,2.815,2.815,2.815,2.815-2.815,2.815,2.815Z" fill="#e40046"/><path d="M1451.489,204.917l-2.815-2.815,2.815-2.815-2.815-2.815-2.815,2.815-2.815-2.815-2.815,2.815,2.815,2.815-2.815,2.815,2.815,2.815,2.815-2.815,2.815,2.815Z" fill="#009cdc"/><path d="M1652.5,136.19l-2.815-2.815,2.815-2.815-2.815-2.815-2.815,2.815-2.815-2.815-2.815,2.815,2.815,2.815-2.815,2.815,2.815,2.815,2.815-2.815,2.815,2.815Z" fill="#faa821"/><path d="M1183.471,67.915l-2.815-2.815,2.815-2.815-2.815-2.815-2.815,2.815-2.815-2.815-2.815,2.815,2.815,2.815-2.815,2.815,2.815,2.815,2.815-2.815,2.815,2.815Z" fill="#009cdc"/><path d="M1116.466,136.19l-2.815-2.815,2.815-2.815-2.815-2.815-2.815,2.815-2.815-2.815-2.815,2.815,2.815,2.815-2.815,2.815,2.815,2.815,2.815-2.815,2.815,2.815Z" fill="#009cdc"/><path d="M1451.489,67.915l-2.815-2.815,2.815-2.815-2.815-2.815-2.815,2.815-2.815-2.815-2.815,2.815,2.815,2.815-2.815,2.815,2.815,2.815,2.815-2.815,2.815,2.815Z" fill="#e40046"/><path d="M1258.281,56.143h-26.872a3,3,0,0,0-2.986,2.986V71.072a3,3,0,0,0,2.986,2.986h26.872a3,3,0,0,0,2.986-2.986V59.129A2.994,2.994,0,0,0,1258.281,56.143Zm-14.929,10.45h-4.478v4.479h-2.986V66.593h-4.479V63.607h4.479V59.129h2.986v4.478h4.478Zm6.718,2.986a2.24,2.24,0,1,1,2.24-2.24A2.236,2.236,0,0,1,1250.07,69.579Zm5.972-4.479a2.24,2.24,0,1,1,2.239-2.239A2.236,2.236,0,0,1,1256.042,65.1Z" fill="#e40046"/><path d="M1660.308,193.145h-26.872a3,3,0,0,0-2.986,2.986v11.943a3,3,0,0,0,2.986,2.986h26.872a2.994,2.994,0,0,0,2.986-2.986V196.131A2.994,2.994,0,0,0,1660.308,193.145Zm-14.929,10.45H1640.9v4.479h-2.985V203.6h-4.479v-2.986h4.479v-4.478h2.985v4.478h4.479Zm6.718,2.986a2.239,2.239,0,1,1,2.24-2.239A2.236,2.236,0,0,1,1652.1,206.581Zm5.972-4.479a2.24,2.24,0,1,1,2.239-2.239A2.236,2.236,0,0,1,1658.069,202.1Z" fill="#009cdc"/><path d="M1378.854,80.167,1376.473,78c-8.457-7.669-14.041-12.727-14.041-18.935a8.944,8.944,0,0,1,9.032-9.032,9.833,9.833,0,0,1,7.39,3.432,9.835,9.835,0,0,1,7.39-3.432,8.944,8.944,0,0,1,9.032,9.032c0,6.208-5.583,11.266-14.041,18.951Z" fill="#009cdc"/><path d="M1505.5,67.728a4.7,4.7,0,0,1-1.393-3.354V57.7h-4.49a3.18,3.18,0,0,0-3.179,3.176v9.479a3.179,3.179,0,0,0,3.179,3.179h1.314v6.178l5.344-6.184h8.9a3.18,3.18,0,0,0,3.179-3.173V69.107h-9.525A4.755,4.755,0,0,1,1505.5,67.728Z" fill="#faa821"/><path d="M1526.139,67.521a3.14,3.14,0,0,0,3.146-3.134h0V53.634a3.143,3.143,0,0,0-3.14-3.146H1508.84a3.147,3.147,0,0,0-3.147,3.146h0V64.387a3.13,3.13,0,0,0,3.13,3.13h9.87l1.36,1.58,4.394,5.081V67.521Z" fill="#faa821"/><path d="M969.467,204.73a4.7,4.7,0,0,1-1.393-3.354V194.7h-4.489a3.18,3.18,0,0,0-3.18,3.176v9.479a3.18,3.18,0,0,0,3.18,3.18H964.9v6.178l5.344-6.185h8.9a3.179,3.179,0,0,0,3.179-3.173v-1.248H972.8A4.755,4.755,0,0,1,969.467,204.73Z" fill="#faa821"/><path d="M990.1,204.523a3.139,3.139,0,0,0,3.146-3.133h0V190.636a3.143,3.143,0,0,0-3.14-3.146H972.8a3.147,3.147,0,0,0-3.147,3.146h0V201.39a3.131,3.131,0,0,0,3.13,3.13h9.87l1.36,1.579,4.394,5.081v-6.657Z" fill="#faa821"/><path d="M1036.312,136.059a4.8,4.8,0,0,1-1.423-3.426v-6.819H1030.3a3.249,3.249,0,0,0-3.248,3.245v9.684a3.249,3.249,0,0,0,3.248,3.249h1.342V148.3l5.46-6.319h9.093a3.249,3.249,0,0,0,3.249-3.242v-1.275h-9.732A4.857,4.857,0,0,1,1036.312,136.059Z" fill="#faa821"/><path d="M1057.4,135.848a3.209,3.209,0,0,0,3.215-3.2h0V121.66a3.212,3.212,0,0,0-3.208-3.215h-17.681a3.216,3.216,0,0,0-3.215,3.215h0v10.986a3.2,3.2,0,0,0,3.2,3.2h10.084l1.389,1.614,4.49,5.191v-6.8Z" fill="#faa821"/><path d="M1161.419,149.034l21.347-7.624-13.723-13.723Z" fill="#faa821"/><path d="M1180.524,134.594l8.524-8.523a1.905,1.905,0,0,1,2.7,0l.9.9,1.617-1.616-.9-.9a4.206,4.206,0,0,0-5.931,0l-8.524,8.524Z" fill="#faa821"/><path d="M1173.709,125.979l-.9.9,1.616,1.616.9-.9a4.207,4.207,0,0,0,0-5.932l-.9-.9-1.616,1.632.9.9A1.915,1.915,0,0,1,1173.709,125.979Z" fill="#faa821"/><path d="M1184.382,133.6l-2.424,2.425,1.616,1.616L1186,135.22a1.9,1.9,0,0,1,2.7,0l2.455,2.454,1.616-1.616-2.455-2.455A4.206,4.206,0,0,0,1184.382,133.6Z" fill="#faa821"/><path d="M1181.332,124.454l-5.474,5.474,1.617,1.617,5.474-5.474a4.207,4.207,0,0,0,0-5.932l-2.425-2.424-1.616,1.616,2.424,2.425A1.932,1.932,0,0,1,1181.332,124.454Z" fill="#faa821"/><circle cx="4.501" cy="4.501" r="4.501" transform="translate(1574.642 128.067)" fill="#faa821"/><path d="M1585.614,144.019a2.816,2.816,0,0,0-.345.024l-3-6.538a5.8,5.8,0,0,1-1.43.662l2.994,6.534a2.665,2.665,0,1,0,1.777-.682Z" fill="#faa821"/><path d="M1593.621,133.106a2.665,2.665,0,0,0-2.317,1.349l-6.334-1.4a5.818,5.818,0,0,1-.342,1.538l6.335,1.4a2.668,2.668,0,1,0,2.658-2.887Z" fill="#faa821"/><path d="M1573.658,134.591,1568,137.6a2.7,2.7,0,1,0,.738,1.392l5.663-3.009A5.912,5.912,0,0,1,1573.658,134.591Z" fill="#faa821"/><path d="M1583.2,128.357l4.22-5.775a2.675,2.675,0,1,0-1.272-.93l-4.217,5.771A5.843,5.843,0,0,1,1583.2,128.357Z" fill="#faa821"/><path d="M1575.776,127.79l-2.647-2.845a2.671,2.671,0,1,0-1.153,1.073l2.645,2.843A5.82,5.82,0,0,1,1575.776,127.79Z" fill="#faa821"/><path d="M1394.352,199.827h-2.346v-6.256a3.138,3.138,0,0,0-3.128-3.128h-6.256V188.1a3.91,3.91,0,1,0-7.82,0v2.346h-6.256a3.124,3.124,0,0,0-3.112,3.128v5.944h2.33a4.223,4.223,0,1,1,0,8.445h-2.346V213.9a3.137,3.137,0,0,0,3.128,3.128h5.943v-2.346a4.223,4.223,0,0,1,8.446,0v2.346h5.943a3.137,3.137,0,0,0,3.128-3.128v-6.256h2.346a3.91,3.91,0,0,0,0-7.82Z" fill="#faa821"/><path d="M1260.924,198.43l-5.1-2.934v-3.7a.667.667,0,0,0-.648-.647h-4.229v-3.315a.631.631,0,0,0-.343-.572l-5.411-3.162a.652.652,0,0,0-.648,0l-5.448,3.162a.708.708,0,0,0-.343.572v3.315h-4.229a.642.642,0,0,0-.648.647v3.7l-5.106,2.934a.709.709,0,0,0-.343.572v6.287a.629.629,0,0,0,.343.571l5.106,2.934v3.658a.642.642,0,0,0,.648.647h4.229v3.315a.628.628,0,0,0,.343.572l5.41,3.124a.569.569,0,0,0,.343.076,1.11,1.11,0,0,0,.343-.076l5.411-3.124a.709.709,0,0,0,.343-.572V213.1h4.229a.667.667,0,0,0,.648-.647v-3.658l5.1-2.934a.707.707,0,0,0,.343-.571V199A.707.707,0,0,0,1260.924,198.43Zm-10.516,1.715,4.115,2.362v4.763l-4.115-2.363Zm-10.326-11.2,4.115,2.362v4.763l-4.115-2.363Zm5.411,2.4,4.115-2.362v4.763l-4.115,2.362Zm-10.326,15.927v-4.763l4.115-2.362v4.762Zm-5.41-7.125,4.115,2.362v4.763l-4.115-2.363Zm10.325,11.164,4.115,2.362v4.763l-4.115-2.363Zm5.411,7.125v-4.763l4.115-2.362v4.762Zm5.449-6.63v-1.638a.63.63,0,0,0-.343-.572l-5.411-3.124a.652.652,0,0,0-.648,0l-5.41,3.124a.707.707,0,0,0-.343.572V211.8H1235.2v-3.01l5.068-2.972a.709.709,0,0,0,.343-.572V199a.628.628,0,0,0-.343-.572l-5.106-2.934v-3.01h3.582v1.639a.628.628,0,0,0,.343.571l5.41,3.125a.569.569,0,0,0,.343.076,1.11,1.11,0,0,0,.343-.076l5.411-3.125a.709.709,0,0,0,.343-.571v-1.639h3.581v3.01l-5.106,2.934a.708.708,0,0,0-.342.572v6.287a.628.628,0,0,0,.342.571l5.106,2.934v3.01Zm4.877-4.534v-4.763l4.115-2.362v4.762Z" fill="#faa821"/><path d="M1123.153,186.8h-4.106a8.211,8.211,0,1,0-16.422,0h-4.1a4.118,4.118,0,0,0-4.106,4.1v24.633a4.118,4.118,0,0,0,4.106,4.106h24.633a4.118,4.118,0,0,0,4.105-4.106V190.9A4.117,4.117,0,0,0,1123.153,186.8Zm-16.422,8.211a2.053,2.053,0,1,1-4.106,0V190.9h4.106Zm4.105-12.317a4.118,4.118,0,0,1,4.106,4.106h-8.211A4.118,4.118,0,0,1,1110.836,182.694Zm8.211,12.317a2.052,2.052,0,1,1-4.1,0V190.9h4.1Z" fill="#009cdc"/></g></svg>