<svg xmlns="http://www.w3.org/2000/svg" width="38" height="39" viewBox="0 0 38 39">
  <g id="Group_216" data-name="Group 216" transform="translate(-345 -550)">
    <path id="Path_324" data-name="Path 324" d="M10,0H28A10,10,0,0,1,38,10V29A10,10,0,0,1,28,39H10A10,10,0,0,1,0,29V10A10,10,0,0,1,10,0Z" transform="translate(345 550)" fill="#e9e9e9"/>
    <path id="Icon_awesome-star" data-name="Icon awesome-star" d="M8.262.556,6.222,4.693l-4.565.666A1,1,0,0,0,1.1,7.065l3.3,3.218-.781,4.546a1,1,0,0,0,1.45,1.053l4.084-2.147,4.084,2.147a1,1,0,0,0,1.45-1.053l-.781-4.546,3.3-3.218a1,1,0,0,0-.553-1.706L12.1,4.693,10.056.556A1,1,0,0,0,8.262.556Z" transform="translate(355.199 561)" fill="#f96"/>
  </g>
</svg>
