<svg width="165" height="165" viewBox="0 0 165 165" fill="none" xmlns="http://www.w3.org/2000/svg">
<g clip-path="url(#clip0_1539_10708)">
<path d="M136.084 77.584C135.364 74.0908 134.292 70.6567 132.894 67.3734C131.525 64.1524 129.827 61.0446 127.85 58.1386C125.893 55.262 123.648 52.5544 121.174 50.096C118.78 47.7164 116.153 45.5483 113.362 43.6492L114.723 41.1514C115.83 41.3466 116.658 41.2187 116.927 40.7234C117.439 39.787 115.742 37.8928 113.144 36.4922C110.543 35.0916 108.022 34.7161 107.511 35.6509C107.242 36.1445 107.587 36.9055 108.354 37.7206L107.121 39.9805C106.027 39.4311 104.917 38.9194 103.792 38.4454C100.488 37.0564 97.0315 35.9904 93.5186 35.2753C92.3075 35.0293 91.0832 34.8243 89.854 34.6603V28.7744C92.0188 28.0593 93.3734 27.0327 93.3734 25.8912C93.3734 23.7297 88.5043 21.9766 82.4983 21.9766C76.4923 21.9766 71.6248 23.7281 71.6248 25.8912C71.6248 27.0327 72.9794 28.0593 75.1426 28.7744V34.6603C73.9117 34.8243 72.689 35.0293 71.4779 35.2753C67.9651 35.9904 64.5083 37.0564 61.2067 38.4454C60.0814 38.9194 58.9709 39.4311 57.8753 39.9805L56.6428 37.7206C57.41 36.9055 57.7549 36.1462 57.4859 35.6509C56.9744 34.7144 54.4532 35.0916 51.8545 36.4922C49.2541 37.8928 47.5579 39.787 48.0694 40.7234C48.3383 41.217 49.1683 41.3466 50.2738 41.1514L51.635 43.6492C48.8432 45.5483 46.2164 47.7164 43.8223 50.096C41.3489 52.556 39.1016 55.262 37.1464 58.1386C35.1697 61.0446 33.4718 64.1524 32.1023 67.3734C30.7048 70.6567 29.6323 74.0908 28.9129 77.584C28.1753 81.1658 27.8008 84.8476 27.8008 88.5343C27.8008 92.2243 28.1753 95.9045 28.9129 99.4895C29.6323 102.981 30.7048 106.415 32.1023 109.699C33.4718 112.921 35.168 116.027 37.1464 118.933C39.1016 121.813 41.3489 124.519 43.8223 126.976C46.2973 129.436 49.0198 131.668 51.9139 133.613C54.8377 135.576 57.9644 137.265 61.2067 138.626C64.5083 140.014 67.9651 141.08 71.4779 141.798C75.0832 142.528 78.7891 142.9 82.4983 142.9C86.2075 142.9 89.9134 142.528 93.5186 141.798C97.0315 141.08 100.488 140.014 103.792 138.626C107.032 137.265 110.157 135.578 113.083 133.613C115.978 131.668 118.701 129.436 121.174 126.976C123.648 124.519 125.893 121.813 127.85 118.933C129.825 116.029 131.525 112.921 132.894 109.699C134.292 106.415 135.364 102.981 136.084 99.4895C136.821 95.9045 137.196 92.2243 137.196 88.5343C137.194 84.8476 136.821 81.1642 136.084 77.584ZM82.4999 136.081C56.1247 136.081 34.6648 114.751 34.6648 88.5343C34.6648 62.3189 56.1247 40.9907 82.4999 40.9907C108.877 40.9907 130.335 62.3189 130.335 88.5343C130.335 114.751 108.877 136.081 82.4999 136.081Z" fill="#5E3B63"/>
<path d="M82.5 48.1875V88.5315L101.412 124.239C114.304 117.481 123.092 104.028 123.092 88.5315C123.092 66.2505 104.919 48.1875 82.5 48.1875Z" fill="#5E3B63"/>
<path d="M83.4206 41.7031H81.5742V46.1442H83.4206V41.7031Z" fill="#5E3B63"/>
<path d="M39.8527 87.6172H35.3828V89.4523H39.8527V87.6172Z" fill="#5E3B63"/>
<path d="M83.4206 130.926H81.5742V135.365H83.4206V130.926Z" fill="#5E3B63"/>
</g>
<defs>
<clipPath id="clip0_1539_10708">
<rect width="165" height="164" fill="white" transform="translate(0 0.4375)"/>
</clipPath>
</defs>
</svg>
