<svg width="29" height="29" viewBox="0 0 29 29" fill="none" xmlns="http://www.w3.org/2000/svg">
<path d="M14.5 27.1875C11.1351 27.1875 7.90795 25.8508 5.52858 23.4714C3.14921 21.092 1.8125 17.8649 1.8125 14.5C1.8125 11.1351 3.14921 7.90795 5.52858 5.52858C7.90795 3.14921 11.1351 1.8125 14.5 1.8125C17.8649 1.8125 21.092 3.14921 23.4714 5.52858C25.8508 7.90795 27.1875 11.1351 27.1875 14.5C27.1875 17.8649 25.8508 21.092 23.4714 23.4714C21.092 25.8508 17.8649 27.1875 14.5 27.1875ZM14.5 29C18.3456 29 22.0338 27.4723 24.753 24.753C27.4723 22.0338 29 18.3456 29 14.5C29 10.6544 27.4723 6.96623 24.753 4.24695C22.0338 1.52767 18.3456 0 14.5 0C10.6544 0 6.96623 1.52767 4.24695 4.24695C1.52767 6.96623 0 10.6544 0 14.5C0 18.3456 1.52767 22.0338 4.24695 24.753C6.96623 27.4723 10.6544 29 14.5 29Z" fill="black"/>
<path d="M9.0625 11.7812C9.0625 11.0602 9.34894 10.3687 9.8588 9.8588C10.3687 9.34894 11.0602 9.0625 11.7812 9.0625H17.2188C17.9398 9.0625 18.6313 9.34894 19.1412 9.8588C19.6511 10.3687 19.9375 11.0602 19.9375 11.7812V17.2188C19.9375 17.9398 19.6511 18.6313 19.1412 19.1412C18.6313 19.6511 17.9398 19.9375 17.2188 19.9375H11.7812C11.0602 19.9375 10.3687 19.6511 9.8588 19.1412C9.34894 18.6313 9.0625 17.9398 9.0625 17.2188V11.7812Z" fill="black"/>
</svg>
