<svg width="46" height="46" viewBox="0 0 46 46" fill="none" xmlns="http://www.w3.org/2000/svg">
<circle cx="22.6914" cy="22.848" r="22.5117" fill="#FFA700"/>
<path d="M21.141 24.4926H14.0014C13.1471 24.4926 12.4453 23.7507 12.4453 22.8476C12.4453 21.9445 13.1471 21.2026 14.0014 21.2026H21.141V13.6551C21.141 12.7519 21.8427 12.0101 22.697 12.0101C23.5513 12.0101 24.2531 12.7519 24.2531 13.6551V21.2026H31.3927C32.247 21.2026 32.9488 21.9445 32.9488 22.8476C32.9488 23.7507 32.247 24.4926 31.3927 24.4926H24.2531V32.0402C24.2531 32.9433 23.5513 33.6852 22.697 33.6852C21.8427 33.6852 21.141 32.9433 21.141 32.0402V24.4926Z" fill="#4E4E4E"/>
</svg>
