<svg width="46" height="46" viewBox="0 0 46 46" fill="none" xmlns="http://www.w3.org/2000/svg">
<circle cx="22.5352" cy="22.5196" r="22.5117" fill="#FFA700"/>
<path d="M19.757 26.6867H15.5898C13.2284 26.6867 11.4227 24.881 11.4227 22.5196C11.4227 20.1582 13.2284 18.3524 15.5898 18.3524H19.757C20.5905 18.3524 21.1461 17.7967 21.1461 16.9633C21.1461 16.1299 20.5905 15.5742 19.757 15.5742H15.5898C11.7005 15.5742 8.64453 18.6302 8.64453 22.5196C8.64453 26.4089 11.7005 29.4649 15.5898 29.4649H19.757C20.5905 29.4649 21.1461 28.9092 21.1461 28.0758C21.1461 27.2424 20.5905 26.6867 19.757 26.6867ZM29.4805 15.5742H25.3133C24.4798 15.5742 23.9242 16.1299 23.9242 16.9633C23.9242 17.7967 24.4798 18.3524 25.3133 18.3524H29.4805C31.8419 18.3524 33.6477 20.1582 33.6477 22.5196C33.6477 24.881 31.8419 26.6867 29.4805 26.6867H25.3133C24.4798 26.6867 23.9242 27.2424 23.9242 28.0758C23.9242 28.9092 24.4798 29.4649 25.3133 29.4649H29.4805C33.3698 29.4649 36.4258 26.4089 36.4258 22.5196C36.4258 18.6302 33.3698 15.5742 29.4805 15.5742ZM16.9789 22.5196C16.9789 23.353 17.5345 23.9086 18.368 23.9086H26.7023C27.5358 23.9086 28.0914 23.353 28.0914 22.5196C28.0914 21.6861 27.5358 21.1305 26.7023 21.1305H18.368C17.5345 21.1305 16.9789 21.6861 16.9789 22.5196Z" fill="#4E4E4E"/>
</svg>
