<svg width="46" height="46" viewBox="0 0 46 46" fill="none" xmlns="http://www.w3.org/2000/svg">
<circle cx="22.5391" cy="22.8516" r="22.5117" fill="#FFA700"/>
<path d="M22.5541 33.3516C19.3531 33.3516 16.8766 32.6286 15.1246 31.1826C13.3921 29.7366 12.3916 27.7266 12.1246 25.1526C12.0691 24.6426 12.0391 23.8746 12.0391 22.8516C12.0391 21.8106 12.0691 21.0711 12.1246 20.6301C12.2956 19.0431 12.7921 17.6241 13.6096 16.3716C14.4301 15.1206 15.5731 14.1411 17.0386 13.4361C18.5236 12.7116 20.2861 12.3516 22.3246 12.3516C29.0491 12.3516 32.5996 15.1116 32.9821 20.6301C33.0196 21.2646 33.0391 21.7671 33.0391 22.1376C33.0391 22.8606 33.0196 23.4876 32.9821 24.0156C32.9071 25.2846 32.4871 26.2641 31.7251 26.9511C30.9631 27.6381 30.0001 27.9831 28.8391 27.9831C28.0201 27.9831 27.3241 27.8331 26.7541 27.5331C26.2006 27.2331 25.7911 26.9076 25.5241 26.5551C25.1848 27.0452 24.747 27.459 24.2386 27.7701C23.7061 28.0881 22.9156 28.2471 21.8686 28.2471C20.4391 28.2471 19.3051 27.7716 18.4681 26.8191C17.6491 25.8666 17.2381 24.5436 17.2381 22.8516C17.2381 21.1596 17.6491 19.8366 18.4681 18.8841C19.2871 17.9151 20.4016 17.4291 21.8101 17.4291C23.0491 17.4291 24.0106 17.8446 24.6961 18.6741V18.2766C24.6961 18.0816 24.7636 17.9316 24.8956 17.8266C25.0271 17.7035 25.2015 17.6368 25.3816 17.6406H26.5246C26.7046 17.6368 26.879 17.7035 27.0106 17.8266C27.0742 17.8829 27.125 17.9522 27.1594 18.0298C27.1938 18.1075 27.2111 18.1917 27.2101 18.2766V23.7771C27.2101 24.4296 27.3526 24.9231 27.6391 25.2591C27.9436 25.5936 28.3441 25.7616 28.8391 25.7616C29.4481 25.7616 29.8681 25.5666 30.0961 25.1796C30.3436 24.7746 30.4771 24.3066 30.4966 23.7771C30.5341 23.2476 30.5536 22.7016 30.5536 22.1376C30.5536 21.8556 30.5341 21.3966 30.4966 20.7621C30.3436 18.6471 29.6386 17.0871 28.3816 16.0821C27.1441 15.0576 25.1251 14.5461 22.3246 14.5461C19.9996 14.5461 18.1921 15.0936 16.8961 16.1871C15.6211 17.2791 14.8576 18.8046 14.6101 20.7621C14.5531 21.2031 14.5246 21.8991 14.5246 22.8516C14.5246 23.7861 14.5546 24.5091 14.6101 25.0206C14.8396 26.9946 15.6106 28.5111 16.9246 29.5701C18.2581 30.6276 20.1346 31.1571 22.5541 31.1571C23.7346 31.1571 24.7051 31.0776 25.4671 30.9171C26.2291 30.7596 26.8111 30.5751 27.2101 30.3621C27.6106 30.1686 28.0291 29.9121 28.4671 29.5971C28.6396 29.4726 28.7731 29.3841 28.8676 29.3316C29.0032 29.2745 29.1495 29.2473 29.2966 29.2521H30.8671C31.0469 29.2479 31.2213 29.3141 31.3531 29.4366C31.4881 29.5431 31.5526 29.6841 31.5526 29.8596C31.5526 29.9496 31.4956 30.0801 31.3816 30.2571C29.3821 32.3196 26.4391 33.3516 22.5541 33.3516ZM22.2106 26.0256C23.0866 26.0256 23.7151 25.7616 24.0961 25.2306C24.4966 24.7026 24.6961 23.9106 24.6961 22.8516C24.6961 21.7941 24.4966 21.0006 24.0961 20.4711C23.7151 19.9251 23.0866 19.6521 22.2106 19.6521C20.5531 19.6521 19.7251 20.7171 19.7251 22.8516C19.7251 23.8221 19.9351 24.5976 20.3536 25.1796C20.7736 25.7436 21.3916 26.0256 22.2106 26.0256Z" fill="#4E4E4E"/>
</svg>
