<svg width="46" height="46" viewBox="0 0 46 46" fill="none" xmlns="http://www.w3.org/2000/svg">
<circle cx="22.5391" cy="23.1884" r="22.5117" fill="#FFA700"/>
<g clip-path="url(#clip0_1525_5586)">
<path d="M12.4427 30.3551C13.7314 30.3551 14.776 29.3104 14.776 28.0218C14.776 26.7331 13.7314 25.6884 12.4427 25.6884C11.154 25.6884 10.1094 26.7331 10.1094 28.0218C10.1094 29.3104 11.154 30.3551 12.4427 30.3551Z" fill="#3E3E3E"/>
<path d="M13.901 31.5218H10.9844C10.2885 31.5227 9.62133 31.7996 9.12924 32.2916C8.63716 32.7837 8.3603 33.4509 8.35938 34.1468V35.3134C8.35938 35.7964 8.75138 36.1884 9.23438 36.1884H15.651C15.8831 36.1884 16.1057 36.0963 16.2698 35.9322C16.4339 35.7681 16.526 35.5455 16.526 35.3134V34.1468C16.526 32.6989 15.3477 31.5218 13.901 31.5218Z" fill="#3E3E3E"/>
<path d="M32.2747 30.3551C33.5634 30.3551 34.6081 29.3104 34.6081 28.0218C34.6081 26.7331 33.5634 25.6884 32.2747 25.6884C30.9861 25.6884 29.9414 26.7331 29.9414 28.0218C29.9414 29.3104 30.9861 30.3551 32.2747 30.3551Z" fill="#3E3E3E"/>
<path d="M33.7331 31.5218H30.8164C30.1205 31.5227 29.4534 31.7996 28.9613 32.2916C28.4692 32.7837 28.1923 33.4509 28.1914 34.1468V35.3134C28.1914 35.7964 28.5834 36.1884 29.0664 36.1884H35.4831C35.7151 36.1884 35.9377 36.0963 36.1018 35.9322C36.2659 35.7681 36.3581 35.5455 36.3581 35.3134V34.1468C36.3581 32.6989 35.1797 31.5218 33.7331 31.5218Z" fill="#3E3E3E"/>
<path d="M22.3607 30.3551C23.6493 30.3551 24.694 29.3104 24.694 28.0218C24.694 26.7331 23.6493 25.6884 22.3607 25.6884C21.072 25.6884 20.0273 26.7331 20.0273 28.0218C20.0273 29.3104 21.072 30.3551 22.3607 30.3551Z" fill="#3E3E3E"/>
<path d="M23.819 31.5218H20.9023C20.2064 31.5227 19.5393 31.7996 19.0472 32.2916C18.5551 32.7837 18.2783 33.4509 18.2773 34.1468V35.3134C18.2773 35.7964 18.6693 36.1884 19.1523 36.1884H25.569C25.8011 36.1884 26.0236 36.0963 26.1877 35.9322C26.3518 35.7681 26.444 35.5455 26.444 35.3134V34.1468C26.444 32.6989 25.2657 31.5218 23.819 31.5218Z" fill="#3E3E3E"/>
<path d="M10.4023 23.3551H14.4857C14.7177 23.3551 14.9403 23.2629 15.1044 23.0988C15.2685 22.9347 15.3607 22.7122 15.3607 22.4801V16.0634C15.3607 15.8314 15.2685 15.6088 15.1044 15.4447C14.9403 15.2806 14.7177 15.1884 14.4857 15.1884H10.4023C10.1703 15.1884 9.94772 15.2806 9.78363 15.4447C9.61953 15.6088 9.52734 15.8314 9.52734 16.0634V22.4801C9.52734 22.9631 9.91934 23.3551 10.4023 23.3551Z" fill="#515151"/>
<path d="M20.3164 23.3551H24.3997C24.6318 23.3551 24.8544 23.2629 25.0185 23.0988C25.1826 22.9347 25.2747 22.7122 25.2747 22.4801V12.5634C25.2747 12.3314 25.1826 12.1088 25.0185 11.9447C24.8544 11.7806 24.6318 11.6884 24.3997 11.6884H20.3164C20.0843 11.6884 19.8618 11.7806 19.6977 11.9447C19.5336 12.1088 19.4414 12.3314 19.4414 12.5634V22.4801C19.4414 22.9631 19.8334 23.3551 20.3164 23.3551Z" fill="#595959"/>
<path d="M30.2344 23.3551H34.3177C34.5498 23.3551 34.7723 23.2629 34.9364 23.0988C35.1005 22.9347 35.1927 22.7122 35.1927 22.4801V9.06345C35.1927 8.83138 35.1005 8.60882 34.9364 8.44473C34.7723 8.28063 34.5498 8.18845 34.3177 8.18845H30.2344C30.0023 8.18845 29.7798 8.28063 29.6157 8.44473C29.4516 8.60882 29.3594 8.83138 29.3594 9.06345V22.4801C29.3594 22.9631 29.7514 23.3551 30.2344 23.3551Z" fill="#6A6A6A"/>
</g>
<defs>
<clipPath id="clip0_1525_5586">
<rect width="28" height="28" fill="white" transform="translate(8.35938 8.18845)"/>
</clipPath>
</defs>
</svg>
