<svg width="46" height="46" viewBox="0 0 46 46" fill="none" xmlns="http://www.w3.org/2000/svg">
<circle cx="22.5391" cy="23.1836" r="22.5117" fill="#FFA700"/>
<path d="M29.9228 17.5336C29.8428 17.2333 29.6801 16.9136 29.5598 16.6336C28.1201 13.1736 24.9743 11.9336 22.4343 11.9336C19.0341 11.9336 15.2891 14.2136 14.7891 18.9133V19.8736C14.7891 19.9136 14.8028 20.2736 14.8226 20.4536C15.1028 22.6933 16.8701 25.0736 18.1901 27.3133C19.6101 29.7131 21.0836 32.0736 22.5438 34.4331C23.4438 32.8933 24.3408 31.3333 25.2206 29.8333C25.4603 29.3931 25.7383 28.9531 25.9783 28.5331C26.1383 28.2533 26.4438 27.9736 26.5836 27.7133C28.0033 25.1141 30.2891 22.4936 30.2891 19.9136V18.8536C30.2891 18.5738 29.9423 17.5938 29.9228 17.5336ZM22.4966 22.3536C21.4971 22.3536 20.4031 21.8538 19.8631 20.4736C19.7826 20.2538 19.7891 19.8136 19.7891 19.7733V19.1533C19.7891 17.3938 21.2831 16.5936 22.5828 16.5936C24.1828 16.5936 25.4206 17.8738 25.4206 19.4738C25.4206 21.0738 24.0966 22.3536 22.4966 22.3536Z" fill="#4E4E4E"/>
</svg>
