<svg width="46" height="46" viewBox="0 0 46 46" fill="none" xmlns="http://www.w3.org/2000/svg">
<circle cx="22.5391" cy="22.5159" r="22.5117" fill="#FFA700"/>
<path d="M14.7444 23.822C16.6614 23.822 18.2154 20.9614 18.2154 17.4326C18.2154 13.9038 16.6614 11.0432 14.7444 11.0432C12.8275 11.0432 11.2734 13.9038 11.2734 17.4326C11.2734 20.9614 12.8275 23.822 14.7444 23.822Z" fill="#4E4E4E"/>
<path d="M30.6507 23.822C32.5677 23.822 34.1217 20.9614 34.1217 17.4326C34.1217 13.9038 32.5677 11.0432 30.6507 11.0432C28.7337 11.0432 27.1797 13.9038 27.1797 17.4326C27.1797 20.9614 28.7337 23.822 30.6507 23.822Z" fill="#4E4E4E"/>
<path d="M14.7383 31.6194C20.4208 37.7762 24.0551 37.6588 30.6466 31.6194" stroke="#4E4E4E" stroke-width="2" stroke-linecap="round"/>
</svg>
