<svg width="46" height="46" viewBox="0 0 46 46" fill="none" xmlns="http://www.w3.org/2000/svg">
<circle cx="23.3555" cy="23.1797" r="22.5117" fill="#FFA700"/>
<path d="M32.9431 11.8457H13.7661C13.2305 11.8457 12.7645 12.0236 12.4315 12.3536C12.0983 12.6837 11.918 13.1466 11.918 13.6791C11.918 14.2117 12.0983 14.6746 12.4315 15.0047C12.7645 15.3346 13.2305 15.5126 13.7661 15.5126H21.5065V32.6802C21.5065 33.2128 21.6868 33.6757 22.02 34.0058C22.353 34.3358 22.819 34.5137 23.3546 34.5137C23.8901 34.5137 24.3562 34.3358 24.6892 34.0058C25.0224 33.6757 25.2027 33.2128 25.2027 32.6802V15.5126H32.9431C33.4787 15.5126 33.9447 15.3346 34.2777 15.0047C34.6109 14.6746 34.7912 14.2117 34.7912 13.6791C34.7912 13.1466 34.6109 12.6837 34.2777 12.3536C33.9447 12.0236 33.4787 11.8457 32.9431 11.8457Z" fill="#4E4E4E" stroke="#4E4E4E" stroke-width="0.5"/>
</svg>
