<svg width="262" height="167" viewBox="0 0 262 167" fill="none" xmlns="http://www.w3.org/2000/svg">
<g clip-path="url(#clip0_1084_25445)">
<path fill-rule="evenodd" clip-rule="evenodd" d="M241.597 52.9029C241.771 53.0952 241.61 53.4409 241.391 53.354C241.363 53.3411 241.339 53.3263 241.315 53.3004L241.2 53.1747L241.088 53.0471L240.975 52.9195L240.865 52.7901L240.756 52.6607L240.68 52.5683C240.621 52.498 240.603 52.3963 240.625 52.3002C240.673 52.1097 240.863 52.0506 240.979 52.1874L241.055 52.2798L241.16 52.4074L241.267 52.5331L241.376 52.657L241.485 52.7809L241.595 52.9029H241.597ZM253.931 19.0226C254.154 19.0152 254.239 19.3886 254.033 19.5255C254.003 19.5421 253.976 19.5532 253.942 19.5532L253.822 19.5569L253.606 19.5661L253.392 19.5772L253.18 19.5902L253.092 19.5957C252.996 19.6013 252.907 19.531 252.876 19.4164C252.83 19.2518 252.926 19.0743 253.066 19.0651L253.158 19.0595L253.374 19.0466L253.592 19.0355L253.809 19.0263L253.929 19.0226H253.931ZM251.78 19.1927C251.877 19.1797 251.968 19.2481 252.003 19.3628C252.051 19.5236 251.966 19.7029 251.826 19.7196L251.739 19.7307L251.538 19.7584L251.339 19.788L251.141 19.8194L250.984 19.8472C250.754 19.8841 250.645 19.5088 250.846 19.3554C250.872 19.3369 250.894 19.3276 250.923 19.3221L251.084 19.2944L251.285 19.2611L251.488 19.2296L251.693 19.2001L251.78 19.189V19.1927ZM249.645 19.5939C249.857 19.5384 249.993 19.8712 249.829 20.0524C249.801 20.0838 249.768 20.1042 249.731 20.1134L249.604 20.1448L249.418 20.1929L249.233 20.2428L249.05 20.2946L248.901 20.339C248.676 20.4055 248.536 20.045 248.724 19.8656C248.748 19.8453 248.772 19.8305 248.799 19.8231L248.951 19.7769L249.137 19.7233L249.325 19.6715L249.515 19.6216L249.643 19.5902L249.645 19.5939ZM247.55 20.2521C247.598 20.2354 247.641 20.2354 247.687 20.2558C247.879 20.3464 247.871 20.6791 247.677 20.7586L247.465 20.8418L247.296 20.9103L247.128 20.9805L246.961 21.0526L246.877 21.0914C246.786 21.1321 246.687 21.0951 246.631 20.999C246.546 20.8566 246.596 20.6533 246.731 20.5922L246.819 20.5534L246.989 20.4795L247.161 20.4074L247.334 20.3371L247.55 20.2521ZM245.524 21.1913C245.613 21.1432 245.718 21.1746 245.779 21.2689C245.865 21.4076 245.827 21.6036 245.697 21.6757L245.522 21.7737L245.369 21.8606L245.218 21.9493L245.068 22.0399L244.934 22.1231C244.716 22.2544 244.513 21.9123 244.69 21.6923C244.705 21.6738 244.721 21.6609 244.74 21.6479L244.878 21.5629L245.031 21.4705L245.186 21.3799L245.343 21.2893L245.522 21.1894L245.524 21.1913ZM243.601 22.4282C243.795 22.284 244.015 22.5631 243.891 22.7998C243.872 22.8331 243.85 22.8608 243.823 22.8811L243.773 22.9181L243.636 23.0216L243.502 23.127L243.367 23.2343L243.234 23.3434L243.11 23.4469C242.937 23.5948 242.712 23.3692 242.793 23.127C242.808 23.079 242.837 23.0364 242.87 23.0087L242.998 22.9033L243.134 22.7924L243.273 22.6833L243.411 22.5742L243.551 22.467L243.601 22.43V22.4282ZM241.822 23.9664C241.885 23.9036 241.963 23.8906 242.038 23.9257C242.19 24.0034 242.219 24.2474 242.094 24.3769L241.977 24.4933L241.859 24.6154L241.743 24.7374L241.627 24.8613L241.512 24.9851L241.45 25.0554C241.374 25.1404 241.261 25.1478 241.18 25.0739C241.071 24.9759 241.062 24.7744 241.162 24.6634L241.228 24.5895L241.346 24.4601L241.466 24.3325L241.586 24.2068L241.708 24.081L241.824 23.9646L241.822 23.9664ZM240.232 25.7912C240.366 25.6193 240.597 25.7284 240.603 25.9687C240.603 26.039 240.584 26.1019 240.545 26.1536L240.442 26.2923L240.342 26.4291L240.243 26.5659L240.145 26.7046L240.049 26.8432L239.986 26.9375C239.84 27.1538 239.558 26.9782 239.615 26.6972C239.625 26.6602 239.637 26.6288 239.658 26.5973L239.724 26.4994L239.824 26.357L239.924 26.2146L240.025 26.0741L240.128 25.9336L240.235 25.7912H240.232ZM238.864 27.8805C238.901 27.8157 238.958 27.7732 239.021 27.7658C239.202 27.7473 239.318 27.9969 239.217 28.18L239.16 28.2798L239.078 28.4277L238.997 28.5775L238.918 28.7272L238.84 28.8788L238.752 29.0526C238.645 29.2726 238.373 29.1931 238.355 28.9361C238.353 28.8788 238.361 28.8271 238.385 28.7771L238.477 28.5941L238.556 28.4388L238.637 28.2854L238.72 28.1319L238.805 27.9784L238.862 27.8786L238.864 27.8805ZM237.753 30.1897C237.86 29.9308 238.176 30.0418 238.158 30.332C238.154 30.3672 238.148 30.3949 238.135 30.4263L238.071 30.5853L238.008 30.7443L237.947 30.9033L237.888 31.0642L237.829 31.225L237.777 31.3729C237.702 31.5948 237.438 31.58 237.377 31.3526C237.359 31.2916 237.364 31.2232 237.383 31.1622L237.436 31.0087L237.495 30.8442L237.556 30.6796L237.619 30.5151L237.683 30.3524L237.75 30.1878L237.753 30.1897ZM236.919 32.6727C236.947 32.5655 237.03 32.4915 237.122 32.4915C237.27 32.4915 237.371 32.6671 237.325 32.8409L237.275 33.0295L237.233 33.1959L237.192 33.3623L237.152 33.5306L237.113 33.6988L237.082 33.8412C237.058 33.9503 236.98 34.0298 236.888 34.0372C236.742 34.0464 236.63 33.8781 236.668 33.7025L236.702 33.5546L236.742 33.3827L236.783 33.2107L236.825 33.0388L236.87 32.8668L236.921 32.6727H236.919ZM236.375 35.274C236.388 35.189 236.432 35.1206 236.495 35.0818C236.652 34.9893 236.829 35.1576 236.796 35.3702L236.766 35.5662L236.742 35.7381L236.72 35.91L236.7 36.082L236.679 36.2539L236.663 36.4037C236.633 36.6829 236.318 36.7235 236.246 36.4462C236.238 36.4092 236.235 36.3741 236.238 36.3371L236.255 36.1818L236.275 36.0043L236.297 35.8268L236.32 35.6494L236.344 35.4737L236.373 35.2722L236.375 35.274ZM236.126 37.9438C236.131 37.8255 236.196 37.7275 236.288 37.6979C236.427 37.6554 236.561 37.7903 236.554 37.9678L236.548 38.1564L236.543 38.3302L236.539 38.504V38.6778L236.536 38.8516V39.0143C236.536 39.299 236.224 39.3896 236.124 39.1197C236.113 39.0882 236.107 39.0531 236.107 39.0198V38.8516V38.6741V38.4966L236.113 38.3191L236.117 38.1416L236.124 37.9475L236.126 37.9438ZM236.174 40.6302C236.157 40.3732 236.41 40.2382 236.55 40.4342C236.58 40.4786 236.596 40.5248 236.6 40.5821L236.613 40.7559L236.628 40.9278L236.643 41.0998L236.659 41.2717L236.678 41.4437L236.698 41.6175C236.709 41.7007 236.687 41.7857 236.639 41.8449C236.515 41.9983 236.303 41.9133 236.275 41.6988L236.255 41.5158L236.237 41.3383L236.22 41.1608L236.203 40.9833L236.189 40.8058L236.176 40.6265L236.174 40.6302ZM236.517 43.287C236.464 43.0097 236.753 42.8322 236.899 43.0707C236.916 43.1003 236.927 43.1298 236.932 43.1631L236.964 43.324L236.997 43.4922L237.032 43.6605L237.067 43.8287L237.104 43.9969L237.144 44.1763C237.209 44.4462 236.932 44.6422 236.777 44.4259C236.757 44.3963 236.742 44.3649 236.733 44.3279L236.691 44.1393L236.652 43.9674L236.615 43.7936L236.58 43.6198L236.545 43.446L236.515 43.2851L236.517 43.287ZM237.15 45.8569C237.126 45.7774 237.132 45.6924 237.168 45.6184C237.263 45.4354 237.486 45.4612 237.549 45.6628L237.595 45.8144L237.646 45.9771L237.7 46.1379L237.753 46.2988L237.809 46.4596L237.87 46.6297C237.964 46.883 237.717 47.1252 237.536 46.9422C237.512 46.9163 237.493 46.8886 237.48 46.8516L237.416 46.6722L237.359 46.5077L237.303 46.3413L237.248 46.1749L237.194 46.0085L237.148 45.8569H237.15ZM238.065 48.2955C237.951 48.0423 238.202 47.776 238.386 47.9591C238.407 47.9794 238.425 48.0053 238.438 48.0349L238.508 48.1883L238.578 48.3418L238.65 48.4934L238.724 48.645L238.798 48.7947L238.87 48.9371C238.909 49.0111 238.914 49.1072 238.885 49.1867C238.814 49.379 238.6 49.3993 238.508 49.22L238.434 49.0739L238.359 48.9186L238.283 48.7633L238.209 48.6062L238.137 48.449L238.069 48.2955H238.065ZM239.248 50.5475C239.106 50.309 239.331 50.0094 239.532 50.161C239.554 50.1795 239.573 50.198 239.59 50.2258L239.697 50.3977L239.785 50.5382L239.876 50.6787L239.968 50.8174L240.06 50.956L240.119 51.0411C240.178 51.1261 240.189 51.2556 240.139 51.3517C240.064 51.5052 239.888 51.5237 239.794 51.3868L239.733 51.2981L239.637 51.1557L239.543 51.0134L239.451 50.8692L239.359 50.7249L239.25 50.5475H239.248Z" fill="#A9A7D3"/>
<path fill-rule="evenodd" clip-rule="evenodd" d="M249.514 20.5224L256.947 18.3278L249.794 17.812L249.514 20.5224Z" fill="#4512B1"/>
<path fill-rule="evenodd" clip-rule="evenodd" d="M256.947 18.3276L249.184 16.3271L249.794 17.8118L256.947 18.3276Z" fill="#631AEC"/>
<path fill-rule="evenodd" clip-rule="evenodd" d="M250.271 19.0505L251.615 22.3896L256.946 18.3276L250.271 19.0505Z" fill="#631AEC"/>
<path fill-rule="evenodd" clip-rule="evenodd" d="M249.514 20.522L250.272 19.0503L250.767 20.2779L249.514 20.522Z" fill="#221E54"/>
<path fill-rule="evenodd" clip-rule="evenodd" d="M62.9726 54.6094C62.8767 54.6685 62.7586 54.6667 62.6608 54.6112C62.4559 54.4929 62.4541 54.2008 62.6571 54.0769L62.8287 53.9734L62.9966 53.8698L63.1627 53.7644L63.3269 53.6591L63.4875 53.5537L63.6831 53.4205C63.9322 53.2486 64.2588 53.5111 64.1425 53.794C64.1204 53.8495 64.0798 53.8994 64.03 53.9327L63.8288 54.0676L63.6628 54.1767L63.4948 54.2858L63.3232 54.3931L63.1498 54.5003L62.9745 54.6075L62.9726 54.6094ZM50.0942 16.8076C50.0038 16.8427 49.9023 16.8335 49.8211 16.7836C49.6034 16.6504 49.6329 16.3232 49.871 16.2326L49.9946 16.1845L50.1201 16.1402L50.2456 16.0976L50.371 16.057L50.4264 16.0403C50.7216 15.9516 50.9541 16.3084 50.7401 16.5469C50.7013 16.5876 50.6571 16.6172 50.6017 16.632L50.5556 16.6468L50.4393 16.6837L50.3249 16.7226L50.2105 16.7632L50.0961 16.8076H50.0942ZM52.3547 16.3029C52.0355 16.3269 51.8897 15.9035 52.1776 15.726C52.2182 15.702 52.2606 15.689 52.3086 15.6853L52.4618 15.6743L52.5965 15.6669L52.7312 15.6613L52.8659 15.6576H53.0024L53.1371 15.6558H53.2737L53.4102 15.6613L53.5856 15.6687C53.6501 15.6724 53.711 15.6964 53.7627 15.7371C53.9952 15.9275 53.8494 16.301 53.5505 16.2862L53.3918 16.2807L53.2626 16.277H53.1353H53.008H52.8806L52.7533 16.2825L52.6278 16.2881L52.5024 16.2955L52.3584 16.3047L52.3547 16.3029ZM55.3386 16.5192C55.0175 16.4508 55.0064 15.9867 55.3423 15.9128C55.3829 15.9054 55.4253 15.9054 55.4641 15.9128L55.6135 15.9442L55.7519 15.9756L55.8903 16.0089L56.0287 16.044L56.1671 16.0792L56.3055 16.1161L56.4439 16.155L56.5823 16.1956L56.6857 16.2271C56.7779 16.2548 56.8536 16.3269 56.8868 16.4175C56.9717 16.6578 56.7502 16.8908 56.5067 16.8187L56.4089 16.7891L56.276 16.7503L56.1431 16.7133L56.0103 16.6782L55.8774 16.6431L55.7446 16.6098L55.6117 16.5783L55.4788 16.5488L55.3349 16.5173L55.3386 16.5192ZM58.2136 17.4455C57.9054 17.3086 58.0051 16.8427 58.352 16.852C58.3907 16.8538 58.4239 16.8631 58.4608 16.8779L58.6491 16.9611L58.7856 17.0221L58.9222 17.0849L59.0569 17.1478L59.1916 17.2125L59.3263 17.2791L59.461 17.3456L59.5976 17.4159C59.8891 17.5693 59.771 18.0168 59.4315 17.9983C59.389 17.9946 59.3484 17.9835 59.3115 17.9631L59.1824 17.8966L59.0513 17.8319L58.9203 17.7672L58.7893 17.7043L58.6583 17.6433L58.5273 17.5823L58.3963 17.5231L58.2117 17.4418L58.2136 17.4455ZM58.4608 16.8779L59.3097 17.965L59.5976 17.4177L58.4608 16.8797V16.8779ZM60.8893 18.8783C60.6328 18.7156 60.7509 18.3089 61.0553 18.3089C61.1181 18.3089 61.1734 18.3255 61.2251 18.3588L61.4226 18.4864L61.5499 18.5714L61.6772 18.6565L61.8027 18.7415L61.9282 18.8284L62.0518 18.9171L62.2603 19.0669C62.4652 19.2185 62.4116 19.5328 62.1699 19.6123C62.0776 19.6419 61.9743 19.6253 61.895 19.5661L61.6938 19.42L61.4521 19.2499L61.3303 19.1667L61.2085 19.0835L61.0849 19.0022L60.8911 18.8765L60.8893 18.8783ZM63.3177 20.7068C63.0778 20.4905 63.2845 20.0967 63.6019 20.1762C63.6498 20.1892 63.6904 20.2113 63.7273 20.2446L63.9432 20.4369L64.054 20.5386L64.1647 20.6403L64.2736 20.7438L64.3824 20.8474L64.4895 20.9509L64.6426 21.1006C64.8696 21.3373 64.6371 21.7108 64.3271 21.6128C64.2772 21.5961 64.244 21.574 64.2053 21.537L64.0595 21.3928L63.9543 21.2929L63.7421 21.0933L63.6351 20.9934C63.5281 20.8973 63.421 20.8011 63.314 20.7068H63.3177ZM65.4379 22.8829C65.4029 22.8386 65.3826 22.7924 65.3734 22.7369C65.3291 22.4189 65.7166 22.2506 65.9177 22.491L65.9897 22.5797L66.0801 22.6925L66.1705 22.8053L66.2591 22.9181L66.3458 23.0327L66.4326 23.1473L66.5174 23.262L66.6023 23.3766L66.6817 23.4875C66.8791 23.7741 66.5341 24.118 66.248 23.9165C66.2204 23.8961 66.1982 23.8739 66.1779 23.8444L66.1023 23.7371L66.0211 23.6262L65.938 23.5153L65.855 23.4043L65.7701 23.2952L65.6852 23.1862L65.5985 23.0771L65.5099 22.968L65.4361 22.8793L65.4379 22.8829ZM67.1301 25.39C67.0673 25.2717 67.0895 25.1238 67.1836 25.0295C67.3312 24.8816 67.5785 24.9185 67.6763 25.1034L67.7612 25.2661L67.8221 25.3863L67.8811 25.5065L67.9383 25.6267L67.9937 25.7468L68.0472 25.867L68.1007 25.9872L68.1524 26.1074L68.2114 26.2553C68.2594 26.3773 68.2243 26.516 68.1247 26.6029C67.9623 26.7415 67.7132 26.6787 67.6357 26.479L67.5822 26.3459L67.5342 26.2312L67.4844 26.1166L67.4327 26.002L67.3792 25.8873L67.3257 25.7727L67.2703 25.6581L67.2131 25.5435L67.1319 25.3863L67.1301 25.39ZM68.1358 28.1984C68.0823 27.8619 68.527 27.6974 68.706 27.9895C68.7263 28.0265 68.7373 28.0542 68.7447 28.0967L68.7576 28.1707L68.7779 28.2909L68.7945 28.411L68.8093 28.5312L68.8222 28.6514L68.8333 28.7716L68.8425 28.8917L68.8499 29.0119L68.8554 29.1321L68.8591 29.2523V29.3798C68.8518 29.7311 68.3609 29.8032 68.2557 29.463C68.2465 29.4316 68.2428 29.4057 68.2428 29.3724V29.2634L68.2391 29.1543L68.2336 29.0452L68.2262 28.9361L68.217 28.8252L68.2059 28.7142L68.193 28.6033L68.1782 28.4924L68.1616 28.3815L68.1432 28.2705L68.1302 28.1966L68.1358 28.1984ZM68.7447 28.0967L68.2446 29.3743L68.8628 29.3835L68.7447 28.0967ZM67.9845 31.1085C68.0177 31.0068 68.1044 30.9292 68.2077 30.9051C68.4439 30.8515 68.6451 31.0734 68.5713 31.3045L68.5547 31.3581L68.5159 31.4709L68.4753 31.5837L68.431 31.6946L68.3849 31.8055L68.3369 31.9165L68.2852 32.0256L68.2317 32.1346L68.1764 32.2419L68.1173 32.3491L68.0564 32.4563L68.0343 32.4933C67.9863 32.5747 67.8996 32.6283 67.8073 32.6394C67.5508 32.6671 67.3737 32.3916 67.5065 32.1716L67.5766 32.0496L67.6283 31.9535L67.6781 31.8573L67.7261 31.7593L67.7722 31.6613L67.8147 31.5633L67.8553 31.4635L67.894 31.3637L67.9309 31.2638L67.966 31.164L67.9826 31.1104L67.9845 31.1085ZM66.6079 33.4529C66.8053 33.4584 66.9806 33.6618 66.8847 33.8874C66.8681 33.928 66.8404 33.9632 66.809 33.9927L66.7389 34.0575L66.6355 34.1499L66.5285 34.2405L66.4196 34.3311L66.3071 34.4198L66.1927 34.5086L66.0746 34.5955L65.9546 34.6824L65.8033 34.7859C65.5062 34.9745 65.1759 34.6084 65.3955 34.3311C65.4158 34.307 65.4379 34.2867 65.4638 34.2682L65.5985 34.1758L65.711 34.0944L65.8199 34.0131L65.9269 33.9317L66.0303 33.8485L66.1318 33.7653L66.2277 33.684C66.2167 33.6803 66.2037 33.6766 66.1908 33.6729C66.1502 33.6562 66.1152 33.6322 66.0838 33.6008C65.807 33.3161 65.5099 33.0443 65.1981 32.7984C64.936 32.5895 65.1482 32.1661 65.4804 32.2604C65.5173 32.2715 65.5523 32.2899 65.5819 32.314C65.6372 32.3584 65.6926 32.4027 65.7461 32.4471L65.8937 32.5728C66.1133 32.7651 66.3218 32.9611 66.5248 33.17C66.606 33.255 66.6263 33.3586 66.6042 33.4529H66.6079ZM63.8842 35.139C64.1573 35.0133 64.4323 35.3239 64.2754 35.5809C64.244 35.6345 64.1942 35.6771 64.137 35.7029L63.9765 35.7732L63.8141 35.8416L63.648 35.91L63.4801 35.9766L63.3085 36.0413L63.135 36.106L62.9652 36.167C62.6811 36.2668 62.4356 35.9396 62.6146 35.6918C62.6534 35.6401 62.7014 35.6049 62.7604 35.5828L62.9246 35.5254L63.0926 35.4644L63.2568 35.4016L63.4173 35.3369L63.576 35.2722L63.731 35.2056L63.8842 35.1372V35.139ZM61.2528 35.6345C61.5296 35.8176 61.3654 36.2539 61.0277 36.1984C60.9852 36.191 60.952 36.1762 60.9151 36.1541C60.4981 35.886 60.2342 35.4755 60.0773 35.0133C59.9832 34.7249 60.308 34.4882 60.5553 34.6676C60.6051 34.7064 60.642 34.7545 60.6623 34.8155C60.7749 35.1446 60.9557 35.4441 61.2528 35.6345ZM60.6401 33.17C60.6032 33.2976 60.4962 33.3826 60.3652 33.3937C60.153 33.4104 59.9851 33.2033 60.046 32.9999C60.1659 32.5617 60.3947 32.1254 60.7084 31.7963C60.8007 31.7002 60.9446 31.6743 61.0664 31.7316C61.2546 31.824 61.2989 32.0736 61.155 32.2252C60.9096 32.4859 60.7361 32.828 60.642 33.17H60.6401ZM62.5888 31.6576C62.4522 31.6502 62.336 31.5578 62.3028 31.4228C62.2529 31.2232 62.4116 31.029 62.6165 31.0383H62.6792L62.753 31.0438L62.8268 31.0494L62.9006 31.0568L62.9745 31.066L63.0483 31.0771L63.1221 31.09L63.1959 31.1048L63.2697 31.1215L63.3435 31.1381L63.4192 31.1566L63.4948 31.1769L63.5705 31.1991L63.6462 31.2232L63.7218 31.249L63.7975 31.2749L63.9211 31.3211C64.2366 31.4524 64.1444 31.9183 63.8012 31.9183C63.7624 31.9183 63.7273 31.9109 63.6923 31.8961L63.5889 31.8573L63.5244 31.8351L63.4598 31.8129L63.3952 31.7926L63.3306 31.7741L63.266 31.7556L63.2033 31.739L63.1405 31.7242L63.0778 31.7113L63.0151 31.7002L62.9542 31.6891L62.8933 31.6798L62.8324 31.6724L62.7733 31.6669L62.7143 31.6613L62.6552 31.6576H62.5925H62.5888ZM67.2371 34.9874C67.0452 34.7083 67.3681 34.3699 67.6542 34.5474C67.6911 34.5714 67.7169 34.5955 67.7409 34.6306C67.9863 34.9745 68.2133 35.3276 68.4273 35.6918C68.586 35.9766 68.2705 36.2779 67.9955 36.1097C67.9512 36.0801 67.9217 36.0487 67.894 36.0043C67.6892 35.6567 67.4715 35.3184 67.2371 34.9893V34.9874ZM68.7115 37.6221C68.6469 37.4667 68.7152 37.2911 68.8684 37.219C69.0252 37.1469 69.2134 37.219 69.2799 37.3798C69.3371 37.513 69.3906 37.6461 69.4441 37.7811L69.4884 37.8957L69.5751 38.1268C69.6268 38.271 69.6784 38.4171 69.7264 38.5631C69.7689 38.6944 69.7209 38.8386 69.6065 38.9163C69.4367 39.0309 69.2024 38.9514 69.1396 38.7554C69.0935 38.6167 69.0455 38.4781 68.9957 38.3394C68.9422 38.1915 68.885 38.0454 68.8278 37.8994C68.7909 37.8069 68.7521 37.7145 68.7134 37.6221H68.7115ZM69.5936 40.5118C69.5751 40.412 69.6046 40.3121 69.6748 40.24C69.8482 40.0588 70.1545 40.1531 70.2007 40.399L70.2283 40.5506L70.2505 40.6764L70.2708 40.8021L70.2911 40.9297L70.3095 41.0572L70.3262 41.1848L70.3428 41.3124L70.3575 41.4399L70.3797 41.6526C70.4018 41.9521 70.0383 42.1092 69.8371 41.8818C69.7947 41.8282 69.7707 41.7764 69.7633 41.708L69.743 41.5065L69.7283 41.3845L69.7135 41.2625L69.6969 41.1404L69.6803 41.0184L69.6618 40.8982L69.6434 40.7781L69.6231 40.6579L69.5973 40.5118H69.5936ZM69.8002 43.5144C69.8076 43.4293 69.8408 43.3572 69.9054 43.2999C70.1158 43.1206 70.4295 43.2777 70.4166 43.5532L70.411 43.6586L70.4018 43.7917L70.3907 43.9248L70.3778 44.0579L70.3649 44.191L70.3501 44.3242L70.3335 44.4573L70.3151 44.5904L70.2948 44.7235L70.28 44.8141C70.2671 44.8973 70.2173 44.975 70.1472 45.0212C69.922 45.1709 69.6268 44.9824 69.6692 44.7143L69.6821 44.6292L69.7006 44.5035L69.7172 44.3778L69.732 44.2521L69.7467 44.1263L69.7596 44.0006L69.7707 43.8749L69.7799 43.7492L69.7892 43.6234L69.7947 43.5181L69.8002 43.5144ZM69.2503 46.4688C69.2909 46.3431 69.4109 46.2581 69.5419 46.2581C69.7541 46.2581 69.9017 46.4633 69.8353 46.6648L69.815 46.7258L69.7689 46.8589L69.7209 46.9921L69.6729 47.1252L69.6231 47.2583L69.5714 47.3914L69.5179 47.5245L69.4625 47.6577L69.4053 47.7908L69.3777 47.8518C69.3334 47.9498 69.2393 48.0182 69.1322 48.0311C68.8924 48.0589 68.7152 47.8148 68.8149 47.5948L68.8942 47.4155L68.9477 47.2897L68.9994 47.164L69.0492 47.0383L69.0972 46.9126L69.1433 46.7868L69.1876 46.6611L69.23 46.5354L69.2503 46.4744V46.4688ZM67.9531 49.1774C68.0306 49.0591 68.1764 49.011 68.3092 49.0554C68.5011 49.1219 68.5805 49.3494 68.4679 49.5195L68.4033 49.6193L68.3166 49.7487L68.2299 49.8763L68.1395 50.0039L68.0472 50.1314L67.9531 50.259L67.8571 50.3847L67.7298 50.5493C67.6412 50.6602 67.4955 50.6935 67.3681 50.6399C67.1799 50.5567 67.1209 50.3219 67.25 50.1629L67.3681 50.0094L67.4604 49.8892L67.549 49.7672L67.6357 49.6452L67.7206 49.5232L67.8036 49.4011L67.8848 49.2791L67.9494 49.1793L67.9531 49.1774ZM66.0358 51.5088C66.272 51.2814 66.6577 51.5292 66.5359 51.8472C66.5193 51.886 66.4953 51.923 66.4658 51.9526L66.2997 52.1134L66.1724 52.2336L66.0432 52.3538L65.9122 52.4721L65.7775 52.5904L65.6409 52.7087L65.5321 52.8012C65.2848 53.0083 64.9231 52.742 65.0523 52.4388C65.0726 52.3944 65.0984 52.3575 65.1372 52.326L65.2405 52.2391L65.3715 52.1263L65.5007 52.0117L65.628 51.8971L65.7535 51.7825L65.8753 51.6678L66.0358 51.5125V51.5088Z" fill="#A9A7D3"/>
<path fill-rule="evenodd" clip-rule="evenodd" d="M54.5221 16.6434L47.3789 16.4474L53.8467 14.6929L54.5221 16.6434Z" fill="#4512B1"/>
<path fill-rule="evenodd" clip-rule="evenodd" d="M47.3789 16.4473L54.177 13.478L53.8467 14.6927L47.3789 16.4473Z" fill="#631AEC"/>
<path fill-rule="evenodd" clip-rule="evenodd" d="M53.5994 15.7021L52.8853 18.4292L47.3789 16.4472L53.5994 15.7021Z" fill="#631AEC"/>
<path fill-rule="evenodd" clip-rule="evenodd" d="M54.5226 16.6432L53.5999 15.7021L53.3379 16.7042L54.5226 16.6432Z" fill="#221E54"/>
<path fill-rule="evenodd" clip-rule="evenodd" d="M16.1296 106.243C16.2145 106.269 16.2993 106.254 16.3713 106.204C16.5595 106.067 16.5115 105.775 16.2901 105.71L16.0465 105.636L15.8085 105.562L15.5741 105.489L15.3435 105.413L15.2364 105.376C14.9652 105.289 14.753 105.612 14.943 105.829C14.9763 105.864 15.015 105.89 15.0611 105.906L15.1682 105.941L15.4025 106.017L15.6406 106.093L15.8823 106.169L16.1277 106.245L16.1296 106.243ZM6.70375 71.231C6.63732 71.2236 6.58011 71.2366 6.52291 71.2717C6.30147 71.4122 6.37713 71.7505 6.63732 71.7838C6.98608 71.8226 7.34776 71.8984 7.68361 71.9946C7.97147 72.0722 8.16339 71.7136 7.94379 71.5157C7.91058 71.488 7.87736 71.4695 7.83677 71.4584C7.46771 71.3549 7.08388 71.2735 6.70375 71.231ZM9.43849 72.0815C9.21521 71.9743 8.97347 72.1832 9.05098 72.418C9.07497 72.4882 9.12294 72.5474 9.19122 72.5807C9.51599 72.7415 9.83154 72.919 10.1379 73.1113C10.2394 73.176 10.3741 73.1668 10.4663 73.0891C10.6103 72.9652 10.5937 72.7415 10.435 72.6398C10.112 72.4383 9.78172 72.2516 9.44034 72.0815H9.43849ZM11.8134 73.6401C11.6012 73.4644 11.2875 73.6734 11.3705 73.9414C11.389 73.9932 11.4148 74.0339 11.4573 74.069C11.7359 74.2983 12.0072 74.5479 12.2655 74.8012C12.4426 74.9731 12.7379 74.8492 12.7379 74.6015C12.7361 74.5257 12.7102 74.4573 12.6549 74.4037C12.3854 74.1393 12.1031 73.8804 11.8116 73.6401H11.8134ZM13.7953 75.672C13.6255 75.4594 13.2841 75.5888 13.2989 75.8624C13.3044 75.9216 13.321 75.9696 13.3579 76.0159C13.583 76.3024 13.7953 76.5945 13.9964 76.8996C14.0628 76.9994 14.1883 77.0475 14.3046 77.0142C14.4854 76.9643 14.5647 76.7499 14.4614 76.5927C14.251 76.2747 14.0315 75.9696 13.7953 75.6701V75.672ZM15.2881 78.0995C15.1645 77.8203 14.7474 77.9109 14.7548 78.2234C14.7567 78.2585 14.764 78.2881 14.777 78.3214L14.8397 78.4674L14.8932 78.5969L14.943 78.7263L14.991 78.8557L15.0353 78.9851L15.0777 79.1145L15.1165 79.244L15.1405 79.3309C15.1663 79.4252 15.2438 79.501 15.3379 79.5268C15.5465 79.5805 15.7328 79.39 15.6775 79.183L15.6498 79.0868L15.6073 78.9481L15.5612 78.8095L15.5132 78.6708L15.4634 78.5322L15.4099 78.3935L15.3545 78.2548L15.2881 78.0995ZM15.9653 80.8931C15.9543 80.6824 15.7291 80.5585 15.5464 80.6657C15.4597 80.7194 15.4044 80.8136 15.4099 80.9172L15.4173 81.0485L15.421 81.176V81.3036L15.4247 81.4312V81.5587L15.4191 81.6863L15.4136 81.8139L15.4062 81.9415L15.4025 81.9932C15.3785 82.3001 15.7956 82.4166 15.9321 82.1337C15.945 82.1023 15.9543 82.0727 15.9561 82.0394L15.9616 81.9784L15.969 81.8416L15.9746 81.7048L15.9783 81.568V81.4312V81.2944L15.9746 81.1575L15.969 81.0207L15.9616 80.8895L15.9653 80.8931ZM15.6775 83.7348C15.7457 83.4427 15.3785 83.2615 15.1903 83.4926C15.1645 83.5259 15.1479 83.5592 15.1386 83.5999L15.1054 83.7293L15.0722 83.8569L15.0371 83.9844L15.0002 84.112L14.9615 84.2396L14.9209 84.3672L14.8784 84.4947L14.8268 84.6445C14.7862 84.7591 14.8231 84.8867 14.919 84.9606C15.0685 85.0753 15.2863 85.0106 15.349 84.8331L15.4044 84.6722L15.4486 84.5409L15.4911 84.4078L15.5317 84.2747L15.5704 84.1416L15.6073 84.0085L15.6424 83.8754L15.6775 83.7404V83.7348ZM14.7013 86.399C14.7419 86.3158 14.7364 86.2197 14.6921 86.1402C14.5795 85.9461 14.2972 85.9572 14.1994 86.1587L14.0942 86.3806L14.0333 86.5063L13.9078 86.7559C13.8414 86.8853 13.775 87.0129 13.7067 87.1404C13.5627 87.4122 13.8986 87.6859 14.1366 87.4806C14.1625 87.4584 14.1791 87.4344 14.1975 87.4048C14.2677 87.2736 14.3359 87.1404 14.4042 87.0092L14.5334 86.7522L14.5961 86.6228L14.7031 86.3972L14.7013 86.399ZM13.3598 88.871C13.5092 88.6232 13.2269 88.3348 12.9723 88.492C12.9353 88.516 12.9058 88.5456 12.8837 88.5825C12.6936 88.8987 12.498 89.213 12.2987 89.5236C12.1529 89.7529 12.3873 90.0358 12.6419 89.9304C12.6955 89.9063 12.7361 89.8731 12.7674 89.8231C12.9686 89.5088 13.166 89.1908 13.3579 88.871H13.3598ZM11.8558 91.2283C12.0201 90.9787 11.7267 90.6773 11.4702 90.8437C11.4388 90.864 11.413 90.8899 11.3927 90.9214C11.1878 91.232 10.983 91.5407 10.78 91.8532C10.6213 92.0935 10.8907 92.3949 11.1565 92.2451C11.1934 92.2229 11.2229 92.1952 11.245 92.1601C11.448 91.8495 11.6529 91.5407 11.8577 91.2301L11.8558 91.2283ZM10.3408 93.5578C10.4829 93.323 10.2449 93.0475 9.99393 93.1548C9.94041 93.1788 9.90166 93.2121 9.87029 93.262C9.671 93.58 9.47724 93.898 9.28718 94.2216C9.14878 94.4693 9.41081 94.7393 9.66362 94.6043C9.70791 94.5784 9.73928 94.547 9.76696 94.5026C9.95333 94.1846 10.1452 93.8703 10.3408 93.5578ZM8.99008 95.9539C9.11741 95.6748 8.77234 95.4252 8.54721 95.6322C8.52137 95.6581 8.50292 95.684 8.48631 95.7173L8.38298 95.9392L8.33131 96.0519L8.28149 96.1647L8.23351 96.2756L8.18553 96.3866L8.1394 96.4975L8.09511 96.6084L8.03606 96.7619C7.93088 97.0596 8.32024 97.2777 8.51953 97.0263C8.53614 97.0041 8.54905 96.9801 8.56013 96.9523L8.61364 96.81L8.65608 96.7046L8.69852 96.5973L8.74281 96.4901L8.78894 96.3829L8.83692 96.2756L8.8849 96.1684L8.93472 96.0612L8.98639 95.9502L8.99008 95.9539ZM8.156 98.5109C8.19291 98.2299 7.82939 98.0801 7.65777 98.3075C7.62825 98.3482 7.60979 98.3889 7.60426 98.4407L7.59872 98.4832L7.58581 98.5923L7.57473 98.7013L7.56551 98.8104L7.55813 98.9177L7.55444 99.0267V99.134L7.55259 99.2412V99.3484L7.55997 99.4557L7.56735 99.5629L7.57289 99.6165C7.58581 99.7349 7.667 99.831 7.78141 99.8606C7.96778 99.9068 8.14493 99.7552 8.12648 99.5629L8.12279 99.5222L8.11541 99.428L8.11172 99.3337V99.2394L8.10987 99.1432V99.0471L8.11541 98.951L8.12094 98.853L8.12833 98.755L8.13755 98.657L8.14862 98.559L8.15416 98.5165L8.156 98.5109ZM8.55459 101.055C8.41435 100.791 8.01392 100.901 8.03052 101.201C8.03421 101.24 8.04344 101.277 8.06189 101.312L8.07297 101.334L8.12648 101.434L8.18368 101.534L8.24458 101.634L8.30732 101.733L8.37375 101.833L8.44203 101.931L8.51399 102.029L8.58781 102.125L8.66531 102.223L8.71698 102.284C8.80002 102.381 8.93103 102.408 9.04544 102.357C9.21336 102.277 9.25765 102.064 9.13955 101.922L9.09526 101.87L9.02514 101.783L8.95687 101.695L8.89228 101.606L8.83139 101.517L8.77234 101.428L8.71698 101.34L8.66346 101.251L8.61364 101.162L8.56566 101.073L8.55459 101.051V101.055ZM10.315 103.015C10.232 102.954 10.1176 102.944 10.0271 102.991C9.84077 103.087 9.82047 103.34 9.98839 103.466L10.0788 103.532L10.2043 103.621L10.3316 103.71L10.4626 103.799L10.5973 103.887L10.7357 103.976L10.8778 104.063L10.9369 104.098C11.1823 104.242 11.4665 103.961 11.3115 103.708C11.2856 103.669 11.258 103.642 11.2174 103.617L11.1639 103.586L11.0291 103.503L10.8963 103.42L10.7671 103.336L10.6416 103.251L10.5198 103.166L10.4017 103.081L10.3113 103.015H10.315ZM12.6733 104.375C12.5607 104.324 12.4279 104.353 12.3467 104.448C12.2267 104.588 12.2729 104.806 12.4426 104.884L12.6788 104.991L12.8652 105.073L13.0553 105.154L13.249 105.235L13.4816 105.33C13.5923 105.374 13.7196 105.341 13.7971 105.248C13.917 105.102 13.8617 104.88 13.6845 104.81L13.4613 104.719L13.2712 104.64L13.0867 104.56L12.9058 104.481L12.6752 104.375H12.6733Z" fill="#A9A7D3"/>
<path fill-rule="evenodd" clip-rule="evenodd" d="M6.63018 71.8909L0 68.0083L6.99924 69.7019L6.63018 71.8909Z" fill="#4512B1"/>
<path fill-rule="evenodd" clip-rule="evenodd" d="M0 68.0083L7.93665 68.7294L6.99924 69.7019L0 68.0083Z" fill="#631AEC"/>
<path fill-rule="evenodd" clip-rule="evenodd" d="M6.24636 70.5264L4.1667 72.7266L0 68.0083L6.24636 70.5264Z" fill="#631AEC"/>
<path fill-rule="evenodd" clip-rule="evenodd" d="M6.6302 71.8908L6.24638 70.5264L5.48242 71.3343L6.6302 71.8908Z" fill="#221E54"/>
<path fill-rule="evenodd" clip-rule="evenodd" d="M256.33 53.0864H23.3913C20.2728 53.0864 17.7207 55.6434 17.7207 58.768V118.381C17.7207 121.505 20.2728 124.062 23.3913 124.062H33.7712L33.4575 144.533C33.4409 145.568 33.9668 146.463 34.8783 146.951C35.7881 147.439 36.8233 147.382 37.674 146.794L70.5758 124.062H256.33C259.448 124.062 262 121.505 262 118.381V58.768C262 55.6434 259.448 53.0864 256.33 53.0864Z" fill="#9A6FF4"/>
<path fill-rule="evenodd" clip-rule="evenodd" d="M46.8958 68.0197L53.0518 80.2055L66.5188 82.3058C66.9414 82.3705 67.2292 82.7662 67.1647 83.1896C67.1388 83.3597 67.0595 83.5076 66.9469 83.6203L57.283 93.2529L59.4513 106.738C59.5177 107.162 59.2298 107.559 58.8091 107.626C58.6301 107.654 58.4548 107.619 58.309 107.535L46.2057 101.316L34.0747 107.55C33.6945 107.744 33.2295 107.594 33.0357 107.214C32.9582 107.062 32.9361 106.896 32.9601 106.74L35.1283 93.2547L25.4645 83.6222C25.1618 83.3208 25.16 82.829 25.4608 82.5258C25.5918 82.3945 25.756 82.3206 25.9258 82.3021L39.3578 80.2073L45.5137 68.0215C45.7056 67.6388 46.1725 67.4853 46.5544 67.6776C46.7076 67.7553 46.8257 67.8773 46.8977 68.0215L46.8958 68.0197Z" fill="#4512B1"/>
<path fill-rule="evenodd" clip-rule="evenodd" d="M93.056 67.1266L99.2119 79.3124L112.679 81.4127C113.102 81.4774 113.389 81.8731 113.325 82.2965C113.299 82.4666 113.22 82.6145 113.107 82.7273L103.443 92.3598L105.611 105.845C105.678 106.269 105.39 106.664 104.969 106.733C104.79 106.762 104.615 106.725 104.469 106.642L92.3658 100.423L80.2348 106.657C79.8547 106.851 79.3897 106.7 79.1959 106.321C79.1184 106.169 79.0963 106.003 79.1202 105.847L81.2885 92.3617L71.6246 82.7291C71.322 82.4278 71.3201 81.936 71.6209 81.6327C71.7519 81.5015 71.9162 81.4275 72.0859 81.409L85.5179 79.3143L91.6738 67.1284C91.8658 66.7457 92.3326 66.5923 92.7128 66.7846C92.8659 66.8622 92.984 66.9842 93.056 67.1284V67.1266Z" fill="#4512B1"/>
<path fill-rule="evenodd" clip-rule="evenodd" d="M85.9132 54.5139L94.7338 66.3632L109.483 66.1007C109.945 66.0915 110.327 66.4612 110.336 66.9234C110.34 67.1102 110.282 67.2821 110.183 67.4245L101.661 79.492L106.47 93.4694C106.619 93.9075 106.387 94.3845 105.95 94.5343C105.763 94.5972 105.571 94.5916 105.398 94.5306L91.3421 90.1488L79.5617 99.0511C79.1926 99.3284 78.6686 99.2544 78.3899 98.8847C78.2792 98.7368 78.2239 98.5648 78.222 98.3929L78.0375 83.6112L65.9489 75.1361C65.5706 74.8698 65.4783 74.3466 65.7422 73.9676C65.8566 73.8031 66.019 73.694 66.1962 73.6422L80.1319 68.911L84.4407 54.7727C84.5754 54.329 85.0441 54.0794 85.487 54.2125C85.666 54.2662 85.8117 54.3752 85.9151 54.5158L85.9132 54.5139Z" fill="#E6B46E"/>
<path fill-rule="evenodd" clip-rule="evenodd" d="M85.9127 54.5138L94.7333 66.3631L100.773 66.2559C97.3517 71.0019 93.1205 75.7867 88.2009 80.3146C84.8904 83.3615 81.4913 86.0849 78.096 88.4607L78.0351 83.6074L65.9465 75.1322C65.5682 74.866 65.476 74.3428 65.7417 73.9638C65.8561 73.7992 66.0185 73.6901 66.1956 73.6384L80.1314 68.909L84.4401 54.7708C84.5749 54.327 85.0436 54.0774 85.4864 54.2124C85.6654 54.266 85.8112 54.3751 85.9145 54.5138H85.9127Z" fill="#EEC790"/>
<path fill-rule="evenodd" clip-rule="evenodd" d="M110.053 64.1351C110.137 64.4716 110.484 66.5183 109.036 67.6886C108.43 68.1767 107.633 68.1157 107.27 67.9253C106.855 67.7071 106.052 68.6445 105.998 69.2065C105.965 69.5671 103.253 70.2974 102.994 69.384C102.821 68.7702 102.417 67.1672 103.142 66.0487C104.109 64.5567 107.05 63.464 107.063 63.4362C108.921 59.439 107.281 54.8021 109.025 51.4076C108.168 50.045 107.329 48.4827 106.648 46.6708L111.167 43.6387C112.164 45.3359 112.636 48.6491 113.71 50.5608C113.167 55.9909 110.754 58.705 110.053 64.1351Z" fill="#FDDDB6"/>
<path fill-rule="evenodd" clip-rule="evenodd" d="M105.339 34.3041C107.801 34.7552 109.598 35.9699 110.744 41.4388C110.789 41.6496 112.97 46.5842 112.817 46.7247C111.995 47.4772 109.344 48.4275 107.441 48.9082C106.755 47.2701 106.208 44.9091 105.469 42.9309C104.813 42.4557 103.955 34.8181 105.338 34.3022L105.339 34.3041Z" fill="#3EA5EC"/>
<path fill-rule="evenodd" clip-rule="evenodd" d="M87.1513 34.0985C85.1178 35.0395 85.0735 43.0802 87.5277 53.0881H105.021C106.745 43.474 107.774 35.5443 105.436 34.1207L99.8046 31.5785C98.5811 31.1107 97.2488 30.8334 96.7653 30.9702C96.28 30.8315 94.9477 31.1107 93.7261 31.5785L87.1531 34.0985H87.1513Z" fill="#3EA5EC"/>
<path fill-rule="evenodd" clip-rule="evenodd" d="M99.291 53.0866H105.024C106.39 45.4711 107.318 38.9132 106.484 35.8071C106.143 41.0764 106.392 49.8233 99.291 53.0866Z" fill="#3091D8"/>
<path fill-rule="evenodd" clip-rule="evenodd" d="M101.48 32.3347L99.8047 31.5785C98.5812 31.1107 97.2489 30.8334 96.7654 30.9702C96.2801 30.8315 94.9478 31.1107 93.7262 31.5785L91.5063 32.429C91.4676 35.4389 93.8517 37.53 96.5163 37.3303C100.098 37.0604 101.364 35.4426 101.482 32.3347H101.48Z" fill="#3091D8"/>
<path fill-rule="evenodd" clip-rule="evenodd" d="M76.1873 61.1011C76.0083 61.3969 75.0782 63.2532 76.1227 64.7988C76.5582 65.4422 77.3387 65.6179 77.741 65.5421C78.2005 65.4552 78.695 66.5885 78.5806 67.1413C78.5087 67.4945 80.8873 68.9883 81.4002 68.1915C81.7453 67.6572 82.5997 66.2409 82.2343 64.9597C81.7472 63.2495 79.2523 61.3415 79.2486 61.3119C78.6415 56.9449 81.5626 52.992 80.8891 49.2351C82.107 48.1831 83.3655 46.9352 84.5465 45.4025L80.9482 41.1187C79.4996 42.4498 78.2411 45.5374 76.6578 47.0498C75.5894 52.4022 77.1044 55.7061 76.1854 61.1011H76.1873Z" fill="#FDDDB6"/>
<path fill-rule="evenodd" clip-rule="evenodd" d="M87.4671 33.9766C85.9539 33.7991 84.7932 34.5424 81.9976 39.1294C81.885 39.3143 78.3421 43.3725 78.4435 43.5537C79.1337 44.7758 81.4643 46.3806 83.2303 47.2219C84.3171 45.9998 85.3524 43.9919 86.299 42.6811C87.0648 42.4204 87.8195 35.0804 87.4652 33.9766H87.4671Z" fill="#3EA5EC"/>
<path fill-rule="evenodd" clip-rule="evenodd" d="M92.9763 29.9552C92.9763 29.9552 93.7642 31.5526 92.6035 32.649C92.7161 36.7442 100.524 36.8182 100.507 32.649C99.3463 31.5508 100.134 29.9552 100.134 29.9552L96.641 28.8773V28.8237L96.5562 28.8496L96.4713 28.8237V28.8773L92.9781 29.9552H92.9763Z" fill="#FCBE72"/>
<path fill-rule="evenodd" clip-rule="evenodd" d="M90.9266 24.4086C91.6463 24.0832 92.6077 24.6563 93.0727 25.688C93.5377 26.7196 93.331 27.8216 92.6114 28.147C91.8917 28.4724 90.9303 27.8992 90.4653 26.8675C90.0003 25.8359 90.2069 24.734 90.9266 24.4086Z" fill="#FCBE72"/>
<path fill-rule="evenodd" clip-rule="evenodd" d="M102.902 24.1888C102.183 23.8634 101.221 24.4366 100.756 25.4682C100.291 26.4999 100.498 27.6018 101.218 27.9272C101.937 28.2526 102.899 27.6795 103.364 26.6478C103.829 25.6162 103.622 24.5142 102.902 24.1888Z" fill="#FCBE72"/>
<path fill-rule="evenodd" clip-rule="evenodd" d="M91.0558 24.897C91.0558 24.897 91.5873 28.371 92.3549 29.9111C92.7793 30.9427 95.6968 33.0856 96.7781 33.0042C98.2359 32.8933 100.734 31.4271 101.358 29.9111C102.126 28.3691 102.657 24.897 102.657 24.897C103.534 23.0241 103.591 22.2439 103.106 19.4669C103.089 16.6566 98.4444 16.1408 98.4444 16.1408C97.2727 15.7636 96.4423 15.7636 95.2705 16.1408C95.2705 16.1408 90.6868 16.6566 90.6683 19.4669C89.7475 22.3825 90.1793 23.0241 91.0558 24.897Z" fill="#FDDDB6"/>
<path fill-rule="evenodd" clip-rule="evenodd" d="M86.2207 21.8426C86.2207 21.8426 88.3779 21.5985 89.4721 20.6205C89.4721 20.6205 88.4388 20.7517 87.1544 19.6313C91.0314 20.2341 91.8747 11.4076 100.404 14.9408C100.426 14.4952 100.337 13.8888 100.033 13.5098C100.955 14.118 101.743 14.8335 102.011 15.5657L103.074 14.547L103.126 16.4384C103.126 16.4384 104.598 17.3572 104.713 20.4448C104.81 23.1035 103 24.3626 102.524 26.6755H102.109C102.16 25.8176 102.177 24.8913 102.286 24.063C102.286 24.063 101.254 23.5065 101.465 21.691C100.439 22.3621 88.9093 25.6679 86.2207 21.8426Z" fill="#221E54"/>
<path fill-rule="evenodd" clip-rule="evenodd" d="M147.156 80.2053L160.623 82.3056C161.046 82.3703 161.333 82.766 161.269 83.1894C161.243 83.3595 161.164 83.5074 161.049 83.6201L151.385 93.2527L153.554 106.738C153.62 107.162 153.332 107.559 152.911 107.626C152.732 107.653 152.557 107.618 152.411 107.535L140.308 101.316L128.177 107.55C127.797 107.744 127.332 107.594 127.136 107.213C127.059 107.062 127.037 106.895 127.061 106.74L129.229 93.2545L119.565 83.622C119.55 83.6072 119.537 83.5924 119.524 83.5776C119.508 83.5573 119.491 83.5369 119.476 83.5166L119.465 83.5L119.454 83.4833C119.441 83.4611 119.428 83.439 119.417 83.4168C119.408 83.4001 119.401 83.3816 119.393 83.365C119.388 83.3539 119.384 83.341 119.38 83.3299C119.377 83.3188 119.373 83.3058 119.369 83.2947L119.364 83.2763L119.36 83.2578L119.356 83.2393L119.353 83.2208C119.351 83.2078 119.349 83.1968 119.347 83.1838V83.1653L119.344 83.1468V83.1283L119.34 83.1099V83.0914V83.0729V83.0359V83.0174V82.9989C119.344 82.986 119.344 82.9749 119.345 82.962L119.349 82.9435L119.353 82.925L119.356 82.9065L119.36 82.888C119.364 82.8769 119.368 82.864 119.369 82.851C119.373 82.8381 119.377 82.827 119.38 82.8159C119.384 82.8029 119.388 82.7919 119.393 82.7808C119.399 82.7697 119.403 82.7567 119.408 82.7456L119.416 82.729C119.425 82.7124 119.434 82.6957 119.443 82.6791L119.454 82.6624C119.484 82.6144 119.521 82.5681 119.563 82.5238L119.582 82.5053L119.594 82.4942L119.613 82.4775L119.626 82.4665L119.631 82.4609L119.652 82.4461L119.659 82.4406L119.666 82.4369L119.674 82.4313L119.681 82.4276L119.689 82.4239L119.703 82.4147L119.711 82.411L119.718 82.4073L119.726 82.4036L119.74 82.3962L119.755 82.3888L119.77 82.3814L119.777 82.3777L119.785 82.374L119.799 82.3666L119.807 82.3629L119.814 82.3592L119.821 82.3555L119.829 82.3518L119.844 82.3463L119.851 82.3426L119.866 82.337L119.881 82.3315H119.888L119.895 82.3278L119.927 82.3185H119.936L119.956 82.3112H119.96C119.984 82.3056 120.006 82.3019 120.03 82.3001L133.462 80.2053L139.618 68.0195C139.633 67.9899 139.649 67.9622 139.668 67.9344C139.675 67.9233 139.682 67.9122 139.69 67.903C139.701 67.8882 139.714 67.8716 139.727 67.8586C139.734 67.8494 139.743 67.8401 139.753 67.8309C139.775 67.8087 139.799 67.7865 139.823 67.7662C139.852 67.7421 139.884 67.7218 139.915 67.7015C139.926 67.6959 139.937 67.6885 139.948 67.683L139.965 67.6737L139.981 67.6663L139.998 67.6589C140.015 67.6516 140.033 67.6442 140.05 67.6386L140.066 67.6331C140.077 67.6294 140.09 67.6257 140.101 67.622L140.12 67.6164L140.138 67.6127L140.157 67.609L140.175 67.6053L140.194 67.6016H140.212L140.231 67.5979H140.249C140.262 67.5942 140.273 67.5942 140.286 67.5942H140.304H140.323H140.341C140.354 67.5942 140.365 67.5942 140.378 67.5979H140.397L140.415 67.6016L140.434 67.6053L140.452 67.609L140.47 67.6127C140.483 67.6164 140.494 67.6183 140.507 67.622L140.526 67.6275L140.544 67.6331C140.557 67.6368 140.568 67.6423 140.581 67.646L140.6 67.6534L140.618 67.6608L140.637 67.6682L140.655 67.6774L140.662 67.6811L140.67 67.6848L140.677 67.6885L140.684 67.6922L140.692 67.6959L140.699 67.6996L140.707 67.7033L140.714 67.707L140.723 67.7126C140.732 67.72 140.744 67.7255 140.753 67.7329L140.766 67.7421L140.775 67.7477L140.797 67.7643L140.806 67.7717L140.815 67.7791L140.825 67.7865L140.845 67.805L140.856 67.8161L140.863 67.8235C140.878 67.8401 140.893 67.8549 140.906 67.8716L140.913 67.879C140.947 67.9215 140.976 67.9677 141.002 68.0158L147.158 80.2016L147.156 80.2053Z" fill="#4512B1"/>
<path fill-rule="evenodd" clip-rule="evenodd" d="M198.402 80.2053L211.869 82.3056C212.292 82.3703 212.58 82.766 212.515 83.1894C212.489 83.3595 212.41 83.5074 212.297 83.6201L202.633 93.2527L204.802 106.738C204.868 107.162 204.58 107.559 204.16 107.626C203.981 107.653 203.805 107.618 203.658 107.535L191.554 101.316L179.423 107.55C179.043 107.744 178.578 107.594 178.384 107.213C178.307 107.062 178.285 106.895 178.309 106.74L180.477 93.2545L170.811 83.622C170.796 83.6072 170.783 83.5924 170.771 83.5776C170.754 83.5573 170.737 83.5369 170.723 83.5166L170.712 83.5L170.702 83.4833C170.688 83.4611 170.676 83.439 170.665 83.4168C170.658 83.4001 170.649 83.3816 170.641 83.365C170.636 83.3539 170.632 83.341 170.628 83.3299C170.625 83.3188 170.621 83.3058 170.617 83.2947L170.612 83.2763L170.608 83.2578L170.605 83.2393L170.601 83.2208C170.599 83.2078 170.597 83.1968 170.595 83.1838V83.1653L170.592 83.1468V83.1283L170.588 83.1099V83.0914V83.0729V83.0359V83.0174V82.9989C170.592 82.986 170.592 82.9749 170.593 82.962L170.597 82.9435L170.601 82.925L170.605 82.9065L170.608 82.888C170.612 82.8769 170.614 82.864 170.617 82.851C170.621 82.8381 170.625 82.827 170.628 82.8159C170.632 82.8029 170.638 82.7919 170.641 82.7808C170.647 82.7697 170.651 82.7567 170.656 82.7456L170.664 82.729C170.671 82.7124 170.68 82.6957 170.691 82.6791L170.7 82.6624C170.732 82.6144 170.767 82.5681 170.809 82.5238L170.828 82.5053L170.841 82.4942L170.861 82.4775L170.874 82.4665L170.881 82.4609L170.902 82.4461L170.909 82.4406L170.916 82.4369L170.924 82.4313L170.931 82.4276L170.939 82.4239L170.953 82.4147L170.961 82.411L170.968 82.4073L170.975 82.4036L170.99 82.3962L171.005 82.3888L171.02 82.3814L171.027 82.3777L171.034 82.374L171.049 82.3666L171.057 82.3629L171.064 82.3592L171.071 82.3555L171.079 82.3518L171.094 82.3463L171.101 82.3426L171.116 82.337L171.13 82.3315H171.138L171.145 82.3278L171.177 82.3185H171.186L171.206 82.3112H171.21C171.234 82.3056 171.256 82.3019 171.28 82.3001L184.712 80.2053L190.868 68.0195C190.883 67.9899 190.899 67.9622 190.918 67.9344C190.925 67.9233 190.932 67.9122 190.94 67.903C190.951 67.8882 190.964 67.8716 190.977 67.8586C190.986 67.8494 190.993 67.8401 191.002 67.8309C191.025 67.8087 191.049 67.7865 191.073 67.7662C191.102 67.7421 191.133 67.7218 191.165 67.7015C191.176 67.6959 191.187 67.6885 191.198 67.683L191.215 67.6737L191.231 67.6663L191.248 67.6589C191.265 67.6516 191.283 67.6442 191.3 67.6386L191.318 67.6331C191.329 67.6294 191.342 67.6257 191.353 67.622L191.372 67.6164L191.39 67.6127L191.408 67.609L191.427 67.6053L191.445 67.6016H191.464L191.482 67.5979H191.501C191.514 67.5942 191.525 67.5942 191.538 67.5942H191.556H191.575H191.593C191.606 67.5942 191.619 67.5942 191.63 67.5979H191.648L191.667 67.6016L191.685 67.6053L191.704 67.609L191.722 67.6127C191.735 67.6164 191.746 67.6183 191.759 67.622L191.778 67.6275L191.796 67.6331C191.809 67.6368 191.82 67.6423 191.833 67.646L191.851 67.6534L191.87 67.6608L191.888 67.6682L191.907 67.6774L191.914 67.6811L191.921 67.6848L191.929 67.6885L191.936 67.6922L191.944 67.6959L191.951 67.6996L191.958 67.7033L191.966 67.707L191.975 67.7126C191.986 67.72 191.995 67.7255 192.004 67.7329L192.017 67.7421L192.027 67.7477L192.049 67.7643L192.058 67.7717L192.067 67.7791L192.076 67.7865L192.097 67.805L192.108 67.8161L192.115 67.8235C192.13 67.8401 192.145 67.8549 192.159 67.8716L192.167 67.879C192.202 67.9215 192.23 67.9677 192.255 68.0158L198.411 80.2016L198.402 80.2053Z" fill="#4512B1"/>
<path fill-rule="evenodd" clip-rule="evenodd" d="M242.097 80.2053L255.564 82.3056C255.987 82.3703 256.275 82.766 256.21 83.1894C256.184 83.3595 256.105 83.5074 255.99 83.6201L246.327 93.2527L248.495 106.738C248.561 107.162 248.273 107.559 247.853 107.626C247.674 107.653 247.498 107.618 247.353 107.535L235.249 101.316L223.118 107.55C222.738 107.744 222.273 107.594 222.077 107.213C222 107.062 221.978 106.895 222.002 106.74L224.17 93.2545L214.506 83.622C214.491 83.6072 214.478 83.5924 214.466 83.5776C214.449 83.5573 214.432 83.5369 214.418 83.5166L214.407 83.5L214.395 83.4833C214.383 83.4611 214.37 83.439 214.359 83.4168C214.349 83.4001 214.342 83.3816 214.335 83.365C214.331 83.3539 214.325 83.341 214.322 83.3299C214.318 83.3188 214.314 83.3058 214.311 83.2947L214.305 83.2763L214.299 83.2578L214.296 83.2393L214.292 83.2208C214.29 83.2078 214.288 83.1968 214.285 83.1838V83.1653L214.281 83.1468V83.1283L214.277 83.1099V83.0914V83.0729V83.0544V83.0359V83.0174L214.279 82.9989C214.279 82.986 214.281 82.9749 214.283 82.962V82.9435L214.288 82.925L214.292 82.9065L214.296 82.888C214.3 82.8769 214.303 82.864 214.305 82.851C214.309 82.8381 214.312 82.827 214.316 82.8159C214.32 82.8029 214.325 82.7919 214.329 82.7808C214.335 82.7697 214.338 82.7567 214.344 82.7456L214.351 82.729C214.36 82.7124 214.37 82.6957 214.379 82.6791L214.388 82.6624C214.418 82.6144 214.455 82.5681 214.497 82.5238L214.515 82.5053L214.528 82.4942L214.547 82.4775L214.56 82.4665L214.567 82.4609L214.587 82.4461L214.595 82.4406L214.602 82.4369L214.61 82.4313L214.617 82.4276L214.624 82.4239L214.637 82.4147L214.645 82.411L214.652 82.4073L214.659 82.4036L214.674 82.3962L214.689 82.3888L214.704 82.3814L214.711 82.3777L214.718 82.374L214.733 82.3666L214.741 82.3629L214.748 82.3592L214.755 82.3555L214.763 82.3518L214.777 82.3463L214.785 82.3426L214.8 82.337L214.814 82.3315H214.822L214.829 82.3278L214.86 82.3185H214.87L214.89 82.3112H214.894C214.918 82.3056 214.94 82.3019 214.964 82.3001L228.396 80.2053L234.552 68.0195C234.566 67.9899 234.583 67.9622 234.602 67.9344C234.609 67.9233 234.616 67.9122 234.624 67.903C234.635 67.8882 234.648 67.8716 234.661 67.8586C234.67 67.8494 234.677 67.8401 234.686 67.8309C234.709 67.8087 234.733 67.7865 234.757 67.7662C234.786 67.7421 234.817 67.7218 234.849 67.7015C234.86 67.6959 234.871 67.6885 234.882 67.683L234.899 67.6737L234.915 67.6663L234.932 67.6589C234.948 67.6516 234.967 67.6442 234.984 67.6386L235 67.6331C235.011 67.6294 235.024 67.6257 235.035 67.622L235.054 67.6164L235.072 67.6127L235.091 67.609L235.109 67.6053L235.127 67.6016H235.146L235.164 67.5979H235.183C235.196 67.5942 235.207 67.5942 235.22 67.5942H235.238H235.257H235.275C235.288 67.5942 235.301 67.5942 235.312 67.5979H235.33L235.349 67.6016L235.367 67.6053L235.386 67.609L235.404 67.6127C235.417 67.6164 235.43 67.6183 235.441 67.622L235.46 67.6275L235.478 67.6331C235.491 67.6368 235.502 67.6423 235.515 67.646L235.533 67.6534L235.552 67.6608L235.57 67.6682L235.589 67.6774L235.596 67.6811L235.604 67.6848L235.611 67.6885L235.618 67.6922L235.626 67.6959L235.633 67.6996L235.64 67.7033L235.648 67.707L235.657 67.7126C235.668 67.72 235.677 67.7255 235.687 67.7329L235.7 67.7421L235.709 67.7477L235.731 67.7643L235.74 67.7717L235.749 67.7791L235.759 67.7865L235.779 67.805L235.79 67.8161L235.797 67.8235C235.812 67.8401 235.827 67.8549 235.84 67.8716L235.847 67.879C235.88 67.9215 235.912 67.9677 235.936 68.0158L242.092 80.2016L242.097 80.2053Z" fill="#4512B1"/>
<path fill-rule="evenodd" clip-rule="evenodd" d="M191.355 67.1261L197.511 79.3119L210.978 81.4122C211.4 81.477 211.688 81.8726 211.623 82.296C211.598 82.4661 211.518 82.614 211.404 82.7268L201.74 92.3593L203.908 105.845C203.975 106.268 203.687 106.664 203.266 106.732C203.087 106.762 202.912 106.725 202.766 106.642L190.663 100.422L178.532 106.657C178.151 106.851 177.686 106.699 177.491 106.32C177.413 106.168 177.391 106.002 177.415 105.847L179.583 92.3612L169.92 82.7286C169.617 82.4273 169.615 81.9355 169.916 81.6323C170.047 81.501 170.211 81.427 170.381 81.4085L183.813 79.3138L189.969 67.128C190.163 66.7452 190.628 66.5918 191.01 66.7841C191.163 66.8617 191.281 66.9837 191.353 67.128L191.355 67.1261Z" fill="#E6B46E"/>
<path fill-rule="evenodd" clip-rule="evenodd" d="M191.354 67.1264L197.51 79.3122L203.024 80.1719C199.16 83.9492 194.552 87.6339 189.358 90.9748C185.863 93.223 182.338 95.1625 178.873 96.7858L179.585 92.3578L169.921 82.7252C169.619 82.4238 169.617 81.9321 169.919 81.6288C170.049 81.4976 170.215 81.4236 170.384 81.4051L183.816 79.3104L189.972 67.1245C190.164 66.7418 190.631 66.5884 191.013 66.7807C191.166 66.8583 191.284 66.9803 191.356 67.1245L191.354 67.1264Z" fill="#EEC790"/>
<path fill-rule="evenodd" clip-rule="evenodd" d="M46.0301 67.1261L52.1861 79.3119L65.6531 81.4122C66.0757 81.477 66.3635 81.8726 66.299 82.296C66.2731 82.4661 66.1938 82.614 66.0794 82.7268L56.4155 92.3593L58.5837 105.845C58.6502 106.268 58.3623 106.664 57.9416 106.732C57.7626 106.762 57.5873 106.725 57.4415 106.642L45.3382 100.422L33.2071 106.657C32.827 106.851 32.362 106.699 32.1682 106.32C32.0907 106.168 32.0686 106.002 32.0926 105.847L34.2608 92.3612L24.5951 82.7286C24.2925 82.4273 24.2906 81.9355 24.5932 81.6323C24.7224 81.501 24.8885 81.427 25.0583 81.4085L38.4902 79.3138L44.648 67.128C44.8399 66.7452 45.3068 66.5918 45.6869 66.7841C45.8401 66.8617 45.9582 66.9837 46.0301 67.128V67.1261Z" fill="#E6B46E"/>
<path fill-rule="evenodd" clip-rule="evenodd" d="M46.0301 67.1264L52.1861 79.3122L57.6998 80.1719C53.8358 83.9492 49.2281 87.6339 44.0335 90.9748C40.5385 93.223 37.014 95.1625 33.5485 96.7858L34.2608 92.3578L24.5951 82.7252C24.2925 82.4238 24.2906 81.9321 24.5932 81.6288C24.7224 81.4976 24.8885 81.4236 25.0583 81.4051L38.4902 79.3104L44.6462 67.1245C44.8381 66.7418 45.3049 66.5884 45.6869 66.7807C45.8401 66.8583 45.9582 66.9803 46.0301 67.1245V67.1264Z" fill="#EEC790"/>
<path fill-rule="evenodd" clip-rule="evenodd" d="M235.073 67.1261L241.229 79.3119L254.696 81.4122C255.119 81.477 255.407 81.8726 255.342 82.296C255.316 82.4661 255.237 82.614 255.123 82.7268L245.459 92.3593L247.627 105.845C247.693 106.268 247.406 106.664 246.985 106.732C246.806 106.762 246.631 106.725 246.485 106.642L234.381 100.422L222.25 106.657C221.87 106.851 221.405 106.699 221.212 106.32C221.134 106.168 221.112 106.002 221.136 105.847L223.304 92.3612L213.64 82.7286C213.338 82.4273 213.336 81.9355 213.637 81.6323C213.766 81.501 213.932 81.427 214.102 81.4085L227.534 79.3138L233.689 67.128C233.881 66.7452 234.348 66.5918 234.73 66.7841C234.883 66.8617 235 66.9837 235.073 67.128V67.1261Z" fill="#E6B46E"/>
<path fill-rule="evenodd" clip-rule="evenodd" d="M235.074 67.1264L241.229 79.3122L246.745 80.1719C242.881 83.9492 238.273 87.6339 233.079 90.9748C229.584 93.223 226.059 95.1625 222.594 96.7858L223.306 92.3578L213.642 82.7252C213.34 82.4238 213.338 81.9321 213.639 81.6288C213.768 81.4976 213.934 81.4236 214.104 81.4051L227.535 79.3104L233.691 67.1245C233.883 66.7418 234.35 66.5884 234.732 66.7807C234.885 66.8583 235.002 66.9803 235.075 67.1245L235.074 67.1264Z" fill="#EEC790"/>
<path fill-rule="evenodd" clip-rule="evenodd" d="M185.744 158.275C185.744 158.275 186.166 161.416 185.705 162.143C185.524 162.428 185.465 164.336 185.301 165.197C185.231 165.563 184.904 165.451 184.869 165.451C184.627 165.454 184.504 163.252 184.504 163.252C184.504 163.252 184.013 162.602 182.965 165.772C181.889 167.27 178.501 167.274 177.811 166.445C177.372 164.351 179.416 165.221 180.584 161.122C180.584 161.122 180.948 159.649 182.546 158.451C183.411 157.854 185.62 158.216 185.742 158.275H185.744Z" fill="#1A1840"/>
<path fill-rule="evenodd" clip-rule="evenodd" d="M172.328 157.97C172.328 157.97 172.751 161.112 172.289 161.838C172.108 162.123 172.049 164.033 171.885 164.892C171.815 165.259 171.488 165.146 171.453 165.146C171.212 165.151 171.088 162.947 171.088 162.947C171.088 162.947 170.616 161.618 168.217 165.453C167.141 166.95 163.1 166.939 162.41 166.111C161.804 163.624 165.425 164.077 166.517 160.816C166.517 160.816 166.881 159.342 168.477 158.146C169.342 157.547 172.204 157.911 172.326 157.97H172.328Z" fill="#1A1840"/>
<path fill-rule="evenodd" clip-rule="evenodd" d="M167.921 158.318C167.921 158.318 172.789 159.301 172.501 158.151C170.614 150.643 173.717 146.091 172.381 139.483C171.759 136.409 174.74 130.999 174.992 130.529L178.613 112.656L166.923 112.063C165.888 116.704 165.923 127.133 166.521 138.529C166.831 144.435 168.287 150.887 167.921 158.32V158.318Z" fill="#332A7C"/>
<path fill-rule="evenodd" clip-rule="evenodd" d="M170.796 158.699C171.789 158.747 172.627 158.649 172.501 158.151C170.614 150.643 173.717 146.091 172.381 139.483C171.76 136.409 174.74 130.999 174.993 130.529L177.724 117.049L169.518 115.178C170.994 118.684 172.525 126.331 170.645 135.976C170.416 137.152 170.431 138.428 170.662 139.653C170.898 140.907 171.023 142.654 170.793 145.339C170.793 145.339 170.243 152.507 170.796 158.702V158.699Z" fill="#221E54"/>
<path fill-rule="evenodd" clip-rule="evenodd" d="M182.407 111.758C186.28 119.529 179.925 124.547 181.172 138.126C181.237 138.835 181.111 139.766 181.611 140.288C183.693 142.462 185.132 151.268 185.946 158.791C184.124 159.411 183.868 159.416 181.801 158.9C180.796 151.544 177.057 146.237 175.594 140.719C174.531 136.716 173.938 132.184 173.156 127.902C172.558 124.63 172.436 122.151 170.604 119.268C169.36 117.312 168.181 114.409 167.703 111.122L182.408 111.76L182.407 111.758Z" fill="#332A7C"/>
<path fill-rule="evenodd" clip-rule="evenodd" d="M182.408 111.758C186.281 119.529 179.926 124.546 181.173 138.126C181.238 138.834 181.112 139.766 181.612 140.288C183.694 142.462 185.133 151.268 185.947 158.791C185.397 158.978 184.991 159.109 184.633 159.187C184.401 152.612 179.846 140.683 179.846 140.683C178.206 133.8 179.907 122.457 179.907 122.457C180.526 119.701 180.073 115.478 179.376 111.628L182.408 111.76V111.758Z" fill="#221E54"/>
<path fill-rule="evenodd" clip-rule="evenodd" d="M153.298 85.0381C151.515 84.1396 150.569 80.3993 149.367 81.5327L149.164 81.725L148.613 81.6159C147.517 81.5123 146.548 84.9808 147.821 85.9293C147.821 85.9293 148.48 86.5283 148.836 85.9367C148.836 85.9367 149.48 87.0756 151.312 87.1181C153.407 88.5528 157.393 94.2473 161.273 94.4451C162.403 94.1659 167.507 95.0774 170.33 93.7592C170.895 91.5664 170.149 89.2701 168.382 89.4883C166.466 89.725 164.409 88.6656 161.089 90.5274C158.714 87.6653 155.021 86.7187 153.296 85.0381H153.298Z" fill="#FDDDB6"/>
<path fill-rule="evenodd" clip-rule="evenodd" d="M173.776 88.7952C171.599 87.8005 163.646 88.9135 161.697 90.0432C158.599 87.8264 157.051 87.3217 154.244 85.5449C153.592 86.4028 152.928 88.0742 152.768 88.8451C155.774 91.3614 156.92 92.9773 160.94 94.6949C162.293 94.7818 167.818 94.425 170.423 94.5026C177.336 96.7453 176.098 89.8546 173.776 88.7952Z" fill="#FB394B"/>
<path fill-rule="evenodd" clip-rule="evenodd" d="M153.205 87.5044C152.995 88.0258 152.836 88.5157 152.768 88.8448C155.775 91.3611 156.92 92.977 160.94 94.6946C162.293 94.7815 167.818 94.4247 170.423 94.5023C175.382 96.1108 176.146 93.0214 175.325 90.7528C168.552 91.424 161.199 92.1376 161.199 92.1376L153.205 87.5044Z" fill="#F20010"/>
<path fill-rule="evenodd" clip-rule="evenodd" d="M177.774 80.9023C177.774 80.9023 172.777 75.8919 175.975 74.2132C175.506 67.0193 194.904 70.7577 187.709 86.4045C186.907 88.1499 185.161 94.6819 189.52 94.5894C186.951 99.2227 174.6 95.2661 177.772 80.9023H177.774Z" fill="#221E54"/>
<path fill-rule="evenodd" clip-rule="evenodd" d="M172.294 88.455C171.516 88.712 164.258 96.0686 167.816 101.024C169.207 102.959 168.185 105.244 167.716 108.622C167.716 108.622 165.419 111.976 167.002 113.694C169.048 114.794 173.477 114.248 175.664 114.448C175.664 114.448 180.395 115.543 181.89 113.455C183.23 111.584 182.106 111.214 181.816 108.535C181.093 101.863 183.189 94.9796 183.078 91.2505C182.342 89.923 178.048 86.9704 177.686 87.3586L172.296 88.455H172.294Z" fill="#FB394B"/>
<path fill-rule="evenodd" clip-rule="evenodd" d="M166.883 113.553C166.92 113.601 166.958 113.647 167.001 113.694C169.047 114.794 173.476 114.248 175.661 114.448C175.661 114.448 180.392 115.542 181.887 113.455C183.227 111.584 182.103 111.214 181.813 108.535C181.09 101.863 183.186 94.9794 183.075 91.2503C182.978 91.0728 182.824 90.8602 182.636 90.6235L177.534 93.5928C177.534 93.5928 179.016 101.138 179.267 105.217C179.665 111.701 173.626 113.503 166.883 113.551V113.553Z" fill="#F20010"/>
<path fill-rule="evenodd" clip-rule="evenodd" d="M171.829 85.5431C171.829 85.5431 173.359 89.0689 170.796 90.4629C170.242 92.6834 177.45 89.5625 178.799 88.1592C177.533 87.6989 177.457 84.4782 177.889 83.4169L177.016 83.2339L171.829 85.5431Z" fill="#FDCB90"/>
<path fill-rule="evenodd" clip-rule="evenodd" d="M179.323 73.4292C178.125 72.429 176.406 72.5177 175.483 73.627C174.56 74.7364 174.784 76.4466 175.981 77.4468C177.179 78.447 178.899 78.3583 179.821 77.249C180.744 76.1396 180.521 74.4276 179.323 73.4274V73.4292Z" fill="#1369B1"/>
<path fill-rule="evenodd" clip-rule="evenodd" d="M178.667 73.7103C177.233 72.5141 175.281 72.4938 174.307 73.6659C173.332 74.8381 173.705 76.7572 175.137 77.9553C176.571 79.1515 178.523 79.1718 179.498 77.9997C180.472 76.8275 180.099 74.9084 178.667 73.7103Z" fill="#3091D8"/>
<path fill-rule="evenodd" clip-rule="evenodd" d="M168.991 80.9303C168.996 81.8676 167.895 83.5464 167.896 83.8607C167.896 84.1602 169.186 84.0974 169.249 84.3192C169.57 85.4711 169.609 85.5506 169.96 87.6657C170.174 88.9543 176.573 86.5416 177.581 83.9143C177.636 83.772 177.739 84.1528 177.996 83.9513C179.598 82.6941 181.269 79.4863 179.009 79.5954C179.009 79.5954 178.489 74.4241 174.811 74.3298C174.811 74.3298 170.6 73.5311 169.864 75.6C168.435 77.5136 168.825 79.3236 168.991 80.9321V80.9303Z" fill="#FDDDB6"/>
<path fill-rule="evenodd" clip-rule="evenodd" d="M168.038 80.6877C170.494 80.9003 173.384 79.5525 174.365 77.4356C174.312 79.0182 175.964 80.806 177.744 81.0113L177.108 84.3373L178.794 80.6729C183.902 71.0977 167.863 69.3431 167.818 78.1862L168.038 80.6877Z" fill="#2B2468"/>
<path fill-rule="evenodd" clip-rule="evenodd" d="M148.55 63.9114L152.7 76.9218L165.664 81.1354C166.07 81.2666 166.293 81.7029 166.162 82.1097C166.108 82.2724 166.007 82.4074 165.878 82.4998L154.811 90.4739L154.819 104.133C154.819 104.56 154.472 104.908 154.044 104.906C153.861 104.906 153.695 104.843 153.564 104.738L142.599 96.675L129.636 100.902C129.23 101.033 128.794 100.811 128.662 100.404C128.61 100.241 128.614 100.075 128.662 99.9235L132.935 86.9537L124.917 75.9086C124.666 75.5629 124.742 75.0766 125.089 74.8252C125.239 74.7161 125.412 74.6699 125.584 74.6773L139.178 74.742L147.185 63.6895C147.436 63.3419 147.919 63.2643 148.266 63.5157C148.406 63.6174 148.502 63.7561 148.55 63.9095V63.9114Z" fill="#E6B46E"/>
<path fill-rule="evenodd" clip-rule="evenodd" d="M148.55 63.9111L152.7 76.9215L158.009 78.6465C153.595 81.7637 148.464 84.6682 142.806 87.142C138.999 88.806 135.212 90.163 131.533 91.215L132.935 86.9571L124.917 75.912C124.666 75.5663 124.742 75.0801 125.089 74.8286C125.239 74.7195 125.412 74.6733 125.584 74.6807L139.178 74.7454L147.185 63.6929C147.436 63.3454 147.919 63.2677 148.266 63.5191C148.406 63.6208 148.502 63.7595 148.55 63.913V63.9111Z" fill="#EEC790"/>
<path fill-rule="evenodd" clip-rule="evenodd" d="M157.882 95.477C155.655 95.416 152.927 92.0807 152.248 93.7982L152.134 94.0885L151.525 94.2401C150.366 94.6561 151.029 98.6238 152.767 98.9787C152.767 98.9787 153.717 99.2709 153.797 98.5054C153.797 98.5054 154.987 99.3522 156.86 98.5239C159.657 98.9806 166.634 102.262 170.299 101.358C171.31 100.539 177.005 98.8826 179.238 96.2073C178.771 93.7206 176.931 91.7534 175.248 92.8128C173.421 93.9609 170.842 93.8667 168.363 97.3277C164.606 95.5621 160.425 96.3589 157.886 95.477H157.882Z" fill="#FDDDB6"/>
<path fill-rule="evenodd" clip-rule="evenodd" d="M180.37 89.5492C177.704 89.7452 170.18 94.4801 168.745 96.549C164.561 95.7799 162.759 96.0017 159.077 95.5395C158.824 96.7154 158.943 98.7214 159.146 99.5793C163.377 100.696 165.301 101.787 170.18 101.615C171.588 101.06 177.01 98.0743 179.68 96.9151C185.664 96.1515 183.911 89.2885 180.37 89.5492Z" fill="#FB394B"/>
<path fill-rule="evenodd" clip-rule="evenodd" d="M158.949 97.9065C158.981 98.5758 159.054 99.1952 159.145 99.5798C163.376 100.696 165.301 101.787 170.18 101.615C171.588 101.061 177.009 98.0748 179.679 96.9156C183.058 96.4848 183.97 94.1108 183.486 92.1714C180.36 94.586 175.85 97.4665 169.528 100.223C169.528 100.223 164.341 99.1841 158.949 97.9047V97.9065Z" fill="#F20010"/>
<path fill-rule="evenodd" clip-rule="evenodd" d="M209 72.5474C209 72.5474 209.932 74.8048 209.655 75.5C209.547 75.7718 209.934 77.2268 209.947 77.9738C209.952 78.2918 209.668 78.2511 209.609 78.3121C209.458 78.473 208.79 76.6629 208.79 76.6629C208.79 76.6629 208.234 76.0491 206.804 79.7098C206.804 79.7098 206.83 81.3627 204.046 81.8101C204.046 81.8101 202.699 82.4166 201.743 81.4237C201.743 81.4237 201.348 80.8321 201.87 79.8614C201.87 79.8614 203.586 78.1938 203.885 75.8272C203.885 75.8272 204.184 74.5312 205.389 73.2185C205.389 73.2185 206.286 72.479 206.673 72.7637C207.061 73.0484 209.002 72.5474 209.002 72.5474H209Z" fill="#1A1840"/>
<path fill-rule="evenodd" clip-rule="evenodd" d="M220.722 76.3745C220.722 76.3745 222.497 78.6874 222.626 79.5009C222.658 79.7006 222.63 79.9077 222.573 80.1074C222.508 80.3218 222.735 81.7787 222.912 82.5257C222.99 82.8511 222.726 82.7901 222.68 82.8566C222.523 83.084 221.872 81.2925 221.872 81.2925C221.872 81.2925 221.543 80.7951 221.519 85.2342C221.519 85.2342 222.217 86.9666 219.46 88.5714C219.46 88.5714 218.286 89.7584 216.875 89.1002C216.875 89.1002 216.218 88.6361 216.376 87.4011C216.376 87.4011 217.511 84.9458 216.869 82.3297C216.869 82.3297 216.66 80.8414 217.399 78.9685C217.399 78.9685 217.461 77.6428 217.814 77.3692C218.829 76.5797 220.178 77.4912 220.722 76.3764V76.3745Z" fill="#1A1840"/>
<path fill-rule="evenodd" clip-rule="evenodd" d="M218.264 44.8383L207.067 50.6806C204.5 52.0192 203.745 54.1509 203.974 57.1905C204.33 61.9272 205.956 68.2836 205.681 73.0204C205.681 73.0204 207.152 73.3384 209.259 72.8928C209.259 72.8928 210.104 62.3673 209.783 59.52C209.783 59.52 209.379 57.0185 209.226 56.573L220.938 52.5646L224.869 44.6108L218.266 44.8401L218.264 44.8383Z" fill="#332A7C"/>
<path fill-rule="evenodd" clip-rule="evenodd" d="M207.496 73.1183C208.004 73.0943 208.6 73.0295 209.256 72.8909C209.256 72.8909 210.102 62.3653 209.781 59.5181C209.781 59.5181 209.376 57.0166 209.223 56.571L220.935 52.5627L224.866 44.6089L224.434 44.6237C218.799 49.2662 212.403 53.7533 206.961 55.7908C206.961 55.7908 208.373 66.2147 207.498 73.1183H207.496Z" fill="#221E54"/>
<path fill-rule="evenodd" clip-rule="evenodd" d="M229.05 54.1291L216.97 59.585C216.97 59.585 219.591 62.6079 220.991 76.3579C220.735 76.9994 219.375 78.7318 217.548 78.4767C217.548 78.4767 213.191 62.8316 211.575 60.8034C210.159 57.4274 212.248 55.8319 214.311 53.9682L223.106 46.7614L223.542 44.7054L231.39 41.6641C234.564 45.0955 235.388 50.4739 229.053 54.1309L229.05 54.1291Z" fill="#332A7C"/>
<path fill-rule="evenodd" clip-rule="evenodd" d="M229.05 54.129L216.971 59.5849C216.971 59.5849 219.591 62.6078 220.991 76.3578C220.846 76.722 220.344 77.4394 219.6 77.9441C219.03 70.3083 215.206 59.0673 215.062 58.459C217.602 57.492 226.459 53.9126 230.07 50.4386C232.646 47.9593 232.049 44.7571 230.257 42.1003L231.388 41.6621C234.562 45.0936 235.387 50.4719 229.052 54.129H229.05Z" fill="#221E54"/>
<path fill-rule="evenodd" clip-rule="evenodd" d="M211.667 21.8128C212.202 20.7608 212.886 19.8623 212.434 18.7622C213.056 18.263 212.519 17.3589 212.11 16.9022C211.931 16.6619 210.548 16.1627 209.532 17.2942C208.838 17.9949 208.196 18.8399 209.489 21.5743C209.735 25.4051 208.009 28.3504 209.762 32.5122C212.643 33.3053 218.194 29.7315 219.446 29.4893C223.973 28.2801 223.53 25.5253 221.853 23.8669C221.399 23.4528 215.254 27.3816 211.99 29.3617C212.305 27.5443 211.648 25.5641 211.667 21.8128Z" fill="#FDDDB6"/>
<path fill-rule="evenodd" clip-rule="evenodd" d="M224.581 22.4729C222.162 21.0567 218.842 22.9074 217.548 24.2293C214.376 27.4685 214.19 27.2356 212.76 28.7683L215.797 32.2848L223.204 26.4849L224.581 22.4729Z" fill="#FF7200"/>
<path fill-rule="evenodd" clip-rule="evenodd" d="M222.904 20.2652C221.869 22.3877 214.302 28.4815 218.256 32.3382C219.895 33.9356 219.575 37.3856 219.125 40.6266C219.125 40.6266 216.92 43.8455 218.441 45.4965C220.404 46.5522 224.657 46.029 226.755 46.2213C226.755 46.2213 231.299 47.2714 232.732 45.2691C234.019 43.4739 232.941 43.1189 232.662 40.5453C231.968 34.139 234.308 26.9987 234.201 23.4193C233.495 22.1436 230.134 19.5016 229.404 19.7808L222.904 20.2652Z" fill="#FFA000"/>
<path fill-rule="evenodd" clip-rule="evenodd" d="M231.598 37.4483C231.598 37.4483 228.088 40.6024 226.525 43.139L224.385 45.134L229.723 40.6006L234.229 36.2169L235.615 30.332L233.106 25.9798L231.748 22.5391C226.522 29.0064 233.654 32.8039 231.598 37.4483Z" fill="#FF7200"/>
<path fill-rule="evenodd" clip-rule="evenodd" d="M225.534 46.2214C224.833 46.4858 223.783 46.4747 222.211 45.9625C221.866 45.8498 220.546 43.8844 221.344 44.1599C221.628 44.2579 222.862 44.6018 223.276 44.5463C223.636 44.4964 224.257 44.4243 224.394 44.0878C224.436 43.9824 224.158 43.1652 223.772 43.2096C223.626 43.2262 223.158 43.2688 223.017 43.3094C222.894 43.3446 222.405 43.1837 222.512 43.1208C222.779 42.9637 223.108 42.7418 223.235 42.5662C223.388 42.3536 225.771 42.3924 226.01 42.2963C227.972 41.5049 230.157 38.458 232.569 37.8183C232.46 36.5759 232.432 35.3427 232.292 33.6454L236.368 33.2461C236.259 34.5532 235.934 36.3281 235.879 38.2731C233.709 41.7915 230.009 41.3959 227.287 44.0157C226.785 44.4982 225.911 45.6205 225.532 46.2232L225.534 46.2214Z" fill="#FDDDB6"/>
<path fill-rule="evenodd" clip-rule="evenodd" d="M232.314 34.4145C232.13 31.6209 230.244 29.2488 230.201 27.7882C231.128 15.1716 236.614 24.9372 236.396 33.4235C234.421 33.5289 233.419 33.7415 232.316 34.4145H232.314Z" fill="#FFA000"/>
<path fill-rule="evenodd" clip-rule="evenodd" d="M221.572 19.9342C221.572 19.9342 222.786 21.0416 222.157 22.3784C222.157 22.3784 222.873 24.0923 225.261 23.6245C226.536 23.3546 229.553 20.7791 229.217 19.1151C229.217 19.1151 228.662 19.1632 228.477 18.8267C228.477 18.8267 227.713 17.0037 227.909 14.8794L221.572 19.9342Z" fill="#FCBE72"/>
<path fill-rule="evenodd" clip-rule="evenodd" d="M219.943 14.0939C219.943 14.0939 219.675 16.4679 219.854 17.7658C219.73 18.7198 221.203 20.8164 222.006 21.0641C222.43 21.1954 223.711 21.249 226.333 19.5462C226.333 19.5462 227.425 18.6698 227.962 17.7473C227.962 17.7473 230.88 13.4838 230.169 11.7884C230.169 11.7884 229.045 7.83738 225.464 7.77822C225.464 7.77822 221.356 7.03867 220.659 9.05763C219.284 10.9324 219.765 12.5298 219.941 14.0921L219.943 14.0939Z" fill="#FDDDB6"/>
<path fill-rule="evenodd" clip-rule="evenodd" d="M225.628 22.6577C225.628 22.6577 227.905 18.4663 228.043 15.4249C226.519 15.8465 221.799 13.4337 221.657 11.167C221.657 11.167 219.775 12.9013 219.93 21.0751C219.93 21.0751 217.49 21.162 217.088 18.7289C217.256 14.5246 219.71 6.04754 224.799 6.38218C229.119 6.66691 230.797 9.1 231.251 12.4742C231.92 17.4494 230.614 24.2107 225.626 22.6577H225.628Z" fill="#1A1840"/>
<path fill-rule="evenodd" clip-rule="evenodd" d="M196.436 0.0590228C196.591 -0.048211 196.805 -0.00753611 196.91 0.147768L201.877 7.38235C201.984 7.53766 201.944 7.75212 201.791 7.85751C201.636 7.96474 201.422 7.92407 201.316 7.76876L196.347 0.53418C196.24 0.378875 196.281 0.164408 196.436 0.0590228Z" fill="#1A1840"/>
<path fill-rule="evenodd" clip-rule="evenodd" d="M191.541 6.06784C191.622 5.89775 191.827 5.82564 191.995 5.90699L199.908 9.68236C200.078 9.76371 200.15 9.96894 200.07 10.139C199.989 10.3091 199.784 10.3812 199.614 10.3017L191.702 6.52636C191.532 6.44501 191.46 6.23979 191.541 6.06969V6.06784Z" fill="#1A1840"/>
<path fill-rule="evenodd" clip-rule="evenodd" d="M190.3 13.7239C190.285 13.5372 190.425 13.3708 190.614 13.356L199.351 12.6627C199.539 12.6479 199.704 12.7884 199.718 12.977C199.733 13.1656 199.593 13.3301 199.405 13.3449L190.667 14.0401C190.481 14.0549 190.315 13.9144 190.3 13.7258V13.7239Z" fill="#1A1840"/>
<path fill-rule="evenodd" clip-rule="evenodd" d="M214.566 18.2132C214.256 18.6385 213.902 18.9675 213.368 19.2671C213.073 19.341 212.739 19.2134 212.505 19.1432C211.608 19.9863 210.711 20.8293 209.814 21.6724C209.287 21.2694 208.912 20.7609 208.809 20.197C209.257 19.4815 210.711 18.9749 211.363 18.1448C211.35 17.6826 211.339 17.2204 211.326 16.7563C211.61 16.6195 212.045 16.6084 212.508 16.7415C212.505 17.2019 213.322 17.6715 214.564 18.2114L214.566 18.2132Z" fill="#BCBBE2"/>
<path fill-rule="evenodd" clip-rule="evenodd" d="M215.009 18.3779C214.699 18.8031 214.347 19.1322 213.812 19.4317C213.516 19.5057 213.182 19.3781 212.948 19.3078C212.051 20.1509 211.154 20.994 210.258 21.8371C209.73 21.434 209.355 20.9256 209.252 20.3617C209.7 19.6462 211.154 19.1414 211.806 18.3095C211.793 17.8472 211.782 17.385 211.769 16.9228C212.055 16.786 212.49 16.7749 212.952 16.908C212.948 17.3684 213.766 17.838 215.007 18.3779H215.009Z" fill="#DCDCF4"/>
<path fill-rule="evenodd" clip-rule="evenodd" d="M208.811 20.1987L209.255 20.3633C209.322 20.9346 209.897 21.5595 210.261 21.8387L209.816 21.6741C209.532 21.4634 208.914 20.8939 208.811 20.1987Z" fill="#9592C5"/>
<path fill-rule="evenodd" clip-rule="evenodd" d="M217.177 15.0978L213.538 13.5596L211.988 17.2425L215.627 18.7789C216.493 19.145 217.498 18.7345 217.864 17.8674L218.087 17.3368C218.452 16.4697 218.043 15.462 217.177 15.096V15.0978Z" fill="#F61D2D"/>
<path fill-rule="evenodd" clip-rule="evenodd" d="M212.856 17.6439C208.931 16.4218 206.538 17.1189 203.303 17.8954L207.938 6.87988C209.641 9.74192 210.813 11.9439 214.428 13.9074C214.426 14.5231 214.282 15.2219 213.989 15.9208C213.695 16.6197 213.295 17.2113 212.858 17.6421L212.856 17.6439Z" fill="#E5E5F7"/>
<path fill-rule="evenodd" clip-rule="evenodd" d="M207.398 6.34908C206.038 5.77408 203.852 7.89103 202.512 11.0748C201.172 14.2585 201.189 17.3036 202.547 17.8786C203.905 18.4536 206.094 16.3366 207.433 13.1529C208.773 9.96914 208.756 6.92407 207.398 6.34908Z" fill="#1A1840"/>
<path fill-rule="evenodd" clip-rule="evenodd" d="M207.367 6.42299C206.049 5.86649 203.909 7.96309 202.586 11.1043C201.263 14.2474 201.261 17.2462 202.578 17.8027C203.896 18.3592 206.036 16.2626 207.36 13.1214C208.683 9.97835 208.684 6.9795 207.367 6.42299Z" fill="#332A7C"/>
<path fill-rule="evenodd" clip-rule="evenodd" d="M207.108 7.03525C206.127 6.6211 204.375 8.55871 203.196 11.3634C202.015 14.1681 201.855 16.7787 202.835 17.1929C203.816 17.607 205.568 15.6694 206.749 12.8647C207.93 10.06 208.09 7.44939 207.108 7.03525Z" fill="#C7AEF9"/>
<path fill-rule="evenodd" clip-rule="evenodd" d="M206.209 10.7144C206.196 10.7089 206.205 10.7144 206.205 10.7144C205.845 10.5702 205.356 11.2192 204.978 12.1177C204.599 13.0144 204.478 13.8205 204.832 13.9758C204.832 13.9758 204.819 13.9703 204.836 13.9777C204.852 13.9851 204.904 13.998 204.939 13.9999L206.068 14.2753C206.308 13.8372 206.537 13.3657 206.747 12.8647C206.963 12.3488 207.146 11.8404 207.294 11.3523L206.28 10.7607C206.258 10.7422 206.221 10.7218 206.207 10.7163L206.209 10.7144Z" fill="#2B2468"/>
<path fill-rule="evenodd" clip-rule="evenodd" d="M206.164 10.6959C205.887 10.5794 205.356 11.2154 204.977 12.1158C204.599 13.0162 204.516 13.8408 204.791 13.9573C205.068 14.0738 205.599 13.4377 205.978 12.5373C206.356 11.637 206.439 10.8124 206.162 10.6959H206.164Z" fill="#1A1840"/>
<path fill-rule="evenodd" clip-rule="evenodd" d="M235.112 165.823C241.159 165.823 246.85 166.15 246.06 166.34C242.511 167.193 222.337 166.767 224.269 166.268C225.005 166.015 229.58 165.821 235.114 165.821L235.112 165.823Z" fill="#B7D9F9"/>
<path fill-rule="evenodd" clip-rule="evenodd" d="M238.549 155.855C238.848 155.659 239.169 155.463 239.435 155.223C239.73 154.955 239.926 154.653 240.09 154.3C240.356 153.729 240.531 153.063 240.679 152.463C240.832 151.838 241.125 151.261 241.682 150.872C242.694 150.168 244.314 150.327 245.421 150.453C245.487 150.44 245.556 150.432 245.624 150.421C246.004 150.366 246.231 150.201 246.519 149.937C246.816 149.663 247.091 149.343 247.347 149.033C247.794 148.493 248.215 147.927 248.624 147.362C249.239 146.515 250.226 146.084 251.176 146.45C251.695 146.648 252.097 147.06 252.269 147.585C252.477 148.223 252.313 148.911 251.957 149.51C251.833 149.717 251.629 149.92 251.466 150.102C251.23 150.364 251.023 150.625 250.848 150.93C250.608 151.35 250.339 151.854 250.377 152.331C250.394 152.549 250.466 152.766 250.531 152.971C250.63 153.285 250.719 153.592 250.785 153.919C250.818 154.138 250.702 154.437 250.584 154.628C250.187 155.265 249.357 155.667 248.682 155.903H248.678L248.674 155.905C248.385 155.957 248.025 156.157 247.796 156.34C247.135 156.868 246.866 157.671 246.814 158.453C246.864 158.871 246.727 159.422 246.532 159.806C245.969 160.912 244.766 161.4 243.625 161.598C243.255 161.661 242.882 161.773 242.59 162.036C242.321 162.28 242.151 162.628 242.015 162.951C241.799 163.465 241.62 164.001 241.417 164.523C240.71 166.126 236.661 164.192 235.259 166.235L235.189 166.338L235.161 166.224C235.026 165.682 234.932 165.092 234.86 164.534C234.707 163.347 234.652 162.093 234.79 160.882C235.052 158.582 236.032 156.449 238.553 155.859L238.549 155.855Z" fill="#F2EDFF"/>
<path fill-rule="evenodd" clip-rule="evenodd" d="M235.211 166.205C235.211 166.205 232.969 157.209 238.568 155.907C239.666 155.192 240.121 154.962 240.732 152.47C241.267 150.285 243.174 150.255 245.417 150.507C246.012 150.397 246.309 150.636 248.667 147.389C250.298 145.145 253.402 146.968 251.907 149.482C251.693 149.841 251.199 150.2 250.798 150.902C249.946 152.396 250.422 152.435 250.728 153.929C250.728 153.929 250.9 155.064 248.665 155.848C248.665 155.848 246.903 156.168 246.757 158.455C246.757 158.455 247.067 160.945 243.618 161.539C242.179 161.786 242.122 162.552 241.363 164.499C240.682 166.043 236.634 164.129 235.211 166.202V166.205Z" fill="#C7AEF9"/>
<path fill-rule="evenodd" clip-rule="evenodd" d="M248.41 151.191C248.495 151.139 248.602 151.161 248.648 151.242C248.694 151.324 248.663 151.429 248.576 151.481C248.569 151.484 247.969 151.849 247.015 152.531C247.006 152.538 246.997 152.548 246.986 152.553C246.301 153.045 245.439 153.699 244.487 154.502C246.545 153.77 248.997 153.882 249.004 153.882C249.1 153.886 249.169 153.968 249.158 154.062C249.146 154.158 249.058 154.232 248.962 154.228C248.953 154.228 245.646 154.075 243.592 155.276C242.752 156.027 241.865 156.883 240.985 157.832C240.974 157.85 240.957 157.867 240.94 157.88C240.383 158.482 239.829 159.124 239.291 159.801C241.354 158.564 244.79 157.998 244.803 157.996C244.899 157.98 244.983 158.042 244.993 158.137C245.002 158.231 244.932 158.32 244.834 158.336C244.819 158.338 239.791 159.168 238.425 160.947L238.412 160.962C237.827 161.775 237.272 162.633 236.764 163.533C236.761 163.543 236.755 163.552 236.75 163.561C236.303 164.358 235.893 165.188 235.535 166.048C235.499 166.139 235.395 166.188 235.307 166.159C235.218 166.129 235.176 166.031 235.213 165.941C235.571 165.077 235.982 164.242 236.43 163.441C236.434 159.932 237.421 158.229 237.423 158.224C237.471 158.137 237.578 158.102 237.663 158.142C237.746 158.183 237.776 158.286 237.728 158.373C237.724 158.377 236.894 159.812 236.792 162.818C237.942 160.891 239.302 159.168 240.68 157.674C241.378 154.775 243.284 152.548 243.289 152.542C243.354 152.466 243.465 152.451 243.537 152.511C243.609 152.568 243.614 152.677 243.55 152.753C243.544 152.758 241.95 154.62 241.18 157.142C243.289 154.944 245.384 153.295 246.772 152.296C248.181 149.704 249.13 149.027 249.132 149.025C249.213 148.966 249.32 148.979 249.375 149.053C249.429 149.127 249.408 149.236 249.327 149.295C249.325 149.297 248.587 149.822 247.412 151.845C248.032 151.42 248.403 151.196 248.408 151.192L248.41 151.191Z" fill="#844BF0"/>
<path fill-rule="evenodd" clip-rule="evenodd" d="M233.317 155.739C233.034 155.535 232.728 155.328 232.49 155.079C232.224 154.801 232.069 154.489 231.955 154.127C231.772 153.539 231.7 152.856 231.647 152.239C231.593 151.597 231.381 151.004 230.859 150.599C229.91 149.863 228.172 149.998 226.98 150.107C226.911 150.094 226.841 150.085 226.771 150.074C226.378 150.009 226.166 149.839 225.909 149.564C225.644 149.279 225.406 148.948 225.188 148.626C224.81 148.068 224.461 147.482 224.123 146.898C223.618 146.023 222.651 145.566 221.582 145.923C221.001 146.117 220.505 146.531 220.233 147.066C219.903 147.713 219.958 148.419 220.233 149.037C220.327 149.249 220.51 149.462 220.652 149.649C220.857 149.92 221.03 150.19 221.163 150.505C221.346 150.937 221.543 151.457 221.422 151.945C221.366 152.167 221.254 152.387 221.15 152.596C220.992 152.916 220.846 153.226 220.719 153.561C220.645 153.783 220.719 154.091 220.809 154.287C221.119 154.946 221.927 155.369 222.601 155.622H222.605L222.61 155.624C222.907 155.683 223.252 155.892 223.463 156.083C224.072 156.632 224.219 157.456 224.138 158.257C224.014 158.684 224.062 159.248 224.204 159.644C224.61 160.782 225.799 161.302 226.971 161.52C227.351 161.592 227.727 161.711 227.989 161.984C228.233 162.238 228.353 162.596 228.441 162.929C228.583 163.458 228.679 164.007 228.805 164.543C229.277 166.192 233.887 164.284 235.02 166.394L235.077 166.501L235.127 166.383C235.363 165.832 235.562 165.231 235.734 164.663C236.099 163.454 236.372 162.175 236.433 160.934C236.549 158.58 235.88 156.386 233.317 155.741V155.739Z" fill="#F2EDFF"/>
<path fill-rule="evenodd" clip-rule="evenodd" d="M235.073 166.364C235.073 166.364 238.981 157.212 233.286 155.79C232.247 155.042 231.805 154.799 231.587 152.244C231.397 150.003 229.385 149.941 226.972 150.162C226.363 150.04 226.008 150.281 224.071 146.925C222.731 144.607 219.138 146.417 220.288 149.009C220.452 149.38 220.914 149.754 221.218 150.477C221.864 152.017 221.355 152.048 220.773 153.57C220.773 153.57 220.397 154.727 222.624 155.565C222.624 155.565 224.433 155.92 224.196 158.259C224.196 158.259 223.442 160.799 226.985 161.461C228.465 161.738 228.394 162.52 228.861 164.523C229.317 166.111 233.923 164.223 235.073 166.364Z" fill="#D7C6FB"/>
<path fill-rule="evenodd" clip-rule="evenodd" d="M223.693 150.81C223.612 150.756 223.496 150.777 223.433 150.86C223.37 150.941 223.387 151.052 223.468 151.106C223.473 151.109 224.047 151.49 224.939 152.204C224.948 152.213 224.957 152.221 224.968 152.226C225.607 152.74 226.406 153.422 227.275 154.258C225.226 153.476 222.615 153.552 222.606 153.552C222.505 153.554 222.418 153.635 222.414 153.733C222.41 153.831 222.49 153.909 222.591 153.907C222.602 153.907 226.123 153.805 228.087 155.068C228.847 155.85 229.637 156.736 230.404 157.719C230.414 157.739 230.428 157.756 230.443 157.771C230.928 158.396 231.404 159.061 231.857 159.76C229.888 158.462 226.354 157.826 226.341 157.824C226.241 157.806 226.142 157.869 226.116 157.965C226.09 158.061 226.149 158.154 226.249 158.172C226.263 158.174 231.436 159.104 232.576 160.944C232.58 160.949 232.584 160.955 232.587 160.958C233.067 161.798 233.506 162.683 233.888 163.61C233.892 163.621 233.896 163.63 233.901 163.639C234.237 164.46 234.527 165.314 234.757 166.2C234.781 166.292 234.881 166.344 234.981 166.314C235.08 166.285 235.141 166.187 235.117 166.093C234.887 165.203 234.595 164.345 234.259 163.519C234.855 159.934 234.104 158.179 234.102 158.174C234.065 158.085 233.958 158.046 233.864 158.085C233.768 158.126 233.72 158.231 233.757 158.32C233.759 158.324 234.392 159.801 233.986 162.876C233.1 160.89 231.958 159.106 230.757 157.558C230.515 154.585 228.882 152.28 228.876 152.272C228.821 152.195 228.707 152.178 228.62 152.235C228.533 152.293 228.509 152.404 228.565 152.483C228.568 152.489 229.936 154.417 230.318 157.005C228.465 154.724 226.533 153.005 225.237 151.962C224.191 149.29 223.305 148.584 223.304 148.582C223.228 148.521 223.112 148.53 223.042 148.606C222.971 148.682 222.975 148.793 223.051 148.854C223.053 148.856 223.743 149.405 224.638 151.49C224.055 151.045 223.702 150.81 223.697 150.806L223.693 150.81Z" fill="#844BF0"/>
<path fill-rule="evenodd" clip-rule="evenodd" d="M241.145 154.583C241.036 154.152 240.909 153.701 240.872 153.263C240.829 152.775 240.909 152.344 241.062 151.899C241.309 151.178 241.72 150.453 242.104 149.809C242.503 149.14 242.728 148.39 242.547 147.569C242.219 146.075 240.582 144.782 239.449 143.913C239.397 143.843 239.342 143.777 239.288 143.71C238.984 143.327 238.916 142.987 238.879 142.507C238.84 142.011 238.862 141.495 238.893 141.005C238.947 140.151 239.045 139.297 239.154 138.452C239.314 137.187 238.773 135.949 237.578 135.422C236.926 135.135 236.199 135.131 235.587 135.427C234.843 135.788 234.402 136.518 234.214 137.344C234.149 137.629 234.164 137.984 234.158 138.282C234.151 138.714 234.118 139.119 234.016 139.534C233.876 140.105 233.69 140.77 233.241 141.146C233.036 141.318 232.784 141.44 232.547 141.556C232.184 141.737 231.837 141.92 231.492 142.14C231.272 142.298 231.121 142.656 231.067 142.923C230.885 143.816 231.307 144.892 231.728 145.688L231.732 145.694L231.736 145.698C231.957 145.997 232.119 146.483 232.173 146.842C232.33 147.876 231.887 148.798 231.258 149.51C230.85 149.824 230.499 150.414 230.35 150.915C229.916 152.355 230.608 153.834 231.496 155.008C231.783 155.389 232.033 155.813 232.075 156.295C232.114 156.743 231.972 157.186 231.819 157.584C231.575 158.213 231.278 158.828 231.016 159.453C230.287 161.443 235.705 163.363 235.24 166.346L235.216 166.497L235.341 166.425C235.934 166.081 236.53 165.662 237.078 165.249C238.244 164.371 239.377 163.352 240.296 162.195C242.038 160 242.973 157.316 241.148 154.589L241.145 154.583Z" fill="#F2EDFF"/>
<path fill-rule="evenodd" clip-rule="evenodd" d="M235.301 166.36C235.301 166.36 245.144 160.658 241.082 154.611C240.684 153.03 240.457 152.435 242.044 149.769C243.437 147.432 241.695 145.723 239.401 143.961C238.946 143.344 238.464 143.287 239.084 138.435C239.512 135.081 235.063 133.898 234.277 137.363C234.164 137.858 234.314 138.6 234.079 139.552C233.581 141.578 233.105 141.194 231.531 142.198C231.531 142.198 230.391 143.015 231.784 145.655C231.784 145.655 233.142 147.482 231.302 149.563C231.302 149.563 228.865 151.416 231.544 154.964C232.662 156.445 232.057 157.147 231.075 159.479C230.372 161.396 235.773 163.334 235.301 166.358V166.36Z" fill="#E8DFFD"/>
<path fill-rule="evenodd" clip-rule="evenodd" d="M236.041 141.906C236.008 141.785 235.888 141.711 235.777 141.741C235.665 141.769 235.602 141.889 235.637 142.007C235.639 142.017 235.882 142.858 236.176 144.281C236.176 144.296 236.181 144.311 236.185 144.326C236.394 145.348 236.628 146.666 236.816 148.194C235.543 145.753 233.175 143.688 233.166 143.682C233.074 143.601 232.941 143.608 232.869 143.701C232.797 143.793 232.814 143.934 232.906 144.015C232.915 144.023 236.109 146.809 236.973 149.647C237.102 151.03 237.185 152.54 237.181 154.127C237.176 154.152 237.176 154.182 237.181 154.21C237.176 155.216 237.135 156.251 237.05 157.305C236.209 154.43 233.515 150.915 233.506 150.902C233.43 150.802 233.297 150.782 233.209 150.854C233.118 150.926 233.107 151.065 233.183 151.165C233.194 151.179 237.133 156.321 236.864 159.045C236.864 159.052 236.864 159.061 236.864 159.069C236.704 160.278 236.478 161.5 236.17 162.715C236.167 162.727 236.163 162.739 236.161 162.751C235.888 163.826 235.55 164.894 235.137 165.944C235.093 166.054 235.146 166.187 235.255 166.24C235.364 166.294 235.486 166.246 235.53 166.137C235.945 165.083 236.285 164.009 236.56 162.931C239.586 159.932 240.143 157.608 240.145 157.602C240.175 157.486 240.106 157.36 239.994 157.321C239.881 157.283 239.765 157.345 239.735 157.462C239.735 157.467 239.267 159.424 236.764 162.08C237.362 159.422 237.591 156.75 237.604 154.262C239.462 151.172 239.617 147.591 239.617 147.58C239.623 147.458 239.532 147.349 239.416 147.334C239.3 147.319 239.2 147.408 239.195 147.53C239.195 147.539 239.064 150.536 237.598 153.365C237.543 149.628 237.028 146.372 236.606 144.298C237.538 140.843 237.244 139.43 237.244 139.424C237.22 139.302 237.11 139.217 236.995 139.234C236.881 139.251 236.807 139.362 236.831 139.484C236.831 139.487 237.062 140.586 236.403 143.348C236.196 142.438 236.047 141.92 236.043 141.913L236.041 141.906Z" fill="#844BF0"/>
<path fill-rule="evenodd" clip-rule="evenodd" d="M101.199 131.009L101.25 135.03L104.539 137.333C104.642 137.406 104.668 137.548 104.596 137.652C104.566 137.692 104.528 137.722 104.482 137.737L100.68 139.029L99.5103 142.876C99.4734 142.997 99.3461 143.065 99.2261 143.028C99.1745 143.011 99.1339 142.98 99.1062 142.939L96.711 139.724L92.6975 139.796C92.572 139.796 92.4686 139.698 92.4668 139.572C92.4668 139.523 92.4816 139.476 92.5074 139.437L94.8251 136.154L93.5149 132.353C93.4743 132.234 93.5371 132.103 93.6552 132.062C93.7068 132.044 93.7604 132.046 93.8065 132.062L97.6281 133.253L100.832 130.831C100.931 130.755 101.075 130.776 101.151 130.875C101.182 130.916 101.197 130.964 101.197 131.01L101.199 131.009Z" fill="#FFC105"/>
<path fill-rule="evenodd" clip-rule="evenodd" d="M101.198 131.008L101.25 135.03L102.597 135.973C101.087 136.47 99.3916 136.845 97.5869 137.054C96.3727 137.195 95.1898 137.25 94.0642 137.23L94.8245 136.152L93.5143 132.351C93.4737 132.232 93.5365 132.101 93.6546 132.06C93.7062 132.042 93.7597 132.044 93.8059 132.06L97.6275 133.251L100.831 130.829C100.931 130.753 101.075 130.774 101.15 130.873C101.182 130.914 101.196 130.962 101.196 131.008H101.198Z" fill="#FFDE05"/>
<path fill-rule="evenodd" clip-rule="evenodd" d="M131.169 22.8021L132.339 24.0686L134.047 23.856C134.101 23.8486 134.149 23.8874 134.156 23.941C134.158 23.9632 134.154 23.9836 134.145 24.0002L133.306 25.507L134.036 27.0693C134.058 27.1174 134.036 27.1765 133.988 27.1987C133.968 27.208 133.946 27.2098 133.924 27.2043L132.239 26.8696L130.982 28.0492C130.944 28.0862 130.881 28.0843 130.844 28.0437C130.829 28.0289 130.822 28.0085 130.818 27.9882L130.615 26.2743L129.108 25.4405C129.06 25.4146 129.043 25.3554 129.069 25.3073C129.08 25.287 129.096 25.2722 129.117 25.2648L130.676 24.5438L131.003 22.8502C131.014 22.7966 131.064 22.7615 131.117 22.7726C131.139 22.7763 131.156 22.7873 131.171 22.8021H131.169Z" fill="#FFC105"/>
<path fill-rule="evenodd" clip-rule="evenodd" d="M131.169 22.8019L132.339 24.0683L133.038 23.9814C132.7 24.5749 132.267 25.1832 131.752 25.7693C131.405 26.1631 131.045 26.5218 130.68 26.8398L130.613 26.2777L129.106 25.4439C129.058 25.418 129.041 25.3588 129.067 25.3108C129.078 25.2904 129.094 25.2756 129.115 25.2682L130.674 24.5472L131.001 22.8536C131.012 22.8 131.062 22.7649 131.115 22.776C131.137 22.7797 131.154 22.7908 131.169 22.8056V22.8019Z" fill="#FFDE05"/>
<path fill-rule="evenodd" clip-rule="evenodd" d="M175.103 41.4123L175.88 42.9524L177.582 43.2187C177.635 43.2261 177.672 43.2778 177.663 43.3296C177.659 43.3518 177.65 43.3703 177.635 43.3832L176.414 44.5998L176.689 46.3026C176.698 46.3562 176.661 46.4061 176.607 46.4154C176.585 46.4191 176.563 46.4154 176.545 46.4043L175.017 45.6185L173.485 46.4061C173.437 46.4301 173.378 46.4117 173.354 46.3636C173.345 46.3451 173.341 46.3229 173.345 46.3044L173.62 44.6016L172.398 43.3851C172.359 43.3462 172.359 43.2852 172.398 43.2464C172.415 43.2298 172.435 43.2205 172.457 43.2187L174.155 42.9543L174.932 41.4142C174.956 41.3661 175.015 41.3458 175.063 41.3717C175.081 41.3809 175.096 41.3957 175.105 41.4142L175.103 41.4123Z" fill="#FFC105"/>
<path fill-rule="evenodd" clip-rule="evenodd" d="M175.103 41.4123L175.88 42.9524L176.578 43.0615C176.09 43.5385 175.507 44.0044 174.85 44.426C174.409 44.7107 173.965 44.9548 173.525 45.16L173.616 44.6016L172.394 43.3851C172.356 43.3462 172.356 43.2852 172.394 43.2464C172.411 43.2298 172.431 43.2205 172.453 43.2187L174.151 42.9543L174.928 41.4142C174.952 41.3661 175.011 41.3458 175.059 41.3717C175.077 41.3809 175.092 41.3976 175.101 41.4142L175.103 41.4123Z" fill="#FFDE05"/>
<path fill-rule="evenodd" clip-rule="evenodd" d="M49.406 40.0795L49.7714 41.7656L51.3509 42.4516C51.4008 42.4737 51.4229 42.5311 51.4026 42.581C51.3952 42.6013 51.3805 42.6161 51.362 42.6272L49.8747 43.4962L49.7105 45.2138C49.7049 45.2674 49.6569 45.3062 49.6034 45.3025C49.5813 45.3007 49.561 45.2896 49.5444 45.2748L48.2619 44.1285L46.5808 44.5038C46.5273 44.5149 46.4756 44.4816 46.4646 44.4298C46.459 44.4095 46.4627 44.3873 46.4701 44.3688L47.1639 42.7899L46.2893 41.3034C46.2616 41.2572 46.2763 41.1962 46.3243 41.1685C46.3446 41.1574 46.3668 41.1537 46.3889 41.1555L48.0977 41.3275L49.2381 40.0333C49.2731 39.9926 49.3359 39.9889 49.3765 40.024C49.3931 40.0388 49.4023 40.0573 49.4078 40.0776L49.406 40.0795Z" fill="#FFC105"/>
<path fill-rule="evenodd" clip-rule="evenodd" d="M49.406 40.0795L49.7714 41.7656L50.4172 42.0467C49.8249 42.385 49.144 42.6882 48.404 42.9323C47.9058 43.095 47.4131 43.2207 46.937 43.3076L47.1639 42.7899L46.2893 41.3034C46.2616 41.2572 46.2763 41.1962 46.3243 41.1685C46.3446 41.1574 46.3668 41.1537 46.3889 41.1555L48.0977 41.3275L49.2381 40.0333C49.2731 39.9926 49.3359 39.9889 49.3765 40.024C49.3931 40.0388 49.4023 40.0573 49.4078 40.0776L49.406 40.0795Z" fill="#FFDE05"/>
<path fill-rule="evenodd" clip-rule="evenodd" d="M119.297 126.602L120.478 127.858L122.185 127.63C122.238 127.623 122.288 127.66 122.296 127.714C122.299 127.736 122.296 127.756 122.285 127.773L121.458 129.287L122.201 130.844C122.225 130.892 122.203 130.951 122.155 130.973C122.135 130.984 122.113 130.986 122.091 130.981L120.402 130.661L119.155 131.851C119.116 131.888 119.053 131.886 119.016 131.848C119.002 131.831 118.993 131.813 118.991 131.792L118.773 130.08L117.258 129.259C117.21 129.233 117.193 129.174 117.219 129.126C117.23 129.106 117.247 129.091 117.267 129.082L118.819 128.348L119.131 126.651C119.14 126.597 119.192 126.562 119.245 126.573C119.267 126.577 119.286 126.588 119.299 126.602H119.297Z" fill="#FFC105"/>
<path fill-rule="evenodd" clip-rule="evenodd" d="M119.297 126.603L120.478 127.858L121.177 127.765C120.843 128.361 120.417 128.973 119.908 129.564C119.565 129.962 119.207 130.322 118.845 130.644L118.773 130.082L117.258 129.261C117.21 129.235 117.193 129.176 117.219 129.128C117.23 129.108 117.247 129.093 117.267 129.084L118.819 128.35L119.131 126.652C119.14 126.599 119.192 126.564 119.245 126.575C119.267 126.578 119.286 126.59 119.299 126.604L119.297 126.603Z" fill="#FFDE05"/>
</g>
<defs>
<clipPath id="clip0_1084_25445">
<rect width="262" height="167" fill="white"/>
</clipPath>
</defs>
</svg>
