<svg width="20" height="20" viewBox="0 0 20 20" fill="none" xmlns="http://www.w3.org/2000/svg">
<path d="M11.6726 7.58529H11.1038C11.0714 7.5853 11.0401 7.57435 11.0148 7.55421C10.9895 7.53407 10.9717 7.50595 10.9645 7.47443L10.8121 6.81158C10.5469 6.74992 10.2936 6.6452 10.0623 6.50158L9.48621 6.862C9.45882 6.8792 9.42641 6.88659 9.39428 6.88295C9.36215 6.87932 9.3322 6.86488 9.30935 6.842L8.90735 6.43958C8.88453 6.41672 8.87013 6.3868 8.8665 6.35471C8.86286 6.32262 8.87021 6.29024 8.88735 6.26286L9.24778 5.68686C9.1041 5.45561 8.99938 5.20233 8.93778 4.93715L8.27492 4.78443C8.24343 4.77719 8.21532 4.7595 8.19519 4.73422C8.17505 4.70895 8.16408 4.6776 8.16406 4.64529V4.07643C8.16405 4.0441 8.17501 4.01271 8.19514 3.98741C8.21528 3.96211 8.2434 3.94439 8.27492 3.93715L8.93778 3.78458C8.99941 3.5194 9.10413 3.26613 9.24778 3.03486L8.8872 2.45886C8.87009 2.43147 8.86276 2.39908 8.86642 2.36699C8.87008 2.33489 8.88451 2.30499 8.90735 2.28215L9.30949 1.87986C9.33232 1.85694 9.36227 1.84247 9.39441 1.83883C9.42656 1.8352 9.45898 1.84262 9.48635 1.85986L10.0625 2.22029C10.2938 2.07661 10.547 1.97184 10.8122 1.91015L10.9646 1.24729C10.9719 1.21585 10.9897 1.18781 11.0149 1.16773C11.0402 1.14765 11.0715 1.13672 11.1038 1.13672H11.6726C11.705 1.1367 11.7363 1.14764 11.7616 1.16774C11.7869 1.18785 11.8046 1.21595 11.8119 1.24743L11.9643 1.91029C12.2296 1.97193 12.4829 2.07665 12.7142 2.22029L13.2902 1.85986C13.3176 1.84261 13.35 1.8352 13.3822 1.83886C13.4143 1.84252 13.4443 1.85704 13.4671 1.88L13.8692 2.28229C13.892 2.30515 13.9064 2.33506 13.9101 2.36716C13.9137 2.39925 13.9063 2.43163 13.8892 2.459L13.5288 3.035C13.6724 3.26627 13.7771 3.51954 13.8388 3.78472L14.5016 3.93729C14.5331 3.94453 14.5613 3.96225 14.5814 3.98755C14.6015 4.01286 14.6125 4.04424 14.6125 4.07658V4.64543C14.6125 4.67774 14.6015 4.7091 14.5814 4.73437C14.5612 4.75964 14.5331 4.77734 14.5016 4.78458L13.8388 4.93729C13.7772 5.20248 13.6724 5.45575 13.5288 5.687L13.8893 6.263C13.9065 6.2904 13.9138 6.32278 13.9101 6.35488C13.9065 6.38697 13.892 6.41688 13.8692 6.43972L13.4671 6.842C13.4442 6.86488 13.4143 6.87932 13.3821 6.88295C13.35 6.88659 13.3176 6.8792 13.2902 6.862L12.7142 6.50158C12.4829 6.64522 12.2296 6.74994 11.9643 6.81158L11.8119 7.47443C11.8047 7.50595 11.787 7.53407 11.7617 7.55421C11.7364 7.57435 11.705 7.5853 11.6726 7.58529ZM11.2175 7.29958H11.5589L11.7063 6.65886C11.7125 6.63195 11.7264 6.60742 11.7463 6.58823C11.7661 6.56903 11.7911 6.55601 11.8182 6.55072C12.1097 6.49429 12.3868 6.37972 12.6331 6.21386C12.656 6.19842 12.6828 6.18995 12.7104 6.18947C12.7381 6.18898 12.7652 6.19652 12.7886 6.21115L13.3453 6.55958L13.5868 6.31815L13.2383 5.76143C13.2237 5.73803 13.2161 5.71088 13.2166 5.68327C13.2171 5.65566 13.2255 5.62877 13.2409 5.60586C13.407 5.35968 13.5216 5.08253 13.5781 4.791C13.5833 4.7639 13.5964 4.73891 13.6156 4.71906C13.6348 4.69921 13.6593 4.68535 13.6862 4.67915L14.3268 4.53172V4.19029L13.6862 4.04286C13.6593 4.03669 13.6347 4.02283 13.6155 4.00298C13.5963 3.98313 13.5832 3.95812 13.5779 3.931C13.5215 3.63945 13.4069 3.36226 13.2409 3.116C13.2255 3.09311 13.2171 3.06625 13.2166 3.03867C13.2162 3.01109 13.2237 2.98397 13.2383 2.96058L13.5868 2.40386L13.3453 2.16243L12.7886 2.51072C12.7653 2.52546 12.7381 2.53307 12.7105 2.53261C12.6828 2.53215 12.6559 2.52365 12.6331 2.50815C12.3868 2.34224 12.1097 2.22762 11.8182 2.17115C11.7911 2.16586 11.7661 2.15283 11.7463 2.13364C11.7264 2.11445 11.7125 2.08991 11.7063 2.063L11.5588 1.42243H11.2173L11.0699 2.063C11.0637 2.08991 11.0499 2.11445 11.03 2.13364C11.0102 2.15283 10.9852 2.16586 10.9581 2.17115C10.6666 2.22762 10.3894 2.34224 10.1432 2.50815C10.1203 2.52365 10.0934 2.53215 10.0658 2.53261C10.0382 2.53307 10.011 2.52546 9.98763 2.51072L9.43092 2.16243L9.18949 2.40386L9.53792 2.96058C9.55254 2.98397 9.56008 3.01109 9.55963 3.03867C9.55917 3.06625 9.55074 3.09311 9.53535 3.116C9.36932 3.36224 9.25465 3.63944 9.19821 3.931C9.19292 3.95811 9.17989 3.98309 9.1607 4.00295C9.1415 4.0228 9.11697 4.03666 9.09006 4.04286L8.44949 4.19029V4.53172L9.09006 4.67915C9.117 4.68532 9.14156 4.69918 9.16078 4.71903C9.18 4.73888 9.19305 4.76388 9.19835 4.791C9.25474 5.08252 9.36936 5.35967 9.53535 5.60586C9.55077 5.62877 9.55921 5.65566 9.55967 5.68327C9.56013 5.71088 9.55257 5.73803 9.53792 5.76143L9.18949 6.31815L9.43092 6.55958L9.98763 6.21115C10.0111 6.19652 10.0382 6.18898 10.0658 6.18947C10.0934 6.18995 10.1203 6.19842 10.1432 6.21386C10.3895 6.37972 10.6666 6.49429 10.9581 6.55072C10.9852 6.55601 11.0102 6.56903 11.03 6.58823C11.0499 6.60742 11.0637 6.63195 11.0699 6.65886L11.2173 7.29958H11.2175ZM14.4696 4.64529H14.4711H14.4696Z" fill="black" stroke="black" stroke-width="0.35"/>
<path d="M11.3851 5.74685C10.6214 5.74685 10 5.12542 10 4.36171C10 3.59799 10.6214 2.97656 11.3851 2.97656C12.1489 2.97656 12.7703 3.59799 12.7703 4.36171C12.7703 5.12542 12.1489 5.74685 11.3851 5.74685ZM11.3851 3.26228C10.779 3.26228 10.2857 3.75542 10.2857 4.36171C10.2857 4.96785 10.779 5.46113 11.3851 5.46113C11.9913 5.46113 12.4846 4.96785 12.4846 4.36171C12.4846 3.75542 11.9914 3.26228 11.3851 3.26228ZM17.4143 8.75713H17.0019C16.9695 8.75715 16.9382 8.74622 16.9129 8.72611C16.8876 8.706 16.8698 8.67791 16.8626 8.64642L16.7574 8.18928C16.5776 8.145 16.4055 8.07387 16.2469 7.97828L15.8497 8.22671C15.8223 8.24384 15.79 8.25119 15.7579 8.24756C15.7258 8.24393 15.6959 8.22952 15.673 8.20671L15.3814 7.91499C15.3586 7.89213 15.3442 7.86222 15.3406 7.83013C15.3369 7.79803 15.3443 7.76566 15.3614 7.73828L15.6099 7.34113C15.5142 7.18262 15.443 7.01059 15.3987 6.83085L14.9419 6.72556C14.9104 6.71832 14.8823 6.70063 14.8621 6.67535C14.842 6.65008 14.831 6.61873 14.831 6.58642V6.17385C14.831 6.14151 14.8419 6.11013 14.8621 6.08483C14.8822 6.05953 14.9103 6.04181 14.9419 6.03456L15.3987 5.92956C15.443 5.74972 15.5142 5.5776 15.6099 5.41899L15.3613 5.02185C15.3442 4.99447 15.3368 4.96209 15.3404 4.93C15.3441 4.89791 15.3585 4.86799 15.3813 4.84513L15.673 4.55371C15.6958 4.53074 15.7257 4.51622 15.7579 4.51253C15.79 4.50884 15.8225 4.51621 15.8499 4.53342L16.2469 4.78199C16.4055 4.68635 16.5776 4.61517 16.7574 4.57085L16.8626 4.11399C16.8698 4.0825 16.8876 4.05441 16.9129 4.0343C16.9382 4.01419 16.9695 4.00326 17.0019 4.00328H17.4141C17.4465 4.00326 17.4778 4.01419 17.5031 4.0343C17.5284 4.05441 17.5462 4.0825 17.5534 4.11399L17.6586 4.57085C17.8393 4.61556 18.0103 4.68628 18.1691 4.78199L18.5663 4.53342C18.5936 4.5162 18.6261 4.50882 18.6582 4.51248C18.6903 4.51614 18.7202 4.53063 18.743 4.55356L19.0344 4.84513C19.0573 4.86797 19.0717 4.89788 19.0754 4.92997C19.079 4.96207 19.0717 4.99445 19.0546 5.02185L18.8063 5.41899C18.9019 5.57762 18.973 5.74974 19.0173 5.92956L19.4741 6.03456C19.5057 6.04181 19.5338 6.05953 19.5539 6.08483C19.5741 6.11013 19.585 6.14151 19.585 6.17385V6.58642C19.585 6.61873 19.574 6.65008 19.5539 6.67535C19.5337 6.70063 19.5056 6.71832 19.4741 6.72556L19.0173 6.83085C18.973 7.01061 18.9018 7.18268 18.8063 7.34128L19.0546 7.73842C19.0717 7.76578 19.079 7.79813 19.0754 7.83019C19.0717 7.86226 19.0574 7.89214 19.0346 7.91499L18.743 8.20656C18.7202 8.22946 18.6902 8.24393 18.6581 8.24758C18.626 8.25124 18.5935 8.24388 18.5661 8.22671L18.1691 7.97813C18.0105 8.07378 17.8384 8.14496 17.6586 8.18928L17.5534 8.64642C17.5462 8.67791 17.5284 8.706 17.5031 8.72611C17.4778 8.74622 17.4465 8.75715 17.4141 8.75713H17.4143ZM17.1156 8.47142H17.3004L17.4004 8.03713C17.4067 8.01025 17.4205 7.98575 17.4404 7.96658C17.4602 7.94742 17.4852 7.93441 17.5123 7.92913C17.7185 7.88933 17.9146 7.80828 18.0887 7.69085C18.1116 7.67542 18.1384 7.66695 18.166 7.66647C18.1936 7.66599 18.2207 7.67351 18.2441 7.68813L18.6213 7.92428L18.7521 7.79342L18.5161 7.41628C18.5015 7.39287 18.4939 7.36572 18.4944 7.33811C18.4948 7.3105 18.5033 7.28361 18.5187 7.26071C18.6361 7.08652 18.7172 6.89048 18.7571 6.68428C18.7624 6.65719 18.7755 6.63223 18.7947 6.6124C18.8139 6.59257 18.8384 6.57873 18.8653 6.57256L19.2993 6.47256V6.28756L18.8653 6.18785C18.8384 6.18164 18.8138 6.16775 18.7946 6.14787C18.7754 6.128 18.7624 6.10298 18.7571 6.07585C18.7172 5.86965 18.6361 5.6736 18.5187 5.49942C18.5033 5.47651 18.4948 5.44962 18.4944 5.42201C18.4939 5.3944 18.5015 5.36725 18.5161 5.34385L18.7521 4.96671L18.6214 4.83599L18.2443 5.07199C18.2209 5.0867 18.1937 5.09428 18.166 5.0938C18.1384 5.09332 18.1115 5.0848 18.0886 5.06928C17.9145 4.95186 17.7185 4.87082 17.5123 4.83099C17.4852 4.82571 17.4602 4.81271 17.4404 4.79354C17.4205 4.77438 17.4067 4.74987 17.4004 4.72299L17.3004 4.28899H17.1156L17.0156 4.72299C17.0093 4.74987 16.9955 4.77438 16.9756 4.79354C16.9558 4.81271 16.9308 4.82571 16.9037 4.83099C16.6975 4.8708 16.5014 4.95185 16.3273 5.06928C16.3044 5.08474 16.2776 5.09323 16.25 5.09371C16.2224 5.09419 16.1952 5.08665 16.1719 5.07199L15.7947 4.83599L15.6639 4.96685L15.8999 5.34399C15.9145 5.36738 15.922 5.3945 15.9216 5.42209C15.9211 5.44967 15.9127 5.47653 15.8973 5.49942C15.7799 5.67358 15.6988 5.86963 15.6589 6.07585C15.6536 6.10298 15.6406 6.128 15.6214 6.14787C15.6022 6.16775 15.5776 6.18164 15.5507 6.18785L15.1167 6.28756V6.47271L15.5507 6.57256C15.5776 6.57876 15.6022 6.59263 15.6214 6.61248C15.6405 6.63233 15.6536 6.65732 15.6589 6.68442C15.6988 6.89059 15.7799 7.08659 15.8973 7.26071C15.9127 7.28363 15.9212 7.31054 15.9217 7.33818C15.9221 7.36582 15.9145 7.393 15.8999 7.41642L15.6639 7.79342L15.7946 7.92428L16.1717 7.68813C16.1951 7.67345 16.2223 7.6659 16.25 7.66638C16.2776 7.66686 16.3045 7.67536 16.3274 7.69085C16.5015 7.80826 16.6975 7.88931 16.9037 7.92913C16.9308 7.93442 16.9558 7.94745 16.9757 7.96664C16.9955 7.98583 17.0094 8.01037 17.0156 8.03728L17.1156 8.47142ZM19.4421 6.58642H19.4436H19.4421Z" fill="black" stroke="black" stroke-width="0.35"/>
<path d="M17.2087 7.25491C16.9766 7.25468 16.754 7.16238 16.5899 6.99826C16.4257 6.83414 16.3334 6.6116 16.3331 6.37948C16.3331 5.89662 16.726 5.50391 17.2087 5.50391C17.6914 5.50391 18.0843 5.89676 18.0843 6.37962C18.084 6.61172 17.9916 6.83422 17.8275 6.99831C17.6633 7.1624 17.4408 7.25468 17.2087 7.25491ZM17.2087 5.78962C16.8834 5.78962 16.6188 6.05433 16.6188 6.37962C16.6188 6.70491 16.8834 6.96919 17.2087 6.96919C17.534 6.96919 17.7985 6.70476 17.7985 6.37948C17.7985 6.05419 17.534 5.78962 17.2087 5.78962ZM13.6998 13.7329H13.1944C13.1621 13.7329 13.1307 13.7219 13.1055 13.7018C13.0802 13.6816 13.0625 13.6535 13.0553 13.622L12.922 13.0429C12.6914 12.9883 12.471 12.8971 12.2691 12.7729L11.7655 13.0879C11.7382 13.105 11.7058 13.1124 11.6737 13.1088C11.6416 13.1051 11.6117 13.0907 11.5888 13.0679L11.2314 12.7105C11.2086 12.6876 11.1941 12.6577 11.1905 12.6255C11.1869 12.5934 11.1942 12.561 11.2114 12.5336L11.5264 12.0303C11.4022 11.8285 11.3111 11.6081 11.2564 11.3775L10.6771 11.244C10.6456 11.2368 10.6175 11.219 10.5974 11.1937C10.5773 11.1684 10.5664 11.1371 10.5664 11.1048V10.5996C10.5664 10.5673 10.5774 10.536 10.5975 10.5107C10.6176 10.4855 10.6457 10.4677 10.6771 10.4605L11.2564 10.327C11.3111 10.0964 11.4022 9.87605 11.5264 9.67419L11.2114 9.17076C11.1943 9.14338 11.1869 9.11101 11.1906 9.07891C11.1942 9.04682 11.2086 9.01691 11.2314 8.99405L11.5888 8.63662C11.6117 8.61378 11.6416 8.59936 11.6737 8.59573C11.7058 8.5921 11.7382 8.59946 11.7655 8.61662L12.2691 8.93162C12.471 8.80741 12.6914 8.71626 12.922 8.66162L13.0553 8.08233C13.0625 8.05087 13.0802 8.0228 13.1055 8.00269C13.1308 7.98258 13.1621 7.97163 13.1944 7.97162H13.6998C13.7322 7.9716 13.7635 7.98254 13.7888 8.00265C13.8141 8.02275 13.8318 8.05085 13.8391 8.08233L13.9724 8.66162C14.203 8.71626 14.4234 8.80741 14.6253 8.93162L15.1287 8.61648C15.1561 8.59926 15.1885 8.59187 15.2206 8.59554C15.2527 8.5992 15.2826 8.61369 15.3054 8.63662L15.6628 8.99391C15.6857 9.01676 15.7001 9.04668 15.7037 9.07877C15.7073 9.11086 15.7 9.14324 15.6828 9.17062L15.3678 9.67419C15.492 9.87604 15.5832 10.0964 15.6378 10.327L16.2171 10.4603C16.2486 10.4676 16.2767 10.4853 16.2968 10.5106C16.3169 10.5358 16.3278 10.5672 16.3278 10.5995V11.1048C16.3279 11.1371 16.3169 11.1684 16.2968 11.1937C16.2767 11.219 16.2486 11.2368 16.2171 11.244L15.6377 11.3775C15.5831 11.6081 15.492 11.8285 15.3678 12.0303L15.6828 12.5336C15.7 12.561 15.7074 12.5934 15.7037 12.6255C15.7001 12.6577 15.6857 12.6876 15.6628 12.7105L15.3054 13.0679C15.2825 13.0907 15.2526 13.1051 15.2205 13.1088C15.1884 13.1124 15.1561 13.105 15.1287 13.0879L14.6253 12.7729C14.4234 12.8971 14.203 12.9883 13.9724 13.0429L13.8391 13.622C13.8319 13.6536 13.8142 13.6817 13.7889 13.7018C13.7636 13.722 13.7322 13.7329 13.6998 13.7329ZM13.3081 13.4472H13.5861L13.7143 12.8903C13.7205 12.8635 13.7344 12.8389 13.7542 12.8198C13.7741 12.8006 13.799 12.7876 13.8261 12.7823C14.0831 12.7326 14.3274 12.6315 14.5444 12.4852C14.5673 12.4698 14.5942 12.4613 14.6217 12.4609C14.6493 12.4604 14.6765 12.468 14.6998 12.4826L15.1838 12.7855L15.3804 12.5888L15.0775 12.1049C15.0629 12.0815 15.0554 12.0543 15.0559 12.0267C15.0563 11.9991 15.0648 11.9722 15.0803 11.9493C15.2265 11.7324 15.3275 11.4881 15.3771 11.2312C15.3824 11.2041 15.3954 11.1791 15.4146 11.1592C15.4338 11.1394 15.4584 11.1255 15.4853 11.1193L16.0421 10.991V10.7132L15.4853 10.585C15.4583 10.5788 15.4338 10.565 15.4146 10.5451C15.3954 10.5252 15.3824 10.5002 15.3771 10.473C15.3275 10.2161 15.2265 9.97189 15.0803 9.75491C15.0648 9.732 15.0564 9.70511 15.0559 9.6775C15.0555 9.64989 15.063 9.62274 15.0777 9.59933L15.3804 9.11562L15.1838 8.91891L14.6998 9.22176C14.6765 9.23645 14.6493 9.24402 14.6217 9.24354C14.5941 9.24305 14.5673 9.23455 14.5444 9.21905C14.3274 9.07277 14.0831 8.97175 13.8261 8.92205C13.799 8.91676 13.774 8.90373 13.7542 8.88454C13.7343 8.86535 13.7205 8.84081 13.7143 8.81391L13.5861 8.25719H13.3081L13.18 8.81391C13.1738 8.8408 13.1599 8.86532 13.1401 8.88451C13.1203 8.9037 13.0953 8.91674 13.0683 8.92205C12.8113 8.9718 12.567 9.07286 12.35 9.21919C12.3271 9.23473 12.3002 9.24324 12.2725 9.2437C12.2448 9.24416 12.2177 9.23653 12.1943 9.22176L11.7104 8.91891L11.5138 9.11562L11.8167 9.59933C11.8314 9.62276 11.8389 9.64993 11.8385 9.67757C11.838 9.70521 11.8296 9.73213 11.8141 9.75505C11.6678 9.97197 11.5667 10.2162 11.517 10.473C11.5117 10.5002 11.4987 10.5252 11.4796 10.545C11.4604 10.5649 11.4359 10.5788 11.409 10.585L10.8521 10.7132V10.991L11.409 11.1193C11.4359 11.1255 11.4604 11.1394 11.4796 11.1592C11.4988 11.1791 11.5118 11.2041 11.5171 11.2312C11.5668 11.4881 11.6678 11.7324 11.8141 11.9493C11.8296 11.9723 11.838 11.9992 11.8385 12.0268C11.8389 12.0544 11.8314 12.0816 11.8167 12.105L11.5138 12.5888L11.7104 12.7855L12.1944 12.4826C12.2178 12.4679 12.245 12.4604 12.2726 12.4608C12.3002 12.4613 12.3271 12.4698 12.35 12.4852C12.567 12.6315 12.8113 12.7326 13.0683 12.7823C13.0953 12.7876 13.1203 12.8007 13.1401 12.8198C13.1599 12.839 13.1738 12.8635 13.18 12.8903L13.3081 13.4472ZM16.185 11.1048H16.1864H16.185Z" fill="black" stroke="black" stroke-width="0.35"/>
<path d="M13.4487 11.8939C12.8749 11.8939 12.408 11.4269 12.408 10.8532C12.408 10.2795 12.8749 9.8125 13.4487 9.8125C14.0226 9.8125 14.4896 10.2794 14.4896 10.8532C14.4896 11.4271 14.0226 11.8939 13.4487 11.8939ZM13.4487 10.0982C13.0324 10.0982 12.6937 10.4368 12.6937 10.8532C12.6937 11.2696 13.0323 11.6082 13.4487 11.6082C13.8651 11.6082 14.2039 11.2695 14.2039 10.8532C14.2039 10.4369 13.8651 10.0982 13.4487 10.0982ZM3.44514 19.0718H1.14286C1.10497 19.0718 1.06863 19.0567 1.04184 19.0299C1.01505 19.0032 1 18.9668 1 18.9289V11.7511C1 11.7132 1.01505 11.6768 1.04184 11.6501C1.06863 11.6233 1.10497 11.6082 1.14286 11.6082H3.44514C3.48303 11.6082 3.51937 11.6233 3.54616 11.6501C3.57295 11.6768 3.588 11.7132 3.588 11.7511V18.9289C3.588 18.9668 3.57295 19.0032 3.54616 19.0299C3.51937 19.0567 3.48303 19.0718 3.44514 19.0718ZM1.28586 18.7861H3.30229V11.8939H1.28586V18.7861Z" fill="black" stroke="black" stroke-width="0.35"/>
<path d="M10.9072 19.7089C10.6211 19.7088 10.3354 19.6861 10.0529 19.6409L3.41835 18.4477C3.38536 18.4418 3.3555 18.4244 3.33401 18.3987C3.31252 18.373 3.30075 18.3405 3.30078 18.307V12.3713C3.30078 12.2976 3.35678 12.2359 3.43021 12.2292L7.1325 11.8786C8.00764 11.8104 8.85921 12.0489 9.59778 12.5657L12.5236 14.6129C12.8905 14.87 13.0851 15.3244 13.0401 15.7857C15.1471 15.5874 16.8148 14.2289 17.8534 13.1064C18.0634 12.8793 18.3524 12.7644 18.6486 12.79C18.9522 12.817 19.2265 12.9886 19.4011 13.2614C19.6551 13.6577 19.6439 14.1997 19.3742 14.5796C17.5624 17.1302 15.2532 18.7474 12.3148 19.524C11.8555 19.6461 11.3824 19.7083 10.9072 19.7089ZM3.5865 18.1876L10.1006 19.3593C10.8118 19.4729 11.5332 19.435 12.2418 19.2479C15.1129 18.489 17.3698 16.9079 19.1412 14.414C19.3455 14.1269 19.3532 13.7162 19.1605 13.4154C19.0339 13.2179 18.8382 13.0937 18.6234 13.0746C18.4141 13.0567 18.2149 13.1363 18.0631 13.3003C16.9759 14.4752 15.2178 15.9009 12.9798 16.0777C12.9217 16.2567 12.8239 16.4202 12.6936 16.556C12.4831 16.7756 12.2064 16.8963 11.9144 16.8963C11.7999 16.8967 11.6863 16.8778 11.5781 16.8406C11.0528 16.6577 9.27235 15.9953 8.42035 15.1517C8.39417 15.1249 8.37956 15.0889 8.37969 15.0514C8.37981 15.0139 8.39466 14.978 8.42103 14.9514C8.4474 14.9248 8.48317 14.9096 8.52065 14.9091C8.55812 14.9086 8.59429 14.9228 8.62135 14.9487C9.2645 15.5854 10.6189 16.2042 11.6721 16.5707C11.7482 16.5973 11.8298 16.6107 11.9144 16.6107C12.1278 16.6107 12.3312 16.521 12.4874 16.3583C12.6064 16.2344 12.6899 16.0806 12.7291 15.9133L12.7309 15.9052C12.8288 15.4954 12.6799 15.0716 12.3598 14.8469L9.43407 12.7997C8.75035 12.3214 7.96264 12.1013 7.15692 12.1633L3.58664 12.5012V18.1874L3.5865 18.1876Z" fill="black" stroke="black" stroke-width="0.35"/>
<path d="M11.0997 18.7883C11.0624 18.7882 11.0266 18.7735 11 18.7474C10.9733 18.7212 10.958 18.6857 10.9572 18.6484C10.9564 18.6111 10.9703 18.575 10.9958 18.5478C11.0213 18.5206 11.0564 18.5044 11.0937 18.5027C11.4168 18.4884 11.7374 18.4394 12.0499 18.3564C13.1822 18.0572 14.2311 17.6107 15.1674 17.0293C15.1996 17.0093 15.2384 17.0029 15.2753 17.0116C15.3122 17.0202 15.3442 17.0432 15.3642 17.0754C15.3842 17.1076 15.3905 17.1464 15.3819 17.1833C15.3732 17.2202 15.3503 17.2522 15.3181 17.2722C14.3577 17.8684 13.2827 18.3262 12.123 18.6326C11.7905 18.7209 11.4496 18.7731 11.106 18.7883H11.0997ZM2.29252 18.4053C1.92238 18.4053 1.62109 18.104 1.62109 17.7339C1.62109 17.3637 1.92238 17.0624 2.29252 17.0624C2.66267 17.0624 2.96395 17.3636 2.96395 17.7339C2.96395 18.1042 2.66281 18.4053 2.29252 18.4053ZM2.29252 17.3482C2.07981 17.3482 1.90681 17.521 1.90681 17.7339C1.90681 17.9467 2.07981 18.1196 2.29252 18.1196C2.50538 18.1196 2.67824 17.9466 2.67824 17.7339C2.67824 17.5212 2.50538 17.3482 2.29252 17.3482Z" fill="black" stroke="black" stroke-width="0.35"/>
</svg>
