<svg width="29" height="20" viewBox="0 0 29 20" fill="none" xmlns="http://www.w3.org/2000/svg">
<path d="M20.9883 12.3987H21.3883V11.9987L21.3883 8.99987C21.3883 8.99968 21.3883 8.99948 21.3883 8.99929C21.3887 8.8864 21.421 8.77592 21.4814 8.68054C21.5412 8.58605 21.6263 8.5102 21.7269 8.4615C21.8283 8.41628 21.9403 8.40009 22.0505 8.41478C22.1619 8.42963 22.2668 8.47546 22.3534 8.54705L22.3534 8.5471L22.3594 8.55184L28.3594 13.3218L28.3604 13.3227C28.4296 13.3773 28.4858 13.4464 28.5252 13.5253C28.5639 13.6025 28.5854 13.6872 28.5883 13.7734C28.5874 13.8568 28.5692 13.9392 28.5347 14.0152C28.4997 14.0926 28.4485 14.1616 28.3848 14.2178C28.3846 14.2179 28.3844 14.2181 28.3843 14.2182L22.3854 19.4472L22.3843 19.4482C22.2977 19.5243 22.1909 19.5739 22.0769 19.5909C21.9629 19.6079 21.8463 19.5917 21.7412 19.5443C21.6362 19.4968 21.547 19.42 21.4844 19.3232C21.4218 19.2264 21.3884 19.1135 21.3883 18.9982V15.9987V15.5987H20.9883H12.9883C12.8292 15.5987 12.6765 15.5355 12.564 15.423C12.4515 15.3105 12.3883 15.1579 12.3883 14.9987V12.9987C12.3883 12.8396 12.4515 12.687 12.564 12.5745C12.6765 12.4619 12.8292 12.3987 12.9883 12.3987H20.9883ZM8.24967 11.536C8.14824 11.5812 8.03622 11.5974 7.92609 11.5827C7.8147 11.5678 7.70973 11.522 7.62312 11.4504L7.62317 11.4504L7.6172 11.4456L1.61721 6.67562L1.61616 6.6748C1.547 6.62019 1.49072 6.55103 1.45132 6.47222C1.41269 6.39496 1.39121 6.3103 1.38831 6.22402C1.38914 6.14061 1.40736 6.05827 1.44181 5.98227C1.47689 5.90489 1.528 5.83584 1.59176 5.7797C1.59193 5.77955 1.59211 5.77939 1.59228 5.77924L7.59112 0.550266L7.59228 0.549242C7.67891 0.473139 7.78563 0.42361 7.89967 0.40658C8.01371 0.389551 8.13024 0.405743 8.23532 0.453218C8.3404 0.500693 8.42957 0.577441 8.49217 0.674277C8.55471 0.771026 8.58808 0.883732 8.58828 0.998929C8.58828 0.999033 8.58828 0.999137 8.58828 0.999242L8.58828 3.99874V4.39874H8.98828H16.9883C17.1474 4.39874 17.3 4.46195 17.4125 4.57447C17.5251 4.68699 17.5883 4.8396 17.5883 4.99874V6.99874C17.5883 7.15787 17.5251 7.31048 17.4125 7.423C17.3 7.53552 17.1474 7.59874 16.9883 7.59874H8.98828H8.58828V7.99874V10.9982C8.58785 11.1111 8.55558 11.2216 8.49518 11.3169C8.43534 11.4114 8.35029 11.4873 8.24967 11.536Z" fill="#FFC629" stroke="white" stroke-width="0.8"/>
</svg>
