<svg width="29" height="20" viewBox="0 0 29 20" fill="none" xmlns="http://www.w3.org/2000/svg">
<path d="M20.3711 12.3987H20.7711V11.9987L20.7711 8.99987C20.7711 8.99968 20.7711 8.99948 20.7711 8.99929C20.7715 8.8864 20.8038 8.77591 20.8642 8.68054C20.924 8.58606 21.0091 8.51021 21.1097 8.46151C21.2111 8.41628 21.3231 8.40009 21.4333 8.41478C21.5447 8.42963 21.6496 8.47546 21.7363 8.54705L21.7362 8.5471L21.7422 8.55184L27.7422 13.3218L27.7432 13.3227C27.8124 13.3773 27.8687 13.4464 27.9081 13.5253C27.9467 13.6025 27.9682 13.6872 27.9711 13.7734C27.9702 13.8568 27.952 13.9392 27.9176 14.0152C27.8825 14.0926 27.8314 14.1616 27.7676 14.2178C27.7674 14.2179 27.7673 14.2181 27.7671 14.2182L21.7683 19.4472L21.7671 19.4482C21.6805 19.5243 21.5737 19.5739 21.4597 19.5909C21.3457 19.6079 21.2291 19.5917 21.1241 19.5443C21.019 19.4968 20.9298 19.42 20.8672 19.3232C20.8046 19.2264 20.7712 19.1135 20.7711 18.9982V15.9987V15.5987H20.3711H12.3711C12.212 15.5987 12.0594 15.5355 11.9468 15.423C11.8343 15.3105 11.7711 15.1579 11.7711 14.9987V12.9987C11.7711 12.8396 11.8343 12.687 11.9468 12.5745C12.0594 12.4619 12.212 12.3987 12.3711 12.3987H20.3711ZM8.37109 7.59874H7.97109V7.99874V10.9982C7.97067 11.1111 7.9384 11.2216 7.87799 11.3169C7.81816 11.4114 7.73312 11.4873 7.63251 11.536C7.53107 11.5812 7.41904 11.5974 7.3089 11.5827C7.19752 11.5678 7.09254 11.522 7.00594 11.4504L7.00598 11.4504L7.00002 11.4456L1.00002 6.67562L0.99897 6.6748C0.929815 6.62019 0.873535 6.55103 0.834129 6.47222C0.795502 6.39496 0.774019 6.3103 0.771123 6.22402C0.771955 6.14061 0.790169 6.05827 0.824624 5.98227C0.859698 5.9049 0.910801 5.83586 0.974548 5.77972C0.97473 5.77956 0.974911 5.7794 0.975093 5.77924L6.97393 0.550266L6.97509 0.549241C7.06172 0.473139 7.16844 0.42361 7.28248 0.40658C7.39652 0.389551 7.51306 0.405743 7.61813 0.453218C7.72321 0.500693 7.81239 0.577441 7.87498 0.674278C7.93752 0.771026 7.97089 0.883732 7.97109 0.998929C7.97109 0.999033 7.97109 0.999138 7.97109 0.999242L7.97109 3.99874V4.39874H8.37109H16.3711C16.5302 4.39874 16.6828 4.46195 16.7954 4.57447C16.9079 4.68699 16.9711 4.8396 16.9711 4.99874V6.99874C16.9711 7.15787 16.9079 7.31048 16.7954 7.423C16.6828 7.53552 16.5302 7.59874 16.3711 7.59874H8.37109Z" fill="#E0E0E0" stroke="white" stroke-width="0.8"/>
</svg>
