<svg width="17" height="19" viewBox="0 0 17 19" fill="none" xmlns="http://www.w3.org/2000/svg">
<path d="M11.6743 14.6572C11.6004 14.6572 11.5272 14.6427 11.459 14.6144C11.3908 14.5861 11.3288 14.5446 11.2766 14.4923L10.367 13.5828C10.3133 13.5309 10.2705 13.4688 10.241 13.4002C10.2115 13.3316 10.196 13.2578 10.1953 13.1831C10.1947 13.1084 10.2089 13.0343 10.2372 12.9652C10.2655 12.896 10.3073 12.8332 10.3601 12.7804C10.4129 12.7276 10.4757 12.6858 10.5448 12.6576C10.6139 12.6293 10.688 12.615 10.7627 12.6157C10.8374 12.6163 10.9112 12.6319 10.9798 12.6613C11.0485 12.6908 11.1105 12.7337 11.1624 12.7874L11.6743 13.2993L12.9641 12.0095C13.0702 11.907 13.2123 11.8503 13.3598 11.8516C13.5072 11.8529 13.6483 11.912 13.7526 12.0163C13.8569 12.1206 13.9161 12.2617 13.9174 12.4092C13.9186 12.5567 13.8619 12.6987 13.7595 12.8048L12.072 14.4923C12.0198 14.5446 11.9578 14.5861 11.8896 14.6144C11.8213 14.6427 11.7482 14.6572 11.6743 14.6572Z" fill="black"/>
<path d="M11.8117 18.4219C11.7611 18.4218 11.7108 18.415 11.662 18.4016C11.6187 18.3898 7.34766 17.1427 7.34766 11.3501C7.3476 11.2759 7.36223 11.2024 7.39071 11.1339C7.41919 11.0653 7.46095 11.0031 7.51359 10.9508C7.56526 10.8971 7.62759 10.8549 7.69657 10.8268C7.76555 10.7987 7.83965 10.7853 7.91409 10.7876H7.91578C7.96856 10.785 8.02025 10.7717 8.06772 10.7485C8.1152 10.7253 8.15747 10.6926 8.19197 10.6526C8.26665 10.5662 8.32321 10.4656 8.35828 10.3569C8.39336 10.2482 8.40624 10.1336 8.39616 10.0198C8.39132 9.94316 8.40223 9.86633 8.42822 9.79405C8.4542 9.72178 8.49472 9.65559 8.54726 9.59957C8.5998 9.54355 8.66326 9.49888 8.73372 9.46832C8.80419 9.43776 8.88016 9.42195 8.95697 9.42188H14.6663C14.7432 9.42188 14.8192 9.43763 14.8898 9.46815C14.9603 9.49868 15.0238 9.54333 15.0764 9.59936C15.129 9.65539 15.1696 9.72161 15.1956 9.79392C15.2216 9.86623 15.2326 9.94311 15.2277 10.0198C15.2176 10.1336 15.2304 10.2482 15.2653 10.3569C15.3003 10.4656 15.3568 10.5662 15.4313 10.6526C15.4658 10.6926 15.5081 10.7253 15.5556 10.7485C15.6031 10.7717 15.6548 10.785 15.7075 10.7876H15.7132C15.8623 10.7876 16.0054 10.8469 16.1109 10.9524C16.2164 11.0579 16.2757 11.2009 16.2757 11.3501C16.2757 17.1427 12.0046 18.3898 11.9613 18.4016C11.9125 18.415 11.8622 18.4218 11.8117 18.4219ZM8.48166 11.7968C8.65716 15.7933 11.1704 17.0168 11.8128 17.2654C12.472 17.0156 14.9684 15.8085 15.1411 11.7968C14.9415 11.7107 14.7619 11.5843 14.6135 11.4255C14.3841 11.179 14.2248 10.8757 14.1522 10.5469H9.47166C9.39907 10.8757 9.23981 11.179 9.01041 11.4255C8.86197 11.5843 8.68234 11.7106 8.48278 11.7968H8.48166Z" fill="black"/>
<path d="M9.96187 17.2969H1.6875C1.24008 17.2964 0.811122 17.1185 0.494751 16.8021C0.17838 16.4858 0.000446746 16.0568 0 15.6094V2.10938C0.000446746 1.66196 0.17838 1.233 0.494751 0.916626C0.811122 0.600255 1.24008 0.422322 1.6875 0.421875L10.6875 0.421875C11.1349 0.422322 11.5639 0.600255 11.8802 0.916626C12.1966 1.233 12.3746 1.66196 12.375 2.10938V9.98438C12.375 10.1336 12.3157 10.2766 12.2102 10.3821C12.1048 10.4876 11.9617 10.5469 11.8125 10.5469C11.6633 10.5469 11.5202 10.4876 11.4148 10.3821C11.3093 10.2766 11.25 10.1336 11.25 9.98438V2.10938C11.2499 1.96024 11.1905 1.81725 11.0851 1.71179C10.9796 1.60634 10.8366 1.54702 10.6875 1.54688H1.6875C1.53836 1.54702 1.39537 1.60634 1.28992 1.71179C1.18446 1.81725 1.12515 1.96024 1.125 2.10938V15.6094C1.12515 15.7585 1.18446 15.9015 1.28992 16.007C1.39537 16.1124 1.53836 16.1717 1.6875 16.1719H9.96187C10.1111 16.1719 10.2541 16.2311 10.3596 16.3366C10.4651 16.4421 10.5244 16.5852 10.5244 16.7344C10.5244 16.8836 10.4651 17.0266 10.3596 17.1321C10.2541 17.2376 10.1111 17.2969 9.96187 17.2969Z" fill="black"/>
<path d="M7.875 3.79688H4.5C4.35082 3.79688 4.20774 3.73761 4.10225 3.63212C3.99676 3.52663 3.9375 3.38356 3.9375 3.23438C3.9375 3.08519 3.99676 2.94212 4.10225 2.83663C4.20774 2.73114 4.35082 2.67187 4.5 2.67188H7.875C8.02418 2.67188 8.16726 2.73114 8.27275 2.83663C8.37824 2.94212 8.4375 3.08519 8.4375 3.23438C8.4375 3.38356 8.37824 3.52663 8.27275 3.63212C8.16726 3.73761 8.02418 3.79688 7.875 3.79688ZM9.5625 6.04688H2.8125C2.66332 6.04688 2.52024 5.98761 2.41475 5.88212C2.30926 5.77663 2.25 5.63356 2.25 5.48438C2.25 5.33519 2.30926 5.19212 2.41475 5.08663C2.52024 4.98114 2.66332 4.92188 2.8125 4.92188H9.5625C9.71168 4.92188 9.85476 4.98114 9.96025 5.08663C10.0657 5.19212 10.125 5.33519 10.125 5.48438C10.125 5.63356 10.0657 5.77663 9.96025 5.88212C9.85476 5.98761 9.71168 6.04688 9.5625 6.04688ZM9.5625 8.29688H2.8125C2.66332 8.29688 2.52024 8.23761 2.41475 8.13212C2.30926 8.02663 2.25 7.88356 2.25 7.73438C2.25 7.58519 2.30926 7.44212 2.41475 7.33663C2.52024 7.23114 2.66332 7.17188 2.8125 7.17188H9.5625C9.71168 7.17188 9.85476 7.23114 9.96025 7.33663C10.0657 7.44212 10.125 7.58519 10.125 7.73438C10.125 7.88356 10.0657 8.02663 9.96025 8.13212C9.85476 8.23761 9.71168 8.29688 9.5625 8.29688ZM6.75 10.5469H2.8125C2.66332 10.5469 2.52024 10.4876 2.41475 10.3821C2.30926 10.2766 2.25 10.1336 2.25 9.98438C2.25 9.83519 2.30926 9.69212 2.41475 9.58663C2.52024 9.48114 2.66332 9.42188 2.8125 9.42188H6.75C6.89918 9.42188 7.04226 9.48114 7.14775 9.58663C7.25324 9.69212 7.3125 9.83519 7.3125 9.98438C7.3125 10.1336 7.25324 10.2766 7.14775 10.3821C7.04226 10.4876 6.89918 10.5469 6.75 10.5469ZM5.625 12.7969H2.8125C2.66332 12.7969 2.52024 12.7376 2.41475 12.6321C2.30926 12.5266 2.25 12.3836 2.25 12.2344C2.25 12.0852 2.30926 11.9421 2.41475 11.8366C2.52024 11.7311 2.66332 11.6719 2.8125 11.6719H5.625C5.77418 11.6719 5.91726 11.7311 6.02275 11.8366C6.12824 11.9421 6.1875 12.0852 6.1875 12.2344C6.1875 12.3836 6.12824 12.5266 6.02275 12.6321C5.91726 12.7376 5.77418 12.7969 5.625 12.7969ZM6.1875 15.0469H2.8125C2.66332 15.0469 2.52024 14.9876 2.41475 14.8821C2.30926 14.7766 2.25 14.6336 2.25 14.4844C2.25 14.3352 2.30926 14.1921 2.41475 14.0866C2.52024 13.9811 2.66332 13.9219 2.8125 13.9219H6.1875C6.33668 13.9219 6.47976 13.9811 6.58525 14.0866C6.69074 14.1921 6.75 14.3352 6.75 14.4844C6.75 14.6336 6.69074 14.7766 6.58525 14.8821C6.47976 14.9876 6.33668 15.0469 6.1875 15.0469Z" fill="black"/>
</svg>
