<svg width="15" height="15" viewBox="0 0 15 15" fill="none" xmlns="http://www.w3.org/2000/svg">
<g clip-path="url(#clip0_1978_9385)">
<path d="M7.83491 14.6688C11.7003 14.6688 14.8339 11.5353 14.8339 7.66987C14.8339 3.80445 11.7003 0.670898 7.83491 0.670898C3.96949 0.670898 0.835938 3.80445 0.835938 7.66987C0.835938 11.5353 3.96949 14.6688 7.83491 14.6688Z" fill="#55A47E"/>
<path fill-rule="evenodd" clip-rule="evenodd" d="M6.10521 8.68304L10.7541 4.99181C10.8672 4.90283 11.004 4.84924 11.1474 4.83777C11.2909 4.82631 11.4345 4.85748 11.5602 4.92737C11.686 4.99727 11.7883 5.10277 11.8543 5.23062C11.9203 5.35847 11.9471 5.50297 11.9312 5.64598C11.9205 5.74117 11.8911 5.8333 11.8446 5.91706C11.7982 6.00083 11.7356 6.07457 11.6605 6.13404L6.38 10.3256L6.32873 10.3666C6.3076 10.3815 6.2857 10.3952 6.26311 10.4077L6.2344 10.4261C6.0677 10.5122 5.87419 10.5307 5.69423 10.4775C5.51427 10.4244 5.36177 10.3039 5.26853 10.1411L5.1865 10.0037H5.18855L3.831 7.64744C3.78347 7.56477 3.75269 7.47354 3.74042 7.37897C3.72814 7.2844 3.73461 7.18834 3.75946 7.09627C3.78431 7.0042 3.82706 6.91792 3.88525 6.84237C3.94344 6.76682 4.01594 6.70347 4.09862 6.65594C4.26559 6.55994 4.46385 6.53421 4.64979 6.5844C4.74186 6.60925 4.82814 6.65199 4.90369 6.71018C4.97924 6.76837 5.04259 6.84088 5.09012 6.92355L6.10726 8.68304H6.10521Z" fill="white"/>
</g>
<defs>
<clipPath id="clip0_1978_9385">
<rect width="14" height="14" fill="white" transform="translate(0.835938 0.670898)"/>
</clipPath>
</defs>
</svg>
