<svg xmlns="http://www.w3.org/2000/svg" width="126.186" height="126.186" viewBox="0 0 126.186 126.186">
  <g id="Group_534" data-name="Group 534" transform="translate(0)">
    <path id="Path_491" data-name="Path 491" d="M31.655,212.26v52.961H7.5l7.391-26.482L7.5,212.26Z" transform="translate(-5.651 -159.947)" fill="#997ab8"/>
    <path id="Path_492" data-name="Path 492" d="M59.529,212.26v52.961H51.714a52.064,52.064,0,0,1,.027-52.961Z" transform="translate(-33.525 -159.947)" fill="#6957a1"/>
    <path id="Path_493" data-name="Path 493" d="M406.49,212.263v52.961h24.155l-7.391-26.482,7.391-26.479Z" transform="translate(-306.307 -159.949)" fill="#997ab8"/>
    <path id="Path_494" data-name="Path 494" d="M406.49,212.263v52.961h7.815a52.064,52.064,0,0,0-.027-52.961Z" transform="translate(-306.307 -159.949)" fill="#6957a1"/>
    <g id="Group_452" data-name="Group 452" transform="translate(17.446 33.28)">
      <g id="Group_451" data-name="Group 451" transform="translate(0 0)">
        <path id="Path_495" data-name="Path 495" d="M161.878,180.548a45.531,45.531,0,0,1-45.545,45.516,46.1,46.1,0,0,1-5.41-.318,45.518,45.518,0,0,1,.01-90.4,46.482,46.482,0,0,1,5.4-.315,45.531,45.531,0,0,1,45.545,45.513Z" transform="translate(-70.787 -135.035)" fill="#0abde3"/>
        <g id="Group_442" data-name="Group 442" transform="translate(40.136 0)">
          <path id="Path_499" data-name="Path 499" d="M266.682,431.835l4.559,4.56a45.413,45.413,0,0,1-32.195,13.321,46.1,46.1,0,0,1-5.41-.318A52.187,52.187,0,0,0,266.682,431.835Z" transform="translate(-233.637 -358.686)" fill="#0abde3"/>
          <path id="Path_500" data-name="Path 500" d="M233.677,135.35a46.483,46.483,0,0,1,5.4-.315,45.415,45.415,0,0,1,32.2,13.331l-4.559,4.559A52.207,52.207,0,0,0,233.677,135.35Z" transform="translate(-233.667 -135.035)" fill="#0abde3"/>
        </g>
      </g>
    </g>
    <path id="Path_501" data-name="Path 501" d="M176.669,202.507a38.344,38.344,0,0,1-38.356,38.332q-1.789,0-3.537-.163a38.33,38.33,0,0,1,0-76.338q1.749-.163,3.537-.163A38.345,38.345,0,0,1,176.669,202.507Z" transform="translate(-75.322 -123.713)" fill="#0abde3"/>
    <ellipse id="Ellipse_113" data-name="Ellipse 113" cx="11.692" cy="11.692" rx="11.692" ry="11.692" transform="translate(51.352 1.849)" fill="#0abde3"/>
    <path id="Path_504" data-name="Path 504" d="M118.866,174.8l7.252-25.983a1.848,1.848,0,0,0-1.78-2.345H100.974a47.315,47.315,0,0,0-57.242-14.955,1.848,1.848,0,0,0,1.511,3.374,43.6,43.6,0,0,1,47.335,7.765l-2.469,2.469a40.12,40.12,0,0,0-54.132,0l-2.485-2.485a43.945,43.945,0,0,1,5.15-4.075,1.848,1.848,0,1,0-2.071-3.062,47.49,47.49,0,0,0-11.487,10.969H1.848a1.848,1.848,0,0,0-1.78,2.345L7.319,174.8.068,200.785a1.848,1.848,0,0,0,1.78,2.345H25.112a47.267,47.267,0,0,0,75.863,0h23.363a1.848,1.848,0,0,0,1.78-2.345Zm-3.7-.5a1.849,1.849,0,0,0,0,.994l4.317,15.467H107.621a47.488,47.488,0,0,0-.064-32.107h11.977Zm6.735-24.135-1.337,4.792H106.034a47.316,47.316,0,0,0-2.559-4.792Zm-117.619,0H22.592a47.359,47.359,0,0,0-2.549,4.792H5.62ZM11.019,175.3a1.849,1.849,0,0,0,0-.994L6.652,158.66H18.527a47.507,47.507,0,0,0-.062,32.107H6.7ZM4.283,199.434l1.387-4.97h14.3a47.386,47.386,0,0,0,2.641,4.97Zm26.614,4.9a43.7,43.7,0,0,1-.016-59.069l2.482,2.481a40.1,40.1,0,0,0,0,54.122ZM63.043,218.5a43.452,43.452,0,0,1-29.535-11.552l2.469-2.469a40.155,40.155,0,0,0,54.144.013l2.456,2.456A43.452,43.452,0,0,1,63.043,218.5Zm32.146-14.17-2.452-2.452a40.4,40.4,0,0,0,3.475-4.383,1.848,1.848,0,0,0-3.049-2.091,36.3,36.3,0,1,1,3.6-6.64,1.848,1.848,0,1,0,3.415,1.416,40.172,40.172,0,0,0-7.457-42.439l2.466-2.465a43.657,43.657,0,0,1,0,59.053Zm8.286-4.895a47.363,47.363,0,0,0,2.641-4.97h14.4l1.387,4.97Z" transform="translate(0 -96.009)"/>
    <path id="Path_506" data-name="Path 506" d="M322.065,216.518a1.848,1.848,0,0,0-2.2,2.974,27.694,27.694,0,0,1,5.952,5.992,1.848,1.848,0,1,0,2.989-2.176A31.372,31.372,0,0,0,322.065,216.518Z" transform="translate(-240.469 -162.883)"/>
    <path id="Path_507" data-name="Path 507" d="M152.412,225.128a1.848,1.848,0,0,0,2.582-.407,27.675,27.675,0,0,1,6.273-6.225,1.848,1.848,0,1,0-2.152-3.006,31.37,31.37,0,0,0-7.109,7.055A1.848,1.848,0,0,0,152.412,225.128Z" transform="translate(-114.275 -162.12)"/>
    <path id="Path_508" data-name="Path 508" d="M328.4,382.67a1.849,1.849,0,0,0-2.582.407,27.685,27.685,0,0,1-5.952,5.992,1.849,1.849,0,1,0,2.2,2.975,31.388,31.388,0,0,0,6.746-6.791A1.848,1.848,0,0,0,328.4,382.67Z" transform="translate(-240.468 -288.092)"/>
    <path id="Path_509" data-name="Path 509" d="M161.267,389.3a27.675,27.675,0,0,1-6.273-6.226,1.848,1.848,0,0,0-2.989,2.176,31.362,31.362,0,0,0,7.109,7.056,1.848,1.848,0,0,0,2.152-3.006Z" transform="translate(-114.275 -288.093)"/>
    <ellipse id="Ellipse_116" data-name="Ellipse 116" cx="1.848" cy="1.848" rx="1.848" ry="1.848" transform="translate(61.187 47.536)"/>
    <ellipse id="Ellipse_117" data-name="Ellipse 117" cx="1.848" cy="1.848" rx="1.848" ry="1.848" transform="translate(51.122 49.311)"/>
    <ellipse id="Ellipse_118" data-name="Ellipse 118" cx="1.848" cy="1.848" rx="1.848" ry="1.848" transform="translate(71.252 49.311)"/>
    <ellipse id="Ellipse_119" data-name="Ellipse 119" cx="1.848" cy="1.848" rx="1.848" ry="1.848" transform="translate(61.187 106.353)"/>
    <ellipse id="Ellipse_120" data-name="Ellipse 120" cx="1.848" cy="1.848" rx="1.848" ry="1.848" transform="translate(51.122 104.58)"/>
    <ellipse id="Ellipse_121" data-name="Ellipse 121" cx="1.848" cy="1.848" rx="1.848" ry="1.848" transform="translate(71.252 104.58)"/>
    <ellipse id="Ellipse_122" data-name="Ellipse 122" cx="1.848" cy="1.848" rx="1.848" ry="1.848" transform="translate(90.614 76.946)"/>
    <ellipse id="Ellipse_123" data-name="Ellipse 123" cx="1.848" cy="1.848" rx="1.848" ry="1.848" transform="translate(88.84 66.88)"/>
    <ellipse id="Ellipse_124" data-name="Ellipse 124" cx="1.848" cy="1.848" rx="1.848" ry="1.848" transform="translate(88.841 87.011)"/>
    <ellipse id="Ellipse_125" data-name="Ellipse 125" cx="1.848" cy="1.848" rx="1.848" ry="1.848" transform="translate(31.798 76.946)"/>
    <ellipse id="Ellipse_126" data-name="Ellipse 126" cx="1.848" cy="1.848" rx="1.848" ry="1.848" transform="translate(33.572 66.88)"/>
    <ellipse id="Ellipse_127" data-name="Ellipse 127" cx="1.848" cy="1.848" rx="1.848" ry="1.848" transform="translate(33.572 87.011)"/>
    <path id="Path_510" data-name="Path 510" d="M202.706,15.389a9.855,9.855,0,0,1,9.843,9.844,1.848,1.848,0,1,0,3.7,0,9.855,9.855,0,0,1,9.844-9.844,1.848,1.848,0,1,0,0-3.7,9.855,9.855,0,0,1-9.844-9.844,1.848,1.848,0,1,0-3.7,0,9.855,9.855,0,0,1-9.843,9.844,1.848,1.848,0,1,0,0,3.7ZM214.4,8.672a13.642,13.642,0,0,0,4.868,4.868,13.644,13.644,0,0,0-4.868,4.868,13.643,13.643,0,0,0-4.868-4.868A13.645,13.645,0,0,0,214.4,8.672Z" transform="translate(-151.355)"/>
    <text id="_1" data-name="1" transform="translate(51.244 90.602)" font-size="41" font-family="SegoeUI, Segoe UI"><tspan x="0" y="0">1</tspan></text>
  </g>
</svg>
