<svg width="26" height="32" viewBox="0 0 26 32" fill="none" xmlns="http://www.w3.org/2000/svg">
<path d="M3.625 3.15273H11.4375V15.5527L7.53125 13.2277L3.625 15.5527M22.375 0.0527344H3.625C2.7962 0.0527344 2.00134 0.37934 1.41529 0.960703C0.82924 1.54207 0.5 2.33056 0.5 3.15273V27.9527C0.5 28.7749 0.82924 29.5634 1.41529 30.1448C2.00134 30.7261 2.7962 31.0527 3.625 31.0527H22.375C23.2038 31.0527 23.9987 30.7261 24.5847 30.1448C25.1708 29.5634 25.5 28.7749 25.5 27.9527V3.15273C25.5 2.33056 25.1708 1.54207 24.5847 0.960703C23.9987 0.37934 23.2038 0.0527344 22.375 0.0527344Z" fill="black"/>
</svg>
