<svg width="16" height="14" viewBox="0 0 16 14" fill="none" xmlns="http://www.w3.org/2000/svg">
<path id="Vector" d="M10.4233 4.91586L6.86078 2.54086C6.77134 2.48119 6.66738 2.44692 6.55998 2.44172C6.45259 2.43651 6.3458 2.46057 6.25101 2.51132C6.15622 2.56206 6.07699 2.6376 6.02177 2.72986C5.96656 2.82212 5.93743 2.92764 5.9375 3.03516V7.78516C5.93743 7.89268 5.96656 7.9982 6.02177 8.09046C6.07699 8.18271 6.15622 8.25825 6.25101 8.309C6.3458 8.35974 6.45259 8.3838 6.55998 8.3786C6.66738 8.37339 6.77134 8.33913 6.86078 8.27945L10.4233 5.90445C10.5047 5.85025 10.5715 5.77677 10.6177 5.69053C10.6639 5.6043 10.6881 5.50799 10.6881 5.41016C10.6881 5.31233 10.6639 5.21601 10.6177 5.12978C10.5715 5.04354 10.5047 4.97006 10.4233 4.91586ZM7.125 6.67559V4.14844L9.02352 5.41016L7.125 6.67559ZM14.25 0.0664062H1.1875C0.872555 0.0664063 0.57051 0.191517 0.347811 0.414217C0.125111 0.636916 0 0.938962 0 1.25391V9.56641C0 9.88135 0.125111 10.1834 0.347811 10.4061C0.57051 10.6288 0.872555 10.7539 1.1875 10.7539H14.25C14.5649 10.7539 14.867 10.6288 15.0897 10.4061C15.3124 10.1834 15.4375 9.88135 15.4375 9.56641V1.25391C15.4375 0.938962 15.3124 0.636916 15.0897 0.414217C14.867 0.191517 14.5649 0.0664063 14.25 0.0664062ZM14.25 9.56641H1.1875V1.25391H14.25V9.56641ZM15.4375 12.5352C15.4375 12.6926 15.3749 12.8437 15.2636 12.955C15.1522 13.0664 15.0012 13.1289 14.8438 13.1289H0.59375C0.436278 13.1289 0.285255 13.0664 0.173905 12.955C0.0625556 12.8437 0 12.6926 0 12.5352C0 12.3777 0.0625556 12.2267 0.173905 12.1153C0.285255 12.004 0.436278 11.9414 0.59375 11.9414H14.8438C15.0012 11.9414 15.1522 12.004 15.2636 12.1153C15.3749 12.2267 15.4375 12.3777 15.4375 12.5352Z" fill="black"/>
</svg>
