<svg width="20" height="20" viewBox="0 0 20 20" fill="none" xmlns="http://www.w3.org/2000/svg">
<path fill-rule="evenodd" clip-rule="evenodd" d="M2.92893 17.0711C3.85752 17.9997 4.95991 18.7362 6.17317 19.2388C7.38642 19.7413 8.68678 20 10 20C11.3132 20 12.6136 19.7413 13.8268 19.2388C15.0401 18.7362 16.1425 17.9997 17.0711 17.0711C17.9997 16.1425 18.7362 15.0401 19.2388 13.8268C19.7413 12.6136 20 11.3132 20 10C20 8.68678 19.7413 7.38642 19.2388 6.17317C18.7362 4.95991 17.9997 3.85752 17.0711 2.92893C15.1957 1.05357 12.6522 -1.97602e-08 10 0C7.34784 1.97602e-08 4.8043 1.05357 2.92893 2.92893C1.05357 4.8043 1.97602e-08 7.34784 0 10C-1.97602e-08 12.6522 1.05357 15.1957 2.92893 17.0711ZM5.34114 16.23C6.83918 17.3512 8.69116 17.8948 10.5575 17.7612C12.4239 17.6277 14.1796 16.8258 15.5027 15.5027C16.8258 14.1796 17.6277 12.4239 17.7612 10.5575C17.8948 8.69116 17.3512 6.83918 16.23 5.34114L13.1422 8.4289C12.9326 8.6313 12.652 8.74329 12.3607 8.74076C12.0693 8.73822 11.7906 8.62137 11.5846 8.41536C11.3786 8.20936 11.2618 7.93068 11.2592 7.63935C11.2567 7.34802 11.3687 7.06735 11.5711 6.8578L14.6577 3.77004C13.1594 2.65184 11.3084 2.11062 9.44368 2.24543C7.57892 2.38024 5.82507 3.18206 4.50312 4.50415C3.18116 5.82625 2.37952 7.58017 2.2449 9.44494C2.11028 11.3097 2.65169 13.1606 3.77004 14.6589L6.8578 11.5711C7.06735 11.3687 7.34802 11.2567 7.63935 11.2592C7.93068 11.2618 8.20936 11.3786 8.41536 11.5846C8.62137 11.7906 8.73822 12.0693 8.74076 12.3607C8.74329 12.652 8.6313 12.9326 8.4289 13.1422L5.34114 16.23Z" fill="black"/>
</svg>
