<svg width="23" height="23" viewBox="0 0 23 23" fill="none" xmlns="http://www.w3.org/2000/svg">
<path d="M3.77724 16.4248L3.77736 16.4247C5.39129 15.3256 8.01661 14.6261 10.981 14.6261C11.2069 14.6261 11.4235 14.5366 11.5832 14.3772C11.743 14.2178 11.8328 14.0016 11.8328 13.7761C11.8328 13.5506 11.743 13.3343 11.5832 13.1749C11.4235 13.0156 11.2069 12.9261 10.981 12.9261C7.63738 12.9261 4.66818 13.7601 2.81685 15.0194L2.81684 15.0194C1.40369 15.9809 0.607031 17.215 0.607031 18.5261L0.607031 19.9771L0.607031 19.9771C0.607313 20.4544 0.797556 20.912 1.13586 21.2493C1.47416 21.5866 1.93283 21.7761 2.41101 21.7761L10.981 21.7771C11.2069 21.7771 11.4235 21.6876 11.5832 21.5282C11.743 21.3688 11.8328 21.1526 11.8328 20.9271C11.8328 20.7016 11.743 20.4853 11.5832 20.3259C11.4235 20.1666 11.2069 20.0771 10.981 20.0771H2.41101C2.38429 20.0771 2.35871 20.0665 2.33989 20.0477C2.32107 20.0289 2.31054 20.0035 2.31054 19.9771V18.5271C2.31054 17.7472 2.86912 17.0414 3.77724 16.4248ZM10.981 1.06406L10.981 1.06406C9.49262 1.0646 8.06531 1.65471 7.0128 2.70477C5.96028 3.75483 5.3687 5.17891 5.36816 6.66403V6.66406C5.36816 9.75551 7.88292 12.2641 10.981 12.2641C14.0792 12.2641 16.5939 9.75551 16.5939 6.66406C16.5939 3.57261 14.0792 1.06406 10.981 1.06406ZM19.5827 13.6313L13.2038 19.9953C13.0441 20.1546 12.9543 20.3707 12.9543 20.5961C12.9543 20.8214 13.0441 21.0376 13.2038 21.1969C13.3634 21.3561 13.5799 21.4456 13.8056 21.4456C14.0313 21.4456 14.2478 21.3561 14.4075 21.1969L20.7864 14.8329C20.9461 14.6736 21.0358 14.4574 21.0358 14.2321C21.0358 14.0067 20.9461 13.7906 20.7864 13.6313C20.6267 13.472 20.4102 13.3825 20.1845 13.3825C19.9588 13.3825 19.7423 13.472 19.5827 13.6313ZM10.981 2.76406C13.1392 2.76406 14.8904 4.51151 14.8904 6.66406C14.8904 8.81661 13.1392 10.5641 10.981 10.5641C8.82287 10.5641 7.07167 8.81661 7.07167 6.66406C7.07167 4.51151 8.82287 2.76406 10.981 2.76406Z" fill="black" stroke="black" stroke-width="0.2"/>
<path d="M11.6344 17.414L11.6344 17.4141C11.6349 18.8329 12.2001 20.1934 13.2056 21.1966C14.2111 22.1998 15.5747 22.7635 16.9966 22.7641H16.9967C18.4186 22.7635 19.7822 22.1998 20.7877 21.1966C21.7932 20.1934 22.3584 18.8329 22.359 17.4141V17.414C22.3584 15.9952 21.7932 14.6347 20.7877 13.6315C19.7822 12.6284 18.4186 12.0646 16.9967 12.0641L16.9966 12.0641C15.5747 12.0646 14.2111 12.6284 13.2056 13.6315C12.2001 14.6347 11.6349 15.9952 11.6344 17.414ZM16.9967 13.7641C19.0165 13.7641 20.6555 15.3995 20.6555 17.4141C20.6555 19.4286 19.0165 21.0641 16.9967 21.0641C14.9768 21.0641 13.3379 19.4286 13.3379 17.4141C13.3379 15.3995 14.9768 13.7641 16.9967 13.7641Z" fill="black" stroke="black" stroke-width="0.2"/>
</svg>
