<svg width="26" height="29" viewBox="0 0 26 29" fill="none" xmlns="http://www.w3.org/2000/svg">
<path d="M21.1322 10.2582H18.426C17.6141 10.2582 17.0729 10.8115 17.0729 11.6414C17.0729 12.4713 17.6141 13.0245 18.426 13.0245H21.1322C21.944 13.0245 22.4852 13.5778 22.4852 14.4077V24.0897C22.4852 24.9196 21.944 25.4729 21.1322 25.4729H4.89518C4.08333 25.4729 3.5421 24.9196 3.5421 24.0897V14.4077C3.5421 13.5778 4.08333 13.0245 4.89518 13.0245H7.60135C8.41319 13.0245 8.95443 12.4713 8.95443 11.6414C8.95443 10.8115 8.41319 10.2582 7.60135 10.2582H4.89518C2.59494 10.2582 0.835938 12.0563 0.835938 14.4077V24.0897C0.835938 26.4411 2.59494 28.2392 4.89518 28.2392H21.1322C23.4324 28.2392 25.1914 26.4411 25.1914 24.0897V14.4077C25.1914 12.0563 23.4324 10.2582 21.1322 10.2582ZM9.90158 7.07698L11.6606 5.27888V21.3234C11.6606 22.1533 12.2018 22.7066 13.0137 22.7066C13.8255 22.7066 14.3668 22.1533 14.3668 21.3234V5.27888L16.1258 7.07698C16.3964 7.35361 16.667 7.49192 17.0729 7.49192C17.4788 7.49192 17.7495 7.35361 18.0201 7.07698C18.5613 6.52372 18.5613 5.69383 18.0201 5.14057L13.9608 0.991117C13.4196 0.437857 12.6077 0.437857 12.0665 0.991117L8.00727 5.14057C7.46604 5.69383 7.46604 6.52372 8.00727 7.07698C8.5485 7.63024 9.36035 7.63024 9.90158 7.07698Z" fill="black"/>
</svg>
