<svg width="18" height="23" viewBox="0 0 18 23" fill="none" xmlns="http://www.w3.org/2000/svg">
<path d="M14.084 11.4869C14.6854 11.5389 14.8015 11.7814 15.1175 12.166C16.5595 13.908 17.3191 16.1224 17.2526 18.3908C17.1752 20.1951 15.1865 21.4029 13.4696 21.9501C9.81917 23.1106 5.51109 23.1003 2.36823 20.9393C1.84988 20.613 1.42658 20.1538 1.14147 19.6087C0.856353 19.0636 0.719627 18.452 0.745221 17.8362C0.83203 15.6917 1.62885 13.6385 3.00841 12.0044C3.53898 11.3884 4.88473 11.354 5.02566 12.4875C5.10304 13.1081 4.52273 13.5968 4.17916 14.1078C3.37338 15.3334 2.94197 16.7707 2.93841 18.2413C2.93288 19.1908 4.61577 19.7696 6.19364 20.0994C8.60839 20.6581 11.133 20.4845 13.4502 19.6005C14.1871 19.2939 15.0419 18.7337 15.0521 18.2905C15.0666 16.4976 14.4326 14.7607 13.2688 13.4054L13.1628 13.2837C13.058 13.1788 12.9821 13.0481 12.9426 12.9046C12.903 12.7611 12.9011 12.6097 12.9372 12.4652C12.9699 12.2287 13.0756 12.0085 13.2393 11.836C13.4029 11.6634 13.6163 11.5471 13.8491 11.5036C13.9266 11.4878 14.006 11.4828 14.0849 11.4887L14.084 11.4869Z" fill="#4496D2"/>
<path d="M9.03483 0.378999C10.3064 0.416309 11.5285 0.884204 12.5043 1.70733C13.4801 2.53046 14.1528 3.6609 14.4142 4.91661C14.6128 6.1592 14.4 7.43318 13.8088 8.54157C13.2176 9.64996 12.2808 10.531 11.1433 11.0485C9.84103 11.5552 8.39977 11.5625 7.09257 11.069C5.78536 10.5755 4.70303 9.6155 4.05065 8.37092C3.45431 7.02416 3.39342 5.49785 3.88057 4.10712C4.36772 2.71639 5.3657 1.56742 6.66847 0.897424C7.40988 0.551266 8.21785 0.374256 9.03483 0.378999ZM8.97864 2.60042C8.4383 2.6336 7.91343 2.79529 7.44692 3.07227C6.98041 3.34926 6.58552 3.73367 6.29453 4.19409C6.00354 4.6545 5.82472 5.17785 5.77268 5.72133C5.72065 6.26481 5.79687 6.81299 5.99513 7.32107C6.37075 8.08031 7.01017 8.67366 7.79155 8.98805C8.57293 9.30245 9.44168 9.31593 10.2323 9.02592C10.6461 8.8407 11.0194 8.57449 11.3304 8.24272C11.6415 7.91095 11.8843 7.52022 12.0445 7.09316C12.2048 6.66609 12.2795 6.21119 12.2643 5.75481C12.249 5.29842 12.1441 4.84963 11.9557 4.43442C11.6716 3.8855 11.2448 3.42486 10.721 3.1018C10.1972 2.77874 9.59623 2.60543 8.98232 2.60042H8.97864Z" fill="#F1A921"/>
</svg>
