<svg width="34" height="23" viewBox="0 0 34 23" fill="none" xmlns="http://www.w3.org/2000/svg">
<g id="video (1) 1">
<g id="Layer 2">
<path id="video" d="M27.0486 5.72677C26.6161 5.53798 26.1359 5.47657 25.6676 5.55018C25.1994 5.62378 24.7638 5.82915 24.415 6.14077L21.3542 8.90077V6.89977C21.3542 5.80177 20.9042 4.74874 20.1033 3.97234C19.3024 3.19594 18.216 2.75977 17.0833 2.75977H4.27084C3.13814 2.75977 2.05184 3.19594 1.2509 3.97234C0.449962 4.74874 0 5.80177 0 6.89977V17.9398C0 19.0378 0.449962 20.0908 1.2509 20.8672C2.05184 21.6436 3.13814 22.0798 4.27084 22.0798H17.0833C18.216 22.0798 19.3024 21.6436 20.1033 20.8672C20.9042 20.0908 21.3542 19.0378 21.3542 17.9398V15.9388L24.4292 18.6988C24.8819 19.096 25.47 19.3171 26.0806 19.3198C26.4194 19.319 26.7543 19.2484 27.0629 19.1128C27.4828 18.9481 27.8425 18.6659 28.0961 18.3021C28.3496 17.9383 28.4856 17.5094 28.4865 17.0704V7.76917C28.4844 7.32851 28.3464 6.89854 28.0902 6.53456C27.8339 6.17058 27.4712 5.88925 27.0486 5.72677Z" fill="white"/>
</g>
<path id="Polygon 12" d="M15.0432 11.0942C15.7093 11.4792 15.7093 12.4407 15.0432 12.8257L9.77119 15.8731C9.10452 16.2585 8.27075 15.7774 8.27075 15.0073L8.27075 8.91255C8.27075 8.14253 9.10452 7.66143 9.77119 8.04678L15.0432 11.0942Z" fill="#D26E25"/>
</g>
</svg>
