<svg width="37" height="43" viewBox="0 0 37 43" fill="none" xmlns="http://www.w3.org/2000/svg">
<path d="M26.4045 38.2001C31.0761 37.0975 33.9693 32.4166 32.8667 27.7451C31.7641 23.0735 27.0833 20.1803 22.4117 21.2829C17.7402 22.3855 14.8469 27.0663 15.9495 31.7379C17.0521 36.4094 21.733 39.3026 26.4045 38.2001Z" fill="#EE9421"/>
<path d="M19.0301 35.8837C22.4242 32.4897 22.4242 26.9869 19.0301 23.5928C15.6361 20.1988 10.1332 20.1988 6.73921 23.5928C3.34516 26.9869 3.34516 32.4897 6.73921 35.8837C10.1332 39.2778 15.6361 39.2778 19.0301 35.8837Z" fill="#BC2025"/>
<path d="M16.6216 33.38C16.7712 33.7013 16.9409 34.0127 17.1298 34.3125H20.1838C20.3713 34.0127 20.5395 33.7012 20.6874 33.38H16.6216ZM20.6734 26.0738H16.7475C16.4957 26.5401 16.3325 26.9084 16.2812 27.0063H21.0464C20.9345 26.6799 20.8132 26.3722 20.6734 26.0738ZM17.7733 35.1891C18.0428 35.522 18.3374 35.8337 18.6545 36.1216C18.9679 35.8329 19.2594 35.5212 19.5264 35.1891H17.7733ZM19.5077 24.2461H17.8712C17.652 24.5445 17.4422 24.8569 17.2557 25.1786H20.1791C19.9747 24.8543 19.7505 24.5428 19.5077 24.2461Z" fill="#FBBC5C"/>
<path d="M15.6635 29.2724H16.1298L16.2463 28.4052H15.7801L15.8733 27.8736H14.9408C14.9641 27.8736 14.4466 30.8623 14.4466 31.2307C14.4322 31.332 14.4408 31.4353 14.4719 31.5329C14.503 31.6305 14.5556 31.7198 14.626 31.7942C14.6963 31.8685 14.7826 31.9261 14.8782 31.9625C14.9739 31.999 15.0766 32.0134 15.1786 32.0047C15.4058 31.9992 15.6308 31.9583 15.8453 31.8834L15.9619 31.1048C15.9013 31.1048 15.808 31.1328 15.7241 31.1328C15.4071 31.1328 15.3698 30.9649 15.3931 30.839L15.6635 29.2724ZM23.2401 28.4005C23.5406 28.4097 23.8326 28.5017 24.0841 28.6663L24.2379 27.6918C23.9067 27.5645 23.5573 27.4905 23.2028 27.4727C22.1491 27.4727 21.114 28.4052 21.114 30.1117C21.114 31.254 21.6735 32.0093 22.7646 32.0093C23.0369 31.9933 23.307 31.9512 23.5712 31.8834L23.7344 30.8856C23.4964 31.0048 23.239 31.0806 22.9744 31.1094C22.8419 31.1148 22.7098 31.0911 22.5876 31.0398C22.4653 30.9885 22.3558 30.9109 22.2668 30.8126C22.1779 30.7143 22.1116 30.5976 22.0727 30.4708C22.0338 30.3441 22.0233 30.2103 22.0419 30.079C22.0605 28.9973 22.62 28.4005 23.2401 28.4005ZM13.7332 29.1418C13.8638 29.1418 14.358 29.1838 14.358 29.1838L14.4746 28.3772C14.1966 28.3233 13.9138 28.2983 13.6306 28.3026C12.9499 28.3026 12.2645 28.573 12.2645 29.5009C12.2645 30.5499 13.4115 30.4334 13.4115 30.8996C13.4115 31.1934 13.0898 31.2213 12.8473 31.2213C12.5696 31.2146 12.2945 31.1658 12.0314 31.0768L11.9102 31.8788C12.2414 31.9831 12.5897 32.0227 12.9359 31.9953C13.1411 31.9953 14.3347 32.0466 14.3347 30.8297C14.3347 29.6874 13.2436 29.8972 13.2436 29.4589C13.2297 29.2118 13.4068 29.1418 13.7332 29.1418ZM25.6787 28.2979C25.2998 28.298 24.9239 28.3659 24.569 28.4984L24.4338 29.2724C24.7555 29.1588 25.095 29.1035 25.4362 29.1092C25.7766 29.1092 26.0283 29.1465 26.0283 29.4263C26.0342 29.5039 26.023 29.5818 25.9957 29.6547C25.9957 29.6547 25.7253 29.6314 25.5994 29.6314C24.8114 29.6314 23.9768 29.9671 23.9768 30.9882C23.9592 31.1136 23.9691 31.2414 24.0058 31.3626C24.0425 31.4838 24.1052 31.5956 24.1896 31.6901C24.2739 31.7846 24.3778 31.8597 24.494 31.91C24.6103 31.9602 24.7361 31.9846 24.8627 31.9813C25.0399 31.9846 25.2157 31.9482 25.377 31.8748C25.5384 31.8014 25.6812 31.6928 25.7952 31.557L25.7626 31.9114H26.5692L26.9282 29.3843C26.9375 28.3399 26.005 28.2979 25.6787 28.2979ZM25.2124 31.2307C25.1658 31.234 25.119 31.2274 25.0752 31.2114C25.0313 31.1954 24.9913 31.1702 24.9578 31.1377C24.9243 31.1051 24.8982 31.0658 24.881 31.0223C24.8638 30.9789 24.856 30.9323 24.858 30.8856C24.858 30.6292 24.9933 30.3308 25.6647 30.3308C25.7293 30.3179 25.7959 30.3179 25.8605 30.3308C25.8931 30.508 25.7812 31.2307 25.2264 31.2307H25.2124ZM32.2995 31.5291C32.2748 31.4849 32.2375 31.4491 32.1922 31.4265C32.1503 31.4052 32.104 31.3941 32.057 31.3941C32.01 31.3941 31.9637 31.4052 31.9218 31.4265C31.8756 31.4478 31.8379 31.4839 31.8146 31.5291C31.7914 31.5721 31.7786 31.62 31.7773 31.6689C31.7786 31.7178 31.792 31.7656 31.8165 31.8079C31.8409 31.8502 31.8755 31.8858 31.9171 31.9114C31.96 31.9351 32.008 31.9479 32.057 31.9487C32.1059 31.9474 32.1538 31.9346 32.1969 31.9114C32.2385 31.8858 32.2731 31.8502 32.2976 31.8079C32.322 31.7656 32.3355 31.7178 32.3368 31.6689C32.3355 31.62 32.3227 31.5721 32.2995 31.5291ZM32.2575 31.7809C32.2397 31.8186 32.2103 31.8496 32.1736 31.8694C32.1385 31.8909 32.0981 31.9022 32.057 31.9022C32.0159 31.9022 31.9756 31.8909 31.9405 31.8694C31.9026 31.8511 31.8728 31.8196 31.8565 31.7809C31.8351 31.7475 31.8237 31.7086 31.8239 31.6689C31.8236 31.6278 31.8349 31.5874 31.8565 31.5524C31.8761 31.5155 31.9072 31.486 31.9451 31.4685C31.9785 31.447 32.0173 31.4357 32.057 31.4358C32.0968 31.4351 32.1358 31.4465 32.1689 31.4685C32.2068 31.486 32.2379 31.5155 32.2575 31.5524C32.2769 31.5883 32.2881 31.6282 32.2901 31.6689C32.2887 31.7084 32.2775 31.7468 32.2575 31.7809ZM31.1571 27.5706L30.9613 28.8061C30.8554 28.6698 30.7215 28.5577 30.5688 28.4773C30.416 28.3969 30.2478 28.35 30.0754 28.3399C29.2362 28.3399 28.5368 29.3517 28.5368 30.5173C28.5368 31.268 28.9051 32 29.6745 32C29.8365 31.9971 29.9961 31.9604 30.143 31.8921C30.29 31.8239 30.421 31.7256 30.5277 31.6037L30.4857 31.9301H31.3763L32.0757 27.5706H31.1571ZM29.9962 31.0908C29.6698 31.0908 29.5299 30.8157 29.5299 30.3821C29.5299 29.6734 29.847 29.2025 30.2526 29.2025C30.5837 29.2025 30.7515 29.4309 30.7515 29.9625C30.7515 30.494 30.4904 31.0908 29.9962 31.0908Z" fill="#F6F6F6"/>
<path d="M32.1693 31.7659L32.1273 31.7099C32.1183 31.7067 32.1084 31.7067 32.0994 31.7099C32.1111 31.7088 32.1225 31.7054 32.133 31.6997C32.1434 31.6941 32.1525 31.6865 32.16 31.6773C32.1681 31.6678 32.1732 31.6561 32.1749 31.6437C32.1765 31.6313 32.1746 31.6187 32.1693 31.6074C32.172 31.5919 32.172 31.5762 32.1693 31.5607C32.1593 31.5485 32.1465 31.5389 32.132 31.5328C32.1059 31.5269 32.0788 31.5269 32.0527 31.5328H31.9502V31.8312H32.0014V31.7006H32.0667C32.0856 31.7215 32.1013 31.7451 32.1133 31.7705L32.1413 31.8172H32.2019L32.1693 31.7659ZM32.062 31.654H32.0061V31.5654H32.1087C32.1126 31.5759 32.1126 31.5875 32.1087 31.598C32.1087 31.598 32.076 31.654 32.0481 31.654H32.062ZM21.1004 28.3436C20.6901 28.3436 20.387 28.9031 20.387 28.9031L20.471 28.3902H19.6131L19.0442 31.9431H19.9767C20.2425 30.4277 20.2938 29.1922 20.9092 29.416C20.9729 29.0408 21.0973 28.6786 21.2776 28.3436C21.2187 28.3372 21.1593 28.3372 21.1004 28.3436ZM28.7983 28.3436C28.388 28.3436 28.0849 28.9031 28.0849 28.9031L28.1688 28.3902H27.3109L26.7421 31.9431H27.6746C27.945 30.4231 27.9963 29.1922 28.6304 29.416C28.6844 29.0417 28.801 28.6791 28.9754 28.3436C28.9166 28.3372 28.8572 28.3372 28.7983 28.3436ZM18.5593 23.2754L18.6572 23.3547L18.7551 23.2754H18.5593ZM7.99865 27.5696L7.09411 30.2506L7.04749 27.5696H5.70934L4.97266 31.9384H5.85854L6.41805 28.6466L6.50197 31.9384H7.13142L8.31104 28.6466L7.78883 31.9384H8.72601L9.4487 27.5696H7.99865ZM10.8242 28.3016C10.4453 28.3017 10.0694 28.3696 9.71447 28.5021L9.57925 29.2761C9.89968 29.1635 10.2374 29.1083 10.577 29.1129C10.9221 29.1129 11.1692 29.1502 11.1692 29.43C11.1743 29.5072 11.1648 29.5847 11.1412 29.6584C11.1412 29.6584 10.8708 29.6351 10.7496 29.6351C9.95226 29.6351 9.11766 29.9708 9.11766 30.9919C9.10001 31.1173 9.10989 31.2451 9.14663 31.3663C9.18337 31.4875 9.24608 31.5993 9.3304 31.6938C9.41471 31.7883 9.51861 31.8634 9.63486 31.9136C9.75111 31.9639 9.87692 31.9883 10.0035 31.985C10.1807 31.988 10.3563 31.9514 10.5176 31.878C10.6789 31.8046 10.8219 31.6962 10.9361 31.5607L10.9081 31.9151H11.7147L12.0737 29.388C12.083 28.3436 11.1459 28.3016 10.8242 28.3016ZM10.3579 31.2344C10.3111 31.2376 10.2641 31.2311 10.22 31.2151C10.1759 31.1991 10.1356 31.174 10.1018 31.1415C10.068 31.109 10.0413 31.0698 10.0236 31.0263C10.0059 30.9829 9.99746 30.9362 9.99888 30.8893C9.99888 30.6329 10.1341 30.3345 10.8055 30.3345C10.8717 30.3219 10.9398 30.3219 11.006 30.3345C11.0386 30.5117 10.9221 31.2344 10.3719 31.2344H10.3579ZM18.9463 30.4604C19.0047 30.1851 19.0452 29.9063 19.0675 29.6258C19.0834 29.4489 19.0608 29.2706 19.0012 29.1033C18.9417 28.936 18.8466 28.7835 18.7226 28.6564C18.5986 28.5293 18.4485 28.4305 18.2827 28.3668C18.1169 28.3032 17.9393 28.2762 17.762 28.2876C16.8295 28.2876 16.1581 29.2807 16.1581 30.4044C16.1323 30.619 16.1552 30.8367 16.2253 31.0412C16.2953 31.2457 16.4106 31.4317 16.5625 31.5855C16.7144 31.7392 16.8991 31.8566 17.1028 31.9291C17.3064 32.0015 17.5238 32.027 17.7387 32.0037C18.0689 32.0233 18.3995 31.9724 18.7085 31.8545L18.8717 30.9733C18.5624 31.1041 18.2326 31.1798 17.8972 31.1971C16.9134 31.1971 17.086 30.4604 17.086 30.4604H18.9463ZM17.762 29.1082C18.2842 29.1082 18.1863 29.6911 18.1863 29.7377H17.1699C17.1699 29.6771 17.2491 29.1082 17.762 29.1082Z" fill="#F6F6F6"/>
<path d="M7.39754 6.50705L6.42061 1.78428C6.35205 1.50884 6.18454 1.26824 5.95002 1.10834C5.71549 0.948436 5.43034 0.880399 5.14888 0.91719H0.628434L0.59375 1.14263C4.10837 1.9866 6.43218 4.03294 7.39754 6.50705ZM10.6809 1.02124L7.82531 8.3106L7.53049 7.21229C6.6 5.40234 5.20307 3.8737 3.48406 2.78433L6.09112 11.6923H9.17219L13.762 1.02124H10.6809ZM14.947 1.02124L13.1261 11.7154H16.0164L17.8431 1.02124H14.947ZM34.0751 1.02124H31.8091C31.4921 0.97993 31.1703 1.0449 30.8942 1.20598C30.618 1.36707 30.4031 1.61517 30.283 1.91146L25.9765 11.7038H29.0344C29.0344 11.7038 29.5315 10.3858 29.6471 10.0968H33.3756C33.4624 10.4668 33.7283 11.6923 33.7283 11.6923H36.4336L34.0751 1.02124ZM30.4853 7.91174C30.7281 7.299 31.6415 4.92316 31.6415 4.92316C31.6415 4.92316 31.8842 4.31041 32.0288 3.90577L32.2311 4.82489L32.9016 7.91174H30.4853ZM23.7162 5.30468C22.7046 4.81333 22.0803 4.47805 22.0861 3.98092C22.0919 3.48379 22.6121 3.0618 23.7509 3.0618C24.4983 3.04184 25.2413 3.18177 25.9302 3.47222L26.1961 3.59362L26.5892 1.28137C25.7537 0.978725 24.8707 0.827981 23.9821 0.836261C21.0918 0.836261 19.0744 2.28142 19.057 4.36244C19.057 5.8943 20.5022 6.75562 21.6063 7.25275C22.7104 7.74988 23.1382 8.11406 23.1382 8.58229C23.1382 9.29909 22.2306 9.62859 21.404 9.62859C20.4582 9.6504 19.5203 9.45253 18.664 9.05052L18.2882 8.87711L17.8778 11.2703C18.9169 11.6577 20.0176 11.8536 21.1265 11.8483C24.1845 11.8483 26.173 10.4148 26.1961 8.19499C26.1903 6.99262 25.4157 6.06772 23.7162 5.30468Z" fill="#273991"/>
<path d="M6.42061 1.787C6.35205 1.51156 6.18454 1.27097 5.95002 1.11106C5.71549 0.951158 5.43034 0.88312 5.14888 0.919912H0.628434L0.59375 1.14536C4.10837 1.99511 6.43218 4.03567 7.39754 6.51555L6.42061 1.787Z" fill="#F99F1B"/>
</svg>
