<svg width="117" height="101" viewBox="0 0 117 101" fill="none" xmlns="http://www.w3.org/2000/svg">
<path d="M66.2339 57.3027C65.6444 57.3027 65.1166 56.9074 64.9515 56.342L51.1083 9.06803C50.9015 8.36096 51.3088 7.61776 52.0159 7.41017L75.3033 0.591663C75.4258 0.555531 75.5519 0.537109 75.6788 0.537109C76.2682 0.537109 76.7953 0.932448 76.9611 1.49782L90.8036 48.7718C90.9035 49.114 90.8652 49.4753 90.6931 49.7885C90.5223 50.1016 90.2396 50.3291 89.8967 50.4297L66.6094 57.2489C66.4868 57.285 66.3607 57.3027 66.2339 57.3027Z" fill="#2DCC70"/>
<path d="M75.6788 1.07407C76.0245 1.07407 76.3433 1.30008 76.4461 1.64936L90.2885 48.9226C90.4125 49.3463 90.1695 49.7905 89.7458 49.9145L66.4585 56.7337C66.3834 56.7557 66.3076 56.7656 66.2332 56.7656C65.8874 56.7656 65.5686 56.5396 65.4659 56.1903L51.6234 8.91776C51.4994 8.49409 51.7424 8.04915 52.1661 7.92517L75.4542 1.10595C75.5286 1.08399 75.6051 1.07407 75.6788 1.07407ZM75.6788 0C75.5009 0 75.3238 0.0262132 75.1524 0.0765181L51.865 6.89502C50.8738 7.1855 50.3035 8.2284 50.5933 9.21958L64.4364 56.4929C64.5519 56.8889 64.7893 57.2283 65.1208 57.4734C65.4411 57.7093 65.8364 57.8397 66.2332 57.8397C66.411 57.8397 66.5881 57.8135 66.7603 57.7632L90.0476 50.944C91.0388 50.6542 91.6084 49.6113 91.3187 48.6201L77.4762 1.34684C77.36 0.950793 77.1234 0.612134 76.7911 0.366999C76.4709 0.131072 76.0762 0 75.6788 0Z" fill="#6C4B41"/>
<path d="M90.2885 48.9226L76.446 1.64866C76.3214 1.22498 75.8771 0.98197 75.4542 1.10667L52.1661 7.92517C51.7998 8.03286 51.5703 8.3786 51.5944 8.74489C51.6595 8.70097 51.7297 8.66413 51.8083 8.64145L75.0964 1.82224C75.5193 1.69825 75.9636 1.94056 76.0883 2.36494L89.9307 49.6382C89.9477 49.6956 89.9562 49.7537 89.9598 49.8111C90.2446 49.6226 90.3898 49.2677 90.2885 48.9226Z" fill="white"/>
<path d="M67.5644 54.0536C67.49 54.0536 67.4156 54.0359 67.349 53.9991C67.2449 53.9424 67.1677 53.8467 67.1351 53.7327L54.3546 10.0876C54.2852 9.85022 54.4212 9.60225 54.6579 9.53352L74.2221 3.80467C74.2632 3.79263 74.3064 3.78625 74.3482 3.78625C74.4226 3.78625 74.4963 3.80538 74.5622 3.84152C74.6663 3.89819 74.7443 3.99384 74.7776 4.10791L87.5566 47.7523C87.5906 47.8664 87.5771 47.9889 87.5197 48.0931C87.4631 48.1965 87.3674 48.2745 87.2541 48.3078L67.6898 54.0366C67.6487 54.0486 67.6069 54.0536 67.5644 54.0536Z" fill="#F9F9F9"/>
<path d="M74.3482 4.23332L87.1287 47.8777L67.5644 53.6066L54.784 9.96217L74.3482 4.23332ZM74.3489 3.3385C74.2653 3.3385 74.181 3.35054 74.0974 3.37463L54.5332 9.10348C54.305 9.17008 54.113 9.32453 53.9997 9.53283C53.8856 9.74112 53.8594 9.98555 53.926 10.2137L66.7057 53.8581C66.8205 54.2477 67.1769 54.5014 67.5637 54.5014C67.6473 54.5014 67.7316 54.4893 67.8159 54.4652L87.3795 48.7364C87.6069 48.6698 87.7996 48.5154 87.913 48.3071C88.027 48.0988 88.0532 47.8543 87.9874 47.6269L75.2062 3.98181C75.0921 3.59143 74.7358 3.3385 74.3489 3.3385Z" fill="#6C4B41"/>
<path d="M82.0615 49.3611L87.128 47.8776L85.5721 42.5653C82.7948 43.5218 81.2269 46.5123 82.0615 49.3611Z" fill="#2DCC70"/>
<path d="M82.0615 49.3611C81.2269 46.5123 82.7948 43.5218 85.5721 42.5653L85.3213 41.7052C82.07 42.8019 80.2301 46.2913 81.2029 49.6134L82.0615 49.3611Z" fill="#6C4B41"/>
<path d="M69.9719 48.8185C69.1451 48.3658 68.2361 48.1362 67.3186 48.1362C66.8814 48.1362 66.4422 48.1894 66.0079 48.2949L67.5637 53.6072L72.6308 52.1236C72.215 50.7024 71.2705 49.5284 69.9719 48.8185Z" fill="#2DCC70"/>
<path d="M70.4005 48.0336C68.9694 47.2507 67.3306 47.0417 65.7564 47.4349L66.0086 48.295C66.4422 48.1894 66.8821 48.1363 67.3193 48.1363C68.2368 48.1363 69.1444 48.3658 69.9719 48.8186C71.2705 49.5285 72.2149 50.7024 72.6308 52.123L73.4888 51.8722C73.0056 50.2221 71.9089 48.859 70.4005 48.0336Z" fill="#6C4B41"/>
<path d="M71.9401 9.02184C73.1622 9.68994 74.5601 9.87273 75.9041 9.54612L74.3482 4.23315L69.2811 5.71673C69.697 7.13725 70.6414 8.31122 71.9401 9.02184Z" fill="#2DCC70"/>
<path d="M68.4231 5.96843C68.9063 7.61851 70.003 8.98164 71.5114 9.80632C72.4721 10.332 73.5264 10.5998 74.5912 10.5998C75.1134 10.5991 75.6384 10.5346 76.1556 10.4057L75.9041 9.54631C74.5601 9.87292 73.1622 9.69013 71.9408 9.02202C70.6421 8.31141 69.6977 7.13744 69.2811 5.71692L68.4231 5.96843Z" fill="#6C4B41"/>
<path d="M59.8511 8.47864L54.7847 9.96292L56.3398 15.2759C59.1178 14.3187 60.685 11.3268 59.8511 8.47864Z" fill="#2DCC70"/>
<path d="M60.7091 8.22705L59.8511 8.47856C60.685 11.3267 59.1171 14.3179 56.3398 15.2751L56.5913 16.1338C59.8419 15.0378 61.6818 11.5485 60.7091 8.22705Z" fill="#6C4B41"/>
<path d="M70.8143 34.9491C69.4377 34.9491 68.066 34.4964 66.9523 33.6752C65.8017 32.825 64.9799 31.6489 64.5767 30.273C63.5692 26.8319 65.5488 23.2137 68.9899 22.2062C69.5872 22.0312 70.2028 21.9426 70.8199 21.9426C72.1965 21.9426 73.5682 22.3946 74.6812 23.2165C75.8325 24.066 76.6543 25.2421 77.0568 26.6187C77.5449 28.285 77.355 30.0421 76.5212 31.566C75.6873 33.0893 74.3114 34.1974 72.6443 34.6855C72.047 34.8605 71.4314 34.9491 70.8143 34.9491Z" fill="#2DCC70"/>
<path d="M70.8199 22.3898C73.4392 22.3898 75.8545 24.1037 76.6281 26.7449C77.5676 29.9537 75.7276 33.3176 72.5182 34.257C71.9507 34.4235 71.3782 34.5029 70.8143 34.5029C68.195 34.5029 65.7797 32.789 65.0061 30.1478C64.0666 26.939 65.9066 23.5758 69.1153 22.6357C69.6835 22.4699 70.2567 22.3898 70.8199 22.3898ZM70.8199 21.495C70.1603 21.495 69.5029 21.5906 68.8645 21.777C67.964 22.0412 67.1429 22.4727 66.4216 23.0615C65.7259 23.6304 65.1534 24.3197 64.7205 25.1118C64.2877 25.9032 64.0156 26.7569 63.9122 27.6496C63.8052 28.5742 63.8845 29.4995 64.1481 30.3993C64.5788 31.8701 65.4567 33.127 66.6873 34.0353C67.2782 34.4717 67.9314 34.8104 68.6279 35.0427C69.3356 35.278 70.0711 35.397 70.8143 35.397C71.4739 35.397 72.1321 35.302 72.7697 35.1157C73.6695 34.8522 74.4913 34.42 75.2126 33.8312C75.9083 33.2623 76.4808 32.5729 76.9137 31.7816C77.3465 30.9895 77.6186 30.1357 77.722 29.2437C77.829 28.3185 77.7497 27.3932 77.4868 26.4934C77.0554 25.0226 76.1775 23.7657 74.9476 22.8574C74.356 22.421 73.7028 22.0816 73.0056 21.8492C72.2986 21.614 71.5631 21.495 70.8199 21.495Z" fill="#6C4B41"/>
<path d="M70.5642 26.1958L71.34 25.9209L72.1597 28.2278C72.3148 28.1328 72.4473 28.0251 72.5572 27.9033C72.6677 27.7814 72.7577 27.661 72.8257 27.5426L72.1108 25.5298L72.9922 25.2167L74.6295 29.8304L73.7481 30.1428L73.2196 28.6543C73.158 28.7471 73.0758 28.8541 72.9737 28.9773C72.8717 29.1006 72.7307 29.2175 72.5494 29.3287L72.9036 30.3249L72.1278 30.5998L71.8076 29.6986C71.5816 29.7708 71.3563 29.7914 71.1331 29.7609C70.9092 29.7298 70.6952 29.6582 70.4905 29.5463C70.285 29.4343 70.0994 29.2834 69.9336 29.0942C69.7678 28.9051 69.636 28.6939 69.5383 28.4616L68.1751 30.9753L67.1663 30.2951L68.5563 28.0896C68.6605 27.9189 68.7554 27.7587 68.8404 27.61C68.9254 27.4619 68.9991 27.3308 69.06 27.2146C69.1302 27.0793 69.1932 26.9546 69.2471 26.8412L70.0399 26.9135C70.0392 27.024 70.0463 27.1253 70.0597 27.2189C70.0732 27.3124 70.1022 27.4229 70.1469 27.549C70.2808 27.9259 70.4621 28.1937 70.6924 28.3525C70.9212 28.5119 71.1543 28.5685 71.3903 28.5239L70.5642 26.1958Z" fill="#6C4B41"/>
<path d="M49.2301 78.5591C48.6407 78.5591 48.1128 78.1637 47.9478 77.5984L34.1046 30.3244C33.8977 29.6173 34.3051 28.8741 35.0121 28.6665L58.2995 21.848C58.4221 21.8119 58.5482 21.7935 58.675 21.7935C59.2645 21.7935 59.7916 22.1888 59.9574 22.7542L73.7998 70.0281C73.8997 70.3703 73.8615 70.7317 73.6893 71.0448C73.5186 71.358 73.2359 71.5854 72.893 71.686L49.6056 78.5052C49.483 78.5414 49.3569 78.5591 49.2301 78.5591Z" fill="#2DCC70"/>
<path d="M58.675 22.3304C59.0207 22.3304 59.3396 22.5564 59.4423 22.9057L73.2848 70.179C73.4088 70.6027 73.1657 71.0469 72.7421 71.1709L49.4547 77.9901C49.3796 78.0121 49.3038 78.022 49.2294 78.022C48.8837 78.022 48.5648 77.796 48.4621 77.4467L34.6196 30.1741C34.4957 29.7504 34.7387 29.3055 35.1623 29.1815L58.4504 22.3623C58.5248 22.3403 58.6013 22.3304 58.675 22.3304ZM58.675 21.2563C58.4972 21.2563 58.32 21.2826 58.1486 21.3329L34.8612 28.1514C33.8701 28.4419 33.2997 29.4847 33.5895 30.4759L47.4327 77.7492C47.5482 78.1452 47.7855 78.4846 48.1171 78.7298C48.4373 78.9657 48.8327 79.096 49.2294 79.096C49.4072 79.096 49.5844 79.0698 49.7565 79.0195L73.0439 72.2003C74.0351 71.9105 74.6047 70.8676 74.3149 69.8765L60.4724 22.6032C60.3562 22.2071 60.1196 21.8685 59.7873 21.6233C59.4671 21.3874 59.0725 21.2563 58.675 21.2563Z" fill="#6C4B41"/>
<path d="M73.2848 70.179L59.4423 22.905C59.3176 22.4813 58.8734 22.2383 58.4504 22.363L35.1623 29.1815C34.7961 29.2892 34.5665 29.635 34.5906 30.0012C34.6558 29.9573 34.7259 29.9205 34.8046 29.8978L58.0926 23.0786C58.5156 22.9546 58.9598 23.1969 59.0845 23.6213L72.927 70.8946C72.944 70.952 72.9525 71.01 72.956 71.0674C73.2408 70.879 73.3861 70.524 73.2848 70.179Z" fill="white"/>
<path d="M50.5607 75.3098C50.4863 75.3098 50.4119 75.2921 50.3453 75.2553C50.2411 75.1986 50.1639 75.1029 50.1313 74.9889L37.3509 31.3438C37.2814 31.1064 37.4175 30.8585 37.6541 30.7897L57.2183 25.0609C57.2594 25.0489 57.3027 25.0425 57.3445 25.0425C57.4188 25.0425 57.4925 25.0616 57.5584 25.0977C57.6626 25.1544 57.7405 25.2501 57.7738 25.3641L70.5528 69.0085C70.5868 69.1226 70.5734 69.2452 70.516 69.3493C70.4593 69.4527 70.3637 69.5307 70.2503 69.564L50.6861 75.2928C50.645 75.3049 50.6032 75.3098 50.5607 75.3098Z" fill="#F9F9F9"/>
<path d="M57.3445 25.4897L70.1249 69.1341L50.5607 74.8629L37.7802 31.2185L57.3445 25.4897ZM57.3452 24.5948C57.2616 24.5948 57.1772 24.6069 57.0936 24.631L37.5294 30.3598C37.3013 30.4264 37.1093 30.5809 36.9959 30.7892C36.8818 30.9975 36.8556 31.2419 36.9222 31.47L49.702 75.1144C49.8167 75.5041 50.1731 75.7577 50.56 75.7577C50.6436 75.7577 50.7279 75.7457 50.8122 75.7216L70.3757 69.9927C70.6031 69.9261 70.7958 69.7717 70.9092 69.5634C71.0233 69.3551 71.0495 69.1107 70.9836 68.8832L58.2024 25.2382C58.0884 24.8478 57.732 24.5948 57.3452 24.5948Z" fill="#6C4B41"/>
<path d="M65.0578 70.6175L70.1242 69.1339L68.5684 63.8217C65.7911 64.7781 64.2232 67.7687 65.0578 70.6175Z" fill="#2DCC70"/>
<path d="M65.0578 70.6175C64.2232 67.7687 65.7911 64.7781 68.5683 63.8217L68.3175 62.9615C65.0663 64.0583 63.2263 67.5476 64.1991 70.8697L65.0578 70.6175Z" fill="#6C4B41"/>
<path d="M52.9681 70.0749C52.1413 69.6221 51.2323 69.3926 50.3148 69.3926C49.8777 69.3926 49.4384 69.4457 49.0041 69.5513L50.56 74.8635L55.6271 73.38C55.2112 71.9587 54.2668 70.7848 52.9681 70.0749Z" fill="#2DCC70"/>
<path d="M53.3967 69.2899C51.9656 68.507 50.3269 68.298 48.7526 68.6912L49.0048 69.5513C49.4384 69.4458 49.8784 69.3926 50.3155 69.3926C51.233 69.3926 52.1406 69.6222 52.9681 70.0749C54.2668 70.7848 55.2112 71.9588 55.6271 73.3793L56.4851 73.1285C56.0019 71.4784 54.9051 70.1153 53.3967 69.2899Z" fill="#6C4B41"/>
<path d="M54.9363 30.2782C56.1584 30.9463 57.5563 31.1291 58.9003 30.8025L57.3445 25.4895L52.2773 26.9731C52.6932 28.3936 53.6376 29.5676 54.9363 30.2782Z" fill="#2DCC70"/>
<path d="M51.4194 27.2247C51.9025 28.8747 52.9993 30.2379 54.5077 31.0625C55.4684 31.5882 56.5226 31.8561 57.5875 31.8561C58.1096 31.8553 58.6346 31.7909 59.1518 31.6619L58.9003 30.8025C57.5563 31.1291 56.1584 30.9464 54.937 30.2782C53.6383 29.5676 52.6939 28.3937 52.2773 26.9731L51.4194 27.2247Z" fill="#6C4B41"/>
<path d="M42.8473 29.7349L37.7809 31.2191L39.3361 36.5321C42.114 35.5749 43.6812 32.583 42.8473 29.7349Z" fill="#2DCC70"/>
<path d="M43.7053 29.4833L42.8473 29.7348C43.6812 32.5829 42.1133 35.5742 39.3361 36.5313L39.5876 37.39C42.8381 36.294 44.6781 32.8047 43.7053 29.4833Z" fill="#6C4B41"/>
<path d="M53.8105 56.2054C52.4339 56.2054 51.0623 55.7527 49.9485 54.9316C48.7979 54.0814 47.9761 52.9053 47.573 51.5294C46.5655 48.0883 48.545 44.47 51.9861 43.4625C52.5834 43.2875 53.1991 43.199 53.8162 43.199C55.1928 43.199 56.5644 43.651 57.6774 44.4728C58.8287 45.3223 59.6506 46.4984 60.053 47.875C60.5412 49.5414 60.3513 51.2984 59.5174 52.8224C58.6835 54.3456 57.3076 55.4537 55.6405 55.9419C55.0433 56.1169 54.4276 56.2054 53.8105 56.2054Z" fill="#2DCC70"/>
<path d="M53.8162 43.646C56.4355 43.646 58.8507 45.3599 59.6244 48.0011C60.5638 51.2099 58.7239 54.5738 55.5144 55.5132C54.9469 55.6797 54.3745 55.7591 53.8105 55.7591C51.1912 55.7591 48.776 54.0453 48.0023 51.404C47.0628 48.1953 48.9028 44.8321 52.1115 43.8919C52.6798 43.7261 53.2529 43.646 53.8162 43.646ZM53.8162 42.7512C53.1566 42.7512 52.4991 42.8469 51.8607 43.0332C50.9602 43.2975 50.1391 43.7289 49.4179 44.3177C48.7221 44.8866 48.1497 45.576 47.7168 46.3681C47.2839 47.1594 47.0118 48.0132 46.9084 48.9059C46.8014 49.8305 46.8808 50.7557 47.1443 51.6555C47.5751 53.1263 48.4529 54.3832 49.6836 55.2915C50.2744 55.7279 50.9277 56.0666 51.6241 56.299C52.3319 56.5342 53.0673 56.6532 53.8105 56.6532C54.4701 56.6532 55.1283 56.5583 55.7659 56.3719C56.6657 56.1084 57.4876 55.6762 58.2088 55.0874C58.9045 54.5185 59.477 53.8292 59.9099 53.0378C60.3428 52.2457 60.6148 51.392 60.7183 50.5C60.8253 49.5747 60.7459 48.6494 60.4831 47.7496C60.0516 46.2788 59.1738 45.0219 57.9438 44.1136C57.3522 43.6772 56.699 43.3379 56.0019 43.1055C55.2948 42.8702 54.5594 42.7512 53.8162 42.7512Z" fill="#6C4B41"/>
<path d="M53.5604 47.4522L54.3362 47.1773L55.1559 49.4841C55.3111 49.3892 55.4436 49.2815 55.5534 49.1596C55.6639 49.0378 55.7539 48.9173 55.8219 48.799L55.107 46.7862L55.9884 46.473L57.6257 51.0867L56.7444 51.3992L56.2158 49.9106C56.1542 50.0034 56.072 50.1104 55.97 50.2337C55.868 50.357 55.727 50.4739 55.5456 50.5851L55.8998 51.5812L55.124 51.8561L54.8038 50.9549C54.5778 51.0272 54.3525 51.0477 54.1293 51.0173C53.9054 50.9861 53.6915 50.9145 53.4867 50.8026C53.2813 50.6907 53.0956 50.5398 52.9299 50.3506C52.7641 50.1614 52.6323 49.9503 52.5345 49.7179L51.1714 52.2316L50.1625 51.5515L51.5526 49.3459C51.6567 49.1752 51.7516 49.0151 51.8367 48.8663C51.9217 48.7182 51.9954 48.5872 52.0563 48.471C52.1264 48.3356 52.1895 48.2109 52.2433 48.0976L53.0361 48.1699C53.0354 48.2804 53.0425 48.3817 53.056 48.4752C53.0694 48.5687 53.0985 48.6793 53.1431 48.8054C53.277 49.1823 53.4584 49.4501 53.6886 49.6088C53.9175 49.7682 54.1506 49.8249 54.3865 49.7803L53.5604 47.4522Z" fill="#6C4B41"/>
<path d="M116.374 98.5406C116.374 99.6381 90.4628 100.527 58.5 100.527C26.5372 100.527 0.626305 99.6381 0.626305 98.5406C0.626305 97.4432 26.5372 96.5526 58.5 96.5526C90.4628 96.5526 116.374 97.4432 116.374 98.5406Z" fill="#D2BEB9"/>
<path d="M25.9931 97.8881C24.3791 97.8881 23.055 96.4505 23.0436 94.6836L22.7836 56.0149C22.7779 55.1676 23.0705 54.3648 23.6069 53.7555C24.1616 53.1257 24.9084 52.7764 25.709 52.7714L28.7689 52.7516C28.7838 52.7502 28.7987 52.7502 28.8136 52.7495L38.6049 52.6857C38.612 52.685 38.6177 52.6843 38.6247 52.6843C38.6609 52.6815 38.7069 52.6779 38.7593 52.6772L90.9814 52.3364C92.1866 52.3364 93.1742 53.317 93.182 54.5221L93.4555 95.2383C93.4597 95.8264 93.2337 96.3804 92.8214 96.7984C92.4083 97.2171 91.8571 97.4495 91.2691 97.4531L84.909 97.4949V97.5012L78.9024 97.5409C78.8875 97.5416 78.8719 97.5423 78.8577 97.5423L25.9931 97.8881Z" fill="#EB974E"/>
<path d="M92.5557 54.5257C92.5493 53.6564 91.8401 52.9578 90.9715 52.9628L82.9691 53.0145C83.6422 53.1895 84.1417 53.7974 84.1466 54.5257L84.3174 81.4625C84.3478 86.3397 81.12 90.6488 76.422 91.9581C67.8981 94.3322 51.9677 96.7149 23.7047 95.6443L23.2562 97.9696H85.7818L85.9278 96.8615L91.2648 96.8275C92.1341 96.8219 92.8348 96.1119 92.8285 95.2426L92.5557 54.5257Z" fill="#D1813E"/>
<path d="M25.2796 95.215L25.0196 56.5477C25.0104 55.1123 26.0413 53.9419 27.3222 53.9334L30.4027 53.9136C30.4112 53.9136 30.419 53.9122 30.4275 53.9122L40.2373 53.8477C40.2826 53.8449 40.3272 53.8399 40.3733 53.8399L92.166 53.5012C91.8755 53.169 91.4476 52.9585 90.9708 52.9621L38.7636 53.3029C38.7176 53.3036 38.6729 53.3085 38.6276 53.3107L28.8171 53.3751C28.8086 53.3751 28.8008 53.3765 28.7923 53.3765L25.7118 53.3971C24.4309 53.4049 23.4 54.5753 23.4099 56.0107L23.6699 94.6794C23.6791 96.1141 24.7256 97.2696 26.0065 97.2611L26.1922 97.2597C25.6431 96.7885 25.2853 96.0496 25.2796 95.215Z" fill="#F7BC8D"/>
<path d="M25.4716 68.9109L36.2598 68.8365C37.5847 68.8365 38.833 69.3509 39.7739 70.284C40.7155 71.2185 41.2384 72.4633 41.2483 73.7896L41.2532 74.547C41.2624 75.8796 40.7523 77.1351 39.8164 78.0838C38.8812 79.0331 37.6321 79.561 36.2995 79.5695L25.5467 79.6453L25.4716 68.9109Z" fill="#D1813E"/>
<path d="M36.2598 69.2829C38.7537 69.2822 40.7828 71.295 40.8005 73.7924L40.8062 74.5491C40.8232 77.0571 38.804 79.1047 36.2959 79.1224L25.9909 79.1947L25.9222 69.3544L36.2272 69.2829H36.2598ZM36.2598 68.3881V69.2829V68.3881C36.247 68.3881 36.2336 68.3881 36.2208 68.3881L25.9158 68.4603L25.021 68.4667L25.0274 69.3608L25.0961 79.201L25.1025 80.0951L25.9973 80.0888L36.3023 80.0172C37.754 80.0066 39.1157 79.432 40.1352 78.3976C41.1547 77.3639 41.7102 75.9951 41.7003 74.5434L41.6946 73.7868C41.6847 72.3414 41.1144 70.9847 40.0892 69.9666C39.064 68.9485 37.7037 68.3881 36.2598 68.3881Z" fill="#6C4B41"/>
<path d="M23.0543 68.9222L33.8424 68.8478C35.168 68.8478 36.4157 69.3614 37.3565 70.2952C38.2981 71.2297 38.821 72.4745 38.8309 73.8008L38.8359 74.5582C38.855 77.3093 36.6332 79.563 33.8821 79.5821L23.1294 79.6565L23.0543 68.9222Z" fill="#DC7633"/>
<path d="M33.8424 69.295C36.3356 69.295 38.3654 71.3078 38.3831 73.8052L38.3881 74.5619C38.4058 77.07 36.3866 79.1175 33.8786 79.1352L23.5729 79.2068L23.5042 69.3673L33.8098 69.2957C33.8205 69.295 33.8311 69.295 33.8424 69.295ZM33.8424 68.4009V69.295V68.4009H33.8035L23.4978 68.4731L22.6037 68.4788L22.61 69.3736L22.6788 79.2131L22.6844 80.108L23.5793 80.1016L33.8849 80.03C35.3366 80.0194 36.6976 79.4441 37.7172 78.4104C38.7367 77.3767 39.2928 76.0072 39.2829 74.5555L39.2773 73.7989C39.2673 72.3535 38.697 70.9975 37.6711 69.9787C36.6466 68.9613 35.2863 68.4009 33.8424 68.4009Z" fill="#6C4B41"/>
<path d="M38.3831 73.8044C38.3654 71.2963 36.3179 69.2778 33.8098 69.2955L23.5049 69.3664L23.5084 69.9034L23.5736 79.2073L25.0047 79.1967L24.9445 70.6459C24.9417 70.23 25.2761 69.8907 25.6913 69.8878L33.8098 69.8319C36.3179 69.8141 38.3661 71.8333 38.3831 74.3414L38.3853 74.7098C38.3867 74.6609 38.3888 74.6113 38.3881 74.5617L38.3831 73.8044Z" fill="#F7BC8D"/>
<path d="M33.0688 72.6525C33.739 72.6525 34.2867 73.3447 34.2923 74.2027C34.298 75.0642 33.7574 75.7656 33.0836 75.7706H33.0766C32.4063 75.7706 31.8587 75.0784 31.853 74.2197C31.8466 73.3589 32.3886 72.6575 33.0617 72.6525H33.0688ZM33.0688 71.7577H33.0553C32.4573 71.7619 31.8884 72.0574 31.4938 72.5689C31.1445 73.0223 30.9546 73.6111 30.9582 74.2261C30.9624 74.8389 31.1601 75.4234 31.5136 75.8712C31.9118 76.3756 32.4814 76.6647 33.0766 76.6647H33.09C33.688 76.6604 34.2569 76.365 34.6508 75.8542C35.0008 75.4007 35.1914 74.812 35.1864 74.1963C35.1822 73.5835 34.9852 72.999 34.6317 72.5512C34.2335 72.0468 33.6639 71.7577 33.0688 71.7577Z" fill="#6C4B41"/>
<path d="M32.2108 74.5775C32.2044 73.7166 32.7457 73.0145 33.4195 73.0103C33.6235 73.0089 33.8162 73.0719 33.9863 73.1846C33.7602 72.8565 33.4301 72.6497 33.0617 72.6525C32.3879 72.6575 31.8466 73.3589 31.853 74.2197C31.8572 74.8198 32.1265 75.3377 32.5168 75.5956C32.3291 75.3235 32.2136 74.9685 32.2108 74.5775Z" fill="#F7BC8D"/>
<path d="M29.2599 93.1972L32.5126 93.1746C32.6996 93.1732 32.8527 93.3659 32.8541 93.6053C32.8562 93.8448 32.7053 94.0389 32.5183 94.0403L29.2663 94.0644C29.0792 94.0658 28.9255 93.8724 28.9241 93.6337C28.9227 93.3942 29.0729 93.1987 29.2599 93.1972Z" fill="#6C4B41"/>
<path d="M23.0188 93.1972L26.2715 93.1746C26.4586 93.1732 26.6116 93.3659 26.613 93.6053C26.6151 93.8448 26.4642 94.0389 26.2772 94.0403L23.0252 94.0644C22.8382 94.0658 22.6844 93.8724 22.683 93.6337C22.6816 93.3942 22.8318 93.1987 23.0188 93.1972Z" fill="#6C4B41"/>
<path d="M35.2226 93.1561L38.4745 93.1334C38.6616 93.132 38.8153 93.3247 38.8167 93.5642C38.8182 93.803 38.668 93.9978 38.4809 93.9992L35.2282 94.0219C35.0412 94.0233 34.8882 93.8306 34.8867 93.5911C34.8846 93.3524 35.0355 93.1575 35.2226 93.1561Z" fill="#6C4B41"/>
<path d="M41.1852 93.1136L44.4379 93.091C44.6249 93.0895 44.778 93.2822 44.7794 93.5217C44.7815 93.7612 44.6306 93.9553 44.4436 93.9567L41.1916 93.9808C41.0046 93.9822 40.8508 93.7888 40.8494 93.5501C40.848 93.3106 40.9982 93.115 41.1852 93.1136Z" fill="#6C4B41"/>
<path d="M47.1486 93.0725L50.4005 93.0498C50.5876 93.0484 50.7413 93.2411 50.7427 93.4806C50.7442 93.72 50.594 93.9142 50.4069 93.9156L47.1542 93.9383C46.9672 93.9397 46.8142 93.747 46.8128 93.5082C46.8106 93.2687 46.9615 93.0739 47.1486 93.0725Z" fill="#6C4B41"/>
<path d="M53.1112 93.03L56.3639 93.0073C56.5509 93.0059 56.704 93.1986 56.7054 93.4381C56.7075 93.6776 56.5566 93.8724 56.3696 93.8731L53.1176 93.8972C52.9306 93.8986 52.7768 93.7059 52.7754 93.4664C52.774 93.227 52.9242 93.0314 53.1112 93.03Z" fill="#6C4B41"/>
<path d="M59.0739 92.989L62.3258 92.9663C62.5129 92.9649 62.6666 93.1576 62.668 93.3971C62.6695 93.6365 62.5193 93.8307 62.3322 93.8321L59.0795 93.8555C58.8925 93.8562 58.7395 93.6635 58.7381 93.4247C58.7359 93.1852 58.8868 92.9904 59.0739 92.989Z" fill="#6C4B41"/>
<path d="M65.0365 92.9479L68.2892 92.9252C68.4762 92.9238 68.6293 93.1165 68.6307 93.3559C68.6328 93.5947 68.4819 93.7895 68.2949 93.791L65.0429 93.8136C64.8559 93.815 64.7021 93.6223 64.7007 93.3829C64.6993 93.1441 64.8495 92.9486 65.0365 92.9479Z" fill="#6C4B41"/>
<path d="M70.9999 92.9054L74.2519 92.8827C74.4396 92.8813 74.5926 93.074 74.5941 93.3135C74.5962 93.5529 74.4453 93.7471 74.2582 93.7485L71.0048 93.7726C70.8178 93.774 70.6648 93.5806 70.6634 93.3418C70.6612 93.1023 70.8128 92.9068 70.9999 92.9054Z" fill="#6C4B41"/>
<path d="M77.2991 92.862L80.5517 92.8394C80.7388 92.8379 80.8918 93.0307 80.8932 93.2701C80.8954 93.5096 80.7445 93.7037 80.5581 93.7051L77.3054 93.7285C77.1184 93.7292 76.9647 93.5365 76.9632 93.2978C76.9618 93.0583 77.112 92.8635 77.2991 92.862Z" fill="#6C4B41"/>
<path d="M83.1009 92.821L86.3536 92.7983C86.5399 92.7969 86.6929 92.9896 86.6951 93.2291C86.6965 93.4679 86.5463 93.6627 86.3592 93.6641L83.1073 93.6868C82.9195 93.6882 82.7665 93.4955 82.7644 93.256C82.7629 93.0173 82.9131 92.8224 83.1009 92.821Z" fill="#6C4B41"/>
<path d="M88.9417 92.7807L92.1944 92.7581C92.3807 92.7566 92.5337 92.9494 92.5359 93.1888C92.5373 93.4276 92.3871 93.6224 92.2 93.6238L88.9474 93.6465C88.7603 93.6479 88.6073 93.4552 88.6052 93.2157C88.6037 92.977 88.7539 92.7822 88.9417 92.7807Z" fill="#6C4B41"/>
<path d="M28.8653 57.2428L32.118 57.2201C32.305 57.2187 32.458 57.4114 32.4595 57.6509C32.4616 57.8903 32.3114 58.0845 32.1243 58.0859L28.8717 58.1093C28.6846 58.11 28.5316 57.9173 28.5295 57.6785C28.528 57.439 28.6782 57.2442 28.8653 57.2428Z" fill="#6C4B41"/>
<path d="M22.6249 57.2428L25.8769 57.2201C26.0639 57.2187 26.2177 57.4114 26.2191 57.6509C26.2205 57.8903 26.0703 58.0845 25.8833 58.0859L22.6306 58.1093C22.4435 58.11 22.2905 57.9173 22.2891 57.6785C22.287 57.439 22.4379 57.2442 22.6249 57.2428Z" fill="#6C4B41"/>
<path d="M34.8279 57.2009L38.0806 57.179C38.2677 57.1775 38.4207 57.3703 38.4221 57.6097C38.4242 57.8492 38.2733 58.0433 38.0863 58.044L34.8336 58.0681C34.6473 58.0695 34.4935 57.8768 34.4921 57.6374C34.4907 57.3979 34.6409 57.2023 34.8279 57.2009Z" fill="#6C4B41"/>
<path d="M40.7906 57.1592L44.0433 57.1365C44.2303 57.1351 44.3833 57.3278 44.3848 57.5672C44.3869 57.8067 44.2367 58.0008 44.0496 58.0023L40.797 58.0256C40.6099 58.0263 40.4569 57.8336 40.4548 57.5949C40.4534 57.3554 40.6036 57.1606 40.7906 57.1592Z" fill="#6C4B41"/>
<path d="M46.7539 57.118L50.0066 57.0953C50.1937 57.0939 50.3467 57.2866 50.3481 57.5261C50.3502 57.7649 50.1993 57.9597 50.0123 57.9611L46.7596 57.9838C46.5733 57.9852 46.4195 57.7925 46.4181 57.553C46.4167 57.3143 46.5669 57.1187 46.7539 57.118Z" fill="#6C4B41"/>
<path d="M52.7166 57.0756L55.9686 57.0536C56.1556 57.0522 56.3094 57.2449 56.3108 57.4844C56.3122 57.7238 56.162 57.9172 55.9749 57.9187L52.7223 57.9428C52.5352 57.9442 52.3822 57.7508 52.3808 57.512C52.3786 57.2725 52.5296 57.077 52.7166 57.0756Z" fill="#6C4B41"/>
<path d="M58.6792 57.0345L61.9319 57.0118C62.119 57.0104 62.272 57.2031 62.2734 57.4426C62.2755 57.6814 62.1246 57.8762 61.9376 57.8776L58.6856 57.9003C58.4986 57.9017 58.3448 57.709 58.3434 57.4695C58.342 57.2308 58.4922 57.0359 58.6792 57.0345Z" fill="#6C4B41"/>
<path d="M64.6426 56.9927L67.8946 56.9707C68.0816 56.9693 68.2354 57.162 68.2368 57.4015C68.2382 57.6409 68.088 57.8344 67.901 57.8358L64.6483 57.8599C64.4612 57.8613 64.3082 57.6679 64.3068 57.4291C64.3047 57.1896 64.4556 56.9941 64.6426 56.9927Z" fill="#6C4B41"/>
<path d="M70.6053 56.9516L73.8572 56.929C74.045 56.9275 74.198 57.1203 74.1994 57.3597C74.2016 57.5992 74.0514 57.7933 73.8636 57.7947L70.6116 57.8181C70.4246 57.8188 70.2709 57.6261 70.2694 57.3874C70.268 57.1479 70.4182 56.9531 70.6053 56.9516Z" fill="#6C4B41"/>
<path d="M76.9044 56.9076L80.1571 56.8849C80.3442 56.8835 80.4972 57.0762 80.4986 57.3157C80.5007 57.5544 80.3505 57.7493 80.1635 57.7507L76.9108 57.7733C76.7238 57.7748 76.5707 57.582 76.5686 57.3426C76.5672 57.1038 76.7174 56.9083 76.9044 56.9076Z" fill="#6C4B41"/>
<path d="M82.707 56.8658L85.9596 56.8439C86.146 56.8425 86.299 57.0352 86.3011 57.2746C86.3026 57.5141 86.1524 57.7082 85.966 57.7089L82.7133 57.733C82.5256 57.7345 82.3726 57.5417 82.3711 57.3023C82.369 57.0628 82.5199 56.8673 82.707 56.8658Z" fill="#6C4B41"/>
<path d="M88.5478 56.8254L91.8004 56.8035C91.9868 56.8021 92.1398 56.9948 92.1419 57.2342C92.1433 57.4737 91.9931 57.6678 91.8061 57.6685L88.5541 57.6926C88.3664 57.694 88.2134 57.5013 88.2119 57.2619C88.2098 57.0224 88.36 56.8269 88.5478 56.8254Z" fill="#6C4B41"/>
<path d="M116.374 98.5065H0.626307C0.280559 98.5065 0 98.226 0 97.8802C0 97.5345 0.280559 97.2539 0.626307 97.2539H116.374C116.719 97.2539 117 97.5345 117 97.8802C117 98.226 116.719 98.5065 116.374 98.5065Z" fill="#6C4B41"/>
<path d="M90.9821 52.9628C91.8465 52.9628 92.5493 53.66 92.5557 54.5257L92.8292 95.2427C92.8355 96.112 92.1356 96.8212 91.2655 96.8268L84.2784 96.8729V96.8793L78.8783 96.9147C78.8698 96.9147 78.862 96.9161 78.8535 96.9161L26.0072 97.2618H25.9931C24.7185 97.2618 23.6798 96.1084 23.6706 94.6787L23.4099 56.0107C23.4 54.576 24.4316 53.4056 25.7125 53.3971L28.7937 53.3773C28.8015 53.3773 28.81 53.3759 28.8178 53.3759L38.6283 53.3114C38.6736 53.3086 38.7183 53.3043 38.7643 53.3036L90.9708 52.9628H90.9821ZM90.9821 51.7102H90.9637L38.7558 52.051C38.6835 52.0517 38.6219 52.0567 38.5808 52.0595L28.81 52.1233C28.7874 52.1233 28.7668 52.124 28.7491 52.1247L25.7047 52.1452C24.7235 52.1516 23.8116 52.5767 23.1379 53.3411C22.4995 54.0666 22.1516 55.0174 22.158 56.0199L22.4173 94.6872C22.4237 95.6855 22.7829 96.6285 23.4262 97.344C24.1049 98.0986 25.0168 98.5145 25.9931 98.5145H26.0164L78.8627 98.168C78.8854 98.168 78.9045 98.1673 78.9222 98.1666L84.2876 98.1312L85.5381 98.1234V98.1163L91.2733 98.0794C92.0286 98.0745 92.7371 97.7755 93.2677 97.2385C93.7977 96.7007 94.0867 95.9894 94.0818 95.2341L93.8083 54.5172C93.8026 53.7662 93.5058 53.0606 92.973 52.5313C92.4402 52.0021 91.7338 51.7102 90.9821 51.7102Z" fill="#6C4B41"/>
</svg>
