<svg width="147" height="108" viewBox="0 0 147 108" fill="none" xmlns="http://www.w3.org/2000/svg">
<path d="M117.657 104.711C130.871 93.8858 139.305 77.4424 139.305 59.0272C139.305 26.4279 112.878 0 80.2776 0C47.6783 0 21.2522 26.4279 21.2522 59.0272C21.2522 77.4424 29.6855 93.8858 42.8999 104.711C54.0806 104.525 66.7927 104.419 80.2776 104.419C93.7625 104.419 106.477 104.525 117.657 104.711Z" fill="#BBF97A"/>
<path d="M26.0509 88.7861C25.6393 88.3745 25.6393 87.708 26.0509 87.2963C26.4626 86.8846 27.1291 86.8846 27.5407 87.2963C27.9524 87.708 27.9524 88.3745 27.5407 88.7861C27.1291 89.1978 26.4626 89.1978 26.0509 88.7861Z" fill="#6C4B41"/>
<path d="M139.323 89.2981C139.323 89.9699 138.778 90.515 138.107 90.515C137.435 90.515 136.891 89.9699 136.891 89.2981C136.891 88.6271 137.435 88.0828 138.107 88.0828C138.778 88.0828 139.323 88.6271 139.323 89.2981Z" fill="#6C4B41"/>
<path d="M140.058 46.6333C140.257 47.1565 139.994 47.7431 139.47 47.9422C138.946 48.1412 138.36 47.8781 138.161 47.3548C137.962 46.8308 138.225 46.2443 138.749 46.0452C139.272 45.8462 139.858 46.1093 140.058 46.6333Z" fill="#6C4B41"/>
<path d="M134.889 38.0623C135.124 37.8279 134.976 37.2714 134.561 36.6404C134.438 36.4527 134.438 36.2114 134.561 36.0237C134.976 35.3926 135.124 34.8362 134.889 34.6017C134.655 34.3672 134.098 34.515 133.467 34.9297C133.279 35.0526 133.038 35.0526 132.85 34.9297C132.22 34.515 131.664 34.3672 131.428 34.6017C131.195 34.8362 131.342 35.3926 131.757 36.0237C131.88 36.2114 131.88 36.4527 131.757 36.6404C131.342 37.2714 131.195 37.8279 131.428 38.0623C131.664 38.2968 132.22 38.1491 132.85 37.7344C133.038 37.6115 133.279 37.6115 133.467 37.7344C134.098 38.1491 134.655 38.2968 134.889 38.0623Z" fill="#6C4B41"/>
<path d="M22.1997 81.1766C22.4689 81.1766 22.7041 80.7709 22.8285 80.17C22.8655 79.9913 23.005 79.8526 23.1836 79.8157C23.7845 79.6905 24.1902 79.4553 24.1902 79.1861C24.1902 78.9162 23.7845 78.681 23.1836 78.5566C23.005 78.5196 22.8655 78.3809 22.8285 78.2022C22.7041 77.6006 22.4689 77.1957 22.1997 77.1957C21.9298 77.1957 21.6953 77.6006 21.5702 78.2022C21.5332 78.3809 21.3945 78.5196 21.2158 78.5566C20.6142 78.681 20.2093 78.9162 20.2093 79.1861C20.2093 79.4553 20.6142 79.6905 21.2158 79.8157C21.3945 79.8526 21.5332 79.9913 21.5702 80.17C21.6953 80.7709 21.9298 81.1766 22.1997 81.1766Z" fill="#6C4B41"/>
<path d="M37.3588 21.3192C36.874 20.5751 37.0851 19.5791 37.8292 19.0943C38.5734 18.6102 39.5701 18.8206 40.0542 19.5648C40.5382 20.3097 40.3279 21.3049 39.5837 21.7897C38.8396 22.2745 37.8436 22.0634 37.3588 21.3192Z" fill="#6C4B41"/>
<path d="M29.8901 28.451C30.01 27.8832 30.5679 27.5206 31.1356 27.6405C31.7041 27.7603 32.0668 28.3183 31.9469 28.886C31.8262 29.4537 31.2691 29.8171 30.7013 29.6965C30.1329 29.5766 29.7702 29.0187 29.8901 28.451Z" fill="#6C4B41"/>
<path d="M83.2169 97.4538C82.4763 97.4538 81.8132 96.9571 81.6057 96.2468L64.213 36.8513C63.9531 35.9629 64.4649 35.0291 65.3533 34.7683L94.6118 26.2015C94.7658 26.1561 94.9242 26.1329 95.0836 26.1329C95.8242 26.1329 96.4864 26.6296 96.6947 27.34L114.087 86.7355C114.212 87.1654 114.164 87.6194 113.948 88.0129C113.733 88.4063 113.378 88.6921 112.947 88.8185L83.6887 97.3862C83.5347 97.4316 83.3763 97.4538 83.2169 97.4538Z" fill="#2DCC70"/>
<path d="M95.0836 26.8076C95.518 26.8076 95.9185 27.0916 96.0476 27.5304L113.439 86.925C113.595 87.4573 113.29 88.0155 112.758 88.1712L83.4991 96.739C83.4047 96.7666 83.3095 96.779 83.216 96.779C82.7816 96.779 82.3811 96.4951 82.252 96.0562L64.8602 36.6625C64.7044 36.1302 65.0097 35.5712 65.542 35.4154L94.8014 26.8477C94.8949 26.8201 94.991 26.8076 95.0836 26.8076ZM95.0836 25.4581C94.8601 25.4581 94.6376 25.4911 94.4222 25.5543L65.1637 34.1211C63.9184 34.4861 63.2018 35.7964 63.5659 37.0417L80.9586 96.4363C81.1037 96.9339 81.4019 97.3603 81.8185 97.6683C82.2208 97.9647 82.7175 98.1285 83.216 98.1285C83.4395 98.1285 83.662 98.0956 83.8783 98.0324L113.137 89.4646C114.382 89.1006 115.098 87.7903 114.734 86.5449L97.3419 27.1503C97.1959 26.6527 96.8986 26.2272 96.4811 25.9192C96.0788 25.6228 95.5829 25.4581 95.0836 25.4581Z" fill="#6C4B41"/>
<path d="M113.439 86.925L96.0476 27.5295C95.891 26.9972 95.3328 26.6919 94.8014 26.8486L65.5421 35.4154C65.0819 35.5507 64.7934 35.9851 64.8237 36.4453C64.9056 36.3901 64.9937 36.3438 65.0925 36.3154L94.3519 27.7476C94.8833 27.5918 95.4414 27.8963 95.5981 28.4295L112.99 87.8241C113.011 87.8962 113.022 87.9692 113.026 88.0413C113.384 87.8045 113.567 87.3586 113.439 86.925Z" fill="white"/>
<path d="M84.8887 93.3715C84.7952 93.3715 84.7017 93.3493 84.6181 93.303C84.4872 93.2318 84.3902 93.1116 84.3492 92.9683L68.2917 38.1321C68.2045 37.8339 68.3754 37.5224 68.6727 37.436L93.2534 30.2382C93.3051 30.2231 93.3594 30.2151 93.4119 30.2151C93.5053 30.2151 93.5979 30.2391 93.6807 30.2845C93.8116 30.3557 93.9095 30.4759 93.9513 30.6192L110.007 85.4545C110.05 85.5978 110.033 85.7518 109.961 85.8826C109.89 86.0126 109.769 86.1105 109.627 86.1524L85.0462 93.3501C84.9946 93.3653 84.9421 93.3715 84.8887 93.3715Z" fill="#F9F9F9"/>
<path d="M93.4119 30.7768L109.469 85.6121L84.8886 92.8099L68.8312 37.9746L93.4119 30.7768ZM93.4128 29.6526C93.3077 29.6526 93.2018 29.6677 93.0967 29.698L68.516 36.8958C68.2294 36.9794 67.9882 37.1735 67.8458 37.4352C67.7024 37.6969 67.6695 38.004 67.7532 38.2906L83.8098 93.1259C83.954 93.6155 84.4017 93.9341 84.8877 93.9341C84.9928 93.9341 85.0987 93.919 85.2046 93.8887L109.784 86.691C110.07 86.6073 110.312 86.4132 110.455 86.1515C110.598 85.8898 110.631 85.5827 110.548 85.297L94.4898 30.4608C94.3465 29.9704 93.8988 29.6526 93.4128 29.6526Z" fill="#6C4B41"/>
<path d="M103.103 87.476L109.468 85.612L107.514 78.9376C104.024 80.1393 102.054 83.8967 103.103 87.476Z" fill="#2DCC70"/>
<path d="M103.103 87.4759C102.054 83.8966 104.024 80.1393 107.514 78.9376L107.199 77.8569C103.114 79.2349 100.802 83.6189 102.024 87.7928L103.103 87.4759Z" fill="#6C4B41"/>
<path d="M87.9134 86.7941C86.8746 86.2253 85.7325 85.9369 84.5798 85.9369C84.0305 85.9369 83.4786 86.0037 82.933 86.1363L84.8878 92.8107L91.2541 90.9467C90.7316 89.161 89.545 87.686 87.9134 86.7941Z" fill="#2DCC70"/>
<path d="M88.4519 85.8079C86.6538 84.8242 84.5949 84.5617 82.617 85.0557L82.9339 86.1363C83.4786 86.0037 84.0314 85.9369 84.5807 85.9369C85.7334 85.9369 86.8737 86.2253 87.9134 86.7942C89.545 87.6861 90.7316 89.1611 91.2541 90.9458L92.3321 90.6307C91.725 88.5576 90.3471 86.8449 88.4519 85.8079Z" fill="#6C4B41"/>
<path d="M90.3862 36.7933C91.9217 37.6327 93.678 37.8624 95.3666 37.452L93.4119 30.7767L87.0455 32.6407C87.568 34.4255 88.7546 35.9005 90.3862 36.7933Z" fill="#2DCC70"/>
<path d="M85.9675 32.9568C86.5746 35.0299 87.9525 36.7426 89.8477 37.7787C91.0547 38.4392 92.3793 38.7757 93.7172 38.7757C94.3732 38.7748 95.0328 38.6938 95.6826 38.5318L95.3666 37.452C93.678 37.8624 91.9217 37.6327 90.3871 36.7933C88.7555 35.9005 87.5689 34.4255 87.0455 32.6407L85.9675 32.9568Z" fill="#6C4B41"/>
<path d="M75.1976 36.1106L68.8321 37.9755L70.7859 44.6507C74.2762 43.4481 76.2453 39.689 75.1976 36.1106Z" fill="#2DCC70"/>
<path d="M76.2755 35.7946L75.1976 36.1106C76.2453 39.689 74.2754 43.4472 70.7859 44.6498L71.102 45.7287C75.186 44.3516 77.4977 39.9676 76.2755 35.7946Z" fill="#6C4B41"/>
<path d="M88.9718 69.3684C87.2422 69.3684 85.5189 68.7996 84.1195 67.7679C82.6739 66.6997 81.6414 65.2221 81.1349 63.4934C79.8691 59.1699 82.3561 54.6239 86.6796 53.3581C87.43 53.1382 88.2036 53.027 88.9789 53.027C90.7085 53.027 92.4318 53.5949 93.8302 54.6275C95.2767 55.6948 96.3093 57.1724 96.8149 58.902C97.4282 60.9956 97.1897 63.2032 96.142 65.1179C95.0942 67.0318 93.3656 68.424 91.271 69.0373C90.5206 69.2572 89.7471 69.3684 88.9718 69.3684Z" fill="#2DCC70"/>
<path d="M88.9789 53.5887C92.2698 53.5887 95.3043 55.742 96.2764 59.0605C97.4567 63.092 95.145 67.3185 91.1126 68.4988C90.3996 68.708 89.6803 68.8077 88.9718 68.8077C85.6809 68.8077 82.6463 66.6544 81.6743 63.3359C80.4939 59.3044 82.8057 55.0789 86.8372 53.8976C87.5511 53.6893 88.2712 53.5887 88.9789 53.5887ZM88.9789 52.4645C88.1502 52.4645 87.3241 52.5846 86.5221 52.8188C85.3907 53.1508 84.359 53.6929 83.4528 54.4326C82.5787 55.1474 81.8594 56.0135 81.3156 57.0087C80.7717 58.003 80.4298 59.0757 80.2999 60.1972C80.1655 61.3589 80.2652 62.5214 80.5963 63.6519C81.1375 65.4999 82.2404 67.079 83.7866 68.2202C84.529 68.7685 85.3497 69.194 86.2248 69.486C87.114 69.7815 88.038 69.9311 88.9718 69.9311C89.8005 69.9311 90.6275 69.8118 91.4286 69.5777C92.5591 69.2465 93.5917 68.7036 94.4978 67.9638C95.372 67.249 96.0912 66.3829 96.6351 65.3886C97.179 64.3934 97.5208 63.3208 97.6508 62.2001C97.7852 61.0375 97.6855 59.875 97.3552 58.7445C96.8131 56.8966 95.7102 55.3174 94.1649 54.1762C93.4216 53.6279 92.6009 53.2015 91.725 52.9096C90.8366 52.614 89.9127 52.4645 88.9789 52.4645Z" fill="#6C4B41"/>
<path d="M88.6575 58.3707L89.6323 58.0253L90.6622 60.9237C90.8571 60.8044 91.0236 60.6691 91.1615 60.516C91.3004 60.3629 91.4135 60.2115 91.4989 60.0629L90.6008 57.534L91.7081 57.1405L93.7652 62.9372L92.6579 63.3297L91.9938 61.4595C91.9164 61.5761 91.8131 61.7106 91.685 61.8654C91.5568 62.0203 91.3796 62.1672 91.1518 62.307L91.5968 63.5585L90.6221 63.9039L90.2198 62.7716C89.9358 62.8624 89.6527 62.8882 89.3723 62.8499C89.091 62.8108 88.8222 62.7209 88.565 62.5802C88.3068 62.4396 88.0736 62.25 87.8653 62.0123C87.657 61.7746 87.4914 61.5094 87.3686 61.2174L85.6559 64.3757L84.3884 63.5211L86.1348 60.7501C86.2657 60.5355 86.385 60.3344 86.4918 60.1474C86.5986 59.9614 86.6912 59.7967 86.7677 59.6507C86.8559 59.4807 86.9351 59.3241 87.0027 59.1816L87.9988 59.2724C87.9979 59.4113 88.0068 59.5386 88.0238 59.6561C88.0407 59.7736 88.0772 59.9124 88.1332 60.0709C88.3015 60.5445 88.5294 60.8809 88.8187 61.0803C89.1062 61.2806 89.399 61.3518 89.6955 61.2957L88.6575 58.3707Z" fill="#6C4B41"/>
<path d="M61.8532 96.1185C61.1126 96.1185 60.4494 95.6218 60.242 94.9115L42.8493 35.5159C42.5894 34.6276 43.1012 33.6938 43.9896 33.433L73.2481 24.8661C73.4021 24.8208 73.5605 24.7976 73.7199 24.7976C74.4605 24.7976 75.1227 25.2943 75.331 26.0047L92.7229 85.4002C92.8484 85.8301 92.8003 86.2841 92.584 86.6775C92.3695 87.071 92.0143 87.3567 91.5835 87.4831L62.325 96.0509C62.171 96.0963 62.0126 96.1185 61.8532 96.1185Z" fill="#2DCC70"/>
<path d="M73.7199 25.4724C74.1542 25.4724 74.5548 25.7564 74.6839 26.1952L92.0757 85.5898C92.2315 86.1221 91.9262 86.6803 91.3939 86.836L62.1354 95.4038C62.041 95.4314 61.9458 95.4438 61.8523 95.4438C61.4179 95.4438 61.0174 95.1599 60.8883 94.721L43.4965 35.3273C43.3407 34.795 43.646 34.236 44.1783 34.0802L73.4377 25.5125C73.5311 25.4849 73.6273 25.4724 73.7199 25.4724ZM73.7199 24.1229C73.4964 24.1229 73.2739 24.1559 73.0585 24.2191L43.8 32.7859C42.5547 33.1509 41.8381 34.4612 42.2022 35.7065L59.5949 95.1011C59.74 95.5987 60.0382 96.0251 60.4548 96.3331C60.8571 96.6295 61.3538 96.7933 61.8523 96.7933C62.0758 96.7933 62.2983 96.7604 62.5146 96.6972L91.7731 88.1294C93.0184 87.7654 93.7341 86.4551 93.37 85.2097L75.9782 25.8151C75.8322 25.3175 75.5349 24.892 75.1174 24.584C74.715 24.2876 74.2192 24.1229 73.7199 24.1229Z" fill="#6C4B41"/>
<path d="M92.0757 85.5897L74.6839 26.1942C74.5272 25.6619 73.9691 25.3566 73.4377 25.5132L44.1783 34.0801C43.7181 34.2154 43.4297 34.6498 43.46 35.11C43.5419 35.0548 43.63 35.0085 43.7288 34.98L72.9881 26.4123C73.5196 26.2565 74.0777 26.561 74.2344 27.0942L91.6262 86.4888C91.6476 86.5609 91.6582 86.6339 91.6627 86.706C92.0205 86.4692 92.203 86.0232 92.0757 85.5897Z" fill="white"/>
<path d="M63.5249 92.0363C63.4315 92.0363 63.338 92.014 63.2543 91.9678C63.1235 91.8965 63.0264 91.7764 62.9855 91.6331L46.928 36.7969C46.8408 36.4987 47.0117 36.1872 47.309 36.1008L71.8897 28.903C71.9413 28.8879 71.9956 28.8799 72.0481 28.8799C72.1416 28.8799 72.2342 28.9039 72.317 28.9493C72.4478 29.0205 72.5457 29.1407 72.5876 29.284L88.6433 84.1193C88.686 84.2626 88.6691 84.4166 88.597 84.5474C88.5258 84.6774 88.4056 84.7753 88.2632 84.8171L63.6825 92.0149C63.6308 92.0301 63.5783 92.0363 63.5249 92.0363Z" fill="#F9F9F9"/>
<path d="M72.0482 29.4415L88.1056 84.2768L63.5249 91.4746L47.4674 36.6393L72.0482 29.4415ZM72.049 28.3173C71.944 28.3173 71.8381 28.3324 71.733 28.3627L47.1523 35.5604C46.8657 35.6441 46.6245 35.8382 46.482 36.0999C46.3387 36.3616 46.3058 36.6687 46.3895 36.9553L62.4461 91.7906C62.5903 92.2801 63.038 92.5988 63.524 92.5988C63.6291 92.5988 63.735 92.5837 63.8409 92.5534L88.4208 85.3556C88.7065 85.272 88.9486 85.0779 89.091 84.8162C89.2344 84.5545 89.2673 84.2474 89.1845 83.9617L73.1261 29.1255C72.9828 28.635 72.5351 28.3173 72.049 28.3173Z" fill="#6C4B41"/>
<path d="M81.7393 86.1408L88.1047 84.2768L86.15 77.6024C82.6606 78.8041 80.6907 82.5615 81.7393 86.1408Z" fill="#2DCC70"/>
<path d="M81.7392 86.1407C80.6906 82.5614 82.6606 78.8041 86.15 77.6024L85.8348 76.5217C81.7499 77.8997 79.4382 82.2837 80.6604 86.4576L81.7392 86.1407Z" fill="#6C4B41"/>
<path d="M66.5497 85.4589C65.5109 84.8901 64.3688 84.6017 63.2161 84.6017C62.6668 84.6017 62.1149 84.6684 61.5693 84.8011L63.5241 91.4755L69.8904 89.6115C69.3679 87.8258 68.1813 86.3508 66.5497 85.4589Z" fill="#2DCC70"/>
<path d="M67.0882 84.4727C65.2901 83.489 63.2312 83.2264 61.2532 83.7205L61.5701 84.8011C62.1149 84.6685 62.6677 84.6017 63.2169 84.6017C64.3697 84.6017 65.51 84.8901 66.5496 85.459C68.1813 86.3509 69.3679 87.8259 69.8904 89.6106L70.9684 89.2955C70.3613 87.2223 68.9833 85.5097 67.0882 84.4727Z" fill="#6C4B41"/>
<path d="M69.0225 35.4581C70.558 36.2975 72.3143 36.5272 74.0029 36.1168L72.0481 29.4415L65.6818 31.3055C66.2043 33.0903 67.3909 34.5653 69.0225 35.4581Z" fill="#2DCC70"/>
<path d="M64.6038 31.6215C65.2109 33.6947 66.5888 35.4074 68.484 36.4435C69.691 37.104 71.0156 37.4405 72.3535 37.4405C73.0095 37.4396 73.6691 37.3586 74.3189 37.1966L74.0029 36.1168C72.3143 36.5272 70.558 36.2975 69.0234 35.4581C67.3918 34.5653 66.2052 33.0903 65.6818 31.3055L64.6038 31.6215Z" fill="#6C4B41"/>
<path d="M53.8338 34.7754L47.4683 36.6403L49.4222 43.3155C52.9125 42.1129 54.8815 38.3538 53.8338 34.7754Z" fill="#2DCC70"/>
<path d="M54.9118 34.4592L53.8338 34.7752C54.8816 38.3537 52.9116 42.1119 49.4222 43.3145L49.7382 44.3933C53.8223 43.0163 56.134 38.6323 54.9118 34.4592Z" fill="#6C4B41"/>
<path d="M67.6081 68.0332C65.8785 68.0332 64.1552 67.4644 62.7558 66.4327C61.3102 65.3645 60.2776 63.8869 59.7711 62.1582C58.5053 57.8347 60.9924 53.2887 65.3159 52.0229C66.0663 51.803 66.8399 51.6918 67.6152 51.6918C69.3448 51.6918 71.0681 52.2597 72.4665 53.2923C73.913 54.3596 74.9456 55.8372 75.4512 57.5668C76.0645 59.6604 75.826 61.868 74.7783 63.7827C73.7305 65.6966 72.0019 67.0888 69.9073 67.7021C69.1569 67.9219 68.3834 68.0332 67.6081 68.0332Z" fill="#2DCC70"/>
<path d="M67.6152 52.2535C70.9061 52.2535 73.9406 54.4068 74.9127 57.7253C76.093 61.7568 73.7813 65.9833 69.7489 67.1636C69.0359 67.3728 68.3166 67.4725 67.6081 67.4725C64.3172 67.4725 61.2826 65.3192 60.3106 62.0007C59.1302 57.9692 61.442 53.7437 65.4735 52.5624C66.1874 52.3541 66.9075 52.2535 67.6152 52.2535ZM67.6152 51.1293C66.7864 51.1293 65.9604 51.2494 65.1584 51.4836C64.027 51.8156 62.9953 52.3577 62.0891 53.0974C61.215 53.8122 60.4957 54.6783 59.9518 55.6735C59.408 56.6678 59.0661 57.7404 58.9362 58.862C58.8018 60.0237 58.9015 61.1862 59.2326 62.3167C59.7738 64.1647 60.8767 65.7438 62.4229 66.885C63.1653 67.4333 63.986 67.8588 64.861 68.1508C65.7503 68.4463 66.6743 68.5959 67.6081 68.5959C68.4368 68.5959 69.2637 68.4766 70.0649 68.2425C71.1954 67.9113 72.228 67.3683 73.1341 66.6286C74.0083 65.9138 74.7275 65.0477 75.2714 64.0534C75.8153 63.0582 76.1571 61.9856 76.2871 60.8649C76.4215 59.7023 76.3218 58.5398 75.9915 57.4093C75.4494 55.5613 74.3465 53.9822 72.8012 52.841C72.0579 52.2927 71.2372 51.8663 70.3613 51.5743C69.4729 51.2788 68.5489 51.1293 67.6152 51.1293Z" fill="#6C4B41"/>
<path d="M67.2938 57.0355L68.2686 56.6901L69.2985 59.5885C69.4934 59.4692 69.6599 59.3339 69.7978 59.1808C69.9367 59.0277 70.0498 58.8763 70.1352 58.7277L69.237 56.1987L70.3444 55.8053L72.4015 61.602L71.2942 61.9945L70.6301 60.1243C70.5527 60.2409 70.4494 60.3753 70.3212 60.5302C70.1931 60.6851 70.0159 60.832 69.788 60.9718L70.2331 62.2233L69.2584 62.5687L68.8561 61.4364C68.5721 61.5272 68.289 61.553 68.0086 61.5147C67.7273 61.4756 67.4585 61.3857 67.2013 61.245C66.9431 61.1044 66.7099 60.9148 66.5016 60.6771C66.2933 60.4394 66.1277 60.1742 66.0049 59.8822L64.2922 63.0405L63.0247 62.1859L64.7711 59.4149C64.902 59.2003 65.0213 58.9992 65.1281 58.8122C65.2349 58.6262 65.3275 58.4615 65.404 58.3155C65.4922 58.1455 65.5714 57.9888 65.639 57.8464L66.6351 57.9372C66.6342 58.0761 66.6431 58.2034 66.66 58.3209C66.677 58.4384 66.7135 58.5772 66.7695 58.7357C66.9378 59.2092 67.1657 59.5457 67.455 59.7451C67.7425 59.9454 68.0353 60.0166 68.3318 59.9605L67.2938 57.0355Z" fill="#6C4B41"/>
<path d="M146.213 104.771C146.213 106.15 113.658 107.267 73.5 107.267C33.3416 107.267 0.786896 106.15 0.786896 104.771C0.786896 103.392 33.3416 102.273 73.5 102.273C113.658 102.273 146.213 103.392 146.213 104.771Z" fill="#D2BEB9"/>
<path d="M32.658 103.951C30.6302 103.951 28.9665 102.145 28.9523 99.925L28.6256 51.3413C28.6185 50.2767 28.9861 49.2681 29.6599 48.5026C30.3569 47.7112 31.2952 47.2724 32.301 47.2662L36.1456 47.2412C36.1643 47.2395 36.183 47.2395 36.2017 47.2386L48.5036 47.1585C48.5125 47.1576 48.5196 47.1567 48.5285 47.1567C48.5739 47.1531 48.6318 47.1487 48.6977 47.1478L114.31 46.7196C115.824 46.7196 117.065 47.9516 117.075 49.4657L117.418 100.622C117.424 101.361 117.14 102.057 116.622 102.582C116.103 103.108 115.41 103.4 114.671 103.405L106.681 103.457V103.465L99.1338 103.515C99.1151 103.516 99.0955 103.517 99.0777 103.517L32.658 103.951Z" fill="#EB974E"/>
<path d="M116.288 49.4701C116.28 48.3778 115.389 47.5001 114.298 47.5064L104.243 47.5714C105.089 47.7912 105.716 48.555 105.723 49.4701L105.937 83.3137C105.975 89.4415 101.92 94.8554 96.0173 96.5004C85.3079 99.4834 65.2928 102.477 29.7828 101.132L29.2193 104.053H107.777L107.961 102.661L114.666 102.618C115.758 102.611 116.639 101.719 116.631 100.627L116.288 49.4701Z" fill="#D1813E"/>
<path d="M31.7616 100.593L31.4349 52.0106C31.4233 50.2072 32.7185 48.7366 34.3279 48.7259L38.1983 48.701C38.209 48.701 38.2188 48.6992 38.2294 48.6992L50.5545 48.6182C50.6115 48.6147 50.6676 48.6084 50.7254 48.6084L115.798 48.183C115.433 47.7655 114.896 47.5011 114.297 47.5055L48.703 47.9337C48.6451 47.9346 48.5891 47.9408 48.5321 47.9435L36.2061 48.0245C36.1954 48.0245 36.1857 48.0263 36.175 48.0263L32.3046 48.0521C30.6952 48.0619 29.4 49.5324 29.4125 51.3359L29.7392 99.9196C29.7507 101.722 31.0655 103.174 32.6749 103.163L32.9081 103.162C32.2182 102.57 31.7687 101.641 31.7616 100.593Z" fill="#F7BC8D"/>
<path d="M32.0028 67.5438L45.5572 67.4503C47.2218 67.4503 48.7902 68.0966 49.9723 69.2689C51.1554 70.443 51.8123 72.007 51.8248 73.6734L51.831 74.625C51.8426 76.2993 51.2016 77.8767 50.0258 79.0686C48.8507 80.2614 47.2814 80.9246 45.607 80.9353L32.0972 81.0305L32.0028 67.5438Z" fill="#D1813E"/>
<path d="M45.5572 68.0111C48.6905 68.0102 51.2399 70.5391 51.2622 73.6769L51.2693 74.6276C51.2907 77.7788 48.7537 80.3513 45.6026 80.3736L32.6553 80.4644L32.569 68.101L45.5162 68.0111H45.5572ZM45.5572 66.8868V68.0111V66.8868C45.5412 66.8868 45.5243 66.8868 45.5082 66.8868L32.5609 66.9776L31.4367 66.9856L31.4447 68.109L31.531 80.4724L31.539 81.5957L32.6633 81.5877L45.6106 81.4978C47.4345 81.4845 49.1454 80.7626 50.4263 79.4629C51.7073 78.1642 52.4051 76.4444 52.3927 74.6205L52.3856 73.6698C52.3731 71.8539 51.6565 70.1493 50.3685 68.8701C49.0804 67.591 47.3713 66.8868 45.5572 66.8868Z" fill="#6C4B41"/>
<path d="M28.9656 67.5579L42.52 67.4645C44.1855 67.4645 45.753 68.1098 46.9351 69.2831C48.1182 70.4572 48.7751 72.0212 48.7876 73.6875L48.7938 74.6391C48.8178 78.0956 46.0263 80.9272 42.5698 80.9512L29.06 81.0447L28.9656 67.5579Z" fill="#DC7633"/>
<path d="M42.52 68.0262C45.6524 68.0262 48.2027 70.5551 48.225 73.6929L48.2312 74.6436C48.2535 77.7948 45.7165 80.3673 42.5654 80.3896L29.6172 80.4795L29.5309 68.117L42.479 68.0271C42.4924 68.0262 42.5057 68.0262 42.52 68.0262ZM42.52 66.9028V68.0262V66.9028H42.471L29.5228 66.9936L28.3995 67.0007L28.4075 68.125L28.4938 80.4875L28.501 81.6117L29.6252 81.6037L42.5734 81.5138C44.3973 81.5005 46.1073 80.7777 47.3882 79.4789C48.6692 78.1802 49.3679 76.4595 49.3555 74.6356L49.3484 73.6849C49.3359 71.869 48.6193 70.1652 47.3304 68.8852C46.0432 67.6069 44.3341 66.9028 42.52 66.9028Z" fill="#6C4B41"/>
<path d="M48.225 73.6921C48.2027 70.5409 45.6302 68.0049 42.479 68.0271L29.5317 68.1161L29.5362 68.7909L29.6181 80.4804L31.4162 80.467L31.3405 69.7238C31.337 69.2012 31.7571 68.7749 32.2788 68.7713L42.479 68.701C45.6302 68.6787 48.2036 71.2157 48.225 74.3668L48.2276 74.8297C48.2294 74.7683 48.2321 74.7059 48.2312 74.6436L48.225 73.6921Z" fill="#F7BC8D"/>
<path d="M41.5479 72.2447C42.39 72.2447 43.0781 73.1144 43.0852 74.1924C43.0923 75.2748 42.4131 76.1561 41.5666 76.1623H41.5577C40.7156 76.1623 40.0275 75.2926 40.0204 74.2138C40.0124 73.1322 40.6934 72.251 41.539 72.2447H41.5479ZM41.5479 71.1205H41.531C40.7797 71.1258 40.0649 71.497 39.5691 72.1397C39.1303 72.7094 38.8917 73.4491 38.8961 74.2218C38.9015 74.9918 39.1498 75.7261 39.594 76.2887C40.0943 76.9225 40.81 77.2857 41.5577 77.2857H41.5746C42.3259 77.2803 43.0407 76.9092 43.5356 76.2674C43.9754 75.6977 44.2148 74.9579 44.2086 74.1844C44.2032 73.4144 43.9558 72.68 43.5116 72.1175C43.0113 71.4837 42.2956 71.1205 41.5479 71.1205Z" fill="#6C4B41"/>
<path d="M40.47 74.6632C40.4619 73.5817 41.142 72.6995 41.9886 72.6942C42.2449 72.6924 42.487 72.7716 42.7007 72.9132C42.4167 72.501 42.0019 72.2411 41.539 72.2447C40.6925 72.2509 40.0124 73.1321 40.0204 74.2137C40.0258 74.9676 40.364 75.6183 40.8545 75.9424C40.6186 75.6005 40.4735 75.1546 40.47 74.6632Z" fill="#F7BC8D"/>
<path d="M36.7625 98.0574L40.8492 98.0289C41.0842 98.0272 41.2764 98.2693 41.2782 98.5702C41.2809 98.871 41.0913 99.1149 40.8563 99.1167L36.7705 99.147C36.5355 99.1488 36.3423 98.9057 36.3405 98.6058C36.3387 98.3049 36.5275 98.0592 36.7625 98.0574Z" fill="#6C4B41"/>
<path d="M28.9211 98.0574L33.0078 98.0289C33.2428 98.0272 33.4351 98.2693 33.4368 98.5702C33.4395 98.871 33.2499 99.1149 33.0149 99.1167L28.9291 99.147C28.6941 99.1488 28.5009 98.9057 28.4992 98.6058C28.4974 98.3049 28.6861 98.0592 28.9211 98.0574Z" fill="#6C4B41"/>
<path d="M44.254 98.0058L48.3398 97.9773C48.5748 97.9755 48.768 98.2176 48.7697 98.5185C48.7715 98.8185 48.5828 99.0633 48.3478 99.0651L44.2611 99.0936C44.0261 99.0953 43.8338 98.8532 43.8321 98.5523C43.8294 98.2524 44.019 98.0076 44.254 98.0058Z" fill="#6C4B41"/>
<path d="M51.7455 97.9523L55.8322 97.9238C56.0672 97.9221 56.2595 98.1642 56.2613 98.4651C56.2639 98.7659 56.0743 99.0098 55.8393 99.0116L51.7535 99.0419C51.5185 99.0437 51.3254 98.8006 51.3236 98.5007C51.3218 98.1998 51.5105 97.9541 51.7455 97.9523Z" fill="#6C4B41"/>
<path d="M59.238 97.9007L63.3238 97.8722C63.5588 97.8704 63.7519 98.1125 63.7537 98.4134C63.7555 98.7143 63.5668 98.9582 63.3318 98.96L59.2451 98.9885C59.0101 98.9902 58.8178 98.7481 58.816 98.4481C58.8134 98.1473 59.003 97.9025 59.238 97.9007Z" fill="#6C4B41"/>
<path d="M66.7295 97.8472L70.8162 97.8187C71.0512 97.817 71.2435 98.0591 71.2453 98.3599C71.2479 98.6608 71.0583 98.9056 70.8233 98.9065L66.7375 98.9368C66.5025 98.9385 66.3093 98.6964 66.3076 98.3956C66.3058 98.0947 66.4945 97.849 66.7295 97.8472Z" fill="#6C4B41"/>
<path d="M74.221 97.7956L78.3068 97.7671C78.5418 97.7653 78.735 98.0074 78.7368 98.3083C78.7386 98.6092 78.5499 98.8531 78.3149 98.8549L74.2282 98.8842C73.9932 98.8851 73.8009 98.643 73.7991 98.343C73.7964 98.0422 73.986 97.7974 74.221 97.7956Z" fill="#6C4B41"/>
<path d="M81.7126 97.7441L85.7993 97.7156C86.0343 97.7138 86.2265 97.9559 86.2283 98.2568C86.231 98.5568 86.0414 98.8016 85.8064 98.8034L81.7206 98.8318C81.4856 98.8336 81.2924 98.5915 81.2906 98.2906C81.2889 97.9906 81.4776 97.745 81.7126 97.7441Z" fill="#6C4B41"/>
<path d="M89.205 97.6906L93.2908 97.6621C93.5267 97.6603 93.719 97.9025 93.7207 98.2033C93.7234 98.5042 93.5338 98.7481 93.2988 98.7499L89.2112 98.7802C88.9762 98.7819 88.7839 98.5389 88.7822 98.2389C88.7795 97.9381 88.97 97.6924 89.205 97.6906Z" fill="#6C4B41"/>
<path d="M97.1193 97.6363L101.206 97.6078C101.441 97.606 101.633 97.8481 101.635 98.149C101.638 98.4499 101.448 98.6938 101.214 98.6956L97.1273 98.7249C96.8923 98.7258 96.6992 98.4837 96.6974 98.1837C96.6956 97.8829 96.8843 97.6381 97.1193 97.6363Z" fill="#6C4B41"/>
<path d="M104.409 97.5848L108.496 97.5563C108.73 97.5545 108.922 97.7966 108.925 98.0975C108.926 98.3975 108.738 98.6423 108.503 98.6441L104.417 98.6725C104.181 98.6743 103.989 98.4322 103.986 98.1313C103.984 97.8313 104.173 97.5865 104.409 97.5848Z" fill="#6C4B41"/>
<path d="M111.747 97.534L115.834 97.5055C116.068 97.5037 116.26 97.7458 116.263 98.0467C116.265 98.3467 116.076 98.5915 115.841 98.5933L111.754 98.6218C111.519 98.6235 111.327 98.3814 111.324 98.0805C111.323 97.7806 111.511 97.5358 111.747 97.534Z" fill="#6C4B41"/>
<path d="M36.2666 52.8838L40.3533 52.8554C40.5883 52.8536 40.7806 53.0957 40.7824 53.3966C40.7851 53.6974 40.5963 53.9413 40.3613 53.9431L36.2747 53.9725C36.0397 53.9734 35.8474 53.7313 35.8447 53.4313C35.8429 53.1304 36.0316 52.8856 36.2666 52.8838Z" fill="#6C4B41"/>
<path d="M28.4262 52.8838L32.512 52.8554C32.747 52.8536 32.9401 53.0957 32.9419 53.3966C32.9437 53.6974 32.755 53.9413 32.52 53.9431L28.4333 53.9725C28.1983 53.9734 28.006 53.7313 28.0042 53.4313C28.0016 53.1304 28.1912 52.8856 28.4262 52.8838Z" fill="#6C4B41"/>
<path d="M43.7582 52.8313L47.8449 52.8037C48.0799 52.8019 48.2722 53.0441 48.2739 53.3449C48.2766 53.6458 48.087 53.8897 47.852 53.8906L43.7653 53.9209C43.5312 53.9226 43.338 53.6805 43.3363 53.3797C43.3345 53.0788 43.5232 52.8331 43.7582 52.8313Z" fill="#6C4B41"/>
<path d="M51.2497 52.7787L55.3364 52.7503C55.5714 52.7485 55.7637 52.9906 55.7655 53.2915C55.7681 53.5923 55.5794 53.8362 55.3444 53.838L51.2577 53.8674C51.0227 53.8683 50.8304 53.6262 50.8278 53.3262C50.826 53.0253 51.0147 52.7805 51.2497 52.7787Z" fill="#6C4B41"/>
<path d="M58.7421 52.7271L62.8288 52.6986C63.0638 52.6968 63.2561 52.939 63.2579 53.2398C63.2606 53.5398 63.071 53.7846 62.836 53.7864L58.7493 53.8149C58.5151 53.8167 58.322 53.5745 58.3202 53.2737C58.3184 52.9737 58.5071 52.728 58.7421 52.7271Z" fill="#6C4B41"/>
<path d="M66.2337 52.6737L70.3195 52.6461C70.5545 52.6443 70.7477 52.8865 70.7494 53.1873C70.7512 53.4882 70.5625 53.7312 70.3275 53.733L66.2408 53.7633C66.0058 53.7651 65.8135 53.522 65.8118 53.2221C65.8091 52.9212 65.9987 52.6755 66.2337 52.6737Z" fill="#6C4B41"/>
<path d="M73.7252 52.6221L77.8119 52.5936C78.0469 52.5919 78.2392 52.834 78.241 53.1349C78.2436 53.4348 78.054 53.6796 77.819 53.6814L73.7332 53.7099C73.4982 53.7117 73.3051 53.4695 73.3033 53.1687C73.3015 52.8687 73.4902 52.6239 73.7252 52.6221Z" fill="#6C4B41"/>
<path d="M81.2176 52.5697L85.3034 52.5421C85.5384 52.5403 85.7316 52.7825 85.7334 53.0833C85.7351 53.3842 85.5464 53.6272 85.3114 53.629L81.2247 53.6593C80.9897 53.661 80.7975 53.418 80.7957 53.1181C80.793 52.8172 80.9826 52.5715 81.2176 52.5697Z" fill="#6C4B41"/>
<path d="M88.7092 52.518L92.795 52.4895C93.0309 52.4877 93.2231 52.7299 93.2249 53.0307C93.2276 53.3316 93.0389 53.5755 92.803 53.5773L88.7172 53.6067C88.4822 53.6075 88.289 53.3654 88.2872 53.0654C88.2855 52.7646 88.4742 52.5198 88.7092 52.518Z" fill="#6C4B41"/>
<path d="M96.6235 52.4628L100.71 52.4343C100.945 52.4326 101.138 52.6747 101.139 52.9755C101.142 53.2755 100.953 53.5203 100.718 53.5221L96.6316 53.5506C96.3966 53.5524 96.2043 53.3102 96.2016 53.0094C96.1998 52.7094 96.3885 52.4637 96.6235 52.4628Z" fill="#6C4B41"/>
<path d="M103.914 52.4103L108.001 52.3827C108.235 52.3809 108.427 52.623 108.43 52.9239C108.431 53.2248 108.243 53.4687 108.009 53.4696L103.922 53.4998C103.686 53.5016 103.494 53.2595 103.492 52.9586C103.489 52.6578 103.679 52.4121 103.914 52.4103Z" fill="#6C4B41"/>
<path d="M111.252 52.3595L115.339 52.3319C115.573 52.3301 115.765 52.5723 115.768 52.8731C115.77 53.174 115.581 53.4179 115.346 53.4188L111.26 53.4491C111.024 53.4508 110.832 53.2087 110.83 52.9078C110.828 52.607 111.016 52.3613 111.252 52.3595Z" fill="#6C4B41"/>
<path d="M146.213 104.728H0.786898C0.352497 104.728 0 104.376 0 103.941C0 103.507 0.352497 103.154 0.786898 103.154H146.213C146.648 103.154 147 103.507 147 103.941C147 104.376 146.648 104.728 146.213 104.728Z" fill="#6C4B41"/>
<path d="M114.311 47.5064C115.397 47.5064 116.28 48.3823 116.288 49.4701L116.632 100.627C116.64 101.719 115.76 102.61 114.667 102.618L105.888 102.675V102.683L99.1035 102.728C99.0928 102.728 99.083 102.73 99.0723 102.73L32.6758 103.164H32.658C31.0566 103.164 29.7516 101.715 29.74 99.9187L29.4125 51.3358C29.4 49.5333 30.6961 48.0628 32.3055 48.0521L36.1767 48.0271C36.1865 48.0271 36.1972 48.0254 36.207 48.0254L48.533 47.9444C48.5899 47.9408 48.646 47.9355 48.7039 47.9346L114.297 47.5064H114.311ZM114.311 45.9326H114.288L48.6932 46.3608C48.6024 46.3617 48.525 46.3679 48.4733 46.3715L36.1972 46.4516C36.1687 46.4516 36.1429 46.4525 36.1207 46.4534L32.2957 46.4792C31.0628 46.4872 29.9172 47.0213 29.0706 47.9817C28.2686 48.8933 27.8315 50.0879 27.8396 51.3474L28.1654 99.9293C28.1734 101.184 28.6247 102.368 29.4329 103.267C30.2857 104.215 31.4313 104.738 32.658 104.738H32.6873L99.0839 104.303C99.1124 104.303 99.1364 104.302 99.1587 104.301L105.9 104.256L107.471 104.247V104.238L114.677 104.191C115.626 104.185 116.516 103.81 117.183 103.135C117.848 102.459 118.212 101.565 118.205 100.617L117.862 49.4594C117.855 48.5158 117.482 47.6292 116.812 46.9643C116.143 46.2994 115.255 45.9326 114.311 45.9326Z" fill="#6C4B41"/>
</svg>
