<svg width="28" height="28" viewBox="0 0 28 28" fill="none" xmlns="http://www.w3.org/2000/svg">
<path d="M1.50217 27.5293C1.29458 27.5289 1.08934 27.4854 0.899501 27.4014C0.709658 27.3174 0.539366 27.1948 0.399453 27.0414C0.25701 26.8893 0.148317 26.7088 0.0805008 26.5117C0.0126847 26.3147 -0.012722 26.1055 0.00594615 25.898L0.372521 21.866L17.3068 4.93314L22.5989 10.2252L5.66915 27.1566L1.63833 27.5233C1.59306 27.5275 1.54763 27.5295 1.50217 27.5293ZM23.6553 9.16711L18.3646 3.87502L21.5381 0.700661C21.6771 0.56151 21.8421 0.451119 22.0237 0.375802C22.2054 0.300485 22.4001 0.261719 22.5967 0.261719C22.7933 0.261719 22.988 0.300485 23.1696 0.375802C23.3513 0.451119 23.5163 0.56151 23.6553 0.700661L26.8288 3.87502C26.9679 4.01401 27.0782 4.17908 27.1535 4.36076C27.2288 4.54245 27.2676 4.7372 27.2676 4.93388C27.2676 5.13057 27.2288 5.32532 27.1535 5.50701C27.0782 5.68869 26.9679 5.85375 26.8288 5.99275L23.6568 9.16561L23.6553 9.16711Z" fill="white"/>
</svg>
