<svg width="20" height="28" viewBox="0 0 28 28" fill="none" xmlns="http://www.w3.org/2000/svg">
<path d="M11.0291 4.6927V5.03355H16.7697V4.6927C16.7697 3.96952 16.4673 3.27596 15.929 2.76459C15.3907 2.25322 14.6607 1.96594 13.8994 1.96594C13.1382 1.96594 12.4081 2.25322 11.8698 2.76459C11.3315 3.27596 11.0291 3.96952 11.0291 4.6927ZM9.23522 5.03355V4.6927C9.23522 3.51753 9.72663 2.39049 10.6013 1.55952C11.476 0.728553 12.6624 0.261719 13.8994 0.261719C15.1364 0.261719 16.3228 0.728553 17.1975 1.55952C18.0722 2.39049 18.5636 3.51753 18.5636 4.6927V5.03355H26.6362C26.8741 5.03355 27.1023 5.12332 27.2705 5.28312C27.4387 5.44292 27.5332 5.65966 27.5332 5.88566C27.5332 6.11165 27.4387 6.32839 27.2705 6.48819C27.1023 6.64799 26.8741 6.73777 26.6362 6.73777H24.5431L23.108 23.0002C22.9989 24.2351 22.4055 25.3861 21.4452 26.225C20.485 27.0638 19.2281 27.5294 17.9235 27.5293H9.87529C8.57089 27.5292 7.31413 27.0636 6.35405 26.2247C5.39396 25.3859 4.80061 24.235 4.69158 23.0002L3.25645 6.73777H1.16258C0.924696 6.73777 0.696551 6.64799 0.528338 6.48819C0.360126 6.32839 0.265625 6.11165 0.265625 5.88566C0.265625 5.65966 0.360126 5.44292 0.528338 5.28312C0.696551 5.12332 0.924696 5.03355 1.16258 5.03355H9.23522ZM12.1055 11.3392C12.1055 11.2273 12.0823 11.1165 12.0372 11.0131C11.9921 10.9097 11.9261 10.8158 11.8428 10.7366C11.7595 10.6575 11.6606 10.5947 11.5518 10.5519C11.443 10.5091 11.3263 10.4871 11.2085 10.4871C11.0907 10.4871 10.9741 10.5091 10.8653 10.5519C10.7565 10.5947 10.6576 10.6575 10.5743 10.7366C10.491 10.8158 10.4249 10.9097 10.3799 11.0131C10.3348 11.1165 10.3116 11.2273 10.3116 11.3392V21.2237C10.3116 21.3356 10.3348 21.4464 10.3799 21.5498C10.4249 21.6531 10.491 21.7471 10.5743 21.8262C10.6576 21.9053 10.7565 21.9681 10.8653 22.0109C10.9741 22.0537 11.0907 22.0758 11.2085 22.0758C11.3263 22.0758 11.443 22.0537 11.5518 22.0109C11.6606 21.9681 11.7595 21.9053 11.8428 21.8262C11.9261 21.7471 11.9921 21.6531 12.0372 21.5498C12.0823 21.4464 12.1055 21.3356 12.1055 21.2237V11.3392ZM16.5903 10.4871C16.0952 10.4871 15.6933 10.8688 15.6933 11.3392V21.2237C15.6933 21.4497 15.7878 21.6664 15.956 21.8262C16.1243 21.986 16.3524 22.0758 16.5903 22.0758C16.8282 22.0758 17.0563 21.986 17.2245 21.8262C17.3928 21.6664 17.4873 21.4497 17.4873 21.2237V11.3392C17.4873 10.8688 17.0854 10.4871 16.5903 10.4871Z" fill='white'/>
</svg>
