<svg width="383" height="62" viewBox="0 0 383 62" fill="none" xmlns="http://www.w3.org/2000/svg">
<path fill-rule="evenodd" clip-rule="evenodd" d="M6.28728 30.699V31.3015V31.2984C6.28728 31.1988 6.29042 31.0993 6.29252 31.0008C6.29042 30.9012 6.28728 30.8017 6.28728 30.7021V30.699ZM8.83874 30.4214C8.76225 30.1353 8.60297 29.8849 8.37767 29.7047C8.15343 29.5244 7.87993 29.428 7.597 29.428C7.31512 29.428 7.04058 29.5244 6.81633 29.7047C6.59104 29.8849 6.43176 30.1353 6.35527 30.4214C6.31859 30.5576 6.30287 30.6949 6.29449 30.8343C6.29135 30.8898 6.29344 30.9443 6.29239 30.9998C6.29344 31.0543 6.29135 31.1099 6.29449 31.1644C6.30287 31.3048 6.31859 31.441 6.35527 31.5772C6.43176 31.8633 6.59104 32.1137 6.81633 32.294C7.04058 32.4742 7.31512 32.5717 7.597 32.5717C7.87993 32.5717 8.15343 32.4742 8.37767 32.294C8.60297 32.1137 8.76225 31.8633 8.83874 31.5772C8.87542 31.441 8.89114 31.3048 8.89952 31.1644C8.90266 31.1099 8.90057 31.0543 8.90161 30.9998C8.90057 30.9443 8.90266 30.8898 8.89952 30.8343C8.89114 30.6949 8.87542 30.5576 8.83874 30.4214ZM8.90186 31.0008C8.90396 31.0993 8.9071 31.1988 8.9071 31.2984V31.3015V30.699V30.7021C8.9071 30.8017 8.90396 30.9012 8.90186 31.0008ZM15.126 30.4214C15.0495 30.1353 14.8902 29.8849 14.665 29.7047C14.4407 29.5244 14.1672 29.428 13.8843 29.428C13.6024 29.428 13.3279 29.5244 13.1036 29.7047C12.8783 29.8849 12.719 30.1353 12.6425 30.4214C12.6059 30.5576 12.5901 30.6949 12.5818 30.8343C12.5786 30.8898 12.5807 30.9443 12.5797 30.9998C12.5807 31.0543 12.5786 31.1099 12.5818 31.1644C12.5901 31.3048 12.6059 31.441 12.6425 31.5772C12.719 31.8633 12.8783 32.1137 13.1036 32.294C13.3279 32.4742 13.6024 32.5717 13.8843 32.5717C14.1672 32.5717 14.4407 32.4742 14.665 32.294C14.8902 32.1137 15.0495 31.8633 15.126 31.5772C15.1627 31.441 15.1784 31.3048 15.1868 31.1644C15.1899 31.1099 15.1878 31.0543 15.1889 30.9998C15.1878 30.9443 15.1899 30.8898 15.1868 30.8343C15.1784 30.6949 15.1627 30.5576 15.126 30.4214ZM15.1944 31.2973V30.701C15.1944 30.8006 15.1912 30.9001 15.1891 30.9997C15.1912 31.0982 15.1944 31.1977 15.1944 31.2973ZM12.5746 30.699V31.3015V31.2984C12.5746 31.1988 12.5777 31.0993 12.5798 31.0008C12.5777 30.9012 12.5746 30.8017 12.5746 30.7021V30.699ZM21.4742 29.7864C21.4658 29.647 21.4501 29.5097 21.4134 29.3735C21.3369 29.0875 21.1776 28.837 20.9524 28.6568C20.7281 28.4765 20.4546 28.3801 20.1717 28.3801C19.8898 28.3801 19.6153 28.4765 19.391 28.6568C19.1657 28.837 19.0064 29.0875 18.9299 29.3735C18.8933 29.5097 18.8776 29.647 18.8692 29.7864C18.8618 29.9415 18.8618 30.0955 18.8618 30.2496V30.2527V31.7459V31.7491C18.8618 31.9031 18.8618 32.0571 18.8692 32.2122C18.8776 32.3526 18.8933 32.4889 18.9299 32.6251C19.0064 32.9112 19.1657 33.1616 19.391 33.3418C19.6153 33.5221 19.8898 33.6195 20.1717 33.6195C20.4546 33.6195 20.7281 33.5221 20.9524 33.3418C21.1776 33.1616 21.3369 32.9112 21.4134 32.6251C21.4501 32.4889 21.4658 32.3526 21.4742 32.2122C21.4815 32.0571 21.4815 31.9031 21.4815 31.7491V31.7459V30.2527V30.2496C21.4815 30.0955 21.4815 29.9415 21.4742 29.7864ZM25.1491 30.1771V31.8212C25.1491 31.6672 25.1491 31.5131 25.1564 31.358C25.1638 31.2365 25.1816 31.1181 25.2088 30.9997C25.1816 30.8802 25.1638 30.7618 25.1564 30.6402C25.1491 30.4852 25.1491 30.3311 25.1491 30.1771ZM27.2398 30.2286C27.0155 30.0484 26.742 29.952 26.4591 29.952C26.1772 29.952 25.9027 30.0484 25.6784 30.2286C25.4531 30.4088 25.2939 30.6593 25.2174 30.9453C25.2132 30.9632 25.2132 30.982 25.209 30.9998C25.2132 31.0176 25.2132 31.0355 25.2174 31.0533C25.2939 31.3393 25.4531 31.5898 25.6784 31.77C25.9027 31.9503 26.1772 32.0477 26.4591 32.0477C26.742 32.0477 27.0155 31.9503 27.2398 31.77C27.4651 31.5898 27.6243 31.3393 27.7008 31.0533C27.705 31.0355 27.705 31.0176 27.7092 30.9998C27.705 30.982 27.705 30.9632 27.7008 30.9453C27.6243 30.6593 27.4651 30.4088 27.2398 30.2286ZM27.7089 30.9997C27.7362 31.1181 27.754 31.2365 27.7613 31.358C27.7687 31.5131 27.7687 31.6672 27.7687 31.8212V30.1771C27.7687 30.3311 27.7687 30.4852 27.7613 30.6402C27.754 30.7618 27.7362 30.8802 27.7089 30.9997ZM33.464 29.3735C33.3875 29.0875 33.2283 28.837 33.003 28.6568C32.7787 28.4765 32.5052 28.3801 32.2223 28.3801C31.9404 28.3801 31.6659 28.4765 31.4416 28.6568C31.2163 28.837 31.0571 29.0875 30.9806 29.3735C30.9439 29.5097 30.9282 29.647 30.9198 29.7864C30.9124 29.9415 30.9124 30.0955 30.9124 30.2496V31.7491C30.9124 31.9031 30.9124 32.0571 30.9198 32.2122C30.9282 32.3526 30.9439 32.4889 30.9806 32.6251C31.0571 32.9112 31.2163 33.1616 31.4416 33.3418C31.6659 33.5221 31.9404 33.6195 32.2223 33.6195C32.5052 33.6195 32.7787 33.5221 33.003 33.3418C33.2283 33.1616 33.3875 32.9112 33.464 32.6251C33.5007 32.4889 33.5164 32.3526 33.5248 32.2122C33.5321 32.0571 33.5321 31.9031 33.5321 31.7491V30.2496C33.5321 30.0955 33.5321 29.9415 33.5248 29.7864C33.5164 29.647 33.5007 29.5097 33.464 29.3735ZM39.8121 29.2624C39.8037 29.1231 39.788 28.9858 39.7513 28.8496C39.6748 28.5635 39.5155 28.3131 39.2902 28.1328C39.066 27.9526 38.7925 27.8562 38.5096 27.8562C38.2277 27.8562 37.9531 27.9526 37.7289 28.1328C37.5036 28.3131 37.3443 28.5635 37.2678 28.8496C37.2312 28.9858 37.2154 29.1231 37.2071 29.2624C37.1997 29.4175 37.1997 29.5716 37.1997 29.7256V29.7288V32.2699V32.273C37.1997 32.427 37.1997 32.5811 37.2071 32.7362C37.2154 32.8766 37.2312 33.0128 37.2678 33.149C37.3443 33.4351 37.5036 33.6856 37.7289 33.8658C37.9531 34.046 38.2277 34.1435 38.5096 34.1435C38.7925 34.1435 39.066 34.046 39.2902 33.8658C39.5155 33.6856 39.6748 33.4351 39.7513 33.149C39.788 33.0128 39.8037 32.8766 39.8121 32.7362C39.8194 32.5811 39.8194 32.427 39.8194 32.273V32.2699V29.7288V29.7256C39.8194 29.5716 39.8194 29.4175 39.8121 29.2624ZM46.0386 23.0862C45.9621 22.8002 45.8028 22.5497 45.5775 22.3695C45.3533 22.1893 45.0798 22.0929 44.7968 22.0929C44.515 22.0929 44.2404 22.1893 44.0162 22.3695C43.7909 22.5497 43.6316 22.8002 43.5551 23.0862C43.5184 23.2225 43.5027 23.3597 43.4943 23.4991C43.487 23.6542 43.487 23.8082 43.487 23.9623V38.0363C43.487 38.1904 43.487 38.3444 43.4943 38.4995C43.5027 38.6399 43.5184 38.7761 43.5551 38.9113C43.6316 39.1984 43.7909 39.4489 44.0162 39.6291C44.2404 39.8094 44.515 39.9068 44.7968 39.9068C45.0798 39.9068 45.3533 39.8094 45.5775 39.6291C45.8028 39.4489 45.9621 39.1984 46.0386 38.9113C46.0753 38.7761 46.091 38.6399 46.0994 38.4995C46.1067 38.3444 46.1067 38.1904 46.1067 38.0363V23.9623C46.1067 23.8082 46.1067 23.6542 46.0994 23.4991C46.091 23.3597 46.0753 23.2225 46.0386 23.0862ZM52.3866 28.2146C52.3783 28.0752 52.3625 27.9379 52.3259 27.8017C52.2494 27.5156 52.0901 27.2652 51.8648 27.085C51.6405 26.9047 51.3671 26.8083 51.0841 26.8083C50.8022 26.8083 50.5277 26.9047 50.3035 27.085C50.0782 27.2652 49.9189 27.5156 49.8424 27.8017C49.8057 27.9379 49.79 28.0752 49.7816 28.2146C49.7743 28.3697 49.7743 28.5237 49.7743 28.6777V28.6809V32.7938V32.7969C49.7743 32.951 49.7743 33.629 49.7816 33.784C49.79 33.9245 49.8057 34.0607 49.8424 34.1969C49.9189 34.483 50.0782 34.7334 50.3035 34.9137C50.5277 35.0939 50.8022 35.1914 51.0841 35.1914C51.3671 35.1914 51.6405 35.0939 51.8648 34.9137C52.0901 34.7334 52.2494 34.483 52.3259 34.1969C52.3625 34.0607 52.3783 33.9245 52.3866 33.784C52.394 33.629 52.394 32.951 52.394 32.7969V32.7938V28.6809V28.6777C52.394 28.5237 52.394 28.3697 52.3866 28.2146ZM58.6739 21.9273C58.6655 21.7879 58.6498 21.6507 58.6131 21.5144C58.5366 21.2284 58.3774 20.9779 58.1521 20.7977C57.9278 20.6174 57.6543 20.521 57.3714 20.521C57.0895 20.521 56.815 20.6174 56.5907 20.7977C56.3654 20.9779 56.2062 21.2284 56.1297 21.5144C56.093 21.6507 56.0773 21.7879 56.0689 21.9273C56.0616 22.0824 56.0616 22.2364 56.0616 22.3905V22.3936V39.605V39.6082C56.0616 39.7632 56.0616 39.9162 56.0689 40.0713C56.0773 40.2117 56.093 40.348 56.1297 40.4831C56.2062 40.7703 56.3654 41.0207 56.5907 41.2009C56.815 41.3812 57.0895 41.4786 57.3714 41.4786C57.6543 41.4786 57.9278 41.3812 58.1521 41.2009C58.3774 41.0207 58.5366 40.7703 58.6131 40.4831C58.6498 40.348 58.6655 40.2117 58.6739 40.0713C58.6813 39.9162 58.6813 39.7632 58.6813 39.6082V39.605V22.3936V22.3905C58.6813 22.2364 58.6813 22.0824 58.6739 21.9273ZM64.9612 20.3555C64.9528 20.2161 64.9371 20.0788 64.9004 19.9426C64.8239 19.6565 64.6646 19.4061 64.4394 19.2259C64.2151 19.0456 63.9416 18.9492 63.6587 18.9492C63.3768 18.9492 63.1023 19.0456 62.878 19.2259C62.6527 19.4061 62.4934 19.6565 62.4169 19.9426C62.3803 20.0788 62.3645 20.2161 62.3562 20.3555C62.3488 20.5106 62.3488 20.6646 62.3488 20.8186V20.8218V41.1768V41.18C62.3488 41.3351 62.3488 41.4881 62.3562 41.6431C62.3645 41.7836 62.3803 41.9198 62.4169 42.055C62.4934 42.3421 62.6527 42.5925 62.878 42.7728C63.1023 42.953 63.3768 43.0504 63.6587 43.0504C63.9416 43.0504 64.2151 42.953 64.4394 42.7728C64.6646 42.5925 64.8239 42.3421 64.9004 42.055C64.9371 41.9198 64.9528 41.7836 64.9612 41.6431C64.9685 41.4881 64.9685 41.3351 64.9685 41.18V41.1768V20.8218V20.8186C64.9685 20.6646 64.9685 20.5106 64.9612 20.3555ZM71.2485 28.2146C71.2401 28.0752 71.2244 27.9379 71.1877 27.8017C71.1112 27.5156 70.9519 27.2652 70.7266 27.085C70.5024 26.9047 70.2289 26.8083 69.946 26.8083C69.6641 26.8083 69.3895 26.9047 69.1653 27.085C68.94 27.2652 68.7807 27.5156 68.7042 27.8017C68.6675 27.9379 68.6518 28.0752 68.6434 28.2146C68.6361 28.3697 68.6361 28.5237 68.6361 28.6777V28.6809V33.3177V33.3209C68.6361 33.4749 68.6361 33.629 68.6434 33.784C68.6518 33.9245 68.6675 34.0607 68.7042 34.1969C68.7807 34.483 68.94 34.7334 69.1653 34.9137C69.3895 35.0939 69.6641 35.1914 69.946 35.1914C70.2289 35.1914 70.5024 35.0939 70.7266 34.9137C70.9519 34.7334 71.1112 34.483 71.1877 34.1969C71.2244 34.0607 71.2401 33.9245 71.2485 33.784C71.2558 33.629 71.2558 33.4749 71.2558 33.3209V33.3177V28.6809V28.6777C71.2558 28.5237 71.2558 28.3697 71.2485 28.2146ZM77.475 15.7511C77.3985 15.465 77.2392 15.2146 77.0139 15.0343C76.7897 14.8541 76.5162 14.7577 76.2332 14.7577C75.9514 14.7577 75.6768 14.8541 75.4526 15.0343C75.2273 15.2146 75.068 15.465 74.9915 15.7511C74.9548 15.8873 74.9391 16.0246 74.9307 16.164C74.9234 16.319 74.9234 16.4731 74.9234 16.6271V45.3715C74.9234 45.5266 74.9234 45.6796 74.9307 45.8347C74.9391 45.9751 74.9548 46.1113 74.9915 46.2465C75.068 46.5336 75.2273 46.784 75.4526 46.9643C75.6768 47.1445 75.9514 47.242 76.2332 47.242C76.5162 47.242 76.7897 47.1445 77.0139 46.9643C77.2392 46.784 77.3985 46.5336 77.475 46.2465C77.5117 46.1113 77.5274 45.9751 77.5358 45.8347C77.5431 45.6796 77.5431 45.5266 77.5431 45.3715V16.6271C77.5431 16.4731 77.5431 16.319 77.5358 16.164C77.5274 16.0246 77.5117 15.8873 77.475 15.7511ZM83.823 26.1188C83.8146 25.9794 83.7989 25.8422 83.7623 25.7059C83.6858 25.4199 83.5265 25.1694 83.3012 24.9892C83.0769 24.809 82.8034 24.7126 82.5205 24.7126C82.2386 24.7126 81.9641 24.809 81.7398 24.9892C81.5145 25.1694 81.3553 25.4199 81.2788 25.7059C81.2421 25.8422 81.2264 25.9794 81.218 26.1188C81.2107 26.2739 81.2107 26.4279 81.2107 26.582V26.5851V35.4135V35.4166C81.2107 35.5707 81.2107 35.7247 81.218 35.8798C81.2264 36.0202 81.2421 36.1564 81.2788 36.2927C81.3553 36.5787 81.5145 36.8292 81.7398 37.0094C81.9641 37.1897 82.2386 37.2871 82.5205 37.2871C82.8034 37.2871 83.0769 37.1897 83.3012 37.0094C83.5265 36.8292 83.6858 36.5787 83.7623 36.2927C83.7989 36.1564 83.8146 36.0202 83.823 35.8798C83.8304 35.7247 83.8304 35.5707 83.8304 35.4166V35.4135V26.5851V26.582C83.8304 26.4279 83.8304 26.2739 83.823 26.1188ZM90.0495 22.0384C89.973 21.7523 89.8138 21.5019 89.5885 21.3216C89.3642 21.1414 89.0907 21.045 88.8078 21.045C88.5259 21.045 88.2514 21.1414 88.0271 21.3216C87.8018 21.5019 87.6425 21.7523 87.5661 22.0384C87.5294 22.1746 87.5137 22.3119 87.5053 22.4512C87.4979 22.6063 87.4979 22.7604 87.4979 22.9144V39.0842C87.4979 39.2393 87.4979 39.3923 87.5053 39.5474C87.5137 39.6878 87.5294 39.824 87.5661 39.9592C87.6425 40.2463 87.8018 40.4968 88.0271 40.677C88.2514 40.8572 88.5259 40.9547 88.8078 40.9547C89.0907 40.9547 89.3642 40.8572 89.5885 40.677C89.8138 40.4968 89.973 40.2463 90.0495 39.9592C90.0862 39.824 90.1019 39.6878 90.1103 39.5474C90.1176 39.3923 90.1176 39.2393 90.1176 39.0842V22.9144C90.1176 22.7604 90.1176 22.6063 90.1103 22.4512C90.1019 22.3119 90.0862 22.1746 90.0495 22.0384ZM95.8129 29.8975C95.7364 29.6114 95.5771 29.361 95.3518 29.1807C95.1275 29.0005 94.854 28.9041 94.5711 28.9041C94.2892 28.9041 94.0147 29.0005 93.7905 29.1807C93.5652 29.361 93.4059 29.6114 93.3294 29.8975C93.2927 30.0337 93.277 30.171 93.2686 30.3103C93.2613 30.4654 93.2613 30.6195 93.2613 30.7735V31.2251C93.2613 31.3792 93.2613 31.5332 93.2686 31.6883C93.277 31.8287 93.2927 31.9649 93.3294 32.1012C93.4059 32.3872 93.5652 32.6377 93.7905 32.8179C94.0147 32.9981 94.2892 33.0956 94.5711 33.0956C94.854 33.0956 95.1275 32.9981 95.3518 32.8179C95.5771 32.6377 95.7364 32.3872 95.8129 32.1012C95.8495 31.9649 95.8653 31.8287 95.8736 31.6883C95.881 31.5332 95.881 31.3792 95.881 31.2251V30.7735C95.881 30.6195 95.881 30.4654 95.8736 30.3103C95.8653 30.171 95.8495 30.0337 95.8129 29.8975ZM102.161 17.7358C102.153 17.5964 102.137 17.4591 102.1 17.3229C102.024 17.0368 101.864 16.7864 101.639 16.6062C101.415 16.4259 101.141 16.3295 100.858 16.3295C100.577 16.3295 100.302 16.4259 100.078 16.6062C99.8524 16.7864 99.6932 17.0368 99.6167 17.3229C99.58 17.4591 99.5643 17.5964 99.5559 17.7358C99.5486 17.8909 99.5486 18.0449 99.5486 18.1989V18.2021V43.7965V43.7997C99.5486 43.9548 99.5486 44.1078 99.5559 44.2628C99.5643 44.4033 99.58 44.5395 99.6167 44.6747C99.6932 44.9618 99.8524 45.2122 100.078 45.3925C100.302 45.5727 100.577 45.6701 100.858 45.6701C101.141 45.6701 101.415 45.5727 101.639 45.3925C101.864 45.2122 102.024 44.9618 102.1 44.6747C102.137 44.5395 102.153 44.4033 102.161 44.2628C102.168 44.1078 102.168 43.9548 102.168 43.7997V43.7965V18.2021V18.1989C102.168 18.0449 102.168 17.8909 102.161 17.7358ZM108.387 11.0356C108.311 10.7496 108.152 10.4991 107.926 10.3189C107.702 10.1386 107.429 10.0422 107.146 10.0422C106.864 10.0422 106.589 10.1386 106.365 10.3189C106.14 10.4991 105.98 10.7496 105.904 11.0356C105.867 11.1719 105.852 11.3091 105.843 11.4485C105.836 11.6036 105.836 11.7576 105.836 11.9117V11.9148V50.0838V50.087C105.836 50.242 105.836 50.395 105.843 50.5501C105.852 50.6905 105.867 50.8268 105.904 50.9619C105.98 51.2491 106.14 51.4995 106.365 51.6797C106.589 51.86 106.864 51.9574 107.146 51.9574C107.429 51.9574 107.702 51.86 107.926 51.6797C108.152 51.4995 108.311 51.2491 108.387 50.9619C108.424 50.8268 108.44 50.6905 108.448 50.5501C108.456 50.395 108.456 50.242 108.456 50.087V11.9117C108.456 11.7576 108.456 11.6036 108.448 11.4485C108.44 11.3091 108.424 11.1719 108.387 11.0356ZM114.735 14.5921C114.727 14.4528 114.711 14.3155 114.675 14.1793C114.598 13.8932 114.439 13.6428 114.214 13.4625C113.989 13.2823 113.716 13.1859 113.433 13.1859C113.151 13.1859 112.877 13.2823 112.652 13.4625C112.427 13.6428 112.268 13.8932 112.191 14.1793C112.155 14.3155 112.139 14.4528 112.13 14.5921C112.123 14.7472 112.123 14.9013 112.123 15.0553V15.0584V46.9402V46.9433C112.123 47.0984 112.123 47.2514 112.13 47.4065C112.139 47.5469 112.155 47.6831 112.191 47.8183C112.268 48.1054 112.427 48.3559 112.652 48.5361C112.877 48.7163 113.151 48.8138 113.433 48.8138C113.716 48.8138 113.989 48.7163 114.214 48.5361C114.439 48.3559 114.598 48.1054 114.675 47.8183C114.711 47.6831 114.727 47.5469 114.735 47.4065C114.743 47.2514 114.743 47.0984 114.743 46.9433V46.9402V15.0584V15.0553C114.743 14.9013 114.743 14.7472 114.735 14.5921ZM121.023 21.9273C121.014 21.7879 120.999 21.6507 120.962 21.5144C120.885 21.2284 120.726 20.9779 120.501 20.7977C120.277 20.6174 120.003 20.521 119.72 20.521C119.438 20.521 119.164 20.6174 118.94 20.7977C118.714 20.9779 118.555 21.2284 118.479 21.5144C118.442 21.6507 118.426 21.7879 118.418 21.9273C118.41 22.0824 118.41 22.2364 118.41 22.3905V22.3936V39.605V39.6082C118.41 39.7632 118.41 39.9162 118.418 40.0713C118.426 40.2117 118.442 40.348 118.479 40.4831C118.555 40.7703 118.714 41.0207 118.94 41.2009C119.164 41.3812 119.438 41.4786 119.72 41.4786C120.003 41.4786 120.277 41.3812 120.501 41.2009C120.726 41.0207 120.885 40.7703 120.962 40.4831C120.999 40.348 121.014 40.2117 121.023 40.0713C121.03 39.9162 121.03 39.7632 121.03 39.6082V39.605V22.3936V22.3905C121.03 22.2364 121.03 22.0824 121.023 21.9273ZM127.249 14.1793C127.173 13.8932 127.013 13.6428 126.788 13.4625C126.564 13.2823 126.29 13.1859 126.008 13.1859C125.726 13.1859 125.451 13.2823 125.227 13.4625C125.002 13.6428 124.842 13.8932 124.766 14.1793C124.729 14.3155 124.713 14.4528 124.705 14.5921C124.698 14.7472 124.698 14.9013 124.698 15.0553V15.0584V46.9402V46.9433C124.698 47.0984 124.698 47.2514 124.705 47.4065C124.713 47.5469 124.729 47.6831 124.766 47.8183C124.842 48.1054 125.002 48.3559 125.227 48.5361C125.451 48.7163 125.726 48.8138 126.008 48.8138C126.29 48.8138 126.564 48.7163 126.788 48.5361C127.013 48.3559 127.173 48.1054 127.249 47.8183C127.286 47.6831 127.302 47.5469 127.31 47.4065C127.317 47.2514 127.317 47.0984 127.317 46.9433V15.0553C127.317 14.9013 127.317 14.7472 127.31 14.5921C127.302 14.4528 127.286 14.3155 127.249 14.1793ZM133.597 16.6879C133.589 16.5485 133.573 16.4113 133.537 16.275C133.46 15.989 133.301 15.7385 133.075 15.5583C132.851 15.378 132.578 15.2816 132.295 15.2816C132.013 15.2816 131.738 15.378 131.514 15.5583C131.289 15.7385 131.13 15.989 131.053 16.275C131.016 16.4113 131.001 16.5485 130.992 16.6879C130.985 16.843 130.985 16.997 130.985 17.1511V17.1542V44.8444V44.8476C130.985 45.0027 130.985 45.1556 130.992 45.3107C131.001 45.4511 131.016 45.5874 131.053 45.7225C131.13 46.0097 131.289 46.2601 131.514 46.4403C131.738 46.6206 132.013 46.718 132.295 46.718C132.578 46.718 132.851 46.6206 133.075 46.4403C133.301 46.2601 133.46 46.0097 133.537 45.7225C133.573 45.5874 133.589 45.4511 133.597 45.3107C133.605 45.1556 133.605 45.0027 133.605 44.8476V44.8444V17.1542V17.1511C133.605 16.997 133.605 16.843 133.597 16.6879ZM139.824 25.7059C139.747 25.4199 139.588 25.1694 139.363 24.9892C139.138 24.809 138.865 24.7126 138.582 24.7126C138.3 24.7126 138.026 24.809 137.801 24.9892C137.576 25.1694 137.417 25.4199 137.34 25.7059C137.304 25.8422 137.288 25.9794 137.28 26.1188C137.272 26.2739 137.272 26.4279 137.272 26.582V35.4166C137.272 35.5707 137.272 35.7247 137.28 35.8798C137.288 36.0202 137.304 36.1564 137.34 36.2927C137.417 36.5787 137.576 36.8292 137.801 37.0094C138.026 37.1897 138.3 37.2871 138.582 37.2871C138.865 37.2871 139.138 37.1897 139.363 37.0094C139.588 36.8292 139.747 36.5787 139.824 36.2927C139.86 36.1564 139.876 36.0202 139.885 35.8798C139.892 35.7247 139.892 35.5707 139.892 35.4166V26.582C139.892 26.4279 139.892 26.2739 139.885 26.1188C139.876 25.9794 139.86 25.8422 139.824 25.7059ZM146.172 24.0231C146.163 23.8837 146.148 23.7464 146.111 23.6102C146.035 23.3241 145.875 23.0737 145.65 22.8934C145.426 22.7132 145.152 22.6168 144.869 22.6168C144.587 22.6168 144.313 22.7132 144.089 22.8934C143.863 23.0737 143.704 23.3241 143.628 23.6102C143.591 23.7464 143.575 23.8837 143.567 24.0231C143.559 24.1781 143.559 24.3322 143.559 24.4862V24.4894V37.5093V37.5124C143.559 37.6664 143.559 37.8205 143.567 37.9756C143.575 38.116 143.591 38.2522 143.628 38.3874C143.704 38.6745 143.863 38.9249 144.089 39.1052C144.313 39.2854 144.587 39.3829 144.869 39.3829C145.152 39.3829 145.426 39.2854 145.65 39.1052C145.875 38.9249 146.035 38.6745 146.111 38.3874C146.148 38.2522 146.163 38.116 146.172 37.9756C146.179 37.8205 146.179 37.6664 146.179 37.5124V37.5093V24.4894V24.4862C146.179 24.3322 146.179 24.1781 146.172 24.0231ZM152.398 26.7538C152.322 26.4678 152.163 26.2173 151.937 26.0371C151.713 25.8568 151.44 25.7604 151.157 25.7604C150.875 25.7604 150.6 25.8568 150.376 26.0371C150.151 26.2173 149.991 26.4678 149.915 26.7538C149.878 26.8901 149.862 27.0273 149.854 27.1667C149.847 27.3218 149.847 27.4758 149.847 27.6299V34.3688C149.847 34.5228 149.847 34.6768 149.854 34.8319C149.862 34.9723 149.878 35.1086 149.915 35.2448C149.991 35.5309 150.151 35.7813 150.376 35.9615C150.6 36.1418 150.875 36.2392 151.157 36.2392C151.44 36.2392 151.713 36.1418 151.937 35.9615C152.163 35.7813 152.322 35.5309 152.398 35.2448C152.435 35.1086 152.451 34.9723 152.459 34.8319C152.466 34.6768 152.466 34.5228 152.466 34.3688V27.6299C152.466 27.4758 152.466 27.3218 152.459 27.1667C152.451 27.0273 152.435 26.8901 152.398 26.7538ZM158.746 29.2624C158.738 29.1231 158.722 28.9858 158.686 28.8496C158.609 28.5635 158.45 28.3131 158.225 28.1328C158 27.9526 157.727 27.8562 157.444 27.8562C157.162 27.8562 156.887 27.9526 156.663 28.1328C156.438 28.3131 156.279 28.5635 156.202 28.8496C156.165 28.9858 156.15 29.1231 156.141 29.2624C156.134 29.4175 156.134 29.5716 156.134 29.7256V29.7288V32.2699V32.273C156.134 32.427 156.134 32.5811 156.141 32.7362C156.15 32.8766 156.165 33.0128 156.202 33.149C156.279 33.4351 156.438 33.6856 156.663 33.8658C156.887 34.046 157.162 34.1435 157.444 34.1435C157.727 34.1435 158 34.046 158.225 33.8658C158.45 33.6856 158.609 33.4351 158.686 33.149C158.722 33.0128 158.738 32.8766 158.746 32.7362C158.754 32.5811 158.754 32.427 158.754 32.273V32.2699V29.7288V29.7256C158.754 29.5716 158.754 29.4175 158.746 29.2624ZM164.51 11.4485C164.501 11.3091 164.486 11.1719 164.449 11.0356C164.372 10.7496 164.213 10.4991 163.988 10.3189C163.764 10.1386 163.49 10.0422 163.207 10.0422C162.925 10.0422 162.651 10.1386 162.427 10.3189C162.201 10.4991 162.042 10.7496 161.965 11.0356C161.929 11.1719 161.913 11.3091 161.905 11.4485C161.897 11.6036 161.897 11.7576 161.897 11.9117V11.9148V50.0838V50.087C161.897 50.242 161.897 50.395 161.905 50.5501C161.913 50.6905 161.929 50.8268 161.965 50.9619C162.042 51.2491 162.201 51.4995 162.427 51.6797C162.651 51.86 162.925 51.9574 163.207 51.9574C163.49 51.9574 163.764 51.86 163.988 51.6797C164.213 51.4995 164.372 51.2491 164.449 50.9619C164.486 50.8268 164.501 50.6905 164.51 50.5501C164.517 50.395 164.517 50.242 164.517 50.087V50.0838V11.9148V11.9117C164.517 11.7576 164.517 11.6036 164.51 11.4485ZM170.797 4.11334C170.789 3.97397 170.773 3.8367 170.736 3.70048C170.66 3.41441 170.5 3.16396 170.275 2.98373C170.051 2.80349 169.777 2.70709 169.495 2.70709C169.213 2.70709 168.938 2.80349 168.714 2.98373C168.489 3.16396 168.329 3.41441 168.253 3.70048C168.216 3.8367 168.2 3.97397 168.192 4.11334C168.185 4.26843 168.185 4.42247 168.185 4.5765V4.57965V57.419V57.4221C168.185 57.5772 168.185 57.7302 168.192 57.8853C168.2 58.0257 168.216 58.1619 168.253 58.2971C168.329 58.5842 168.489 58.8347 168.714 59.0149C168.938 59.1951 169.213 59.2926 169.495 59.2926C169.777 59.2926 170.051 59.1951 170.275 59.0149C170.5 58.8347 170.66 58.5842 170.736 58.2971C170.773 58.1619 170.789 58.0257 170.797 57.8853C170.804 57.7302 170.804 57.5772 170.804 57.4221V57.419V4.57965V4.5765C170.804 4.42247 170.804 4.26843 170.797 4.11334ZM177.024 13.6553C176.947 13.3693 176.788 13.1188 176.562 12.9386C176.338 12.7583 176.065 12.6619 175.782 12.6619C175.5 12.6619 175.225 12.7583 175.001 12.9386C174.776 13.1188 174.617 13.3693 174.54 13.6553C174.503 13.7916 174.488 13.9288 174.479 14.0682C174.472 14.2233 174.472 14.3773 174.472 14.5314V14.5345V47.4641V47.4673C174.472 47.6223 174.472 47.7753 174.479 47.9304C174.488 48.0708 174.503 48.2071 174.54 48.3422C174.617 48.6294 174.776 48.8798 175.001 49.06C175.225 49.2403 175.5 49.3377 175.782 49.3377C176.065 49.3377 176.338 49.2403 176.562 49.06C176.788 48.8798 176.947 48.6294 177.024 48.3422C177.06 48.2071 177.076 48.0708 177.084 47.9304C177.092 47.7753 177.092 47.6223 177.092 47.4673V14.5314C177.092 14.3773 177.092 14.2233 177.084 14.0682C177.076 13.9288 177.06 13.7916 177.024 13.6553ZM183.372 17.2118C183.363 17.0725 183.347 16.9352 183.311 16.799C183.234 16.5129 183.075 16.2625 182.85 16.0822C182.625 15.902 182.352 15.8056 182.069 15.8056C181.787 15.8056 181.513 15.902 181.288 16.0822C181.063 16.2625 180.904 16.5129 180.827 16.799C180.791 16.9352 180.775 17.0725 180.767 17.2118C180.759 17.3669 180.759 17.521 180.759 17.675V17.6781V44.3205V44.3236C180.759 44.4787 180.759 44.6317 180.767 44.7868C180.775 44.9272 180.791 45.0634 180.827 45.1986C180.904 45.4857 181.063 45.7362 181.288 45.9164C181.513 46.0966 181.787 46.1941 182.069 46.1941C182.352 46.1941 182.625 46.0966 182.85 45.9164C183.075 45.7362 183.234 45.4857 183.311 45.1986C183.347 45.0634 183.363 44.9272 183.372 44.7868C183.379 44.6317 183.379 44.4787 183.379 44.3236V44.3205V17.6781V17.675C183.379 17.521 183.379 17.3669 183.372 17.2118ZM189.598 4.74836C189.522 4.46229 189.362 4.21184 189.137 4.03161C188.913 3.85137 188.639 3.75497 188.356 3.75497C188.074 3.75497 187.8 3.85137 187.576 4.03161C187.35 4.21184 187.191 4.46229 187.115 4.74836C187.078 4.88458 187.062 5.02185 187.054 5.16122C187.046 5.31631 187.046 5.47035 187.046 5.62438V56.3742C187.046 56.5293 187.046 56.6823 187.054 56.8374C187.062 56.9778 187.078 57.114 187.115 57.2492C187.191 57.5363 187.35 57.7868 187.576 57.967C187.8 58.1472 188.074 58.2447 188.356 58.2447C188.639 58.2447 188.913 58.1472 189.137 57.967C189.362 57.7868 189.522 57.5363 189.598 57.2492C189.635 57.114 189.65 56.9778 189.659 56.8374C189.666 56.6823 189.666 56.5293 189.666 56.3742V5.62438C189.666 5.47035 189.666 5.31631 189.659 5.16122C189.65 5.02185 189.635 4.88458 189.598 4.74836ZM195.946 4.11334C195.938 3.97397 195.922 3.8367 195.885 3.70048C195.809 3.41441 195.65 3.16396 195.424 2.98373C195.2 2.80349 194.927 2.70709 194.644 2.70709C194.362 2.70709 194.087 2.80349 193.863 2.98373C193.638 3.16396 193.478 3.41441 193.402 3.70048C193.365 3.8367 193.349 3.97397 193.341 4.11334C193.334 4.26843 193.334 4.42247 193.334 4.5765V4.57965V57.419V57.4221C193.334 57.5772 193.334 57.7302 193.341 57.8853C193.349 58.0257 193.365 58.1619 193.402 58.2971C193.478 58.5842 193.638 58.8347 193.863 59.0149C194.087 59.1951 194.362 59.2926 194.644 59.2926C194.927 59.2926 195.2 59.1951 195.424 59.0149C195.65 58.8347 195.809 58.5842 195.885 58.2971C195.922 58.1619 195.938 58.0257 195.946 57.8853C195.953 57.7302 195.953 57.5772 195.953 57.4221V57.419V4.57965V4.5765C195.953 4.42247 195.953 4.26843 195.946 4.11334ZM202.173 23.0862C202.096 22.8002 201.937 22.5497 201.712 22.3695C201.487 22.1893 201.214 22.0929 200.931 22.0929C200.649 22.0929 200.374 22.1893 200.15 22.3695C199.925 22.5497 199.766 22.8002 199.689 23.0862C199.652 23.2225 199.637 23.3597 199.628 23.4991C199.621 23.6542 199.621 23.8082 199.621 23.9623V38.0363C199.621 38.1904 199.621 38.3444 199.628 38.4995C199.637 38.6399 199.652 38.7761 199.689 38.9113C199.766 39.1984 199.925 39.4489 200.15 39.6291C200.374 39.8094 200.649 39.9068 200.931 39.9068C201.214 39.9068 201.487 39.8094 201.712 39.6291C201.937 39.4489 202.096 39.1984 202.173 38.9113C202.209 38.7761 202.225 38.6399 202.233 38.4995C202.241 38.3444 202.241 38.1904 202.241 38.0363V23.9623C202.241 23.8082 202.241 23.6542 202.233 23.4991C202.225 23.3597 202.209 23.2225 202.173 23.0862ZM208.521 7.78092C208.512 7.64155 208.497 7.50428 208.46 7.36806C208.383 7.08198 208.224 6.83154 207.999 6.65131C207.775 6.47107 207.501 6.37467 207.218 6.37467C206.936 6.37467 206.662 6.47107 206.438 6.65131C206.212 6.83154 206.053 7.08198 205.976 7.36806C205.94 7.50428 205.924 7.64155 205.916 7.78092C205.908 7.93601 205.908 8.09004 205.908 8.24408V8.24723V53.7514V53.7545C205.908 53.9096 205.908 54.0626 205.916 54.2177C205.924 54.3581 205.94 54.4943 205.976 54.6295C206.053 54.9166 206.212 55.1671 206.438 55.3473C206.662 55.5276 206.936 55.625 207.218 55.625C207.501 55.625 207.775 55.5276 207.999 55.3473C208.224 55.1671 208.383 54.9166 208.46 54.6295C208.497 54.4943 208.512 54.3581 208.521 54.2177C208.528 54.0626 208.528 53.9096 208.528 53.7545V53.7514V8.24723V8.24408C208.528 8.09004 208.528 7.93601 208.521 7.78092ZM214.747 20.9905C214.671 20.7044 214.511 20.454 214.286 20.2737C214.062 20.0935 213.788 19.9971 213.505 19.9971C213.224 19.9971 212.949 20.0935 212.725 20.2737C212.499 20.454 212.34 20.7044 212.264 20.9905C212.227 21.1267 212.211 21.264 212.203 21.4034C212.196 21.5584 212.196 21.7125 212.196 21.8665V40.1321C212.196 40.2872 212.196 40.4402 212.203 40.5953C212.211 40.7357 212.227 40.8719 212.264 41.0071C212.34 41.2942 212.499 41.5446 212.725 41.7249C212.949 41.9051 213.224 42.0026 213.505 42.0026C213.788 42.0026 214.062 41.9051 214.286 41.7249C214.511 41.5446 214.671 41.2942 214.747 41.0071C214.784 40.8719 214.8 40.7357 214.808 40.5953C214.815 40.4402 214.815 40.2872 214.815 40.1321V21.8665C214.815 21.7125 214.815 21.5584 214.808 21.4034C214.8 21.264 214.784 21.1267 214.747 20.9905ZM221.095 22.9752C221.087 22.8358 221.071 22.6985 221.034 22.5623C220.958 22.2762 220.799 22.0258 220.573 21.8456C220.349 21.6653 220.076 21.5689 219.793 21.5689C219.511 21.5689 219.236 21.6653 219.012 21.8456C218.787 22.0258 218.627 22.2762 218.551 22.5623C218.514 22.6985 218.499 22.8358 218.49 22.9752C218.483 23.1303 218.483 23.2843 218.483 23.4383V23.4415V38.5571V38.5603C218.483 38.7154 218.483 38.8684 218.49 39.0234C218.499 39.1639 218.514 39.3001 218.551 39.4353C218.627 39.7224 218.787 39.9728 219.012 40.1531C219.236 40.3333 219.511 40.4308 219.793 40.4308C220.076 40.4308 220.349 40.3333 220.573 40.1531C220.799 39.9728 220.958 39.7224 221.034 39.4353C221.071 39.3001 221.087 39.1639 221.095 39.0234C221.103 38.8684 221.103 38.7154 221.103 38.5603V38.5571V23.4415V23.4383C221.103 23.2843 221.103 23.1303 221.095 22.9752ZM226.859 13.5443C226.85 13.4049 226.834 13.2676 226.798 13.1314C226.721 12.8453 226.562 12.5949 226.337 12.4146C226.112 12.2344 225.839 12.138 225.556 12.138C225.274 12.138 225 12.2344 224.775 12.4146C224.55 12.5949 224.391 12.8453 224.314 13.1314C224.278 13.2676 224.262 13.4049 224.254 13.5443C224.246 13.6993 224.246 13.8534 224.246 14.0074V14.0106V47.9881V47.9912C224.246 48.1463 224.246 48.2993 224.254 48.4544C224.262 48.5948 224.278 48.731 224.314 48.8662C224.391 49.1533 224.55 49.4037 224.775 49.584C225 49.7642 225.274 49.8617 225.556 49.8617C225.839 49.8617 226.112 49.7642 226.337 49.584C226.562 49.4037 226.721 49.1533 226.798 48.8662C226.834 48.731 226.85 48.5948 226.859 48.4544C226.866 48.2993 226.866 48.1463 226.866 47.9912V47.9881V14.0106V14.0074C226.866 13.8534 226.866 13.6993 226.859 13.5443ZM233.146 14.5921C233.137 14.4528 233.122 14.3155 233.085 14.1793C233.009 13.8932 232.849 13.6428 232.624 13.4625C232.4 13.2823 232.126 13.1859 231.843 13.1859C231.561 13.1859 231.287 13.2823 231.063 13.4625C230.837 13.6428 230.678 13.8932 230.602 14.1793C230.565 14.3155 230.549 14.4528 230.541 14.5921C230.533 14.7472 230.533 14.9013 230.533 15.0553V15.0584V46.9402V46.9433C230.533 47.0984 230.533 47.2514 230.541 47.4065C230.549 47.5469 230.565 47.6831 230.602 47.8183C230.678 48.1054 230.837 48.3559 231.063 48.5361C231.287 48.7163 231.561 48.8138 231.843 48.8138C232.126 48.8138 232.4 48.7163 232.624 48.5361C232.849 48.3559 233.009 48.1054 233.085 47.8183C233.122 47.6831 233.137 47.5469 233.146 47.4065C233.153 47.2514 233.153 47.0984 233.153 46.9433V46.9402V15.0584V15.0553C233.153 14.9013 233.153 14.7472 233.146 14.5921ZM239.372 21.5144C239.296 21.2284 239.137 20.9779 238.911 20.7977C238.687 20.6174 238.414 20.521 238.131 20.521C237.849 20.521 237.574 20.6174 237.35 20.7977C237.125 20.9779 236.965 21.2284 236.889 21.5144C236.852 21.6507 236.836 21.7879 236.828 21.9273C236.821 22.0824 236.821 22.2364 236.821 22.3905V39.6082C236.821 39.7632 236.821 39.9162 236.828 40.0713C236.836 40.2117 236.852 40.348 236.889 40.4831C236.965 40.7703 237.125 41.0207 237.35 41.2009C237.574 41.3812 237.849 41.4786 238.131 41.4786C238.414 41.4786 238.687 41.3812 238.911 41.2009C239.137 41.0207 239.296 40.7703 239.372 40.4831C239.409 40.348 239.425 40.2117 239.433 40.0713C239.44 39.9162 239.44 39.7632 239.44 39.6082V22.3905C239.44 22.2364 239.44 22.0824 239.433 21.9273C239.425 21.7879 239.409 21.6507 239.372 21.5144ZM245.72 15.64C245.712 15.5006 245.696 15.3634 245.66 15.2272C245.583 14.9411 245.424 14.6906 245.199 14.5104C244.974 14.3302 244.701 14.2338 244.418 14.2338C244.136 14.2338 243.861 14.3302 243.637 14.5104C243.412 14.6906 243.253 14.9411 243.176 15.2272C243.139 15.3634 243.124 15.5006 243.115 15.64C243.108 15.7951 243.108 15.9491 243.108 16.1032V16.1063V45.8923V45.8954C243.108 46.0505 243.108 46.2035 243.115 46.3586C243.124 46.499 243.139 46.6352 243.176 46.7704C243.253 47.0575 243.412 47.308 243.637 47.4882C243.861 47.6685 244.136 47.7659 244.418 47.7659C244.701 47.7659 244.974 47.6685 245.199 47.4882C245.424 47.308 245.583 47.0575 245.66 46.7704C245.696 46.6352 245.712 46.499 245.72 46.3586C245.728 46.2035 245.728 46.0505 245.728 45.8954V45.8923V16.1063V16.1032C245.728 15.9491 245.728 15.7951 245.72 15.64ZM251.947 1.60472C251.87 1.31865 251.711 1.0682 251.486 0.887968C251.262 0.707733 250.988 0.611328 250.705 0.611328C250.423 0.611328 250.149 0.707733 249.924 0.887968C249.699 1.0682 249.54 1.31865 249.463 1.60472C249.427 1.74094 249.411 1.87821 249.403 2.01758C249.395 2.17267 249.395 2.32671 249.395 2.48075V59.5179C249.395 59.673 249.395 59.826 249.403 59.981C249.411 60.1215 249.427 60.2577 249.463 60.3928C249.54 60.68 249.699 60.9304 249.924 61.1106C250.149 61.2909 250.423 61.3883 250.705 61.3883C250.988 61.3883 251.262 61.2909 251.486 61.1106C251.711 60.9304 251.87 60.68 251.947 60.3928C251.984 60.2577 251.999 60.1215 252.008 59.981C252.015 59.826 252.015 59.673 252.015 59.5179V2.48075C252.015 2.32671 252.015 2.17267 252.008 2.01758C251.999 1.87821 251.984 1.74094 251.947 1.60472ZM258.295 20.8794C258.287 20.74 258.271 20.6028 258.234 20.4665C258.158 20.1805 257.998 19.93 257.773 19.7498C257.549 19.5696 257.275 19.4732 256.992 19.4732C256.711 19.4732 256.436 19.5696 256.212 19.7498C255.986 19.93 255.827 20.1805 255.751 20.4665C255.714 20.6028 255.698 20.74 255.69 20.8794C255.683 21.0345 255.683 21.1885 255.683 21.3426V21.3457V40.6529V40.656C255.683 40.8111 255.683 40.9641 255.69 41.1192C255.698 41.2596 255.714 41.3958 255.751 41.531C255.827 41.8181 255.986 42.0686 256.212 42.2488C256.436 42.4291 256.711 42.5265 256.992 42.5265C257.275 42.5265 257.549 42.4291 257.773 42.2488C257.998 42.0686 258.158 41.8181 258.234 41.531C258.271 41.3958 258.287 41.2596 258.295 41.1192C258.302 40.9641 258.302 40.8111 258.302 40.656V40.6529V21.3457V21.3426C258.302 21.1885 258.302 21.0345 258.295 20.8794ZM264.521 23.6102C264.445 23.3241 264.286 23.0737 264.06 22.8934C263.836 22.7132 263.563 22.6168 263.28 22.6168C262.998 22.6168 262.723 22.7132 262.499 22.8934C262.274 23.0737 262.114 23.3241 262.038 23.6102C262.001 23.7464 261.986 23.8837 261.977 24.0231C261.97 24.1781 261.97 24.3322 261.97 24.4862V37.5124C261.97 37.6664 261.97 37.8205 261.977 37.9756C261.986 38.116 262.001 38.2522 262.038 38.3874C262.114 38.6745 262.274 38.9249 262.499 39.1052C262.723 39.2854 262.998 39.3829 263.28 39.3829C263.563 39.3829 263.836 39.2854 264.06 39.1052C264.286 38.9249 264.445 38.6745 264.521 38.3874C264.558 38.2522 264.574 38.116 264.582 37.9756C264.59 37.8205 264.59 37.6664 264.59 37.5124V24.4862C264.59 24.3322 264.59 24.1781 264.582 24.0231C264.574 23.8837 264.558 23.7464 264.521 23.6102ZM270.87 20.8794C270.861 20.74 270.845 20.6028 270.809 20.4665C270.732 20.1805 270.573 19.93 270.348 19.7498C270.123 19.5696 269.85 19.4732 269.567 19.4732C269.285 19.4732 269.011 19.5696 268.786 19.7498C268.561 19.93 268.402 20.1805 268.325 20.4665C268.289 20.6028 268.273 20.74 268.264 20.8794C268.257 21.0345 268.257 21.1885 268.257 21.3426V21.3457V40.6529V40.656C268.257 40.8111 268.257 40.9641 268.264 41.1192C268.273 41.2596 268.289 41.3958 268.325 41.531C268.402 41.8181 268.561 42.0686 268.786 42.2488C269.011 42.4291 269.285 42.5265 269.567 42.5265C269.85 42.5265 270.123 42.4291 270.348 42.2488C270.573 42.0686 270.732 41.8181 270.809 41.531C270.845 41.3958 270.861 41.2596 270.87 41.1192C270.877 40.9641 270.877 40.8111 270.877 40.656V40.6529V21.3457V21.3426C270.877 21.1885 270.877 21.0345 270.87 20.8794ZM277.096 25.7059C277.02 25.4199 276.86 25.1694 276.635 24.9892C276.411 24.809 276.137 24.7126 275.854 24.7126C275.572 24.7126 275.298 24.809 275.074 24.9892C274.848 25.1694 274.689 25.4199 274.613 25.7059C274.576 25.8422 274.56 25.9794 274.552 26.1188C274.544 26.2739 274.544 26.4279 274.544 26.582V35.4166C274.544 35.5707 274.544 35.7247 274.552 35.8798C274.56 36.0202 274.576 36.1564 274.613 36.2927C274.689 36.5787 274.848 36.8292 275.074 37.0094C275.298 37.1897 275.572 37.2871 275.854 37.2871C276.137 37.2871 276.411 37.1897 276.635 37.0094C276.86 36.8292 277.02 36.5787 277.096 36.2927C277.133 36.1564 277.148 36.0202 277.157 35.8798C277.164 35.7247 277.164 35.5707 277.164 35.4166V26.582C277.164 26.4279 277.164 26.2739 277.157 26.1188C277.148 25.9794 277.133 25.8422 277.096 25.7059ZM283.444 6.2091C283.436 6.06973 283.42 5.93246 283.383 5.79624C283.307 5.51016 283.148 5.25972 282.922 5.07949C282.698 4.89925 282.424 4.80285 282.142 4.80285C281.86 4.80285 281.585 4.89925 281.361 5.07949C281.136 5.25972 280.976 5.51016 280.9 5.79624C280.863 5.93246 280.847 6.06973 280.839 6.2091C280.832 6.36419 280.832 6.51822 280.832 6.67226V6.67541V55.3232V55.3264C280.832 55.4814 280.832 55.6344 280.839 55.7895C280.847 55.9299 280.863 56.0662 280.9 56.2013C280.976 56.4885 281.136 56.7389 281.361 56.9191C281.585 57.0994 281.86 57.1968 282.142 57.1968C282.424 57.1968 282.698 57.0994 282.922 56.9191C283.148 56.7389 283.307 56.4885 283.383 56.2013C283.42 56.0662 283.436 55.9299 283.444 55.7895C283.451 55.6344 283.451 55.4814 283.451 55.3264V55.3232V6.67541V6.67226C283.451 6.51822 283.451 6.36419 283.444 6.2091ZM289.671 18.8947C289.594 18.6087 289.435 18.3582 289.21 18.178C288.985 17.9977 288.712 17.9013 288.429 17.9013C288.147 17.9013 287.872 17.9977 287.648 18.178C287.423 18.3582 287.264 18.6087 287.187 18.8947C287.15 19.031 287.135 19.1682 287.126 19.3076C287.119 19.4627 287.119 19.6167 287.119 19.7708V19.7739V42.2247V42.2279C287.119 42.3829 287.119 42.5359 287.126 42.691C287.135 42.8314 287.15 42.9677 287.187 43.1028C287.264 43.39 287.423 43.6404 287.648 43.8206C287.872 44.0009 288.147 44.0983 288.429 44.0983C288.712 44.0983 288.985 44.0009 289.21 43.8206C289.435 43.6404 289.594 43.39 289.671 43.1028C289.707 42.9677 289.723 42.8314 289.731 42.691C289.739 42.5359 289.739 42.3829 289.739 42.2279V19.7708C289.739 19.6167 289.739 19.4627 289.731 19.3076C289.723 19.1682 289.707 19.031 289.671 18.8947ZM296.019 27.1667C296.01 27.0273 295.995 26.8901 295.958 26.7538C295.881 26.4678 295.722 26.2173 295.497 26.0371C295.273 25.8568 294.999 25.7604 294.716 25.7604C294.434 25.7604 294.16 25.8568 293.935 26.0371C293.71 26.2173 293.551 26.4678 293.474 26.7538C293.438 26.8901 293.422 27.0273 293.414 27.1667C293.406 27.3218 293.406 27.4758 293.406 27.6299V27.633V34.3656V34.3688C293.406 34.5228 293.406 34.6768 293.414 34.8319C293.422 34.9723 293.438 35.1086 293.474 35.2448C293.551 35.5309 293.71 35.7813 293.935 35.9615C294.16 36.1418 294.434 36.2392 294.716 36.2392C294.999 36.2392 295.273 36.1418 295.497 35.9615C295.722 35.7813 295.881 35.5309 295.958 35.2448C295.995 35.1086 296.01 34.9723 296.019 34.8319C296.026 34.6768 296.026 34.5228 296.026 34.3688V34.3656V27.633V27.6299C296.026 27.4758 296.026 27.3218 296.019 27.1667ZM301.721 27.8017C301.645 27.5156 301.485 27.2652 301.26 27.085C301.036 26.9047 300.762 26.8083 300.479 26.8083C300.198 26.8083 299.923 26.9047 299.699 27.085C299.474 27.2652 299.314 27.5156 299.238 27.8017C299.201 27.9379 299.185 28.0752 299.177 28.2146C299.17 28.3697 299.17 28.5237 299.17 28.6777V33.3209C299.17 33.4749 299.17 33.629 299.177 33.784C299.185 33.9245 299.201 34.0607 299.238 34.1969C299.314 34.483 299.474 34.7334 299.699 34.9137C299.923 35.0939 300.198 35.1914 300.479 35.1914C300.762 35.1914 301.036 35.0939 301.26 34.9137C301.485 34.7334 301.645 34.483 301.721 34.1969C301.758 34.0607 301.774 33.9245 301.782 33.784C301.789 33.629 301.789 33.4749 301.789 33.3209V28.6777C301.789 28.5237 301.789 28.3697 301.782 28.2146C301.774 28.0752 301.758 27.9379 301.721 27.8017ZM308.069 18.7837C308.061 18.6443 308.045 18.507 308.008 18.3708C307.932 18.0847 307.773 17.8343 307.547 17.654C307.323 17.4738 307.05 17.3774 306.767 17.3774C306.485 17.3774 306.21 17.4738 305.986 17.654C305.761 17.8343 305.601 18.0847 305.525 18.3708C305.488 18.507 305.473 18.6443 305.464 18.7837C305.457 18.9387 305.457 19.0928 305.457 19.2468V19.25V42.7487V42.7518C305.457 42.9069 305.457 43.0599 305.464 43.215C305.473 43.3554 305.488 43.4916 305.525 43.6268C305.601 43.9139 305.761 44.1643 305.986 44.3446C306.21 44.5248 306.485 44.6223 306.767 44.6223C307.05 44.6223 307.323 44.5248 307.547 44.3446C307.773 44.1643 307.932 43.9139 308.008 43.6268C308.045 43.4916 308.061 43.3554 308.069 43.215C308.077 43.0599 308.077 42.9069 308.077 42.7518V42.7487V19.25V19.2468C308.077 19.0928 308.077 18.9387 308.069 18.7837ZM314.296 20.4665C314.219 20.1805 314.06 19.93 313.835 19.7498C313.61 19.5696 313.337 19.4732 313.054 19.4732C312.772 19.4732 312.498 19.5696 312.273 19.7498C312.048 19.93 311.889 20.1805 311.812 20.4665C311.776 20.6028 311.76 20.74 311.751 20.8794C311.744 21.0345 311.744 21.1885 311.744 21.3426V40.656C311.744 40.8111 311.744 40.9641 311.751 41.1192C311.76 41.2596 311.776 41.3958 311.812 41.531C311.889 41.8181 312.048 42.0686 312.273 42.2488C312.498 42.4291 312.772 42.5265 313.054 42.5265C313.337 42.5265 313.61 42.4291 313.835 42.2488C314.06 42.0686 314.219 41.8181 314.296 41.531C314.332 41.3958 314.348 41.2596 314.357 41.1192C314.364 40.9641 314.364 40.8111 314.364 40.656V21.3426C314.364 21.1885 314.364 21.0345 314.357 20.8794C314.348 20.74 314.332 20.6028 314.296 20.4665ZM320.644 21.9273C320.635 21.7879 320.62 21.6507 320.583 21.5144C320.507 21.2284 320.347 20.9779 320.122 20.7977C319.898 20.6174 319.624 20.521 319.341 20.521C319.059 20.521 318.785 20.6174 318.561 20.7977C318.335 20.9779 318.176 21.2284 318.1 21.5144C318.063 21.6507 318.047 21.7879 318.039 21.9273C318.031 22.0824 318.031 22.2364 318.031 22.3905V22.3936V39.605V39.6082C318.031 39.7632 318.031 39.9162 318.039 40.0713C318.047 40.2117 318.063 40.348 318.1 40.4831C318.176 40.7703 318.335 41.0207 318.561 41.2009C318.785 41.3812 319.059 41.4786 319.341 41.4786C319.624 41.4786 319.898 41.3812 320.122 41.2009C320.347 41.0207 320.507 40.7703 320.583 40.4831C320.62 40.348 320.635 40.2117 320.644 40.0713C320.651 39.9162 320.651 39.7632 320.651 39.6082V39.605V22.3936V22.3905C320.651 22.2364 320.651 22.0824 320.644 21.9273ZM326.87 24.1341C326.794 23.8481 326.635 23.5976 326.409 23.4174C326.185 23.2371 325.911 23.1407 325.629 23.1407C325.347 23.1407 325.072 23.2371 324.848 23.4174C324.623 23.5976 324.463 23.8481 324.387 24.1341C324.35 24.2704 324.334 24.4076 324.326 24.547C324.319 24.7021 324.319 24.8561 324.319 25.0102V36.9885C324.319 37.1425 324.319 37.2965 324.326 37.4516C324.334 37.592 324.35 37.7283 324.387 37.8645C324.463 38.1506 324.623 38.401 324.848 38.5812C325.072 38.7615 325.347 38.8589 325.629 38.8589C325.911 38.8589 326.185 38.7615 326.409 38.5812C326.635 38.401 326.794 38.1506 326.87 37.8645C326.907 37.7283 326.923 37.592 326.931 37.4516C326.938 37.2965 326.938 37.1425 326.938 36.9885V25.0102C326.938 24.8561 326.938 24.7021 326.931 24.547C326.923 24.4076 326.907 24.2704 326.87 24.1341ZM333.217 26.1188C333.21 25.9794 333.194 25.8422 333.159 25.7059C333.081 25.4199 332.923 25.1694 332.697 24.9892C332.472 24.809 332.199 24.7126 331.916 24.7126C331.633 24.7126 331.359 24.809 331.135 24.9892C330.91 25.1694 330.751 25.4199 330.674 25.7059C330.637 25.8422 330.622 25.9794 330.613 26.1188C330.606 26.2739 330.606 26.4279 330.606 26.582V26.5851V35.4135V35.4166C330.606 35.5707 330.606 35.7247 330.613 35.8798C330.622 36.0202 330.637 36.1564 330.674 36.2927C330.751 36.5787 330.91 36.8292 331.135 37.0094C331.359 37.1897 331.633 37.2871 331.916 37.2871C332.199 37.2871 332.472 37.1897 332.697 37.0094C332.923 36.8292 333.081 36.5787 333.159 36.2927C333.194 36.1564 333.21 36.0202 333.217 35.8798C333.227 35.7247 333.226 35.5707 333.226 35.4166V35.4135V26.5851V26.582C333.226 26.4279 333.227 26.2739 333.217 26.1188ZM339.446 29.8975C339.368 29.6114 339.21 29.361 338.984 29.1807C338.76 29.0005 338.486 28.9041 338.203 28.9041C337.92 28.9041 337.647 29.0005 337.422 29.1807C337.196 29.361 337.038 29.6114 336.96 29.8975C336.925 30.0337 336.909 30.171 336.902 30.3103C336.892 30.4654 336.893 30.6195 336.893 30.7735V30.7766V31.222V31.2251C336.893 31.3792 336.892 31.5332 336.902 31.6883C336.909 31.8287 336.925 31.9649 336.96 32.1012C337.038 32.3872 337.196 32.6377 337.422 32.8179C337.647 32.9981 337.92 33.0956 338.203 33.0956C338.486 33.0956 338.76 32.9981 338.984 32.8179C339.21 32.6377 339.368 32.3872 339.446 32.1012C339.482 31.9649 339.497 31.8287 339.505 31.6883C339.514 31.5332 339.513 31.3792 339.513 31.2251V30.7735C339.513 30.6195 339.514 30.4654 339.505 30.3103C339.497 30.171 339.482 30.0337 339.446 29.8975ZM345.792 28.2146C345.785 28.0752 345.769 27.9379 345.733 27.8017C345.656 27.5156 345.497 27.2652 345.271 27.085C345.047 26.9047 344.773 26.8083 344.49 26.8083C344.207 26.8083 343.934 26.9047 343.71 27.085C343.483 27.2652 343.325 27.5156 343.248 27.8017C343.212 27.9379 343.196 28.0752 343.189 28.2146C343.18 28.3697 343.181 28.5237 343.181 28.6777V28.6809V33.3177V33.3209C343.181 33.4749 343.18 33.629 343.189 33.784C343.196 33.9245 343.212 34.0607 343.248 34.1969C343.325 34.483 343.483 34.7334 343.71 34.9137C343.934 35.0939 344.207 35.1914 344.49 35.1914C344.773 35.1914 345.047 35.0939 345.271 34.9137C345.497 34.7334 345.656 34.483 345.733 34.1969C345.769 34.0607 345.785 33.9245 345.792 33.784C345.801 33.629 345.8 33.4749 345.8 33.3209V33.3177V28.6809V28.6777C345.8 28.5237 345.801 28.3697 345.792 28.2146ZM352.079 28.2146C352.072 28.0752 352.056 27.9379 352.021 27.8017C351.943 27.5156 351.785 27.2652 351.558 27.085C351.334 26.9047 351.061 26.8083 350.778 26.8083C350.495 26.8083 350.221 26.9047 349.997 27.085C349.771 27.2652 349.612 27.5156 349.535 27.8017C349.499 27.9379 349.484 28.0752 349.476 28.2146C349.467 28.3697 349.468 28.5237 349.468 28.6777V28.6809V33.3177V33.3209C349.468 33.4749 349.467 33.629 349.476 33.784C349.484 33.9245 349.499 34.0607 349.535 34.1969C349.612 34.483 349.771 34.7334 349.997 34.9137C350.221 35.0939 350.495 35.1914 350.778 35.1914C351.061 35.1914 351.334 35.0939 351.558 34.9137C351.785 34.7334 351.943 34.483 352.021 34.1969C352.056 34.0607 352.072 33.9245 352.079 33.784C352.089 33.629 352.088 33.4749 352.088 33.3209V33.3177V28.6809V28.6777C352.088 28.5237 352.089 28.3697 352.079 28.2146ZM358.308 29.3735C358.23 29.0875 358.072 28.837 357.846 28.6568C357.621 28.4765 357.348 28.3801 357.065 28.3801C356.782 28.3801 356.509 28.4765 356.284 28.6568C356.058 28.837 355.9 29.0875 355.822 29.3735C355.787 29.5097 355.771 29.647 355.764 29.7864C355.754 29.9415 355.755 30.0955 355.755 30.2496V30.2527V31.7459V31.7491C355.755 31.9031 355.754 32.0571 355.764 32.2122C355.771 32.3526 355.787 32.4889 355.822 32.6251C355.9 32.9112 356.058 33.1616 356.284 33.3418C356.509 33.5221 356.782 33.6195 357.065 33.6195C357.348 33.6195 357.621 33.5221 357.846 33.3418C358.072 33.1616 358.23 32.9112 358.308 32.6251C358.343 32.4889 358.359 32.3526 358.366 32.2122C358.376 32.0571 358.375 31.9031 358.375 31.7491V30.2496C358.375 30.0955 358.376 29.9415 358.366 29.7864C358.359 29.647 358.343 29.5097 358.308 29.3735ZM364.071 29.8975C363.994 29.6114 363.835 29.361 363.609 29.1807C363.385 29.0005 363.111 28.9041 362.828 28.9041C362.545 28.9041 362.272 29.0005 362.048 29.1807C361.821 29.361 361.663 29.6114 361.586 29.8975C361.55 30.0337 361.534 30.171 361.527 30.3103C361.517 30.4654 361.518 30.6195 361.518 30.7735V31.2251C361.518 31.3792 361.517 31.5332 361.527 31.6883C361.534 31.8287 361.55 31.9649 361.586 32.1012C361.663 32.3872 361.821 32.6377 362.048 32.8179C362.272 32.9981 362.545 33.0956 362.828 33.0956C363.111 33.0956 363.385 32.9981 363.609 32.8179C363.835 32.6377 363.994 32.3872 364.071 32.1012C364.107 31.9649 364.122 31.8287 364.13 31.6883C364.139 31.5332 364.138 31.3792 364.138 31.2251V30.7735C364.138 30.6195 364.139 30.4654 364.13 30.3103C364.122 30.171 364.107 30.0337 364.071 29.8975ZM369.896 30.2286C369.672 30.0484 369.399 29.952 369.116 29.952C368.833 29.952 368.559 30.0484 368.335 30.2286C368.109 30.4088 367.95 30.6593 367.873 30.9453C367.87 30.9632 367.871 30.982 367.867 30.9998C367.871 31.0176 367.87 31.0355 367.873 31.0533C367.95 31.3393 368.109 31.5898 368.335 31.77C368.559 31.9503 368.833 32.0477 369.116 32.0477C369.399 32.0477 369.672 31.9503 369.896 31.77C370.123 31.5898 370.281 31.3393 370.358 31.0533C370.362 31.0355 370.361 31.0176 370.365 30.9998C370.361 30.982 370.362 30.9632 370.358 30.9453C370.281 30.6593 370.123 30.4088 369.896 30.2286ZM367.806 30.1782V30.175V31.8254V31.8223C367.806 31.6683 367.805 31.5142 367.814 31.3591C367.82 31.2376 367.838 31.1192 367.867 31.0008C367.838 30.8813 367.82 30.7629 367.814 30.6413C367.805 30.4863 367.806 30.3322 367.806 30.1782ZM370.417 30.6413C370.411 30.7629 370.393 30.8813 370.365 31.0008C370.393 31.1192 370.411 31.2376 370.417 31.3591C370.426 31.5142 370.425 31.6683 370.425 31.8223V31.8254V30.175V30.1782C370.425 30.3322 370.426 30.4863 370.417 30.6413ZM376.184 30.2286C375.959 30.0484 375.686 29.952 375.403 29.952C375.12 29.952 374.847 30.0484 374.622 30.2286C374.396 30.4088 374.238 30.6593 374.16 30.9453C374.157 30.9632 374.158 30.982 374.154 30.9998C374.158 31.0176 374.157 31.0355 374.16 31.0533C374.238 31.3393 374.396 31.5898 374.622 31.77C374.847 31.9503 375.12 32.0477 375.403 32.0477C375.686 32.0477 375.959 31.9503 376.184 31.77C376.41 31.5898 376.568 31.3393 376.646 31.0533C376.649 31.0355 376.648 31.0176 376.652 30.9998C376.648 30.982 376.649 30.9632 376.646 30.9453C376.568 30.6593 376.41 30.4088 376.184 30.2286ZM376.652 30.9997C376.68 31.1181 376.698 31.2365 376.704 31.358C376.714 31.5131 376.713 31.6672 376.713 31.8212V30.1771C376.713 30.3311 376.714 30.4852 376.704 30.6402C376.698 30.7618 376.68 30.8802 376.652 30.9997ZM374.093 30.1771V31.8212C374.093 31.6672 374.092 31.5131 374.101 31.358C374.108 31.2365 374.126 31.1181 374.154 30.9997C374.126 30.8802 374.108 30.7618 374.101 30.6402C374.092 30.4852 374.093 30.3311 374.093 30.1771ZM382.471 30.2286C382.247 30.0484 381.973 29.952 381.69 29.952C381.407 29.952 381.134 30.0484 380.91 30.2286C380.683 30.4088 380.525 30.6593 380.447 30.9453C380.444 30.9632 380.445 30.982 380.441 30.9998C380.445 31.0176 380.444 31.0355 380.447 31.0533C380.525 31.3393 380.683 31.5898 380.91 31.77C381.134 31.9503 381.407 32.0477 381.69 32.0477C381.973 32.0477 382.247 31.9503 382.471 31.77C382.697 31.5898 382.855 31.3393 382.933 31.0533C382.936 31.0355 382.935 31.0176 382.939 30.9998C382.935 30.982 382.936 30.9632 382.933 30.9453C382.855 30.6593 382.697 30.4088 382.471 30.2286ZM380.38 30.1782V30.175V31.8254V31.8223C380.38 31.6683 380.379 31.5142 380.389 31.3591C380.395 31.2376 380.413 31.1192 380.441 31.0008C380.413 30.8813 380.395 30.7629 380.389 30.6413C380.379 30.4863 380.38 30.3322 380.38 30.1782ZM383 30.1782C383 30.3322 383.001 30.4863 382.991 30.6413C382.985 30.7629 382.967 30.8813 382.939 31.0008C382.967 31.1192 382.985 31.2376 382.991 31.3591C383.001 31.5142 383 31.6683 383 31.8223V31.8254V30.175V30.1782ZM2.61458 31.0008C2.61668 31.0993 2.61982 31.1988 2.61982 31.2984V31.3015V30.699V30.7021C2.61982 30.8017 2.61668 30.9012 2.61458 31.0008ZM0 30.699V31.3015V31.2984C0 31.1988 0.00314364 31.0993 0.0052394 31.0008C0.00314364 30.9012 0 30.8017 0 30.7021V30.699ZM2.55146 30.4214C2.47497 30.1353 2.31569 29.8849 2.0904 29.7047C1.86615 29.5244 1.59265 29.428 1.30973 29.428C1.02785 29.428 0.753303 29.5244 0.529056 29.7047C0.303762 29.8849 0.144485 30.1353 0.0679894 30.4214C0.0313136 30.5576 0.0155954 30.6949 0.00721236 30.8343C0.00406872 30.8898 0.00616448 30.9443 0.0051166 30.9998C0.00616448 31.0543 0.00406872 31.1099 0.00721236 31.1644C0.0155954 31.3048 0.0313136 31.441 0.0679894 31.5772C0.144485 31.8633 0.303762 32.1137 0.529056 32.294C0.753303 32.4742 1.02785 32.5717 1.30973 32.5717C1.59265 32.5717 1.86615 32.4742 2.0904 32.294C2.31569 32.1137 2.47497 31.8633 2.55146 31.5772C2.58814 31.441 2.60386 31.3048 2.61224 31.1644C2.61538 31.1099 2.61329 31.0543 2.61434 30.9998C2.61329 30.9443 2.61538 30.8898 2.61224 30.8343C2.60386 30.6949 2.58814 30.5576 2.55146 30.4214Z" fill="black"/>
</svg>
