<svg width="19" height="19" viewBox="0 0 19 19" fill=" " xmlns="http://www.w3.org/2000/svg">
<path d="M14.171 11.776C15.0749 10.2892 15.4028 8.5228 15.0929 6.81063C14.783 5.09847 13.8567 3.55913 12.489 2.48349C11.1213 1.40786 9.40699 0.870433 7.67002 0.972782C5.93305 1.07513 4.29372 1.81016 3.06183 3.03898C1.82994 4.26779 1.0908 5.90527 0.984107 7.64198C0.87741 9.37869 1.41054 11.0943 2.48275 12.4647C3.55496 13.8351 5.09198 14.7652 6.80336 15.0794C8.51474 15.3936 10.2819 15.0701 11.771 14.17L16.6 19L19 16.6L14.171 11.776ZM8.1 12.5C7.23197 12.4982 6.38394 12.2392 5.66305 11.7557C4.94216 11.2721 4.38076 10.5858 4.04976 9.78335C3.71877 8.9809 3.63304 8.09835 3.8034 7.2472C3.97376 6.39605 4.39257 5.61449 5.00692 5.00126C5.62127 4.38803 6.40359 3.97064 7.25505 3.80183C8.10651 3.63302 8.9889 3.72035 9.79074 4.05281C10.5926 4.38526 11.2779 4.94791 11.7601 5.66968C12.2423 6.39145 12.4998 7.23995 12.5 8.10798C12.4979 9.27355 12.0334 10.3906 11.2084 11.2141C10.3835 12.0375 9.26557 12.5 8.1 12.5Z" />
</svg>
