<svg width="428" height="926" viewBox="0 0 428 926" fill="none" xmlns="http://www.w3.org/2000/svg">
<g clip-path="url(#clip0_3885_8601)">
<rect width="428" height="926" fill="#F5F5F5"/>
<rect width="428" height="926" fill="white"/>
<path d="M122.542 11.825V15.4549H137.8C139.042 15.4549 140.045 16.4689 140.045 17.7236V24.9557C140.045 26.2104 139.042 27.2244 137.8 27.2244H121.516C118.827 26.9975 116.587 25.1687 115.735 22.687C115.488 21.9832 115.359 21.2285 115.359 20.4461V15.4503V11.8204V6.80609C115.359 6.01436 115.492 5.25041 115.744 4.5374C116.665 1.8983 119.161 0 122.088 0H137.796C139.037 0 140.04 1.01397 140.04 2.2687V9.55631C140.04 10.811 139.037 11.825 137.796 11.825H122.542Z" fill="#BAD7E9"/>
<path d="M273.616 63.7547V67.3846H288.874C290.116 67.3846 291.119 68.3986 291.119 69.6533V76.8854C291.119 78.1401 290.116 79.1541 288.874 79.1541H272.59C269.901 78.9272 267.661 77.0983 266.809 74.6167C266.562 73.9129 266.434 73.1582 266.434 72.3757V67.3846V63.7547V58.7358C266.434 57.944 266.566 57.1801 266.818 56.4671C267.739 53.828 270.236 51.9297 273.163 51.9297H288.87C290.111 51.9297 291.114 52.9437 291.114 54.1984V61.486C291.114 62.7407 290.111 63.7547 288.87 63.7547H273.616Z" fill="#0B90CF"/>
<path d="M424.694 115.977V119.607H439.953C441.194 119.607 442.197 120.621 442.197 121.876V129.108C442.197 130.363 441.194 131.377 439.953 131.377H423.668C420.979 131.15 418.739 129.321 417.887 126.839C417.64 126.136 417.512 125.381 417.512 124.598V119.607V115.977V110.958C417.512 110.167 417.645 109.403 417.897 108.69C418.817 106.051 421.314 104.152 424.241 104.152H439.948C441.189 104.152 442.193 105.166 442.193 106.421V113.709C442.193 114.963 441.189 115.977 439.948 115.977H424.694Z" fill="#0B90CF"/>
<path d="M40.4331 15.4716V21.5368C40.0345 24.0463 38.2755 26.0974 35.9486 26.8938C35.2706 27.1253 34.5469 27.2503 33.791 27.2503H20.2596C19.4763 27.2503 18.7205 27.116 18.0197 26.8613C15.4087 25.9307 13.5352 23.412 13.5352 20.4534V2.30385C13.5352 1.05376 14.5383 0.0397872 15.7751 0.0397872C16.3752 0.0397872 16.9203 0.280546 17.3234 0.664836L18.0197 1.3686L25.3259 8.74881C25.3259 8.75344 25.3305 8.75807 25.3396 8.7627C25.3717 8.79974 25.4083 8.83678 25.445 8.86919C25.4496 8.87845 25.4587 8.88771 25.4679 8.89234C25.871 9.26274 26.4024 9.48961 26.9887 9.48961C27.575 9.48961 28.1064 9.26274 28.5095 8.89234C28.5186 8.88771 28.5278 8.87845 28.5324 8.86919C28.569 8.83215 28.6057 8.79511 28.6377 8.7627C28.6469 8.75807 28.6515 8.75344 28.6515 8.74881L35.9577 1.3686L36.5624 0.757436C36.5669 0.752806 36.5669 0.748177 36.5761 0.743547C36.599 0.715767 36.6219 0.692616 36.6448 0.674096C36.6448 0.674096 36.6494 0.664836 36.654 0.664836C37.0388 0.289806 37.5564 0.0583072 38.1244 0.0397872C38.1519 0.0351572 38.1748 0.0351562 38.2023 0.0351562C38.2297 0.0351562 38.2526 0.0351572 38.2801 0.0397872C39.4803 0.0768272 40.4468 1.07691 40.4468 2.29923V11.8463V15.4716H40.4331Z" fill="#0B90CF"/>
<path d="M392.945 67.3707V73.436C392.547 75.9455 390.788 77.9966 388.461 78.7929C387.783 79.0244 387.059 79.1494 386.303 79.1494H372.767C371.984 79.1494 371.228 79.0152 370.527 78.7605C367.916 77.8299 366.043 75.3112 366.043 72.3526V54.1984C366.043 52.9483 367.046 51.9343 368.283 51.9343C368.883 51.9343 369.428 52.1751 369.831 52.5594L370.527 53.2631L377.834 60.6433C377.834 60.648 377.838 60.6526 377.847 60.6572C377.88 60.6943 377.916 60.7313 377.953 60.7637C377.957 60.773 377.967 60.7822 377.976 60.7869C378.379 61.1573 378.91 61.3841 379.497 61.3841C380.083 61.3841 380.614 61.1573 381.017 60.7869C381.026 60.7822 381.036 60.773 381.04 60.7637C381.077 60.7267 381.114 60.6896 381.146 60.6572C381.155 60.6526 381.159 60.648 381.159 60.6433L388.466 53.2631L389.07 52.652C389.075 52.6473 389.075 52.6427 389.084 52.6381C389.107 52.6103 389.13 52.5871 389.153 52.5686C389.153 52.5686 389.157 52.5594 389.162 52.5594C389.547 52.1843 390.064 51.9528 390.632 51.9343C390.66 51.9297 390.683 51.9297 390.71 51.9297C390.738 51.9297 390.76 51.9297 390.788 51.9343C391.988 51.9714 392.955 52.9714 392.955 54.1938V63.7408V67.3707H392.945Z" fill="#BAD7E9"/>
<path d="M81.8291 12.1726H78.8379V9.14453H75.8467V12.1726H72.8555V15.1959H75.8467V18.2193H78.8379V15.1959H81.8291V12.1726Z" fill="#BAD7E9"/>
<path d="M434.349 64.0429H431.353V61.0195H428.362V64.0429H425.371V67.0663H428.362V70.0897H431.353V67.0663H434.349V64.0429Z" fill="#BAD7E9"/>
<path d="M283.263 12.1726H280.272V9.14453H277.281V12.1726H274.285V15.1959H277.281V18.2193H280.272V15.1959H283.263V12.1726Z" fill="#BAD7E9"/>
<path d="M283.263 116.255H280.272V113.227H277.281V116.255H274.285V119.278H277.281V122.301H280.272V119.278H283.263V116.255Z" fill="white"/>
<path d="M232.908 64.0429H229.917V61.0195H226.925V64.0429H223.93V67.0663H226.925V70.0897H229.917V67.0663H232.908V64.0429Z" fill="#BAD7E9"/>
<path d="M81.8291 116.255H78.8379V113.227H75.8467V116.255H72.8555V119.278H75.8467V122.301H78.8379V119.278H81.8291V116.255Z" fill="#BAD7E9"/>
<path d="M31.4743 64.0429H28.4785V61.0195H25.4873V64.0429H22.4961V67.0663H25.4873V70.0897H28.4785V67.0663H31.4743V64.0429Z" fill="#BAD7E9"/>
<path d="M333.367 67.6899L331.251 65.5555L333.367 63.4164L331.251 61.2773L329.135 63.4164L327.019 61.2773L324.902 63.4164L327.019 65.5555L324.902 67.6899L327.019 69.8289L329.135 67.6899L331.251 69.8289L333.367 67.6899Z" fill="#BAD7E9"/>
<path d="M182.293 119.902L180.176 117.762L182.293 115.623L180.176 113.484L178.06 115.623L175.948 113.484L173.832 115.623L175.948 117.762L173.832 119.902L175.948 122.041L178.06 119.902L180.176 122.041L182.293 119.902Z" fill="#BAD7E9"/>
<path d="M383.735 119.902L381.618 117.762L383.735 115.623L381.618 113.484L379.502 115.623L377.386 113.484L375.27 115.623L377.386 117.762L375.27 119.902L377.386 122.041L379.502 119.902L381.618 122.041L383.735 119.902Z" fill="#BAD7E9"/>
<path d="M182.293 15.8227L180.176 13.6836L182.293 11.5446L180.176 9.41016L178.06 11.5446L175.948 9.41016L173.832 11.5446L175.948 13.6836L173.832 15.8227L175.948 17.9618L178.06 15.8227L180.176 17.9618L182.293 15.8227Z" fill="#BAD7E9"/>
<path d="M131.933 67.6899L129.817 65.5555L131.933 63.4164L129.817 61.2773L127.705 63.4164L125.589 61.2773L123.473 63.4164L125.589 65.5555L123.473 67.6899L125.589 69.8289L127.705 67.6899L129.817 69.8289L131.933 67.6899Z" fill="white"/>
<path d="M383.735 15.8227L381.618 13.6836L383.735 11.5446L381.618 9.41016L379.502 11.5446L377.386 9.41016L375.27 11.5446L377.386 13.6836L375.27 15.8227L377.386 17.9618L379.502 15.8227L381.618 17.9618L383.735 15.8227Z" fill="#BAD7E9"/>
<path d="M238.523 6.875H218.327C217.094 6.875 216.082 7.8936 216.082 9.1437V18.2185C216.082 19.464 217.09 20.4872 218.327 20.4872H238.523C239.755 20.4872 240.767 19.4686 240.767 18.2185V9.1437C240.767 7.8936 239.755 6.875 238.523 6.875ZM227.3 14.8108H223.933V18.2139H221.689V14.8108H218.322V12.5421H221.689V9.13907H223.933V12.5421H227.3V14.8108ZM232.353 17.0795C231.423 17.0795 230.672 16.3202 230.672 15.3803C230.672 14.4404 231.423 13.6811 232.353 13.6811C233.283 13.6811 234.034 14.4404 234.034 15.3803C234.034 16.3202 233.283 17.0795 232.353 17.0795ZM236.837 13.6765C235.907 13.6765 235.156 12.9171 235.156 11.9773C235.156 11.0374 235.907 10.278 236.837 10.278C237.767 10.278 238.518 11.0374 238.518 11.9773C238.523 12.9171 237.772 13.6765 236.837 13.6765Z" fill="#0B90CF"/>
<path d="M329.13 25.1297L327.339 23.4814C320.981 17.6569 316.785 13.814 316.785 9.09603C316.785 5.25313 319.772 2.23438 323.574 2.23438C325.722 2.23438 327.783 3.24371 329.13 4.84106C330.477 3.24371 332.538 2.23438 334.687 2.23438C338.489 2.23438 341.475 5.25313 341.475 9.09603C341.475 13.814 337.279 17.6523 330.921 23.4907L329.13 25.1297Z" fill="#BAD7E9"/>
<path d="M424.323 15.6749C423.65 15.0036 423.274 14.0822 423.279 13.1284V8.05859H419.903C418.584 8.05859 417.516 9.13738 417.512 10.4708V17.6705C417.512 19.0039 418.584 20.0873 419.903 20.0873H420.892V24.7821L424.91 20.0827H431.597C432.917 20.0827 433.984 19.0039 433.989 17.6705V16.7213H426.829C425.89 16.7213 424.992 16.3463 424.323 15.6749Z" fill="#0B90CF"/>
<path d="M439.832 15.5182C441.138 15.5229 442.196 14.4533 442.196 13.1384V4.97111C442.196 3.65156 441.143 2.58203 439.837 2.58203H439.832H426.832C425.527 2.58203 424.469 3.65156 424.469 4.97111V13.1384C424.469 14.4533 425.522 15.5182 426.823 15.5182C426.828 15.5182 426.832 15.5182 426.837 15.5182H434.244L435.265 16.7174L438.568 20.5788V15.5182H439.832Z" fill="#0B90CF"/>
<path d="M21.4482 119.765C20.7749 119.093 20.3992 118.172 20.4038 117.218V112.148H17.0278C15.7086 112.148 14.6413 113.227 14.6367 114.561V121.76C14.6367 123.094 15.7086 124.177 17.0278 124.177H18.0173V128.872L22.0346 124.173H28.7224C30.0416 124.173 31.1089 123.094 31.1135 121.76V120.811H23.9539C23.0148 120.811 22.117 120.431 21.4482 119.765Z" fill="#0B90CF"/>
<path d="M36.9574 119.608C38.2629 119.613 39.3211 118.543 39.3211 117.228V109.061C39.3211 107.741 38.2675 106.672 36.962 106.672H36.9574H23.9574C22.6519 106.672 21.5938 107.741 21.5938 109.061V117.228C21.5938 118.543 22.6473 119.608 23.9482 119.608C23.9528 119.608 23.9574 119.608 23.962 119.608H31.369L32.3905 120.807L35.6932 124.669V119.613H36.9574V119.608Z" fill="#0B90CF"/>
<path d="M71.6925 67.5877C71.0054 66.8978 70.6206 65.9626 70.6252 64.9857V59.8047H67.1759C65.8292 59.8047 64.7344 60.9066 64.7344 62.2678V69.6249C64.7344 70.9861 65.8292 72.0927 67.1759 72.0927H68.1836V76.8894L72.288 72.0881H79.1224C80.4691 72.0881 81.5593 70.9861 81.5639 69.6249V68.6572H74.2485C73.2911 68.6526 72.3704 68.2683 71.6925 67.5877Z" fill="#0B90CF"/>
<path d="M87.534 67.4257C88.867 67.4303 89.9481 66.3376 89.9481 64.9949V56.647C89.9481 55.2997 88.8716 54.207 87.5386 54.207H87.534H74.25C72.917 54.207 71.8359 55.2997 71.8359 56.647V64.9949C71.8359 66.3376 72.9124 67.4257 74.2408 67.4257C74.2454 67.4257 74.25 67.4257 74.2545 67.4257H81.8219L82.8663 68.6526L86.2423 72.5974V67.4303H87.534V67.4257Z" fill="#0B90CF"/>
<path d="M165.715 77.4493L181.761 71.6572L171.445 61.2305L165.715 77.4493Z" fill="#BAD7E9"/>
<path d="M180.073 66.4826L186.482 60.0052C187.045 59.4357 187.948 59.4357 188.511 60.0052L189.189 60.6905L190.403 59.4635L189.725 58.7783C188.497 57.5374 186.491 57.5374 185.268 58.7783L178.859 65.2556L180.073 66.4826Z" fill="#BAD7E9"/>
<path d="M174.947 59.9359L174.27 60.6212L175.483 61.8481L176.161 61.1629C177.389 59.922 177.389 57.8941 176.161 56.6579L175.483 55.9727L174.27 57.2135L174.947 57.8987C175.502 58.4543 175.502 59.3803 174.947 59.9359Z" fill="#BAD7E9"/>
<path d="M182.972 65.7314L181.148 67.5741L182.362 68.8011L184.185 66.9584C184.749 66.3889 185.651 66.3889 186.215 66.9584L188.061 68.8243L189.275 67.5973L187.429 65.7314C186.192 64.4906 184.195 64.4906 182.972 65.7314Z" fill="#BAD7E9"/>
<path d="M180.68 58.777L176.566 62.9348L177.78 64.1617L181.894 60.004C183.121 58.7631 183.121 56.7352 181.894 55.499L180.071 53.6562L178.857 54.8832L180.68 56.7259C181.23 57.2954 181.23 58.2214 180.68 58.777Z" fill="#BAD7E9"/>
<path d="M340.788 116.033H339.025V111.283C339.025 109.977 337.967 108.907 336.675 108.907H331.975V107.125C331.975 105.486 330.66 104.152 329.034 104.152C327.413 104.152 326.093 105.481 326.093 107.125V108.907H321.394C320.102 108.907 319.053 109.977 319.053 111.283V115.797H320.803C322.552 115.797 323.977 117.237 323.977 119.005C323.977 120.774 322.552 122.214 320.803 122.214H319.039V126.728C319.039 128.034 320.097 129.103 321.389 129.103H325.855V127.321C325.855 125.552 327.28 124.112 329.03 124.112C330.779 124.112 332.204 125.552 332.204 127.321V129.103H336.67C337.962 129.103 339.02 128.034 339.02 126.728V121.978H340.784C342.405 121.978 343.724 120.649 343.724 119.005C343.724 117.362 342.41 116.033 340.788 116.033Z" fill="#BAD7E9"/>
<path d="M240.506 114.986L236.668 112.759V109.953C236.668 109.693 236.439 109.462 236.182 109.462H233.003V106.943C233.003 106.767 232.916 106.596 232.747 106.508L228.679 104.105C228.537 104.017 228.335 104.017 228.193 104.105L224.098 106.508C223.956 106.596 223.842 106.767 223.842 106.943V109.462H220.663C220.374 109.462 220.177 109.693 220.177 109.953V112.759L216.339 114.986C216.197 115.073 216.082 115.245 216.082 115.421V120.199C216.082 120.375 216.169 120.546 216.339 120.634L220.177 122.861V125.639C220.177 125.931 220.406 126.13 220.663 126.13H223.842V128.649C223.842 128.825 223.929 128.996 224.098 129.084L228.166 131.459C228.253 131.519 228.34 131.519 228.422 131.519C228.509 131.519 228.597 131.491 228.679 131.459L232.747 129.084C232.889 128.996 233.003 128.825 233.003 128.649V126.13H236.182C236.439 126.13 236.668 125.898 236.668 125.639V122.861L240.506 120.634C240.648 120.546 240.763 120.375 240.763 120.199V115.421C240.767 115.245 240.653 115.069 240.506 114.986ZM232.605 116.287L235.697 118.083V121.699L232.605 119.903V116.287ZM224.845 107.777L227.937 109.573V113.189L224.845 111.393V107.777ZM228.913 109.601L232.005 107.804V111.42L228.913 113.217V109.601ZM221.148 121.699V118.083L224.24 116.287V119.903L221.148 121.699ZM217.085 116.287L220.177 118.083V121.699L217.085 119.903V116.287ZM224.845 124.769L227.937 126.565V130.181L224.845 128.385V124.769ZM228.913 130.181V126.565L232.005 124.769V128.385L228.913 130.181ZM233.008 125.144V123.898C233.008 123.722 232.921 123.551 232.751 123.463L228.684 121.088C228.542 121 228.34 121 228.198 121.088L224.13 123.463C223.988 123.551 223.874 123.722 223.874 123.898V125.144H221.18V122.857L224.987 120.597C225.129 120.509 225.243 120.338 225.243 120.162V115.416C225.243 115.24 225.156 115.069 224.987 114.981L221.148 112.754V110.467H223.842V111.712C223.842 111.888 223.929 112.059 224.098 112.147L228.166 114.523C228.253 114.583 228.34 114.583 228.422 114.583C228.509 114.583 228.597 114.555 228.679 114.523L232.747 112.147C232.889 112.059 233.003 111.888 233.003 111.712V110.467H235.697V112.754L231.858 114.981C231.716 115.069 231.601 115.24 231.601 115.416V120.194C231.601 120.37 231.688 120.542 231.858 120.629L235.697 122.857V125.144H233.008ZM236.672 121.699V118.083L239.764 116.287V119.903L236.672 121.699Z" fill="#0B90CF"/>
<path d="M136.954 106.127H133.867C133.867 102.683 131.105 99.8906 127.697 99.8906C124.289 99.8906 121.526 102.683 121.526 106.127H118.439C116.744 106.127 115.352 107.53 115.352 109.248V127.962C115.352 129.675 116.74 131.083 118.439 131.083H136.954C138.649 131.083 140.042 129.68 140.042 127.962V109.248C140.042 107.535 138.654 106.127 136.954 106.127ZM124.614 112.368C124.614 113.225 123.917 113.929 123.07 113.929C122.223 113.929 121.526 113.225 121.526 112.368V109.248H124.614V112.368ZM127.701 103.011C129.396 103.011 130.789 104.414 130.789 106.132H124.618C124.614 104.414 126.002 103.011 127.701 103.011ZM133.871 112.368C133.871 113.225 133.175 113.929 132.328 113.929C131.48 113.929 130.784 113.225 130.784 112.368V109.248H133.871V112.368Z" fill="#BAD7E9"/>
<path d="M73.0224 177.384V181.014H88.2807C89.5221 181.014 90.5253 182.027 90.5253 183.282V190.514C90.5253 191.769 89.5221 192.783 88.2807 192.783H71.9963C69.3074 192.556 67.0675 190.727 66.2155 188.246C65.9681 187.542 65.8398 186.787 65.8398 186.005V181.009V177.379V172.365C65.8398 171.573 65.9727 170.809 66.2246 170.096C67.1453 167.457 69.6418 165.559 72.5689 165.559H88.2761C89.5175 165.559 90.5207 166.573 90.5207 167.827V175.115C90.5207 176.37 89.5175 177.384 88.2761 177.384H73.0224Z" fill="#BAD7E9"/>
<path d="M224.097 229.313V232.943H239.355C240.596 232.943 241.599 233.957 241.599 235.212V242.444C241.599 243.699 240.596 244.713 239.355 244.713H223.071C220.382 244.486 218.142 242.657 217.29 240.175C217.042 239.471 216.914 238.717 216.914 237.934V232.943V229.313V224.294C216.914 223.503 217.047 222.739 217.299 222.026C218.22 219.387 220.716 217.488 223.643 217.488H239.35C240.592 217.488 241.595 218.502 241.595 219.757V227.045C241.595 228.299 240.592 229.313 239.35 229.313H224.097Z" fill="#0B90CF"/>
<path d="M375.175 281.536V285.166H390.433C391.674 285.166 392.678 286.18 392.678 287.435V294.667C392.678 295.921 391.674 296.935 390.433 296.935H374.149C371.46 296.708 369.22 294.88 368.368 292.398C368.12 291.694 367.992 290.939 367.992 290.157V285.166V281.536V276.517C367.992 275.725 368.125 274.961 368.377 274.248C369.298 271.609 371.794 269.711 374.721 269.711H390.429C391.67 269.711 392.673 270.725 392.673 271.98V279.267C392.673 280.522 391.67 281.536 390.429 281.536H375.175Z" fill="#0B90CF"/>
<path d="M343.426 232.929V238.995C343.027 241.504 341.268 243.555 338.941 244.352C338.263 244.583 337.54 244.708 336.784 244.708H323.248C322.465 244.708 321.709 244.574 321.008 244.319C318.397 243.388 316.523 240.87 316.523 237.911V219.757C316.523 218.507 317.527 217.493 318.763 217.493C319.363 217.493 319.909 217.734 320.312 218.118L321.008 218.822L328.314 226.202C328.314 226.207 328.319 226.211 328.328 226.216C328.36 226.253 328.397 226.29 328.433 226.322C328.438 226.332 328.447 226.341 328.456 226.345C328.859 226.716 329.391 226.943 329.977 226.943C330.563 226.943 331.095 226.716 331.498 226.345C331.507 226.341 331.516 226.332 331.521 226.322C331.557 226.285 331.594 226.248 331.626 226.216C331.635 226.211 331.64 226.207 331.64 226.202L338.946 218.822L339.551 218.211C339.555 218.206 339.555 218.201 339.564 218.197C339.587 218.169 339.61 218.146 339.633 218.127C339.633 218.127 339.638 218.118 339.642 218.118C340.027 217.743 340.545 217.511 341.113 217.493C341.14 217.488 341.163 217.488 341.191 217.488C341.218 217.488 341.241 217.488 341.268 217.493C342.469 217.53 343.435 218.53 343.435 219.752V229.299V232.929H343.426Z" fill="#BAD7E9"/>
<path d="M32.3095 177.731H29.3183V174.703H26.3271V177.731H23.3359V180.755H26.3271V183.778H29.3183V180.755H32.3095V177.731Z" fill="#BAD7E9"/>
<path d="M435.188 281.813H432.197V278.785H429.206V281.813H426.215V284.837H429.206V287.86H432.197V284.837H435.188V281.813Z" fill="#BAD7E9"/>
<path d="M435.188 177.731H432.197V174.703H429.206V177.731H426.215V180.755H429.206V183.778H432.197V180.755H435.188V177.731Z" fill="#BAD7E9"/>
<path d="M384.83 229.602H381.834V226.578H378.843V229.602H375.852V232.625H378.843V235.648H381.834V232.625H384.83V229.602Z" fill="#BAD7E9"/>
<path d="M233.744 177.731H230.753V174.703H227.761V177.731H224.766V180.755H227.761V183.778H230.753V180.755H233.744V177.731Z" fill="#BAD7E9"/>
<path d="M233.744 281.813H230.753V278.785H227.761V281.813H224.766V284.837H227.761V287.86H230.753V284.837H233.744V281.813Z" fill="white"/>
<path d="M183.388 229.602H180.397V226.578H177.406V229.602H174.41V232.625H177.406V235.648H180.397V232.625H183.388V229.602Z" fill="#BAD7E9"/>
<path d="M32.3095 281.813H29.3183V278.785H26.3271V281.813H23.3359V284.837H26.3271V287.86H29.3183V284.837H32.3095V281.813Z" fill="#BAD7E9"/>
<path d="M283.848 233.248L281.732 231.114L283.848 228.975L281.732 226.836L279.615 228.975L277.499 226.836L275.383 228.975L277.499 231.114L275.383 233.248L277.499 235.388L279.615 233.248L281.732 235.388L283.848 233.248Z" fill="#BAD7E9"/>
<path d="M132.773 285.46L130.657 283.321L132.773 281.182L130.657 279.043L128.54 281.182L126.429 279.043L124.312 281.182L126.429 283.321L124.312 285.46L126.429 287.599L128.54 285.46L130.657 287.599L132.773 285.46Z" fill="#BAD7E9"/>
<path d="M334.215 285.46L332.099 283.321L334.215 281.182L332.099 279.043L329.983 281.182L327.866 279.043L325.75 281.182L327.866 283.321L325.75 285.46L327.866 287.599L329.983 285.46L332.099 287.599L334.215 285.46Z" fill="#BAD7E9"/>
<path d="M132.773 181.381L130.657 179.242L132.773 177.103L130.657 174.969L128.54 177.103L126.429 174.969L124.312 177.103L126.429 179.242L124.312 181.381L126.429 183.52L128.54 181.381L130.657 183.52L132.773 181.381Z" fill="#BAD7E9"/>
<path d="M82.4137 233.248L80.2974 231.114L82.4137 228.975L80.2974 226.836L78.1857 228.975L76.0694 226.836L73.9531 228.975L76.0694 231.114L73.9531 233.248L76.0694 235.388L78.1857 233.248L80.2974 235.388L82.4137 233.248Z" fill="white"/>
<path d="M334.215 181.381L332.099 179.242L334.215 177.103L332.099 174.969L329.983 177.103L327.866 174.969L325.75 177.103L327.866 179.242L325.75 181.381L327.866 183.52L329.983 181.381L332.099 183.52L334.215 181.381Z" fill="#BAD7E9"/>
<path d="M189.003 172.434H168.807C167.575 172.434 166.562 173.452 166.562 174.702V183.777C166.562 185.023 167.57 186.046 168.807 186.046H189.003C190.236 186.046 191.248 185.027 191.248 183.777V174.702C191.248 173.452 190.236 172.434 189.003 172.434ZM177.781 180.369H174.414V183.772H172.169V180.369H168.802V178.101H172.169V174.698H174.414V178.101H177.781V180.369ZM182.833 182.638C181.903 182.638 181.152 181.879 181.152 180.939C181.152 179.999 181.903 179.24 182.833 179.24C183.763 179.24 184.514 179.999 184.514 180.939C184.514 181.879 183.763 182.638 182.833 182.638ZM187.318 179.235C186.388 179.235 185.637 178.476 185.637 177.536C185.637 176.596 186.388 175.837 187.318 175.837C188.248 175.837 188.999 176.596 188.999 177.536C189.003 178.476 188.252 179.235 187.318 179.235Z" fill="#0B90CF"/>
<path d="M279.611 190.688L277.82 189.04C271.462 183.215 267.266 179.373 267.266 174.655C267.266 170.812 270.252 167.793 274.054 167.793C276.203 167.793 278.264 168.802 279.611 170.4C280.957 168.802 283.019 167.793 285.167 167.793C288.969 167.793 291.956 170.812 291.956 174.655C291.956 179.373 287.76 183.211 281.402 189.049L279.611 190.688Z" fill="#BAD7E9"/>
<path d="M374.804 181.234C374.13 180.562 373.755 179.641 373.759 178.687V173.617H370.383C369.064 173.617 367.997 174.696 367.992 176.029V183.229C367.992 184.562 369.064 185.646 370.383 185.646H371.373V190.341L375.39 185.641H382.078C383.397 185.641 384.464 184.562 384.469 183.229V182.28H377.309C376.37 182.28 375.472 181.905 374.804 181.234Z" fill="#0B90CF"/>
<path d="M390.313 181.077C391.618 181.081 392.677 180.012 392.677 178.697V170.53C392.677 169.21 391.623 168.141 390.317 168.141H390.313H377.313C376.007 168.141 374.949 169.21 374.949 170.53V178.697C374.949 180.012 376.003 181.077 377.304 181.077C377.308 181.077 377.313 181.077 377.317 181.077H384.724L385.746 182.276L389.049 186.137V181.077H390.313Z" fill="#0B90CF"/>
<path d="M22.1729 233.146C21.4858 232.456 21.1011 231.521 21.1056 230.544V225.363H17.6564C16.3096 225.363 15.2148 226.465 15.2148 227.826V235.184C15.2148 236.545 16.3096 237.651 17.6564 237.651H18.6641V242.448L22.7684 237.647H29.6028C30.9496 237.647 32.0398 236.545 32.0444 235.184V234.216H24.729C23.7716 234.211 22.8509 233.827 22.1729 233.146Z" fill="#0B90CF"/>
<path d="M38.0145 232.984C39.3475 232.989 40.4285 231.896 40.4285 230.554V222.206C40.4285 220.858 39.3521 219.766 38.0191 219.766H38.0145H24.7304C23.3975 219.766 22.3164 220.858 22.3164 222.206V230.554C22.3164 231.896 23.3929 232.984 24.7213 232.984C24.7259 232.984 24.7304 232.984 24.735 232.984H32.3023L33.3467 234.211L36.7227 238.156V232.989H38.0145V232.984Z" fill="#0B90CF"/>
<path d="M116.195 243.008L132.242 237.216L121.926 226.789L116.195 243.008Z" fill="#BAD7E9"/>
<path d="M130.554 232.041L136.962 225.564C137.526 224.994 138.428 224.994 138.991 225.564L139.669 226.249L140.883 225.022L140.205 224.337C138.978 223.096 136.971 223.096 135.748 224.337L129.34 230.814L130.554 232.041Z" fill="#BAD7E9"/>
<path d="M125.428 225.495L124.75 226.18L125.964 227.407L126.642 226.721C127.869 225.481 127.869 223.453 126.642 222.216L125.964 221.531L124.75 222.772L125.428 223.457C125.982 224.013 125.982 224.939 125.428 225.495Z" fill="#BAD7E9"/>
<path d="M133.452 231.29L131.629 233.133L132.843 234.36L134.666 232.517C135.229 231.947 136.132 231.947 136.695 232.517L138.541 234.383L139.755 233.156L137.909 231.29C136.672 230.049 134.675 230.049 133.452 231.29Z" fill="#BAD7E9"/>
<path d="M131.16 224.336L127.047 228.493L128.261 229.72L132.374 225.563C133.602 224.322 133.602 222.294 132.374 221.058L130.551 219.215L129.337 220.442L131.16 222.285C131.71 222.854 131.71 223.78 131.16 224.336Z" fill="#BAD7E9"/>
<path d="M430.159 233.921C432.028 233.921 433.544 232.389 433.544 230.5C433.544 228.61 432.028 227.078 430.159 227.078C428.289 227.078 426.773 228.61 426.773 230.5C426.773 232.389 428.289 233.921 430.159 233.921Z" fill="#0B90CF"/>
<path d="M426.033 232.039L421.777 234.326C421.415 233.961 420.916 233.738 420.362 233.738C419.253 233.738 418.355 234.646 418.355 235.766C418.355 236.887 419.253 237.794 420.362 237.794C421.47 237.794 422.368 236.887 422.368 235.766C422.368 235.637 422.354 235.512 422.331 235.387L426.587 233.099C426.358 232.775 426.17 232.419 426.033 232.039Z" fill="#0B90CF"/>
<path d="M427.625 226.867L425.637 224.705C425.806 224.409 425.907 224.062 425.907 223.696C425.907 222.575 425.009 221.668 423.901 221.668C422.792 221.668 421.895 222.575 421.895 223.696C421.895 224.816 422.792 225.724 423.901 225.724C424.212 225.724 424.506 225.65 424.771 225.52L426.759 227.682C427.007 227.372 427.3 227.099 427.625 226.867Z" fill="#0B90CF"/>
<path d="M291.269 281.591H289.505V276.841C289.505 275.535 288.447 274.466 287.155 274.466H282.455V272.683C282.455 271.044 281.141 269.711 279.515 269.711C277.893 269.711 276.574 271.04 276.574 272.683V274.466H271.874C270.582 274.466 269.533 275.535 269.533 276.841V281.355H271.283C273.033 281.355 274.458 282.795 274.458 284.564C274.458 286.333 273.033 287.773 271.283 287.773H269.52V292.287C269.52 293.592 270.578 294.662 271.869 294.662H276.336V292.879C276.336 291.111 277.76 289.671 279.51 289.671C281.26 289.671 282.684 291.111 282.684 292.879V294.662H287.151C288.442 294.662 289.501 293.592 289.501 292.287V287.536H291.264C292.886 287.536 294.205 286.208 294.205 284.564C294.205 282.92 292.89 281.591 291.269 281.591Z" fill="#BAD7E9"/>
<path d="M190.987 280.544L187.148 278.317V275.511C187.148 275.252 186.919 275.021 186.663 275.021H183.484V272.502C183.484 272.326 183.397 272.155 183.227 272.067L179.159 269.664C179.017 269.576 178.816 269.576 178.674 269.664L174.579 272.067C174.437 272.155 174.322 272.326 174.322 272.502V275.021H171.143C170.855 275.021 170.658 275.252 170.658 275.511V278.317L166.819 280.544C166.677 280.632 166.562 280.803 166.562 280.979V285.757C166.562 285.933 166.65 286.105 166.819 286.193L170.658 288.42V291.198C170.658 291.489 170.887 291.689 171.143 291.689H174.322V294.207C174.322 294.383 174.409 294.554 174.579 294.642L178.646 297.018C178.733 297.078 178.82 297.078 178.903 297.078C178.99 297.078 179.077 297.05 179.159 297.018L183.227 294.642C183.369 294.554 183.484 294.383 183.484 294.207V291.689H186.663C186.919 291.689 187.148 291.457 187.148 291.198V288.42L190.987 286.193C191.129 286.105 191.243 285.933 191.243 285.757V280.979C191.248 280.803 191.133 280.627 190.987 280.544ZM183.085 281.845L186.177 283.642V287.258L183.085 285.461V281.845ZM175.325 273.335L178.417 275.132V278.748L175.325 276.951V273.335ZM179.393 275.159L182.485 273.363V276.979L179.393 278.775V275.159ZM171.629 287.258V283.642L174.721 281.845V285.461L171.629 287.258ZM167.566 281.845L170.658 283.642V287.258L167.566 285.461V281.845ZM175.325 290.327L178.417 292.124V295.74L175.325 293.943V290.327ZM179.393 295.74V292.124L182.485 290.327V293.943L179.393 295.74ZM183.488 290.702V289.457C183.488 289.281 183.401 289.11 183.232 289.022L179.164 286.646C179.022 286.558 178.82 286.558 178.678 286.646L174.611 289.022C174.469 289.11 174.354 289.281 174.354 289.457V290.702H171.661V288.415L175.467 286.156C175.609 286.068 175.724 285.896 175.724 285.72V280.975C175.724 280.799 175.637 280.627 175.467 280.539L171.629 278.312V276.025H174.322V277.271C174.322 277.447 174.409 277.618 174.579 277.706L178.646 280.081C178.733 280.141 178.82 280.141 178.903 280.141C178.99 280.141 179.077 280.114 179.159 280.081L183.227 277.706C183.369 277.618 183.484 277.447 183.484 277.271V276.025H186.177V278.312L182.338 280.539C182.196 280.627 182.082 280.799 182.082 280.975V285.753C182.082 285.929 182.169 286.1 182.338 286.188L186.177 288.415V290.702H183.488ZM187.153 287.258V283.642L190.245 281.845V285.461L187.153 287.258Z" fill="#0B90CF"/>
<path d="M87.4346 271.686H84.3473C84.3473 268.241 81.5851 265.449 78.177 265.449C74.769 265.449 72.0068 268.241 72.0068 271.686H68.9194C67.2246 271.686 65.832 273.089 65.832 274.806V293.521C65.832 295.234 67.22 296.641 68.9194 296.641H87.4346C89.1295 296.641 90.522 295.239 90.522 293.521V274.806C90.522 273.093 89.1341 271.686 87.4346 271.686ZM75.0942 277.927C75.0942 278.784 74.398 279.487 73.5505 279.487C72.7031 279.487 72.0068 278.784 72.0068 277.927V274.806H75.0942V277.927ZM78.1816 268.57C79.8765 268.57 81.269 269.973 81.269 271.69H75.0988C75.0942 269.973 76.4822 268.57 78.1816 268.57ZM84.3518 277.927C84.3518 278.784 83.6556 279.487 82.8081 279.487C81.9607 279.487 81.2644 278.784 81.2644 277.927V274.806H84.3518V277.927Z" fill="#BAD7E9"/>
<path d="M122.542 328.548V332.178H137.8C139.042 332.178 140.045 333.192 140.045 334.446V341.678C140.045 342.933 139.042 343.947 137.8 343.947H121.516C118.827 343.72 116.587 341.891 115.735 339.41C115.488 338.706 115.359 337.951 115.359 337.169V332.173V328.543V323.529C115.359 322.737 115.492 321.973 115.744 321.26C116.665 318.621 119.161 316.723 122.088 316.723H137.796C139.037 316.723 140.04 317.737 140.04 318.991V326.279C140.04 327.534 139.037 328.548 137.796 328.548H122.542Z" fill="#BAD7E9"/>
<path d="M273.616 380.477V384.107H288.874C290.116 384.107 291.119 385.121 291.119 386.376V393.608C291.119 394.863 290.116 395.877 288.874 395.877H272.59C269.901 395.65 267.661 393.821 266.809 391.339C266.562 390.636 266.434 389.881 266.434 389.098V384.107V380.477V375.458C266.434 374.667 266.566 373.903 266.818 373.19C267.739 370.551 270.236 368.652 273.163 368.652H288.87C290.111 368.652 291.114 369.666 291.114 370.921V378.209C291.114 379.463 290.111 380.477 288.87 380.477H273.616Z" fill="#0B90CF"/>
<path d="M424.694 432.7V436.33H439.953C441.194 436.33 442.197 437.344 442.197 438.599V445.831C442.197 447.085 441.194 448.099 439.953 448.099H423.668C420.979 447.872 418.739 446.044 417.887 443.562C417.64 442.858 417.512 442.104 417.512 441.321V436.33V432.7V427.681C417.512 426.889 417.645 426.125 417.897 425.412C418.817 422.773 421.314 420.875 424.241 420.875H439.948C441.189 420.875 442.193 421.889 442.193 423.144V430.431C442.193 431.686 441.189 432.7 439.948 432.7H424.694Z" fill="#0B90CF"/>
<path d="M40.4331 332.194V338.26C40.0345 340.769 38.2755 342.82 35.9486 343.616C35.2706 343.848 34.5469 343.973 33.791 343.973H20.2596C19.4763 343.973 18.7205 343.839 18.0197 343.584C15.4087 342.653 13.5352 340.135 13.5352 337.176V319.027C13.5352 317.776 14.5383 316.762 15.7751 316.762C16.3752 316.762 16.9203 317.003 17.3234 317.387L18.0197 318.091L25.3259 325.471C25.3259 325.476 25.3305 325.481 25.3396 325.485C25.3717 325.522 25.4083 325.559 25.445 325.592C25.4496 325.601 25.4587 325.61 25.4679 325.615C25.871 325.985 26.4024 326.212 26.9887 326.212C27.575 326.212 28.1064 325.985 28.5095 325.615C28.5186 325.61 28.5278 325.601 28.5324 325.592C28.569 325.555 28.6057 325.518 28.6377 325.485C28.6469 325.481 28.6515 325.476 28.6515 325.471L35.9577 318.091L36.5624 317.48C36.5669 317.475 36.5669 317.471 36.5761 317.466C36.599 317.438 36.6219 317.415 36.6448 317.397C36.6448 317.397 36.6494 317.387 36.654 317.387C37.0388 317.012 37.5564 316.781 38.1244 316.762C38.1519 316.758 38.1748 316.758 38.2023 316.758C38.2297 316.758 38.2526 316.758 38.2801 316.762C39.4803 316.799 40.4468 317.8 40.4468 319.022V328.569V332.194H40.4331Z" fill="#0B90CF"/>
<path d="M392.945 384.093V390.159C392.547 392.668 390.788 394.719 388.461 395.516C387.783 395.747 387.059 395.872 386.303 395.872H372.767C371.984 395.872 371.228 395.738 370.527 395.483C367.916 394.553 366.043 392.034 366.043 389.075V370.921C366.043 369.671 367.046 368.657 368.283 368.657C368.883 368.657 369.428 368.898 369.831 369.282L370.527 369.986L377.834 377.366C377.834 377.371 377.838 377.375 377.847 377.38C377.88 377.417 377.916 377.454 377.953 377.486C377.957 377.496 377.967 377.505 377.976 377.51C378.379 377.88 378.91 378.107 379.497 378.107C380.083 378.107 380.614 377.88 381.017 377.51C381.026 377.505 381.036 377.496 381.04 377.486C381.077 377.449 381.114 377.412 381.146 377.38C381.155 377.375 381.159 377.371 381.159 377.366L388.466 369.986L389.07 369.375C389.075 369.37 389.075 369.365 389.084 369.361C389.107 369.333 389.13 369.31 389.153 369.291C389.153 369.291 389.157 369.282 389.162 369.282C389.547 368.907 390.064 368.675 390.632 368.657C390.66 368.652 390.683 368.652 390.71 368.652C390.738 368.652 390.76 368.652 390.788 368.657C391.988 368.694 392.955 369.694 392.955 370.916V380.463V384.093H392.945Z" fill="#BAD7E9"/>
<path d="M81.8291 328.895H78.8379V325.867H75.8467V328.895H72.8555V331.919H75.8467V334.942H78.8379V331.919H81.8291V328.895Z" fill="#BAD7E9"/>
<path d="M434.349 380.766H431.353V377.742H428.362V380.766H425.371V383.789H428.362V386.812H431.353V383.789H434.349V380.766Z" fill="#BAD7E9"/>
<path d="M283.263 328.895H280.272V325.867H277.281V328.895H274.285V331.919H277.281V334.942H280.272V331.919H283.263V328.895Z" fill="#BAD7E9"/>
<path d="M283.263 432.977H280.272V429.949H277.281V432.977H274.285V436.001H277.281V439.024H280.272V436.001H283.263V432.977Z" fill="white"/>
<path d="M232.908 380.766H229.917V377.742H226.925V380.766H223.93V383.789H226.925V386.812H229.917V383.789H232.908V380.766Z" fill="#BAD7E9"/>
<path d="M81.8291 432.977H78.8379V429.949H75.8467V432.977H72.8555V436.001H75.8467V439.024H78.8379V436.001H81.8291V432.977Z" fill="#BAD7E9"/>
<path d="M31.4743 380.766H28.4785V377.742H25.4873V380.766H22.4961V383.789H25.4873V386.812H28.4785V383.789H31.4743V380.766Z" fill="#BAD7E9"/>
<path d="M333.367 384.413L331.251 382.278L333.367 380.139L331.251 378L329.135 380.139L327.019 378L324.902 380.139L327.019 382.278L324.902 384.413L327.019 386.552L329.135 384.413L331.251 386.552L333.367 384.413Z" fill="#BAD7E9"/>
<path d="M182.293 436.624L180.176 434.485L182.293 432.346L180.176 430.207L178.06 432.346L175.948 430.207L173.832 432.346L175.948 434.485L173.832 436.624L175.948 438.763L178.06 436.624L180.176 438.763L182.293 436.624Z" fill="#BAD7E9"/>
<path d="M383.735 436.624L381.618 434.485L383.735 432.346L381.618 430.207L379.502 432.346L377.386 430.207L375.27 432.346L377.386 434.485L375.27 436.624L377.386 438.763L379.502 436.624L381.618 438.763L383.735 436.624Z" fill="#BAD7E9"/>
<path d="M182.293 332.545L180.176 330.406L182.293 328.267L180.176 326.133L178.06 328.267L175.948 326.133L173.832 328.267L175.948 330.406L173.832 332.545L175.948 334.684L178.06 332.545L180.176 334.684L182.293 332.545Z" fill="#BAD7E9"/>
<path d="M131.933 384.413L129.817 382.278L131.933 380.139L129.817 378L127.705 380.139L125.589 378L123.473 380.139L125.589 382.278L123.473 384.413L125.589 386.552L127.705 384.413L129.817 386.552L131.933 384.413Z" fill="white"/>
<path d="M383.735 332.545L381.618 330.406L383.735 328.267L381.618 326.133L379.502 328.267L377.386 326.133L375.27 328.267L377.386 330.406L375.27 332.545L377.386 334.684L379.502 332.545L381.618 334.684L383.735 332.545Z" fill="#BAD7E9"/>
<path d="M238.523 323.598H218.327C217.094 323.598 216.082 324.616 216.082 325.866V334.941C216.082 336.187 217.09 337.21 218.327 337.21H238.523C239.755 337.21 240.767 336.191 240.767 334.941V325.866C240.767 324.616 239.755 323.598 238.523 323.598ZM227.3 331.533H223.933V334.937H221.689V331.533H218.322V329.265H221.689V325.862H223.933V329.265H227.3V331.533ZM232.353 333.802C231.423 333.802 230.672 333.043 230.672 332.103C230.672 331.163 231.423 330.404 232.353 330.404C233.283 330.404 234.034 331.163 234.034 332.103C234.034 333.043 233.283 333.802 232.353 333.802ZM236.837 330.399C235.907 330.399 235.156 329.64 235.156 328.7C235.156 327.76 235.907 327.001 236.837 327.001C237.767 327.001 238.518 327.76 238.518 328.7C238.523 329.64 237.772 330.399 236.837 330.399Z" fill="#0B90CF"/>
<path d="M329.13 341.852L327.339 340.204C320.981 334.38 316.785 330.537 316.785 325.819C316.785 321.976 319.772 318.957 323.574 318.957C325.722 318.957 327.783 319.966 329.13 321.564C330.477 319.966 332.538 318.957 334.687 318.957C338.489 318.957 341.475 321.976 341.475 325.819C341.475 330.537 337.279 334.375 330.921 340.213L329.13 341.852Z" fill="#BAD7E9"/>
<path d="M424.323 332.398C423.65 331.726 423.274 330.805 423.279 329.851V324.781H419.903C418.584 324.781 417.516 325.86 417.512 327.193V334.393C417.512 335.727 418.584 336.81 419.903 336.81H420.892V341.505L424.91 336.805H431.597C432.917 336.805 433.984 335.727 433.989 334.393V333.444H426.829C425.89 333.444 424.992 333.069 424.323 332.398Z" fill="#0B90CF"/>
<path d="M439.832 332.241C441.138 332.246 442.196 331.176 442.196 329.861V321.694C442.196 320.374 441.143 319.305 439.837 319.305H439.832H426.832C425.527 319.305 424.469 320.374 424.469 321.694V329.861C424.469 331.176 425.522 332.241 426.823 332.241C426.828 332.241 426.832 332.241 426.837 332.241H434.244L435.265 333.44L438.568 337.301V332.241H439.832Z" fill="#0B90CF"/>
<path d="M21.4482 436.487C20.7749 435.816 20.3992 434.895 20.4038 433.941V428.871H17.0278C15.7086 428.871 14.6413 429.95 14.6367 431.283V438.483C14.6367 439.816 15.7086 440.9 17.0278 440.9H18.0173V445.595L22.0346 440.895H28.7224C30.0416 440.895 31.1089 439.816 31.1135 438.483V437.534H23.9539C23.0148 437.534 22.117 437.154 21.4482 436.487Z" fill="#0B90CF"/>
<path d="M36.9574 436.331C38.2629 436.335 39.3211 435.266 39.3211 433.951V425.784C39.3211 424.464 38.2675 423.395 36.962 423.395H36.9574H23.9574C22.6519 423.395 21.5938 424.464 21.5938 425.784V433.951C21.5938 435.266 22.6473 436.331 23.9482 436.331C23.9528 436.331 23.9574 436.331 23.962 436.331H31.369L32.3905 437.53L35.6932 441.391V436.335H36.9574V436.331Z" fill="#0B90CF"/>
<path d="M71.6925 384.31C71.0054 383.62 70.6206 382.685 70.6252 381.708V376.527H67.1759C65.8292 376.527 64.7344 377.629 64.7344 378.99V386.348C64.7344 387.709 65.8292 388.815 67.1759 388.815H68.1836V393.612L72.288 388.811H79.1224C80.4691 388.811 81.5593 387.709 81.5639 386.348V385.38H74.2485C73.2911 385.375 72.3704 384.991 71.6925 384.31Z" fill="#0B90CF"/>
<path d="M87.534 384.148C88.867 384.153 89.9481 383.06 89.9481 381.718V373.37C89.9481 372.022 88.8716 370.93 87.5386 370.93H87.534H74.25C72.917 370.93 71.8359 372.022 71.8359 373.37V381.718C71.8359 383.06 72.9124 384.148 74.2408 384.148C74.2454 384.148 74.25 384.148 74.2545 384.148H81.8219L82.8663 385.375L86.2423 389.32V384.153H87.534V384.148Z" fill="#0B90CF"/>
<path d="M165.715 394.172L181.761 388.38L171.445 377.953L165.715 394.172Z" fill="#BAD7E9"/>
<path d="M180.073 383.205L186.482 376.728C187.045 376.158 187.948 376.158 188.511 376.728L189.189 377.413L190.403 376.186L189.725 375.501C188.497 374.26 186.491 374.26 185.268 375.501L178.859 381.978L180.073 383.205Z" fill="#BAD7E9"/>
<path d="M174.947 376.659L174.27 377.344L175.483 378.571L176.161 377.886C177.389 376.645 177.389 374.617 176.161 373.381L175.483 372.695L174.27 373.936L174.947 374.621C175.502 375.177 175.502 376.103 174.947 376.659Z" fill="#BAD7E9"/>
<path d="M182.972 382.454L181.148 384.297L182.362 385.524L184.185 383.681C184.749 383.112 185.651 383.112 186.215 383.681L188.061 385.547L189.275 384.32L187.429 382.454C186.192 381.213 184.195 381.213 182.972 382.454Z" fill="#BAD7E9"/>
<path d="M180.68 375.5L176.566 379.657L177.78 380.884L181.894 376.727C183.121 375.486 183.121 373.458 181.894 372.222L180.071 370.379L178.857 371.606L180.68 373.449C181.23 374.018 181.23 374.944 180.68 375.5Z" fill="#BAD7E9"/>
<path d="M340.788 432.756H339.025V428.005C339.025 426.7 337.967 425.63 336.675 425.63H331.975V423.847C331.975 422.208 330.66 420.875 329.034 420.875C327.413 420.875 326.093 422.204 326.093 423.847V425.63H321.394C320.102 425.63 319.053 426.7 319.053 428.005V432.519H320.803C322.552 432.519 323.977 433.959 323.977 435.728C323.977 437.497 322.552 438.937 320.803 438.937H319.039V443.451C319.039 444.757 320.097 445.826 321.389 445.826H325.855V444.043C325.855 442.275 327.28 440.835 329.03 440.835C330.779 440.835 332.204 442.275 332.204 444.043V445.826H336.67C337.962 445.826 339.02 444.757 339.02 443.451V438.7H340.784C342.405 438.7 343.724 437.372 343.724 435.728C343.724 434.084 342.41 432.756 340.788 432.756Z" fill="#BAD7E9"/>
<path d="M240.506 431.708L236.668 429.481V426.675C236.668 426.416 236.439 426.185 236.182 426.185H233.003V423.666C233.003 423.49 232.916 423.319 232.747 423.231L228.679 420.828C228.537 420.74 228.335 420.74 228.193 420.828L224.098 423.231C223.956 423.319 223.842 423.49 223.842 423.666V426.185H220.663C220.374 426.185 220.177 426.416 220.177 426.675V429.481L216.339 431.708C216.197 431.796 216.082 431.967 216.082 432.143V436.922C216.082 437.097 216.169 437.269 216.339 437.357L220.177 439.584V442.362C220.177 442.653 220.406 442.853 220.663 442.853H223.842V445.371C223.842 445.547 223.929 445.719 224.098 445.807L228.166 448.182C228.253 448.242 228.34 448.242 228.422 448.242C228.509 448.242 228.597 448.214 228.679 448.182L232.747 445.807C232.889 445.719 233.003 445.547 233.003 445.371V442.853H236.182C236.439 442.853 236.668 442.621 236.668 442.362V439.584L240.506 437.357C240.648 437.269 240.763 437.097 240.763 436.922V432.143C240.767 431.967 240.653 431.792 240.506 431.708ZM232.605 433.009L235.697 434.806V438.422L232.605 436.625V433.009ZM224.845 424.499L227.937 426.296V429.912L224.845 428.115V424.499ZM228.913 426.323L232.005 424.527V428.143L228.913 429.94V426.323ZM221.148 438.422V434.806L224.24 433.009V436.625L221.148 438.422ZM217.085 433.009L220.177 434.806V438.422L217.085 436.625V433.009ZM224.845 441.491L227.937 443.288V446.904L224.845 445.107V441.491ZM228.913 446.904V443.288L232.005 441.491V445.107L228.913 446.904ZM233.008 441.866V440.621C233.008 440.445 232.921 440.274 232.751 440.186L228.684 437.811C228.542 437.723 228.34 437.723 228.198 437.811L224.13 440.186C223.988 440.274 223.874 440.445 223.874 440.621V441.866H221.18V439.579L224.987 437.32C225.129 437.232 225.243 437.06 225.243 436.885V432.139C225.243 431.963 225.156 431.792 224.987 431.704L221.148 429.477V427.189H223.842V428.435C223.842 428.611 223.929 428.782 224.098 428.87L228.166 431.245C228.253 431.305 228.34 431.305 228.422 431.305C228.509 431.305 228.597 431.278 228.679 431.245L232.747 428.87C232.889 428.782 233.003 428.611 233.003 428.435V427.189H235.697V429.477L231.858 431.704C231.716 431.792 231.601 431.963 231.601 432.139V436.917C231.601 437.093 231.688 437.264 231.858 437.352L235.697 439.579V441.866H233.008ZM236.672 438.422V434.806L239.764 433.009V436.625L236.672 438.422Z" fill="#0B90CF"/>
<path d="M136.954 422.85H133.867C133.867 419.405 131.105 416.613 127.697 416.613C124.289 416.613 121.526 419.405 121.526 422.85H118.439C116.744 422.85 115.352 424.253 115.352 425.971V444.685C115.352 446.398 116.74 447.806 118.439 447.806H136.954C138.649 447.806 140.042 446.403 140.042 444.685V425.971C140.042 424.257 138.654 422.85 136.954 422.85ZM124.614 429.091C124.614 429.948 123.917 430.651 123.07 430.651C122.223 430.651 121.526 429.948 121.526 429.091V425.971H124.614V429.091ZM127.701 419.734C129.396 419.734 130.789 421.137 130.789 422.855H124.618C124.614 421.137 126.002 419.734 127.701 419.734ZM133.871 429.091C133.871 429.948 133.175 430.651 132.328 430.651C131.48 430.651 130.784 429.948 130.784 429.091V425.971H133.871V429.091Z" fill="#BAD7E9"/>
<path d="M73.0224 494.106V497.736H88.2807C89.5221 497.736 90.5253 498.75 90.5253 500.005V507.237C90.5253 508.492 89.5221 509.506 88.2807 509.506H71.9963C69.3074 509.279 67.0675 507.45 66.2155 504.968C65.9681 504.264 65.8398 503.51 65.8398 502.727V497.732V494.102V489.087C65.8398 488.296 65.9727 487.532 66.2246 486.819C67.1453 484.18 69.6418 482.281 72.5689 482.281H88.2761C89.5175 482.281 90.5207 483.295 90.5207 484.55V491.838C90.5207 493.092 89.5175 494.106 88.2761 494.106H73.0224Z" fill="#BAD7E9"/>
<path d="M224.097 546.036V549.666H239.355C240.596 549.666 241.599 550.68 241.599 551.935V559.167C241.599 560.421 240.596 561.435 239.355 561.435H223.071C220.382 561.208 218.142 559.38 217.29 556.898C217.042 556.194 216.914 555.439 216.914 554.657V549.666V546.036V541.017C216.914 540.225 217.047 539.461 217.299 538.748C218.22 536.109 220.716 534.211 223.643 534.211H239.35C240.592 534.211 241.595 535.225 241.595 536.48V543.767C241.595 545.022 240.592 546.036 239.35 546.036H224.097Z" fill="#0B90CF"/>
<path d="M375.175 598.259V601.889H390.433C391.674 601.889 392.678 602.902 392.678 604.157V611.389C392.678 612.644 391.674 613.658 390.433 613.658H374.149C371.46 613.431 369.22 611.602 368.368 609.121C368.12 608.417 367.992 607.662 367.992 606.88V601.889V598.259V593.24C367.992 592.448 368.125 591.684 368.377 590.971C369.298 588.332 371.794 586.434 374.721 586.434H390.429C391.67 586.434 392.673 587.448 392.673 588.702V595.99C392.673 597.245 391.67 598.259 390.429 598.259H375.175Z" fill="#0B90CF"/>
<path d="M343.426 549.652V555.717C343.027 558.227 341.268 560.278 338.941 561.074C338.263 561.306 337.54 561.431 336.784 561.431H323.248C322.465 561.431 321.709 561.296 321.008 561.042C318.397 560.111 316.523 557.592 316.523 554.634V536.48C316.523 535.23 317.527 534.216 318.763 534.216C319.363 534.216 319.909 534.456 320.312 534.841L321.008 535.544L328.314 542.925C328.314 542.929 328.319 542.934 328.328 542.938C328.36 542.976 328.397 543.013 328.433 543.045C328.438 543.054 328.447 543.063 328.456 543.068C328.859 543.439 329.391 543.665 329.977 543.665C330.563 543.665 331.095 543.439 331.498 543.068C331.507 543.063 331.516 543.054 331.521 543.045C331.557 543.008 331.594 542.971 331.626 542.938C331.635 542.934 331.64 542.929 331.64 542.925L338.946 535.544L339.551 534.933C339.555 534.929 339.555 534.924 339.564 534.919C339.587 534.892 339.61 534.868 339.633 534.85C339.633 534.85 339.638 534.841 339.642 534.841C340.027 534.466 340.545 534.234 341.113 534.216C341.14 534.211 341.163 534.211 341.191 534.211C341.218 534.211 341.241 534.211 341.268 534.216C342.469 534.253 343.435 535.253 343.435 536.475V546.022V549.652H343.426Z" fill="#BAD7E9"/>
<path d="M32.3095 494.454H29.3183V491.426H26.3271V494.454H23.3359V497.477H26.3271V500.501H29.3183V497.477H32.3095V494.454Z" fill="#BAD7E9"/>
<path d="M435.188 598.536H432.197V595.508H429.206V598.536H426.215V601.559H429.206V604.583H432.197V601.559H435.188V598.536Z" fill="#BAD7E9"/>
<path d="M435.188 494.454H432.197V491.426H429.206V494.454H426.215V497.477H429.206V500.501H432.197V497.477H435.188V494.454Z" fill="#BAD7E9"/>
<path d="M384.83 546.324H381.834V543.301H378.843V546.324H375.852V549.348H378.843V552.371H381.834V549.348H384.83V546.324Z" fill="#BAD7E9"/>
<path d="M233.744 494.454H230.753V491.426H227.761V494.454H224.766V497.477H227.761V500.501H230.753V497.477H233.744V494.454Z" fill="#BAD7E9"/>
<path d="M233.744 598.536H230.753V595.508H227.761V598.536H224.766V601.559H227.761V604.583H230.753V601.559H233.744V598.536Z" fill="white"/>
<path d="M183.388 546.324H180.397V543.301H177.406V546.324H174.41V549.348H177.406V552.371H180.397V549.348H183.388V546.324Z" fill="#BAD7E9"/>
<path d="M32.3095 598.536H29.3183V595.508H26.3271V598.536H23.3359V601.559H26.3271V604.583H29.3183V601.559H32.3095V598.536Z" fill="#BAD7E9"/>
<path d="M283.848 549.971L281.732 547.837L283.848 545.698L281.732 543.559L279.615 545.698L277.499 543.559L275.383 545.698L277.499 547.837L275.383 549.971L277.499 552.11L279.615 549.971L281.732 552.11L283.848 549.971Z" fill="#BAD7E9"/>
<path d="M132.773 602.183L130.657 600.044L132.773 597.905L130.657 595.766L128.54 597.905L126.429 595.766L124.312 597.905L126.429 600.044L124.312 602.183L126.429 604.322L128.54 602.183L130.657 604.322L132.773 602.183Z" fill="#BAD7E9"/>
<path d="M334.215 602.183L332.099 600.044L334.215 597.905L332.099 595.766L329.983 597.905L327.866 595.766L325.75 597.905L327.866 600.044L325.75 602.183L327.866 604.322L329.983 602.183L332.099 604.322L334.215 602.183Z" fill="#BAD7E9"/>
<path d="M132.773 498.104L130.657 495.965L132.773 493.826L130.657 491.691L128.54 493.826L126.429 491.691L124.312 493.826L126.429 495.965L124.312 498.104L126.429 500.243L128.54 498.104L130.657 500.243L132.773 498.104Z" fill="#BAD7E9"/>
<path d="M82.4137 549.971L80.2974 547.837L82.4137 545.698L80.2974 543.559L78.1857 545.698L76.0694 543.559L73.9531 545.698L76.0694 547.837L73.9531 549.971L76.0694 552.11L78.1857 549.971L80.2974 552.11L82.4137 549.971Z" fill="white"/>
<path d="M334.215 498.104L332.099 495.965L334.215 493.826L332.099 491.691L329.983 493.826L327.866 491.691L325.75 493.826L327.866 495.965L325.75 498.104L327.866 500.243L329.983 498.104L332.099 500.243L334.215 498.104Z" fill="#BAD7E9"/>
<path d="M189.003 489.156H168.807C167.575 489.156 166.562 490.175 166.562 491.425V500.5C166.562 501.745 167.57 502.768 168.807 502.768H189.003C190.236 502.768 191.248 501.75 191.248 500.5V491.425C191.248 490.175 190.236 489.156 189.003 489.156ZM177.781 497.092H174.414V500.495H172.169V497.092H168.802V494.823H172.169V491.42H174.414V494.823H177.781V497.092ZM182.833 499.361C181.903 499.361 181.152 498.601 181.152 497.662C181.152 496.722 181.903 495.962 182.833 495.962C183.763 495.962 184.514 496.722 184.514 497.662C184.514 498.601 183.763 499.361 182.833 499.361ZM187.318 495.958C186.388 495.958 185.637 495.198 185.637 494.259C185.637 493.319 186.388 492.559 187.318 492.559C188.248 492.559 188.999 493.319 188.999 494.259C189.003 495.198 188.252 495.958 187.318 495.958Z" fill="#0B90CF"/>
<path d="M279.611 507.411L277.82 505.763C271.462 499.938 267.266 496.095 267.266 491.377C267.266 487.534 270.252 484.516 274.054 484.516C276.203 484.516 278.264 485.525 279.611 487.122C280.957 485.525 283.019 484.516 285.167 484.516C288.969 484.516 291.956 487.534 291.956 491.377C291.956 496.095 287.76 499.934 281.402 505.772L279.611 507.411Z" fill="#BAD7E9"/>
<path d="M374.804 497.956C374.13 497.285 373.755 496.363 373.759 495.41V490.34H370.383C369.064 490.34 367.997 491.419 367.992 492.752V499.952C367.992 501.285 369.064 502.369 370.383 502.369H371.373V507.063L375.39 502.364H382.078C383.397 502.364 384.464 501.285 384.469 499.952V499.003H377.309C376.37 499.003 375.472 498.628 374.804 497.956Z" fill="#0B90CF"/>
<path d="M390.313 497.799C391.618 497.804 392.677 496.735 392.677 495.42V487.252C392.677 485.933 391.623 484.863 390.317 484.863H390.313H377.313C376.007 484.863 374.949 485.933 374.949 487.252V495.42C374.949 496.735 376.003 497.799 377.304 497.799C377.308 497.799 377.313 497.799 377.317 497.799H384.724L385.746 498.999L389.049 502.86V497.799H390.313Z" fill="#0B90CF"/>
<path d="M22.1729 549.869C21.4858 549.179 21.1011 548.244 21.1056 547.267V542.086H17.6564C16.3096 542.086 15.2148 543.188 15.2148 544.549V551.906C15.2148 553.267 16.3096 554.374 17.6564 554.374H18.6641V559.171L22.7684 554.369H29.6028C30.9496 554.369 32.0398 553.267 32.0444 551.906V550.938H24.729C23.7716 550.934 22.8509 550.55 22.1729 549.869Z" fill="#0B90CF"/>
<path d="M38.0145 549.707C39.3475 549.712 40.4285 548.619 40.4285 547.276V538.928C40.4285 537.581 39.3521 536.488 38.0191 536.488H38.0145H24.7304C23.3975 536.488 22.3164 537.581 22.3164 538.928V547.276C22.3164 548.619 23.3929 549.707 24.7213 549.707C24.7259 549.707 24.7304 549.707 24.735 549.707H32.3023L33.3467 550.934L36.7227 554.879V549.712H38.0145V549.707Z" fill="#0B90CF"/>
<path d="M116.195 559.731L132.242 553.938L121.926 543.512L116.195 559.731Z" fill="#BAD7E9"/>
<path d="M130.554 548.764L136.962 542.286C137.526 541.717 138.428 541.717 138.991 542.286L139.669 542.972L140.883 541.745L140.205 541.06C138.978 539.819 136.971 539.819 135.748 541.06L129.34 547.537L130.554 548.764Z" fill="#BAD7E9"/>
<path d="M125.428 542.217L124.75 542.902L125.964 544.129L126.642 543.444C127.869 542.203 127.869 540.175 126.642 538.939L125.964 538.254L124.75 539.495L125.428 540.18C125.982 540.736 125.982 541.662 125.428 542.217Z" fill="#BAD7E9"/>
<path d="M133.452 548.013L131.629 549.855L132.843 551.082L134.666 549.24C135.229 548.67 136.132 548.67 136.695 549.24L138.541 551.106L139.755 549.879L137.909 548.013C136.672 546.772 134.675 546.772 133.452 548.013Z" fill="#BAD7E9"/>
<path d="M131.16 541.058L127.047 545.216L128.261 546.443L132.374 542.285C133.602 541.044 133.602 539.016 132.374 537.78L130.551 535.938L129.337 537.164L131.16 539.007C131.71 539.577 131.71 540.503 131.16 541.058Z" fill="#BAD7E9"/>
<path d="M430.159 550.644C432.028 550.644 433.544 549.112 433.544 547.222C433.544 545.333 432.028 543.801 430.159 543.801C428.289 543.801 426.773 545.333 426.773 547.222C426.773 549.112 428.289 550.644 430.159 550.644Z" fill="#0B90CF"/>
<path d="M426.033 548.762L421.777 551.049C421.415 550.683 420.916 550.461 420.362 550.461C419.253 550.461 418.355 551.368 418.355 552.489C418.355 553.609 419.253 554.517 420.362 554.517C421.47 554.517 422.368 553.609 422.368 552.489C422.368 552.359 422.354 552.234 422.331 552.109L426.587 549.822C426.358 549.498 426.17 549.141 426.033 548.762Z" fill="#0B90CF"/>
<path d="M427.625 543.59L425.637 541.428C425.806 541.132 425.907 540.784 425.907 540.419C425.907 539.298 425.009 538.391 423.901 538.391C422.792 538.391 421.895 539.298 421.895 540.419C421.895 541.539 422.792 542.447 423.901 542.447C424.212 542.447 424.506 542.372 424.771 542.243L426.759 544.405C427.007 544.095 427.3 543.822 427.625 543.59Z" fill="#0B90CF"/>
<path d="M291.269 598.314H289.505V593.564C289.505 592.258 288.447 591.189 287.155 591.189H282.455V589.406C282.455 587.767 281.141 586.434 279.515 586.434C277.893 586.434 276.574 587.762 276.574 589.406V591.189H271.874C270.582 591.189 269.533 592.258 269.533 593.564V598.078H271.283C273.033 598.078 274.458 599.518 274.458 601.287C274.458 603.055 273.033 604.495 271.283 604.495H269.52V609.009C269.52 610.315 270.578 611.385 271.869 611.385H276.336V609.602C276.336 607.833 277.76 606.393 279.51 606.393C281.26 606.393 282.684 607.833 282.684 609.602V611.385H287.151C288.442 611.385 289.501 610.315 289.501 609.009V604.259H291.264C292.886 604.259 294.205 602.93 294.205 601.287C294.205 599.643 292.89 598.314 291.269 598.314Z" fill="#BAD7E9"/>
<path d="M190.987 597.267L187.148 595.04V592.234C187.148 591.975 186.919 591.743 186.663 591.743H183.484V589.224C183.484 589.049 183.397 588.877 183.227 588.789L179.159 586.386C179.017 586.298 178.816 586.298 178.674 586.386L174.579 588.789C174.437 588.877 174.322 589.049 174.322 589.224V591.743H171.143C170.855 591.743 170.658 591.975 170.658 592.234V595.04L166.819 597.267C166.677 597.355 166.562 597.526 166.562 597.702V602.48C166.562 602.656 166.65 602.827 166.819 602.915L170.658 605.142V607.92C170.658 608.212 170.887 608.411 171.143 608.411H174.322V610.93C174.322 611.106 174.409 611.277 174.579 611.365L178.646 613.74C178.733 613.8 178.82 613.8 178.903 613.8C178.99 613.8 179.077 613.773 179.159 613.74L183.227 611.365C183.369 611.277 183.484 611.106 183.484 610.93V608.411H186.663C186.919 608.411 187.148 608.18 187.148 607.92V605.142L190.987 602.915C191.129 602.827 191.243 602.656 191.243 602.48V597.702C191.248 597.526 191.133 597.35 190.987 597.267ZM183.085 598.568L186.177 600.364V603.98L183.085 602.184V598.568ZM175.325 590.058L178.417 591.854V595.47L175.325 593.674V590.058ZM179.393 591.882L182.485 590.086V593.702L179.393 595.498V591.882ZM171.629 603.98V600.364L174.721 598.568V602.184L171.629 603.98ZM167.566 598.568L170.658 600.364V603.98L167.566 602.184V598.568ZM175.325 607.05L178.417 608.846V612.462L175.325 610.666V607.05ZM179.393 612.462V608.846L182.485 607.05V610.666L179.393 612.462ZM183.488 607.425V606.18C183.488 606.004 183.401 605.832 183.232 605.744L179.164 603.369C179.022 603.281 178.82 603.281 178.678 603.369L174.611 605.744C174.469 605.832 174.354 606.004 174.354 606.18V607.425H171.661V605.138L175.467 602.878C175.609 602.79 175.724 602.619 175.724 602.443V597.697C175.724 597.521 175.637 597.35 175.467 597.262L171.629 595.035V592.748H174.322V593.993C174.322 594.169 174.409 594.341 174.579 594.429L178.646 596.804C178.733 596.864 178.82 596.864 178.903 596.864C178.99 596.864 179.077 596.836 179.159 596.804L183.227 594.429C183.369 594.341 183.484 594.169 183.484 593.993V592.748H186.177V595.035L182.338 597.262C182.196 597.35 182.082 597.521 182.082 597.697V602.476C182.082 602.651 182.169 602.823 182.338 602.911L186.177 605.138V607.425H183.488ZM187.153 603.98V600.364L190.245 598.568V602.184L187.153 603.98Z" fill="#0B90CF"/>
<path d="M87.4346 588.408H84.3473C84.3473 584.964 81.5851 582.172 78.177 582.172C74.769 582.172 72.0068 584.964 72.0068 588.408H68.9194C67.2246 588.408 65.832 589.811 65.832 591.529V610.244C65.832 611.957 67.22 613.364 68.9194 613.364H87.4346C89.1295 613.364 90.522 611.961 90.522 610.244V591.529C90.522 589.816 89.1341 588.408 87.4346 588.408ZM75.0942 594.65C75.0942 595.506 74.398 596.21 73.5505 596.21C72.7031 596.21 72.0068 595.506 72.0068 594.65V591.529H75.0942V594.65ZM78.1816 585.292C79.8765 585.292 81.269 586.695 81.269 588.413H75.0988C75.0942 586.695 76.4822 585.292 78.1816 585.292ZM84.3518 594.65C84.3518 595.506 83.6556 596.21 82.8081 596.21C81.9607 596.21 81.2644 595.506 81.2644 594.65V591.529H84.3518V594.65Z" fill="#BAD7E9"/>
<path d="M122.542 645.27V648.9H137.8C139.042 648.9 140.045 649.914 140.045 651.169V658.401C140.045 659.656 139.042 660.67 137.8 660.67H121.516C118.827 660.443 116.587 658.614 115.735 656.132C115.488 655.429 115.359 654.674 115.359 653.891V648.896V645.266V640.251C115.359 639.46 115.492 638.696 115.744 637.983C116.665 635.344 119.161 633.445 122.088 633.445H137.796C139.037 633.445 140.04 634.459 140.04 635.714V643.002C140.04 644.256 139.037 645.27 137.796 645.27H122.542Z" fill="#BAD7E9"/>
<path d="M273.616 697.2V700.83H288.874C290.116 700.83 291.119 701.844 291.119 703.099V710.331C291.119 711.585 290.116 712.599 288.874 712.599H272.59C269.901 712.372 267.661 710.544 266.809 708.062C266.562 707.358 266.434 706.604 266.434 705.821V700.83V697.2V692.181C266.434 691.389 266.566 690.625 266.818 689.912C267.739 687.273 270.236 685.375 273.163 685.375H288.87C290.111 685.375 291.114 686.389 291.114 687.644V694.931C291.114 696.186 290.111 697.2 288.87 697.2H273.616Z" fill="#0B90CF"/>
<path d="M424.694 749.423V753.053H439.953C441.194 753.053 442.197 754.067 442.197 755.321V762.553C442.197 763.808 441.194 764.822 439.953 764.822H423.668C420.979 764.595 418.739 762.766 417.887 760.285C417.64 759.581 417.512 758.826 417.512 758.044V753.053V749.423V744.404C417.512 743.612 417.645 742.848 417.897 742.135C418.817 739.496 421.314 737.598 424.241 737.598H439.948C441.189 737.598 442.193 738.612 442.193 739.866V747.154C442.193 748.409 441.189 749.423 439.948 749.423H424.694Z" fill="#0B90CF"/>
<path d="M40.4331 648.917V654.982C40.0345 657.492 38.2755 659.543 35.9486 660.339C35.2706 660.571 34.5469 660.696 33.791 660.696H20.2596C19.4763 660.696 18.7205 660.561 18.0197 660.307C15.4087 659.376 13.5352 656.857 13.5352 653.899V635.749C13.5352 634.499 14.5383 633.485 15.7751 633.485C16.3752 633.485 16.9203 633.726 17.3234 634.11L18.0197 634.814L25.3259 642.194C25.3259 642.199 25.3305 642.203 25.3396 642.208C25.3717 642.245 25.4083 642.282 25.445 642.314C25.4496 642.324 25.4587 642.333 25.4679 642.338C25.871 642.708 26.4024 642.935 26.9887 642.935C27.575 642.935 28.1064 642.708 28.5095 642.338C28.5186 642.333 28.5278 642.324 28.5324 642.314C28.569 642.277 28.6057 642.24 28.6377 642.208C28.6469 642.203 28.6515 642.199 28.6515 642.194L35.9577 634.814L36.5624 634.203C36.5669 634.198 36.5669 634.193 36.5761 634.189C36.599 634.161 36.6219 634.138 36.6448 634.119C36.6448 634.119 36.6494 634.11 36.654 634.11C37.0388 633.735 37.5564 633.504 38.1244 633.485C38.1519 633.48 38.1748 633.48 38.2023 633.48C38.2297 633.48 38.2526 633.48 38.2801 633.485C39.4803 633.522 40.4468 634.522 40.4468 635.745V645.292V648.917H40.4331Z" fill="#0B90CF"/>
<path d="M392.945 700.816V706.881C392.547 709.391 390.788 711.442 388.461 712.238C387.783 712.47 387.059 712.595 386.303 712.595H372.767C371.984 712.595 371.228 712.46 370.527 712.206C367.916 711.275 366.043 708.756 366.043 705.798V687.644C366.043 686.394 367.046 685.38 368.283 685.38C368.883 685.38 369.428 685.62 369.831 686.005L370.527 686.708L377.834 694.089C377.834 694.093 377.838 694.098 377.847 694.103C377.88 694.14 377.916 694.177 377.953 694.209C377.957 694.218 377.967 694.228 377.976 694.232C378.379 694.603 378.91 694.829 379.497 694.829C380.083 694.829 380.614 694.603 381.017 694.232C381.026 694.228 381.036 694.218 381.04 694.209C381.077 694.172 381.114 694.135 381.146 694.103C381.155 694.098 381.159 694.093 381.159 694.089L388.466 686.708L389.07 686.097C389.075 686.093 389.075 686.088 389.084 686.083C389.107 686.056 389.13 686.032 389.153 686.014C389.153 686.014 389.157 686.005 389.162 686.005C389.547 685.63 390.064 685.398 390.632 685.38C390.66 685.375 390.683 685.375 390.71 685.375C390.738 685.375 390.76 685.375 390.788 685.38C391.988 685.417 392.955 686.417 392.955 687.639V697.186V700.816H392.945Z" fill="#BAD7E9"/>
<path d="M81.8291 645.618H78.8379V642.59H75.8467V645.618H72.8555V648.641H75.8467V651.665H78.8379V648.641H81.8291V645.618Z" fill="#BAD7E9"/>
<path d="M434.349 697.488H431.353V694.465H428.362V697.488H425.371V700.512H428.362V703.535H431.353V700.512H434.349V697.488Z" fill="#BAD7E9"/>
<path d="M283.263 645.618H280.272V642.59H277.281V645.618H274.285V648.641H277.281V651.665H280.272V648.641H283.263V645.618Z" fill="#BAD7E9"/>
<path d="M283.263 749.7H280.272V746.672H277.281V749.7H274.285V752.723H277.281V755.747H280.272V752.723H283.263V749.7Z" fill="white"/>
<path d="M232.908 697.488H229.917V694.465H226.925V697.488H223.93V700.512H226.925V703.535H229.917V700.512H232.908V697.488Z" fill="#BAD7E9"/>
<path d="M81.8291 749.7H78.8379V746.672H75.8467V749.7H72.8555V752.723H75.8467V755.747H78.8379V752.723H81.8291V749.7Z" fill="#BAD7E9"/>
<path d="M31.4743 697.488H28.4785V694.465H25.4873V697.488H22.4961V700.512H25.4873V703.535H28.4785V700.512H31.4743V697.488Z" fill="#BAD7E9"/>
<path d="M333.367 701.135L331.251 699.001L333.367 696.862L331.251 694.723L329.135 696.862L327.019 694.723L324.902 696.862L327.019 699.001L324.902 701.135L327.019 703.274L329.135 701.135L331.251 703.274L333.367 701.135Z" fill="#BAD7E9"/>
<path d="M182.293 753.347L180.176 751.208L182.293 749.069L180.176 746.93L178.06 749.069L175.948 746.93L173.832 749.069L175.948 751.208L173.832 753.347L175.948 755.486L178.06 753.347L180.176 755.486L182.293 753.347Z" fill="#BAD7E9"/>
<path d="M383.735 753.347L381.618 751.208L383.735 749.069L381.618 746.93L379.502 749.069L377.386 746.93L375.27 749.069L377.386 751.208L375.27 753.347L377.386 755.486L379.502 753.347L381.618 755.486L383.735 753.347Z" fill="#BAD7E9"/>
<path d="M182.293 649.268L180.176 647.129L182.293 644.99L180.176 642.855L178.06 644.99L175.948 642.855L173.832 644.99L175.948 647.129L173.832 649.268L175.948 651.407L178.06 649.268L180.176 651.407L182.293 649.268Z" fill="#BAD7E9"/>
<path d="M131.933 701.135L129.817 699.001L131.933 696.862L129.817 694.723L127.705 696.862L125.589 694.723L123.473 696.862L125.589 699.001L123.473 701.135L125.589 703.274L127.705 701.135L129.817 703.274L131.933 701.135Z" fill="white"/>
<path d="M383.735 649.268L381.618 647.129L383.735 644.99L381.618 642.855L379.502 644.99L377.386 642.855L375.27 644.99L377.386 647.129L375.27 649.268L377.386 651.407L379.502 649.268L381.618 651.407L383.735 649.268Z" fill="#BAD7E9"/>
<path d="M238.523 640.32H218.327C217.094 640.32 216.082 641.339 216.082 642.589V651.664C216.082 652.909 217.09 653.932 218.327 653.932H238.523C239.755 653.932 240.767 652.914 240.767 651.664V642.589C240.767 641.339 239.755 640.32 238.523 640.32ZM227.3 648.256H223.933V651.659H221.689V648.256H218.322V645.987H221.689V642.584H223.933V645.987H227.3V648.256ZM232.353 650.525C231.423 650.525 230.672 649.766 230.672 648.826C230.672 647.886 231.423 647.126 232.353 647.126C233.283 647.126 234.034 647.886 234.034 648.826C234.034 649.766 233.283 650.525 232.353 650.525ZM236.837 647.122C235.907 647.122 235.156 646.362 235.156 645.423C235.156 644.483 235.907 643.723 236.837 643.723C237.767 643.723 238.518 644.483 238.518 645.423C238.523 646.362 237.772 647.122 236.837 647.122Z" fill="#0B90CF"/>
<path d="M329.13 658.575L327.339 656.927C320.981 651.102 316.785 647.259 316.785 642.541C316.785 638.698 319.772 635.68 323.574 635.68C325.722 635.68 327.783 636.689 329.13 638.286C330.477 636.689 332.538 635.68 334.687 635.68C338.489 635.68 341.475 638.698 341.475 642.541C341.475 647.259 337.279 651.098 330.921 656.936L329.13 658.575Z" fill="#BAD7E9"/>
<path d="M424.323 649.12C423.65 648.449 423.274 647.528 423.279 646.574V641.504H419.903C418.584 641.504 417.516 642.583 417.512 643.916V651.116C417.512 652.449 418.584 653.533 419.903 653.533H420.892V658.227L424.91 653.528H431.597C432.917 653.528 433.984 652.449 433.989 651.116V650.167H426.829C425.89 650.167 424.992 649.792 424.323 649.12Z" fill="#0B90CF"/>
<path d="M439.832 648.964C441.138 648.968 442.196 647.899 442.196 646.584V638.416C442.196 637.097 441.143 636.027 439.837 636.027H439.832H426.832C425.527 636.027 424.469 637.097 424.469 638.416V646.584C424.469 647.899 425.522 648.964 426.823 648.964C426.828 648.964 426.832 648.964 426.837 648.964H434.244L435.265 650.163L438.568 654.024V648.964H439.832Z" fill="#0B90CF"/>
<path d="M21.4482 753.21C20.7749 752.539 20.3992 751.617 20.4038 750.664V745.594H17.0278C15.7086 745.594 14.6413 746.673 14.6367 748.006V755.206C14.6367 756.539 15.7086 757.622 17.0278 757.622H18.0173V762.317L22.0346 757.618H28.7224C30.0416 757.618 31.1089 756.539 31.1135 755.206V754.256H23.9539C23.0148 754.256 22.117 753.877 21.4482 753.21Z" fill="#0B90CF"/>
<path d="M36.9574 753.053C38.2629 753.058 39.3211 751.988 39.3211 750.674V742.506C39.3211 741.187 38.2675 740.117 36.962 740.117H36.9574H23.9574C22.6519 740.117 21.5938 741.187 21.5938 742.506V750.674C21.5938 751.988 22.6473 753.053 23.9482 753.053C23.9528 753.053 23.9574 753.053 23.962 753.053H31.369L32.3905 754.253L35.6932 758.114V753.058H36.9574V753.053Z" fill="#0B90CF"/>
<path d="M71.6925 701.033C71.0054 700.343 70.6206 699.408 70.6252 698.431V693.25H67.1759C65.8292 693.25 64.7344 694.352 64.7344 695.713V703.07C64.7344 704.431 65.8292 705.538 67.1759 705.538H68.1836V710.335L72.288 705.533H79.1224C80.4691 705.533 81.5593 704.431 81.5639 703.07V702.103H74.2485C73.2911 702.098 72.3704 701.714 71.6925 701.033Z" fill="#0B90CF"/>
<path d="M87.534 700.871C88.867 700.876 89.9481 699.783 89.9481 698.44V690.092C89.9481 688.745 88.8716 687.652 87.5386 687.652H87.534H74.25C72.917 687.652 71.8359 688.745 71.8359 690.092V698.44C71.8359 699.783 72.9124 700.871 74.2408 700.871C74.2454 700.871 74.25 700.871 74.2545 700.871H81.8219L82.8663 702.098L86.2423 706.043V700.876H87.534V700.871Z" fill="#0B90CF"/>
<path d="M165.715 710.895L181.761 705.103L171.445 694.676L165.715 710.895Z" fill="#BAD7E9"/>
<path d="M180.073 699.928L186.482 693.451C187.045 692.881 187.948 692.881 188.511 693.451L189.189 694.136L190.403 692.909L189.725 692.224C188.497 690.983 186.491 690.983 185.268 692.224L178.859 698.701L180.073 699.928Z" fill="#BAD7E9"/>
<path d="M174.947 693.381L174.27 694.066L175.483 695.293L176.161 694.608C177.389 693.367 177.389 691.339 176.161 690.103L175.483 689.418L174.27 690.659L174.947 691.344C175.502 691.9 175.502 692.826 174.947 693.381Z" fill="#BAD7E9"/>
<path d="M182.972 699.177L181.148 701.019L182.362 702.246L184.185 700.404C184.749 699.834 185.651 699.834 186.215 700.404L188.061 702.27L189.275 701.043L187.429 699.177C186.192 697.936 184.195 697.936 182.972 699.177Z" fill="#BAD7E9"/>
<path d="M180.68 692.222L176.566 696.38L177.78 697.607L181.894 693.449C183.121 692.208 183.121 690.181 181.894 688.944L180.071 687.102L178.857 688.329L180.68 690.171C181.23 690.741 181.23 691.667 180.68 692.222Z" fill="#BAD7E9"/>
<path d="M340.788 749.478H339.025V744.728C339.025 743.422 337.967 742.353 336.675 742.353H331.975V740.57C331.975 738.931 330.66 737.598 329.034 737.598C327.413 737.598 326.093 738.926 326.093 740.57V742.353H321.394C320.102 742.353 319.053 743.422 319.053 744.728V749.242H320.803C322.552 749.242 323.977 750.682 323.977 752.451C323.977 754.219 322.552 755.659 320.803 755.659H319.039V760.173C319.039 761.479 320.097 762.549 321.389 762.549H325.855V760.766C325.855 758.997 327.28 757.558 329.03 757.558C330.779 757.558 332.204 758.997 332.204 760.766V762.549H336.67C337.962 762.549 339.02 761.479 339.02 760.173V755.423H340.784C342.405 755.423 343.724 754.094 343.724 752.451C343.724 750.807 342.41 749.478 340.788 749.478Z" fill="#BAD7E9"/>
<path d="M240.506 748.431L236.668 746.204V743.398C236.668 743.139 236.439 742.907 236.182 742.907H233.003V740.389C233.003 740.213 232.916 740.041 232.747 739.953L228.679 737.55C228.537 737.462 228.335 737.462 228.193 737.55L224.098 739.953C223.956 740.041 223.842 740.213 223.842 740.389V742.907H220.663C220.374 742.907 220.177 743.139 220.177 743.398V746.204L216.339 748.431C216.197 748.519 216.082 748.69 216.082 748.866V753.644C216.082 753.82 216.169 753.991 216.339 754.079L220.177 756.306V759.084C220.177 759.376 220.406 759.575 220.663 759.575H223.842V762.094C223.842 762.27 223.929 762.441 224.098 762.529L228.166 764.904C228.253 764.965 228.34 764.965 228.422 764.965C228.509 764.965 228.597 764.937 228.679 764.904L232.747 762.529C232.889 762.441 233.003 762.27 233.003 762.094V759.575H236.182C236.439 759.575 236.668 759.344 236.668 759.084V756.306L240.506 754.079C240.648 753.991 240.763 753.82 240.763 753.644V748.866C240.767 748.69 240.653 748.514 240.506 748.431ZM232.605 749.732L235.697 751.528V755.144L232.605 753.348V749.732ZM224.845 741.222L227.937 743.018V746.634L224.845 744.838V741.222ZM228.913 743.046L232.005 741.25V744.866L228.913 746.662V743.046ZM221.148 755.144V751.528L224.24 749.732V753.348L221.148 755.144ZM217.085 749.732L220.177 751.528V755.144L217.085 753.348V749.732ZM224.845 758.214L227.937 760.01V763.626L224.845 761.83V758.214ZM228.913 763.626V760.01L232.005 758.214V761.83L228.913 763.626ZM233.008 758.589V757.344C233.008 757.168 232.921 756.996 232.751 756.908L228.684 754.533C228.542 754.445 228.34 754.445 228.198 754.533L224.13 756.908C223.988 756.996 223.874 757.168 223.874 757.344V758.589H221.18V756.302L224.987 754.042C225.129 753.954 225.243 753.783 225.243 753.607V748.861C225.243 748.685 225.156 748.514 224.987 748.426L221.148 746.199V743.912H223.842V745.157C223.842 745.333 223.929 745.505 224.098 745.593L228.166 747.968C228.253 748.028 228.34 748.028 228.422 748.028C228.509 748.028 228.597 748 228.679 747.968L232.747 745.593C232.889 745.505 233.003 745.333 233.003 745.157V743.912H235.697V746.199L231.858 748.426C231.716 748.514 231.601 748.685 231.601 748.861V753.64C231.601 753.816 231.688 753.987 231.858 754.075L235.697 756.302V758.589H233.008ZM236.672 755.144V751.528L239.764 749.732V753.348L236.672 755.144Z" fill="#0B90CF"/>
<path d="M136.954 739.573H133.867C133.867 736.128 131.105 733.336 127.697 733.336C124.289 733.336 121.526 736.128 121.526 739.573H118.439C116.744 739.573 115.352 740.975 115.352 742.693V761.408C115.352 763.121 116.74 764.528 118.439 764.528H136.954C138.649 764.528 140.042 763.125 140.042 761.408V742.693C140.042 740.98 138.654 739.573 136.954 739.573ZM124.614 745.814C124.614 746.67 123.917 747.374 123.07 747.374C122.223 747.374 121.526 746.67 121.526 745.814V742.693H124.614V745.814ZM127.701 736.457C129.396 736.457 130.789 737.859 130.789 739.577H124.618C124.614 737.859 126.002 736.457 127.701 736.457ZM133.871 745.814C133.871 746.67 133.175 747.374 132.328 747.374C131.48 747.374 130.784 746.67 130.784 745.814V742.693H133.871V745.814Z" fill="#BAD7E9"/>
<path d="M73.0224 810.829V814.459H88.2807C89.5221 814.459 90.5253 815.473 90.5253 816.728V823.96C90.5253 825.214 89.5221 826.228 88.2807 826.228H71.9963C69.3074 826.001 67.0675 824.173 66.2155 821.691C65.9681 820.987 65.8398 820.232 65.8398 819.45V814.454V810.824V805.81C65.8398 805.018 65.9727 804.254 66.2246 803.541C67.1453 800.902 69.6418 799.004 72.5689 799.004H88.2761C89.5175 799.004 90.5207 800.018 90.5207 801.273V808.56C90.5207 809.815 89.5175 810.829 88.2761 810.829H73.0224Z" fill="#BAD7E9"/>
<path d="M224.097 862.759V866.389H239.355C240.596 866.389 241.599 867.402 241.599 868.657V875.889C241.599 877.144 240.596 878.158 239.355 878.158H223.071C220.382 877.931 218.142 876.102 217.29 873.621C217.042 872.917 216.914 872.162 216.914 871.38V866.389V862.759V857.74C216.914 856.948 217.047 856.184 217.299 855.471C218.22 852.832 220.716 850.934 223.643 850.934H239.35C240.592 850.934 241.595 851.948 241.595 853.202V860.49C241.595 861.745 240.592 862.759 239.35 862.759H224.097Z" fill="#0B90CF"/>
<path d="M375.175 914.981V918.611H390.433C391.674 918.611 392.678 919.625 392.678 920.88V928.112C392.678 929.367 391.674 930.381 390.433 930.381H374.149C371.46 930.154 369.22 928.325 368.368 925.843C368.12 925.139 367.992 924.385 367.992 923.602V918.611V914.981V909.962C367.992 909.171 368.125 908.407 368.377 907.694C369.298 905.055 371.794 903.156 374.721 903.156H390.429C391.67 903.156 392.673 904.17 392.673 905.425V912.713C392.673 913.967 391.67 914.981 390.429 914.981H375.175Z" fill="#0B90CF"/>
<path d="M343.426 866.375V872.44C343.027 874.949 341.268 877 338.941 877.797C338.263 878.028 337.54 878.153 336.784 878.153H323.248C322.465 878.153 321.709 878.019 321.008 877.764C318.397 876.834 316.523 874.315 316.523 871.357V853.202C316.523 851.952 317.527 850.938 318.763 850.938C319.363 850.938 319.909 851.179 320.312 851.563L321.008 852.267L328.314 859.647C328.314 859.652 328.319 859.657 328.328 859.661C328.36 859.698 328.397 859.735 328.433 859.768C328.438 859.777 328.447 859.786 328.456 859.791C328.859 860.161 329.391 860.388 329.977 860.388C330.563 860.388 331.095 860.161 331.498 859.791C331.507 859.786 331.516 859.777 331.521 859.768C331.557 859.731 331.594 859.694 331.626 859.661C331.635 859.657 331.64 859.652 331.64 859.647L338.946 852.267L339.551 851.656C339.555 851.651 339.555 851.647 339.564 851.642C339.587 851.614 339.61 851.591 339.633 851.573C339.633 851.573 339.638 851.563 339.642 851.563C340.027 851.188 340.545 850.957 341.113 850.938C341.14 850.934 341.163 850.934 341.191 850.934C341.218 850.934 341.241 850.934 341.268 850.938C342.469 850.975 343.435 851.975 343.435 853.198V862.745V866.375H343.426Z" fill="#BAD7E9"/>
<path d="M32.3095 811.176H29.3183V808.148H26.3271V811.176H23.3359V814.2H26.3271V817.223H29.3183V814.2H32.3095V811.176Z" fill="#BAD7E9"/>
<path d="M435.188 915.258H432.197V912.23H429.206V915.258H426.215V918.282H429.206V921.305H432.197V918.282H435.188V915.258Z" fill="#BAD7E9"/>
<path d="M435.188 811.176H432.197V808.148H429.206V811.176H426.215V814.2H429.206V817.223H432.197V814.2H435.188V811.176Z" fill="#BAD7E9"/>
<path d="M384.83 863.047H381.834V860.023H378.843V863.047H375.852V866.07H378.843V869.094H381.834V866.07H384.83V863.047Z" fill="#BAD7E9"/>
<path d="M233.744 811.176H230.753V808.148H227.761V811.176H224.766V814.2H227.761V817.223H230.753V814.2H233.744V811.176Z" fill="#BAD7E9"/>
<path d="M233.744 915.258H230.753V912.23H227.761V915.258H224.766V918.282H227.761V921.305H230.753V918.282H233.744V915.258Z" fill="white"/>
<path d="M183.388 863.047H180.397V860.023H177.406V863.047H174.41V866.07H177.406V869.094H180.397V866.07H183.388V863.047Z" fill="#BAD7E9"/>
<path d="M32.3095 915.258H29.3183V912.23H26.3271V915.258H23.3359V918.282H26.3271V921.305H29.3183V918.282H32.3095V915.258Z" fill="#BAD7E9"/>
<path d="M283.848 866.694L281.732 864.559L283.848 862.42L281.732 860.281L279.615 862.42L277.499 860.281L275.383 862.42L277.499 864.559L275.383 866.694L277.499 868.833L279.615 866.694L281.732 868.833L283.848 866.694Z" fill="#BAD7E9"/>
<path d="M132.773 918.905L130.657 916.766L132.773 914.627L130.657 912.488L128.54 914.627L126.429 912.488L124.312 914.627L126.429 916.766L124.312 918.905L126.429 921.045L128.54 918.905L130.657 921.045L132.773 918.905Z" fill="#BAD7E9"/>
<path d="M334.215 918.905L332.099 916.766L334.215 914.627L332.099 912.488L329.983 914.627L327.866 912.488L325.75 914.627L327.866 916.766L325.75 918.905L327.866 921.045L329.983 918.905L332.099 921.045L334.215 918.905Z" fill="#BAD7E9"/>
<path d="M132.773 814.827L130.657 812.688L132.773 810.548L130.657 808.414L128.54 810.548L126.429 808.414L124.312 810.548L126.429 812.688L124.312 814.827L126.429 816.966L128.54 814.827L130.657 816.966L132.773 814.827Z" fill="#BAD7E9"/>
<path d="M82.4137 866.694L80.2974 864.559L82.4137 862.42L80.2974 860.281L78.1857 862.42L76.0694 860.281L73.9531 862.42L76.0694 864.559L73.9531 866.694L76.0694 868.833L78.1857 866.694L80.2974 868.833L82.4137 866.694Z" fill="white"/>
<path d="M334.215 814.827L332.099 812.688L334.215 810.548L332.099 808.414L329.983 810.548L327.866 808.414L325.75 810.548L327.866 812.688L325.75 814.827L327.866 816.966L329.983 814.827L332.099 816.966L334.215 814.827Z" fill="#BAD7E9"/>
<path d="M189.003 805.879H168.807C167.575 805.879 166.562 806.898 166.562 808.148V817.222C166.562 818.468 167.57 819.491 168.807 819.491H189.003C190.236 819.491 191.248 818.472 191.248 817.222V808.148C191.248 806.898 190.236 805.879 189.003 805.879ZM177.781 813.815H174.414V817.218H172.169V813.815H168.802V811.546H172.169V808.143H174.414V811.546H177.781V813.815ZM182.833 816.083C181.903 816.083 181.152 815.324 181.152 814.384C181.152 813.444 181.903 812.685 182.833 812.685C183.763 812.685 184.514 813.444 184.514 814.384C184.514 815.324 183.763 816.083 182.833 816.083ZM187.318 812.68C186.388 812.68 185.637 811.921 185.637 810.981C185.637 810.041 186.388 809.282 187.318 809.282C188.248 809.282 188.999 810.041 188.999 810.981C189.003 811.921 188.252 812.68 187.318 812.68Z" fill="#0B90CF"/>
<path d="M279.611 824.134L277.82 822.485C271.462 816.661 267.266 812.818 267.266 808.1C267.266 804.257 270.252 801.238 274.054 801.238C276.203 801.238 278.264 802.248 279.611 803.845C280.957 802.248 283.019 801.238 285.167 801.238C288.969 801.238 291.956 804.257 291.956 808.1C291.956 812.818 287.76 816.656 281.402 822.495L279.611 824.134Z" fill="#BAD7E9"/>
<path d="M374.804 814.679C374.13 814.007 373.755 813.086 373.759 812.132V807.062H370.383C369.064 807.062 367.997 808.141 367.992 809.475V816.674C367.992 818.008 369.064 819.091 370.383 819.091H371.373V823.786L375.39 819.087H382.078C383.397 819.087 384.464 818.008 384.469 816.674V815.725H377.309C376.37 815.725 375.472 815.35 374.804 814.679Z" fill="#0B90CF"/>
<path d="M390.313 814.522C391.618 814.527 392.677 813.457 392.677 812.142V803.975C392.677 802.655 391.623 801.586 390.317 801.586H390.313H377.313C376.007 801.586 374.949 802.655 374.949 803.975V812.142C374.949 813.457 376.003 814.522 377.304 814.522C377.308 814.522 377.313 814.522 377.317 814.522H384.724L385.746 815.721L389.049 819.583V814.522H390.313Z" fill="#0B90CF"/>
<path d="M22.1729 866.592C21.4858 865.902 21.1011 864.966 21.1056 863.99V858.809H17.6564C16.3096 858.809 15.2148 859.911 15.2148 861.272V868.629C15.2148 869.99 16.3096 871.097 17.6564 871.097H18.6641V875.893L22.7684 871.092H29.6028C30.9496 871.092 32.0398 869.99 32.0444 868.629V867.661H24.729C23.7716 867.657 22.8509 867.272 22.1729 866.592Z" fill="#0B90CF"/>
<path d="M38.0145 866.43C39.3475 866.434 40.4285 865.342 40.4285 863.999V855.651C40.4285 854.304 39.3521 853.211 38.0191 853.211H38.0145H24.7304C23.3975 853.211 22.3164 854.304 22.3164 855.651V863.999C22.3164 865.342 23.3929 866.43 24.7213 866.43C24.7259 866.43 24.7304 866.43 24.735 866.43H32.3023L33.3467 867.657L36.7227 871.601V866.434H38.0145V866.43Z" fill="#0B90CF"/>
<path d="M116.195 876.453L132.242 870.661L121.926 860.234L116.195 876.453Z" fill="#BAD7E9"/>
<path d="M130.554 865.487L136.962 859.009C137.526 858.44 138.428 858.44 138.991 859.009L139.669 859.694L140.883 858.467L140.205 857.782C138.978 856.541 136.971 856.541 135.748 857.782L129.34 864.26L130.554 865.487Z" fill="#BAD7E9"/>
<path d="M125.428 858.94L124.75 859.625L125.964 860.852L126.642 860.167C127.869 858.926 127.869 856.898 126.642 855.662L125.964 854.977L124.75 856.217L125.428 856.903C125.982 857.458 125.982 858.384 125.428 858.94Z" fill="#BAD7E9"/>
<path d="M133.452 864.735L131.629 866.578L132.843 867.805L134.666 865.962C135.229 865.393 136.132 865.393 136.695 865.962L138.541 867.828L139.755 866.601L137.909 864.735C136.672 863.494 134.675 863.494 133.452 864.735Z" fill="#BAD7E9"/>
<path d="M131.16 857.781L127.047 861.939L128.261 863.166L132.374 859.008C133.602 857.767 133.602 855.739 132.374 854.503L130.551 852.66L129.337 853.887L131.16 855.73C131.71 856.299 131.71 857.225 131.16 857.781Z" fill="#BAD7E9"/>
<path d="M430.159 867.367C432.028 867.367 433.544 865.835 433.544 863.945C433.544 862.055 432.028 860.523 430.159 860.523C428.289 860.523 426.773 862.055 426.773 863.945C426.773 865.835 428.289 867.367 430.159 867.367Z" fill="#0B90CF"/>
<path d="M426.033 865.484L421.777 867.772C421.415 867.406 420.916 867.184 420.362 867.184C419.253 867.184 418.355 868.091 418.355 869.212C418.355 870.332 419.253 871.239 420.362 871.239C421.47 871.239 422.368 870.332 422.368 869.212C422.368 869.082 422.354 868.957 422.331 868.832L426.587 866.545C426.358 866.221 426.17 865.864 426.033 865.484Z" fill="#0B90CF"/>
<path d="M427.625 860.313L425.637 858.151C425.806 857.854 425.907 857.507 425.907 857.141C425.907 856.021 425.009 855.113 423.901 855.113C422.792 855.113 421.895 856.021 421.895 857.141C421.895 858.262 422.792 859.169 423.901 859.169C424.212 859.169 424.506 859.095 424.771 858.965L426.759 861.128C427.007 860.817 427.3 860.544 427.625 860.313Z" fill="#0B90CF"/>
<path d="M291.269 915.037H289.505V910.286C289.505 908.981 288.447 907.911 287.155 907.911H282.455V906.129C282.455 904.49 281.141 903.156 279.515 903.156C277.893 903.156 276.574 904.485 276.574 906.129V907.911H271.874C270.582 907.911 269.533 908.981 269.533 910.286V914.801H271.283C273.033 914.801 274.458 916.241 274.458 918.009C274.458 919.778 273.033 921.218 271.283 921.218H269.52V925.732C269.52 927.038 270.578 928.107 271.869 928.107H276.336V926.325C276.336 924.556 277.76 923.116 279.51 923.116C281.26 923.116 282.684 924.556 282.684 926.325V928.107H287.151C288.442 928.107 289.501 927.038 289.501 925.732V920.982H291.264C292.886 920.982 294.205 919.653 294.205 918.009C294.205 916.366 292.89 915.037 291.269 915.037Z" fill="#BAD7E9"/>
<path d="M190.987 913.989L187.148 911.762V908.957C187.148 908.697 186.919 908.466 186.663 908.466H183.484V905.947C183.484 905.771 183.397 905.6 183.227 905.512L179.159 903.109C179.017 903.021 178.816 903.021 178.674 903.109L174.579 905.512C174.437 905.6 174.322 905.771 174.322 905.947V908.466H171.143C170.855 908.466 170.658 908.697 170.658 908.957V911.762L166.819 913.989C166.677 914.077 166.562 914.249 166.562 914.425V919.203C166.562 919.379 166.65 919.55 166.819 919.638L170.658 921.865V924.643C170.658 924.935 170.887 925.134 171.143 925.134H174.322V927.653C174.322 927.828 174.409 928 174.579 928.088L178.646 930.463C178.733 930.523 178.82 930.523 178.903 930.523C178.99 930.523 179.077 930.495 179.159 930.463L183.227 928.088C183.369 928 183.484 927.828 183.484 927.653V925.134H186.663C186.919 925.134 187.148 924.902 187.148 924.643V921.865L190.987 919.638C191.129 919.55 191.243 919.379 191.243 919.203V914.425C191.248 914.249 191.133 914.073 190.987 913.989ZM183.085 915.29L186.177 917.087V920.703L183.085 918.906V915.29ZM175.325 906.781L178.417 908.577V912.193L175.325 910.397V906.781ZM179.393 908.605L182.485 906.808V910.424L179.393 912.221V908.605ZM171.629 920.703V917.087L174.721 915.29V918.906L171.629 920.703ZM167.566 915.29L170.658 917.087V920.703L167.566 918.906V915.29ZM175.325 923.773L178.417 925.569V929.185L175.325 927.389V923.773ZM179.393 929.185V925.569L182.485 923.773V927.389L179.393 929.185ZM183.488 924.148V922.902C183.488 922.726 183.401 922.555 183.232 922.467L179.164 920.092C179.022 920.004 178.82 920.004 178.678 920.092L174.611 922.467C174.469 922.555 174.354 922.726 174.354 922.902V924.148H171.661V921.86L175.467 919.601C175.609 919.513 175.724 919.342 175.724 919.166V914.42C175.724 914.244 175.637 914.073 175.467 913.985L171.629 911.758V909.471H174.322V910.716C174.322 910.892 174.409 911.063 174.579 911.151L178.646 913.526C178.733 913.587 178.82 913.587 178.903 913.587C178.99 913.587 179.077 913.559 179.159 913.526L183.227 911.151C183.369 911.063 183.484 910.892 183.484 910.716V909.471H186.177V911.758L182.338 913.985C182.196 914.073 182.082 914.244 182.082 914.42V919.198C182.082 919.374 182.169 919.545 182.338 919.633L186.177 921.86V924.148H183.488ZM187.153 920.703V917.087L190.245 915.29V918.906L187.153 920.703Z" fill="#0B90CF"/>
<path d="M87.4346 905.131H84.3473C84.3473 901.686 81.5851 898.895 78.177 898.895C74.769 898.895 72.0068 901.686 72.0068 905.131H68.9194C67.2246 905.131 65.832 906.534 65.832 908.252V926.966C65.832 928.679 67.22 930.087 68.9194 930.087H87.4346C89.1295 930.087 90.522 928.684 90.522 926.966V908.252C90.522 906.539 89.1341 905.131 87.4346 905.131ZM75.0942 911.372C75.0942 912.229 74.398 912.933 73.5505 912.933C72.7031 912.933 72.0068 912.229 72.0068 911.372V908.252H75.0942V911.372ZM78.1816 902.015C79.8765 902.015 81.269 903.418 81.269 905.136H75.0988C75.0942 903.418 76.4822 902.015 78.1816 902.015ZM84.3518 911.372C84.3518 912.229 83.6556 912.933 82.8081 912.933C81.9607 912.933 81.2644 912.229 81.2644 911.372V908.252H84.3518V911.372Z" fill="#BAD7E9"/>
</g>
<defs>
<clipPath id="clip0_3885_8601">
<rect width="428" height="926" fill="white"/>
</clipPath>
</defs>
</svg>
