<svg width="24" height="24" viewBox="0 0 24 24" fill="black" xmlns="http://www.w3.org/2000/svg">
<path fill-rule="evenodd" clip-rule="evenodd" d="M7.5 9.5V19C7.5 19.3975 7.658 19.779 7.9395 20.0605C8.2205 20.342 8.602 20.5 9 20.5C11.26 20.5 16.74 20.5 19 20.5C19.398 20.5 19.7795 20.342 20.0605 20.0605C20.342 19.779 20.5 19.3975 20.5 19V9.5H22.5C22.898 9.5 23.2795 9.34199 23.5605 9.06049C23.842 8.77899 24 8.3975 24 8C24 7.007 24 5.493 24 4.5C24 4.102 23.842 3.7205 23.5605 3.439C23.2795 3.158 22.898 3 22.5 3C19.216 3 8.784 3 5.5 3C5.102 3 4.7205 3.158 4.4395 3.439C4.158 3.7205 4 4.102 4 4.5C4 5.493 4 7.007 4 8C4 8.3975 4.158 8.77899 4.4395 9.06049C4.7205 9.34199 5.102 9.5 5.5 9.5H7.5ZM19.5 16.5295C17.9735 16.756 16.7675 17.97 16.5525 19.5H19C19.1325 19.5 19.26 19.447 19.3535 19.3535C19.4475 19.2595 19.5 19.1325 19.5 19V16.5295ZM8.5 16.5355V19C8.5 19.1325 8.5525 19.2595 8.6465 19.3535C8.74 19.447 8.8675 19.5 9 19.5H11.4645C11.2455 17.968 10.032 16.7545 8.5 16.5355ZM13.479 13.717L12.816 13.112C12.612 12.926 12.2955 12.9405 12.1095 13.1445C11.9235 13.3485 11.938 13.665 12.142 13.851L13.642 15.2195C13.833 15.3935 14.125 15.3935 14.316 15.2195L15.816 13.851C16.02 13.665 16.0345 13.3485 15.8485 13.1445C15.6625 12.9405 15.346 12.926 15.142 13.112L14.479 13.717V8.85C14.479 8.574 14.255 8.35 13.979 8.35C13.703 8.35 13.479 8.574 13.479 8.85V13.717ZM20.5 8.5H22.5C22.6325 8.5 22.76 8.44699 22.8535 8.35349C22.9475 8.25949 23 8.1325 23 8V4.5C23 4.367 22.9475 4.24 22.8535 4.1465C22.76 4.0525 22.6325 4 22.5 4H5.5C5.3675 4 5.24 4.0525 5.1465 4.1465C5.0525 4.24 5 4.367 5 4.5V8C5 8.1325 5.0525 8.25949 5.1465 8.35349C5.24 8.44699 5.3675 8.5 5.5 8.5H7.5V6C7.5 5.7235 7.724 5.5 8 5.5H20C20.276 5.5 20.5 5.7235 20.5 6V8.5Z" fill="black"/>
</svg>
