<svg width="77" height="74" viewBox="0 0 77 74" fill="none" xmlns="http://www.w3.org/2000/svg">
<path d="M47.5603 23.7612L24.9401 26.1095C24.9401 26.1095 24.2832 39.8558 26.4905 45.3248C42.9987 50.7944 52.5826 38.722 52.5826 38.722C52.0304 31.3105 47.5603 23.7612 47.5603 23.7612Z" fill="white"/>
<path d="M54.733 25.8213H22.1357V37.3307H54.733V25.8213Z" fill="#D26E25"/>
<g style="mix-blend-mode:soft-light">
<path d="M54.733 25.8213H22.1357V37.3307H54.733V25.8213Z" fill="white"/>
</g>
<path d="M38.1594 9.90912H37.6091C37.2134 9.9095 36.831 9.76686 36.5323 9.5075C36.2335 9.24813 36.0386 8.88952 35.9834 8.49776L35.3331 2.76743C35.3007 2.53506 35.3186 2.29844 35.3854 2.07355C35.4523 1.84866 35.5666 1.64074 35.7207 1.46381C35.8748 1.28689 36.0651 1.14509 36.2787 1.04797C36.4922 0.950861 36.7242 0.900701 36.9588 0.900879H38.8121C39.0467 0.900701 39.2787 0.950861 39.4922 1.04797C39.7058 1.14509 39.8961 1.28689 40.0502 1.46381C40.2043 1.64074 40.3186 1.84866 40.3855 2.07355C40.4524 2.29844 40.4702 2.53506 40.4378 2.76743L39.7863 8.49776C39.7311 8.88973 39.536 9.2485 39.237 9.50789C38.938 9.76729 38.5553 9.90979 38.1594 9.90912ZM26.2665 14.2281L25.8016 14.5219C25.4676 14.7333 25.0684 14.817 24.6776 14.7576C24.2867 14.6982 23.9305 14.4997 23.6743 14.1986L20.0617 9.705C19.9095 9.52611 19.7976 9.31662 19.7334 9.09072C19.6692 8.86482 19.6542 8.62777 19.6896 8.3956C19.7249 8.16343 19.8097 7.94156 19.9382 7.74499C20.0667 7.54841 20.2359 7.38173 20.4344 7.2562L21.9999 6.26512C22.1983 6.13953 22.4214 6.05802 22.6541 6.02608C22.8868 5.99415 23.1236 6.01254 23.3486 6.08001C23.5735 6.14748 23.7814 6.26246 23.9581 6.41718C24.1348 6.57189 24.2762 6.76274 24.3728 6.97682L26.886 12.167C27.0484 12.5276 27.0752 12.9346 26.9614 13.3133C26.8475 13.692 26.6007 14.0169 26.2665 14.2281ZM49.5051 14.2281L49.9699 14.5219C50.3037 14.7325 50.7022 14.8157 51.0923 14.7564C51.4825 14.697 51.8382 14.4989 52.0942 14.1986L55.7068 9.705C55.859 9.52611 55.9709 9.31662 56.0351 9.09072C56.0993 8.86482 56.1143 8.62777 56.0789 8.3956C56.0436 8.16343 55.9588 7.94156 55.8303 7.74499C55.7018 7.54841 55.5326 7.38173 55.3341 7.2562L53.7686 6.26512C53.5702 6.13953 53.3471 6.05802 53.1144 6.02608C52.8817 5.99415 52.6449 6.01254 52.4199 6.08001C52.195 6.14748 51.9871 6.26246 51.8104 6.41718C51.6337 6.57189 51.4923 6.76274 51.3957 6.97682L48.8825 12.167C48.7203 12.5279 48.694 12.9352 48.8084 13.314C48.9228 13.6927 49.1702 14.0173 49.5051 14.2281Z" fill="white"/>
<path d="M72.5249 35.0093H70.0875C70.0188 35.0093 69.953 34.982 69.9044 34.9334C69.8559 34.8849 69.8286 34.819 69.8286 34.7504V28.3842C69.8286 28.3155 69.8559 28.2497 69.9044 28.2011C69.953 28.1526 70.0188 28.1253 70.0875 28.1253H72.5249C73.3168 28.1253 74.0762 28.4399 74.6362 28.9998C75.1962 29.5598 75.5107 30.3193 75.5107 31.1112V32.0228C75.5108 32.415 75.4337 32.8033 75.2836 33.1656C75.1336 33.528 74.9137 33.8572 74.6364 34.1345C74.3591 34.4118 74.03 34.6318 73.6676 34.7819C73.3053 34.932 72.917 35.0093 72.5249 35.0093Z" fill="#F7AD45"/>
<path d="M3.89311 35.0098H6.33047C6.39914 35.0098 6.46499 34.9825 6.51355 34.9339C6.5621 34.8854 6.58938 34.8195 6.58938 34.7509L6.58938 28.3847C6.58938 28.316 6.5621 28.2502 6.51355 28.2016C6.46499 28.1531 6.39914 28.1258 6.33047 28.1258H3.89311C3.10121 28.1258 2.34173 28.4404 1.78177 29.0003C1.22181 29.5603 0.907227 30.3198 0.907227 31.1117L0.907227 32.0233C0.907148 32.4154 0.984319 32.8038 1.13434 33.1661C1.28436 33.5284 1.50429 33.8577 1.78156 34.135C2.05883 34.4123 2.38802 34.6323 2.75032 34.7824C3.11262 34.9325 3.50095 35.0098 3.89311 35.0098Z" fill="#F7AD45"/>
<path d="M72.5297 35.9158H70.0918C69.7837 35.9155 69.4883 35.7929 69.2704 35.5751C69.0525 35.3572 68.93 35.0618 68.9297 34.7537V28.3882C68.93 28.0801 69.0525 27.7847 69.2704 27.5668C69.4883 27.3489 69.7837 27.2264 70.0918 27.2261H72.5297C73.5609 27.2273 74.5494 27.6376 75.2785 28.3668C76.0076 29.096 76.4177 30.0846 76.4188 31.1157V32.0267C76.4177 33.0578 76.0076 34.0464 75.2785 34.7755C74.5494 35.5046 73.5608 35.9147 72.5297 35.9158ZM70.736 34.1094H72.5297C73.0819 34.1088 73.6113 33.8892 74.0017 33.4987C74.3922 33.1083 74.6118 32.5789 74.6124 32.0267V31.1157C74.6118 30.5635 74.3922 30.0341 74.0018 29.6435C73.6113 29.253 73.082 29.0332 72.5297 29.0324H70.736V34.1094Z" fill="#C25C12"/>
<path d="M3.88726 35.9163H6.32522C6.63333 35.916 6.92872 35.7934 7.14658 35.5756C7.36445 35.3577 7.48699 35.0623 7.4873 34.7542V28.3886C7.48699 28.0805 7.36445 27.7851 7.14658 27.5673C6.92872 27.3494 6.63333 27.2269 6.32522 27.2266H3.88726C2.8561 27.2278 1.86756 27.6381 1.13848 28.3673C0.409395 29.0965 -0.000682831 30.0851 -0.00179815 31.1162V32.0272C-0.000682831 33.0583 0.409415 34.0469 1.13851 34.776C1.86761 35.5051 2.85616 35.9152 3.88726 35.9163ZM5.68096 34.1099H3.88726C3.33508 34.1093 2.80571 33.8897 2.41526 33.4992C2.02482 33.1088 1.80518 32.5794 1.80455 32.0272V31.1162C1.80518 30.564 2.0248 30.0346 2.41523 29.644C2.80566 29.2535 3.33503 29.0337 3.88726 29.0329H5.68096V34.1099Z" fill="#C25C12"/>
<path d="M66.1314 40.3418H66.132C68.6749 40.3418 70.7363 38.2803 70.7363 35.7374V27.4024C70.7363 24.8594 68.6749 22.798 66.132 22.798H66.1314C63.5884 22.798 61.527 24.8594 61.527 27.4024V35.7374C61.527 38.2803 63.5884 40.3418 66.1314 40.3418Z" fill="#D26E25"/>
<path d="M66.1323 40.3418H66.1329C68.6759 40.3418 70.7373 38.2803 70.7373 35.7374V27.4024C70.7373 24.8594 68.6759 22.798 66.1329 22.798H66.1323C63.5894 22.798 61.528 24.8594 61.528 27.4024V35.7374C61.528 38.2803 63.5894 40.3418 66.1323 40.3418Z" fill="#D26E25"/>
<g style="mix-blend-mode:soft-light">
<path d="M66.1323 40.3418H66.1329C68.6759 40.3418 70.7373 38.2803 70.7373 35.7374V27.4024C70.7373 24.8594 68.6759 22.798 66.1329 22.798H66.1323C63.5894 22.798 61.528 24.8594 61.528 27.4024V35.7374C61.528 38.2803 63.5894 40.3418 66.1323 40.3418Z" fill="white"/>
</g>
<path d="M66.1316 41.2422C64.6713 41.2405 63.2714 40.6596 62.2389 39.627C61.2064 38.5944 60.6256 37.1944 60.624 35.7341V27.3996C60.624 25.9389 61.2043 24.5381 62.2371 23.5052C63.27 22.4723 64.6709 21.8921 66.1316 21.8921C67.5923 21.8921 68.9931 22.4723 70.026 23.5052C71.0589 24.5381 71.6391 25.9389 71.6391 27.3996V35.7341C71.6375 37.1944 71.0568 38.5944 70.0243 39.627C68.9918 40.6596 67.5918 41.2405 66.1316 41.2422ZM66.1316 23.6984C65.1503 23.6995 64.2095 24.0899 63.5157 24.7837C62.8218 25.4776 62.4315 26.4184 62.4304 27.3996V35.7341C62.4304 36.7157 62.8203 37.6571 63.5144 38.3512C64.2085 39.0454 65.1499 39.4353 66.1316 39.4353C67.1132 39.4353 68.0546 39.0454 68.7487 38.3512C69.4428 37.6571 69.8328 36.7157 69.8328 35.7341V27.3996C69.8316 26.4184 69.4413 25.4776 68.7475 24.7837C68.0536 24.0899 67.1128 23.6995 66.1316 23.6984Z" fill="#C25C12"/>
<path d="M33.0342 25.2954C33.0342 23.8033 31.8246 22.5938 30.3325 22.5938C28.8404 22.5938 27.6309 23.8033 27.6309 25.2954V31.77C27.6309 33.2621 28.8404 34.4717 30.3325 34.4717C31.8246 34.4717 33.0342 33.2621 33.0342 31.77V25.2954Z" fill="white"/>
<path d="M38.4366 23.1499C38.4366 21.6578 37.227 20.4482 35.7349 20.4482C34.2428 20.4482 33.0332 21.6578 33.0332 23.1499V31.4519C33.0332 32.944 34.2428 34.1536 35.7349 34.1536C37.227 34.1536 38.4366 32.944 38.4366 31.4519V23.1499Z" fill="white"/>
<path d="M43.8389 22.2329C43.8389 20.7408 42.6293 19.5312 41.1372 19.5312C39.6451 19.5312 38.4355 20.7408 38.4355 22.2329V30.86C38.4355 32.3521 39.6451 33.5617 41.1372 33.5617C42.6293 33.5617 43.8389 32.3521 43.8389 30.86V22.2329Z" fill="white"/>
<path d="M49.2383 22.5567C49.2383 21.0646 48.0288 19.855 46.5366 19.855C45.0445 19.855 43.835 21.0646 43.835 22.5567V30.8586C43.835 32.3507 45.0445 33.5603 46.5366 33.5603C48.0288 33.5603 49.2383 32.3507 49.2383 30.8586V22.5567Z" fill="white"/>
<path d="M38.1577 10.8176H37.6074C36.9951 10.8151 36.4041 10.5929 35.9417 10.1914C35.4794 9.79001 35.1765 9.23598 35.0881 8.63011L34.4336 2.8751C34.3864 2.51612 34.4164 2.1512 34.5215 1.80474C34.6267 1.45827 34.8046 1.13825 35.0433 0.866072C35.2821 0.593894 35.5763 0.375836 35.9061 0.226478C36.2359 0.0771205 36.5938 -9.35034e-05 36.9559 8.49746e-08H38.8092C39.1733 -3.4222e-05 39.5332 0.0780936 39.8645 0.229104C40.1958 0.380114 40.4909 0.600487 40.7297 0.87533C40.9685 1.15017 41.1456 1.47308 41.2489 1.82223C41.3522 2.17138 41.3793 2.53864 41.3285 2.89918L40.68 8.60422C40.5961 9.21485 40.2949 9.77478 39.8317 10.1813C39.3684 10.5879 38.7741 10.8138 38.1577 10.8176ZM36.9535 1.80634C36.8477 1.8062 36.743 1.82884 36.6468 1.87274C36.5505 1.91663 36.4648 1.98075 36.3955 2.06073C36.3262 2.14071 36.2749 2.23468 36.2452 2.33624C36.2154 2.4378 36.2079 2.54458 36.2231 2.6493L36.8776 8.40371C36.9076 8.57479 36.997 8.72979 37.13 8.84138C37.2631 8.95297 37.4313 9.01399 37.605 9.01366H38.1553C38.3329 9.01291 38.5043 8.94843 38.6383 8.83195C38.7724 8.71548 38.8601 8.55476 38.8857 8.37903L39.5341 2.67339C39.5523 2.56526 39.5464 2.45446 39.517 2.34885C39.4875 2.24324 39.4352 2.14539 39.3638 2.06224C39.2947 1.98229 39.2092 1.91823 39.1131 1.87447C39.0169 1.83071 38.9124 1.80829 38.8068 1.80875L36.9535 1.80634ZM24.9281 15.6815C24.5586 15.6823 24.1935 15.603 23.8578 15.4488C23.5221 15.2946 23.2239 15.0693 22.9838 14.7885L19.3537 10.2757C19.1218 9.99767 18.952 9.67335 18.8555 9.32441C18.7591 8.97547 18.7383 8.60996 18.7945 8.25233C18.8507 7.8947 18.9826 7.55319 19.1814 7.25065C19.3803 6.94811 19.6414 6.69151 19.9474 6.49802L21.5129 5.50694C21.8205 5.31225 22.1664 5.18588 22.5271 5.13636C22.8879 5.08684 23.255 5.11533 23.6038 5.2199C23.9525 5.32447 24.2748 5.50269 24.5487 5.74251C24.8227 5.98233 25.042 6.27816 25.1918 6.61001L27.6948 11.7786C27.9504 12.3392 27.9952 12.9733 27.821 13.5644C27.6468 14.1554 27.2653 14.6638 26.7464 14.9963L26.2822 15.2907C25.877 15.5467 25.4074 15.6822 24.9281 15.6815ZM22.8694 6.9183C22.731 6.91824 22.5955 6.95817 22.4793 7.0333L20.9138 8.02438C20.8247 8.08092 20.7488 8.1559 20.6911 8.24426C20.6335 8.33263 20.5954 8.43232 20.5796 8.53662C20.5637 8.64092 20.5704 8.74742 20.5992 8.84892C20.6279 8.95043 20.6781 9.04458 20.7464 9.12505L24.3771 13.6373C24.4938 13.7661 24.6522 13.8495 24.8245 13.8728C24.9967 13.896 25.1716 13.8576 25.3182 13.7643L25.7819 13.4705C25.9315 13.3751 26.0419 13.2291 26.0929 13.0591C26.144 12.8892 26.1323 12.7065 26.06 12.5445L23.557 7.3759C23.5145 7.27485 23.4503 7.18438 23.369 7.11091C23.2876 7.03745 23.191 6.98279 23.0862 6.95081C23.0159 6.92926 22.9429 6.91831 22.8694 6.9183ZM50.8316 15.6809C50.3541 15.6816 49.8863 15.5462 49.4829 15.2907L49.0181 14.9963C48.5017 14.6669 48.1208 14.1631 47.9446 13.5765C47.7685 12.9899 47.8088 12.3596 48.0583 11.8002L50.583 6.58774C50.7349 6.25917 50.9553 5.96684 51.2294 5.73031C51.5034 5.49377 51.8248 5.31848 52.1721 5.21617C52.5193 5.11385 52.8844 5.08686 53.243 5.137C53.6015 5.18715 53.9452 5.31327 54.251 5.50694L55.8165 6.49802C56.1243 6.69261 56.3866 6.95101 56.5858 7.25574C56.785 7.56048 56.9165 7.90444 56.9713 8.26437C57.0261 8.6243 57.003 8.9918 56.9035 9.34202C56.804 9.69224 56.6304 10.017 56.3946 10.2944L52.7969 14.7699C52.5551 15.0552 52.254 15.2845 51.9146 15.4418C51.5752 15.5992 51.2057 15.6807 50.8316 15.6809ZM52.8957 6.9183C52.8224 6.91817 52.7496 6.92893 52.6795 6.95021C52.5782 6.97997 52.4846 7.03142 52.4052 7.10098C52.3257 7.17053 52.2624 7.25654 52.2195 7.35302L49.6948 12.5655C49.629 12.726 49.6219 12.9046 49.6748 13.0698C49.7277 13.235 49.8371 13.3762 49.9839 13.4687L50.4481 13.7625C50.5983 13.8571 50.7775 13.8944 50.953 13.8676C51.1285 13.8409 51.2884 13.7518 51.4036 13.6168L55.0043 9.14612C55.0771 9.06431 55.1311 8.96747 55.1623 8.86247C55.1935 8.75748 55.2012 8.6469 55.1849 8.53859C55.1696 8.43418 55.1317 8.33435 55.074 8.24598C55.0163 8.15762 54.9402 8.08284 54.8507 8.02679L53.2852 7.03571C53.1694 6.95984 53.0341 6.91907 52.8957 6.9183Z" fill="#C25C12"/>
<path d="M10.8325 22.7886H10.8319C8.28899 22.7886 6.22754 24.85 6.22754 27.3929V35.728C6.22754 38.2709 8.28899 40.3324 10.8319 40.3324H10.8325C13.3754 40.3324 15.4369 38.2709 15.4369 35.728V27.3929C15.4369 24.85 13.3754 22.7886 10.8325 22.7886Z" fill="#D26E25"/>
<g style="mix-blend-mode:soft-light">
<path d="M10.8325 22.7881H10.8319C8.28899 22.7881 6.22754 24.8495 6.22754 27.3925V35.7275C6.22754 38.2705 8.28899 40.3319 10.8319 40.3319H10.8325C13.3754 40.3319 15.4369 38.2705 15.4369 35.7275V27.3925C15.4369 24.8495 13.3754 22.7881 10.8325 22.7881Z" fill="white"/>
</g>
<path d="M10.8392 41.244C9.37889 41.2423 7.97889 40.6614 6.94629 39.6288C5.91369 38.5962 5.33281 37.1962 5.33105 35.7359V27.4014C5.33105 25.9403 5.9115 24.5389 6.94471 23.5057C7.97791 22.4725 9.37923 21.8921 10.8404 21.8921C12.3016 21.8921 13.7029 22.4725 14.7361 23.5057C15.7693 24.5389 16.3498 25.9403 16.3498 27.4014V35.7359C16.3482 37.1967 15.767 38.5971 14.7338 39.6298C13.7007 40.6625 12.3 41.2431 10.8392 41.244ZM10.8392 23.7002C9.85787 23.7014 8.91704 24.0916 8.22308 24.7855C7.52911 25.4793 7.13867 26.4201 7.1374 27.4014V35.7359C7.1374 36.718 7.52754 37.6599 8.22198 38.3543C8.91643 39.0488 9.85831 39.4389 10.8404 39.4389C11.8225 39.4389 12.7644 39.0488 13.4588 38.3543C14.1533 37.6599 14.5434 36.718 14.5434 35.7359V27.4014C14.5423 26.4196 14.1516 25.4784 13.4571 24.7845C12.7625 24.0905 11.821 23.7006 10.8392 23.7002Z" fill="#C25C12"/>
<path d="M10.8392 41.2436C9.37889 41.2418 7.97889 40.6609 6.94629 39.6283C5.91369 38.5957 5.33281 37.1957 5.33105 35.7354V27.4009C5.33105 25.9398 5.9115 24.5385 6.94471 23.5053C7.97791 22.472 9.37923 21.8916 10.8404 21.8916C12.3016 21.8916 13.7029 22.472 14.7361 23.5053C15.7693 24.5385 16.3498 25.9398 16.3498 27.4009V35.7354C16.3482 37.1962 15.767 38.5967 14.7338 39.6294C13.7007 40.6621 12.3 41.2426 10.8392 41.2436ZM10.8392 23.6998C9.85787 23.7009 8.91704 24.0912 8.22308 24.785C7.52911 25.4789 7.13867 26.4196 7.1374 27.4009V35.7354C7.1374 36.7175 7.52754 37.6594 8.22198 38.3538C8.91643 39.0483 9.85831 39.4384 10.8404 39.4384C11.8225 39.4384 12.7644 39.0483 13.4588 38.3538C14.1533 37.6594 14.5434 36.7175 14.5434 35.7354V27.4009C14.5423 26.4192 14.1516 25.4779 13.4571 24.784C12.7625 24.09 11.821 23.7001 10.8392 23.6998Z" fill="#C25C12"/>
<path d="M23.3521 24.1094C23.3521 20.6773 20.5699 17.895 17.138 17.895C13.706 17.895 10.9238 20.6773 10.9238 24.1094V39.0298C10.9238 42.462 13.706 45.2443 17.138 45.2443C20.5699 45.2443 23.3521 42.462 23.3521 39.0298V24.1094Z" fill="#D26E25"/>
<path d="M53.6069 39.0361C53.6069 42.4682 56.3891 45.2505 59.821 45.2505C63.253 45.2505 66.0352 42.4682 66.0352 39.0361V24.1157C66.0352 20.6835 63.253 17.9012 59.821 17.9012C56.3891 17.9012 53.6069 20.6835 53.6069 24.1157V39.0361Z" fill="#D26E25"/>
<path d="M24.9014 37.3313C24.9014 44.4723 28.6429 51.6471 28.6429 57.9103V71.0858C28.6429 71.5785 28.8386 72.051 29.1869 72.3995C29.5353 72.7479 30.0077 72.9438 30.5004 72.9439H44.9885C45.4813 72.9439 45.9539 72.7482 46.3024 72.3997C46.6509 72.0512 46.8466 71.5786 46.8466 71.0858V57.0367C46.8426 54.7304 47.6013 52.4875 49.0046 50.6573C50.7357 48.4643 51.9802 45.928 52.6552 43.2169C52.9515 41.8722 52.9611 40.48 52.6832 39.1313C52.4054 37.7826 51.8464 36.5076 51.0428 35.3894C51.0428 35.3894 47.0748 29.4285 45.5382 27.6029C45.2553 27.3032 44.914 27.0644 44.5355 26.9012C44.157 26.738 43.7491 26.6538 43.3369 26.6538C42.9247 26.6538 42.5168 26.738 42.1383 26.9012C41.7598 27.0644 41.4186 27.3032 41.1356 27.6029C39.9199 28.8186 40.1192 30.6189 41.1356 32.0056C42.119 33.4541 42.9818 34.9809 43.715 36.5708C43.8263 36.7993 43.8803 37.0515 43.8723 37.3055C43.8643 37.5596 43.7946 37.8078 43.6692 38.0289C43.5437 38.2499 43.3663 38.4371 43.1524 38.5743C42.9384 38.7114 42.6942 38.7944 42.441 38.8161C41.5017 38.909 40.5929 39.2008 39.7752 39.6721C38.9574 40.1435 38.2494 40.7835 37.6981 41.5497C37.5002 41.8054 37.2459 42.0119 36.9549 42.1529C36.6639 42.2939 36.3443 42.3656 36.021 42.3624C35.6977 42.3593 35.3795 42.2814 35.0913 42.1347C34.8031 41.9881 34.5528 41.7767 34.36 41.5172C32.4272 38.848 29.4684 37.2512 24.9014 37.3313Z" fill="white"/>
<path d="M59.8286 16.9941C57.9417 16.9964 56.1326 17.747 54.7984 19.0813C53.4642 20.4157 52.7137 22.2248 52.7116 24.1117V24.9264H50.143V22.5607C50.1433 21.8462 49.9311 21.1477 49.5335 20.554C49.1358 19.9603 48.5706 19.4983 47.9097 19.2267C47.2489 18.955 46.5221 18.886 45.8219 19.0284C45.1217 19.1708 44.4797 19.5182 43.9774 20.0264C43.619 19.5627 43.1527 19.1937 42.619 18.9516C42.0854 18.7094 41.5007 18.6015 40.9157 18.6371C40.3308 18.6727 39.7635 18.8509 39.2632 19.156C38.7629 19.4611 38.3448 19.8839 38.0453 20.3877C37.5791 19.9958 37.0211 19.7287 36.4235 19.6114C35.8259 19.494 35.2083 19.5303 34.6285 19.7169C34.0488 19.9034 33.5259 20.234 33.1088 20.6778C32.6918 21.1216 32.3942 21.664 32.244 22.2542C31.7263 21.9265 31.1335 21.7365 30.5218 21.7021C29.9101 21.6678 29.2998 21.7902 28.7487 22.0579C28.1975 22.3255 27.7239 22.7295 27.3727 23.2315C27.0215 23.7335 26.8044 24.3169 26.7418 24.9264H24.2545V24.1117C24.2545 22.2242 23.5047 20.414 22.17 19.0793C20.8353 17.7446 19.025 16.9947 17.1375 16.9947C15.25 16.9947 13.4397 17.7446 12.105 19.0793C10.7703 20.414 10.0205 22.2242 10.0205 24.1117V39.0321C10.0226 40.8279 10.7039 42.5565 11.9276 43.8708C13.1513 45.1851 14.8269 45.9879 16.618 46.118C18.4091 46.2481 20.1831 45.6959 21.5839 44.5722C22.9847 43.4485 23.9086 41.8366 24.1702 40.0599C24.5613 42.926 25.1694 45.7583 25.9892 48.5323C26.8875 51.862 27.7353 55.0062 27.7353 57.9151V71.0911C27.7361 71.8232 28.0273 72.5251 28.545 73.0428C29.0626 73.5605 29.7645 73.8516 30.4966 73.8524H44.9859C45.718 73.8516 46.4199 73.5605 46.9376 73.0428C47.4552 72.5251 47.7464 71.8232 47.7472 71.0911V57.042C47.7472 54.0916 48.5661 52.9145 50.3929 50.2911C51.8664 48.2236 52.9318 45.8939 53.5317 43.427C53.5955 43.1518 53.6365 42.8736 53.6774 42.5954C54.4607 43.9512 55.6695 45.0105 57.1163 45.609C58.563 46.2075 60.1669 46.3119 61.679 45.9058C63.1912 45.4997 64.527 44.6059 65.4792 43.363C66.4315 42.1202 66.947 40.5978 66.9456 39.0321V24.1117C66.9436 22.2248 66.1931 20.4157 64.8589 19.0813C63.5246 17.747 61.7156 16.9964 59.8286 16.9941ZM22.4482 39.0315C22.4482 40.44 21.8886 41.7908 20.8927 42.7867C19.8968 43.7827 18.546 44.3422 17.1375 44.3422C15.729 44.3422 14.3782 43.7827 13.3823 42.7867C12.3864 41.7908 11.8269 40.44 11.8269 39.0315V24.1117C11.8269 22.7033 12.3864 21.3525 13.3823 20.3565C14.3782 19.3606 15.729 18.8011 17.1375 18.8011C18.546 18.8011 19.8968 19.3606 20.8927 20.3565C21.8886 21.3525 22.4482 22.7033 22.4482 24.1117V39.0315ZM44.7396 22.5607C44.7396 22.0837 44.9291 21.6262 45.2664 21.2889C45.6037 20.9517 46.0612 20.7622 46.5382 20.7622C47.0152 20.7622 47.4726 20.9517 47.8099 21.2889C48.1472 21.6262 48.3367 22.0837 48.3367 22.5607V29.8499C47.525 28.7059 46.7459 27.6419 46.2257 27.0254C45.8296 26.5551 45.3173 26.1967 44.7396 25.9861V22.5607ZM39.3363 22.2349C39.3363 21.7579 39.5257 21.3005 39.863 20.9632C40.2003 20.6259 40.6578 20.4364 41.1348 20.4364C41.6118 20.4364 42.0692 20.6259 42.4065 20.9632C42.7438 21.3005 42.9333 21.7579 42.9333 22.2349V25.7874C42.0103 25.8948 41.1507 26.3111 40.4941 26.9688C39.0683 28.3934 39.0226 30.5989 40.3629 32.4787C40.0571 32.3335 39.7986 32.1046 39.6175 31.8186C39.4363 31.5326 39.3399 31.2012 39.3393 30.8626L39.3363 22.2349ZM33.9335 23.149C33.9291 22.91 33.9724 22.6727 34.0608 22.4507C34.1492 22.2287 34.281 22.0265 34.4484 21.856C34.6158 21.6855 34.8155 21.5501 35.0359 21.4576C35.2562 21.3652 35.4928 21.3175 35.7317 21.3175C35.9707 21.3175 36.2072 21.3652 36.4276 21.4576C36.6479 21.5501 36.8476 21.6855 37.015 21.856C37.1824 22.0265 37.3142 22.2287 37.4026 22.4507C37.491 22.6727 37.5343 22.91 37.5299 23.149V31.4509C37.5343 31.6898 37.491 31.9272 37.4026 32.1492C37.3142 32.3712 37.1824 32.5734 37.015 32.7439C36.8476 32.9144 36.6479 33.0498 36.4276 33.1423C36.2072 33.2347 35.9707 33.2823 35.7317 33.2823C35.4928 33.2823 35.2562 33.2347 35.0359 33.1423C34.8155 33.0498 34.6158 32.9144 34.4484 32.7439C34.281 32.5734 34.1492 32.3712 34.0608 32.1492C33.9724 31.9272 33.9291 31.6898 33.9335 31.4509V23.149ZM28.5301 25.3015C28.5301 24.8245 28.7196 24.3671 29.0569 24.0298C29.3942 23.6925 29.8516 23.503 30.3286 23.503C30.8056 23.503 31.2631 23.6925 31.6004 24.0298C31.9377 24.3671 32.1271 24.8245 32.1271 25.3015V31.7761C32.1271 32.253 31.9377 32.7105 31.6004 33.0478C31.2631 33.3851 30.8056 33.5746 30.3286 33.5746C29.8516 33.5746 29.3942 33.3851 29.0569 33.0478C28.7196 32.7105 28.5301 32.253 28.5301 31.7761V25.3015ZM24.2551 26.7297H26.7238V31.7761C26.7228 32.5274 26.9569 33.2602 27.3933 33.8719C27.8297 34.4835 28.4465 34.9433 29.1573 35.1868C29.8681 35.4304 30.6372 35.4455 31.357 35.23C32.0768 35.0145 32.7112 34.5793 33.1712 33.9852C33.5429 34.3618 33.9931 34.6517 34.4897 34.8343C34.9863 35.0169 35.5171 35.0877 36.0442 35.0417C36.5713 34.9957 37.0818 34.834 37.5393 34.5682C37.9967 34.3023 38.3899 33.9388 38.6908 33.5035C39.3543 34.1222 40.2276 34.4665 41.1348 34.4669C41.2861 34.4657 41.4372 34.4545 41.587 34.4332C41.9197 35.0269 42.2696 35.6936 42.6365 36.4334H24.2545L24.2551 26.7297ZM51.7717 43.0175C51.2171 45.279 50.235 47.4135 48.8786 49.306C46.9837 52.0252 45.9409 53.5208 45.9409 57.042V71.0911C45.9405 71.3443 45.8398 71.587 45.6608 71.766C45.4818 71.9451 45.2391 72.0458 44.9859 72.0461H30.4978C30.2447 72.0458 30.0019 71.9451 29.8229 71.766C29.6439 71.587 29.5432 71.3443 29.5429 71.0911V57.9151C29.5429 54.7672 28.6638 51.5098 27.7329 48.0614C26.8635 44.8389 25.9759 41.5171 25.8314 38.2398H40.7639C37.6154 39.2682 35.7874 42.4383 35.1606 44.3892C35.0894 44.6166 35.111 44.863 35.2207 45.0745C35.3304 45.2861 35.5193 45.4458 35.7462 45.5187C35.9731 45.5916 36.2196 45.5719 36.432 45.4639C36.6444 45.3558 36.8056 45.1682 36.8802 44.9419C37.4685 43.1115 39.3146 39.9522 42.4974 39.721C42.8946 39.6916 43.2787 39.5655 43.616 39.3536C43.9533 39.1417 44.2337 38.8504 44.4326 38.5053C44.636 38.1546 44.7506 37.7595 44.7662 37.3544C44.7818 36.9492 44.6981 36.5464 44.5223 36.1811C43.7712 34.5392 42.88 32.965 41.8585 31.4762C41.2106 30.5923 40.7988 29.2159 41.7688 28.2459C41.9972 28.0189 42.2698 27.8412 42.5696 27.7238C42.8694 27.6064 43.1901 27.5516 43.5119 27.5631C43.7651 27.5684 44.0144 27.6268 44.2435 27.7347C44.4727 27.8426 44.6766 27.9975 44.842 28.1893C46.328 29.9522 50.246 35.8361 50.299 35.9138C51.0302 36.9277 51.5393 38.0845 51.7932 39.3085C52.0471 40.5326 52.04 41.7964 51.7723 43.0175H51.7717ZM52.711 36.4334H52.6839C52.4278 35.8968 52.1288 35.3817 51.7898 34.8932C51.7169 34.7842 50.9101 33.5734 49.9022 32.1036C50.0581 31.7083 50.1398 31.2876 50.143 30.8626V26.7327H52.7116L52.711 36.4334ZM65.1387 39.0321C65.1387 40.4406 64.5792 41.7914 63.5832 42.7873C62.5873 43.7833 61.2365 44.3428 59.828 44.3428C58.4196 44.3428 57.0688 43.7833 56.0728 42.7873C55.0769 41.7914 54.5174 40.4406 54.5174 39.0321V24.1117C54.5174 22.7033 55.0769 21.3525 56.0728 20.3565C57.0688 19.3606 58.4196 18.8011 59.828 18.8011C61.2365 18.8011 62.5873 19.3606 63.5832 20.3565C64.5792 21.3525 65.1387 22.7033 65.1387 24.1117V39.0321Z" fill="#C25C12"/>
</svg>
